<COLLADA xmlns="http://www.collada.org/2005/11/COLLADASchema" version="1.4.1">
  <asset>
    <created>2026-09-27T19:05:54.427144</created>
    <modified>2026-09-27T19:05:54.427144</modified>
    <up_axis>Y_UP</up_axis>
  </asset>
  <library_effects>
    <effect id="f7867cdb92e148e0bfbd8bae216deaf5" name="f7867cdb92e148e0bfbd8bae216deaf5">
      <profile_COMMON>
        <technique sid="common">
          <phong>
            <emission>
              <color>0.0 0.0 0.0 1.0</color>
            </emission>
            <ambient>
              <color>0.0 0.0 0.0 1.0</color>
            </ambient>
            <diffuse>
              <color>0.8941176470588236 0.8941176470588236 0.8941176470588236 1.0</color>
            </diffuse>
            <specular>
              <color>0.0 0.0 0.0 1.0</color>
            </specular>
            <shininess>
              <float>0.0</float>
            </shininess>
            <reflective>
              <color>0.0 0.0 0.0 1.0</color>
            </reflective>
            <reflectivity>
              <float>0.0</float>
            </reflectivity>
            <transparent>
              <color>0.0 0.0 0.0 1.0</color>
            </transparent>
            <transparency>
              <float>1.0</float>
            </transparency>
          </phong>
        </technique>
        <extra>
          <technique profile="GOOGLEEARTH">
            <double_sided>0</double_sided>
          </technique>
        </extra>
      </profile_COMMON>
    </effect>
  </library_effects>
  <library_geometries>
    <geometry id="26d5e827575649b99f5e4cd0b17d7f86" name="36d40c8d52f14b698dafdf0c79395f48">
      <mesh>
        <source id="verts-array">
          <float_array count="672" id="verts-array-array">0.004712994 0.004555078 0.00845807 -0.001814416 -0.001644314 0.008515635 -0.006163146 -0.00590719 -0.005734999 0.001814416 0.001644314 -0.008515635 0.003429842 0.00317856 -0.008529881 0.006163146 0.00579308 -0.006554072 0.006163146 0.005876668 0.00244792 0.006163146 0.005897354 0.004675764 0.006163146 0.00590719 0.005734999 0.005846034 0.005624199 0.007696281 0.005686865 0.005475199 0.007931444 0.006163146 0.005911963 0.006249116 0.006163146 0.005913786 0.006445368 0.006149022 0.005902983 0.00672683 0.006081996 0.005842834 0.007105225 0.00597868 0.005747655 0.007423303 0.005500746 0.005300264 0.008130297 0.005284499 0.00509636 0.008291187 0.005029548 0.004855275 0.008406971 0.005190942 0.004852201 -0.008433497 0.005420922 0.005071946 -0.008293041 0.005618012 0.005260831 -0.008111847 0.005787513 0.005423852 -0.007893831 -0.006081996 -0.005842834 -0.007105225 -0.00597868 -0.005747655 -0.007423303 -0.004712994 -0.004555078 -0.00845807 -0.005846034 -0.005624199 -0.007696281 -0.005686865 -0.005475199 -0.007931444 -0.005190942 -0.004852201 0.008433497 -0.005420922 -0.005071946 0.008293041 -0.006163146 -0.00579308 0.006554072 -0.005618012 -0.005260831 0.008111847 -0.005787513 -0.005423852 0.007893831 0.0041979 0.003908022 -0.008536654 0.004570691 0.004262079 -0.008539942 0.004712994 0.004397231 -0.008541197 0.004916994 0.004591161 -0.008523517 0.005930513 0.005562049 -0.007638413 0.006045793 0.005674305 -0.007341203 0.006128118 0.005755758 -0.006990324 -0.006163146 -0.005911963 -0.006249116 -0.006163146 -0.005913786 -0.006445368 -0.006149022 -0.005902983 -0.00672683 -0.005500746 -0.005300264 -0.008130297 -0.005284499 -0.00509636 -0.008291187 -0.005029548 -0.004855275 -0.008406971 -0.003429842 -0.00317856 0.008529881 -0.0041979 -0.003908022 0.008536654 -0.006163146 -0.005897354 -0.004675764 -0.004570691 -0.004262079 0.008539942 -0.006163146 -0.005876668 -0.00244792 -0.004712994 -0.004397231 0.008541197 -0.004916994 -0.004591161 0.008523517 -0.005930513 -0.005562049 0.007638413 -0.006045793 -0.005674305 0.007341203 -0.006128118 -0.005755758 0.006990324 -0.02555203 0.03783206 0.003983838 -0.02555203 0.03782818 0.003566136 -0.02772726 0.03579553 0.007167945 -0.02814982 0.03525493 -0.007827682 -0.02873309 0.03470097 -0.007822538 -0.03642817 0.02743332 -0.003367655 -0.02983956 0.0336501 -0.00781278 -0.03642817 0.02742585 -0.004172051 -0.03214063 0.03160393 0.007206866 -0.02784694 0.03554259 -0.007830353 -0.02772726 0.03565625 -0.007831408 -0.03642817 0.02744749 -0.001841711 -0.03383038 0.0299991 0.007221768 -0.03324711 0.03055306 0.007216624 -0.02629187 0.03715186 0.006409429 -0.02598174 0.0374421 0.005942614 -0.02665762 0.03680781 0.006770829 -0.02575722 0.03765052 0.005422546 -0.02703695 0.0364497 0.007006804 -0.02562194 0.0377742 0.004903965 -0.02739842 0.03610752 0.007130556 -0.02556097 0.03782763 0.004420938 -0.02555203 0.03783359 0.004148891 -0.03568833 0.02810217 -0.007015343 -0.03599846 0.02781193 -0.006548528 -0.03532257 0.02844622 -0.007376743 -0.03622298 0.02760351 -0.00602846 -0.03494324 0.02880433 -0.007612718 -0.03635826 0.02747983 -0.00550988 -0.03458178 0.02914651 -0.007736471 -0.03641923 0.0274264 -0.005026853 -0.03425294 0.0294585 -0.007773859 -0.03642817 0.02742044 -0.004754806 -0.03642817 0.02742197 -0.004589753 -0.02555203 0.03782071 0.002761741 -0.02555203 0.03780654 0.001235797 -0.02555203 0.03775003 -0.004850721 -0.02753005 0.03584366 -0.007820818 -0.02557704 0.03772206 -0.005304001 -0.02718019 0.03617672 -0.007739817 -0.02566446 0.03763441 -0.005801728 -0.02680503 0.03653476 -0.007556564 -0.02583314 0.03746934 -0.006323378 -0.02642936 0.03689443 -0.00725024 -0.02609285 0.03721799 -0.006825506 -0.03588734 0.02803603 0.006219592 -0.03555083 0.0283596 0.006644325 -0.03614706 0.02778469 0.005717464 -0.03517516 0.02871927 0.006950649 -0.03631574 0.02761962 0.005195814 -0.0348 0.02907731 0.007133903 -0.03640316 0.02753197 0.004698086 -0.03445015 0.02941037 0.007214904 -0.03642817 0.027504 0.004244806 -0.03425294 0.02959778 0.007225494 -0.03413326 0.02971144 0.007224439 -0.02772726 0.03565625 -0.007831408 0.004916994 0.004591161 -0.008523517 0.004712994 0.004397231 -0.008541197 -0.02784694 0.03554259 -0.007830353 -0.02753005 0.03584366 -0.007820818 -0.02718019 0.03617672 -0.007739817 0.005190942 0.004852201 -0.008433497 -0.02680503 0.03653476 -0.007556564 0.005420922 0.005071946 -0.008293041 -0.02642936 0.03689443 -0.00725024 0.005618012 0.005260831 -0.008111847 -0.02609285 0.03721799 -0.006825506 0.005787513 0.005423852 -0.007893831 -0.02583314 0.03746934 -0.006323378 0.005930513 0.005562049 -0.007638413 -0.02566446 0.03763441 -0.005801728 0.006045793 0.005674305 -0.007341203 -0.02557704 0.03772206 -0.005304001 0.006128118 0.005755758 -0.006990324 -0.02555203 0.03775003 -0.004850721 0.006163146 0.00579308 -0.006554072 -0.02555203 0.03780654 0.001235797 0.006163146 0.005876668 0.00244792 -0.02555203 0.03782071 0.002761741 0.006163146 0.005897354 0.004675764 -0.02555203 0.03782818 0.003566136 0.006163146 0.00590719 0.005734999 -0.02555203 0.03783206 0.003983838 0.006163146 0.005911963 0.006249116 0.006163146 0.005913786 0.006445368 -0.02555203 0.03783359 0.004148891 0.006149022 0.005902983 0.00672683 -0.02556097 0.03782763 0.004420938 -0.02562194 0.0377742 0.004903965 0.006081996 0.005842834 0.007105225 -0.02575722 0.03765052 0.005422546 0.00597868 0.005747655 0.007423303 -0.02598174 0.0374421 0.005942614 0.005846034 0.005624199 0.007696281 -0.02629187 0.03715186 0.006409429 0.005686865 0.005475199 0.007931444 -0.02665762 0.03680781 0.006770829 0.005500746 0.005300264 0.008130297 -0.02703695 0.0364497 0.007006804 0.005284499 0.00509636 0.008291187 -0.02739842 0.03610752 0.007130556 0.005029548 0.004855275 0.008406971 -0.02772726 0.03579553 0.007167945 0.004712994 0.004555078 0.00845807 -0.03214063 0.03160393 0.007206866 -0.001814416 -0.001644314 0.008515635 -0.03324711 0.03055306 0.007216624 -0.003429842 -0.00317856 0.008529881 -0.03383038 0.0299991 0.007221768 -0.0041979 -0.003908022 0.008536654 -0.03413326 0.02971144 0.007224439 -0.004570691 -0.004262079 0.008539942 -0.004712994 -0.004397231 0.008541197 -0.03425294 0.02959778 0.007225494 -0.004916994 -0.004591161 0.008523517 -0.03445015 0.02941037 0.007214904 -0.0348 0.02907731 0.007133903 -0.005190942 -0.004852201 0.008433497 -0.03517516 0.02871927 0.006950649 -0.005420922 -0.005071946 0.008293041 -0.03555083 0.0283596 0.006644325 -0.005618012 -0.005260831 0.008111847 -0.03588734 0.02803603 0.006219592 -0.005787513 -0.005423852 0.007893831 -0.03614706 0.02778469 0.005717464 -0.005930513 -0.005562049 0.007638413 -0.03631574 0.02761962 0.005195814 -0.006045793 -0.005674305 0.007341203 -0.03640316 0.02753197 0.004698086 -0.006128118 -0.005755758 0.006990324 -0.03642817 0.027504 0.004244806 -0.006163146 -0.00579308 0.006554072 -0.03642817 0.02744749 -0.001841711 -0.006163146 -0.005876668 -0.00244792 -0.03642817 0.02743332 -0.003367655 -0.006163146 -0.005897354 -0.004675764 -0.03642817 0.02742585 -0.004172051 -0.006163146 -0.00590719 -0.005734999 -0.03642817 0.02742197 -0.004589753 -0.006163146 -0.005911963 -0.006249116 -0.006163146 -0.005913786 -0.006445368 -0.03642817 0.02742044 -0.004754806 -0.006149022 -0.005902983 -0.00672683 -0.03641923 0.0274264 -0.005026853 -0.03635826 0.02747983 -0.00550988 -0.006081996 -0.005842834 -0.007105225 -0.03622298 0.02760351 -0.00602846 -0.00597868 -0.005747655 -0.007423303 -0.03599846 0.02781193 -0.006548528 -0.005846034 -0.005624199 -0.007696281 -0.03568833 0.02810217 -0.007015343 -0.005686865 -0.005475199 -0.007931444 -0.03532257 0.02844622 -0.007376743 -0.005500746 -0.005300264 -0.008130297 -0.03494324 0.02880433 -0.007612718 -0.005284499 -0.00509636 -0.008291187 -0.03458178 0.02914651 -0.007736471 -0.005029548 -0.004855275 -0.008406971 -0.03425294 0.0294585 -0.007773859 -0.004712994 -0.004555078 -0.00845807 -0.02983956 0.0336501 -0.00781278 0.001814416 0.001644314 -0.008515635 -0.02873309 0.03470097 -0.007822538 0.003429842 0.00317856 -0.008529881 -0.02814982 0.03525493 -0.007827682 0.0041979 0.003908022 -0.008536654 0.004570691 0.004262079 -0.008539942</float_array>
          <technique_common>
            <accessor count="224" source="#verts-array-array" stride="3">
              <param type="float" name="X"/>
              <param type="float" name="Y"/>
              <param type="float" name="Z"/>
            </accessor>
          </technique_common>
        </source>
        <source id="normals-array">
          <float_array count="672" id="normals-array-array">0.6886688 -0.7250448 0.006732383 0.6886688 -0.7250448 0.006732383 0.6886688 -0.7250448 0.006732383 0.6886688 -0.7250448 0.006732383 0.6886688 -0.7250448 0.006732383 0.6886688 -0.7250448 0.006732383 0.6886688 -0.7250448 0.006732383 0.6886688 -0.7250448 0.006732383 0.6886688 -0.7250448 0.006732383 0.6886688 -0.7250448 0.006732383 0.6886688 -0.7250448 0.006732383 0.6886688 -0.7250448 0.006732383 0.6886688 -0.7250448 0.006732383 0.6886688 -0.7250448 0.006732383 0.6886688 -0.7250448 0.006732383 0.6886688 -0.7250448 0.006732383 0.6886688 -0.7250448 0.006732383 0.6886688 -0.7250448 0.006732383 0.6886688 -0.7250448 0.006732383 0.6886688 -0.7250448 0.006732383 0.6886688 -0.7250448 0.006732383 0.6886688 -0.7250448 0.006732383 0.6886688 -0.7250448 0.006732383 0.6886688 -0.7250448 0.006732383 0.6886688 -0.7250448 0.006732383 0.6886688 -0.7250448 0.006732383 0.6886688 -0.7250448 0.006732383 0.6886688 -0.7250448 0.006732383 0.6886688 -0.7250448 0.006732383 0.6886688 -0.7250448 0.006732383 0.6886688 -0.7250448 0.006732383 0.6886688 -0.7250448 0.006732383 0.6886688 -0.7250448 0.006732383 0.6886688 -0.7250448 0.006732383 0.6886688 -0.7250448 0.006732383 0.6886688 -0.7250448 0.006732383 0.6886688 -0.7250448 0.006732383 0.6886688 -0.7250448 0.006732383 0.6886688 -0.7250448 0.006732383 0.6886688 -0.7250448 0.006732383 0.6886688 -0.7250448 0.006732383 0.6886688 -0.7250448 0.006732383 0.6886688 -0.7250448 0.006732383 0.6886688 -0.7250448 0.006732383 0.6886688 -0.7250448 0.006732383 0.6886688 -0.7250448 0.006732383 0.6886688 -0.7250448 0.006732383 0.6886688 -0.7250448 0.006732383 0.6886688 -0.7250448 0.006732383 0.6886688 -0.7250448 0.006732383 0.6886688 -0.7250448 0.006732383 0.6886688 -0.7250448 0.006732383 0.6886688 -0.7250448 0.006732383 0.6886688 -0.7250448 0.006732383 0.6886688 -0.7250448 0.006732383 0.6886688 -0.7250448 0.006732383 -0.6886688 0.7250448 -0.006732383 -0.6886688 0.7250448 -0.006732383 -0.6886688 0.7250448 -0.006732383 -0.6886688 0.7250448 -0.006732383 -0.6886688 0.7250448 -0.006732383 -0.6886688 0.7250448 -0.006732383 -0.6886688 0.7250448 -0.006732383 -0.6886688 0.7250448 -0.006732383 -0.6886688 0.7250448 -0.006732383 -0.6886688 0.7250448 -0.006732383 -0.6886688 0.7250448 -0.006732383 -0.6886688 0.7250448 -0.006732383 -0.6886688 0.7250448 -0.006732383 -0.6886688 0.7250448 -0.006732383 -0.6886688 0.7250448 -0.006732383 -0.6886688 0.7250448 -0.006732383 -0.6886688 0.7250448 -0.006732383 -0.6886688 0.7250448 -0.006732383 -0.6886688 0.7250448 -0.006732383 -0.6886688 0.7250448 -0.006732383 -0.6886688 0.7250448 -0.006732383 -0.6886688 0.7250448 -0.006732383 -0.6886688 0.7250448 -0.006732383 -0.6886688 0.7250448 -0.006732383 -0.6886688 0.7250448 -0.006732383 -0.6886688 0.7250448 -0.006732383 -0.6886688 0.7250448 -0.006732383 -0.6886688 0.7250448 -0.006732383 -0.6886688 0.7250448 -0.006732383 -0.6886688 0.7250448 -0.006732383 -0.6886688 0.7250448 -0.006732383 -0.6886688 0.7250448 -0.006732383 -0.6886688 0.7250448 -0.006732383 -0.6886688 0.7250448 -0.006732383 -0.6886688 0.7250448 -0.006732383 -0.6886688 0.7250448 -0.006732383 -0.6886688 0.7250448 -0.006732383 -0.6886688 0.7250448 -0.006732383 -0.6886688 0.7250448 -0.006732383 -0.6886688 0.7250448 -0.006732383 -0.6886688 0.7250448 -0.006732383 -0.6886688 0.7250448 -0.006732383 -0.6886688 0.7250448 -0.006732383 -0.6886688 0.7250448 -0.006732383 -0.6886688 0.7250448 -0.006732383 -0.6886688 0.7250448 -0.006732383 -0.6886688 0.7250448 -0.006732383 -0.6886688 0.7250448 -0.006732383 -0.6886688 0.7250448 -0.006732383 -0.6886688 0.7250448 -0.006732383 -0.6886688 0.7250448 -0.006732383 -0.6886688 0.7250448 -0.006732383 -0.6886688 0.7250448 -0.006732383 -0.6886688 0.7250448 -0.006732383 -0.6886688 0.7250448 -0.006732383 -0.6886688 0.7250448 -0.006732383 7.253555e-05 0.02267208 -0.999743 0.09335926 0.1187158 -0.9885295 0.009367188 0.0324149 -0.9994306 -0.01529997 0.006825349 -0.9998597 0.05917661 0.08380439 -0.9947236 0.1623977 0.1896938 -0.9683198 0.2132441 0.2406589 -0.9468951 0.2837687 0.3122999 -0.9066113 0.3264338 0.3543445 -0.8762882 0.4056671 0.4331751 -0.8048562 0.424277 0.4511191 -0.7851628 0.5160722 0.5398635 -0.6649939 0.508851 0.5333007 -0.675767 0.6036599 0.6213415 -0.4995292 0.5813851 0.6019573 -0.5473927 0.6632378 0.6734132 -0.3265429 0.6414464 0.6561662 -0.3974826 0.696754 0.6991105 -0.1605567 0.6869663 0.6931102 -0.2183473 0.7080667 0.7048024 -0.04353296 0.7066877 0.7047052 -0.0631118 0.7095971 0.7045773 -0.006542333 0.7095971 0.7045773 -0.006542333 0.7095971 0.7045773 -0.006542333 0.7095971 0.7045773 -0.006542333 0.7095971 0.7045773 -0.006542333 0.7095971 0.7045773 -0.006542333 0.7095971 0.7045773 -0.006542333 0.7095971 0.7045773 -0.006542333 0.7080372 0.7055813 0.02895467 0.7087844 0.7052546 0.0155105 0.696346 0.7020153 0.1492541 0.7022635 0.7047963 0.1004394 0.678611 0.691304 0.2481649 0.6615003 0.6781907 0.3201168 0.6296731 0.6531736 0.4205664 0.606786 0.6332292 0.4804492 0.5530113 0.586099 0.5921709 0.5385695 0.5727067 0.618021 0.4506252 0.4907988 0.74569 0.4582825 0.4983776 0.7359327 0.331731 0.3757287 0.8653222 0.3654574 0.4097065 0.8358118 0.2090151 0.2537805 0.9444089 0.2585135 0.3046482 0.9167116 0.09232876 0.1356601 0.986444 0.1323561 0.1774077 0.9751966 0.0105087 0.0519179 0.9985961 0.02400862 0.066125 0.9975225 -0.01529997 0.02539091 0.9995605 -0.01529997 0.02539091 0.9995605 -0.01529997 0.02539091 0.9995605 -0.01529997 0.02539091 0.9995605 -0.01529997 0.02539091 0.9995605 -0.01529997 0.02539091 0.9995605 -0.01529997 0.02539091 0.9995605 -0.01529997 0.02539091 0.9995605 -0.04212016 0.002068102 0.9991104 -0.03191517 0.0108525 0.9994317 -0.132525 -0.07748133 0.9881466 -0.09595939 -0.04507873 0.994364 -0.2067719 -0.1429757 0.967886 -0.2600857 -0.1913431 0.9464371 -0.3348851 -0.2584836 0.9061116 -0.3787869 -0.2992261 0.8757764 -0.4609254 -0.3749981 0.804316 -0.4796201 -0.3928528 0.7846217 -0.5718535 -0.4811359 0.6644486 -0.5650279 -0.4741565 0.6752178 -0.6561938 -0.5660327 0.4990157 -0.6361335 -0.544317 0.5468575 -0.7096567 -0.6245424 0.3260891 -0.6919695 -0.6029745 0.3969886 -0.7355048 -0.6583128 0.1601779 -0.7295448 -0.6482827 0.2179311 -0.740686 -0.6704601 0.04321407 -0.7406995 -0.6688968 0.0627793 -0.740197 -0.672361 0.006243189 -0.740197 -0.672361 0.006243189 -0.740197 -0.672361 0.006243189 -0.740197 -0.672361 0.006243189 -0.740197 -0.672361 0.006243189 -0.740197 -0.672361 0.006243189 -0.740197 -0.672361 0.006243189 -0.740197 -0.672361 0.006243189 -0.7407902 -0.6710983 -0.02927486 -0.7406271 -0.67173 -0.01582179 -0.7355118 -0.6607808 -0.149637 -0.7390463 -0.6660707 -0.100799 -0.7229852 -0.644586 -0.2485987 -0.7083419 -0.6288749 -0.3205747 -0.6807894 -0.5993572 -0.4210661 -0.6591391 -0.5781108 -0.480961 -0.6082696 -0.5279219 -0.5927111 -0.5939126 -0.5144403 -0.618562 -0.5064064 -0.4320712 -0.7462353 -0.5144594 -0.4392333 -0.7364819 -0.3842649 -0.3204199 -0.8658358 -0.4202058 -0.3520663 -0.8363471 -0.255434 -0.2049097 -0.9448627 -0.3090366 -0.2514564 -0.9172055 -0.1310795 -0.09486243 -0.9868228 -0.1749346 -0.1325802 -0.9756128 -0.04312799 -0.01757563 -0.9989149 -0.05802045 -0.03031664 -0.997855 -0.01529997 0.006825349 -0.9998597 -0.01529997 0.006825349 -0.9998597 -0.01529997 0.006825349 -0.9998597 -0.01529997 0.006825349 -0.9998597 -0.01529997 0.006825349 -0.9998597 -0.01529997 0.006825349 -0.9998597 -0.01529997 0.006825349 -0.9998597</float_array>
          <technique_common>
            <accessor count="224" source="#normals-array-array" stride="3">
              <param type="float" name="X"/>
              <param type="float" name="Y"/>
              <param type="float" name="Z"/>
            </accessor>
          </technique_common>
        </source>
        <vertices id="verts-array-vertices">
          <input semantic="POSITION" source="#verts-array"/>
        </vertices>
        <triangles count="220" material="material0">
          <input offset="0" semantic="VERTEX" source="#verts-array-vertices"/>
          <input offset="1" semantic="NORMAL" source="#normals-array"/>
          <p>0 0 1 1 2 2 2 2 3 3 4 4 5 5 6 6 0 0 7 7 0 0 6 6 0 0 7 7 8 8 0 0 9 9 10 10 8 8 11 11 0 0 12 12 0 0 11 11 0 0 12 12 13 13 13 13 14 14 0 0 15 15 0 0 14 14 0 0 15 15 9 9 10 10 16 16 0 0 17 17 0 0 16 16 0 0 17 17 18 18 19 19 20 20 5 5 21 21 5 5 20 20 5 5 21 21 22 22 23 23 24 24 25 25 26 26 25 25 24 24 25 25 26 26 27 27 28 28 29 29 30 30 31 31 30 30 29 29 30 30 31 31 32 32 4 4 33 33 2 2 34 34 2 2 33 33 2 2 34 34 0 0 35 35 0 0 34 34 0 0 35 35 5 5 36 36 5 5 35 35 5 5 36 36 19 19 22 22 37 37 5 5 38 38 5 5 37 37 5 5 38 38 39 39 2 2 40 40 3 3 41 41 3 3 40 40 3 3 41 41 25 25 42 42 25 25 41 41 25 25 42 42 23 23 27 27 43 43 25 25 44 44 25 25 43 43 25 25 44 44 45 45 1 1 46 46 2 2 47 47 2 2 46 46 2 2 47 47 48 48 49 49 48 48 47 47 48 48 49 49 50 50 51 51 50 50 49 49 50 50 51 51 30 30 52 52 30 30 51 51 30 30 52 52 28 28 32 32 53 53 30 30 54 54 30 30 53 53 30 30 54 54 55 55 56 56 57 57 58 58 59 59 60 60 61 61 62 62 61 61 60 60 61 61 62 62 63 63 61 61 64 64 59 59 58 58 59 59 64 64 59 59 58 58 65 65 66 66 65 65 58 58 67 67 68 68 61 61 69 69 61 61 68 68 61 61 69 69 64 64 70 70 71 71 72 72 73 73 72 72 71 71 72 72 73 73 74 74 75 75 74 74 73 73 74 74 75 75 76 76 77 77 76 76 75 75 76 76 77 77 58 58 78 78 58 58 77 77 58 58 78 78 56 56 79 79 80 80 81 81 82 82 81 81 80 80 81 81 82 82 83 83 84 84 83 83 82 82 83 83 84 84 85 85 86 86 85 85 84 84 85 85 86 86 87 87 88 88 87 87 86 86 87 87 88 88 62 62 89 89 62 62 88 88 62 62 89 89 63 63 57 57 90 90 58 58 91 91 58 58 90 90 58 58 91 91 66 66 92 92 66 66 91 91 66 66 92 92 93 93 94 94 93 93 92 92 93 93 94 94 95 95 96 96 95 95 94 94 95 95 96 96 97 97 98 98 97 97 96 96 97 97 98 98 99 99 100 100 99 99 98 98 101 101 102 102 103 103 104 104 103 103 102 102 103 103 104 104 105 105 106 106 105 105 104 104 105 105 106 106 107 107 108 108 107 107 106 106 107 107 108 108 109 109 110 110 109 109 108 108 109 109 110 110 67 67 111 111 67 67 110 110 67 67 111 111 68 68 112 112 113 113 114 114 112 112 114 114 115 115 112 112 116 116 113 113 117 117 113 113 116 116 113 113 117 117 118 118 119 119 118 118 117 117 118 118 119 119 120 120 121 121 120 120 119 119 120 120 121 121 122 122 123 123 122 122 121 121 122 122 123 123 124 124 125 125 124 124 123 123 124 124 125 125 126 126 127 127 126 126 125 125 126 126 127 127 128 128 129 129 128 128 127 127 128 128 129 129 130 130 131 131 130 130 129 129 130 130 131 131 132 132 133 133 132 132 131 131 132 132 133 133 134 134 135 135 134 134 133 133 134 134 135 135 136 136 137 137 136 136 135 135 136 136 137 137 138 138 139 139 138 138 137 137 138 138 139 139 140 140 140 140 139 139 141 141 142 142 141 141 139 139 141 141 142 142 143 143 142 142 144 144 143 143 145 145 143 143 144 144 143 143 145 145 146 146 147 147 146 146 145 145 146 146 147 147 148 148 149 149 148 148 147 147 148 148 149 149 150 150 151 151 150 150 149 149 150 150 151 151 152 152 153 153 152 152 151 151 152 152 153 153 154 154 155 155 154 154 153 153 154 154 155 155 156 156 157 157 156 156 155 155 156 156 157 157 158 158 159 159 158 158 157 157 158 158 159 159 160 160 161 161 160 160 159 159 160 160 161 161 162 162 163 163 162 162 161 161 162 162 163 163 164 164 165 165 164 164 163 163 164 164 165 165 166 166 167 167 166 166 165 165 166 166 167 167 168 168 168 168 167 167 169 169 170 170 169 169 167 167 169 169 170 170 171 171 170 170 172 172 171 171 173 173 171 171 172 172 171 171 173 173 174 174 175 175 174 174 173 173 174 174 175 175 176 176 177 177 176 176 175 175 176 176 177 177 178 178 179 179 178 178 177 177 178 178 179 179 180 180 181 181 180 180 179 179 180 180 181 181 182 182 183 183 182 182 181 181 182 182 183 183 184 184 185 185 184 184 183 183 184 184 185 185 186 186 187 187 186 186 185 185 186 186 187 187 188 188 189 189 188 188 187 187 188 188 189 189 190 190 191 191 190 190 189 189 190 190 191 191 192 192 193 193 192 192 191 191 192 192 193 193 194 194 195 195 194 194 193 193 194 194 195 195 196 196 196 196 195 195 197 197 198 198 197 197 195 195 197 197 198 198 199 199 198 198 200 200 199 199 201 201 199 199 200 200 199 199 201 201 202 202 203 203 202 202 201 201 202 202 203 203 204 204 205 205 204 204 203 203 204 204 205 205 206 206 207 207 206 206 205 205 206 206 207 207 208 208 209 209 208 208 207 207 208 208 209 209 210 210 211 211 210 210 209 209 210 210 211 211 212 212 213 213 212 212 211 211 212 212 213 213 214 214 215 215 214 214 213 213 214 214 215 215 216 216 217 217 216 216 215 215 216 216 217 217 218 218 219 219 218 218 217 217 218 218 219 219 220 220 221 221 220 220 219 219 220 220 221 221 222 222 115 115 222 222 221 221 222 222 115 115 223 223 114 114 223 223 115 115</p>
        </triangles>
      </mesh>
    </geometry>
  </library_geometries>
  <library_materials>
    <material id="70f87445b7b648faba54fc3becb95909" name="defaultmaterial">
      <instance_effect url="#f7867cdb92e148e0bfbd8bae216deaf5"/>
    </material>
  </library_materials>
  <library_visual_scenes>
    <visual_scene id="scene">
      <node id="node0" name="node0">
        <instance_geometry url="#26d5e827575649b99f5e4cd0b17d7f86">
          <bind_material>
            <technique_common>
              <instance_material symbol="material0" target="#70f87445b7b648faba54fc3becb95909"/>
            </technique_common>
          </bind_material>
        </instance_geometry>
      </node>
    </visual_scene>
  </library_visual_scenes>
  <scene>
    <instance_visual_scene url="#scene"/>
  </scene>
</COLLADA>
