<COLLADA xmlns="http://www.collada.org/2005/11/COLLADASchema" version="1.4.1">
  <asset>
    <created>2026-09-27T19:05:54.462192</created>
    <modified>2026-09-27T19:05:54.462192</modified>
    <up_axis>Y_UP</up_axis>
  </asset>
  <library_effects>
    <effect id="4f88ea0ff5a544f69219ca1232b49a90" name="4f88ea0ff5a544f69219ca1232b49a90">
      <profile_COMMON>
        <technique sid="common">
          <phong>
            <emission>
              <color>0.0 0.0 0.0 1.0</color>
            </emission>
            <ambient>
              <color>0.0 0.0 0.0 1.0</color>
            </ambient>
            <diffuse>
              <color>0.8941176470588236 0.8941176470588236 0.8941176470588236 1.0</color>
            </diffuse>
            <specular>
              <color>0.0 0.0 0.0 1.0</color>
            </specular>
            <shininess>
              <float>0.0</float>
            </shininess>
            <reflective>
              <color>0.0 0.0 0.0 1.0</color>
            </reflective>
            <reflectivity>
              <float>0.0</float>
            </reflectivity>
            <transparent>
              <color>0.0 0.0 0.0 1.0</color>
            </transparent>
            <transparency>
              <float>1.0</float>
            </transparency>
          </phong>
        </technique>
        <extra>
          <technique profile="GOOGLEEARTH">
            <double_sided>0</double_sided>
          </technique>
        </extra>
      </profile_COMMON>
    </effect>
  </library_effects>
  <library_geometries>
    <geometry id="9bf8f80f31e943f887fa5ba65117e528" name="7ff8e1a61687499a84e94a31f78ddff8">
      <mesh>
        <source id="verts-array">
          <float_array count="720" id="verts-array-array">-0.02421262 0.02119137 0.005803259 -0.003854687 -0.003596085 0.007008734 -0.003625367 -0.00337806 0.007031441 -0.02417956 0.02122276 0.005802968 -0.02443099 0.02098383 0.005790045 -0.02470532 0.0207227 0.005729637 -0.00407308 -0.003804184 0.006937383 -0.02499872 0.02044289 0.00560742 -0.004261832 -0.003984423 0.006834262 -0.02530149 0.02015348 0.005410039 -0.004427555 -0.004143036 0.00670459 -0.02559592 0.01987122 0.005130618 -0.004574717 -0.004284234 0.006551704 -0.02585895 0.01961811 0.004778523 -0.004705049 -0.004409657 0.006376221 -0.02607134 0.01941267 0.004378253 -0.00481906 -0.004519793 0.006177505 -0.02622437 0.01926345 0.003962011 -0.004916539 -0.004614461 0.005953624 -0.02632184 0.0191671 0.003555438 -0.004995319 -0.004691654 0.00569878 -0.02637291 0.01911504 0.003173475 -0.005051969 -0.004748193 0.005404653 -0.02638785 0.01909759 0.002822571 -0.00507552 -0.004773908 0.005044316 -0.02638785 0.01905621 -0.001634696 -0.00507552 -0.004845552 -0.002671412 -0.02638785 0.01904532 -0.002807486 -0.00507552 -0.004862343 -0.004479684 -0.02638785 0.01904231 -0.003131582 -0.00507552 -0.004866236 -0.004898996 -0.00507552 -0.004866759 -0.004955253 -0.02638785 0.01904188 -0.00317717 -0.005057588 -0.004852665 -0.005271668 -0.02637687 0.01904951 -0.003478424 -0.02633131 0.01908927 -0.003857159 -0.005004455 -0.004804998 -0.005573323 -0.02624082 0.01917146 -0.00426258 -0.004928474 -0.004735253 -0.005834302 -0.02609576 0.01930535 -0.004681411 -0.004833388 -0.004647067 -0.006063691 -0.02589126 0.0194958 -0.005089267 -0.004721588 -0.00454277 -0.006267628 -0.02563427 0.0197365 -0.005454288 -0.004593511 -0.004422798 -0.0064485 -0.02534268 0.02001073 -0.005749757 -0.004448691 -0.004286716 -0.00660701 -0.02503988 0.02029635 -0.005963478 -0.00428573 -0.004133193 -0.006742881 -0.02474445 0.02057569 -0.006100497 -0.004100437 -0.00395822 -0.006853161 -0.02446716 0.02083839 -0.00617338 -0.003886801 -0.003756045 -0.006933171 -0.02421262 0.02107995 -0.006196224 -0.003625367 -0.003508051 -0.006967956 -0.02098062 0.02414953 -0.006224726 0.001969363 0.00180553 -0.007017295 -0.02013022 0.02495719 -0.006232226 0.003280554 0.003050831 -0.007028858 -0.01989522 0.02518039 -0.006234298 0.0035846 0.003339598 -0.007031539 0.003625393 0.003378341 -0.007031899 -0.01986216 0.02521178 -0.00623459 0.003854713 0.003596366 -0.007009192 -0.01964379 0.02541932 -0.006221376 -0.01936946 0.02568045 -0.006160968 0.004073105 0.003804465 -0.006937842 -0.01907606 0.02596026 -0.006038751 0.004261857 0.003984705 -0.006834721 -0.01877329 0.02624967 -0.00584137 0.004427581 0.004143318 -0.006705048 -0.01847886 0.02653193 -0.005561948 0.004574742 0.004284515 -0.006552162 -0.01821583 0.02678503 -0.005209853 0.004705074 0.004409938 -0.006376679 -0.01800344 0.02699048 -0.004809584 0.004819085 0.004520075 -0.006177963 -0.01785041 0.0271397 -0.004393341 0.004916565 0.004614742 -0.005954083 -0.01775294 0.02723605 -0.003986768 0.004995344 0.004691935 -0.005699238 -0.01770187 0.02728811 -0.003604805 0.005051994 0.004748475 -0.005405111 -0.01768693 0.02730555 -0.003253902 0.005075545 0.004774189 -0.005044774 -0.01768693 0.02734694 0.001203366 0.005075545 0.004845834 0.002670953 -0.01768693 0.02735783 0.002376155 0.005075545 0.004862624 0.004479226 -0.01768693 0.02736084 0.002700251 0.005075545 0.004866518 0.004898537 0.005075545 0.00486704 0.004954795 -0.01768693 0.02736126 0.002745839 0.005057614 0.004852947 0.00527121 -0.01769791 0.02735363 0.003047093 -0.01774347 0.02731388 0.003425829 0.00500448 0.00480528 0.005572865 -0.01783396 0.02723169 0.003831249 0.004928499 0.004735534 0.005833844 -0.01797902 0.0270978 0.00425008 0.004833413 0.004647349 0.006063233 -0.01818352 0.02690735 0.004657936 0.004721613 0.004543052 0.00626717 -0.01844051 0.02666664 0.005022957 0.004593536 0.00442308 0.006448042 -0.0187321 0.02639242 0.005318426 0.004448717 0.004286998 0.006606552 -0.0190349 0.0261068 0.005532147 0.004285756 0.004133474 0.006742423 -0.01933033 0.02582746 0.005669167 0.004100463 0.003958501 0.006852703 -0.01960762 0.02556476 0.005742049 0.003886826 0.003756326 0.006932713 -0.01986216 0.0253232 0.005764893 0.003625393 0.003508332 0.006967497 -0.02309416 0.02225362 0.005793396 -0.001969337 -0.001805249 0.007016837 -0.02394456 0.02144596 0.005800895 -0.003280529 -0.00305055 0.0070284 -0.003584575 -0.003339317 0.007031081 -0.01768693 0.02736126 0.002745839 -0.01768693 0.02736084 0.002700251 -0.02638785 0.01909759 0.002822571 -0.01768693 0.02735783 0.002376155 -0.02638785 0.01905621 -0.001634696 -0.02638785 0.01904532 -0.002807486 -0.02013022 0.02495719 -0.006232226 -0.02098062 0.02414953 -0.006224726 -0.02585895 0.01961811 0.004778523 -0.02559592 0.01987122 0.005130618 -0.02607134 0.01941267 0.004378253 -0.02530149 0.02015348 0.005410039 -0.02622437 0.01926345 0.003962011 -0.02499872 0.02044289 0.00560742 -0.02632184 0.0191671 0.003555438 -0.02470532 0.0207227 0.005729637 -0.02637291 0.01911504 0.003173475 -0.02443099 0.02098383 0.005790045 -0.02421262 0.02119137 0.005803259 -0.02417956 0.02122276 0.005802968 -0.02394456 0.02144596 0.005800895 -0.02309416 0.02225362 0.005793396 -0.01986216 0.0253232 0.005764893 -0.01769791 0.02735363 0.003047093 -0.01960762 0.02556476 0.005742049 -0.01774347 0.02731388 0.003425829 -0.01933033 0.02582746 0.005669167 -0.01783396 0.02723169 0.003831249 -0.0190349 0.0261068 0.005532147 -0.01797902 0.0270978 0.00425008 -0.0187321 0.02639242 0.005318426 -0.01818352 0.02690735 0.004657936 -0.01844051 0.02666664 0.005022957 -0.01989522 0.02518039 -0.006234298 -0.01768693 0.02734694 0.001203366 -0.01986216 0.02521178 -0.00623459 -0.01768693 0.02730555 -0.003253902 -0.01964379 0.02541932 -0.006221376 -0.01770187 0.02728811 -0.003604805 -0.01936946 0.02568045 -0.006160968 -0.01775294 0.02723605 -0.003986768 -0.01907606 0.02596026 -0.006038751 -0.01785041 0.0271397 -0.004393341 -0.01877329 0.02624967 -0.00584137 -0.01800344 0.02699048 -0.004809584 -0.01847886 0.02653193 -0.005561948 -0.01821583 0.02678503 -0.005209853 -0.02563427 0.0197365 -0.005454288 -0.02589126 0.0194958 -0.005089267 -0.02534268 0.02001073 -0.005749757 -0.02609576 0.01930535 -0.004681411 -0.02503988 0.02029635 -0.005963478 -0.02624082 0.01917146 -0.00426258 -0.02474445 0.02057569 -0.006100497 -0.02633131 0.01908927 -0.003857159 -0.02446716 0.02083839 -0.00617338 -0.02637687 0.01904951 -0.003478424 -0.02421262 0.02107995 -0.006196224 -0.02638785 0.01904188 -0.00317717 -0.02638785 0.01904231 -0.003131582 0.003625393 0.003508332 0.006967497 -0.001969337 -0.001805249 0.007016837 -0.00507552 -0.004773908 0.005044316 -0.003280529 -0.00305055 0.0070284 -0.003584575 -0.003339317 0.007031081 -0.003625367 -0.00337806 0.007031441 0.005075545 0.004845834 0.002670953 0.005075545 0.004862624 0.004479226 0.003280554 0.003050831 -0.007028858 -0.00507552 -0.004845552 -0.002671412 -0.004261832 -0.003984423 0.006834262 -0.004427555 -0.004143036 0.00670459 -0.004574717 -0.004284234 0.006551704 -0.004705049 -0.004409657 0.006376221 -0.00481906 -0.004519793 0.006177505 -0.004928474 -0.004735253 -0.005834302 -0.004833388 -0.004647067 -0.006063691 -0.003625367 -0.003508051 -0.006967956 0.004261857 0.003984705 -0.006834721 0.004427581 0.004143318 -0.006705048 0.005075545 0.004774189 -0.005044774 0.004928499 0.004735534 0.005833844 0.004833413 0.004647349 0.006063233 -0.003854687 -0.003596085 0.007008734 -0.00407308 -0.003804184 0.006937383 -0.004916539 -0.004614461 0.005953624 -0.004995319 -0.004691654 0.00569878 -0.005051969 -0.004748193 0.005404653 -0.005004455 -0.004804998 -0.005573323 -0.004721588 -0.00454277 -0.006267628 -0.004593511 -0.004422798 -0.0064485 -0.004448691 -0.004286716 -0.00660701 0.004073105 0.003804465 -0.006937842 0.004574742 0.004284515 -0.006552162 0.004705074 0.004409938 -0.006376679 0.004819085 0.004520075 -0.006177963 0.00500448 0.00480528 0.005572865 0.004721613 0.004543052 0.00626717 0.004593536 0.00442308 0.006448042 0.004448717 0.004286998 0.006606552 -0.00507552 -0.004862343 -0.004479684 -0.00507552 -0.004866236 -0.004898996 0.001969363 0.00180553 -0.007017295 -0.00507552 -0.004866759 -0.004955253 -0.005057588 -0.004852665 -0.005271668 -0.00428573 -0.004133193 -0.006742881 -0.004100437 -0.00395822 -0.006853161 -0.003886801 -0.003756045 -0.006933171 0.0035846 0.003339598 -0.007031539 0.003625393 0.003378341 -0.007031899 0.003854713 0.003596366 -0.007009192 0.004916565 0.004614742 -0.005954083 0.004995344 0.004691935 -0.005699238 0.005051994 0.004748475 -0.005405111 0.005075545 0.004866518 0.004898537 0.005075545 0.00486704 0.004954795 0.005057614 0.004852947 0.00527121 0.004285756 0.004133474 0.006742423 0.004100463 0.003958501 0.006852703 0.003886826 0.003756326 0.006932713</float_array>
          <technique_common>
            <accessor count="240" source="#verts-array-array" stride="3">
              <param type="float" name="X"/>
              <param type="float" name="Y"/>
              <param type="float" name="Z"/>
            </accessor>
          </technique_common>
        </source>
        <source id="normals-array">
          <float_array count="720" id="normals-array-array">-0.04000181 0.01625194 0.9990674 -0.1437992 -0.07187295 0.9869934 -0.05259881 0.005844495 0.9985986 -0.0215104 0.03192713 0.9992587 -0.1018456 -0.0359662 0.9941498 -0.1953185 -0.1158677 0.9738713 -0.2551541 -0.1684917 0.9521066 -0.297029 -0.2048237 0.932642 -0.3527793 -0.2549778 0.9002961 -0.4007431 -0.297718 0.8664693 -0.4383817 -0.3325745 0.8349944 -0.4999032 -0.3892986 0.7736558 -0.5129241 -0.4017711 0.7586098 -0.5867632 -0.4728577 0.6573542 -0.5785338 -0.4643669 0.6705685 -0.6555605 -0.542877 0.5249048 -0.6347703 -0.5200369 0.571514 -0.7036598 -0.59604 0.3867806 -0.6818814 -0.5694724 0.4590632 -0.7324836 -0.6326122 0.2515347 -0.7182699 -0.6116392 0.3316411 -0.7454563 -0.6549122 0.1240359 -0.7417269 -0.6454353 0.1823581 -0.7469966 -0.6639363 0.03441879 -0.7473567 -0.6623244 0.05276687 -0.7462326 -0.6656566 0.006180935 -0.7462326 -0.6656566 0.006180935 -0.7462326 -0.6656566 0.006180935 -0.7462326 -0.6656566 0.006180935 -0.7462326 -0.6656566 0.006180935 -0.7462326 -0.6656566 0.006180935 -0.7473022 -0.6635965 -0.0343387 -0.7469323 -0.6646556 -0.01803041 -0.7428661 -0.6514792 -0.1540287 -0.746295 -0.6582324 -0.09886298 -0.7355831 -0.6401284 -0.221705 -0.7216512 -0.6232233 -0.3013506 -0.7091028 -0.6081962 -0.35675 -0.6868606 -0.5846666 -0.4317262 -0.6636104 -0.5600478 -0.4959513 -0.6411473 -0.538002 -0.5472513 -0.5974308 -0.4949755 -0.6309324 -0.5864552 -0.484683 -0.6489628 -0.5125558 -0.4154548 -0.7514545 -0.5224693 -0.4242097 -0.7396431 -0.4143332 -0.3265145 -0.8495389 -0.449609 -0.3570745 -0.8187488 -0.3107361 -0.2349728 -0.9209945 -0.3659249 -0.2818658 -0.8869333 -0.2084666 -0.1462005 -0.9670404 -0.2700483 -0.1977345 -0.9423242 -0.1114831 -0.06310649 -0.9917606 -0.1565259 -0.100411 -0.9825565 -0.04308607 -0.004937648 -0.9990592 -0.05729068 -0.0166382 -0.9982189 -0.0215104 0.01336605 -0.9996793 -0.0215104 0.01336605 -0.9996793 -0.0215104 0.01336605 -0.9996793 -0.0215104 0.01336605 -0.9996793 -0.0215104 0.01336605 -0.9996793 -0.0215104 0.01336605 -0.9996793 0.006130558 0.04307823 -0.9990529 -0.004906667 0.03102864 -0.9995065 0.08832816 0.130274 -0.9875357 0.05037754 0.09015282 -0.994653 0.1347927 0.1795905 -0.974463 0.1902227 0.2368529 -0.9527413 0.2284797 0.2769937 -0.9333121 0.2811348 0.3304066 -0.9009965 0.3259715 0.376439 -0.8672002 0.3624258 0.4125425 -0.835737 0.42167 0.4716641 -0.7744207 0.4346561 0.4841733 -0.7593749 0.508507 0.5552474 -0.6581192 0.4997268 0.5473365 -0.6713389 0.5807434 0.621646 -0.5256362 0.5572966 0.6016028 -0.5722714 0.6350285 0.6682965 -0.3874515 0.6080466 0.6472072 -0.459785 0.6717801 0.696522 -0.2521281 0.650847 0.6826234 -0.3323003 0.6935351 0.7095759 -0.1245435 0.68442 0.7057692 -0.1829183 0.7017951 0.7115254 -0.03486068 0.700374 0.7117887 -0.05322617 0.7032118 0.7109497 -0.006601504 0.7032118 0.7109497 -0.006601504 0.7032118 0.7109497 -0.006601504 0.7032118 0.7109497 -0.006601504 0.7032118 0.7109497 -0.006601504 0.7032118 0.7109497 -0.006601504 0.7008339 0.7125192 0.03388443 0.7020238 0.7119362 0.01759139 0.687395 0.7098803 0.1534864 0.694827 0.712419 0.09835983 0.6750573 0.7038512 0.2211133 0.6567198 0.6915845 0.3007158 0.6405536 0.6803662 0.3560799 0.6152162 0.6600953 0.4310258 0.5888389 0.6387688 0.4952203 0.5651914 0.6179699 0.5465088 0.5191976 0.577341 0.6301676 0.5081872 0.5670852 0.6481976 0.4342997 0.4978445 0.7506894 0.4436624 0.5071793 0.7388727 0.339516 0.4052835 0.8488075 0.3721353 0.4386404 0.8179914 0.2421048 0.3072293 0.9203235 0.2920901 0.3596006 0.8862115 0.1477632 0.2101104 0.9664469 0.2026254 0.2687187 0.9416651 0.05956185 0.1177702 0.991253 0.099219 0.1607449 0.9819963 -0.002115489 0.05252678 0.9986173 0.01030796 0.06610257 0.9977596 -0.0215104 0.03192713 0.9992587 -0.0215104 0.03192713 0.9992587 -0.0215104 0.03192713 0.9992587 -0.0215104 0.03192713 0.9992587 -0.0215104 0.03192713 0.9992587 -0.6886688 0.7250448 -0.006732383 -0.6886688 0.7250448 -0.006732383 -0.6886688 0.7250448 -0.006732383 -0.6886688 0.7250448 -0.006732383 -0.6886688 0.7250448 -0.006732383 -0.6886688 0.7250448 -0.006732383 -0.6886688 0.7250448 -0.006732383 -0.6886688 0.7250448 -0.006732383 -0.6886688 0.7250448 -0.006732383 -0.6886688 0.7250448 -0.006732383 -0.6886688 0.7250448 -0.006732383 -0.6886688 0.7250448 -0.006732383 -0.6886688 0.7250448 -0.006732383 -0.6886688 0.7250448 -0.006732383 -0.6886688 0.7250448 -0.006732383 -0.6886688 0.7250448 -0.006732383 -0.6886688 0.7250448 -0.006732383 -0.6886688 0.7250448 -0.006732383 -0.6886688 0.7250448 -0.006732383 -0.6886688 0.7250448 -0.006732383 -0.6886688 0.7250448 -0.006732383 -0.6886688 0.7250448 -0.006732383 -0.6886688 0.7250448 -0.006732383 -0.6886688 0.7250448 -0.006732383 -0.6886688 0.7250448 -0.006732383 -0.6886688 0.7250448 -0.006732383 -0.6886688 0.7250448 -0.006732383 -0.6886688 0.7250448 -0.006732383 -0.6886688 0.7250448 -0.006732383 -0.6886688 0.7250448 -0.006732383 -0.6886688 0.7250448 -0.006732383 -0.6886688 0.7250448 -0.006732383 -0.6886688 0.7250448 -0.006732383 -0.6886688 0.7250448 -0.006732383 -0.6886688 0.7250448 -0.006732383 -0.6886688 0.7250448 -0.006732383 -0.6886688 0.7250448 -0.006732383 -0.6886688 0.7250448 -0.006732383 -0.6886688 0.7250448 -0.006732383 -0.6886688 0.7250448 -0.006732383 -0.6886688 0.7250448 -0.006732383 -0.6886688 0.7250448 -0.006732383 -0.6886688 0.7250448 -0.006732383 -0.6886688 0.7250448 -0.006732383 -0.6886688 0.7250448 -0.006732383 -0.6886688 0.7250448 -0.006732383 -0.6886688 0.7250448 -0.006732383 -0.6886688 0.7250448 -0.006732383 -0.6886688 0.7250448 -0.006732383 -0.6886688 0.7250448 -0.006732383 -0.6886688 0.7250448 -0.006732383 -0.6886688 0.7250448 -0.006732383 -0.6886688 0.7250448 -0.006732383 -0.6886688 0.7250448 -0.006732383 -0.6886688 0.7250448 -0.006732383 -0.6886688 0.7250448 -0.006732383 -0.6886688 0.7250448 -0.006732383 -0.6886688 0.7250448 -0.006732383 -0.6886688 0.7250448 -0.006732383 -0.6886688 0.7250448 -0.006732383 0.6886688 -0.7250448 0.006732383 0.6886688 -0.7250448 0.006732383 0.6886688 -0.7250448 0.006732383 0.6886688 -0.7250448 0.006732383 0.6886688 -0.7250448 0.006732383 0.6886688 -0.7250448 0.006732383 0.6886688 -0.7250448 0.006732383 0.6886688 -0.7250448 0.006732383 0.6886688 -0.7250448 0.006732383 0.6886688 -0.7250448 0.006732383 0.6886688 -0.7250448 0.006732383 0.6886688 -0.7250448 0.006732383 0.6886688 -0.7250448 0.006732383 0.6886688 -0.7250448 0.006732383 0.6886688 -0.7250448 0.006732383 0.6886688 -0.7250448 0.006732383 0.6886688 -0.7250448 0.006732383 0.6886688 -0.7250448 0.006732383 0.6886688 -0.7250448 0.006732383 0.6886688 -0.7250448 0.006732383 0.6886688 -0.7250448 0.006732383 0.6886688 -0.7250448 0.006732383 0.6886688 -0.7250448 0.006732383 0.6886688 -0.7250448 0.006732383 0.6886688 -0.7250448 0.006732383 0.6886688 -0.7250448 0.006732383 0.6886688 -0.7250448 0.006732383 0.6886688 -0.7250448 0.006732383 0.6886688 -0.7250448 0.006732383 0.6886688 -0.7250448 0.006732383 0.6886688 -0.7250448 0.006732383 0.6886688 -0.7250448 0.006732383 0.6886688 -0.7250448 0.006732383 0.6886688 -0.7250448 0.006732383 0.6886688 -0.7250448 0.006732383 0.6886688 -0.7250448 0.006732383 0.6886688 -0.7250448 0.006732383 0.6886688 -0.7250448 0.006732383 0.6886688 -0.7250448 0.006732383 0.6886688 -0.7250448 0.006732383 0.6886688 -0.7250448 0.006732383 0.6886688 -0.7250448 0.006732383 0.6886688 -0.7250448 0.006732383 0.6886688 -0.7250448 0.006732383 0.6886688 -0.7250448 0.006732383 0.6886688 -0.7250448 0.006732383 0.6886688 -0.7250448 0.006732383 0.6886688 -0.7250448 0.006732383 0.6886688 -0.7250448 0.006732383 0.6886688 -0.7250448 0.006732383 0.6886688 -0.7250448 0.006732383 0.6886688 -0.7250448 0.006732383 0.6886688 -0.7250448 0.006732383 0.6886688 -0.7250448 0.006732383 0.6886688 -0.7250448 0.006732383 0.6886688 -0.7250448 0.006732383 0.6886688 -0.7250448 0.006732383 0.6886688 -0.7250448 0.006732383 0.6886688 -0.7250448 0.006732383 0.6886688 -0.7250448 0.006732383</float_array>
          <technique_common>
            <accessor count="240" source="#normals-array-array" stride="3">
              <param type="float" name="X"/>
              <param type="float" name="Y"/>
              <param type="float" name="Z"/>
            </accessor>
          </technique_common>
        </source>
        <vertices id="verts-array-vertices">
          <input semantic="POSITION" source="#verts-array"/>
        </vertices>
        <triangles count="236" material="material0">
          <input offset="0" semantic="VERTEX" source="#verts-array-vertices"/>
          <input offset="1" semantic="NORMAL" source="#normals-array"/>
          <p>0 0 1 1 2 2 0 0 2 2 3 3 0 0 4 4 1 1 5 5 1 1 4 4 1 1 5 5 6 6 7 7 6 6 5 5 6 6 7 7 8 8 9 9 8 8 7 7 8 8 9 9 10 10 11 11 10 10 9 9 10 10 11 11 12 12 13 13 12 12 11 11 12 12 13 13 14 14 15 15 14 14 13 13 14 14 15 15 16 16 17 17 16 16 15 15 16 16 17 17 18 18 19 19 18 18 17 17 18 18 19 19 20 20 21 21 20 20 19 19 20 20 21 21 22 22 23 23 22 22 21 21 22 22 23 23 24 24 25 25 24 24 23 23 24 24 25 25 26 26 27 27 26 26 25 25 26 26 27 27 28 28 29 29 28 28 27 27 28 28 29 29 30 30 30 30 29 29 31 31 32 32 31 31 29 29 31 31 32 32 33 33 32 32 34 34 33 33 35 35 33 33 34 34 33 33 35 35 36 36 37 37 36 36 35 35 36 36 37 37 38 38 39 39 38 38 37 37 38 38 39 39 40 40 41 41 40 40 39 39 40 40 41 41 42 42 43 43 42 42 41 41 42 42 43 43 44 44 45 45 44 44 43 43 44 44 45 45 46 46 47 47 46 46 45 45 46 46 47 47 48 48 49 49 48 48 47 47 48 48 49 49 50 50 51 51 50 50 49 49 50 50 51 51 52 52 53 53 52 52 51 51 52 52 53 53 54 54 55 55 54 54 53 53 54 54 55 55 56 56 57 57 56 56 55 55 56 56 57 57 58 58 59 59 58 58 57 57 58 58 59 59 60 60 60 60 59 59 61 61 62 62 61 61 59 59 61 61 62 62 63 63 62 62 64 64 63 63 65 65 63 63 64 64 63 63 65 65 66 66 67 67 66 66 65 65 66 66 67 67 68 68 69 69 68 68 67 67 68 68 69 69 70 70 71 71 70 70 69 69 70 70 71 71 72 72 73 73 72 72 71 71 72 72 73 73 74 74 75 75 74 74 73 73 74 74 75 75 76 76 77 77 76 76 75 75 76 76 77 77 78 78 79 79 78 78 77 77 78 78 79 79 80 80 81 81 80 80 79 79 80 80 81 81 82 82 83 83 82 82 81 81 82 82 83 83 84 84 85 85 84 84 83 83 84 84 85 85 86 86 87 87 86 86 85 85 86 86 87 87 88 88 89 89 88 88 87 87 88 88 89 89 90 90 90 90 89 89 91 91 92 92 91 91 89 89 91 91 92 92 93 93 92 92 94 94 93 93 95 95 93 93 94 94 93 93 95 95 96 96 97 97 96 96 95 95 96 96 97 97 98 98 99 99 98 98 97 97 98 98 99 99 100 100 101 101 100 100 99 99 100 100 101 101 102 102 103 103 102 102 101 101 102 102 103 103 104 104 105 105 104 104 103 103 104 104 105 105 106 106 107 107 106 106 105 105 106 106 107 107 108 108 109 109 108 108 107 107 108 108 109 109 110 110 111 111 110 110 109 109 110 110 111 111 112 112 113 113 112 112 111 111 112 112 113 113 114 114 115 115 114 114 113 113 114 114 115 115 116 116 117 117 116 116 115 115 116 116 117 117 118 118 3 3 118 118 117 117 118 118 3 3 119 119 2 2 119 119 3 3 120 120 121 121 122 122 123 123 122 122 121 121 122 122 123 123 124 124 125 125 126 126 127 127 128 128 129 129 130 130 131 131 130 130 129 129 130 130 131 131 132 132 133 133 132 132 131 131 132 132 133 133 134 134 135 135 134 134 133 133 134 134 135 135 136 136 137 137 136 136 135 135 136 136 137 137 122 122 138 138 122 122 137 137 122 122 138 138 139 139 139 139 140 140 122 122 141 141 122 122 140 140 122 122 141 141 120 120 142 142 120 120 141 141 120 120 142 142 143 143 144 144 143 143 142 142 143 143 144 144 145 145 146 146 145 145 144 144 145 145 146 146 147 147 148 148 147 147 146 146 147 147 148 148 149 149 150 150 149 149 148 148 149 149 150 150 151 151 152 152 151 151 150 150 125 125 124 124 126 126 123 123 126 126 124 124 126 126 123 123 153 153 154 154 153 153 123 123 153 153 154 154 155 155 156 156 155 155 154 154 155 155 156 156 157 157 158 158 157 157 156 156 157 157 158 158 159 159 160 160 159 159 158 158 159 159 160 160 161 161 162 162 161 161 160 160 161 161 162 162 163 163 164 164 163 163 162 162 163 163 164 164 165 165 166 166 165 165 164 164 167 167 168 168 169 169 170 170 169 169 168 168 169 169 170 170 171 171 172 172 171 171 170 170 171 171 172 172 173 173 174 174 173 173 172 172 173 173 174 174 175 175 176 176 175 175 174 174 175 175 176 176 177 177 178 178 177 177 176 176 177 177 178 178 127 127 179 179 127 127 178 178 127 127 179 179 125 125 180 180 181 181 182 182 181 181 183 183 182 182 184 184 182 182 183 183 182 182 184 184 185 185 186 186 187 187 188 188 182 182 188 188 187 187 188 188 182 182 189 189 190 190 191 191 182 182 191 191 192 192 182 182 193 193 182 182 192 192 182 182 193 193 194 194 195 195 196 196 197 197 198 198 199 199 200 200 201 201 202 202 180 180 185 185 203 203 182 182 204 204 182 182 203 203 182 182 204 204 190 190 194 194 205 205 182 182 206 206 182 182 205 205 182 182 206 206 207 207 195 195 197 197 208 208 196 196 209 209 197 197 210 210 197 197 209 209 197 197 210 210 211 211 198 198 200 200 212 212 199 199 213 213 200 200 214 214 200 200 213 213 200 200 214 214 215 215 201 201 180 180 216 216 202 202 217 217 180 180 218 218 180 180 217 217 180 180 218 218 219 219 189 189 220 220 188 188 221 221 188 188 220 220 188 188 221 221 222 222 223 223 222 222 221 221 222 222 223 223 197 197 224 224 197 197 223 223 197 197 224 224 208 208 211 211 225 225 197 197 226 226 197 197 225 225 197 197 226 226 227 227 188 188 228 228 186 186 229 229 186 186 228 228 186 186 229 229 200 200 230 230 200 200 229 229 200 200 230 230 212 212 215 215 231 231 200 200 232 232 200 200 231 231 200 200 232 232 233 233 187 187 234 234 182 182 235 235 182 182 234 234 182 182 235 235 180 180 236 236 180 180 235 235 180 180 236 236 216 216 219 219 237 237 180 180 238 238 180 180 237 237 180 180 238 238 239 239</p>
        </triangles>
      </mesh>
    </geometry>
  </library_geometries>
  <library_materials>
    <material id="5a78a3d925de4caa82ea6228284306a3" name="defaultmaterial">
      <instance_effect url="#4f88ea0ff5a544f69219ca1232b49a90"/>
    </material>
  </library_materials>
  <library_visual_scenes>
    <visual_scene id="scene">
      <node id="node0" name="node0">
        <instance_geometry url="#9bf8f80f31e943f887fa5ba65117e528">
          <bind_material>
            <technique_common>
              <instance_material symbol="material0" target="#5a78a3d925de4caa82ea6228284306a3"/>
            </technique_common>
          </bind_material>
        </instance_geometry>
      </node>
    </visual_scene>
  </library_visual_scenes>
  <scene>
    <instance_visual_scene url="#scene"/>
  </scene>
</COLLADA>
