<COLLADA xmlns="http://www.collada.org/2005/11/COLLADASchema" version="1.4.1">
  <asset>
    <created>2026-09-27T18:30:25.099330</created>
    <modified>2026-09-27T18:30:25.099330</modified>
    <up_axis>Y_UP</up_axis>
  </asset>
  <library_effects>
    <effect id="65d118c38dd844788a844b3cafb4c513" name="65d118c38dd844788a844b3cafb4c513">
      <profile_COMMON>
        <technique sid="common">
          <phong>
            <emission>
              <color>0.0 0.0 0.0 1.0</color>
            </emission>
            <ambient>
              <color>0.0 0.0 0.0 1.0</color>
            </ambient>
            <diffuse>
              <color>0.8941176470588236 0.8941176470588236 0.8941176470588236 1.0</color>
            </diffuse>
            <specular>
              <color>0.0 0.0 0.0 1.0</color>
            </specular>
            <shininess>
              <float>0.0</float>
            </shininess>
            <reflective>
              <color>0.0 0.0 0.0 1.0</color>
            </reflective>
            <reflectivity>
              <float>0.0</float>
            </reflectivity>
            <transparent>
              <color>0.0 0.0 0.0 1.0</color>
            </transparent>
            <transparency>
              <float>1.0</float>
            </transparency>
          </phong>
        </technique>
        <extra>
          <technique profile="GOOGLEEARTH">
            <double_sided>0</double_sided>
          </technique>
        </extra>
      </profile_COMMON>
    </effect>
  </library_effects>
  <library_geometries>
    <geometry id="7098dbb40a274f16a96844038472b754" name="c6b6e8eaf3f1471396a4f1d8233a721a">
      <mesh>
        <source id="verts-array">
          <float_array count="2073" id="verts-array-array">0.001046458 0.02680562 -0.01050239 0.01094267 0.02664269 -0.0006009586 0.0003534362 -0.0001043017 -0.01025252 0.01024965 -0.0002672235 -0.0003510873 3.4354e-06 -9.788175e-05 -0.01053186 0.0006964576 0.02681204 -0.01078173 -0.0003999979 -8.929661e-05 -0.01072621 0.0002930243 0.02682062 -0.01097608 -0.000836428 -7.898382e-05 -0.01082602 -0.0001434058 0.02683093 -0.01107589 -0.001284147 -6.74544e-05 -0.01082611 -0.0005911247 0.02684246 -0.01107598 -0.001720626 -5.528931e-05 -0.01072658 -0.001027604 0.02685463 -0.01097645 -0.002124053 -4.309587e-05 -0.01053231 -0.001431031 0.02686682 -0.01078218 -0.002474053 -3.149047e-05 -0.0102532 -0.001781031 0.02687843 -0.01050307 0.0006204894 0.0006290906 0.01120801 0.0005825457 0.0005745715 0.01117198 0.001060309 8.102715e-05 0.01166701 0.0002038076 0.0002693024 0.01080396 -2.956978e-05 0.0001519158 0.0105747 -6.33023e-05 0.0001469571 0.01054115 -0.0003534362 0.0001043017 0.01025252 0.0009719543 0.001279071 0.01153669 0.0009260524 0.001175571 0.01149441 0.0004262651 0.0004300321 0.01102077 0.0003105017 0.0003229686 0.01090877 0.0008571461 0.001020173 0.01143095 0.0007947569 0.0008794841 0.0113735 0.001111796 0.002080278 0.01164845 0.001095573 0.001915787 0.01163799 0.001081935 0.001777525 0.0116292 0.001071828 0.001675036 0.01162268 0.001039112 0.001545338 0.01159451 0.0009889345 0.001346385 0.01155131 -0.01097037 0.02720042 -0.001313275 -0.01022057 0.02695846 -0.0005550275 -0.01011387 0.02701211 -0.0004502187 -0.009880493 0.02712957 -0.0002209665 -0.009846761 0.02713452 -0.0001874093 -0.009556628 0.02717714 0.000101216 -0.01088202 0.0260024 -0.001182948 -0.01083612 0.02610585 -0.001140675 -0.01076721 0.02626123 -0.001077216 -0.01070482 0.02640201 -0.00101976 -0.01061486 0.02653123 -0.0009343288 -0.01053055 0.02665235 -0.0008542741 -0.01049261 0.02670683 -0.0008182422 -0.01043774 0.02675763 -0.0007651553 -0.01033633 0.02685136 -0.0006670335 -0.01102186 0.02520117 -0.001294711 -0.01100564 0.02536561 -0.001284252 -0.010992 0.02550389 -0.001275459 -0.01098189 0.02560643 -0.001268944 -0.01094918 0.02573609 -0.001240773 -0.010899 0.02593508 -0.001197569 0.001691813 0.02516927 0.01141945 0.001701843 0.02499169 0.01143571 0.001753331 0.02699095 0.01141714 0.001684079 0.0253061 0.01140693 0.000573935 0.02698316 0.01023808 0.0004576556 0.02699858 0.01012126 0.000339586 0.02701422 0.01000265 0.0007587027 0.02690481 0.01042558 0.0008673793 0.02685862 0.01053587 0.0009935507 0.02675364 0.01066571 0.001176837 0.02660102 0.01085434 0.001195582 0.02657431 0.01087402 0.001278099 0.02645694 0.01096064 0.001360759 0.02633938 0.01104742 0.001415922 0.02626096 0.01110533 0.001436767 0.02621282 0.01112786 0.00150019 0.02606607 0.01119642 0.001570917 0.02590249 0.01127287 0.001609991 0.02573454 0.01131783 0.001655736 0.02553788 0.01137046 0.001675873 0.02545124 0.01139363 -0.0116634 0.000290498 -0.001063403 -0.01024965 0.0002672235 0.0003510873 -0.01036772 0.0002828657 0.0002324754 -0.010484 0.0002982715 0.0001156618 -0.01066877 0.0003766704 -7.184238e-05 -0.01077744 0.0004227838 -0.0001821314 -0.01090361 0.000527841 -0.0003119756 -0.0110869 0.0006804578 -0.0005006002 -0.01110565 0.0007071228 -0.00052028 -0.01127082 0.0009420195 -0.0006936802 -0.01132599 0.00102047 -0.0007515878 -0.01134683 0.001068667 -0.0007741192 -0.01159414 0.001975381 -0.001053188 -0.01160188 0.002112195 -0.001065716 -0.01161101 0.002273853 -0.001080511 -0.01161191 0.002289749 -0.001081967 -0.01141026 0.001215347 -0.0008426805 -0.01148098 0.001378899 -0.0009191345 -0.01152005 0.0015469 -0.0009640915 -0.0115658 0.001743583 -0.001016726 -0.01158594 0.001830189 -0.001039897 0.01094267 0.02666896 0.002227347 0.001753331 0.02699095 0.01141714 0.001701843 0.02499169 0.01143571 0.001692709 0.02463703 0.011439 0.001673286 0.02388281 0.011446 0.001633195 0.02232609 0.01146046 0.001548367 0.01903223 0.01149104 0.001458603 0.01554673 0.01152341 0.01024965 -0.0002409613 0.002477218 0.001276764 0.008485938 0.01158897 0.001191171 0.005162393 0.01161983 0.00115066 0.003589343 0.01163444 0.001111796 0.002080278 0.01164845 0.001060309 8.102715e-05 0.01166701 -0.0116634 0.000290498 -0.001063403 -0.01161191 0.002289749 -0.001081967 -0.01160277 0.002644386 -0.00108526 -0.01158335 0.003398614 -0.001092264 -0.01154326 0.00495531 -0.001106718 -0.01145843 0.008249226 -0.001137304 -0.01136867 0.01173471 -0.001169668 -0.01118683 0.01879546 -0.001235231 -0.01110124 0.02211902 -0.001266091 -0.01102186 0.02520117 -0.001294711 -0.01097037 0.02720042 -0.001313275 0.001060309 8.102715e-05 0.01166701 -0.0003534362 0.0001043017 0.01025252 0.01024965 -0.0002409613 0.002477218 0.01024965 -0.0002672235 -0.0003510873 0.01052882 -0.0002711616 -9.188227e-07 -0.0004273115 0.0001055179 0.01017861 -0.004163627 0.000167029 0.006440321 0.0003534362 -0.0001043017 -0.01025252 0.01072302 -0.0002724153 0.0004026773 0.0108227 -0.0002709285 0.0008392571 0.01052877 -0.0002513997 0.002127183 0.01082268 -0.0002667696 0.001287105 0.01072307 -0.0002601504 0.001723687 -0.008140209 0.0002324956 0.002461642 -0.009952608 0.0002623333 0.000648286 -0.01024965 0.0002672235 0.0003510873 -0.001284147 -6.74544e-05 -0.01082611 -0.000836428 -7.898382e-05 -0.01082602 -0.001720626 -5.528931e-05 -0.01072658 -0.002124053 -4.309587e-05 -0.01053231 -0.0116634 0.000290498 -0.001063403 -0.002474053 -3.149047e-05 -0.0102532 3.4354e-06 -9.788175e-05 -0.01053186 -0.0003999979 -8.929661e-05 -0.01072621 0.01052877 -0.0002513997 0.002127183 0.01122179 0.02665852 0.001877312 0.01072307 -0.0002601504 0.001723687 0.01141609 0.02664977 0.001473815 0.01082268 -0.0002667696 0.001287105 0.01151571 0.02664315 0.001037234 0.0108227 -0.0002709285 0.0008392571 0.01151572 0.02663899 0.0005893858 0.01072302 -0.0002724153 0.0004026773 0.01141604 0.0266375 0.000152806 0.01052882 -0.0002711616 -9.188227e-07 0.01122184 0.02663876 -0.0002507901 -0.001431031 0.02686682 -0.01078218 -0.001781031 0.02687843 -0.01050307 0.0006964576 0.02681204 -0.01078173 -0.01097037 0.02720042 -0.001313275 -0.009556628 0.02717714 0.000101216 0.001046458 0.02680562 -0.01050239 -0.009482753 0.02717593 0.0001751303 -0.005746437 0.02711441 0.003913417 0.01094267 0.02664269 -0.0006009586 0.0002930243 0.02682062 -0.01097608 -0.0001434058 0.02683093 -0.01107589 -0.001027604 0.02685463 -0.01097645 -0.0005911247 0.02684246 -0.01107598 -0.001769856 0.02704895 0.007892096 4.254403e-05 0.02701911 0.009705452 0.000339586 0.02701422 0.01000265 0.001753331 0.02699095 0.01141714 0.01094267 0.02666896 0.002227347 0.01122184 0.02663876 -0.0002507901 0.01141609 0.02664977 0.001473815 0.01151571 0.02664315 0.001037234 0.01122179 0.02665852 0.001877312 0.01151572 0.02663899 0.0005893858 0.01141604 0.0266375 0.000152806 -0.01787225 0.038408 0.007360056 -0.02010072 0.04494551 0.01022515 -0.01918596 0.04491346 0.009310345 -0.02452864 0.04510066 0.01465328 -0.02439872 0.04509611 0.01452335 -0.02140477 0.03432291 0.01084023 -0.006705818 0.04465811 0.01642482 -0.006701344 0.04465899 0.0165316 -0.002748992 0.03561811 0.01370374 -0.008674483 0.0357653 0.02039316 -0.01199157 0.04485834 0.02332789 -0.01290631 0.04489039 0.02424267 -0.006686867 0.04466183 0.01687739 -0.006690345 0.04466222 0.01690977 -0.002701295 0.03556484 0.01393885 -0.00715855 0.04465803 0.01516011 -0.00713267 0.04465781 0.01520828 -0.003184473 0.03578625 0.01281715 -0.006944767 0.04465622 0.01555797 -0.006855969 0.04465623 0.01580558 -0.002924467 0.03571193 0.01323708 -0.01726652 0.04484882 0.007672225 -0.01688185 0.04483763 0.007534274 -0.01533715 0.04023058 0.005395008 -0.009556628 0.02717714 0.000101216 -0.009846761 0.02713452 -0.0001874093 -0.01204656 0.03595701 0.003913026 -0.01267942 0.03052116 0.001068516 -0.01440312 0.03530313 0.003384438 -0.0142796 0.03539897 0.003339847 -0.01317651 0.00683643 0.001124363 -0.01313885 0.00669902 0.001213946 -0.0148606 0.01218875 0.003277198 -0.01658235 0.01767848 0.005340448 -0.0147988 0.01198518 0.00354645 -0.00144148 0.006169552 0.01307713 0.0006204894 0.0006290906 0.01120801 0.0007947569 0.0008794841 0.0113735 -0.001704484 0.00599271 0.01290738 -0.003839916 0.01156576 0.01478892 -0.004176587 0.01144704 0.01456873 0.0009719543 0.001279071 0.01153669 0.0009889345 0.001346385 0.01155131 -0.0009356164 0.006794277 0.01332 -0.002864268 0.01224414 0.01508451 -0.002965696 0.01211512 0.01507587 -0.0008075728 0.00717095 0.01335534 0.001081935 0.001777525 0.0116292 0.001095573 0.001915787 0.01163799 -0.002702587 0.01256532 0.01507594 -0.002776208 0.01239093 0.01508505 -0.0008652821 0.006966575 0.0133431 -0.002672013 0.01266808 0.01506664 -0.002647533 0.01279176 0.01505182 0.001111796 0.002080278 0.01164845 0.00115066 0.003589343 0.01163444 0.001071828 0.001675036 0.01162268 0.001039112 0.001545338 0.01159451 -0.005572066 0.01725973 0.01680839 -0.003209529 0.01189561 0.01503241 -0.005209538 0.01740736 0.01686386 -0.003080694 0.01199968 0.01505889 -0.00491474 0.01758764 0.01686334 -0.004792926 0.01769391 0.01684903 -0.004687134 0.01781522 0.016827 -0.003671099 0.01163643 0.01487438 -0.003506773 0.01171466 0.01494276 0.0005825457 0.0005745715 0.01117198 0.0004262651 0.0004300321 0.01102077 -0.004508812 0.01136368 0.01429099 -6.33023e-05 0.0001469571 0.01054115 -2.956978e-05 0.0001519158 0.0105747 0.0002038076 0.0002693024 0.01080396 0.0003105017 0.0003229686 0.01090877 -0.001209516 0.00638378 0.01320095 -0.001108014 0.006506697 0.01324879 0.0008571461 0.001020173 0.01143095 -0.001016664 0.006642603 0.01328839 0.0009260524 0.001175571 0.01149441 -0.0003534362 0.0001043017 0.01025252 -0.004876867 0.01133824 0.01393448 -0.0004273115 0.0001055179 0.01017861 -0.01749979 0.02270869 0.009509978 -0.01036772 0.0002828657 0.0002324754 -0.01024965 0.0002672235 0.0003510873 -0.01449319 0.01167226 0.004199392 -0.01090361 0.000527841 -0.0003119756 -0.01077744 0.0004227838 -0.0001821314 -0.010484 0.0002982715 0.0001156618 -0.01781671 0.02275639 0.009136238 -0.01066877 0.0003766704 -7.184238e-05 -0.004163627 0.000167029 0.006440321 -0.01242634 0.02262199 0.01458881 -0.008140209 0.0002324956 0.002461642 -0.01558901 0.02267405 0.01142446 -0.009952608 0.0002623333 0.000648286 -0.01712425 0.02269933 0.009888419 -0.01468002 0.01181431 0.003863646 -0.0164661 0.01736942 0.006056648 -0.01656009 0.0175105 0.005669086 -0.01303751 0.0064598 0.001423818 -0.01289393 0.006259169 0.00167064 -0.01309273 0.006574184 0.001313878 -0.01320593 0.006989171 0.001045343 -0.01488281 0.01243593 0.003063603 -0.01488127 0.01258315 0.002977359 -0.0165597 0.01788258 0.00508187 -0.01819065 0.02342573 0.006977412 -0.014876 0.01230574 0.003163508 -0.01807348 0.02368726 0.006788773 -0.01161101 0.002273853 -0.001080511 -0.01485912 0.01285895 0.002876591 -0.01160188 0.002112195 -0.001065716 -0.01323599 0.007365644 0.0009223412 -0.01159414 0.001975381 -0.001053188 -0.01158594 0.001830189 -0.001039897 -0.01322658 0.007161866 0.0009773252 -0.0115658 0.001743583 -0.001016726 -0.01152005 0.0015469 -0.0009640915 -0.01708463 0.02664309 0.005849045 -0.01145843 0.008249226 -0.001137304 -0.01758902 0.0250124 0.006326333 -0.01154326 0.00495531 -0.001106718 -0.01785906 0.02424275 0.006583566 -0.01158335 0.003398614 -0.001092264 -0.01800073 0.02387031 0.006719032 -0.01160277 0.002644386 -0.00108526 -0.01161191 0.002289749 -0.001081967 -0.01132599 0.00102047 -0.0007515878 -0.01127082 0.0009420195 -0.0006936802 -0.01110565 0.0007071228 -0.00052028 -0.0110869 0.0006804578 -0.0005006002 -0.01450856 0.03518878 0.003436251 -0.01083612 0.02610585 -0.001140675 -0.01088202 0.0260024 -0.001182948 -0.01259135 0.03066796 0.001069048 -0.0116157 0.03134634 0.00136464 -0.01033633 0.02685136 -0.0006670335 -0.01178452 0.03127566 0.001279181 -0.01043774 0.02675763 -0.0007651553 -0.01194884 0.03119743 0.001210799 -0.009880493 0.02712957 -0.0002209665 -0.01244113 0.03590496 0.003623406 -0.01011387 0.02701211 -0.0004502187 -0.01022057 0.02695846 -0.0005550275 -0.01049261 0.02670683 -0.0008182422 -0.01053055 0.02665235 -0.0008542741 -0.01210359 0.0311113 0.00115891 -0.01061486 0.02653123 -0.0009343288 -0.0122461 0.03101648 0.001121159 -0.01070482 0.02640201 -0.00101976 -0.01237493 0.03091232 0.001094668 -0.01076721 0.02626123 -0.001077216 -0.01248992 0.03079697 0.001077693 -0.009482753 0.02717593 0.0001751303 -0.0009624337 0.03123984 0.01195417 -0.002823825 0.03566715 0.01346679 0.001176837 0.02660102 0.01085434 0.0009935507 0.02675364 0.01066571 0.0008673793 0.02685862 0.01053587 0.0007587027 0.02690481 0.01042558 0.000573935 0.02698316 0.01023808 -0.003501388 0.03583396 0.01244341 0.0004576556 0.02699858 0.01012126 0.000339586 0.02701422 0.01000265 -0.003876921 0.03584342 0.01206496 4.254403e-05 0.02701911 0.009705452 -0.005412156 0.03586869 0.01052892 -0.001769856 0.02704895 0.007892096 -0.00857483 0.03592076 0.007364574 -0.005746437 0.02711441 0.003913417 -0.01167475 0.03597179 0.004263021 -0.0006201622 0.03082954 0.01274863 0.001436767 0.02621282 0.01112786 0.001415922 0.02626096 0.01110533 -0.0005950229 0.03072334 0.01287637 -0.002680267 0.03544352 0.01436633 0.001360759 0.02633938 0.01104742 0.001278099 0.02645694 0.01096064 -0.0007078848 0.03101613 0.01245328 -0.002764599 0.03521333 0.01485326 -0.0005728061 0.03047616 0.01308996 -0.002726224 0.03529836 0.0147116 -0.0005796293 0.03060636 0.01299006 -0.002697069 0.03537453 0.01454968 0.001701843 0.02499169 0.01143571 0.001691813 0.02516927 0.01141945 -0.002893953 0.03493558 0.01512539 0.001684079 0.0253061 0.01140693 -0.00286392 0.03500271 0.01508032 0.001675873 0.02545124 0.01139363 -0.0005743542 0.03032895 0.01317621 0.001655736 0.02553788 0.01137046 0.001609991 0.02573454 0.01131783 -0.003916542 0.03189955 0.01610434 0.001548367 0.01903223 0.01149104 -0.003412157 0.03353035 0.01562706 0.001633195 0.02232609 0.01146046 -0.003142121 0.0342999 0.01536982 0.001673286 0.02388281 0.011446 -0.003000449 0.03467243 0.01523436 0.001692709 0.02463703 0.011439 0.001195582 0.02657431 0.01087402 -0.000775607 0.03109779 0.01228992 -0.01358683 0.03568368 0.003257912 -0.01379163 0.03562353 0.003258082 -0.01578488 0.04016821 0.005527464 -0.01742861 0.0448538 0.00775934 -0.01397515 0.03555698 0.003274285 -0.0141374 0.03548259 0.003302582 -0.01765601 0.04486079 0.007881561 -0.01766421 0.04486104 0.007885964 -0.01784572 0.04486699 0.008022683 -0.01312821 0.03578685 0.003326841 -0.01336382 0.03573796 0.003279365 -0.01594755 0.04481245 0.007414564 -0.01476802 0.04478479 0.007706804 -0.01464944 0.04478222 0.007758196 -0.01426863 0.04477462 0.007996488 -0.01581629 0.04480921 0.007428666 -0.01550053 0.04480139 0.00746259 -0.01289039 0.03583084 0.00340136 -0.01544074 0.0448 0.007478451 -0.01506491 0.04479124 0.00757814 -0.0168411 0.04483644 0.007519655 -0.01655189 0.04482847 0.007463115 -0.01639998 0.04482428 0.007433412 -0.01619342 0.04481888 0.007424807 -0.01424704 0.04477424 0.008015095 -0.006792144 0.04465624 0.01598356 -0.006758106 0.04465698 0.01615754 -0.007563677 0.04466379 0.01465732 -0.007461837 0.04466218 0.01476595 -0.007428596 0.04466165 0.01480141 -0.01392553 0.04476853 0.00829211 -0.01386675 0.04476756 0.008350925 -0.01140323 0.044727 0.01081574 -0.009054464 0.04468834 0.01316574 -0.007796401 0.04466763 0.01442447 -0.006728976 0.04466656 0.01727043 -0.002679807 0.03550673 0.01416167 -0.0006568148 0.03092691 0.01260711 -0.004799121 0.04002572 0.01622301 -0.006907857 0.04467695 0.01789344 -0.004956392 0.03995049 0.01661654 -0.007030089 0.04468272 0.01817579 -0.007283786 0.04469296 0.01857472 -0.002810521 0.03511691 0.01497597 -0.00726822 0.04469239 0.01855665 -0.007155008 0.0446878 0.01837556 -0.006734772 0.04466721 0.01732452 -0.006807693 0.04467165 0.01759981 -0.006850176 0.04467423 0.01776024 -0.007563679 0.04470319 0.01889978 -0.007693616 0.04470774 0.01902972 -0.002927703 0.03485538 0.01516462 -0.007426305 0.04469817 0.01874024 0.00150019 0.02606607 0.01119642 0.001570917 0.02590249 0.01127287 -0.007328662 0.03748487 0.01907634 -0.004399572 0.03017216 0.01655869 0.001458603 0.01554673 0.01152341 -0.00795752 0.04471699 0.01929364 -0.008457505 0.04473451 0.01979365 -0.009381458 0.04476688 0.02071765 -0.01025775 0.04479759 0.02159398 -0.01407278 0.04493117 0.02539947 -0.006492617 0.02335397 0.01851714 -0.01406956 0.04493107 0.02539704 -0.006406862 0.02350324 0.01845519 -0.01392555 0.0449261 0.02526196 -0.01442807 0.04494281 0.02566706 -0.01076186 0.03400509 0.02222575 -0.01057889 0.03404342 0.02214257 -0.01424656 0.04493686 0.02553034 -0.01041991 0.03408821 0.02205286 -0.01466372 0.04495005 0.02579374 -0.01482575 0.04495503 0.02588079 -0.01097138 0.03397175 0.02229931 -0.01491866 0.04495773 0.02591412 -0.01120958 0.03394272 0.0223582 -0.01521042 0.04496622 0.02601874 -0.01525119 0.04496741 0.02603338 -0.01147668 0.03391724 0.02239629 -0.0155404 0.04497538 0.02608992 -0.01569232 0.04497957 0.02611964 -0.007414352 0.02285907 0.01869548 -0.007209551 0.02291911 0.01869531 -0.00702603 0.02298576 0.0186791 -0.006863784 0.02306005 0.01865081 -0.00672158 0.02314378 0.01861354 -0.006598063 0.02323952 0.01856895 -0.007637361 0.02280479 0.01867402 -0.007872965 0.02275589 0.01862655 -0.01176794 0.03389491 0.02240529 -0.01589886 0.04498497 0.02612822 -0.01614474 0.04499139 0.02613846 -0.01627599 0.04499464 0.02612437 -0.01659175 0.04500246 0.02609043 -0.00811078 0.02271181 0.01855202 -0.01665155 0.04500385 0.02607458 -0.01702737 0.04501261 0.02597488 -0.008560048 0.02263778 0.01832998 -0.01732428 0.04501906 0.02584624 -0.008954615 0.02258573 0.01804036 -0.01744282 0.04502163 0.02579481 -0.01782368 0.04502923 0.02555658 -0.01822557 0.04503629 0.02520214 -0.009326422 0.02257095 0.01769036 -0.01816679 0.04503532 0.02526095 -0.01784527 0.04502961 0.02553795 -0.02452864 0.04514006 0.01889574 -0.02463046 0.04514167 0.01878708 -0.01807671 0.02283082 0.008716306 -0.02523632 0.04514762 0.01774746 -0.02530015 0.04514761 0.01756948 -0.01817736 0.02287549 0.008486602 -0.02533422 0.04514687 0.01739553 -0.02514755 0.04514763 0.01799509 -0.02466367 0.04514219 0.01875159 -0.02493378 0.04514582 0.01839296 -0.02495962 0.04514604 0.01834476 -0.02068909 0.04507684 0.02273732 -0.02303785 0.04511551 0.02038732 -0.02429591 0.04513622 0.01912859 -0.02535749 0.04513663 0.01622848 -0.02528461 0.0451322 0.01595323 -0.02180637 0.0341158 0.01176918 -0.02524213 0.04512962 0.01579281 -0.02184394 0.03408664 0.01203699 -0.01832137 0.02303591 0.007791722 -0.02185203 0.03405985 0.01232877 -0.01829988 0.0229779 0.008014535 -0.02182437 0.03403477 0.01263566 -0.01825219 0.02292454 0.008249652 -0.01657547 0.01777506 0.005202647 -0.0183041 0.02316821 0.007403696 -0.01827495 0.02324439 0.00724179 -0.02174761 0.03414768 0.0115302 -0.02167391 0.03418304 0.01132006 -0.02518445 0.0451269 0.01565961 -0.02507158 0.04512157 0.01539891 -0.02506217 0.04512112 0.01537722 -0.02159034 0.0342228 0.01113667 -0.02493729 0.04511605 0.01517748 -0.02482404 0.04511146 0.01499636 -0.01823658 0.02332932 0.007100133 -0.02150005 0.03426832 0.01097746 -0.024666 0.04510568 0.01481282 -0.01832091 0.02309912 0.007587055 -0.01486974 0.01275705 0.002905921 -0.01813726 0.02354003 0.006873073 -0.01810723 0.02360707 0.006828 -0.01134683 0.001068667 -0.0007741192 -0.01141026 0.001215347 -0.0008426805 -0.01148098 0.001378899 -0.0009191345 -0.01921808 0.03668842 0.008676879 -0.01660161 0.02837049 0.005394696 -0.01136867 0.01173471 -0.001169668 -0.02413477 0.04508686 0.0142594 -0.0236348 0.04506934 0.0137594 -0.02271084 0.04503697 0.01283539 -0.02183455 0.04500626 0.01195906 -0.02538644 0.04514573 0.01712819 -0.02539094 0.04514486 0.01702144 -0.02540541 0.04514202 0.01667563 -0.02540197 0.04514163 0.01664329 -0.02536332 0.04513729 0.01628261 0.001276764 0.008485938 0.01158897 -0.005357403 0.02667216 0.01745843 0.001191171 0.005162393 0.01161983 -0.005857579 0.02502641 0.01793126 -0.006123598 0.02424851 0.01818434 -0.010899 0.02593508 -0.001197569 -0.01094918 0.02573609 -0.001240773 -0.01098189 0.02560643 -0.001268944 -0.010992 0.02550389 -0.001275459 -0.01455431 0.0351211 0.003465391 -0.01100564 0.02536561 -0.001284252 -0.01459431 0.03503951 0.003498189 -0.01102186 0.02520117 -0.001294711 -0.0151436 0.03351624 0.004022123 -0.01110124 0.02211902 -0.001266091 -0.01564377 0.03187049 0.004494958 -0.01118683 0.01879546 -0.001235231 -0.01339787 0.04490761 0.02473426 -0.01801954 0.04487268 0.008153592 -0.01802275 0.04487278 0.00815601 -0.01816677 0.04487775 0.008291097 -0.006734772 0.04466721 0.01732452 -0.006728976 0.04466656 0.01727043 -0.01765601 0.04486079 0.007881561 -0.01766421 0.04486104 0.007885964 -0.008457505 0.04473451 0.01979365 -0.01784572 0.04486699 0.008022683 -0.01801954 0.04487268 0.008153592 -0.02506217 0.04512112 0.01537722 -0.02507158 0.04512157 0.01539891 -0.01407278 0.04493117 0.02539947 -0.01782368 0.04502923 0.02555658 -0.01744282 0.04502163 0.02579481 -0.02413477 0.04508686 0.0142594 -0.0236348 0.04506934 0.0137594 -0.01406956 0.04493107 0.02539704 -0.01392555 0.0449261 0.02526196 -0.0168411 0.04483644 0.007519655 -0.01688185 0.04483763 0.007534274 -0.00795752 0.04471699 0.01929364 -0.007693616 0.04470774 0.01902972 -0.007563679 0.04470319 0.01889978 -0.007426305 0.04469817 0.01874024 -0.007283786 0.04469296 0.01857472 -0.00726822 0.04469239 0.01855665 -0.007155008 0.0446878 0.01837556 -0.007030089 0.04468272 0.01817579 -0.006907857 0.04467695 0.01789344 -0.006850176 0.04467423 0.01776024 -0.006807693 0.04467165 0.01759981 -0.01726652 0.04484882 0.007672225 -0.01742861 0.0448538 0.00775934 -0.01732428 0.04501906 0.02584624 -0.01702737 0.04501261 0.02597488 -0.01665155 0.04500385 0.02607458 -0.006686867 0.04466183 0.01687739 -0.006701344 0.04465899 0.0165316 -0.01655189 0.04482847 0.007463115 -0.006705818 0.04465811 0.01642482 -0.006758106 0.04465698 0.01615754 -0.01619342 0.04481888 0.007424807 -0.006855969 0.04465623 0.01580558 -0.01594755 0.04481245 0.007414564 -0.01581629 0.04480921 0.007428666 -0.006792144 0.04465624 0.01598356 -0.01639998 0.04482428 0.007433412 -0.02518445 0.0451269 0.01565961 -0.02524213 0.04512962 0.01579281 -0.02528461 0.0451322 0.01595323 -0.02538644 0.04514573 0.01712819 -0.02533422 0.04514687 0.01739553 -0.02530015 0.04514761 0.01756948 -0.02429591 0.04513622 0.01912859 -0.02452864 0.04514006 0.01889574 -0.02463046 0.04514167 0.01878708 -0.02303785 0.04511551 0.02038732 -0.02068909 0.04507684 0.02273732 -0.01822557 0.04503629 0.02520214 -0.01659175 0.04500246 0.02609043 -0.01627599 0.04499464 0.02612437 -0.01614474 0.04499139 0.02613846 -0.01589886 0.04498497 0.02612822 -0.01569232 0.04497957 0.02611964 -0.0155404 0.04497538 0.02608992 -0.01491866 0.04495773 0.02591412 -0.01482575 0.04495503 0.02588079 -0.01466372 0.04495005 0.02579374 -0.01442807 0.04494281 0.02566706 -0.01424656 0.04493686 0.02553034 -0.01339787 0.04490761 0.02473426 -0.01290631 0.04489039 0.02424267 -0.02271084 0.04503697 0.01283539 -0.01199157 0.04485834 0.02332789 -0.02183455 0.04500626 0.01195906 -0.01025775 0.04479759 0.02159398 -0.02010072 0.04494551 0.01022515 -0.009381458 0.04476688 0.02071765 -0.01918596 0.04491346 0.009310345 -0.006690345 0.04466222 0.01690977 -0.006944767 0.04465622 0.01555797 -0.00713267 0.04465781 0.01520828 -0.00715855 0.04465803 0.01516011 -0.007428596 0.04466165 0.01480141 -0.007461837 0.04466218 0.01476595 -0.007563677 0.04466379 0.01465732 -0.02439872 0.04509611 0.01452335 -0.02452864 0.04510066 0.01465328 -0.024666 0.04510568 0.01481282 -0.02482404 0.04511146 0.01499636 -0.02493729 0.04511605 0.01517748 -0.02523632 0.04514762 0.01774746 -0.02514755 0.04514763 0.01799509 -0.02495962 0.04514604 0.01834476 -0.01816679 0.04503532 0.02526095 -0.01784527 0.04502961 0.02553795 -0.01525119 0.04496741 0.02603338 -0.01521042 0.04496622 0.02601874 -0.01802275 0.04487278 0.00815601 -0.01816677 0.04487775 0.008291097 -0.02535749 0.04513663 0.01622848 -0.02536332 0.04513729 0.01628261 -0.02540197 0.04514163 0.01664329 -0.02493378 0.04514582 0.01839296 -0.02466367 0.04514219 0.01875159 -0.007796401 0.04466763 0.01442447 -0.009054464 0.04468834 0.01316574 -0.02540541 0.04514202 0.01667563 -0.02539094 0.04514486 0.01702144 -0.01426863 0.04477462 0.007996488 -0.01464944 0.04478222 0.007758196 -0.01424704 0.04477424 0.008015095 -0.01476802 0.04478479 0.007706804 -0.01392553 0.04476853 0.00829211 -0.01386675 0.04476756 0.008350925 -0.01506491 0.04479124 0.00757814 -0.01544074 0.0448 0.007478451 -0.01140323 0.044727 0.01081574 -0.01550053 0.04480139 0.00746259</float_array>
          <technique_common>
            <accessor count="691" source="#verts-array-array" stride="3">
              <param type="float" name="X"/>
              <param type="float" name="Y"/>
              <param type="float" name="Z"/>
            </accessor>
          </technique_common>
        </source>
        <source id="normals-array">
          <float_array count="2073" id="normals-array-array">0.6661621 -0.02407751 -0.7454182 0.7453625 -0.02538139 -0.666176 0.6661621 -0.02407751 -0.7454182 0.7453625 -0.02538139 -0.666176 0.5318253 -0.02155721 -0.8465796 0.5318253 -0.02155721 -0.8465796 0.3301552 -0.01726596 -0.9437687 0.3301552 -0.01726596 -0.9437687 0.1119807 -0.01211027 -0.9936366 0.1119807 -0.01211027 -0.9936366 -0.111931 -0.006344329 -0.9936957 -0.111931 -0.006344329 -0.9936957 -0.3301821 -0.000261401 -0.9439172 -0.3301821 -0.000261401 -0.9439172 -0.5318767 0.005834687 -0.8468017 -0.5318767 0.005834687 -0.8468017 -0.6661253 0.01023017 -0.7457697 -0.6661253 0.01023017 -0.7457697 -0.7068724 0.02476834 0.7069073 -0.7068724 0.02476834 0.7069073 -0.7068724 0.02476834 0.7069073 -0.7068724 0.02476834 0.7069073 -0.7068724 0.02476834 0.7069073 -0.7068724 0.02476834 0.7069073 -0.7068724 0.02476834 0.7069073 -0.7068724 0.02476834 0.7069073 -0.7068724 0.02476834 0.7069073 -0.7068724 0.02476834 0.7069073 -0.7068724 0.02476834 0.7069073 -0.7068724 0.02476834 0.7069073 -0.7068724 0.02476834 0.7069073 -0.7068724 0.02476834 0.7069073 -0.7068724 0.02476834 0.7069073 -0.7068724 0.02476834 0.7069073 -0.7068724 0.02476834 0.7069073 -0.7068724 0.02476834 0.7069073 -0.7068724 0.02476834 0.7069073 -0.7068724 0.02476834 0.7069073 -0.7068724 0.02476834 0.7069073 -0.7068724 0.02476834 0.7069073 -0.7068724 0.02476834 0.7069073 -0.7068724 0.02476834 0.7069073 -0.7068724 0.02476834 0.7069073 -0.7068724 0.02476834 0.7069073 -0.7068724 0.02476834 0.7069073 -0.7068724 0.02476834 0.7069073 -0.7068724 0.02476834 0.7069073 -0.7068724 0.02476834 0.7069073 -0.7068724 0.02476834 0.7069073 -0.7068724 0.02476834 0.7069073 -0.7068724 0.02476834 0.7069073 -0.7068724 0.02476834 0.7069073 -0.7068724 0.02476834 0.7069073 -0.7068724 0.02476834 0.7069073 -0.7068724 0.02476834 0.7069073 -0.7068724 0.02476834 0.7069073 -0.7068724 0.02476834 0.7069073 -0.7068724 0.02476834 0.7069073 -0.7068724 0.02476834 0.7069073 -0.7068724 0.02476834 0.7069073 -0.7068724 0.02476834 0.7069073 -0.7068724 0.02476834 0.7069073 -0.7068724 0.02476834 0.7069073 -0.7068724 0.02476834 0.7069073 -0.7068724 0.02476834 0.7069073 -0.7068724 0.02476834 0.7069073 -0.7068724 0.02476834 0.7069073 -0.7068724 0.02476834 0.7069073 -0.7068724 0.02476834 0.7069073 -0.7068724 0.02476834 0.7069073 -0.7068724 0.02476834 0.7069073 -0.7068724 0.02476834 0.7069073 -0.7068724 0.02476834 0.7069073 -0.7068724 0.02476834 0.7069073 -0.7068724 0.02476834 0.7069073 -0.7068724 0.02476834 0.7069073 -0.7068724 0.02476834 0.7069073 -0.7068724 0.02476834 0.7069073 -0.7068724 0.02476834 0.7069073 -0.7068724 0.02476834 0.7069073 -0.7068724 0.02476834 0.7069073 -0.7068724 0.02476834 0.7069073 -0.7068724 0.02476834 0.7069073 -0.7068724 0.02476834 0.7069073 -0.7068724 0.02476834 0.7069073 -0.7068724 0.02476834 0.7069073 -0.7068724 0.02476834 0.7069073 -0.7068724 0.02476834 0.7069073 -0.7068724 0.02476834 0.7069073 -0.7068724 0.02476834 0.7069073 -0.7068724 0.02476834 0.7069073 -0.7068724 0.02476834 0.7069073 -0.7068724 0.02476834 0.7069073 -0.7068724 0.02476834 0.7069073 -0.7068724 0.02476834 0.7069073 -0.7068724 0.02476834 0.7069073 -0.7068724 0.02476834 0.7069073 -0.7068724 0.02476834 0.7069073 -0.7068724 0.02476834 0.7069073 -0.7068724 0.02476834 0.7069073 0.7453954 -0.01300775 0.6664956 0.7068724 -0.01163727 0.7072453 0.7068724 -0.01163727 0.7072453 0.7068724 -0.01163727 0.7072453 0.7068724 -0.01163727 0.7072453 0.7068724 -0.01163727 0.7072453 0.7068724 -0.01163727 0.7072453 0.7068724 -0.01163727 0.7072453 0.7453954 -0.01300775 0.6664956 0.7068724 -0.01163727 0.7072453 0.7068724 -0.01163727 0.7072453 0.7068724 -0.01163727 0.7072453 0.7068724 -0.01163727 0.7072453 0.7068724 -0.01163727 0.7072453 -0.7068724 0.01163727 -0.7072453 -0.7068724 0.01163727 -0.7072453 -0.7068724 0.01163727 -0.7072453 -0.7068724 0.01163727 -0.7072453 -0.7068724 0.01163727 -0.7072453 -0.7068724 0.01163727 -0.7072453 -0.7068724 0.01163727 -0.7072453 -0.7068724 0.01163727 -0.7072453 -0.7068724 0.01163727 -0.7072453 -0.7068724 0.01163727 -0.7072453 -0.7068724 0.01163727 -0.7072453 -0.02574377 -0.9996255 0.009281994 -0.02574377 -0.9996255 0.009281994 -0.02574377 -0.9996255 0.009281994 -0.02574377 -0.9996255 0.009281994 -0.02574377 -0.9996255 0.009281994 -0.02574377 -0.9996255 0.009281994 -0.02574377 -0.9996255 0.009281994 -0.02574377 -0.9996255 0.009281994 -0.02574377 -0.9996255 0.009281994 -0.02574377 -0.9996255 0.009281994 -0.02574377 -0.9996255 0.009281994 -0.02574377 -0.9996255 0.009281994 -0.02574377 -0.9996255 0.009281994 -0.02574377 -0.9996255 0.009281994 -0.02574377 -0.9996255 0.009281994 -0.02574377 -0.9996255 0.009281994 -0.02574377 -0.9996255 0.009281994 -0.02574377 -0.9996255 0.009281994 -0.02574377 -0.9996255 0.009281994 -0.02574377 -0.9996255 0.009281994 -0.02574377 -0.9996255 0.009281994 -0.02574377 -0.9996255 0.009281994 -0.02574377 -0.9996255 0.009281994 -0.02574377 -0.9996255 0.009281994 0.8464304 -0.01685644 0.5322325 0.8464304 -0.01685644 0.5322325 0.9435661 -0.02123117 0.330503 0.9435661 -0.02123117 0.330503 0.9933825 -0.02454115 0.1122008 0.9933825 -0.02454115 0.1122008 0.9933769 -0.02662073 -0.1117754 0.9933769 -0.02662073 -0.1117754 0.9435755 -0.02736472 -0.3300248 0.9435755 -0.02736472 -0.3300248 0.8464627 -0.0267371 -0.5317763 0.8464627 -0.0267371 -0.5317763 0.02574377 0.9996255 -0.009281994 0.02574377 0.9996255 -0.009281994 0.02574377 0.9996255 -0.009281994 0.02574377 0.9996255 -0.009281994 0.02574377 0.9996255 -0.009281994 0.02574377 0.9996255 -0.009281994 0.02574377 0.9996255 -0.009281994 0.02574377 0.9996255 -0.009281994 0.02574377 0.9996255 -0.009281994 0.02574377 0.9996255 -0.009281994 0.02574377 0.9996255 -0.009281994 0.02574377 0.9996255 -0.009281994 0.02574377 0.9996255 -0.009281994 0.02574377 0.9996255 -0.009281994 0.02574377 0.9996255 -0.009281994 0.02574377 0.9996255 -0.009281994 0.02574377 0.9996255 -0.009281994 0.02574377 0.9996255 -0.009281994 0.02574377 0.9996255 -0.009281994 0.02574377 0.9996255 -0.009281994 0.02574377 0.9996255 -0.009281994 0.02574377 0.9996255 -0.009281994 0.02574377 0.9996255 -0.009281994 0.02574377 0.9996255 -0.009281994 -0.7306487 0.05076618 -0.6808637 -0.7071559 0.06062139 -0.7044541 -0.7070797 0.07334568 -0.7033198 -0.7396336 0.02357865 -0.6725966 -0.7059798 0.04621631 -0.7067224 -0.7785775 -0.004366779 -0.6275333 0.9003331 0.4238287 -0.0988406 0.9103139 0.411797 -0.04185512 0.8912571 0.4323339 -0.1369243 0.687688 0.01721517 0.7258023 0.7057879 0.03175066 0.7077113 0.706479 0.02614445 0.7072509 0.9198834 0.3901692 0.03978105 0.9222594 0.375016 0.09381192 0.9108402 0.4111853 -0.03601128 0.7484083 0.4611374 -0.4766941 0.782781 0.4607513 -0.4182848 0.7493235 0.4616263 -0.4747793 0.8130876 0.4585339 -0.3586575 0.8384755 0.4545658 -0.3005474 0.8192616 0.4581037 -0.3448934 -0.4036209 0.2723478 -0.8734511 -0.3127349 0.3117633 -0.8972182 -0.2322137 0.3434211 -0.9100213 0.6122993 0.4545093 -0.6469241 0.5899582 0.4597295 -0.6637756 0.5432309 0.4615989 -0.7013035 -0.4926633 0.2286714 -0.8396382 -0.5343391 0.2044796 -0.8201645 -0.4398775 0.2560361 -0.8607864 -0.959803 -0.2684559 -0.08191308 -0.9536387 -0.3009263 0.004075769 -0.9591393 -0.2749169 -0.066877 -0.9582777 -0.2494753 -0.1395205 -0.9418423 -0.3275685 0.07504587 -0.2232859 -0.3840375 0.8959122 -0.2662447 -0.3956169 0.8789772 -0.2217877 -0.3832415 0.8966249 -0.3560642 -0.4187139 0.8354023 -0.3310492 -0.4129438 0.8484597 -0.4469187 -0.4366169 0.7807876 -0.04289813 -0.3246992 0.944844 0.169203 -0.2497574 0.9534105 0.1811233 -0.2450442 0.952443 0.2625252 -0.2109861 0.941576 0.1704745 -0.2499256 0.9531399 0.4694297 -0.1151861 0.8754244 0.4933567 -0.1035638 0.8636398 0.4932616 -0.1032682 0.8637295 0.4820116 -0.1085414 0.8694157 0.3705147 -0.1625874 0.9144858 0.3055189 -0.1922485 0.9325764 0.5792659 -0.05600518 0.8132124 0.6455192 -0.01557928 0.7635852 0.51592 -0.08961806 0.8519361 0.6554286 -0.009526678 0.7551971 0.2210576 -0.2279118 0.9482562 0.1692185 -0.249459 0.9534859 -0.0822705 -0.3442181 0.9352783 -0.01371359 -0.3209431 0.9469992 0.07203848 -0.2898829 0.9543471 0.08752663 -0.2839858 0.9548252 0.2240795 -0.230687 0.9468748 0.3321307 -0.1830471 0.9253016 0.4267667 -0.1369179 0.8939372 -0.2364017 -0.3891613 0.8903189 -0.1368882 -0.3601453 0.9227985 -0.3539137 -0.4178995 0.8367228 -0.3932074 -0.426816 0.8143808 -0.5548868 -0.4527132 0.6979623 -0.5927718 -0.4566995 0.6633605 -0.5534559 -0.4528604 0.6990022 -0.502567 -0.4440728 0.741772 -0.4662496 -0.4368686 0.7692575 -0.09898858 -0.3469821 0.9326332 -0.005307234 -0.315274 0.9489858 -0.08996657 -0.341483 0.9355722 0.07886381 -0.2839729 0.9555835 -0.09397052 -0.3403968 0.9355744 -0.6127155 -0.4580811 0.6440042 -0.6173643 -0.4582294 0.6394428 -0.632109 -0.4591144 0.6242213 -0.6734554 -0.4549488 0.5826487 -0.6598871 -0.4566925 0.5966414 -0.6462176 -0.4579826 0.6104545 -0.8242539 -0.418537 0.3813558 -0.7970864 -0.4275222 0.4264716 -0.7536366 -0.4393436 0.4888855 -0.6901831 -0.4528916 0.5643904 -0.7568269 -0.4400953 0.4832486 -0.7243061 -0.446077 0.5257338 -0.632109 -0.4591144 0.6242213 -0.6321085 -0.4591158 0.6242207 -0.632109 -0.4591144 0.6242213 -0.6321085 -0.4591158 0.6242207 -0.632109 -0.4591144 0.6242213 -0.6342149 -0.4589528 0.6222008 -0.8957213 -0.3789347 0.2325765 -0.9092317 -0.3694131 0.1919158 -0.950687 -0.3098746 0.01311177 -0.91839 -0.3578658 0.1687954 -0.8718363 -0.3955823 0.2888184 -0.9412701 -0.328334 0.07878732 -0.9563042 -0.2286121 -0.1822602 -0.9448845 -0.1938884 -0.263819 -0.9177156 -0.1445822 -0.3699919 -0.9294191 -0.1632077 -0.3309733 -0.8768069 -0.09407559 -0.4715501 -0.9570793 -0.2332866 -0.1719783 -0.7477828 0.01842926 -0.6636876 -0.8768969 -0.09251799 -0.4716909 -0.8166623 -0.03497085 -0.5760553 -0.875573 -0.09269956 -0.4741082 -0.8771108 -0.09296495 -0.471205 -0.8780163 -0.09300243 -0.4695082 -0.9578981 -0.229481 -0.1725388 -0.9368785 -0.1746557 -0.3029095 -0.9608851 -0.2533863 -0.1117821 -0.9601397 -0.2539907 -0.1167069 -0.7384994 0.03050263 -0.6735638 -0.7577199 0.01385026 -0.6524329 -0.7350598 0.03001706 -0.6773375 -0.7560167 0.01356859 -0.6544117 -0.7323555 0.03025202 -0.6802501 -0.7551674 0.01344709 -0.655394 -0.7312458 0.0305006 -0.6814318 -0.7547435 0.01338865 -0.6558834 -0.8631021 -0.07704476 -0.499118 -0.8891879 -0.3810698 0.2532404 -0.8703551 -0.3926902 0.2971136 -0.8709215 -0.3946665 0.2928039 -0.8224994 -0.4169709 0.3868205 -0.6198374 0.1500243 -0.770256 -0.08302294 0.4068824 -0.9096999 -0.3161015 0.31598 -0.8945594 -0.3754062 0.2869641 -0.8813182 0.3070455 0.4629357 -0.8315129 0.3488388 0.4693929 -0.8111608 0.1978816 0.4529058 -0.8693211 0.3420835 0.4746469 -0.8109804 0.1080489 0.4394554 -0.8917424 0.532439 0.4651751 -0.7071922 0.4083279 0.4668377 -0.7844303 0.4827975 0.4716776 -0.7378529 0.400553 0.4711618 -0.7858523 0.2290491 0.4615265 -0.8570471 0.1744342 0.4546343 -0.8734302 0.01538956 0.4207297 -0.9070555 0.1668807 0.4586256 -0.8728192 -0.07683885 0.3977626 -0.9142651 -0.009128367 0.4195298 -0.9076957 -0.1717198 0.3690576 -0.9134051 -0.07380617 0.4040171 -0.9117691 -0.2691635 0.3323587 -0.9039296 0.6343868 0.4511915 -0.6276779 0.8125748 0.4588596 -0.3594023 0.8630268 0.4472375 -0.2348688 0.8484822 0.4526325 -0.2742296 0.7932973 0.4603227 -0.398475 0.7672176 0.4638335 -0.4429849 0.7218003 0.4640446 -0.5134852 0.6970329 0.4576514 -0.5519967 0.6734153 0.4554316 -0.5823178 0.6609061 0.4533331 -0.5980737 0.649461 0.4519154 -0.6115332 0.6372679 0.4502865 -0.6254052 0.6353248 0.4499988 -0.6275854 0.635324 0.4500012 -0.6275845 0.6353248 0.4499988 -0.6275854 0.635324 0.4500012 -0.6275845 0.6353248 0.4499988 -0.6275854 0.6180511 0.4528217 -0.6426238 0.9205888 0.3822793 0.07986722 0.9152544 0.4026068 0.01473879 0.9074196 0.417898 -0.04416817 0.9196133 0.3525835 0.1731941 0.9206071 0.3542268 0.1643346 0.8667945 0.4514965 -0.2117029 0.8670752 0.4481452 -0.2175923 0.8981857 0.4269277 -0.1048581 0.8660351 0.2367845 0.4403593 0.8862832 0.2686437 0.3772699 0.8935228 0.280763 0.3504128 0.9089873 0.3153358 0.2725901 0.9116901 0.3199987 0.2577247 0.6419448 0.01132482 0.7666672 0.7478839 0.1022834 0.6559022 0.7238386 0.08063339 0.6852416 0.7479085 0.1023276 0.6558674 0.7752152 0.1301372 0.618147 0.7873334 0.141464 0.6000784 0.8450872 0.2085005 0.4922958 0.898349 0.2957242 0.3248328 0.8986353 0.2952482 0.3244735 0.6646 0.01281342 0.7470895 0.6322825 -0.008421176 0.7746922 0.6597564 0.01742668 0.7512775 0.6248587 -0.008359675 0.7806931 0.6590114 0.02118638 0.7518345 0.6202157 -0.00839167 0.7843865 0.6588965 0.02340338 0.7518694 0.6175551 -0.00843485 0.7864824 0.8670818 0.4468048 -0.2203058 0.8691261 0.445623 -0.2145691 -0.0635509 0.3988897 -0.9147941 -0.1629703 0.3710837 -0.9141869 -0.3777507 0.2845062 -0.8811133 -0.4525359 0.2491025 -0.8562472 -0.2556724 0.3387292 -0.9054801 -0.3479308 0.299382 -0.8884338 -0.4524 0.2494199 -0.8562266 -0.5448201 0.1980878 -0.8148204 -0.5891866 0.1709095 -0.7897145 0.1404481 0.4427583 -0.8855729 0.0389357 0.4235032 -0.9050575 0.0286775 0.4214046 -0.9064192 0.3603354 0.4660174 -0.8080756 0.4185515 0.4667712 -0.7790631 0.5334722 0.4624171 -0.7082216 0.1067538 0.4376845 -0.8927687 0.1651716 0.4473533 -0.8789729 0.2599632 0.458875 -0.8496192 0.2379606 0.4571997 -0.8569383 0.296018 0.4623241 -0.8358407 -0.2602307 0.3330845 -0.9062752 -0.168527 0.3666672 -0.9149611 -0.1134883 0.3835894 -0.916504 -0.02735007 0.4080556 -0.9125473 0.5854566 0.4570407 -0.6695927 0.8639735 0.4465546 -0.2326775 0.8817383 0.4382937 -0.1744597 0.6439227 0.4513331 -0.6177879 0.6552599 0.4512563 -0.6058071 0.6820032 0.4542674 -0.5731604 0.6122256 0.4533549 -0.6478033 0.6353231 0.4500037 -0.6275836 0.6353231 0.4500037 -0.6275836 0.6353231 0.4500037 -0.6275836 0.6353231 0.4500037 -0.6275836 0.9220996 0.3752574 0.0944147 0.9207669 0.3845034 0.06592051 0.913367 0.406948 -0.01241417 0.8995309 0.2894023 0.3272469 0.8867433 0.2644669 0.3791354 0.8580007 0.2249082 0.4617912 0.8551991 0.220148 0.4692221 0.7550308 0.1108455 0.6462521 0.8257417 0.1843676 0.5330659 0.7834842 0.1382427 0.6058395 0.8338132 0.1952448 0.5163672 0.9203029 0.3459839 0.1825861 0.9152122 0.3256415 0.2373693 0.8996393 0.2885891 0.3276666 0.7227107 0.08024824 0.6864761 0.7061365 0.06213303 0.7053444 0.6783683 0.04041607 0.7336096 0.7548104 0.1110878 0.6464679 0.9146935 0.4036862 0.01932032 0.9114572 0.3216379 0.2565052 0.6848353 0.02398003 0.7283032 0.6689341 0.008595124 0.743272 0.6382499 -0.008786395 0.7697791 0.7061089 0.05720908 0.7057885 0.7056054 0.04927836 0.7068894 0.7059388 0.04198717 0.7070272 0.7072555 0.04029125 0.7058089 0.6002099 -0.04413785 0.7986237 0.5701044 -0.06144344 0.8192714 0.6309725 -0.02542469 0.7753885 0.6519264 -0.01215999 0.7581848 0.6924734 0.01384951 0.7213105 0.5154719 -0.0938626 0.8517503 0.3928288 -0.1563728 0.9062191 0.4720398 -0.1157426 0.8739463 0.5996172 -0.04588995 0.7989702 0.545701 -0.07541717 0.8345793 0.4671572 -0.1190686 0.8761203 0.3773998 -0.163823 0.9114447 0.3052441 -0.1976318 0.9315405 0.3262586 -0.1885826 0.9262786 0.2102882 -0.2386373 0.948067 0.3268496 -0.1888716 0.9260113 0.2329844 -0.229883 0.9449191 0.1067956 -0.2803311 0.953944 0.1790524 -0.2518702 0.9510529 0.08634317 -0.287771 0.9537991 0.03732784 -0.305984 0.9513046 0.1299534 -0.271117 0.9537336 0.2187621 -0.2332054 0.9475011 0.3040508 -0.1953498 0.9324117 0.3871398 -0.1563709 0.9086644 0.4732738 -0.1137957 0.8735344 -0.06289274 -0.338811 0.93875 -0.1622092 -0.3698555 0.9148197 -0.008375862 -0.3220448 0.9466874 0.0315463 -0.3075072 0.9510227 -0.05538182 -0.3379319 0.9395397 -0.1082634 -0.3544816 0.9287744 -0.190564 -0.3783483 0.9058355 -0.2791621 -0.4021912 0.871958 -0.2442725 -0.3927754 0.8865993 -0.3172398 -0.4109889 0.8546619 -0.4204444 -0.4328331 0.7974221 -0.3688436 -0.4240285 0.8271362 -0.5468428 -0.4519813 0.7047523 -0.4321675 -0.4362829 0.7892328 -0.5391669 -0.4512175 0.7111271 -0.632108 -0.4591173 0.6242202 -0.6161672 -0.4583021 0.6405445 -0.6102104 -0.4578169 0.6465655 -0.5858123 -0.4558972 0.670061 -0.6418911 -0.4582962 0.6147686 -0.6525121 -0.4572942 0.6042433 -0.8351365 -0.4150141 0.3609852 -0.862052 -0.4016487 0.309103 -0.8851641 -0.3878429 0.257026 -0.8857992 -0.3874699 0.2553956 -0.9131767 -0.3655637 0.1801983 -0.8263946 -0.4184143 0.3768307 -0.6832781 -0.4538302 0.5719871 -0.7541239 -0.4410375 0.4866035 -0.7966327 -0.4292029 0.4256303 -0.632108 -0.4591173 0.6242202 -0.632108 -0.4591173 0.6242202 -0.632108 -0.4591173 0.6242202 -0.95717 -0.2450485 -0.1541976 -0.9469651 -0.205008 -0.2474446 -0.9522789 -0.2213382 -0.2101767 -0.9366406 -0.1816008 -0.2995423 -0.9584708 -0.264434 -0.1068104 -0.956075 -0.2906888 -0.03769052 -0.9520147 -0.3060376 0.003011037 -0.9431335 -0.3266559 0.06160416 -0.9308699 -0.3457461 0.1180715 -0.9195956 -0.3588217 0.1599715 -0.9479598 -0.203163 -0.2451469 -0.9514174 -0.2158602 -0.2195662 -0.9359322 -0.1773951 -0.3042398 -0.9354695 -0.1784515 -0.305044 -0.9098694 -0.1365107 -0.3917939 -0.9100653 -0.137493 -0.3909946 -0.9100065 -0.1367106 -0.3914055 -0.8906671 -0.1116753 -0.4407276 -0.8770147 -0.09517541 -0.4709426 -0.8468804 -0.06439227 -0.5278705 -0.8183576 -0.03861831 -0.5734104 -0.9116726 -0.1377089 -0.3871555 -0.8372246 -0.05403508 -0.544183 -0.7578794 0.01003657 -0.6523174 -0.9583077 -0.253905 -0.1310673 -0.8738849 -0.08972678 -0.4777806 -0.8332934 -0.05037223 -0.5505313 -0.7880172 -0.01207518 -0.6155348 -0.930677 -0.3433139 0.126396 -0.9308494 -0.3427031 0.1267836 -0.9421479 -0.3257389 0.07906602 -0.7249068 0.04319628 -0.6874912 -0.745059 0.0323781 -0.6662122 -0.761108 0.0140357 -0.6484733 -0.7057045 0.0483106 -0.7068573 -0.7059496 0.05014804 -0.7064845 -0.705888 0.0536852 -0.7062861 -0.7049638 0.05719829 -0.7069331 -0.9286112 -0.3488381 0.126464 -0.9462907 -0.3205229 0.04241354 -0.9533517 -0.301662 -0.01098338 -0.9583224 -0.2681439 -0.09857456 -0.9585347 -0.2669626 -0.09971083 0.6475703 -0.008969984 0.7619529 0.6731474 0.006518516 0.7394796 0.6516011 -0.00943539 0.7585031 0.677285 0.006746584 0.7356898 0.6799856 0.006979566 0.7331922 -0.3779608 0.2864753 -0.8803849 -0.3800945 0.2866476 -0.8794097 -0.6229711 0.1470506 -0.7682988 -0.67094 0.1127882 -0.7328836 -0.6888334 0.09948172 -0.7180612 -0.6716391 0.1127272 -0.7322524 -0.7339947 0.05989758 -0.6765087 -0.7606467 0.03344221 -0.6483042 -0.7501727 0.04079176 -0.6599825 -0.7737276 0.01500687 -0.6333406 -0.7499911 0.03600248 -0.6604674 -0.7650568 0.0152626 -0.6437819 0.7071025 0.02409255 0.7067005 -0.5891762 0.1710217 -0.7896981 -0.6503578 0.1290147 -0.7485919 -0.6950707 0.09496515 -0.7126418 0.02574377 0.9996255 -0.009281994 0.02574377 0.9996255 -0.009281994 0.02574377 0.9996255 -0.009281994 0.02574377 0.9996255 -0.009281994 0.02574377 0.9996255 -0.009281994 0.02574377 0.9996255 -0.009281994 0.02574377 0.9996255 -0.009281994 0.02574377 0.9996255 -0.009281994 0.02574377 0.9996255 -0.009281994 0.02574377 0.9996255 -0.009281994 0.02574377 0.9996255 -0.009281994 0.02574377 0.9996255 -0.009281994 0.02574377 0.9996255 -0.009281994 0.02574377 0.9996255 -0.009281994 0.02574377 0.9996255 -0.009281994 0.02574377 0.9996255 -0.009281994 0.02574377 0.9996255 -0.009281994 0.02574377 0.9996255 -0.009281994 0.02574377 0.9996255 -0.009281994 0.02574377 0.9996255 -0.009281994 0.02574377 0.9996255 -0.009281994 0.02574377 0.9996255 -0.009281994 0.02574377 0.9996255 -0.009281994 0.02574377 0.9996255 -0.009281994 0.02574377 0.9996255 -0.009281994 0.02574377 0.9996255 -0.009281994 0.02574377 0.9996255 -0.009281994 0.02574377 0.9996255 -0.009281994 0.02574377 0.9996255 -0.009281994 0.02574377 0.9996255 -0.009281994 0.02574377 0.9996255 -0.009281994 0.02574377 0.9996255 -0.009281994 0.02574377 0.9996255 -0.009281994 0.02574377 0.9996255 -0.009281994 0.02574377 0.9996255 -0.009281994 0.02574377 0.9996255 -0.009281994 0.02574377 0.9996255 -0.009281994 0.02574377 0.9996255 -0.009281994 0.02574377 0.9996255 -0.009281994 0.02574377 0.9996255 -0.009281994 0.02574377 0.9996255 -0.009281994 0.02574377 0.9996255 -0.009281994 0.02574377 0.9996255 -0.009281994 0.02574377 0.9996255 -0.009281994 0.02574377 0.9996255 -0.009281994 0.02574377 0.9996255 -0.009281994 0.02574377 0.9996255 -0.009281994 0.02574377 0.9996255 -0.009281994 0.02574377 0.9996255 -0.009281994 0.02574377 0.9996255 -0.009281994 0.02574377 0.9996255 -0.009281994 0.02574377 0.9996255 -0.009281994 0.02574377 0.9996255 -0.009281994 0.02574377 0.9996255 -0.009281994 0.02574377 0.9996255 -0.009281994 0.02574377 0.9996255 -0.009281994 0.02574377 0.9996255 -0.009281994 0.02574377 0.9996255 -0.009281994 0.02574377 0.9996255 -0.009281994 0.02574377 0.9996255 -0.009281994 0.02574377 0.9996255 -0.009281994 0.02574377 0.9996255 -0.009281994 0.02574377 0.9996255 -0.009281994 0.02574377 0.9996255 -0.009281994 0.02574377 0.9996255 -0.009281994 0.02574377 0.9996255 -0.009281994 0.02574377 0.9996255 -0.009281994 0.02574377 0.9996255 -0.009281994 0.02574377 0.9996255 -0.009281994 0.02574377 0.9996255 -0.009281994 0.02574377 0.9996255 -0.009281994 0.02574377 0.9996255 -0.009281994 0.02574377 0.9996255 -0.009281994 0.02574377 0.9996255 -0.009281994 0.02574377 0.9996255 -0.009281994 0.02574377 0.9996255 -0.009281994 0.02574377 0.9996255 -0.009281994 0.02574377 0.9996255 -0.009281994 0.02574377 0.9996255 -0.009281994 0.02574377 0.9996255 -0.009281994 0.02574377 0.9996255 -0.009281994 0.02574377 0.9996255 -0.009281994 0.02574377 0.9996255 -0.009281994 0.02574377 0.9996255 -0.009281994 0.02574377 0.9996255 -0.009281994 0.02574377 0.9996255 -0.009281994 0.02574377 0.9996255 -0.009281994 0.02574377 0.9996255 -0.009281994 0.02574377 0.9996255 -0.009281994 0.02574377 0.9996255 -0.009281994 0.02574377 0.9996255 -0.009281994 0.02574377 0.9996255 -0.009281994 0.02574377 0.9996255 -0.009281994 0.02574377 0.9996255 -0.009281994 0.02574377 0.9996255 -0.009281994 0.02574377 0.9996255 -0.009281994 0.02574377 0.9996255 -0.009281994 0.02574377 0.9996255 -0.009281994 0.02574377 0.9996255 -0.009281994 0.02574377 0.9996255 -0.009281994 0.02574377 0.9996255 -0.009281994 0.02574377 0.9996255 -0.009281994 0.02574377 0.9996255 -0.009281994 0.02574377 0.9996255 -0.009281994 0.02574377 0.9996255 -0.009281994 0.02574377 0.9996255 -0.009281994 0.02574377 0.9996255 -0.009281994 0.02574377 0.9996255 -0.009281994 0.02574377 0.9996255 -0.009281994 0.02574377 0.9996255 -0.009281994 0.02574377 0.9996255 -0.009281994 0.02574377 0.9996255 -0.009281994 0.02574377 0.9996255 -0.009281994 0.02574377 0.9996255 -0.009281994 0.02574377 0.9996255 -0.009281994 0.02574377 0.9996255 -0.009281994 0.02574377 0.9996255 -0.009281994</float_array>
          <technique_common>
            <accessor count="691" source="#normals-array-array" stride="3">
              <param type="float" name="X"/>
              <param type="float" name="Y"/>
              <param type="float" name="Z"/>
            </accessor>
          </technique_common>
        </source>
        <vertices id="verts-array-vertices">
          <input semantic="POSITION" source="#verts-array"/>
        </vertices>
        <triangles count="846" material="material0">
          <input offset="0" semantic="VERTEX" source="#verts-array-vertices"/>
          <input offset="1" semantic="NORMAL" source="#normals-array"/>
          <p>0 0 1 1 2 2 3 3 2 2 1 1 0 0 2 2 4 4 0 0 4 4 5 5 6 6 5 5 4 4 5 5 6 6 7 7 8 8 7 7 6 6 7 7 8 8 9 9 10 10 9 9 8 8 9 9 10 10 11 11 12 12 11 11 10 10 11 11 12 12 13 13 14 14 13 13 12 12 13 13 14 14 15 15 16 16 15 15 14 14 15 15 16 16 17 17 18 18 19 19 20 20 21 21 22 22 20 20 23 23 20 20 22 22 20 20 23 23 24 24 20 20 25 25 26 26 19 19 27 27 20 20 28 28 20 20 27 27 20 20 28 28 21 21 26 26 29 29 20 20 30 30 20 20 29 29 20 20 30 30 18 18 31 31 32 32 20 20 33 33 20 20 32 32 20 20 33 33 34 34 34 34 35 35 20 20 36 36 20 20 35 35 20 20 36 36 25 25 37 37 38 38 39 39 39 39 40 40 37 37 41 41 37 37 40 40 37 37 41 41 42 42 43 43 44 44 37 37 45 45 37 37 44 44 37 37 45 45 46 46 46 46 47 47 37 37 48 48 37 37 47 47 37 37 48 48 49 49 49 49 50 50 37 37 51 51 37 37 50 50 37 37 51 51 38 38 52 52 53 53 37 37 54 54 37 37 53 53 37 37 54 54 55 55 55 55 56 56 37 37 57 57 37 37 56 56 37 37 57 57 43 43 58 58 59 59 60 60 58 58 60 60 61 61 62 62 60 60 63 63 64 64 63 63 60 60 62 62 65 65 60 60 66 66 60 60 65 65 60 60 66 66 67 67 67 67 68 68 60 60 69 69 60 60 68 68 60 60 69 69 70 70 70 70 71 71 60 60 72 72 60 60 71 71 60 60 72 72 73 73 73 73 74 74 60 60 75 75 60 60 74 74 60 60 75 75 76 76 76 76 77 77 60 60 78 78 60 60 77 77 60 60 78 78 61 61 79 79 80 80 81 81 81 81 82 82 79 79 83 83 79 79 82 82 79 79 83 83 84 84 84 84 85 85 79 79 86 86 79 79 85 85 79 79 86 86 87 87 87 87 88 88 79 79 89 89 79 79 88 88 79 79 89 89 90 90 91 91 92 92 79 79 93 93 79 79 92 92 79 79 93 93 94 94 90 90 95 95 79 79 96 96 79 79 95 95 79 79 96 96 97 97 97 97 98 98 79 79 99 99 79 79 98 98 79 79 99 99 91 91 100 100 101 101 102 102 102 102 103 103 100 100 104 104 100 100 103 103 100 100 104 104 105 105 105 105 106 106 100 100 107 107 100 100 106 106 100 100 107 107 108 108 109 109 108 108 107 107 108 108 109 109 110 110 110 110 111 111 108 108 112 112 108 108 111 111 108 108 112 112 113 113 16 16 114 114 115 115 115 115 116 116 16 16 117 117 16 16 116 116 16 16 117 117 118 118 118 118 119 119 16 16 120 120 16 16 119 119 16 16 120 120 17 17 121 121 17 17 120 120 121 121 122 122 17 17 123 123 17 17 122 122 17 17 123 123 124 124 125 125 126 126 127 127 128 128 127 127 126 126 127 127 128 128 129 129 126 126 130 130 128 128 131 131 128 128 130 130 128 128 131 131 132 132 129 129 133 133 127 127 134 134 127 127 133 133 127 127 134 134 135 135 136 136 135 135 134 134 135 135 136 136 137 137 131 131 138 138 132 132 139 139 132 132 138 138 132 132 139 139 140 140 141 141 142 142 143 143 144 144 143 143 142 142 140 140 145 145 132 132 146 146 132 132 145 145 132 132 146 146 147 147 144 144 147 147 146 146 147 147 144 144 148 148 142 142 148 148 144 144 100 100 108 108 149 149 100 100 149 149 150 150 151 151 150 150 149 149 150 150 151 151 152 152 153 153 152 152 151 151 152 152 153 153 154 154 155 155 154 154 153 153 154 154 155 155 156 156 157 157 156 156 155 155 156 156 157 157 158 158 159 159 158 158 157 157 158 158 159 159 160 160 3 3 160 160 159 159 160 160 3 3 1 1 161 161 162 162 163 163 164 164 165 165 162 162 166 166 162 162 165 165 162 162 166 166 163 163 165 165 167 167 166 166 168 168 166 166 167 167 166 166 168 168 169 169 163 163 170 170 161 161 171 171 161 161 170 170 161 161 171 171 172 172 173 173 172 172 171 171 168 168 174 174 169 169 175 175 169 169 174 174 169 169 175 175 176 176 176 176 177 177 169 169 178 178 169 169 177 177 169 169 178 178 179 179 180 180 181 181 182 182 183 183 182 182 181 181 182 182 183 183 178 178 184 184 178 178 183 183 178 178 184 184 179 179 185 185 186 186 187 187 188 188 189 189 190 190 191 191 192 192 193 193 194 194 195 195 196 196 197 197 198 198 199 199 200 200 201 201 202 202 203 203 204 204 205 205 206 206 207 207 208 208 209 209 210 210 211 211 212 212 213 213 214 214 215 215 216 216 217 217 218 218 217 217 219 219 220 220 221 221 222 222 223 223 224 224 225 225 226 226 227 227 228 228 228 228 229 229 230 230 231 231 232 232 233 233 234 234 235 235 231 231 236 236 231 231 235 235 234 234 231 231 237 237 233 233 237 237 231 231 237 237 233 233 238 238 239 239 238 238 233 233 238 238 239 239 240 240 232 232 231 231 241 241 236 236 241 241 231 231 241 241 236 236 242 242 243 243 244 244 245 245 246 246 245 245 244 244 245 245 246 246 247 247 230 230 247 247 246 246 247 247 230 230 248 248 229 229 248 248 230 230 248 248 229 229 249 249 224 224 223 223 250 250 220 220 250 250 223 223 250 250 220 220 251 251 221 221 220 220 252 252 223 223 252 252 220 220 252 252 223 223 253 253 254 254 255 255 256 256 254 254 256 256 225 225 257 257 225 225 256 256 225 225 257 257 223 223 258 258 223 223 257 257 223 223 258 258 253 253 251 251 220 220 259 259 222 222 259 259 220 220 259 259 222 222 260 260 261 261 260 260 222 222 260 260 261 261 262 262 263 263 262 262 261 261 262 262 263 263 226 226 255 255 254 254 264 264 265 265 264 264 254 254 264 264 265 265 266 266 267 267 268 268 269 269 270 270 271 271 272 272 268 268 267 267 273 273 274 274 273 273 267 267 273 273 274 274 275 275 266 266 265 265 276 276 277 277 276 276 265 265 276 276 277 277 278 278 279 279 278 278 277 277 278 278 279 279 280 280 281 281 280 280 279 279 280 280 281 281 269 269 282 282 283 283 284 284 219 219 285 285 286 286 217 217 216 216 219 219 287 287 219 219 216 216 219 219 287 287 285 285 288 288 289 289 290 290 291 291 290 290 289 289 290 290 291 291 292 292 288 288 215 215 293 293 294 294 295 295 296 296 297 297 296 296 295 295 296 296 297 297 298 298 299 299 298 298 297 297 299 299 300 300 301 301 302 302 301 301 300 300 301 301 302 302 303 303 304 304 305 305 306 306 307 307 306 306 305 305 306 306 307 307 308 308 309 309 308 308 307 307 308 308 309 309 310 310 311 311 310 310 309 309 310 310 311 311 294 294 312 312 294 294 311 311 294 294 312 312 295 295 313 313 314 314 285 285 315 315 285 285 314 314 285 285 315 315 286 286 316 316 286 286 315 315 286 286 316 316 271 271 213 213 212 212 317 317 318 318 319 319 320 320 321 321 322 322 323 323 324 324 323 323 322 322 323 323 324 324 325 325 210 210 326 326 327 327 328 328 327 327 326 326 327 327 328 328 321 321 329 329 321 321 328 328 321 321 329 329 322 322 324 324 330 330 325 325 331 331 325 325 330 330 325 325 331 331 332 332 333 333 332 332 331 331 332 332 333 333 334 334 335 335 334 334 333 333 334 334 335 335 336 336 337 337 336 336 335 335 336 336 337 337 338 338 318 318 338 338 337 337 209 209 211 211 339 339 340 340 205 205 341 341 342 342 343 343 340 340 344 344 340 340 343 343 202 202 345 345 346 346 202 202 346 346 347 347 346 346 348 348 347 347 349 349 347 347 348 348 347 347 349 349 350 350 351 351 350 350 349 349 350 350 351 351 352 352 353 353 352 352 351 351 352 352 353 353 354 354 355 355 354 354 353 353 354 354 355 355 356 356 357 357 358 358 359 359 360 360 357 357 361 361 362 362 363 363 364 364 365 365 366 366 367 367 368 368 367 367 366 366 367 367 368 368 369 369 360 360 369 369 368 368 370 370 371 371 372 372 371 371 373 373 374 374 375 375 374 374 373 373 374 374 375 375 376 376 377 377 376 376 375 375 376 376 377 377 378 378 379 379 380 380 381 381 382 382 381 381 380 380 381 381 382 382 383 383 384 384 383 383 382 382 383 383 384 384 385 385 386 386 385 385 384 384 363 363 387 387 388 388 342 342 388 388 387 387 389 389 390 390 208 208 391 391 208 208 390 390 208 208 391 391 206 206 392 392 206 206 391 391 390 390 393 393 391 391 394 394 391 391 393 393 391 391 394 394 214 214 320 320 214 214 394 394 214 214 320 320 212 212 392 392 391 391 395 395 214 214 395 395 391 391 395 395 214 214 396 396 213 213 396 396 214 214 396 396 213 213 397 397 398 398 399 399 400 400 327 327 401 401 402 402 210 210 327 327 211 211 402 402 211 211 327 327 211 211 402 402 403 403 400 400 404 404 398 398 405 405 398 398 404 404 398 398 405 405 406 406 407 407 406 406 405 405 406 406 407 407 408 408 318 318 320 320 338 338 394 394 338 338 320 320 338 338 394 394 336 336 393 393 336 336 394 394 336 336 393 393 334 334 390 390 334 334 393 393 334 334 390 390 332 332 389 389 332 332 390 390 332 332 389 389 325 325 399 399 325 325 389 389 325 325 399 399 323 323 398 398 323 323 399 399 323 323 398 398 321 321 406 406 321 321 398 398 321 321 406 406 327 327 408 408 327 327 406 406 327 327 408 408 401 401 207 207 409 409 208 208 410 410 208 208 409 409 208 208 410 410 389 389 411 411 389 389 410 410 389 389 411 411 399 399 412 412 399 399 411 411 399 399 412 412 400 400 403 403 413 413 211 211 356 356 211 211 413 413 211 211 356 356 339 339 355 355 339 339 356 356 205 205 204 204 341 341 414 414 341 341 204 204 341 341 414 414 415 415 344 344 345 345 340 340 202 202 340 340 345 345 340 340 202 202 205 205 201 201 205 205 202 202 205 205 201 201 203 203 350 350 416 416 347 347 417 417 347 347 416 416 347 347 417 417 202 202 418 418 202 202 417 417 202 202 418 418 200 200 413 413 419 419 356 356 420 420 356 356 419 419 356 356 420 420 354 354 421 421 354 354 420 420 354 354 421 421 352 352 422 422 352 352 421 421 352 352 422 422 350 350 423 423 350 350 422 422 350 350 423 423 416 416 363 363 388 388 364 364 193 193 364 364 388 388 364 364 193 193 199 199 192 192 199 199 193 193 199 199 192 192 197 197 424 424 361 361 425 425 357 357 425 425 361 361 425 425 357 357 426 426 359 359 426 426 357 357 426 426 359 359 362 362 362 362 364 364 426 426 199 199 426 426 364 364 426 426 199 199 425 425 198 198 425 425 199 199 425 425 198 198 424 424 427 427 428 428 429 429 430 430 429 429 428 428 431 431 432 432 433 433 429 429 433 433 432 432 433 433 429 429 434 434 430 430 434 434 429 429 360 360 361 361 369 369 427 427 369 369 361 361 369 369 427 427 367 367 429 429 367 367 427 427 367 367 429 429 365 365 432 432 365 365 429 429 365 365 432 432 366 366 424 424 435 435 361 361 436 436 361 361 435 435 361 361 436 436 427 427 437 437 427 427 436 436 427 427 437 437 428 428 438 438 439 439 372 372 440 440 372 372 439 439 372 372 440 440 370 370 386 386 370 370 440 440 371 371 374 374 372 372 441 441 372 372 374 374 372 372 441 441 438 438 358 358 357 357 442 442 360 360 442 442 357 357 442 442 360 360 443 443 368 368 443 443 360 360 443 443 368 368 378 378 366 366 378 378 368 368 378 378 366 366 376 376 432 432 376 376 366 366 376 376 432 432 374 374 431 431 374 374 432 432 374 374 431 431 441 441 195 195 194 194 444 444 445 445 444 444 194 194 444 444 445 445 379 379 446 446 379 379 445 445 379 379 446 446 380 380 386 386 440 440 385 385 439 439 385 385 440 440 385 385 439 439 383 383 447 447 383 383 439 439 383 383 447 447 381 381 448 448 381 381 447 447 381 381 448 448 379 379 449 449 379 379 448 448 379 379 449 449 444 444 450 450 444 444 449 449 444 444 450 450 195 195 342 342 340 340 388 388 341 341 388 388 340 340 388 388 341 341 193 193 415 415 193 193 341 341 193 193 415 415 191 191 451 451 452 452 453 453 454 454 453 453 452 452 453 453 454 454 455 455 456 456 457 457 458 458 456 456 458 458 459 459 460 460 459 459 458 458 459 459 460 460 451 451 456 456 461 461 457 457 462 462 457 457 461 461 457 457 462 462 463 463 464 464 463 463 462 462 463 463 464 464 465 465 464 464 466 466 465 465 467 467 465 465 466 466 465 465 467 467 468 468 469 469 468 468 467 467 468 468 469 469 470 470 468 468 471 471 465 465 472 472 465 465 471 471 465 465 472 472 463 463 473 473 463 463 472 472 463 463 473 473 457 457 474 474 457 457 473 473 457 457 474 474 458 458 475 475 458 458 474 474 458 458 475 475 460 460 476 476 460 460 475 475 243 243 477 477 478 478 479 479 478 478 477 477 480 480 481 481 479 479 482 482 479 479 481 481 479 479 482 482 478 478 483 483 478 478 482 482 478 478 483 483 484 484 483 483 485 485 484 484 486 486 484 484 485 485 484 484 486 486 487 487 488 488 487 487 486 486 487 487 488 488 489 489 490 490 489 489 488 488 489 489 490 490 491 491 451 451 460 460 452 452 476 476 452 452 460 460 452 452 476 476 249 249 475 475 249 249 476 476 249 249 475 475 248 248 474 474 248 248 475 475 248 248 474 474 247 247 473 473 247 247 474 474 247 247 473 473 245 245 472 472 245 245 473 473 245 245 472 472 243 243 471 471 243 243 472 472 243 243 471 471 477 477 468 468 477 477 471 471 477 477 468 468 479 479 470 470 479 479 468 468 479 479 470 470 480 480 492 492 493 493 494 494 489 489 494 494 493 493 494 494 489 489 495 495 491 491 495 495 489 489 269 269 281 281 267 267 496 496 267 267 281 281 267 267 496 496 497 497 498 498 499 499 500 500 282 282 270 270 283 283 498 498 283 283 270 270 283 283 498 498 501 501 500 500 501 501 498 498 501 501 500 500 502 502 272 272 275 275 270 270 274 274 270 270 275 275 270 270 274 274 498 498 503 503 498 498 274 274 498 498 503 503 499 499 497 497 504 504 267 267 505 505 267 267 504 504 267 267 505 505 274 274 506 506 274 274 505 505 274 274 506 506 503 503 277 277 507 507 279 279 508 508 279 279 507 507 279 279 508 508 281 281 509 509 281 281 508 508 281 281 509 509 496 496 226 226 228 228 262 262 230 230 262 262 228 228 262 262 230 230 260 260 246 246 260 260 230 230 260 260 246 246 259 259 244 244 259 259 246 246 259 259 244 244 251 251 243 243 251 251 244 244 251 251 243 243 250 250 478 478 250 250 243 243 250 250 478 478 224 224 484 484 224 224 478 478 224 224 484 484 225 225 487 487 225 225 484 484 225 225 487 487 254 254 489 489 254 254 487 487 254 254 489 489 265 265 493 493 265 265 489 489 265 265 493 493 277 277 492 492 277 277 493 493 277 277 492 492 507 507 510 510 511 511 512 512 513 513 512 512 511 511 514 514 515 515 516 516 517 517 516 516 515 515 516 516 517 517 518 518 519 519 518 518 517 517 215 215 217 217 293 293 218 218 293 293 217 217 293 293 218 218 520 520 521 521 520 520 218 218 520 520 521 521 522 522 523 523 522 522 521 521 522 522 523 523 524 524 523 523 525 525 524 524 526 526 524 524 525 525 524 524 526 526 527 527 528 528 529 529 530 530 291 291 531 531 292 292 528 528 292 292 531 531 292 292 528 528 532 532 530 530 532 532 528 528 532 532 530 530 533 533 288 288 293 293 289 289 520 520 289 289 293 293 289 289 520 520 291 291 522 522 291 291 520 520 291 291 522 522 531 531 524 524 531 531 522 522 531 531 524 524 528 528 527 527 528 528 524 524 528 528 527 527 529 529 271 271 270 270 286 286 282 282 286 286 270 270 286 286 282 282 219 219 284 284 219 219 282 282 219 219 284 284 218 218 534 534 218 218 284 284 218 218 534 534 521 521 512 512 521 521 534 534 521 521 512 512 523 523 513 513 523 523 512 512 523 523 513 513 525 525 535 535 536 536 537 537 190 190 537 537 536 536 313 313 285 285 538 538 287 287 538 538 285 285 538 538 287 287 539 539 216 216 539 539 287 287 539 539 216 216 540 540 215 215 540 540 216 216 540 540 215 215 303 303 288 288 303 303 215 215 303 303 288 288 301 301 290 290 301 301 288 288 301 301 290 290 535 535 292 292 535 535 290 290 535 535 292 292 536 536 532 532 536 536 292 292 536 536 532 532 190 190 533 533 190 190 532 532 190 190 533 533 188 188 186 186 185 185 541 541 542 542 541 541 185 185 541 541 542 542 304 304 543 543 304 304 542 542 304 304 543 543 305 305 299 299 301 301 298 298 535 535 298 298 301 301 298 298 535 535 296 296 537 537 296 296 535 535 296 296 537 537 294 294 190 190 294 294 537 537 294 294 190 190 310 310 189 189 310 310 190 190 310 310 189 189 308 308 544 544 308 308 189 189 308 308 544 544 306 306 545 545 306 306 544 544 306 306 545 545 304 304 546 546 304 304 545 545 304 304 546 546 541 541 547 547 541 541 546 546 541 541 547 547 186 186 548 548 549 549 518 518 550 550 518 518 549 549 518 518 550 550 516 516 551 551 516 516 550 550 516 516 551 551 514 514 552 552 514 514 551 551 514 514 552 552 510 510 510 510 512 512 514 514 534 534 514 514 512 512 514 514 534 534 515 515 284 284 515 515 534 534 515 515 284 284 517 517 283 283 517 517 284 284 517 517 283 283 519 519 501 501 519 519 283 283 519 519 501 501 518 518 502 502 518 518 501 501 518 518 502 502 548 548 553 553 554 554 555 555 556 556 555 555 554 554 555 555 556 556 240 240 557 557 240 240 556 556 240 240 557 557 238 238 454 454 238 238 557 557 238 238 454 454 237 237 452 452 237 237 454 454 237 237 452 452 234 234 249 249 234 234 452 452 234 234 249 249 235 235 229 229 235 235 249 249 235 235 229 229 236 236 228 228 236 236 229 229 236 236 228 228 242 242 227 227 242 242 228 228 319 319 558 558 320 320 559 559 320 320 558 558 320 320 559 559 212 212 560 560 212 212 559 559 212 212 560 560 317 317 561 561 317 317 560 560 317 317 561 561 562 562 563 563 562 562 561 561 562 562 563 563 564 564 565 565 564 564 563 563 564 564 565 565 566 566 567 567 566 566 565 565 566 566 567 567 568 568 569 569 568 568 567 567 455 455 454 454 570 570 557 557 570 570 454 454 570 570 557 557 196 196 556 556 196 196 557 557 196 196 556 556 194 194 554 554 194 194 556 556 194 194 554 554 445 445 553 553 445 445 554 554 445 445 553 553 446 446 397 397 213 213 571 571 317 317 571 571 213 213 571 571 317 317 572 572 562 562 572 572 317 317 572 572 562 562 573 573 564 564 573 573 562 562 573 573 564 564 187 187 566 566 187 187 564 564 187 187 566 566 185 185 568 568 185 185 566 566 185 185 568 568 542 542 569 569 542 542 568 568 542 542 569 569 543 543 574 574 575 575 576 576 576 576 577 577 578 578 579 579 578 578 577 577 578 578 579 579 580 580 581 581 582 582 583 583 584 584 585 585 583 583 586 586 583 583 587 587 588 588 587 587 583 583 587 587 588 588 589 589 590 590 591 591 575 575 578 578 592 592 576 576 593 593 576 576 592 592 576 576 593 593 594 594 594 594 595 595 576 576 596 596 576 576 595 595 576 576 596 596 597 597 597 597 598 598 576 576 599 599 576 576 598 598 576 576 599 599 600 600 600 600 601 601 576 576 602 602 576 576 601 601 576 576 602 602 574 574 591 591 603 603 575 575 604 604 575 575 603 603 575 575 604 604 576 576 585 585 605 605 583 583 606 606 583 583 605 605 583 583 606 606 607 607 608 608 609 609 610 610 611 611 610 610 609 609 610 610 611 611 612 612 613 613 614 614 615 615 616 616 615 615 614 614 612 612 617 617 610 610 614 614 610 610 617 617 610 610 614 614 618 618 613 613 618 618 614 614 582 582 619 619 583 583 620 620 583 583 619 619 583 583 620 620 621 621 622 622 623 623 583 583 624 624 583 583 623 623 625 625 583 583 626 626 627 627 626 626 583 583 625 625 628 628 583 583 629 629 583 583 628 628 583 583 629 629 630 630 607 607 631 631 583 583 632 632 583 583 631 631 583 583 632 632 633 633 633 633 634 634 583 583 635 635 583 583 634 634 583 583 635 635 636 636 637 637 638 638 639 639 640 640 641 641 639 639 583 583 639 639 641 641 639 639 583 583 637 637 589 589 642 642 587 587 643 643 587 587 642 642 587 587 643 643 644 644 645 645 644 644 643 643 644 644 645 645 646 646 647 647 646 646 645 645 646 646 647 647 648 648 649 649 648 648 647 647 648 648 649 649 650 650 578 578 650 650 649 649 590 590 575 575 610 610 651 651 610 610 575 575 610 610 651 651 608 608 614 614 652 652 653 653 654 654 655 655 653 653 656 656 653 653 655 655 653 653 656 656 614 614 657 657 614 614 656 656 586 586 658 658 583 583 659 659 583 583 658 658 583 583 659 659 660 660 660 660 661 661 583 583 662 662 583 583 661 661 583 583 662 662 581 581 624 624 663 663 583 583 664 664 583 583 663 663 583 583 664 664 665 665 630 630 666 666 583 583 667 667 583 583 666 666 583 583 667 667 584 584 636 636 668 668 583 583 669 669 583 583 668 668 583 583 669 669 637 637 580 580 670 670 578 578 671 671 578 578 670 670 578 578 671 671 650 650 621 621 672 672 583 583 673 673 583 583 672 672 583 583 673 673 674 674 665 665 675 675 583 583 676 676 583 583 675 675 583 583 676 676 627 627 657 657 677 677 614 614 678 678 614 614 677 677 614 614 678 678 616 616 674 674 679 679 583 583 680 680 583 583 679 679 583 583 680 680 622 622 681 681 682 682 683 683 684 684 683 683 682 682 683 683 684 684 685 685 685 685 684 684 686 686 687 687 686 686 684 684 686 686 687 687 688 688 678 678 689 689 616 616 686 686 616 616 689 689 616 616 686 686 690 690 688 688 690 690 686 686</p>
        </triangles>
      </mesh>
    </geometry>
  </library_geometries>
  <library_materials>
    <material id="efa387af326c4ee1805b9ab9bbf772e2" name="defaultmaterial">
      <instance_effect url="#65d118c38dd844788a844b3cafb4c513"/>
    </material>
  </library_materials>
  <library_visual_scenes>
    <visual_scene id="scene">
      <node id="node0" name="node0">
        <instance_geometry url="#7098dbb40a274f16a96844038472b754">
          <bind_material>
            <technique_common>
              <instance_material symbol="material0" target="#efa387af326c4ee1805b9ab9bbf772e2"/>
            </technique_common>
          </bind_material>
        </instance_geometry>
      </node>
    </visual_scene>
  </library_visual_scenes>
  <scene>
    <instance_visual_scene url="#scene"/>
  </scene>
</COLLADA>
