<COLLADA xmlns="http://www.collada.org/2005/11/COLLADASchema" version="1.4.1">
  <asset>
    <created>2026-09-27T18:30:25.025838</created>
    <modified>2026-09-27T18:30:25.025838</modified>
    <up_axis>Y_UP</up_axis>
  </asset>
  <library_effects>
    <effect id="82d2d99dada647f3b8617fc62fe9c371" name="82d2d99dada647f3b8617fc62fe9c371">
      <profile_COMMON>
        <technique sid="common">
          <phong>
            <emission>
              <color>0.0 0.0 0.0 1.0</color>
            </emission>
            <ambient>
              <color>0.0 0.0 0.0 1.0</color>
            </ambient>
            <diffuse>
              <color>0.8941176470588236 0.8941176470588236 0.8941176470588236 1.0</color>
            </diffuse>
            <specular>
              <color>0.0 0.0 0.0 1.0</color>
            </specular>
            <shininess>
              <float>0.0</float>
            </shininess>
            <reflective>
              <color>0.0 0.0 0.0 1.0</color>
            </reflective>
            <reflectivity>
              <float>0.0</float>
            </reflectivity>
            <transparent>
              <color>0.0 0.0 0.0 1.0</color>
            </transparent>
            <transparency>
              <float>1.0</float>
            </transparency>
          </phong>
        </technique>
        <extra>
          <technique profile="GOOGLEEARTH">
            <double_sided>0</double_sided>
          </technique>
        </extra>
      </profile_COMMON>
    </effect>
  </library_effects>
  <library_geometries>
    <geometry id="5955a2bd18dd441480afff32b9ead36a" name="7fb16405714f40f7b4666829922c6bda">
      <mesh>
        <source id="verts-array">
          <float_array count="1140" id="verts-array-array">-0.006163146 -0.005911963 -0.006249116 -0.006163146 -0.005913786 -0.006445368 -0.006148579 -0.005902563 -0.006726784 0.005653447 0.005443838 0.007972427 0.005500195 0.005299731 0.008129262 -0.005653447 -0.005443838 -0.007972427 -0.005500195 -0.005299731 -0.008129262 0.006163146 0.00579308 -0.006554072 -0.006148202 -0.005902272 -0.006733977 -0.006103465 -0.005862383 -0.00701441 -0.006079074 -0.005840044 -0.007103731 -0.006029457 -0.005794604 -0.007285431 -0.005975489 -0.005744602 -0.007420901 -0.005928599 -0.005701157 -0.007538619 -0.005843569 -0.005621833 -0.007693723 -0.005802878 -0.005583873 -0.007767948 -0.005685147 -0.005473545 -0.00792905 0.006163146 0.005897354 0.004675764 0.006163146 0.00590719 0.005734999 0.006079074 0.005840044 0.007103731 0.006029457 0.005794604 0.007285431 -0.001814416 -0.001644314 0.008515635 -0.003429842 -0.00317856 0.008529881 -0.0041979 -0.003908022 0.008536654 -0.005817009 -0.005452294 0.007848003 -0.005929759 -0.00556134 0.007637647 -0.006163146 -0.005876668 -0.00244792 -0.005301611 -0.005112516 -0.008280737 -0.005284086 -0.005095953 -0.008289621 0.005613691 0.005256786 -0.008105459 0.006163146 0.005876668 0.00244792 0.005975489 0.005744602 0.007420901 0.005928599 0.005701157 0.007538619 0.005843569 0.005621833 0.007693723 0.005802878 0.005583873 0.007767948 0.005685147 0.005473545 0.00792905 0.00502891 0.004854629 0.008402647 0.005104303 0.004926036 0.008380743 0.005284086 0.005095953 0.008289621 0.004900484 0.004732993 0.008439948 0.004712994 0.004555078 0.00845807 -0.00541916 -0.005070314 0.008288626 -0.006163146 -0.005897354 -0.004675764 -0.006163146 -0.00590719 -0.005734999 0.005783192 0.005419807 -0.007887453 0.005827929 0.005462834 -0.00782992 0.005485541 0.005285951 0.008144251 0.005301611 0.005112516 0.008280737 -0.005485541 -0.005285951 -0.008144251 0.00541626 0.005067623 -0.00828172 -0.00502891 -0.004854629 -0.008402647 0.00528265 0.004939753 -0.008385467 0.005188847 0.004850299 -0.008423989 -0.005104303 -0.004926036 -0.008380743 0.005568613 0.005213431 -0.008163429 0.005923168 0.005555135 -0.007631669 0.006004579 0.005634036 -0.007462204 0.006037788 0.00566674 -0.007337092 0.006125167 0.005752792 -0.007007867 0.006126653 0.005754369 -0.006990081 0.006163146 0.005911963 0.006249116 0.006163146 0.005913786 0.006445368 0.006148579 0.005902563 0.006726784 -0.004570691 -0.004262079 0.008539942 -0.004712994 -0.004397231 0.008541197 -0.004916958 -0.004591132 0.008522906 -0.005504219 -0.005151699 0.008224708 -0.005616142 -0.005259086 0.008108431 -0.005669703 -0.005310477 0.008052785 -0.005785766 -0.005422215 0.007891446 -0.006151204 -0.005779337 0.006812535 -0.006163146 -0.00579308 0.006554072 -0.006124978 -0.005752784 0.006989416 -0.006109578 -0.005737192 0.007093266 -0.006044654 -0.005673229 0.007340623 -0.00518984 -0.004851191 0.008429467 -0.005321275 -0.004976656 0.008362189 -0.004900484 -0.004732993 -0.008439948 -0.004712994 -0.004555078 -0.00845807 0.001814416 0.001644314 -0.008515635 0.003429842 0.00317856 -0.008529881 0.0041979 0.003908022 -0.008536654 0.004570691 0.004262079 -0.008539942 0.006148202 0.005902272 0.006733977 0.006103465 0.005862383 0.00701441 -0.004922179 -0.004596095 0.008522432 -0.005125236 -0.004789521 0.008462526 -0.005940533 -0.005571761 0.007617533 -0.006038324 -0.005666993 0.007364736 0.004712994 0.004397231 -0.008541197 0.004916552 0.004590802 -0.008516943 0.004981251 0.004652326 -0.008509234 -0.03568223 0.02810806 -0.007005087 -0.03579112 0.02800578 -0.006881732 -0.026293 0.03715076 0.006407799 -0.03599066 0.02781942 -0.006539887 -0.03607784 0.027738 -0.006390535 -0.02613178 0.0373019 0.006193106 -0.02598256 0.03744131 0.005941691 -0.0259694 0.0374536 0.005919526 -0.02557953 0.03781189 0.004624853 -0.02556461 0.03782416 0.00442047 -0.0271807 0.03617627 -0.007736673 -0.03642817 0.02742044 -0.004754806 -0.03642817 0.02742197 -0.004589753 -0.03642817 0.02742585 -0.004172051 -0.03469304 0.02917922 0.007167328 -0.03444901 0.0294113 0.007199574 -0.03639494 0.02753976 0.004696664 -0.02583116 0.03758214 0.005621609 -0.02576034 0.03764753 0.005420474 -0.02571911 0.03768561 0.005303365 -0.02563491 0.03776249 0.004969917 -0.02562422 0.03777203 0.004903285 -0.03544984 0.02832634 -0.007268365 -0.02561194 0.03768663 -0.005549512 -0.02566719 0.03763182 -0.005800564 -0.02722017 0.03627636 0.007080847 -0.02703778 0.03644888 0.007003041 -0.02697554 0.03650775 0.006976494 -0.02738231 0.03598422 -0.007796522 -0.02753041 0.03584337 -0.007815795 -0.03470969 0.02902532 -0.007702944 -0.03494076 0.02880678 -0.007601761 -0.0362164 0.0276098 -0.006023779 -0.03626632 0.02756361 -0.005891644 -0.03635122 0.02748655 -0.005506972 -0.03638318 0.02745753 -0.005362146 -0.03640812 0.02743697 -0.005025391 -0.03425294 0.02959778 0.007225494 -0.03413326 0.02971144 0.007224439 -0.03383038 0.0299991 0.007221768 -0.02674118 0.03672902 0.006833353 -0.02665941 0.03680608 0.006766635 -0.02652032 0.03693713 0.006653173 -0.02555203 0.03783206 0.003983838 -0.02555203 0.03782818 0.003566136 -0.02784694 0.03554259 -0.007830353 -0.02814982 0.03525493 -0.007827682 -0.03508324 0.02867204 -0.007539367 -0.03531829 0.02845039 -0.007365611 -0.03642817 0.02743332 -0.003367655 -0.03642817 0.02744749 -0.001841711 -0.03642817 0.027504 0.004244806 -0.03630778 0.02762715 0.005192324 -0.03626345 0.02767108 0.005388424 -0.03613896 0.02779232 0.005711482 -0.03587987 0.02804306 0.006211116 -0.03579112 0.02812874 0.006360497 -0.02555391 0.03783297 0.004273952 -0.02555203 0.03783359 0.004148891 -0.02568604 0.03761312 -0.005886234 -0.02578834 0.03751296 -0.006208538 -0.02583619 0.03746647 -0.006320891 -0.02763658 0.03574239 -0.007829618 -0.02772726 0.03565625 -0.007831408 -0.02631643 0.0371288 0.006438994 -0.03642754 0.02750528 0.004317498 -0.03554452 0.0283655 0.00663351 -0.03543678 0.02846894 0.006752795 -0.03517173 0.02872245 0.006941549 -0.03507623 0.02881378 0.007009554 -0.03479785 0.02907926 0.007124174 -0.02591757 0.03738739 -0.006511985 -0.02607157 0.03723852 -0.006791815 -0.02609404 0.03721688 -0.006823926 -0.03606928 0.02786018 0.0058923 -0.03637967 0.02755592 0.004874291 -0.02713245 0.03622223 -0.007722349 -0.02689121 0.03645243 -0.007608351 -0.02680655 0.03653335 -0.00755224 -0.02873309 0.03470097 -0.007822538 -0.02983956 0.0336501 -0.00781278 -0.03425294 0.0294585 -0.007773859 -0.03324711 0.03055306 0.007216624 -0.03214063 0.03160393 0.007206866 -0.02772726 0.03579553 0.007167945 -0.02555203 0.03782071 0.002761741 -0.02555203 0.03780654 0.001235797 -0.02555203 0.03775003 -0.004850721 -0.02624869 0.03706794 -0.007044902 -0.02643004 0.0368938 -0.007249104 -0.02644602 0.03687844 -0.007267112 -0.02666116 0.03667235 -0.007455857 -0.03430565 0.02940844 -0.007772525 -0.0345808 0.02914754 -0.00772514 -0.02747212 0.03603765 0.007145006 -0.02739896 0.03610696 0.007126371 -0.02556703 0.03773251 -0.005202453 -0.02558007 0.03771918 -0.005303224 -0.02557953 0.03781189 0.004624853 -0.02562422 0.03777203 0.004903285 0.006079074 0.005840044 0.007103731 -0.02665941 0.03680608 0.006766635 -0.02674118 0.03672902 0.006833353 0.005284086 0.005095953 0.008289621 0.005301611 0.005112516 0.008280737 0.005485541 0.005285951 0.008144251 0.005500195 0.005299731 0.008129262 0.005843569 0.005621833 0.007693723 -0.02598256 0.03744131 0.005941691 -0.02613178 0.0373019 0.006193106 0.005802878 0.005583873 0.007767948 -0.026293 0.03715076 0.006407799 0.005685147 0.005473545 0.00792905 0.006029457 0.005794604 0.007285431 -0.02563491 0.03776249 0.004969917 0.005975489 0.005744602 0.007420901 -0.02571911 0.03768561 0.005303365 -0.02576034 0.03764753 0.005420474 0.005928599 0.005701157 0.007538619 -0.02583116 0.03758214 0.005621609 -0.0259694 0.0374536 0.005919526 0.005653447 0.005443838 0.007972427 -0.02631643 0.0371288 0.006438994 -0.02652032 0.03693713 0.006653173 -0.02556461 0.03782416 0.00442047 0.006163146 0.005913786 0.006445368 -0.02555391 0.03783297 0.004273952 0.006163146 0.005911963 0.006249116 -0.02555203 0.03783359 0.004148891 0.006103465 0.005862383 0.00701441 0.006148202 0.005902272 0.006733977 0.006148579 0.005902563 0.006726784 0.005923168 0.005555135 -0.007631669 -0.02583619 0.03746647 -0.006320891 0.006004579 0.005634036 -0.007462204 -0.02578834 0.03751296 -0.006208538 0.006037788 0.00566674 -0.007337092 -0.02568604 0.03761312 -0.005886234 -0.02566719 0.03763182 -0.005800564 0.006125167 0.005752792 -0.007007867 -0.02561194 0.03768663 -0.005549512 0.006126653 0.005754369 -0.006990081 -0.02558007 0.03771918 -0.005303224 0.006163146 0.00579308 -0.006554072 0.00541626 0.005067623 -0.00828172 -0.02680655 0.03653335 -0.00755224 0.005568613 0.005213431 -0.008163429 -0.02666116 0.03667235 -0.007455857 0.005613691 0.005256786 -0.008105459 -0.02644602 0.03687844 -0.007267112 -0.02643004 0.0368938 -0.007249104 -0.02624869 0.03706794 -0.007044902 0.005783192 0.005419807 -0.007887453 -0.02609404 0.03721688 -0.006823926 0.005827929 0.005462834 -0.00782992 -0.02607157 0.03723852 -0.006791815 -0.02591757 0.03738739 -0.006511985 -0.02772726 0.03565625 -0.007831408 -0.02763658 0.03574239 -0.007829618 0.004570691 0.004262079 -0.008539942 0.004712994 0.004397231 -0.008541197 -0.02753041 0.03584337 -0.007815795 0.004916552 0.004590802 -0.008516943 0.004981251 0.004652326 -0.008509234 -0.02738231 0.03598422 -0.007796522 0.005188847 0.004850299 -0.008423989 -0.0271807 0.03617627 -0.007736673 0.00528265 0.004939753 -0.008385467 -0.02713245 0.03622223 -0.007722349 -0.02689121 0.03645243 -0.007608351 -0.02556703 0.03773251 -0.005202453 -0.02555203 0.03775003 -0.004850721 0.006163146 0.005876668 0.00244792 -0.02555203 0.03780654 0.001235797 0.006163146 0.005897354 0.004675764 -0.02555203 0.03782071 0.002761741 0.006163146 0.00590719 0.005734999 -0.02555203 0.03782818 0.003566136 -0.02555203 0.03783206 0.003983838 -0.005284086 -0.005095953 -0.008289621 -0.005301611 -0.005112516 -0.008280737 -0.03531829 0.02845039 -0.007365611 -0.03599066 0.02781942 -0.006539887 -0.005928599 -0.005701157 -0.007538619 -0.03607784 0.027738 -0.006390535 -0.005975489 -0.005744602 -0.007420901 -0.0362164 0.0276098 -0.006023779 -0.006029457 -0.005794604 -0.007285431 -0.03626632 0.02756361 -0.005891644 -0.006079074 -0.005840044 -0.007103731 -0.03635122 0.02748655 -0.005506972 -0.005485541 -0.005285951 -0.008144251 -0.005500195 -0.005299731 -0.008129262 -0.03544984 0.02832634 -0.007268365 -0.005653447 -0.005443838 -0.007972427 -0.03568223 0.02810806 -0.007005087 -0.005685147 -0.005473545 -0.00792905 -0.03579112 0.02800578 -0.006881732 -0.005802878 -0.005583873 -0.007767948 -0.005843569 -0.005621833 -0.007693723 -0.006148579 -0.005902563 -0.006726784 -0.03638318 0.02745753 -0.005362146 -0.006148202 -0.005902272 -0.006733977 -0.006103465 -0.005862383 -0.00701441 -0.006044654 -0.005673229 0.007340623 -0.006038324 -0.005666993 0.007364736 -0.03613896 0.02779232 0.005711482 -0.03554452 0.0283655 0.00663351 -0.005504219 -0.005151699 0.008224708 -0.03543678 0.02846894 0.006752795 -0.00541916 -0.005070314 0.008288626 -0.03517173 0.02872245 0.006941549 -0.005321275 -0.004976656 0.008362189 -0.03507623 0.02881378 0.007009554 -0.00518984 -0.004851191 0.008429467 -0.03479785 0.02907926 0.007124174 -0.005940533 -0.005571761 0.007617533 -0.005929759 -0.00556134 0.007637647 -0.03606928 0.02786018 0.0058923 -0.005817009 -0.005452294 0.007848003 -0.03587987 0.02804306 0.006211116 -0.005785766 -0.005422215 0.007891446 -0.03579112 0.02812874 0.006360497 -0.005669703 -0.005310477 0.008052785 -0.005616142 -0.005259086 0.008108431 -0.004916958 -0.004591132 0.008522906 -0.03469304 0.02917922 0.007167328 -0.004922179 -0.004596095 0.008522432 -0.005125236 -0.004789521 0.008462526 -0.03626345 0.02767108 0.005388424 -0.03630778 0.02762715 0.005192324 -0.006109578 -0.005737192 0.007093266 -0.03637967 0.02755592 0.004874291 -0.006124978 -0.005752784 0.006989416 -0.03639494 0.02753976 0.004696664 -0.006151204 -0.005779337 0.006812535 -0.03642754 0.02750528 0.004317498 -0.006163146 -0.00579308 0.006554072 -0.03642817 0.027504 0.004244806 -0.006163146 -0.005876668 -0.00244792 -0.03642817 0.02744749 -0.001841711 -0.006163146 -0.005897354 -0.004675764 -0.03642817 0.02743332 -0.003367655 -0.006163146 -0.00590719 -0.005734999 -0.03642817 0.02742585 -0.004172051 -0.006163146 -0.005911963 -0.006249116 -0.03642817 0.02742197 -0.004589753 -0.006163146 -0.005913786 -0.006445368 -0.03642817 0.02742044 -0.004754806 -0.03640812 0.02743697 -0.005025391 -0.03508324 0.02867204 -0.007539367 -0.03494076 0.02880678 -0.007601761 -0.005104303 -0.004926036 -0.008380743 -0.03470969 0.02902532 -0.007702944 -0.00502891 -0.004854629 -0.008402647 -0.0345808 0.02914754 -0.00772514 -0.004900484 -0.004732993 -0.008439948 -0.03430565 0.02940844 -0.007772525 -0.004712994 -0.004555078 -0.00845807 -0.03425294 0.0294585 -0.007773859 0.001814416 0.001644314 -0.008515635 -0.02983956 0.0336501 -0.00781278 0.003429842 0.00317856 -0.008529881 -0.02873309 0.03470097 -0.007822538 0.0041979 0.003908022 -0.008536654 -0.02814982 0.03525493 -0.007827682 -0.02784694 0.03554259 -0.007830353 -0.02697554 0.03650775 0.006976494 -0.02703778 0.03644888 0.007003041 0.005104303 0.004926036 0.008380743 -0.02722017 0.03627636 0.007080847 0.00502891 0.004854629 0.008402647 -0.02739896 0.03610696 0.007126371 0.004900484 0.004732993 0.008439948 -0.02747212 0.03603765 0.007145006 0.004712994 0.004555078 0.00845807 -0.02772726 0.03579553 0.007167945 -0.001814416 -0.001644314 0.008515635 -0.03214063 0.03160393 0.007206866 -0.003429842 -0.00317856 0.008529881 -0.03324711 0.03055306 0.007216624 -0.0041979 -0.003908022 0.008536654 -0.03383038 0.0299991 0.007221768 -0.004570691 -0.004262079 0.008539942 -0.03413326 0.02971144 0.007224439 -0.004712994 -0.004397231 0.008541197 -0.03425294 0.02959778 0.007225494 -0.03444901 0.0294113 0.007199574</float_array>
          <technique_common>
            <accessor count="380" source="#verts-array-array" stride="3">
              <param type="float" name="X"/>
              <param type="float" name="Y"/>
              <param type="float" name="Z"/>
            </accessor>
          </technique_common>
        </source>
        <source id="normals-array">
          <float_array count="1140" id="normals-array-array">0.6886688 -0.7250448 0.006732383 0.6886688 -0.7250448 0.006732383 0.6886688 -0.7250448 0.006732383 0.6886688 -0.7250448 0.006732383 0.6886688 -0.7250448 0.006732383 0.6886688 -0.7250448 0.006732383 0.6886688 -0.7250448 0.006732383 0.6886688 -0.7250448 0.006732383 0.6886688 -0.7250448 0.006732383 0.6886688 -0.7250448 0.006732383 0.6886688 -0.7250448 0.006732383 0.6886688 -0.7250448 0.006732383 0.6886688 -0.7250448 0.006732383 0.6886688 -0.7250448 0.006732383 0.6886688 -0.7250448 0.006732383 0.6886688 -0.7250448 0.006732383 0.6886688 -0.7250448 0.006732383 0.6886688 -0.7250448 0.006732383 0.6886688 -0.7250448 0.006732383 0.6886688 -0.7250448 0.006732383 0.6886688 -0.7250448 0.006732383 0.6886688 -0.7250448 0.006732383 0.6886688 -0.7250448 0.006732383 0.6886688 -0.7250448 0.006732383 0.6886688 -0.7250448 0.006732383 0.6886688 -0.7250448 0.006732383 0.6886688 -0.7250448 0.006732383 0.6886688 -0.7250448 0.006732383 0.6886688 -0.7250448 0.006732383 0.6886688 -0.7250448 0.006732383 0.6886688 -0.7250448 0.006732383 0.6886688 -0.7250448 0.006732383 0.6886688 -0.7250448 0.006732383 0.6886688 -0.7250448 0.006732383 0.6886688 -0.7250448 0.006732383 0.6886688 -0.7250448 0.006732383 0.6886688 -0.7250448 0.006732383 0.6886688 -0.7250448 0.006732383 0.6886688 -0.7250448 0.006732383 0.6886688 -0.7250448 0.006732383 0.6886688 -0.7250448 0.006732383 0.6886688 -0.7250448 0.006732383 0.6886688 -0.7250448 0.006732383 0.6886688 -0.7250448 0.006732383 0.6886688 -0.7250448 0.006732383 0.6886688 -0.7250448 0.006732383 0.6886688 -0.7250448 0.006732383 0.6886688 -0.7250448 0.006732383 0.6886688 -0.7250448 0.006732383 0.6886688 -0.7250448 0.006732383 0.6886688 -0.7250448 0.006732383 0.6886688 -0.7250448 0.006732383 0.6886688 -0.7250448 0.006732383 0.6886688 -0.7250448 0.006732383 0.6886688 -0.7250448 0.006732383 0.6886688 -0.7250448 0.006732383 0.6886688 -0.7250448 0.006732383 0.6886688 -0.7250448 0.006732383 0.6886688 -0.7250448 0.006732383 0.6886688 -0.7250448 0.006732383 0.6886688 -0.7250448 0.006732383 0.6886688 -0.7250448 0.006732383 0.6886688 -0.7250448 0.006732383 0.6886688 -0.7250448 0.006732383 0.6886688 -0.7250448 0.006732383 0.6886688 -0.7250448 0.006732383 0.6886688 -0.7250448 0.006732383 0.6886688 -0.7250448 0.006732383 0.6886688 -0.7250448 0.006732383 0.6886688 -0.7250448 0.006732383 0.6886688 -0.7250448 0.006732383 0.6886688 -0.7250448 0.006732383 0.6886688 -0.7250448 0.006732383 0.6886688 -0.7250448 0.006732383 0.6886688 -0.7250448 0.006732383 0.6886688 -0.7250448 0.006732383 0.6886688 -0.7250448 0.006732383 0.6886688 -0.7250448 0.006732383 0.6886688 -0.7250448 0.006732383 0.6886688 -0.7250448 0.006732383 0.6886688 -0.7250448 0.006732383 0.6886688 -0.7250448 0.006732383 0.6886688 -0.7250448 0.006732383 0.6886688 -0.7250448 0.006732383 0.6886688 -0.7250448 0.006732383 0.6886688 -0.7250448 0.006732383 0.6886688 -0.7250448 0.006732383 0.6886688 -0.7250448 0.006732383 0.6886688 -0.7250448 0.006732383 0.6886688 -0.7250448 0.006732383 0.6886688 -0.7250448 0.006732383 0.6886688 -0.7250448 0.006732383 -0.6886688 0.7250448 -0.006732383 -0.6886688 0.7250448 -0.006732383 -0.6886688 0.7250448 -0.006732383 -0.6886688 0.7250448 -0.006732383 -0.6886688 0.7250448 -0.006732383 -0.6886688 0.7250448 -0.006732383 -0.6886688 0.7250448 -0.006732383 -0.6886688 0.7250448 -0.006732383 -0.6886688 0.7250448 -0.006732383 -0.6886688 0.7250448 -0.006732383 -0.6886688 0.7250448 -0.006732383 -0.6886688 0.7250448 -0.006732383 -0.6886688 0.7250448 -0.006732383 -0.6886688 0.7250448 -0.006732383 -0.6886688 0.7250448 -0.006732383 -0.6886688 0.7250448 -0.006732383 -0.6886688 0.7250448 -0.006732383 -0.6886688 0.7250448 -0.006732383 -0.6886688 0.7250448 -0.006732383 -0.6886688 0.7250448 -0.006732383 -0.6886688 0.7250448 -0.006732383 -0.6886688 0.7250448 -0.006732383 -0.6886688 0.7250448 -0.006732383 -0.6886688 0.7250448 -0.006732383 -0.6886688 0.7250448 -0.006732383 -0.6886688 0.7250448 -0.006732383 -0.6886688 0.7250448 -0.006732383 -0.6886688 0.7250448 -0.006732383 -0.6886688 0.7250448 -0.006732383 -0.6886688 0.7250448 -0.006732383 -0.6886688 0.7250448 -0.006732383 -0.6886688 0.7250448 -0.006732383 -0.6886688 0.7250448 -0.006732383 -0.6886688 0.7250448 -0.006732383 -0.6886688 0.7250448 -0.006732383 -0.6886688 0.7250448 -0.006732383 -0.6886688 0.7250448 -0.006732383 -0.6886688 0.7250448 -0.006732383 -0.6886688 0.7250448 -0.006732383 -0.6886688 0.7250448 -0.006732383 -0.6886688 0.7250448 -0.006732383 -0.6886688 0.7250448 -0.006732383 -0.6886688 0.7250448 -0.006732383 -0.6886688 0.7250448 -0.006732383 -0.6886688 0.7250448 -0.006732383 -0.6886688 0.7250448 -0.006732383 -0.6886688 0.7250448 -0.006732383 -0.6886688 0.7250448 -0.006732383 -0.6886688 0.7250448 -0.006732383 -0.6886688 0.7250448 -0.006732383 -0.6886688 0.7250448 -0.006732383 -0.6886688 0.7250448 -0.006732383 -0.6886688 0.7250448 -0.006732383 -0.6886688 0.7250448 -0.006732383 -0.6886688 0.7250448 -0.006732383 -0.6886688 0.7250448 -0.006732383 -0.6886688 0.7250448 -0.006732383 -0.6886688 0.7250448 -0.006732383 -0.6886688 0.7250448 -0.006732383 -0.6886688 0.7250448 -0.006732383 -0.6886688 0.7250448 -0.006732383 -0.6886688 0.7250448 -0.006732383 -0.6886688 0.7250448 -0.006732383 -0.6886688 0.7250448 -0.006732383 -0.6886688 0.7250448 -0.006732383 -0.6886688 0.7250448 -0.006732383 -0.6886688 0.7250448 -0.006732383 -0.6886688 0.7250448 -0.006732383 -0.6886688 0.7250448 -0.006732383 -0.6886688 0.7250448 -0.006732383 -0.6886688 0.7250448 -0.006732383 -0.6886688 0.7250448 -0.006732383 -0.6886688 0.7250448 -0.006732383 -0.6886688 0.7250448 -0.006732383 -0.6886688 0.7250448 -0.006732383 -0.6886688 0.7250448 -0.006732383 -0.6886688 0.7250448 -0.006732383 -0.6886688 0.7250448 -0.006732383 -0.6886688 0.7250448 -0.006732383 -0.6886688 0.7250448 -0.006732383 -0.6886688 0.7250448 -0.006732383 -0.6886688 0.7250448 -0.006732383 -0.6886688 0.7250448 -0.006732383 -0.6886688 0.7250448 -0.006732383 -0.6886688 0.7250448 -0.006732383 -0.6886688 0.7250448 -0.006732383 -0.6886688 0.7250448 -0.006732383 -0.6886688 0.7250448 -0.006732383 -0.6886688 0.7250448 -0.006732383 -0.6886688 0.7250448 -0.006732383 -0.6886688 0.7250448 -0.006732383 -0.6886688 0.7250448 -0.006732383 -0.6886688 0.7250448 -0.006732383 -0.6886688 0.7250448 -0.006732383 -0.6886688 0.7250448 -0.006732383 -0.6886688 0.7250448 -0.006732383 -0.6886688 0.7250448 -0.006732383 -0.6886688 0.7250448 -0.006732383 0.6961183 0.701916 0.1507754 0.6867493 0.6958848 0.2100471 0.6533337 0.6731476 0.3464495 0.3393977 0.3833654 0.8589762 0.3023411 0.3469611 0.8878107 0.2221552 0.2681613 0.9374095 0.269011 0.3147667 0.91025 0.3591407 0.4030501 0.8417652 0.4015244 0.4441882 0.8009214 0.5491211 0.5828266 0.5989817 0.5316305 0.5664148 0.6297168 0.5035335 0.5403867 0.6741188 0.5161558 0.552253 0.6546753 0.4735675 0.512432 0.716343 0.480623 0.5191298 0.7067572 0.6314968 0.6556334 0.4139525 0.6754283 0.6878719 0.265761 0.6078151 0.6354908 0.4761431 0.6448596 0.6648754 0.3769572 0.6259036 0.6495843 0.4316074 0.5798082 0.6102391 0.5398432 0.6056242 0.6321489 0.4833292 0.5583097 0.5904626 0.58279 0.4424858 0.4830221 0.7555766 0.4419715 0.4824915 0.7562163 0.3746181 0.4177733 0.8277238 0.7029763 0.7050229 0.09363286 0.7079724 0.7056012 0.03003538 0.7065848 0.705646 0.05293122 0.7095758 0.7045989 -0.006524248 0.709276 0.7049219 0.00354399 0.6710897 0.6864388 0.2800721 0.6976571 0.7027891 0.1391475 0.7055563 0.705655 0.06512569 0.5775761 0.5978217 -0.5558912 0.598812 0.6171023 -0.5104987 0.620886 0.6370624 -0.4567846 0.620331 0.6365484 -0.4582528 0.6567285 0.6684305 -0.3491538 0.6565358 0.6678831 -0.3505609 0.670815 0.6799068 -0.2961991 0.6833967 0.6898599 -0.2388772 0.6834194 0.6900698 -0.2382047 0.7014165 0.7023904 -0.1210891 0.6935507 0.6971101 -0.1817279 0.7066313 0.7045543 -0.06538667 0.3312124 0.3605166 -0.8719668 0.2920348 0.3197162 -0.9013863 0.4029304 0.4311874 -0.8072946 0.3286272 0.3561118 -0.8747505 0.467203 0.4937596 -0.7334322 0.3992543 0.4263049 -0.811702 0.432689 0.459251 -0.775802 0.4645586 0.4901573 -0.7375169 0.4681414 0.493585 -0.7329512 0.4949121 0.5195265 -0.6965301 0.5261605 0.5493796 -0.6491049 0.5238704 0.5470044 -0.6529518 0.5760258 0.5958627 -0.5595908 -0.0082622 0.01406589 -0.9998669 0.02614173 0.04957878 -0.998428 -0.0153075 0.006859822 -0.9998593 0.01770007 0.0409651 -0.9990038 0.05450435 0.07889328 -0.9953919 0.04903018 0.07325157 -0.9961075 0.1206454 0.1469249 -0.9817626 0.0944963 0.1197308 -0.988299 0.1878271 0.2154507 -0.9582807 0.1360625 0.1618778 -0.9773856 0.2625652 0.2916517 -0.9197819 0.175478 0.2016601 -0.9636082 0.253509 0.2808223 -0.9256738 0.7014815 0.7020718 -0.1225514 0.7084141 0.7049246 -0.03508248 0.7095971 0.7045773 -0.006542333 0.7095971 0.7045773 -0.006542333 0.7095971 0.7045773 -0.006542333 0.7095971 0.7045773 -0.006542333 0.7095971 0.7045773 -0.006542333 0.7095971 0.7045773 -0.006542333 0.7095971 0.7045773 -0.006542333 -0.2706521 -0.2171013 -0.9378776 -0.3198584 -0.2612301 -0.9107412 -0.3652415 -0.3027627 -0.880303 -0.5911004 -0.5113986 -0.6237562 -0.6341371 -0.5531083 -0.540316 -0.6330253 -0.5520682 -0.5426782 -0.6608977 -0.5793624 -0.4770256 -0.6682196 -0.586627 -0.4575493 -0.682894 -0.6017389 -0.4142053 -0.6955695 -0.6147569 -0.3718294 -0.7022333 -0.6216416 -0.3470305 -0.7160483 -0.636992 -0.28551 -0.413293 -0.3460312 -0.8422893 -0.4568022 -0.3858961 -0.8015086 -0.4270053 -0.3588784 -0.8299836 -0.4982424 -0.4244303 -0.7560512 -0.485672 -0.4125406 -0.7706705 -0.5365644 -0.4600994 -0.7073947 -0.5412358 -0.4643898 -0.7010035 -0.5719622 -0.49355 -0.6551852 -0.6045917 -0.5243473 -0.5996072 -0.7405681 -0.668772 -0.06559684 -0.7313944 -0.6550946 -0.189508 -0.7366562 -0.6617365 -0.139436 -0.717295 -0.6379246 -0.28025 -0.7057705 -0.6184723 0.3455141 -0.6875706 -0.5982158 0.4115635 -0.6664259 -0.5762697 0.4730642 -0.4835748 -0.3962285 0.780486 -0.4225554 -0.3393209 0.8404215 -0.4242641 -0.340952 0.8388991 -0.3761328 -0.2963031 0.8779115 -0.3618154 -0.2830991 0.8882255 -0.3297198 -0.2539938 0.90927 -0.2983821 -0.2254322 0.9274419 -0.280052 -0.2087186 0.9370205 -0.2341562 -0.1677334 0.9576202 -0.6401638 -0.5487059 0.5376915 -0.6113983 -0.5197529 0.5966984 -0.6313593 -0.540106 0.5564808 -0.5789278 -0.4879821 0.6532351 -0.5894702 -0.49807 0.6359647 -0.5440382 -0.4540784 0.7055744 -0.5394475 -0.4495711 0.7119566 -0.5062233 -0.4180213 0.7543183 -0.4659739 -0.3796955 0.7991869 -0.06962603 -0.02162407 0.9973388 -0.1624664 -0.1038391 0.981235 -0.1251175 -0.07039716 0.9896413 -0.2304276 -0.1639762 0.9591741 -0.6940438 -0.6062556 0.3882748 -0.7150247 -0.6300895 0.3028643 -0.7198041 -0.6361587 0.2778204 -0.7301233 -0.6495529 0.2121345 -0.7309386 -0.6506234 0.2059561 -0.7385429 -0.6627291 0.1238725 -0.7374214 -0.6607718 0.1399654 -0.7406453 -0.6682815 0.06960226 -0.7407483 -0.6706569 0.03887497 -0.7403582 -0.6721045 0.01205412 -0.740197 -0.672361 0.006243189 -0.740197 -0.672361 0.006243189 -0.740197 -0.672361 0.006243189 -0.740197 -0.672361 0.006243189 -0.740197 -0.672361 0.006243189 -0.740197 -0.672361 0.006243189 -0.740197 -0.672361 0.006243189 -0.740197 -0.672361 0.006243189 -0.7407936 -0.6710449 -0.03038883 -0.7408294 -0.6703009 -0.04322657 -0.7395198 -0.6663284 -0.09548204 -0.3020824 -0.246116 -0.9209631 -0.2384414 -0.189074 -0.9525737 -0.2195969 -0.1725428 -0.9602115 -0.1703902 -0.1289427 -0.9769038 -0.1657913 -0.1248251 -0.978229 -0.1041308 -0.07050784 -0.9920612 -0.1161828 -0.0811926 -0.9899037 -0.06322142 -0.03475197 -0.9973943 -0.03993203 -0.01463901 -0.9990952 -0.01969246 0.003009416 -0.9998016 -0.01529997 0.006825349 -0.9998597 -0.01529997 0.006825349 -0.9998597 -0.01529997 0.006825349 -0.9998597 -0.01529997 0.006825349 -0.9998597 -0.01529997 0.006825349 -0.9998597 -0.01529997 0.006825349 -0.9998597 -0.01529997 0.006825349 -0.9998597 0.2257818 0.2709927 0.9357273 0.1873253 0.2325019 0.9543857 0.1747105 0.2197118 0.9597932 0.146473 0.1913098 0.9705391 0.1242 0.1687006 0.9778111 0.1070161 0.151246 0.9826862 0.07787916 0.1214272 0.9895404 0.06533063 0.1086122 0.9919351 0.007403842 0.04890612 0.9987759 0.004523842 0.04595017 0.9989335 -0.01529997 0.02539091 0.9995605 -0.01529997 0.02539091 0.9995605 -0.01529997 0.02539091 0.9995605 -0.01529997 0.02539091 0.9995605 -0.01529997 0.02539091 0.9995605 -0.01529997 0.02539091 0.9995605 -0.01529997 0.02539091 0.9995605 -0.01529997 0.02539091 0.9995605 -0.04296093 0.001336181 0.9990759 -0.05271185 -0.00703286 0.998585 -0.09217735 -0.04133895 0.9948841</float_array>
          <technique_common>
            <accessor count="380" source="#normals-array-array" stride="3">
              <param type="float" name="X"/>
              <param type="float" name="Y"/>
              <param type="float" name="Z"/>
            </accessor>
          </technique_common>
        </source>
        <vertices id="verts-array-vertices">
          <input semantic="POSITION" source="#verts-array"/>
        </vertices>
        <triangles count="376" material="material0">
          <input offset="0" semantic="VERTEX" source="#verts-array-vertices"/>
          <input offset="1" semantic="NORMAL" source="#normals-array"/>
          <p>0 0 1 1 2 2 3 3 4 4 2 2 5 5 6 6 7 7 8 8 9 9 7 7 10 10 7 7 9 9 7 7 10 10 11 11 11 11 12 12 7 7 13 13 7 7 12 12 7 7 13 13 14 14 14 14 15 15 7 7 16 16 7 7 15 15 7 7 16 16 5 5 17 17 18 18 2 2 2 2 19 19 20 20 21 21 22 22 2 2 23 23 2 2 22 22 24 24 25 25 26 26 27 27 28 28 29 29 8 8 7 7 2 2 30 30 2 2 7 7 2 2 30 30 17 17 20 20 31 31 2 2 32 32 2 2 31 31 2 2 32 32 33 33 33 33 34 34 2 2 35 35 2 2 34 34 2 2 35 35 3 3 36 36 2 2 37 37 38 38 37 37 2 2 36 36 39 39 2 2 40 40 2 2 39 39 2 2 40 40 21 21 41 41 42 42 43 43 6 6 44 44 45 45 4 4 46 46 2 2 47 47 2 2 46 46 2 2 47 47 38 38 44 44 6 6 29 29 48 48 29 29 6 6 29 29 48 48 27 27 49 49 50 50 51 51 52 52 51 51 50 50 28 28 53 53 29 29 50 50 29 29 53 53 29 29 50 50 54 54 49 49 54 54 50 50 45 45 55 55 6 6 56 56 6 6 55 55 6 6 56 56 57 57 57 57 58 58 6 6 59 59 6 6 58 58 6 6 59 59 7 7 18 18 60 60 2 2 61 61 2 2 60 60 2 2 61 61 62 62 23 23 63 63 2 2 64 64 2 2 63 63 2 2 64 64 65 65 42 42 41 41 26 26 66 66 26 26 41 41 26 26 66 66 67 67 67 67 68 68 26 26 69 69 26 26 68 68 26 26 69 69 24 24 70 70 71 71 72 72 26 26 72 72 71 71 72 72 26 26 73 73 74 74 73 73 26 26 75 75 76 76 2 2 41 41 2 2 76 76 2 2 41 41 0 0 43 43 0 0 41 41 77 77 78 78 50 50 79 79 50 50 78 78 50 50 79 79 52 52 79 79 80 80 52 52 81 81 52 52 80 80 52 52 81 81 82 82 62 62 83 83 2 2 84 84 2 2 83 83 2 2 84 84 19 19 65 65 85 85 2 2 86 86 2 2 85 85 2 2 86 86 75 75 25 25 87 87 26 26 88 88 26 26 87 87 26 26 88 88 74 74 82 82 89 89 52 52 90 90 52 52 89 89 52 52 90 90 91 91 92 92 93 93 94 94 95 95 94 94 93 93 94 94 95 95 96 96 94 94 97 97 92 92 98 98 92 92 97 97 92 92 98 98 99 99 100 100 101 101 102 102 103 103 104 104 94 94 105 105 94 94 104 104 106 106 107 107 108 108 99 99 109 109 92 92 110 110 92 92 109 109 92 92 110 110 111 111 111 111 112 112 92 92 113 113 92 92 112 112 92 92 113 113 114 114 115 115 116 116 102 102 117 117 118 118 108 108 119 119 108 108 118 118 100 100 102 102 113 113 120 120 113 113 102 102 113 113 120 120 121 121 122 122 123 123 113 113 96 96 124 124 94 94 125 125 94 94 124 124 94 94 125 125 126 126 126 126 127 127 94 94 128 128 94 94 127 127 94 94 128 128 103 103 107 107 129 129 108 108 130 130 108 108 129 129 108 108 130 130 131 131 119 119 132 132 108 108 133 133 108 108 132 132 108 108 133 133 134 134 102 102 135 135 136 136 113 113 137 137 138 138 123 123 139 139 113 113 140 140 113 113 139 139 113 113 140 140 114 114 105 105 141 141 94 94 142 142 94 94 141 141 94 94 142 142 143 143 144 144 145 145 146 146 108 108 147 147 148 148 101 101 149 149 102 102 150 150 102 102 149 149 102 102 150 150 135 135 116 116 151 151 102 102 152 152 102 102 151 151 102 102 152 152 153 153 121 121 154 154 113 113 155 155 113 113 154 154 113 113 155 155 137 137 134 134 156 156 108 108 94 94 108 108 156 156 108 108 94 94 157 157 143 143 157 157 94 94 148 148 158 158 108 108 159 159 108 108 158 158 108 108 159 159 160 160 160 160 161 161 108 108 162 162 108 108 161 161 108 108 162 162 106 106 153 153 163 163 102 102 164 164 102 102 163 163 102 102 164 164 165 165 166 166 147 147 146 146 108 108 146 146 147 147 146 146 108 108 144 144 167 167 144 144 108 108 168 168 102 102 169 169 170 170 169 169 102 102 138 138 171 171 113 113 172 172 113 113 171 171 113 113 172 172 173 173 131 131 174 174 108 108 175 175 108 108 174 174 108 108 175 175 176 176 136 136 177 177 102 102 178 178 102 102 177 177 102 102 178 178 179 179 165 165 180 180 102 102 181 181 102 102 180 180 102 102 181 181 170 170 182 182 170 170 181 181 170 170 182 182 183 183 173 173 184 184 113 113 185 185 113 113 184 184 113 113 185 185 122 122 176 176 186 186 108 108 187 187 108 108 186 186 108 108 187 187 117 117 179 179 188 188 102 102 189 189 102 102 188 188 102 102 189 189 115 115 190 190 191 191 192 192 193 193 194 194 195 195 195 195 196 196 193 193 197 197 193 193 196 196 193 193 197 197 198 198 199 199 200 200 201 201 199 199 201 201 202 202 203 203 202 202 201 201 202 202 203 203 204 204 192 192 191 191 205 205 206 206 205 205 191 191 205 205 206 206 207 207 206 206 208 208 207 207 209 209 207 207 208 208 207 207 209 209 210 210 211 211 210 210 209 209 210 210 211 211 199 199 212 212 199 199 211 211 199 199 212 212 200 200 204 204 203 203 213 213 214 214 213 213 203 203 213 213 214 214 198 198 215 215 198 198 214 214 198 198 215 215 193 193 216 216 217 217 218 218 219 219 218 218 217 217 218 218 219 219 220 220 192 192 221 221 190 190 222 222 190 190 221 221 190 190 222 222 216 216 223 223 216 216 222 222 216 216 223 223 217 217 224 224 225 225 226 226 227 227 226 226 225 225 226 226 227 227 228 228 227 227 229 229 228 228 230 230 228 228 229 229 228 228 230 230 231 231 232 232 231 231 230 230 231 231 232 232 233 233 234 234 233 233 232 232 233 233 234 234 235 235 236 236 237 237 238 238 239 239 238 238 237 237 238 238 239 239 240 240 241 241 240 240 239 239 241 241 242 242 240 240 243 243 240 240 242 242 240 240 243 243 244 244 245 245 244 244 243 243 244 244 245 245 246 246 247 247 246 246 245 245 246 246 247 247 224 224 248 248 224 224 247 247 224 224 248 248 225 225 249 249 250 250 251 251 251 251 250 250 252 252 253 253 252 252 250 250 252 252 253 253 254 254 254 254 253 253 255 255 256 256 255 255 253 253 255 255 256 256 257 257 258 258 257 257 256 256 257 257 258 258 259 259 260 260 259 259 258 258 259 259 260 260 236 236 261 261 236 236 260 260 236 236 261 261 237 237 234 234 262 262 235 235 263 263 235 235 262 262 235 235 263 263 264 264 265 265 264 264 263 263 264 264 265 265 266 266 267 267 266 266 265 265 266 266 267 267 268 268 269 269 268 268 267 267 268 268 269 269 219 219 270 270 219 219 269 269 219 219 270 270 220 220 271 271 272 272 273 273 274 274 275 275 276 276 277 277 276 276 275 275 276 276 277 277 278 278 279 279 278 278 277 277 278 278 279 279 280 280 281 281 280 280 279 279 280 280 281 281 282 282 272 272 283 283 273 273 284 284 273 273 283 283 273 273 284 284 285 285 286 286 285 285 284 284 285 285 286 286 287 287 288 288 287 287 286 286 287 287 288 288 289 289 290 290 289 289 288 288 289 289 290 290 274 274 291 291 274 274 290 290 274 274 291 291 275 275 292 292 293 293 294 294 282 282 294 294 293 293 294 294 282 282 295 295 281 281 295 295 282 282 296 296 297 297 298 298 299 299 300 300 301 301 302 302 301 301 300 300 301 301 302 302 303 303 304 304 303 303 302 302 303 303 304 304 305 305 306 306 305 305 304 304 305 305 306 306 307 307 297 297 308 308 298 298 309 309 298 298 308 308 298 298 309 309 310 310 311 311 310 310 309 309 310 310 311 311 312 312 313 313 312 312 311 311 312 312 313 313 314 314 315 315 314 314 313 313 314 314 315 315 299 299 316 316 299 299 315 315 299 299 316 316 300 300 317 317 318 318 319 319 307 307 319 319 318 318 319 319 307 307 320 320 306 306 320 320 307 307 298 298 321 321 296 296 322 322 296 296 321 321 296 296 322 322 323 323 324 324 323 323 322 322 323 323 324 324 325 325 326 326 325 325 324 324 325 325 326 326 327 327 328 328 327 327 326 326 327 327 328 328 329 329 330 330 329 329 328 328 329 329 330 330 331 331 332 332 331 331 330 330 331 331 332 332 333 333 334 334 333 333 332 332 333 333 334 334 335 335 336 336 335 335 334 334 335 335 336 336 337 337 338 338 337 337 336 336 337 337 338 338 339 339 340 340 339 339 338 338 339 339 340 340 292 292 341 341 292 292 340 340 292 292 341 341 293 293 273 273 342 342 271 271 343 343 271 271 342 342 271 271 343 343 344 344 345 345 344 344 343 343 344 344 345 345 346 346 347 347 346 346 345 345 346 346 347 347 348 348 349 349 348 348 347 347 348 348 349 349 350 350 351 351 350 350 349 349 350 350 351 351 352 352 353 353 352 352 351 351 352 352 353 353 354 354 355 355 354 354 353 353 354 354 355 355 356 356 357 357 356 356 355 355 356 356 357 357 251 251 358 358 251 251 357 357 251 251 358 358 249 249 194 194 359 359 195 195 360 360 195 195 359 359 195 195 360 360 361 361 362 362 361 361 360 360 361 361 362 362 363 363 364 364 363 363 362 362 363 363 364 364 365 365 366 366 365 365 364 364 365 365 366 366 367 367 368 368 367 367 366 366 367 367 368 368 369 369 370 370 369 369 368 368 369 369 370 370 371 371 372 372 371 371 370 370 371 371 372 372 373 373 374 374 373 373 372 372 373 373 374 374 375 375 376 376 375 375 374 374 375 375 376 376 377 377 378 378 377 377 376 376 377 377 378 378 317 317 379 379 317 317 378 378 317 317 379 379 318 318</p>
        </triangles>
      </mesh>
    </geometry>
  </library_geometries>
  <library_materials>
    <material id="0ab33900cbcc4ca186b7526a43dd59ea" name="defaultmaterial">
      <instance_effect url="#82d2d99dada647f3b8617fc62fe9c371"/>
    </material>
  </library_materials>
  <library_visual_scenes>
    <visual_scene id="scene">
      <node id="node0" name="node0">
        <instance_geometry url="#5955a2bd18dd441480afff32b9ead36a">
          <bind_material>
            <technique_common>
              <instance_material symbol="material0" target="#0ab33900cbcc4ca186b7526a43dd59ea"/>
            </technique_common>
          </bind_material>
        </instance_geometry>
      </node>
    </visual_scene>
  </library_visual_scenes>
  <scene>
    <instance_visual_scene url="#scene"/>
  </scene>
</COLLADA>
