<COLLADA xmlns="http://www.collada.org/2005/11/COLLADASchema" version="1.4.1">
  <asset>
    <created>2026-09-27T18:30:24.991061</created>
    <modified>2026-09-27T18:30:24.991061</modified>
    <up_axis>Y_UP</up_axis>
  </asset>
  <library_effects>
    <effect id="e36a861f3dd3461f81007b38939d0f1b" name="e36a861f3dd3461f81007b38939d0f1b">
      <profile_COMMON>
        <technique sid="common">
          <phong>
            <emission>
              <color>0.0 0.0 0.0 1.0</color>
            </emission>
            <ambient>
              <color>0.0 0.0 0.0 1.0</color>
            </ambient>
            <diffuse>
              <color>0.8941176470588236 0.8941176470588236 0.8941176470588236 1.0</color>
            </diffuse>
            <specular>
              <color>0.0 0.0 0.0 1.0</color>
            </specular>
            <shininess>
              <float>0.0</float>
            </shininess>
            <reflective>
              <color>0.0 0.0 0.0 1.0</color>
            </reflective>
            <reflectivity>
              <float>0.0</float>
            </reflectivity>
            <transparent>
              <color>0.0 0.0 0.0 1.0</color>
            </transparent>
            <transparency>
              <float>1.0</float>
            </transparency>
          </phong>
        </technique>
        <extra>
          <technique profile="GOOGLEEARTH">
            <double_sided>0</double_sided>
          </technique>
        </extra>
      </profile_COMMON>
    </effect>
  </library_effects>
  <library_geometries>
    <geometry id="34c57506fa3c493da872c0844e21fb0c" name="695ad8f97b70431796ccfe88cad0d19a">
      <mesh>
        <source id="verts-array">
          <float_array count="444" id="verts-array-array">0.01244668 0.1340572 0.03527287 0.01244668 0.1333794 -0.03772399 -0.005547352 0.1345206 0.03526856 -0.005547352 0.1338428 -0.03772829 -0.00555437 0.1342673 0.0373416 0.01243966 0.1338039 0.03734591 -0.005574944 0.1334863 0.03927834 0.01241909 0.133023 0.03928264 -0.005607675 0.1322308 0.04094697 0.01238636 0.1317674 0.04095127 -0.005650327 0.1305864 0.04223359 0.01234371 0.130123 0.0422379 -0.0057 0.128665 0.04305067 0.01229403 0.1282017 0.04305497 -0.005753302 0.1265979 0.04334247 0.01224073 0.1261345 0.04334678 0.01224073 0.1253081 -0.04564939 -0.005753302 0.1257715 -0.04565369 -0.0057 0.1278437 -0.04540032 0.01229403 0.1273804 -0.04539602 -0.005650327 0.1297799 -0.04461906 0.01234371 0.1293166 -0.04461476 -0.005607675 0.1314479 -0.0433632 0.01238636 0.1309846 -0.04335889 -0.005574944 0.1327342 -0.04171817 0.01241909 0.1322709 -0.04171387 -0.00555437 0.133551 -0.03979627 0.01243966 0.1330877 -0.03979197 0.0112038 0.08587047 0.04372065 -0.006790238 0.08633384 0.04371634 0.01051081 0.05896179 0.04397051 -0.007483228 0.05942516 0.0439662 -0.007524383 0.05782561 0.04381965 0.01046965 0.05736224 0.04382395 -0.007563879 0.05628758 0.04335641 0.01043016 0.05582421 0.04336071 -0.00760012 0.05487313 0.04259501 0.01039391 0.05440976 0.04259931 -0.007631647 0.05363931 0.04156622 0.01036239 0.05317594 0.04157053 0.009790904 0.03077109 0.01870267 -0.00820313 0.03123446 0.01869837 -0.008214849 0.03077373 0.01808912 0.009779185 0.03031037 0.01809342 -0.008222199 0.03048176 0.0173831 0.009771836 0.03001839 0.0173874 -0.008224704 0.03037746 0.01662634 0.009769331 0.02991409 0.01663064 0.009769331 0.02960012 -0.0171832 -0.008224704 0.03006348 -0.01718751 -0.008222196 0.03015381 -0.01794678 0.009771838 0.02969044 -0.01794248 -0.008214833 0.03043311 -0.0186585 0.009779201 0.02996975 -0.0186542 -0.008203097 0.03088314 -0.01927651 0.009790938 0.03041978 -0.0192722 0.0103624 0.05239562 -0.04252225 -0.007631633 0.05285899 -0.04252656 -0.007600117 0.05407312 -0.04357658 0.01039392 0.05360976 -0.04357227 -0.007563895 0.05547241 -0.044363 0.01043014 0.05500904 -0.0443587 -0.007524428 0.05700048 -0.04485401 0.01046961 0.05653712 -0.04484971 -0.007483305 0.05859581 -0.04502993 0.01051073 0.05813244 -0.04502563 0.01224073 0.1261345 0.04334678 0.0112038 0.08587047 0.04372065 0.0112038 0.0857312 0.02872129 0.01234371 0.130123 0.0422379 0.01244668 0.1340572 0.03527287 0.01238636 0.1317674 0.04095127 0.01243966 0.1338039 0.03734591 0.01241909 0.133023 0.03928264 0.01229403 0.1282017 0.04305497 0.01244668 0.1333794 -0.03772399 0.01243966 0.1330877 -0.03979197 0.009790938 0.03041978 -0.0192722 0.0103624 0.05239562 -0.04252225 0.01051081 0.05882252 0.02897115 0.01039392 0.05360976 -0.04357227 0.01043014 0.05500904 -0.0443587 0.01229403 0.1273804 -0.04539602 0.01234371 0.1293166 -0.04461476 0.01051081 0.05896179 0.04397051 0.01046965 0.05736224 0.04382395 0.01043016 0.05582421 0.04336071 0.01039391 0.05440976 0.04259931 0.01036239 0.05317594 0.04157053 0.009790904 0.03077109 0.01870267 0.009779185 0.03031037 0.01809342 0.009769331 0.02960012 -0.0171832 0.009771838 0.02969044 -0.01794248 0.009779201 0.02996975 -0.0186542 0.01046961 0.05653712 -0.04484971 0.01051073 0.05813244 -0.04502563 0.01224073 0.1253081 -0.04564939 0.009771836 0.03001839 0.0173874 0.009769331 0.02991409 0.01663064 0.01238636 0.1309846 -0.04335889 0.01241909 0.1322709 -0.04171387 -0.007524383 0.05782561 0.04381965 -0.007483228 0.05942516 0.0439662 -0.007483228 0.05928588 0.02896685 -0.00820313 0.03123446 0.01869837 -0.007631647 0.05363931 0.04156622 -0.00760012 0.05487313 0.04259501 -0.007563879 0.05628758 0.04335641 -0.007483305 0.05859581 -0.04502993 -0.005753302 0.1257715 -0.04565369 -0.006790238 0.08619456 0.02871699 -0.0057 0.1278437 -0.04540032 -0.008224704 0.03037746 0.01662634 -0.008222199 0.03048176 0.0173831 -0.008214849 0.03077373 0.01808912 -0.007524428 0.05700048 -0.04485401 -0.007563895 0.05547241 -0.044363 -0.007600117 0.05407312 -0.04357658 -0.007631633 0.05285899 -0.04252656 -0.008203097 0.03088314 -0.01927651 -0.008214833 0.03043311 -0.0186585 -0.005574944 0.1334863 0.03927834 -0.00555437 0.1342673 0.0373416 -0.005607675 0.1322308 0.04094697 -0.005547352 0.1345206 0.03526856 -0.005650327 0.1305864 0.04223359 -0.005547352 0.1338428 -0.03772829 -0.00555437 0.133551 -0.03979627 -0.005574944 0.1327342 -0.04171817 -0.008222196 0.03015381 -0.01794678 -0.008224704 0.03006348 -0.01718751 -0.006790238 0.08633384 0.04371634 -0.005753302 0.1265979 0.04334247 -0.0057 0.128665 0.04305067 -0.005607675 0.1314479 -0.0433632 -0.005650327 0.1297799 -0.04461906 0.01051081 0.05882252 0.02897115 -0.007483228 0.05928588 0.02896685 0.01051081 0.05896179 0.04397051 -0.007483228 0.05942516 0.0439662 -0.006790238 0.08619456 0.02871699 0.0112038 0.0857312 0.02872129 -0.006790238 0.08633384 0.04371634 0.0112038 0.08587047 0.04372065 0.01051081 0.05882252 0.02897115 0.0112038 0.0857312 0.02872129 -0.007483228 0.05928588 0.02896685 -0.006790238 0.08619456 0.02871699</float_array>
          <technique_common>
            <accessor count="148" source="#verts-array-array" stride="3">
              <param type="float" name="X"/>
              <param type="float" name="Y"/>
              <param type="float" name="Z"/>
            </accessor>
          </technique_common>
        </source>
        <source id="normals-array">
          <float_array count="444" id="normals-array-array">0.02568865 0.9980925 0.05613827 0.02568865 0.9968779 -0.07466251 0.02568865 0.9980925 0.05613827 0.02568865 0.9968779 -0.07466251 0.02486654 0.9679663 0.2498458 0.02486654 0.9679663 0.2498458 0.02229467 0.8703403 0.4919458 0.02229467 0.8703403 0.4919458 0.01820351 0.7134044 0.7005161 0.01820351 0.7134044 0.7005161 0.01287173 0.5078479 0.8613506 0.01287173 0.5078479 0.8613506 0.006662919 0.2676885 0.9634825 0.006662919 0.2676885 0.9634825 0.001683805 0.07464702 0.9972086 0.001683805 0.07464702 0.9972086 0.001683805 0.05611664 -0.9984228 0.001683805 0.05611664 -0.9984228 0.006662919 0.2497512 -0.9682871 0.006662919 0.2497512 -0.9682871 0.01287173 0.4917656 -0.8706325 0.01287173 0.4917656 -0.8706325 0.01820351 0.7002733 -0.7136428 0.01820351 0.7002733 -0.7136428 0.02229467 0.8610552 -0.5080226 0.02229467 0.8610552 -0.5080226 0.02486654 0.9631599 -0.2677772 0.02486654 0.9631599 -0.2677772 1.904336e-12 0.009285071 0.9999569 1.904334e-12 0.009285071 0.9999569 -0.00258595 -0.09117381 0.9958316 -0.00258595 -0.09117381 0.9958316 -0.005144251 -0.1906525 0.9816441 -0.005144251 -0.1906525 0.9816441 -0.01008079 -0.3828916 0.9237383 -0.01008079 -0.3828916 0.9237383 -0.01461146 -0.5597157 0.8285559 -0.01461146 -0.5597157 0.8285559 -0.01763154 -0.6778637 0.7349762 -0.01763154 -0.6778637 0.7349762 -0.01965342 -0.7571414 0.6529553 -0.01965342 -0.7571414 0.6529553 -0.02245953 -0.8675611 0.4968232 -0.02245953 -0.8675611 0.4968232 -0.0249091 -0.9648703 0.2615431 -0.0249091 -0.9648703 0.2615431 -0.02569129 -0.9969955 0.07307492 -0.02569129 -0.9969955 0.07307492 -0.02569128 -0.9981802 -0.05455532 -0.02569128 -0.9981802 -0.05455532 -0.02490772 -0.969509 -0.2437867 -0.02490772 -0.969509 -0.2437867 -0.02245378 -0.8764179 -0.4810276 -0.02245378 -0.8764179 -0.4810276 -0.01964401 -0.7687744 -0.6392183 -0.01964401 -0.7687744 -0.6392183 -0.01762038 -0.6909654 -0.722673 -0.01762038 -0.6909654 -0.722673 -0.01460171 -0.5746287 -0.8182839 -0.01460171 -0.5746287 -0.8182839 -0.01007398 -0.3997153 -0.916584 -0.01007398 -0.3997153 -0.916584 -0.005140178 -0.2086902 -0.9779683 -0.005140178 -0.2086902 -0.9779683 -0.001293212 -0.05948853 -0.9982282 -0.001293212 -0.05948853 -0.9982282 0.9996686 -0.02574266 0.0002390327 0.9996686 -0.02574266 0.0002390327 0.9996686 -0.02574266 0.0002390327 0.9996686 -0.02574266 0.0002390327 0.9996686 -0.02574266 0.0002390327 0.9996686 -0.02574266 0.0002390327 0.9996686 -0.02574266 0.0002390327 0.9996686 -0.02574266 0.0002390327 0.9996686 -0.02574266 0.0002390327 0.9996686 -0.02574266 0.0002390327 0.9996686 -0.02574266 0.0002390327 0.9996686 -0.02574266 0.0002390327 0.9996686 -0.02574266 0.0002390327 0.9996686 -0.02574266 0.0002390327 0.9996686 -0.02574266 0.0002390327 0.9996686 -0.02574266 0.0002390327 0.9996686 -0.02574266 0.0002390327 0.9996686 -0.02574266 0.0002390327 0.9996686 -0.02574266 0.0002390327 0.9996686 -0.02574266 0.0002390327 0.9996686 -0.02574266 0.0002390327 0.9996686 -0.02574266 0.0002390327 0.9996686 -0.02574266 0.0002390327 0.9996686 -0.02574266 0.0002390327 0.9996686 -0.02574266 0.0002390327 0.9996686 -0.02574266 0.0002390327 0.9996686 -0.02574266 0.0002390327 0.9996686 -0.02574266 0.0002390327 0.9996686 -0.02574266 0.0002390327 0.9996686 -0.02574266 0.0002390327 0.9996686 -0.02574266 0.0002390327 0.9996686 -0.02574266 0.0002390327 0.9996686 -0.02574266 0.0002390327 0.9996686 -0.02574266 0.0002390327 0.9996686 -0.02574266 0.0002390327 -0.9996686 0.02574266 -0.0002390327 -0.9996686 0.02574266 -0.0002390327 -0.9996686 0.02574266 -0.0002390327 -0.9996686 0.02574266 -0.0002390327 -0.9996686 0.02574266 -0.0002390327 -0.9996686 0.02574266 -0.0002390327 -0.9996686 0.02574266 -0.0002390327 -0.9996686 0.02574266 -0.0002390327 -0.9996686 0.02574266 -0.0002390327 -0.9996686 0.02574266 -0.0002390327 -0.9996686 0.02574266 -0.0002390327 -0.9996686 0.02574266 -0.0002390327 -0.9996686 0.02574266 -0.0002390327 -0.9996686 0.02574266 -0.0002390327 -0.9996686 0.02574266 -0.0002390327 -0.9996686 0.02574266 -0.0002390327 -0.9996686 0.02574266 -0.0002390327 -0.9996686 0.02574266 -0.0002390327 -0.9996686 0.02574266 -0.0002390327 -0.9996686 0.02574266 -0.0002390327 -0.9996686 0.02574266 -0.0002390327 -0.9996686 0.02574266 -0.0002390327 -0.9996686 0.02574266 -0.0002390327 -0.9996686 0.02574266 -0.0002390327 -0.9996686 0.02574266 -0.0002390327 -0.9996686 0.02574266 -0.0002390327 -0.9996686 0.02574266 -0.0002390327 -0.9996686 0.02574266 -0.0002390327 -0.9996686 0.02574266 -0.0002390327 -0.9996686 0.02574266 -0.0002390327 -0.9996686 0.02574266 -0.0002390327 -0.9996686 0.02574266 -0.0002390327 -0.9996686 0.02574266 -0.0002390327 -0.9996686 0.02574266 -0.0002390327 -0.9996686 0.02574266 -0.0002390327 0.02574377 0.9996255 -0.009281994 0.02574377 0.9996255 -0.009281994 0.02574377 0.9996255 -0.009281994 0.02574377 0.9996255 -0.009281994 -0.02574377 -0.9996255 0.009281994 -0.02574377 -0.9996255 0.009281994 -0.02574377 -0.9996255 0.009281994 -0.02574377 -0.9996255 0.009281994 1.904337e-12 0.009285071 0.9999569 1.904337e-12 0.009285071 0.9999569 1.904337e-12 0.009285071 0.9999569 1.904337e-12 0.009285071 0.9999569</float_array>
          <technique_common>
            <accessor count="148" source="#normals-array-array" stride="3">
              <param type="float" name="X"/>
              <param type="float" name="Y"/>
              <param type="float" name="Z"/>
            </accessor>
          </technique_common>
        </source>
        <vertices id="verts-array-vertices">
          <input semantic="POSITION" source="#verts-array"/>
        </vertices>
        <triangles count="136" material="material0">
          <input offset="0" semantic="VERTEX" source="#verts-array-vertices"/>
          <input offset="1" semantic="NORMAL" source="#normals-array"/>
          <p>0 0 1 1 2 2 3 3 2 2 1 1 0 0 2 2 4 4 0 0 4 4 5 5 6 6 5 5 4 4 5 5 6 6 7 7 8 8 7 7 6 6 7 7 8 8 9 9 10 10 9 9 8 8 9 9 10 10 11 11 12 12 11 11 10 10 11 11 12 12 13 13 14 14 13 13 12 12 13 13 14 14 15 15 16 16 17 17 18 18 16 16 18 18 19 19 20 20 19 19 18 18 19 19 20 20 21 21 22 22 21 21 20 20 21 21 22 22 23 23 24 24 23 23 22 22 23 23 24 24 25 25 26 26 25 25 24 24 25 25 26 26 27 27 3 3 27 27 26 26 27 27 3 3 1 1 28 28 15 15 29 29 14 14 29 29 15 15 30 30 31 31 32 32 30 30 32 32 33 33 34 34 33 33 32 32 33 33 34 34 35 35 36 36 35 35 34 34 35 35 36 36 37 37 38 38 37 37 36 36 37 37 38 38 39 39 40 40 39 39 41 41 38 38 41 41 39 39 40 40 41 41 42 42 40 40 42 42 43 43 44 44 43 43 42 42 43 43 44 44 45 45 46 46 45 45 44 44 45 45 46 46 47 47 48 48 47 47 49 49 46 46 49 49 47 47 48 48 49 49 50 50 48 48 50 50 51 51 52 52 51 51 50 50 51 51 52 52 53 53 54 54 53 53 52 52 53 53 54 54 55 55 56 56 55 55 57 57 54 54 57 57 55 55 56 56 57 57 58 58 56 56 58 58 59 59 60 60 59 59 58 58 59 59 60 60 61 61 62 62 61 61 60 60 61 61 62 62 63 63 64 64 63 63 62 62 63 63 64 64 65 65 16 16 65 65 17 17 64 64 17 17 65 65 66 66 67 67 68 68 69 69 70 70 71 71 72 72 71 71 70 70 71 71 72 72 73 73 69 69 74 74 70 70 66 66 70 70 74 74 70 70 66 66 75 75 68 68 75 75 66 66 75 75 68 68 76 76 77 77 78 78 79 79 80 80 79 79 78 78 79 79 80 80 81 81 82 82 83 83 68 68 84 84 85 85 79 79 86 86 79 79 85 85 79 79 86 86 87 87 87 87 88 88 79 79 89 89 79 79 88 88 79 79 89 89 90 90 91 91 92 92 79 79 93 93 79 79 92 92 79 79 93 93 77 77 81 81 94 94 79 79 95 95 79 79 94 94 79 79 95 95 68 68 96 96 68 68 95 95 68 68 96 96 82 82 90 90 97 97 79 79 98 98 79 79 97 97 79 79 98 98 91 91 83 83 99 99 68 68 100 100 68 68 99 99 68 68 100 100 76 76 101 101 102 102 103 103 104 104 105 105 103 103 105 105 106 106 103 103 107 107 103 103 106 106 103 103 107 107 101 101 108 108 103 103 109 109 110 110 109 109 103 103 109 109 110 110 111 111 112 112 113 113 103 103 114 114 103 103 113 113 103 103 114 114 104 104 108 108 115 115 103 103 116 116 103 103 115 115 103 103 116 116 117 117 117 117 118 118 103 103 119 119 103 103 118 118 103 103 119 119 120 120 121 121 122 122 123 123 124 124 123 123 122 122 123 123 124 124 125 125 126 126 127 127 110 110 128 128 110 110 127 127 120 120 129 129 103 103 130 130 103 103 129 129 103 103 130 130 112 112 110 110 131 131 126 126 132 132 126 126 131 131 126 126 132 132 124 124 133 133 124 124 132 132 124 124 133 133 125 125 128 128 134 134 110 110 135 135 110 110 134 134 110 110 135 135 111 111 136 136 137 137 138 138 139 139 138 138 137 137 140 140 141 141 142 142 143 143 142 142 141 141 144 144 145 145 146 146 147 147 146 146 145 145</p>
        </triangles>
      </mesh>
    </geometry>
  </library_geometries>
  <library_materials>
    <material id="2fbd65ffae2f4076a9852a3a679bc4f6" name="defaultmaterial">
      <instance_effect url="#e36a861f3dd3461f81007b38939d0f1b"/>
    </material>
  </library_materials>
  <library_visual_scenes>
    <visual_scene id="scene">
      <node id="node0" name="node0">
        <instance_geometry url="#34c57506fa3c493da872c0844e21fb0c">
          <bind_material>
            <technique_common>
              <instance_material symbol="material0" target="#2fbd65ffae2f4076a9852a3a679bc4f6"/>
            </technique_common>
          </bind_material>
        </instance_geometry>
      </node>
    </visual_scene>
  </library_visual_scenes>
  <scene>
    <instance_visual_scene url="#scene"/>
  </scene>
</COLLADA>
