<COLLADA xmlns="http://www.collada.org/2005/11/COLLADASchema" version="1.4.1">
  <asset>
    <created>2026-09-27T19:05:54.508811</created>
    <modified>2026-09-27T19:05:54.508811</modified>
    <up_axis>Y_UP</up_axis>
  </asset>
  <library_effects>
    <effect id="4ca9cb0433d84f65a4ef5afd9aed0619" name="4ca9cb0433d84f65a4ef5afd9aed0619">
      <profile_COMMON>
        <technique sid="common">
          <phong>
            <emission>
              <color>0.0 0.0 0.0 1.0</color>
            </emission>
            <ambient>
              <color>0.0 0.0 0.0 1.0</color>
            </ambient>
            <diffuse>
              <color>0.8941176470588236 0.8941176470588236 0.8941176470588236 1.0</color>
            </diffuse>
            <specular>
              <color>0.0 0.0 0.0 1.0</color>
            </specular>
            <shininess>
              <float>0.0</float>
            </shininess>
            <reflective>
              <color>0.0 0.0 0.0 1.0</color>
            </reflective>
            <reflectivity>
              <float>0.0</float>
            </reflectivity>
            <transparent>
              <color>0.0 0.0 0.0 1.0</color>
            </transparent>
            <transparency>
              <float>1.0</float>
            </transparency>
          </phong>
        </technique>
        <extra>
          <technique profile="GOOGLEEARTH">
            <double_sided>0</double_sided>
          </technique>
        </extra>
      </profile_COMMON>
    </effect>
  </library_effects>
  <library_geometries>
    <geometry id="a5c8f9e8e46a4f67bca762abb3c24812" name="d8f1b6bd047345f9b9ce6f7d3a9d2ec4">
      <mesh>
        <source id="verts-array">
          <float_array count="1011" id="verts-array-array">-0.008719957 0.01993897 -0.005701043 -0.008805458 0.01985411 -0.006094202 -0.02331087 0.03435684 -0.005417402 -0.009128066 0.01954087 -0.006827745 -0.0236876 0.03399105 -0.006274722 -0.008940881 0.01972195 -0.006474271 -0.02348667 0.03418539 -0.005899271 -0.02344593 0.03422496 -0.005805254 -0.009360808 0.01931698 -0.007132379 -0.009624381 0.01906442 -0.007370565 -0.02425148 0.03344954 -0.006912202 -0.02399758 0.03369287 -0.006678841 -0.02391454 0.03377261 -0.006585727 -0.02375955 0.0339217 -0.006383773 -0.02320185 0.03446513 -0.004906685 -0.02319423 0.03447288 -0.004851275 -0.008681347 0.01997943 -0.005293341 -0.02315988 0.03451044 -0.004320621 -0.008679628 0.01998508 -0.004859965 -0.02315988 0.03451317 -0.004026823 -0.008679628 0.01999315 -0.003991272 -0.02315988 0.03452014 -0.003275706 -0.008679628 0.02000939 -0.002241728 -0.01811697 0.01099627 -0.007546809 -0.0184026 0.01072609 -0.007426375 -0.03193196 0.02615325 -0.007034901 -0.01893656 0.01022309 -0.006976755 -0.03255602 0.02556538 -0.006509839 -0.01867906 0.01046526 -0.007237175 -0.03228249 0.02582259 -0.00678936 -0.03221406 0.02588706 -0.006846151 -0.01915894 0.01001487 -0.006653818 -0.01933334 0.00985261 -0.006288786 -0.03302187 0.02513016 -0.005728085 -0.03285103 0.02528916 -0.006079746 -0.03278298 0.02535273 -0.006194871 -0.03263556 0.02549076 -0.006409912 -0.03156094 0.02650423 -0.007188516 -0.03152071 0.02654234 -0.00719938 -0.0178211 0.01127678 -0.007602666 -0.03113571 0.02690756 -0.007250154 -0.01750684 0.01157522 -0.007607807 -0.03092268 0.02710988 -0.007252032 -0.01687695 0.01217346 -0.007613362 -0.03037804 0.02762716 -0.007256835 -0.01560834 0.01337832 -0.00762455 -0.02936034 0.02859372 -0.00726581 -0.01049232 0.01823725 -0.007669667 -0.02533511 0.03241667 -0.007301308 -0.01019118 0.01852359 -0.007636235 -0.02497455 0.03275949 -0.00726298 -0.009903731 0.01879754 -0.007537134 -0.02461074 0.03310622 -0.007136474 -0.02434561 0.03335949 -0.006981699 -0.01951544 0.009788411 0.005425005 -0.01942994 0.009873273 0.005818164 -0.03315995 0.02509737 0.004865336 -0.01910733 0.01018651 0.006551707 -0.03278322 0.02546317 0.005722657 -0.01929452 0.01000543 0.006198234 -0.03298415 0.02526883 0.005347205 -0.03302489 0.02522926 0.005253189 -0.01887459 0.0104104 0.006856342 -0.01861102 0.01066296 0.007094527 -0.03221934 0.02600467 0.006360136 -0.03247324 0.02576134 0.006126776 -0.03255628 0.0256816 0.006033662 -0.03271127 0.02553252 0.005831708 -0.01011843 0.01873111 0.007270771 -0.009832797 0.01900129 0.007150337 -0.02453886 0.03330096 0.006482835 -0.009298836 0.01950429 0.006700718 -0.0239148 0.03388884 0.005957774 -0.00955634 0.01926212 0.006961137 -0.02418833 0.03363163 0.006237294 -0.02425676 0.03356715 0.006294085 -0.008779493 0.0199876 0.005626414 -0.008705796 0.02005391 0.005229341 -0.01594351 0.02731113 0.004663863 -0.008686364 0.02007048 0.005025718 -0.01591975 0.02732982 0.004246421 -0.008679628 0.02007491 0.004813808 -0.02328403 0.03447608 0.004679106 -0.02339796 0.03437128 0.005045755 -0.00890206 0.01987477 0.006012748 -0.02344895 0.03432405 0.005176019 -0.009076455 0.01971251 0.00637778 -0.02361979 0.03416505 0.005527681 -0.02368783 0.03410149 0.005642806 -0.02383526 0.03396345 0.005857847 -0.02490988 0.03294998 0.006636451 -0.0249501 0.03291187 0.006647315 -0.0104143 0.0184506 0.007326628 -0.02533511 0.03254666 0.006698088 -0.01072856 0.01815216 0.007331769 -0.02554814 0.03234433 0.006699967 -0.01135845 0.01755392 0.007337324 -0.02609278 0.03182706 0.00670477 -0.01262706 0.01634906 0.007348512 -0.02711048 0.0308605 0.006713745 -0.01774308 0.01149013 0.00739363 -0.03113571 0.02703755 0.006749243 -0.01804422 0.01120379 0.007360197 -0.03149627 0.02669473 0.006710914 -0.01833167 0.01092984 0.007261096 -0.03186008 0.02634799 0.006584408 -0.03212521 0.02609473 0.006429633 -0.005651839 -0.005303655 0.006932101 -0.005564134 -0.005218389 0.007143279 -0.005486268 -0.005143054 0.007291405 -0.005431445 -0.005090152 0.007380768 -0.00525196 -0.00491752 0.007612475 -0.01955577 0.009742296 0.004583927 -0.005800596 -0.005453131 0.006050891 -0.01955405 0.009747953 0.005017303 -0.005798384 -0.00544997 0.006165037 -0.00576506 -0.005415298 0.006490219 -0.005673113 -0.00532444 0.006869831 0.004990392 0.004812248 0.00775049 0.005144079 0.004957089 0.007628179 0.005251985 0.005058575 0.007519842 0.005317133 0.005119747 0.007443661 0.005486293 0.005278108 0.00719464 0.004350469 0.004206387 0.007961284 0.004433251 0.004284981 0.007957504 0.004669256 0.0045087 0.007909465 0.004945104 0.004769508 0.007780228 -0.005096815 -0.004768795 0.007759431 -0.004980636 -0.00465765 0.007844952 -0.004890371 -0.004571413 0.007898934 -0.004683717 -0.004374307 0.007987268 -0.004350443 -0.004057282 0.008038016 0.001856374 0.001837627 0.007983279 0.003375872 0.003280767 0.007969879 0.004091029 0.003959986 0.007963572 0.005651864 0.005304199 -0.006932111 0.005564159 0.005218933 -0.007143289 0.005486293 0.005143598 -0.007291415 0.00543147 0.005090696 -0.007380778 0.005251985 0.004918064 -0.007612485 0.005800621 0.005453675 -0.006050901 0.005798409 0.005450514 -0.006165047 0.005765085 0.005415842 -0.006490229 0.005673138 0.005324984 -0.006869841 -0.004990367 -0.004811704 -0.0077505 -0.005144054 -0.004956545 -0.007628189 -0.00525196 -0.005058031 -0.007519852 -0.005317108 -0.005119203 -0.007443671 -0.005486268 -0.005277564 -0.00719465 -0.004350443 -0.004205843 -0.007961294 -0.004433225 -0.004284437 -0.007957514 -0.00466923 -0.004508155 -0.007909475 -0.004945078 -0.004768964 -0.007780238 0.00509684 0.004769339 -0.007759441 0.004980661 0.004658194 -0.007844962 0.004890397 0.004571957 -0.007898944 0.004683743 0.004374851 -0.007987278 0.004350469 0.004057826 -0.008038026 -0.001856349 -0.001837083 -0.007983289 -0.003375847 -0.003280223 -0.007969889 -0.004091004 -0.003959441 -0.007963582 -0.02318998 0.03456075 0.004176538 -0.02315988 0.03458472 0.003679034 -0.02315988 0.03453318 -0.001872186 -0.03326897 0.02498908 0.00435462 -0.03327659 0.02498133 0.004299209 -0.03331094 0.02494377 0.003768555 -0.03331094 0.02494105 0.003474758 -0.01955577 0.00973423 0.003715235 -0.03331094 0.02493407 0.00272364 -0.01955577 0.009717985 0.00196569 -0.03331094 0.02492104 0.001320121 -0.01955577 0.009652471 -0.005089846 -0.03331094 0.02486949 -0.0042311 -0.0195296 0.009673467 -0.005505379 -0.03328084 0.02489346 -0.004728604 -0.0194559 0.00973978 -0.005902451 -0.03318679 0.02497813 -0.005231172 -0.03307286 0.02508294 -0.005597821 0.005593844 0.005378267 0.006979731 0.005656599 0.005436381 0.006818954 0.005696319 0.005472949 0.006694119 0.005761691 0.00553239 0.006408545 0.005792166 0.005559105 0.006168197 0.005800621 0.005565096 0.005948582 0.005800621 0.005485613 -0.002611279 0.005800621 0.005466155 -0.004706829 0.005800621 0.005456997 -0.005693107 -0.005593818 -0.005377723 -0.006979741 -0.005656574 -0.005435837 -0.006818964 -0.005696293 -0.005472405 -0.006694129 -0.005761666 -0.005531846 -0.006408555 -0.005800596 -0.005564552 -0.005948592 -0.005800596 -0.005485069 0.002611269 -0.005800596 -0.005465611 0.004706819 -0.005800596 -0.005456453 0.005693096 -0.03113571 0.02703755 0.006749243 -0.02711048 0.0308605 0.006713745 -0.03092268 0.02710988 -0.007252032 -0.02315988 0.03451317 -0.004026823 -0.03037804 0.02762716 -0.007256835 -0.02936034 0.02859372 -0.00726581 -0.03318679 0.02497813 -0.005231172 -0.03328084 0.02489346 -0.004728604 -0.03331094 0.02486949 -0.0042311 -0.02461074 0.03310622 -0.007136474 -0.02497455 0.03275949 -0.00726298 -0.02533511 0.03241667 -0.007301308 -0.02609278 0.03182706 0.00670477 -0.02554814 0.03234433 0.006699967 -0.02315988 0.03452014 -0.003275706 -0.02315988 0.03453318 -0.001872186 -0.03331094 0.02492104 0.001320121 -0.03278298 0.02535273 -0.006194871 -0.03285103 0.02528916 -0.006079746 -0.03247324 0.02576134 0.006126776 -0.03221934 0.02600467 0.006360136 -0.03331094 0.02494105 0.003474758 -0.03212521 0.02609473 0.006429633 -0.03186008 0.02634799 0.006584408 -0.03331094 0.02493407 0.00272364 -0.03149627 0.02669473 0.006710914 -0.02328403 0.03447608 0.004679106 -0.02318998 0.03456075 0.004176538 -0.02315988 0.03458472 0.003679034 -0.02391454 0.03377261 -0.006585727 -0.02399758 0.03369287 -0.006678841 -0.03302187 0.02513016 -0.005728085 -0.03307286 0.02508294 -0.005597821 -0.03331094 0.02494377 0.003768555 -0.03302489 0.02522926 0.005253189 -0.03298415 0.02526883 0.005347205 -0.02425148 0.03344954 -0.006912202 -0.02434561 0.03335949 -0.006981699 -0.03113571 0.02690756 -0.007250154 -0.03152071 0.02654234 -0.00719938 -0.03156094 0.02650423 -0.007188516 -0.03228249 0.02582259 -0.00678936 -0.03255602 0.02556538 -0.006509839 -0.03263556 0.02549076 -0.006409912 -0.03327659 0.02498133 0.004299209 -0.03326897 0.02498908 0.00435462 -0.03315995 0.02509737 0.004865336 -0.03278322 0.02546317 0.005722657 -0.03271127 0.02553252 0.005831708 -0.03255628 0.0256816 0.006033662 -0.02368783 0.03410149 0.005642806 -0.02361979 0.03416505 0.005527681 -0.02315988 0.03451044 -0.004320621 -0.02319423 0.03447288 -0.004851275 -0.02320185 0.03446513 -0.004906685 -0.02348667 0.03418539 -0.005899271 -0.0236876 0.03399105 -0.006274722 -0.02375955 0.0339217 -0.006383773 -0.03193196 0.02615325 -0.007034901 -0.03221406 0.02588706 -0.006846151 -0.02344895 0.03432405 0.005176019 -0.02339796 0.03437128 0.005045755 -0.02331087 0.03435684 -0.005417402 -0.02344593 0.03422496 -0.005805254 -0.02533511 0.03254666 0.006698088 -0.0249501 0.03291187 0.006647315 -0.02490988 0.03294998 0.006636451 -0.02418833 0.03363163 0.006237294 -0.0239148 0.03388884 0.005957774 -0.02383526 0.03396345 0.005857847 -0.02453886 0.03330096 0.006482835 -0.02425676 0.03356715 0.006294085 0.004350469 0.004206387 0.007961284 0.004091029 0.003959986 0.007963572 0.005800621 0.005565096 0.005948582 -0.004350443 -0.004205843 -0.007961294 -0.004091004 -0.003959441 -0.007963582 -0.005800596 -0.005485069 0.002611269 -0.005800596 -0.005465611 0.004706819 -0.003375847 -0.003280223 -0.007969889 -0.001856349 -0.001837083 -0.007983289 0.005800621 0.005453675 -0.006050901 0.005800621 0.005456997 -0.005693107 0.005656599 0.005436381 0.006818954 0.005593844 0.005378267 0.006979731 0.005696319 0.005472949 0.006694119 0.005792166 0.005559105 0.006168197 0.005761691 0.00553239 0.006408545 0.005251985 0.005058575 0.007519842 0.005144079 0.004957089 0.007628179 0.004990392 0.004812248 0.00775049 0.004945104 0.004769508 0.007780228 -0.005656574 -0.005435837 -0.006818964 -0.005593818 -0.005377723 -0.006979741 -0.005800596 -0.005453131 0.006050891 -0.005800596 -0.005456453 0.005693096 0.005800621 0.005485613 -0.002611279 0.005800621 0.005466155 -0.004706829 0.005486293 0.005278108 0.00719464 0.005317133 0.005119747 0.007443661 0.004669256 0.0045087 0.007909465 0.004433251 0.004284981 0.007957504 -0.004980636 -0.00465765 0.007844952 -0.005096815 -0.004768795 0.007759431 -0.005696293 -0.005472405 -0.006694129 -0.005800596 -0.005564552 -0.005948592 -0.005761666 -0.005531846 -0.006408555 -0.00525196 -0.005058031 -0.007519852 -0.005144054 -0.004956545 -0.007628189 -0.004990367 -0.004811704 -0.0077505 -0.004945078 -0.004768964 -0.007780238 0.003375872 0.003280767 0.007969879 0.001856374 0.001837627 0.007983279 -0.004350443 -0.004057282 0.008038016 -0.005486268 -0.005143054 0.007291405 -0.005564134 -0.005218389 0.007143279 -0.005651839 -0.005303655 0.006932101 -0.005673113 -0.00532444 0.006869831 -0.005486268 -0.005277564 -0.00719465 -0.005317108 -0.005119203 -0.007443671 -0.00466923 -0.004508155 -0.007909475 -0.004433225 -0.004284437 -0.007957514 0.004980661 0.004658194 -0.007844962 0.00509684 0.004769339 -0.007759441 -0.004683717 -0.004374307 0.007987268 -0.004890371 -0.004571413 0.007898934 -0.00525196 -0.00491752 0.007612475 -0.005431445 -0.005090152 0.007380768 -0.00576506 -0.005415298 0.006490219 -0.005798384 -0.00544997 0.006165037 0.004890397 0.004571957 -0.007898944 0.004350469 0.004057826 -0.008038026 0.004683743 0.004374851 -0.007987278 0.005486293 0.005143598 -0.007291415 0.005564159 0.005218933 -0.007143289 0.005651864 0.005304199 -0.006932111 0.005673138 0.005324984 -0.006869841 0.005251985 0.004918064 -0.007612485 0.00543147 0.005090696 -0.007380778 0.005765085 0.005415842 -0.006490229 0.005798409 0.005450514 -0.006165047</float_array>
          <technique_common>
            <accessor count="337" source="#verts-array-array" stride="3">
              <param type="float" name="X"/>
              <param type="float" name="Y"/>
              <param type="float" name="Z"/>
            </accessor>
          </technique_common>
        </source>
        <source id="normals-array">
          <float_array count="1011" id="normals-array-array">0.6856596 0.6954034 -0.2151397 0.6479354 0.6655619 -0.3704146 0.6503477 0.6674653 -0.3626816 0.5148067 0.5440304 -0.6625745 0.5309425 0.5592511 -0.6366618 0.5912179 0.6154869 -0.5211884 0.5743244 0.5997457 -0.5571863 0.6102072 0.6324353 -0.4771507 0.4215565 0.4537744 -0.785098 0.3179614 0.3513842 -0.8805849 0.3456068 0.3788894 -0.8584863 0.4018999 0.4346203 -0.8059663 0.4490504 0.4805499 -0.7532766 0.487972 0.5181629 -0.7024177 0.6810085 0.6920263 -0.2394307 0.696786 0.7028752 -0.1430235 0.7042128 0.7061178 -0.0740406 0.7058111 0.7066635 -0.04957186 0.7079738 0.7061779 -0.009263004 0.7080686 0.7061132 -0.006556594 0.7080686 0.7061132 -0.006556594 0.7080686 0.7061132 -0.006556594 0.7080686 0.7061132 -0.006556594 -0.1743433 -0.12852 -0.9762618 -0.2908364 -0.2312922 -0.9283954 -0.2849872 -0.2262246 -0.931453 -0.5072938 -0.4275858 -0.7482134 -0.4882306 -0.4100312 -0.7703929 -0.4030861 -0.3320116 -0.8528129 -0.4296112 -0.3563526 -0.8297271 -0.3702952 -0.3025991 -0.8782456 -0.5964636 -0.5116235 -0.6184437 -0.6648343 -0.5783176 -0.4728045 -0.6491468 -0.5627376 -0.5117957 -0.6115781 -0.5260149 -0.5909995 -0.5733938 -0.489702 -0.6568192 -0.5363514 -0.4548488 -0.7109429 -0.1926104 -0.1445516 -0.97057 -0.1201252 -0.08091052 -0.9894561 -0.0678646 -0.03579458 -0.9970522 -0.04952098 -0.01958515 -0.998581 -0.01884349 0.006627868 -0.9998005 -0.01679181 0.00839645 -0.9998238 -0.01679181 0.00839645 -0.9998238 -0.01679181 0.00839645 -0.9998238 -0.01679181 0.00839645 -0.9998238 -0.01679181 0.00839645 -0.9998238 0.01335535 0.03970474 -0.9991222 0.0111637 0.03759664 -0.9992306 0.09997378 0.1293711 -0.9865436 0.09788018 0.1275505 -0.9869905 0.2103627 0.2427683 -0.9470011 0.2077596 0.2399873 -0.9482837 0.2874778 0.3205995 -0.9025367 -0.7317379 -0.6468912 0.2146892 -0.7014354 -0.609236 0.3698916 -0.7033886 -0.6116227 0.3621631 -0.5759271 -0.4796815 0.661977 -0.5917172 -0.4952662 0.6360677 -0.6499077 -0.553697 0.5206146 -0.6336523 -0.5372841 0.5566063 -0.6674019 -0.5722195 0.4765916 -0.4821312 -0.3900001 0.7845059 -0.3754344 -0.2908754 0.880023 -0.40412 -0.3172855 0.8579143 -0.462185 -0.3711509 0.805377 -0.50999 -0.4163914 0.7526808 -0.5490833 -0.4538237 0.7018202 0.128265 0.1770322 0.9758113 0.2373364 0.2876181 0.9278724 0.2319463 0.2820672 0.9309345 0.4461733 0.4919347 0.7476159 0.4274559 0.4740161 0.7697988 0.3443963 0.3938014 0.8522392 0.3702833 0.4188142 0.8291471 0.3131005 0.3628148 0.8776864 0.6590941 0.6808665 0.319399 0.6890534 0.7011503 0.1832857 0.6933714 0.7039059 0.1541187 0.7025305 0.7070629 0.08070354 0.7060176 0.7074478 0.03250841 0.7071603 0.7068866 0.01535429 0.660423 0.6813818 0.3155317 0.6242968 0.6528835 0.4289482 0.6073613 0.6388264 0.4722426 0.5906336 0.6243415 0.5112237 0.5358889 0.5753978 0.6178515 0.5512931 0.5894843 0.5904102 0.5124542 0.5538605 0.6562235 0.4752401 0.519188 0.7103455 0.1452676 0.194395 0.9701072 0.0778077 0.1254633 0.9890424 0.02999319 0.07566638 0.996682 0.0128476 0.05819563 0.9982225 -0.01491983 0.02891885 0.9994704 -0.01679181 0.02696107 0.9994954 -0.01679181 0.02696107 0.9994954 -0.01679181 0.02696107 0.9994954 -0.01679181 0.02696107 0.9994954 -0.01679181 0.02696107 0.9994954 -0.04960244 -0.001543058 0.9987678 -0.04738541 0.0005383376 0.9988765 -0.1434877 -0.08355871 0.9861183 -0.141566 -0.08155715 0.9865635 -0.2620449 -0.1883563 0.9464958 -0.2591456 -0.1858871 0.9477814 -0.3433264 -0.261801 0.9019907 -0.6713941 -0.5761918 0.4660826 -0.6385902 -0.5420353 0.5462603 -0.6016093 -0.504734 0.6191202 -0.5570028 -0.4612542 0.6906464 -0.4867169 -0.3937991 0.7797621 -0.7417371 -0.6706312 0.008932936 -0.7420237 -0.6700759 0.01997538 -0.7420842 -0.666246 0.07367037 -0.7416673 -0.6645456 0.09115215 -0.728567 -0.6427595 0.2367495 -0.6992849 -0.6068416 0.3778147 0.3054956 0.355561 0.8833169 0.3627326 0.4117409 0.8359991 0.4150618 0.4624564 0.7834908 0.4669909 0.511649 0.7212037 0.5321239 0.5724776 0.6237897 -0.007271812 0.03690649 0.9992923 0.04210941 0.08830316 0.9952032 0.1438306 0.1926841 0.9706624 0.2429582 0.2932062 0.9246629 -0.4090879 -0.3214586 0.8539973 -0.3468381 -0.2644827 0.8998623 -0.2830407 -0.2061788 0.9366847 -0.1772492 -0.1122786 0.9777404 -0.06214972 -0.01217279 0.9979926 -0.01679181 0.02696107 0.9994954 -0.01679181 0.02696107 0.9994954 -0.01679181 0.02696107 0.9994954 0.6142821 0.6363205 -0.4666409 0.5792274 0.6045337 -0.5468406 0.5407493 0.5688087 -0.6197152 0.4956963 0.5257989 -0.6912457 0.4255422 0.458205 -0.7803601 0.7075364 0.7063849 -0.02031253 0.7026553 0.7056182 -0.09153353 0.6815749 0.6922338 -0.2372089 0.6455071 0.66346 -0.3783404 -0.3626076 -0.2954323 -0.8838753 -0.4220954 -0.3492425 -0.8365794 -0.4759218 -0.3983817 -0.7840857 -0.5282975 -0.4471042 -0.721803 -0.5932986 -0.5080716 -0.6243877 -0.02721549 -0.0005975396 -0.9996294 -0.08112142 -0.04723051 -0.9955845 -0.1908227 -0.1432099 -0.9711218 -0.296736 -0.2365879 -0.9251886 0.3499935 0.3836744 -0.854575 0.2903168 0.3239895 -0.9004149 0.2291505 0.2629155 -0.9372116 0.1303144 0.1616925 -0.9781992 0.02460916 0.05169627 -0.9983596 -0.01679181 0.00839645 -0.9998238 -0.01679181 0.00839645 -0.9998238 -0.01679181 0.00839645 -0.9998238 0.6930074 0.7032347 0.1587505 0.706101 0.7073047 0.03378662 0.7080686 0.7061132 -0.006556594 -0.7283513 -0.6421828 0.2389679 -0.7391035 -0.6583225 0.1426099 -0.7424845 -0.668053 0.04921335 -0.7416523 -0.6707556 0.006228283 -0.7416523 -0.6707556 0.006228283 -0.7416523 -0.6707556 0.006228283 -0.7416523 -0.6707556 0.006228283 -0.7416523 -0.6707556 0.006228283 -0.7422646 -0.6690734 -0.03720382 -0.7423447 -0.6691467 -0.03416286 -0.7361743 -0.6571688 -0.161792 -0.7365965 -0.6573719 -0.1590211 -0.7108249 -0.6263803 -0.319962 -0.7116255 -0.627402 -0.316158 -0.6801454 -0.5940851 -0.4294942 0.5874749 0.6219834 0.5176967 0.6223992 0.6517956 0.4333379 0.6508052 0.6753395 0.3469427 0.6793341 0.695985 0.2326157 0.6994638 0.7064527 0.1080508 0.7068625 0.7070462 0.02076401 0.7080686 0.7061132 -0.006556594 0.7080686 0.7061132 -0.006556594 0.7080686 0.7061132 -0.006556594 -0.6465693 -0.5597676 -0.5182744 -0.6789205 -0.5922888 -0.4338904 -0.7046954 -0.6186028 -0.3474695 -0.731617 -0.6498257 -0.2060658 -0.7422776 -0.6679431 -0.05362785 -0.7416523 -0.6707556 0.006228283 -0.7416523 -0.6707556 0.006228283 -0.7416523 -0.6707556 0.006228283 -0.6886688 0.7250448 -0.006732383 -0.6886688 0.7250448 -0.006732383 -0.6886688 0.7250448 -0.006732383 -0.6886688 0.7250448 -0.006732383 -0.6886688 0.7250448 -0.006732383 -0.6886688 0.7250448 -0.006732383 -0.6886688 0.7250448 -0.006732383 -0.6886688 0.7250448 -0.006732383 -0.6886688 0.7250448 -0.006732383 -0.6886688 0.7250448 -0.006732383 -0.6886688 0.7250448 -0.006732383 -0.6886688 0.7250448 -0.006732383 -0.6886688 0.7250448 -0.006732383 -0.6886688 0.7250448 -0.006732383 -0.6886688 0.7250448 -0.006732383 -0.6886688 0.7250448 -0.006732383 -0.6886688 0.7250448 -0.006732383 -0.6886688 0.7250448 -0.006732383 -0.6886688 0.7250448 -0.006732383 -0.6886688 0.7250448 -0.006732383 -0.6886688 0.7250448 -0.006732383 -0.6886688 0.7250448 -0.006732383 -0.6886688 0.7250448 -0.006732383 -0.6886688 0.7250448 -0.006732383 -0.6886688 0.7250448 -0.006732383 -0.6886688 0.7250448 -0.006732383 -0.6886688 0.7250448 -0.006732383 -0.6886688 0.7250448 -0.006732383 -0.6886688 0.7250448 -0.006732383 -0.6886688 0.7250448 -0.006732383 -0.6886688 0.7250448 -0.006732383 -0.6886688 0.7250448 -0.006732383 -0.6886688 0.7250448 -0.006732383 -0.6886688 0.7250448 -0.006732383 -0.6886688 0.7250448 -0.006732383 -0.6886688 0.7250448 -0.006732383 -0.6886688 0.7250448 -0.006732383 -0.6886688 0.7250448 -0.006732383 -0.6886688 0.7250448 -0.006732383 -0.6886688 0.7250448 -0.006732383 -0.6886688 0.7250448 -0.006732383 -0.6886688 0.7250448 -0.006732383 -0.6886688 0.7250448 -0.006732383 -0.6886688 0.7250448 -0.006732383 -0.6886688 0.7250448 -0.006732383 -0.6886688 0.7250448 -0.006732383 -0.6886688 0.7250448 -0.006732383 -0.6886688 0.7250448 -0.006732383 -0.6886688 0.7250448 -0.006732383 -0.6886688 0.7250448 -0.006732383 -0.6886688 0.7250448 -0.006732383 -0.6886688 0.7250448 -0.006732383 -0.6886688 0.7250448 -0.006732383 -0.6886688 0.7250448 -0.006732383 -0.6886688 0.7250448 -0.006732383 -0.6886688 0.7250448 -0.006732383 -0.6886688 0.7250448 -0.006732383 -0.6886688 0.7250448 -0.006732383 -0.6886688 0.7250448 -0.006732383 -0.6886688 0.7250448 -0.006732383 -0.6886688 0.7250448 -0.006732383 -0.6886688 0.7250448 -0.006732383 -0.6886688 0.7250448 -0.006732383 -0.6886688 0.7250448 -0.006732383 -0.6886688 0.7250448 -0.006732383 -0.6886688 0.7250448 -0.006732383 -0.6886688 0.7250448 -0.006732383 -0.6886688 0.7250448 -0.006732383 -0.6886688 0.7250448 -0.006732383 -0.6886688 0.7250448 -0.006732383 -0.6886688 0.7250448 -0.006732383 -0.6886688 0.7250448 -0.006732383 0.6886688 -0.7250448 0.006732383 0.6886688 -0.7250448 0.006732383 0.6886688 -0.7250448 0.006732383 0.6886688 -0.7250448 0.006732383 0.6886688 -0.7250448 0.006732383 0.6886688 -0.7250448 0.006732383 0.6886688 -0.7250448 0.006732383 0.6886688 -0.7250448 0.006732383 0.6886688 -0.7250448 0.006732383 0.6886688 -0.7250448 0.006732383 0.6886688 -0.7250448 0.006732383 0.6886688 -0.7250448 0.006732383 0.6886688 -0.7250448 0.006732383 0.6886688 -0.7250448 0.006732383 0.6886688 -0.7250448 0.006732383 0.6886688 -0.7250448 0.006732383 0.6886688 -0.7250448 0.006732383 0.6886688 -0.7250448 0.006732383 0.6886688 -0.7250448 0.006732383 0.6886688 -0.7250448 0.006732383 0.6886688 -0.7250448 0.006732383 0.6886688 -0.7250448 0.006732383 0.6886688 -0.7250448 0.006732383 0.6886688 -0.7250448 0.006732383 0.6886688 -0.7250448 0.006732383 0.6886688 -0.7250448 0.006732383 0.6886688 -0.7250448 0.006732383 0.6886688 -0.7250448 0.006732383 0.6886688 -0.7250448 0.006732383 0.6886688 -0.7250448 0.006732383 0.6886688 -0.7250448 0.006732383 0.6886688 -0.7250448 0.006732383 0.6886688 -0.7250448 0.006732383 0.6886688 -0.7250448 0.006732383 0.6886688 -0.7250448 0.006732383 0.6886688 -0.7250448 0.006732383 0.6886688 -0.7250448 0.006732383 0.6886688 -0.7250448 0.006732383 0.6886688 -0.7250448 0.006732383 0.6886688 -0.7250448 0.006732383 0.6886688 -0.7250448 0.006732383 0.6886688 -0.7250448 0.006732383 0.6886688 -0.7250448 0.006732383 0.6886688 -0.7250448 0.006732383 0.6886688 -0.7250448 0.006732383 0.6886688 -0.7250448 0.006732383 0.6886688 -0.7250448 0.006732383 0.6886688 -0.7250448 0.006732383 0.6886688 -0.7250448 0.006732383 0.6886688 -0.7250448 0.006732383 0.6886688 -0.7250448 0.006732383 0.6886688 -0.7250448 0.006732383 0.6886688 -0.7250448 0.006732383 0.6886688 -0.7250448 0.006732383 0.6886688 -0.7250448 0.006732383 0.6886688 -0.7250448 0.006732383 0.6886688 -0.7250448 0.006732383 0.6886688 -0.7250448 0.006732383 0.6886688 -0.7250448 0.006732383 0.6886688 -0.7250448 0.006732383 0.6886688 -0.7250448 0.006732383 0.6886688 -0.7250448 0.006732383 0.6886688 -0.7250448 0.006732383 0.6886688 -0.7250448 0.006732383 0.6886688 -0.7250448 0.006732383 0.6886688 -0.7250448 0.006732383 0.6886688 -0.7250448 0.006732383 0.6886688 -0.7250448 0.006732383 0.6886688 -0.7250448 0.006732383</float_array>
          <technique_common>
            <accessor count="337" source="#normals-array-array" stride="3">
              <param type="float" name="X"/>
              <param type="float" name="Y"/>
              <param type="float" name="Z"/>
            </accessor>
          </technique_common>
        </source>
        <vertices id="verts-array-vertices">
          <input semantic="POSITION" source="#verts-array"/>
        </vertices>
        <triangles count="388" material="material0">
          <input offset="0" semantic="VERTEX" source="#verts-array-vertices"/>
          <input offset="1" semantic="NORMAL" source="#normals-array"/>
          <p>0 0 1 1 2 2 3 3 4 4 5 5 6 6 5 5 4 4 2 2 1 1 7 7 8 8 9 9 10 10 10 10 11 11 8 8 12 12 8 8 11 11 8 8 12 12 3 3 13 13 3 3 12 12 3 3 13 13 4 4 2 2 14 14 0 0 15 15 0 0 14 14 0 0 15 15 16 16 17 17 16 16 15 15 16 16 17 17 18 18 19 19 18 18 17 17 18 18 19 19 20 20 21 21 20 20 19 19 20 20 21 21 22 22 23 23 24 24 25 25 26 26 27 27 28 28 29 29 28 28 27 27 25 25 24 24 30 30 31 31 32 32 33 33 33 33 34 34 31 31 35 35 31 31 34 34 31 31 35 35 26 26 36 36 26 26 35 35 26 26 36 36 27 27 25 25 37 37 23 23 38 38 23 23 37 37 23 23 38 38 39 39 40 40 39 39 38 38 39 39 40 40 41 41 42 42 41 41 40 40 41 41 42 42 43 43 44 44 43 43 42 42 43 43 44 44 45 45 46 46 45 45 44 44 45 45 46 46 47 47 48 48 47 47 46 46 47 47 48 48 49 49 50 50 49 49 48 48 49 49 50 50 51 51 52 52 51 51 50 50 51 51 52 52 9 9 53 53 9 9 52 52 9 9 53 53 10 10 54 54 55 55 56 56 57 57 58 58 59 59 60 60 59 59 58 58 56 56 55 55 61 61 62 62 63 63 64 64 64 64 65 65 62 62 66 66 62 62 65 65 62 62 66 66 57 57 67 67 57 57 66 66 57 57 67 67 58 58 68 68 69 69 70 70 71 71 72 72 73 73 74 74 73 73 72 72 70 70 69 69 75 75 76 76 77 77 78 78 79 79 78 78 77 77 78 78 79 79 80 80 81 81 80 80 79 79 80 80 81 81 22 22 82 82 83 83 84 84 85 85 84 84 83 83 84 84 85 85 86 86 85 85 87 87 86 86 88 88 86 86 87 87 86 86 88 88 71 71 89 89 71 71 88 88 71 71 89 89 72 72 70 70 90 90 68 68 91 91 68 68 90 90 68 68 91 91 92 92 93 93 92 92 91 91 92 92 93 93 94 94 95 95 94 94 93 93 94 94 95 95 96 96 97 97 96 96 95 95 96 96 97 97 98 98 99 99 98 98 97 97 98 98 99 99 100 100 101 101 100 100 99 99 100 100 101 101 102 102 103 103 102 102 101 101 102 102 103 103 104 104 105 105 104 104 103 103 104 104 105 105 63 63 106 106 63 63 105 105 63 63 106 106 64 64 60 60 61 61 59 59 55 55 59 59 61 61 59 59 55 55 107 107 107 107 108 108 59 59 109 109 59 59 108 108 59 59 109 109 57 57 110 110 57 57 109 109 57 57 110 110 62 62 111 111 62 62 110 110 62 62 111 111 63 63 112 112 113 113 114 114 115 115 114 114 113 113 114 114 115 115 54 54 116 116 54 54 115 115 54 54 116 116 55 55 117 117 55 55 116 116 55 55 117 117 107 107 74 74 75 75 73 73 69 69 73 73 75 75 73 73 69 69 118 118 118 118 119 119 73 73 120 120 73 73 119 119 73 73 120 120 71 71 121 121 71 71 120 120 71 71 121 121 86 86 122 122 86 86 121 121 86 86 122 122 84 84 94 94 123 123 92 92 124 124 92 92 123 123 92 92 124 124 68 68 125 125 68 68 124 124 68 68 125 125 69 69 126 126 69 69 125 125 69 69 126 126 118 118 111 111 127 127 63 63 128 128 63 63 127 127 63 63 128 128 104 104 129 129 104 104 128 128 104 104 129 129 102 102 130 130 102 102 129 129 102 102 130 130 100 100 131 131 100 100 130 130 100 100 131 131 98 98 132 132 98 98 131 131 98 98 132 132 96 96 133 133 96 96 132 132 96 96 133 133 94 94 134 134 94 94 133 133 94 94 134 134 123 123 6 6 7 7 5 5 1 1 5 5 7 7 5 5 1 1 135 135 135 135 136 136 5 5 137 137 5 5 136 136 5 5 137 137 3 3 138 138 3 3 137 137 3 3 138 138 8 8 139 139 8 8 138 138 8 8 139 139 9 9 18 18 140 140 16 16 141 141 16 16 140 140 16 16 141 141 0 0 142 142 0 0 141 141 0 0 142 142 1 1 143 143 1 1 142 142 1 1 143 143 135 135 29 29 30 30 28 28 24 24 28 28 30 30 28 28 24 24 144 144 144 144 145 145 28 28 146 146 28 28 145 145 28 28 146 146 26 26 147 147 26 26 146 146 26 26 147 147 31 31 148 148 31 31 147 147 31 31 148 148 32 32 41 41 149 149 39 39 150 150 39 39 149 149 39 39 150 150 23 23 151 151 23 23 150 150 23 23 151 151 24 24 152 152 24 24 151 151 24 24 152 152 144 144 139 139 153 153 9 9 154 154 9 9 153 153 9 9 154 154 51 51 155 155 51 51 154 154 51 51 155 155 49 49 156 156 49 49 155 155 49 49 156 156 47 47 157 157 47 47 156 156 47 47 157 157 45 45 158 158 45 45 157 157 45 45 158 158 43 43 159 159 43 43 158 158 43 43 159 159 41 41 160 160 41 41 159 159 41 41 160 160 149 149 84 84 76 76 82 82 78 78 82 82 76 76 82 82 78 78 161 161 80 80 161 161 78 78 161 161 80 80 162 162 22 22 162 162 80 80 162 162 22 22 163 163 21 21 163 163 22 22 56 56 164 164 54 54 165 165 54 54 164 164 54 54 165 165 114 114 166 166 114 114 165 165 114 114 166 166 112 112 167 167 112 112 166 166 112 112 167 167 168 168 169 169 168 168 167 167 168 168 169 169 170 170 171 171 170 170 169 169 170 170 171 171 172 172 173 173 172 172 171 171 172 172 173 173 174 174 175 175 174 174 173 173 174 174 175 175 176 176 177 177 176 176 175 175 176 176 177 177 32 32 178 178 32 32 177 177 32 32 178 178 33 33 122 122 179 179 84 84 180 180 84 84 179 179 84 84 180 180 76 76 181 181 76 76 180 180 76 76 181 181 77 77 182 182 77 77 181 181 77 77 182 182 79 79 183 183 79 79 182 182 79 79 183 183 81 81 184 184 81 81 183 183 81 81 184 184 22 22 185 185 22 22 184 184 22 22 185 185 20 20 186 186 20 20 185 185 20 20 186 186 18 18 187 187 18 18 186 186 18 18 187 187 140 140 148 148 188 188 32 32 189 189 32 32 188 188 32 32 189 189 176 176 190 190 176 176 189 189 176 176 190 190 174 174 191 191 174 174 190 190 174 174 191 191 172 172 192 192 172 172 191 191 172 172 192 192 170 170 193 193 170 170 192 192 170 170 193 193 168 168 194 194 168 168 193 193 168 168 194 194 112 112 195 195 112 112 194 194 112 112 195 195 113 113 196 196 197 197 198 198 199 199 198 198 197 197 198 198 199 199 200 200 201 201 200 200 199 199 202 202 203 203 204 204 205 205 206 206 207 207 197 197 208 208 199 199 209 209 199 199 208 208 199 199 209 209 210 210 211 211 210 210 209 209 212 212 196 196 204 204 213 213 204 204 196 196 204 204 213 213 214 214 215 215 216 216 217 217 218 218 217 217 216 216 217 217 218 218 219 219 212 212 220 220 196 196 217 217 196 196 220 220 196 196 217 217 221 221 219 219 221 221 217 217 222 222 223 223 224 224 201 201 225 225 207 207 226 226 207 207 225 225 214 214 227 227 204 204 228 228 204 204 227 227 204 204 228 228 202 202 229 229 230 230 231 231 226 226 232 232 207 207 233 233 207 207 232 232 207 207 233 233 205 205 198 198 234 234 196 196 235 235 196 196 234 234 196 196 235 235 236 236 237 237 238 238 196 196 239 239 196 196 238 238 196 196 239 239 213 213 229 229 240 240 230 230 241 241 230 230 240 240 230 230 241 241 242 242 231 231 243 243 229 229 244 244 229 229 243 243 229 229 244 244 217 217 245 245 217 217 244 244 217 217 245 245 215 215 211 211 246 246 224 224 247 247 224 224 246 246 199 199 248 248 201 201 249 249 201 201 248 248 201 201 249 249 250 250 251 251 252 252 201 201 253 253 201 201 252 252 201 201 253 253 225 225 236 236 254 254 196 196 255 255 196 196 254 254 196 196 255 255 237 237 247 247 256 256 224 224 257 257 224 224 256 256 224 224 257 257 222 222 250 250 258 258 201 201 259 259 201 201 258 258 201 201 259 259 251 251 209 209 260 260 211 211 261 261 211 211 260 260 211 211 261 261 262 262 263 263 264 264 211 211 265 265 211 211 264 264 211 211 265 265 246 246 262 262 266 266 211 211 267 267 211 211 266 266 211 211 267 267 263 263 268 268 269 269 270 270 271 271 272 272 273 273 273 273 272 272 274 274 275 275 274 274 272 272 274 274 275 275 276 276 277 277 278 278 276 276 270 270 279 279 280 280 279 279 270 270 281 281 282 282 281 281 270 270 281 281 282 282 283 283 284 284 285 285 270 270 286 286 270 270 285 285 270 270 286 286 287 287 273 273 288 288 289 289 290 290 291 291 270 270 274 274 270 270 291 291 270 270 274 274 292 292 276 276 292 292 274 274 292 292 276 276 293 293 278 278 293 293 276 276 280 280 294 294 270 270 295 295 270 270 294 294 270 270 295 295 284 284 287 287 296 296 270 270 297 297 270 270 296 296 270 270 297 297 268 268 270 270 298 298 299 299 288 288 273 273 300 300 301 301 300 300 273 273 300 300 301 301 302 302 303 303 304 304 273 273 305 305 273 273 304 304 273 273 305 305 306 306 269 269 307 307 270 270 308 308 270 270 307 307 270 270 308 308 309 309 310 310 311 311 270 270 312 312 270 270 311 311 270 270 312 312 313 313 289 289 314 314 273 273 315 315 273 273 314 314 273 273 315 315 303 303 306 306 316 316 273 273 317 317 273 273 316 316 273 273 317 317 271 271 276 276 318 318 319 319 309 309 320 320 270 270 321 321 270 270 320 320 270 270 321 321 298 298 299 299 322 322 270 270 323 323 270 270 322 322 270 270 323 323 310 310 313 313 324 324 270 270 325 325 270 270 324 324 270 270 325 325 290 290 318 318 276 276 326 326 327 327 326 326 276 276 326 326 327 327 328 328 329 329 330 330 276 276 331 331 276 276 330 330 276 276 331 331 332 332 319 319 333 333 276 276 334 334 276 276 333 333 276 276 334 334 329 329 332 332 335 335 276 276 336 336 276 276 335 335 276 276 336 336 277 277</p>
        </triangles>
      </mesh>
    </geometry>
  </library_geometries>
  <library_materials>
    <material id="0fd2ff22c1ff44ac99adf4395181c12d" name="defaultmaterial">
      <instance_effect url="#4ca9cb0433d84f65a4ef5afd9aed0619"/>
    </material>
  </library_materials>
  <library_visual_scenes>
    <visual_scene id="scene">
      <node id="node0" name="node0">
        <instance_geometry url="#a5c8f9e8e46a4f67bca762abb3c24812">
          <bind_material>
            <technique_common>
              <instance_material symbol="material0" target="#0fd2ff22c1ff44ac99adf4395181c12d"/>
            </technique_common>
          </bind_material>
        </instance_geometry>
      </node>
    </visual_scene>
  </library_visual_scenes>
  <scene>
    <instance_visual_scene url="#scene"/>
  </scene>
</COLLADA>
