<COLLADA xmlns="http://www.collada.org/2005/11/COLLADASchema" version="1.4.1">
  <asset>
    <created>2026-09-27T19:05:54.578891</created>
    <modified>2026-09-27T19:05:54.578891</modified>
    <up_axis>Y_UP</up_axis>
  </asset>
  <library_effects>
    <effect id="71fbea08839c4e51bcb8da386b958555" name="71fbea08839c4e51bcb8da386b958555">
      <profile_COMMON>
        <technique sid="common">
          <phong>
            <emission>
              <color>0.0 0.0 0.0 1.0</color>
            </emission>
            <ambient>
              <color>0.0 0.0 0.0 1.0</color>
            </ambient>
            <diffuse>
              <color>0.8941176470588236 0.8941176470588236 0.8941176470588236 1.0</color>
            </diffuse>
            <specular>
              <color>0.0 0.0 0.0 1.0</color>
            </specular>
            <shininess>
              <float>0.0</float>
            </shininess>
            <reflective>
              <color>0.0 0.0 0.0 1.0</color>
            </reflective>
            <reflectivity>
              <float>0.0</float>
            </reflectivity>
            <transparent>
              <color>0.0 0.0 0.0 1.0</color>
            </transparent>
            <transparency>
              <float>1.0</float>
            </transparency>
          </phong>
        </technique>
        <extra>
          <technique profile="GOOGLEEARTH">
            <double_sided>0</double_sided>
          </technique>
        </extra>
      </profile_COMMON>
    </effect>
  </library_effects>
  <library_geometries>
    <geometry id="fc90521cabd24e578db4c5cdaad59e33" name="5e048f1ae43e472496da67ab4dffb315">
      <mesh>
        <source id="verts-array">
          <float_array count="864" id="verts-array-array">-0.01333802 0.01761223 -0.006663818 0.003131023 0.002908841 -0.007010641 0.002900304 0.002689561 -0.007025276 -0.01337846 0.01757382 -0.006663461 -0.01311807 0.01782124 -0.006654258 -0.01284473 0.01808127 -0.006609881 0.003379833 0.003145679 -0.006955588 -0.01256104 0.01835153 -0.006524466 0.003607253 0.003362497 -0.006868617 -0.01227139 0.01862787 -0.006392917 0.003816416 0.003562226 -0.006754387 -0.01198141 0.01890499 -0.006211232 0.00400925 0.003746671 -0.006615973 -0.01169873 0.01917565 -0.005978095 0.004186959 0.003916954 -0.006455487 -0.01143155 0.01943205 -0.005695033 0.004350297 0.004073779 -0.006274386 -0.01118836 0.01966607 -0.005368052 0.004499379 0.00421725 -0.006073229 -0.01097604 0.01987111 -0.00500594 0.00463407 0.004347234 -0.005852287 -0.01079924 0.02004261 -0.004620286 0.00475399 0.004463374 -0.005611455 -0.01065976 0.02017879 -0.004222464 0.004858205 0.00456479 -0.005349865 -0.01055687 0.02028023 -0.003823248 0.004945272 0.004650126 -0.005065905 -0.01048803 0.02034925 -0.003430852 0.005013089 0.004717407 -0.004757067 -0.01044963 0.02038926 -0.003051667 0.005058638 0.004763805 -0.004419553 -0.01043772 0.02040393 -0.002689568 0.005075532 0.004783334 -0.004044588 -0.01043772 0.02044671 0.001918324 0.005075532 0.004853228 0.003482648 -0.01043772 0.02044983 0.002254449 0.005075532 0.004857025 0.00389163 0.005075532 0.004857614 0.003955067 -0.01043772 0.02045035 0.002310217 0.005063445 0.004849089 0.00427336 -0.01044606 0.02044525 0.002613627 -0.01047998 0.02041653 0.00299089 0.005021935 0.004812851 0.004616861 -0.01054373 0.02035962 0.003382695 0.004957417 0.004754488 0.004931067 -0.01064097 0.02027097 0.003783016 0.00487325 0.004677229 0.005220267 -0.01077457 0.0201478 0.004184107 0.004771653 0.004583206 0.005487101 -0.01094543 0.01998915 0.004575457 0.004654147 0.004473881 0.005733217 -0.01115238 0.01979602 0.004945746 0.004521784 0.004350262 0.005959644 -0.01139104 0.01957247 0.005283236 0.004374971 0.004212735 0.00616654 -0.01165496 0.01932453 0.005578381 0.004213903 0.004061486 0.006353713 -0.01193573 0.01906013 0.005824676 0.004038507 0.00389644 0.006520642 -0.01222509 0.0187871 0.00601959 0.00384816 0.003716993 0.006666045 -0.01251522 0.01851286 0.006164042 0.003641702 0.003522024 0.00678794 -0.01280019 0.0182431 0.006261491 0.003417327 0.003309794 0.006883445 -0.01307539 0.01798222 0.006316886 0.003172302 0.003077665 0.006948423 -0.01333802 0.01773294 0.006335622 0.002900304 0.002819552 0.006974121 -0.01667924 0.01455962 0.006365087 -0.002557749 -0.00236422 0.007022255 -0.01692297 0.01432815 0.006367237 -0.002854305 -0.002645874 0.00702487 -0.002900304 -0.002689561 0.007025276 -0.0169634 0.01428974 0.006367593 -0.003131023 -0.002908841 0.007010641 -0.01718336 0.01408073 0.006358033 -0.0174567 0.0138207 0.006313656 -0.003379833 -0.003145679 0.006955588 -0.01774039 0.01355044 0.006228242 -0.003607253 -0.003362497 0.006868617 -0.01803004 0.0132741 0.006096692 -0.003816416 -0.003562226 0.006754387 -0.01832002 0.01299698 0.005915007 -0.00400925 -0.003746671 0.006615973 -0.0186027 0.01272632 0.00568187 -0.004186959 -0.003916954 0.006455487 -0.01886988 0.01246992 0.005398809 -0.004350297 -0.004073779 0.006274386 -0.01911307 0.0122359 0.005071827 -0.004499379 -0.00421725 0.006073229 -0.01932539 0.01203086 0.004709716 -0.00463407 -0.004347234 0.005852287 -0.01950219 0.01185936 0.004324061 -0.00475399 -0.004463374 0.005611455 -0.01964167 0.01172318 0.003926239 -0.004858205 -0.00456479 0.005349865 -0.01974456 0.01162174 0.003527023 -0.004945272 -0.004650126 0.005065905 -0.0198134 0.01155271 0.003134627 -0.005013089 -0.004717407 0.004757067 -0.0198518 0.01151271 0.002755442 -0.005058638 -0.004763805 0.004419553 -0.01986371 0.01149804 0.002393343 -0.005075532 -0.004783334 0.004044588 -0.01986371 0.01145526 -0.002214548 -0.005075532 -0.004853228 -0.003482648 -0.01986371 0.01145214 -0.002550674 -0.005075532 -0.004857025 -0.00389163 -0.005075532 -0.004857614 -0.003955067 -0.01986371 0.01145162 -0.002606441 -0.005063445 -0.004849089 -0.00427336 -0.01985537 0.01145672 -0.002909852 -0.01982144 0.01148544 -0.003287115 -0.005021935 -0.004812851 -0.004616861 -0.0197577 0.01154235 -0.00367892 -0.004957417 -0.004754488 -0.004931067 -0.01966046 0.011631 -0.00407924 -0.00487325 -0.004677229 -0.005220267 -0.01952686 0.01175417 -0.004480331 -0.004771653 -0.004583206 -0.005487101 -0.019356 0.01191282 -0.004871681 -0.004654147 -0.004473881 -0.005733217 -0.01914904 0.01210595 -0.005241971 -0.004521784 -0.004350262 -0.005959644 -0.01891039 0.0123295 -0.005579461 -0.004374971 -0.004212735 -0.00616654 -0.01864647 0.01257744 -0.005874606 -0.004213903 -0.004061486 -0.006353713 -0.01836569 0.01284184 -0.006120901 -0.004038507 -0.00389644 -0.006520642 -0.01807634 0.01311487 -0.006315815 -0.00384816 -0.003716993 -0.006666045 -0.01778621 0.01338911 -0.006460267 -0.003641702 -0.003522024 -0.00678794 -0.01750124 0.01365887 -0.006557716 -0.003417327 -0.003309794 -0.006883445 -0.01722604 0.01391975 -0.006613111 -0.003172302 -0.003077665 -0.006948423 -0.0169634 0.01416903 -0.006631846 -0.002900304 -0.002819552 -0.006974121 -0.01362219 0.01734235 -0.006661312 0.002557749 0.00236422 -0.007022255 0.002854305 0.002645874 -0.00702487 -0.01333802 0.01761223 -0.006663818 -0.01337846 0.01757382 -0.006663461 -0.01333802 0.01773294 0.006335622 -0.01362219 0.01734235 -0.006661312 -0.01667924 0.01455962 0.006365087 -0.0169634 0.01416903 -0.006631846 -0.01692297 0.01432815 0.006367237 -0.0169634 0.01428974 0.006367593 -0.01043772 0.02045035 0.002310217 -0.01044606 0.02044525 0.002613627 -0.01307539 0.01798222 0.006316886 -0.01047998 0.02041653 0.00299089 -0.01280019 0.0182431 0.006261491 -0.01054373 0.02035962 0.003382695 -0.01251522 0.01851286 0.006164042 -0.01064097 0.02027097 0.003783016 -0.01222509 0.0187871 0.00601959 -0.01077457 0.0201478 0.004184107 -0.01193573 0.01906013 0.005824676 -0.01094543 0.01998915 0.004575457 -0.01165496 0.01932453 0.005578381 -0.01115238 0.01979602 0.004945746 -0.01139104 0.01957247 0.005283236 -0.01043772 0.02044983 0.002254449 -0.01043772 0.02044671 0.001918324 -0.01043772 0.02040393 -0.002689568 -0.01311807 0.01782124 -0.006654258 -0.01044963 0.02038926 -0.003051667 -0.01284473 0.01808127 -0.006609881 -0.01048803 0.02034925 -0.003430852 -0.01256104 0.01835153 -0.006524466 -0.01055687 0.02028023 -0.003823248 -0.01227139 0.01862787 -0.006392917 -0.01065976 0.02017879 -0.004222464 -0.01198141 0.01890499 -0.006211232 -0.01079924 0.02004261 -0.004620286 -0.01169873 0.01917565 -0.005978095 -0.01097604 0.01987111 -0.00500594 -0.01143155 0.01943205 -0.005695033 -0.01118836 0.01966607 -0.005368052 -0.01986371 0.01145162 -0.002606441 -0.01985537 0.01145672 -0.002909852 -0.01722604 0.01391975 -0.006613111 -0.01982144 0.01148544 -0.003287115 -0.01750124 0.01365887 -0.006557716 -0.0197577 0.01154235 -0.00367892 -0.01778621 0.01338911 -0.006460267 -0.01966046 0.011631 -0.00407924 -0.01807634 0.01311487 -0.006315815 -0.01952686 0.01175417 -0.004480331 -0.01836569 0.01284184 -0.006120901 -0.019356 0.01191282 -0.004871681 -0.01864647 0.01257744 -0.005874606 -0.01914904 0.01210595 -0.005241971 -0.01891039 0.0123295 -0.005579461 -0.01986371 0.01145214 -0.002550674 -0.01986371 0.01145526 -0.002214548 -0.01986371 0.01149804 0.002393343 -0.01718336 0.01408073 0.006358033 -0.0198518 0.01151271 0.002755442 -0.0174567 0.0138207 0.006313656 -0.0198134 0.01155271 0.003134627 -0.01774039 0.01355044 0.006228242 -0.01974456 0.01162174 0.003527023 -0.01803004 0.0132741 0.006096692 -0.01964167 0.01172318 0.003926239 -0.01832002 0.01299698 0.005915007 -0.01950219 0.01185936 0.004324061 -0.0186027 0.01272632 0.00568187 -0.01932539 0.01203086 0.004709716 -0.01886988 0.01246992 0.005398809 -0.01911307 0.0122359 0.005071827 -0.005075532 -0.004853228 -0.003482648 -0.005075532 -0.004857025 -0.00389163 0.002557749 0.00236422 -0.007022255 -0.005075532 -0.004857614 -0.003955067 0.002900304 0.002819552 0.006974121 0.002854305 0.002645874 -0.00702487 0.002900304 0.002689561 -0.007025276 -0.002557749 -0.00236422 0.007022255 -0.002854305 -0.002645874 0.00702487 -0.002900304 -0.002689561 0.007025276 0.004521784 0.004350262 0.005959644 0.004374971 0.004212735 0.00616654 0.005075532 0.004857614 0.003955067 0.004213903 0.004061486 0.006353713 0.004038507 0.00389644 0.006520642 -0.004521784 -0.004350262 -0.005959644 -0.004374971 -0.004212735 -0.00616654 -0.004213903 -0.004061486 -0.006353713 -0.004038507 -0.00389644 -0.006520642 0.004350297 0.004073779 -0.006274386 0.004499379 0.00421725 -0.006073229 0.00463407 0.004347234 -0.005852287 0.00475399 0.004463374 -0.005611455 0.00487325 0.004677229 0.005220267 0.004771653 0.004583206 0.005487101 0.004654147 0.004473881 0.005733217 -0.004350297 -0.004073779 0.006274386 -0.004499379 -0.00421725 0.006073229 -0.00463407 -0.004347234 0.005852287 -0.00475399 -0.004463374 0.005611455 -0.00487325 -0.004677229 -0.005220267 -0.004771653 -0.004583206 -0.005487101 -0.004654147 -0.004473881 -0.005733217 0.003816416 0.003562226 -0.006754387 0.00400925 0.003746671 -0.006615973 0.004186959 0.003916954 -0.006455487 -0.003816416 -0.003562226 0.006754387 -0.00400925 -0.003746671 0.006615973 -0.004186959 -0.003916954 0.006455487 0.00384816 0.003716993 0.006666045 0.003641702 0.003522024 0.00678794 0.003417327 0.003309794 0.006883445 -0.00384816 -0.003716993 -0.006666045 -0.003641702 -0.003522024 -0.00678794 -0.003417327 -0.003309794 -0.006883445 0.004858205 0.00456479 -0.005349865 0.004945272 0.004650126 -0.005065905 0.005013089 0.004717407 -0.004757067 0.005063445 0.004849089 0.00427336 0.005021935 0.004812851 0.004616861 0.004957417 0.004754488 0.004931067 0.003172302 0.003077665 0.006948423 0.005075532 0.004857025 0.00389163 -0.004858205 -0.00456479 0.005349865 -0.004945272 -0.004650126 0.005065905 -0.005013089 -0.004717407 0.004757067 -0.005063445 -0.004849089 -0.00427336 -0.005021935 -0.004812851 -0.004616861 -0.004957417 -0.004754488 -0.004931067 -0.003172302 -0.003077665 -0.006948423 -0.002900304 -0.002819552 -0.006974121 0.003131023 0.002908841 -0.007010641 0.003379833 0.003145679 -0.006955588 0.003607253 0.003362497 -0.006868617 0.005058638 0.004763805 -0.004419553 0.005075532 0.004783334 -0.004044588 0.005075532 0.004853228 0.003482648 -0.003131023 -0.002908841 0.007010641 -0.003379833 -0.003145679 0.006955588 -0.003607253 -0.003362497 0.006868617 -0.005058638 -0.004763805 0.004419553 -0.005075532 -0.004783334 0.004044588</float_array>
          <technique_common>
            <accessor count="288" source="#verts-array-array" stride="3">
              <param type="float" name="X"/>
              <param type="float" name="Y"/>
              <param type="float" name="Z"/>
            </accessor>
          </technique_common>
        </source>
        <source id="normals-array">
          <float_array count="864" id="normals-array-array">-0.003241104 0.02054377 -0.9997837 0.0597686 0.088478 -0.9942833 0.002859133 0.02732411 -0.9996225 -0.01564752 0.007191362 -0.9998517 0.03793546 0.06516627 -0.9971531 0.09994923 0.1319042 -0.9862106 0.1353833 0.1689009 -0.9762909 0.1672859 0.2032157 -0.9647377 0.2072376 0.2444486 -0.9472579 0.2365952 0.2756196 -0.9316955 0.2742585 0.3138867 -0.908987 0.3064709 0.3474956 -0.8861842 0.3366031 0.3775059 -0.8626631 0.3752756 0.4169885 -0.8278217 0.3942716 0.4354569 -0.8092757 0.4410243 0.4819546 -0.7571112 0.4477415 0.4883196 -0.7490471 0.5017683 0.5403756 -0.6754427 0.4972571 0.5363576 -0.6819501 0.5557825 0.5905938 -0.5850681 0.5424365 0.5791694 -0.6085437 0.6018378 0.6315843 -0.4887663 0.5833176 0.6166868 -0.528619 0.6393328 0.6630392 -0.3894003 0.6199036 0.6487266 -0.4414446 0.6682504 0.685253 -0.2896026 0.6516826 0.6746109 -0.346713 0.6890375 0.6989665 -0.1915024 0.67781 0.6934078 -0.244457 0.7024364 0.7051567 -0.09662901 0.6977256 0.70419 -0.1315123 0.7081225 0.7055218 -0.02831065 0.7073154 0.7058279 -0.03888384 0.7092413 0.7049354 -0.006545658 0.7092413 0.7049354 -0.006545658 0.7092413 0.7049354 -0.006545658 0.7092413 0.7049354 -0.006545658 0.7076651 0.706244 0.02072483 0.7083193 0.7057963 0.01163728 0.6998621 0.7066563 0.1040671 0.7033716 0.7071465 0.07219548 0.691127 0.7040939 0.1630808 0.6820637 0.6992086 0.2142348 0.671506 0.6935201 0.260978 0.6569953 0.6833932 0.3183254 0.6439333 0.6745251 0.361062 0.6260712 0.6603399 0.4147119 0.6079134 0.6463256 0.461199 0.5900726 0.6309461 0.5037077 0.5633335 0.608488 0.5589256 0.549636 0.5959769 0.5854159 0.5106993 0.561212 0.6513274 0.5048546 0.5556563 0.6605815 0.4511095 0.5053606 0.7356024 0.4556913 0.5099837 0.7295629 0.3862071 0.4424741 0.8093582 0.402571 0.4593238 0.7918069 0.3179297 0.3745461 0.8709971 0.3453953 0.4034772 0.8472946 0.2482105 0.303697 0.9198694 0.283732 0.3418388 0.8959031 0.1787887 0.2319154 0.9561641 0.2174595 0.274091 0.9367953 0.1110354 0.1608477 0.9807136 0.1466725 0.2001828 0.9687177 0.04590995 0.09170236 0.9947276 0.06929522 0.117708 0.9906276 -0.0007952286 0.04171122 0.9991294 0.006284125 0.04960272 0.9987493 -0.01564752 0.02575671 0.9995458 -0.01564752 0.02575671 0.9995458 -0.01564752 0.02575671 0.9995458 -0.01564752 0.02575671 0.9995458 -0.03670314 0.00830756 0.9992917 -0.02961959 0.01405265 0.9994625 -0.100653 -0.04543407 0.9938837 -0.07627601 -0.02480055 0.9967783 -0.146013 -0.0834073 0.9857603 -0.184691 -0.1169889 0.9758088 -0.2204937 -0.1471975 0.9642175 -0.2635644 -0.1851466 0.9467072 -0.2960594 -0.2130144 0.9311142 -0.3360022 -0.2488817 0.9083834 -0.3710116 -0.2795458 0.8855532 -0.4023136 -0.3083245 0.8620207 -0.4434096 -0.3452556 0.8271557 -0.4626585 -0.3634577 0.8086072 -0.5110153 -0.4082667 0.7564269 -0.5176425 -0.4147264 0.7483637 -0.5717256 -0.4667231 0.6747588 -0.5675412 -0.4623611 0.681263 -0.6238172 -0.5189655 0.584403 -0.6119391 -0.5059956 0.6078643 -0.6662291 -0.5637919 0.4881368 -0.6507682 -0.5456734 0.5279596 -0.6986494 -0.6005894 0.3888205 -0.6838389 -0.5814142 0.4408196 -0.7213958 -0.6293005 0.289083 -0.710445 -0.6127446 0.3461386 -0.7352508 -0.6503122 0.1910506 -0.7296129 -0.6388687 0.2439505 -0.7412424 -0.6643009 0.09624965 -0.740358 -0.6593057 0.1310956 -0.7412662 -0.6706274 0.02798663 -0.7416284 -0.6697025 0.0385484 -0.7405364 -0.6719873 0.006239719 -0.7405364 -0.6719873 0.006239719 -0.7405364 -0.6719873 0.006239719 -0.7405364 -0.6719873 0.006239719 -0.7415091 -0.6706123 -0.02105569 -0.74118 -0.6711999 -0.01195853 -0.7407465 -0.6636124 -0.1044668 -0.7417122 -0.6667808 -0.0725703 -0.7371907 -0.655597 -0.1635311 -0.7313713 -0.6472965 -0.2147168 -0.7247138 -0.6375019 -0.2614982 -0.713322 -0.6240912 -0.318876 -0.7033975 -0.6119199 -0.3616433 -0.6878149 -0.5953349 -0.4153155 -0.6724541 -0.5783758 -0.46183 -0.6557831 -0.5617646 -0.50435 -0.6314675 -0.5367551 -0.5595916 -0.6180229 -0.5239778 -0.5860844 -0.5806902 -0.4875241 -0.6520116 -0.5747556 -0.4820631 -0.6612648 -0.5210668 -0.4317082 -0.7362863 -0.5259754 -0.4359872 -0.73025 -0.4542418 -0.3708458 -0.8100233 -0.4720735 -0.3861501 -0.7924864 -0.382321 -0.3067537 -0.8716266 -0.4128459 -0.3324638 -0.847954 -0.3075272 -0.2412472 -0.9204493 -0.3476673 -0.2745264 -0.8965281 -0.2319341 -0.1759629 -0.9566837 -0.2762219 -0.2122247 -0.9373698 -0.1572487 -0.1121934 -0.9811654 -0.1984754 -0.1456436 -0.9692242 -0.084716 -0.05084656 -0.9951069 -0.1119277 -0.07282363 -0.9910444 -0.03234851 -0.006816803 -0.9994534 -0.04059712 -0.01347729 -0.9990847 -0.01564752 0.007191362 -0.9998517 -0.01564752 0.007191362 -0.9998517 -0.01564752 0.007191362 -0.9998517 -0.6886688 0.7250448 -0.006732383 -0.6886688 0.7250448 -0.006732383 -0.6886688 0.7250448 -0.006732383 -0.6886688 0.7250448 -0.006732383 -0.6886688 0.7250448 -0.006732383 -0.6886688 0.7250448 -0.006732383 -0.6886688 0.7250448 -0.006732383 -0.6886688 0.7250448 -0.006732383 -0.6886688 0.7250448 -0.006732383 -0.6886688 0.7250448 -0.006732383 -0.6886688 0.7250448 -0.006732383 -0.6886688 0.7250448 -0.006732383 -0.6886688 0.7250448 -0.006732383 -0.6886688 0.7250448 -0.006732383 -0.6886688 0.7250448 -0.006732383 -0.6886688 0.7250448 -0.006732383 -0.6886688 0.7250448 -0.006732383 -0.6886688 0.7250448 -0.006732383 -0.6886688 0.7250448 -0.006732383 -0.6886688 0.7250448 -0.006732383 -0.6886688 0.7250448 -0.006732383 -0.6886688 0.7250448 -0.006732383 -0.6886688 0.7250448 -0.006732383 -0.6886688 0.7250448 -0.006732383 -0.6886688 0.7250448 -0.006732383 -0.6886688 0.7250448 -0.006732383 -0.6886688 0.7250448 -0.006732383 -0.6886688 0.7250448 -0.006732383 -0.6886688 0.7250448 -0.006732383 -0.6886688 0.7250448 -0.006732383 -0.6886688 0.7250448 -0.006732383 -0.6886688 0.7250448 -0.006732383 -0.6886688 0.7250448 -0.006732383 -0.6886688 0.7250448 -0.006732383 -0.6886688 0.7250448 -0.006732383 -0.6886688 0.7250448 -0.006732383 -0.6886688 0.7250448 -0.006732383 -0.6886688 0.7250448 -0.006732383 -0.6886688 0.7250448 -0.006732383 -0.6886688 0.7250448 -0.006732383 -0.6886688 0.7250448 -0.006732383 -0.6886688 0.7250448 -0.006732383 -0.6886688 0.7250448 -0.006732383 -0.6886688 0.7250448 -0.006732383 -0.6886688 0.7250448 -0.006732383 -0.6886688 0.7250448 -0.006732383 -0.6886688 0.7250448 -0.006732383 -0.6886688 0.7250448 -0.006732383 -0.6886688 0.7250448 -0.006732383 -0.6886688 0.7250448 -0.006732383 -0.6886688 0.7250448 -0.006732383 -0.6886688 0.7250448 -0.006732383 -0.6886688 0.7250448 -0.006732383 -0.6886688 0.7250448 -0.006732383 -0.6886688 0.7250448 -0.006732383 -0.6886688 0.7250448 -0.006732383 -0.6886688 0.7250448 -0.006732383 -0.6886688 0.7250448 -0.006732383 -0.6886688 0.7250448 -0.006732383 -0.6886688 0.7250448 -0.006732383 -0.6886688 0.7250448 -0.006732383 -0.6886688 0.7250448 -0.006732383 -0.6886688 0.7250448 -0.006732383 -0.6886688 0.7250448 -0.006732383 -0.6886688 0.7250448 -0.006732383 -0.6886688 0.7250448 -0.006732383 -0.6886688 0.7250448 -0.006732383 -0.6886688 0.7250448 -0.006732383 -0.6886688 0.7250448 -0.006732383 -0.6886688 0.7250448 -0.006732383 -0.6886688 0.7250448 -0.006732383 -0.6886688 0.7250448 -0.006732383 0.6886688 -0.7250448 0.006732383 0.6886688 -0.7250448 0.006732383 0.6886688 -0.7250448 0.006732383 0.6886688 -0.7250448 0.006732383 0.6886688 -0.7250448 0.006732383 0.6886688 -0.7250448 0.006732383 0.6886688 -0.7250448 0.006732383 0.6886688 -0.7250448 0.006732383 0.6886688 -0.7250448 0.006732383 0.6886688 -0.7250448 0.006732383 0.6886688 -0.7250448 0.006732383 0.6886688 -0.7250448 0.006732383 0.6886688 -0.7250448 0.006732383 0.6886688 -0.7250448 0.006732383 0.6886688 -0.7250448 0.006732383 0.6886688 -0.7250448 0.006732383 0.6886688 -0.7250448 0.006732383 0.6886688 -0.7250448 0.006732383 0.6886688 -0.7250448 0.006732383 0.6886688 -0.7250448 0.006732383 0.6886688 -0.7250448 0.006732383 0.6886688 -0.7250448 0.006732383 0.6886688 -0.7250448 0.006732383 0.6886688 -0.7250448 0.006732383 0.6886688 -0.7250448 0.006732383 0.6886688 -0.7250448 0.006732383 0.6886688 -0.7250448 0.006732383 0.6886688 -0.7250448 0.006732383 0.6886688 -0.7250448 0.006732383 0.6886688 -0.7250448 0.006732383 0.6886688 -0.7250448 0.006732383 0.6886688 -0.7250448 0.006732383 0.6886688 -0.7250448 0.006732383 0.6886688 -0.7250448 0.006732383 0.6886688 -0.7250448 0.006732383 0.6886688 -0.7250448 0.006732383 0.6886688 -0.7250448 0.006732383 0.6886688 -0.7250448 0.006732383 0.6886688 -0.7250448 0.006732383 0.6886688 -0.7250448 0.006732383 0.6886688 -0.7250448 0.006732383 0.6886688 -0.7250448 0.006732383 0.6886688 -0.7250448 0.006732383 0.6886688 -0.7250448 0.006732383 0.6886688 -0.7250448 0.006732383 0.6886688 -0.7250448 0.006732383 0.6886688 -0.7250448 0.006732383 0.6886688 -0.7250448 0.006732383 0.6886688 -0.7250448 0.006732383 0.6886688 -0.7250448 0.006732383 0.6886688 -0.7250448 0.006732383 0.6886688 -0.7250448 0.006732383 0.6886688 -0.7250448 0.006732383 0.6886688 -0.7250448 0.006732383 0.6886688 -0.7250448 0.006732383 0.6886688 -0.7250448 0.006732383 0.6886688 -0.7250448 0.006732383 0.6886688 -0.7250448 0.006732383 0.6886688 -0.7250448 0.006732383 0.6886688 -0.7250448 0.006732383 0.6886688 -0.7250448 0.006732383 0.6886688 -0.7250448 0.006732383 0.6886688 -0.7250448 0.006732383 0.6886688 -0.7250448 0.006732383 0.6886688 -0.7250448 0.006732383 0.6886688 -0.7250448 0.006732383 0.6886688 -0.7250448 0.006732383 0.6886688 -0.7250448 0.006732383 0.6886688 -0.7250448 0.006732383 0.6886688 -0.7250448 0.006732383 0.6886688 -0.7250448 0.006732383 0.6886688 -0.7250448 0.006732383</float_array>
          <technique_common>
            <accessor count="288" source="#normals-array-array" stride="3">
              <param type="float" name="X"/>
              <param type="float" name="Y"/>
              <param type="float" name="Z"/>
            </accessor>
          </technique_common>
        </source>
        <vertices id="verts-array-vertices">
          <input semantic="POSITION" source="#verts-array"/>
        </vertices>
        <triangles count="284" material="material0">
          <input offset="0" semantic="VERTEX" source="#verts-array-vertices"/>
          <input offset="1" semantic="NORMAL" source="#normals-array"/>
          <p>0 0 1 1 2 2 0 0 2 2 3 3 0 0 4 4 1 1 5 5 1 1 4 4 1 1 5 5 6 6 7 7 6 6 5 5 6 6 7 7 8 8 9 9 8 8 7 7 8 8 9 9 10 10 11 11 10 10 9 9 10 10 11 11 12 12 13 13 12 12 11 11 12 12 13 13 14 14 15 15 14 14 13 13 14 14 15 15 16 16 17 17 16 16 15 15 16 16 17 17 18 18 19 19 18 18 17 17 18 18 19 19 20 20 21 21 20 20 19 19 20 20 21 21 22 22 23 23 22 22 21 21 22 22 23 23 24 24 25 25 24 24 23 23 24 24 25 25 26 26 27 27 26 26 25 25 26 26 27 27 28 28 29 29 28 28 27 27 28 28 29 29 30 30 31 31 30 30 29 29 30 30 31 31 32 32 33 33 32 32 31 31 32 32 33 33 34 34 35 35 34 34 33 33 34 34 35 35 36 36 36 36 35 35 37 37 38 38 37 37 35 35 37 37 38 38 39 39 38 38 40 40 39 39 41 41 39 39 40 40 39 39 41 41 42 42 43 43 42 42 41 41 42 42 43 43 44 44 45 45 44 44 43 43 44 44 45 45 46 46 47 47 46 46 45 45 46 46 47 47 48 48 49 49 48 48 47 47 48 48 49 49 50 50 51 51 50 50 49 49 50 50 51 51 52 52 53 53 52 52 51 51 52 52 53 53 54 54 55 55 54 54 53 53 54 54 55 55 56 56 57 57 56 56 55 55 56 56 57 57 58 58 59 59 58 58 57 57 58 58 59 59 60 60 61 61 60 60 59 59 60 60 61 61 62 62 63 63 62 62 61 61 62 62 63 63 64 64 65 65 64 64 63 63 64 64 65 65 66 66 67 67 66 66 65 65 66 66 67 67 68 68 69 69 68 68 67 67 68 68 69 69 70 70 71 71 70 70 69 69 70 70 71 71 72 72 72 72 71 71 73 73 74 74 73 73 71 71 73 73 74 74 75 75 74 74 76 76 75 75 77 77 75 75 76 76 75 75 77 77 78 78 79 79 78 78 77 77 78 78 79 79 80 80 81 81 80 80 79 79 80 80 81 81 82 82 83 83 82 82 81 81 82 82 83 83 84 84 85 85 84 84 83 83 84 84 85 85 86 86 87 87 86 86 85 85 86 86 87 87 88 88 89 89 88 88 87 87 88 88 89 89 90 90 91 91 90 90 89 89 90 90 91 91 92 92 93 93 92 92 91 91 92 92 93 93 94 94 95 95 94 94 93 93 94 94 95 95 96 96 97 97 96 96 95 95 96 96 97 97 98 98 99 99 98 98 97 97 98 98 99 99 100 100 101 101 100 100 99 99 100 100 101 101 102 102 103 103 102 102 101 101 102 102 103 103 104 104 105 105 104 104 103 103 104 104 105 105 106 106 107 107 106 106 105 105 106 106 107 107 108 108 108 108 107 107 109 109 110 110 109 109 107 107 109 109 110 110 111 111 110 110 112 112 111 111 113 113 111 111 112 112 111 111 113 113 114 114 115 115 114 114 113 113 114 114 115 115 116 116 117 117 116 116 115 115 116 116 117 117 118 118 119 119 118 118 117 117 118 118 119 119 120 120 121 121 120 120 119 119 120 120 121 121 122 122 123 123 122 122 121 121 122 122 123 123 124 124 125 125 124 124 123 123 124 124 125 125 126 126 127 127 126 126 125 125 126 126 127 127 128 128 129 129 128 128 127 127 128 128 129 129 130 130 131 131 130 130 129 129 130 130 131 131 132 132 133 133 132 132 131 131 132 132 133 133 134 134 135 135 134 134 133 133 134 134 135 135 136 136 137 137 136 136 135 135 136 136 137 137 138 138 139 139 138 138 137 137 138 138 139 139 140 140 141 141 140 140 139 139 140 140 141 141 142 142 3 3 142 142 141 141 142 142 3 3 143 143 2 2 143 143 3 3 144 144 145 145 146 146 147 147 146 146 145 145 146 146 147 147 148 148 149 149 148 148 147 147 148 148 149 149 150 150 151 151 150 150 149 149 152 152 146 146 153 153 154 154 153 153 146 146 153 153 154 154 155 155 156 156 155 155 154 154 155 155 156 156 157 157 158 158 157 157 156 156 157 157 158 158 159 159 160 160 159 159 158 158 159 159 160 160 161 161 162 162 161 161 160 160 161 161 162 162 163 163 164 164 163 163 162 162 163 163 164 164 165 165 166 166 165 165 164 164 152 152 167 167 146 146 168 168 146 146 167 167 146 146 168 168 144 144 169 169 144 144 168 168 144 144 169 169 170 170 171 171 170 170 169 169 170 170 171 171 172 172 173 173 172 172 171 171 172 172 173 173 174 174 175 175 174 174 173 173 174 174 175 175 176 176 177 177 176 176 175 175 176 176 177 177 178 178 179 179 178 178 177 177 178 178 179 179 180 180 181 181 180 180 179 179 180 180 181 181 182 182 183 183 182 182 181 181 184 184 149 149 185 185 186 186 185 185 149 149 185 185 186 186 187 187 188 188 187 187 186 186 187 187 188 188 189 189 190 190 189 189 188 188 189 189 190 190 191 191 192 192 191 191 190 190 191 191 192 192 193 193 194 194 193 193 192 192 193 193 194 194 195 195 196 196 195 195 194 194 195 195 196 196 197 197 198 198 197 197 196 196 184 184 199 199 149 149 200 200 149 149 199 199 149 149 200 200 151 151 201 201 151 151 200 200 151 151 201 201 202 202 203 203 202 202 201 201 202 202 203 203 204 204 205 205 204 204 203 203 204 204 205 205 206 206 207 207 206 206 205 205 206 206 207 207 208 208 209 209 208 208 207 207 208 208 209 209 210 210 211 211 210 210 209 209 210 210 211 211 212 212 213 213 212 212 211 211 212 212 213 213 214 214 215 215 214 214 213 213 216 216 217 217 218 218 219 219 218 218 217 217 216 216 218 218 220 220 221 221 220 220 218 218 220 220 221 221 222 222 220 220 223 223 216 216 224 224 216 216 223 223 216 216 224 224 225 225 226 226 227 227 228 228 229 229 228 228 227 227 228 228 229 229 230 230 231 231 232 232 219 219 233 233 219 219 232 232 219 219 233 233 234 234 235 235 236 236 222 222 237 237 222 222 236 236 222 222 237 237 238 238 239 239 240 240 228 228 241 241 228 228 240 240 228 228 241 241 226 226 242 242 243 243 225 225 244 244 225 225 243 243 225 225 244 244 245 245 246 246 247 247 219 219 248 248 219 219 247 247 219 219 248 248 231 231 249 249 250 250 222 222 251 251 222 222 250 250 222 222 251 251 235 235 252 252 253 253 225 225 254 254 225 225 253 253 225 225 254 254 242 242 230 230 255 255 228 228 256 256 228 228 255 255 228 228 256 256 257 257 234 234 258 258 219 219 259 259 219 219 258 258 219 219 259 259 260 260 238 238 261 261 222 222 262 262 222 222 261 261 222 222 262 262 263 263 264 264 265 265 228 228 266 266 228 228 265 265 228 228 266 266 239 239 257 257 267 267 228 228 220 220 228 228 267 267 228 228 220 220 268 268 245 245 269 269 225 225 270 270 225 225 269 269 225 225 270 270 271 271 272 272 273 273 219 219 274 274 219 219 273 273 219 219 274 274 246 246 260 260 275 275 219 219 276 276 219 219 275 275 219 219 276 276 218 218 277 277 278 278 222 222 279 279 222 222 278 278 222 222 279 279 249 249 263 263 280 280 222 222 281 281 222 222 280 280 222 222 281 281 220 220 282 282 220 220 281 281 220 220 282 282 268 268 283 283 284 284 225 225 285 285 225 225 284 284 225 225 285 285 252 252 271 271 286 286 225 225 287 287 225 225 286 286 225 225 287 287 216 216</p>
        </triangles>
      </mesh>
    </geometry>
  </library_geometries>
  <library_materials>
    <material id="d026c8beff4640f7ab6c8ac4de1c3ce4" name="defaultmaterial">
      <instance_effect url="#71fbea08839c4e51bcb8da386b958555"/>
    </material>
  </library_materials>
  <library_visual_scenes>
    <visual_scene id="scene">
      <node id="node0" name="node0">
        <instance_geometry url="#fc90521cabd24e578db4c5cdaad59e33">
          <bind_material>
            <technique_common>
              <instance_material symbol="material0" target="#d026c8beff4640f7ab6c8ac4de1c3ce4"/>
            </technique_common>
          </bind_material>
        </instance_geometry>
      </node>
    </visual_scene>
  </library_visual_scenes>
  <scene>
    <instance_visual_scene url="#scene"/>
  </scene>
</COLLADA>
