<COLLADA xmlns="http://www.collada.org/2005/11/COLLADASchema" version="1.4.1">
  <asset>
    <created>2026-09-27T18:30:25.093704</created>
    <modified>2026-09-27T18:30:25.093704</modified>
    <up_axis>Y_UP</up_axis>
  </asset>
  <library_effects>
    <effect id="432496fcfd1d4308bc59868328b9ed90" name="432496fcfd1d4308bc59868328b9ed90">
      <profile_COMMON>
        <technique sid="common">
          <phong>
            <emission>
              <color>0.0 0.0 0.0 1.0</color>
            </emission>
            <ambient>
              <color>0.0 0.0 0.0 1.0</color>
            </ambient>
            <diffuse>
              <color>0.8941176470588236 0.8941176470588236 0.8941176470588236 1.0</color>
            </diffuse>
            <specular>
              <color>0.0 0.0 0.0 1.0</color>
            </specular>
            <shininess>
              <float>0.0</float>
            </shininess>
            <reflective>
              <color>0.0 0.0 0.0 1.0</color>
            </reflective>
            <reflectivity>
              <float>0.0</float>
            </reflectivity>
            <transparent>
              <color>0.0 0.0 0.0 1.0</color>
            </transparent>
            <transparency>
              <float>1.0</float>
            </transparency>
          </phong>
        </technique>
        <extra>
          <technique profile="GOOGLEEARTH">
            <double_sided>0</double_sided>
          </technique>
        </extra>
      </profile_COMMON>
    </effect>
  </library_effects>
  <library_geometries>
    <geometry id="366a18fe02554fa8aeda952e11bd8acb" name="c2fffcd87c734a129c803effe087218d">
      <mesh>
        <source id="verts-array">
          <float_array count="1251" id="verts-array-array">-0.02347873 0.03429641 0.005245519 -0.02361931 0.0341655 0.005527037 -0.009076455 0.01971251 0.00637778 -0.03226954 0.02595661 0.006319511 -0.03247278 0.02576179 0.006127432 -0.01887459 0.0104104 0.006856342 -0.03299209 0.0251578 -0.005797584 -0.03285151 0.02528871 -0.006079102 -0.01915894 0.01001487 -0.006653818 -0.02420128 0.0334976 -0.006871576 -0.02399804 0.03369242 -0.006679497 -0.009360808 0.01931698 -0.007132379 -0.02316402 0.03450557 -0.00442138 -0.02315988 0.03451044 -0.004320621 -0.008679628 0.01998508 -0.004859965 -0.02315988 0.03451317 -0.004026823 -0.008679628 0.01999315 -0.003991272 -0.02315988 0.03452014 -0.003275706 -0.008679628 0.02000939 -0.002241728 -0.02344897 0.03422209 -0.005802877 -0.02338063 0.03428856 -0.005635507 -0.008805458 0.01985411 -0.006094202 -0.02328497 0.03438232 -0.005322204 -0.008719957 0.01993897 -0.005701043 -0.009903731 0.01879754 -0.007537134 -0.01019118 0.01852359 -0.007636235 -0.02488697 0.03284288 -0.007240903 -0.02469847 0.03302256 -0.007172239 -0.02464849 0.03307021 -0.00715403 -0.009624381 0.01906442 -0.007370565 -0.02441891 0.03328942 -0.00703032 -0.02434707 0.03335813 -0.006977916 -0.009128066 0.01954087 -0.006827745 -0.02381231 0.03387091 -0.006457025 -0.02368959 0.03398918 -0.006272215 -0.008940881 0.01972195 -0.006474271 -0.0236459 0.0340313 -0.006206423 -0.02350148 0.03417102 -0.005931479 -0.0232158 0.03445106 -0.004996028 -0.02319761 0.03446968 -0.004850445 -0.008681347 0.01997943 -0.005293341 -0.02317387 0.03449399 -0.004660423 -0.03221236 0.02588872 -0.006841976 -0.03209056 0.02600352 -0.006937296 -0.0184026 0.01072609 -0.007426375 -0.03186277 0.02621864 -0.007071219 -0.01811697 0.01099627 -0.007546809 -0.0194559 0.00973978 -0.005902451 -0.0195296 0.009673467 -0.005505379 -0.03326428 0.02490808 -0.004849535 -0.03321328 0.02495409 -0.005109953 -0.03319976 0.0249663 -0.005179 -0.01933334 0.00985261 -0.006288786 -0.03310859 0.02504995 -0.00549642 -0.03307013 0.02508555 -0.005595825 -0.01893656 0.01022309 -0.006976755 -0.03268901 0.02544067 -0.006336684 -0.03255422 0.02556712 -0.006507116 -0.01867906 0.01046526 -0.007237175 -0.03250623 0.02561213 -0.006567796 -0.03230594 0.02580051 -0.006768724 -0.03162581 0.0264428 -0.007168715 -0.03152013 0.02654294 -0.007194726 -0.0178211 0.01127678 -0.007602666 -0.0313822 0.02667364 -0.007228681 -0.0312088 0.02683819 -0.007243789 -0.03113571 0.02690756 -0.007250154 -0.01750684 0.01157522 -0.007607807 -0.03092268 0.02710988 -0.007252032 -0.01687695 0.01217346 -0.007613362 -0.03037804 0.02762716 -0.007256835 -0.01560834 0.01337832 -0.00762455 -0.02936034 0.02859372 -0.00726581 -0.01049232 0.01823725 -0.007669667 -0.02533511 0.03241667 -0.007301308 -0.02513114 0.0326105 -0.007289938 -0.02503167 0.03270517 -0.007269966 -0.03302185 0.02523212 0.005250812 -0.03309019 0.02516566 0.005083442 -0.01942994 0.009873273 0.005818164 -0.03318584 0.02507189 0.004770139 -0.01951544 0.009788411 0.005425005 -0.01833167 0.01092984 0.007261096 -0.01804422 0.01120379 0.007360197 -0.03158385 0.02661134 0.006688838 -0.03177235 0.02643165 0.006620173 -0.03182233 0.02638401 0.006601965 -0.01861102 0.01066296 0.007094527 -0.03205191 0.0261648 0.006478255 -0.03212375 0.02609608 0.006425851 -0.01910733 0.01018651 0.006551707 -0.03265851 0.02558331 0.005904959 -0.03278123 0.02546503 0.005720149 -0.01929452 0.01000543 0.006198234 -0.03282492 0.02542292 0.005654358 -0.03296934 0.0252832 0.005379413 -0.03325502 0.02500316 0.004443963 -0.03327321 0.02498453 0.00429838 -0.01955405 0.009747953 0.005017303 -0.03329695 0.02496022 0.004108357 -0.03330679 0.02494865 0.003869314 -0.03331094 0.02494377 0.003768555 -0.01955577 0.009742296 0.004583927 -0.03331094 0.02494105 0.003474758 -0.01955577 0.00973423 0.003715235 -0.03331094 0.02493407 0.00272364 -0.01955577 0.009717985 0.00196569 -0.03331094 0.02492104 0.001320121 -0.01955577 0.009652471 -0.005089846 -0.02425846 0.0335655 0.006289911 -0.02438026 0.03345069 0.006385231 -0.009832797 0.01900129 0.007150337 -0.02460805 0.03323558 0.006519154 -0.01011843 0.01873111 0.007270771 -0.008779493 0.0199876 0.005626414 -0.008705796 0.02005391 0.005229341 -0.01594351 0.02731113 0.004663863 -0.008686364 0.02007048 0.005025718 -0.01591975 0.02732982 0.004246421 -0.008679628 0.02007491 0.004813808 -0.02325754 0.03450012 0.004557888 -0.02327106 0.03448792 0.004626934 -0.00890206 0.01987477 0.006012748 -0.02336223 0.03440427 0.004944355 -0.02340069 0.03436866 0.005043759 -0.009298836 0.01950429 0.006700718 -0.02378181 0.03401354 0.005784619 -0.0239166 0.0338871 0.00595505 -0.00955634 0.01926212 0.006961137 -0.02396459 0.03384208 0.006015731 -0.02416488 0.03365371 0.006216658 -0.024845 0.03301142 0.006616649 -0.02495068 0.03291128 0.00664266 -0.0104143 0.0184506 0.007326628 -0.02508862 0.03278058 0.006676615 -0.02526202 0.03261602 0.006691724 -0.02533511 0.03254666 0.006698088 -0.01072856 0.01815216 0.007331769 -0.02554814 0.03234433 0.006699967 -0.01135845 0.01755392 0.007337324 -0.02609278 0.03182706 0.00670477 -0.01262706 0.01634906 0.007348512 -0.02711048 0.0308605 0.006713745 -0.01774308 0.01149013 0.00739363 -0.03113571 0.02703755 0.006749243 -0.03133968 0.02684371 0.006737872 -0.03143915 0.02674904 0.0067179 -0.005800596 -0.005453131 0.006050891 -0.005651839 -0.005303655 0.006932101 -0.00525196 -0.00491752 0.007612475 -0.00509224 -0.004764543 0.007749331 -0.004980636 -0.00465765 0.007844952 -0.005557304 -0.005211957 0.007137259 -0.005486268 -0.005143054 0.007291405 -0.005426282 -0.005085315 0.007373603 -0.005273654 -0.004938402 0.007582748 -0.005791452 -0.005443397 0.006163916 -0.00576506 -0.005415298 0.006490219 -0.005750079 -0.005400527 0.006548704 -0.005668392 -0.005319978 0.0068675 0.004350469 0.004206387 0.007961284 0.004990392 0.004812248 0.00775049 0.005486293 0.005278108 0.00719464 0.005586549 0.005371281 0.006973485 0.005656599 0.005436381 0.006818954 -0.02320654 0.03454614 0.004297469 0.005139757 0.004952897 0.007618798 0.005251985 0.005058575 0.007519842 0.00531197 0.005114778 0.007436587 0.005464599 0.005257782 0.00722475 0.004432482 0.004284162 0.007947951 0.004669256 0.0045087 0.007909465 0.00471176 0.004548876 0.007888431 0.004943443 0.004767871 0.007773733 -0.004887928 -0.004569181 0.007889393 -0.004683717 -0.004374307 0.007987268 -0.004648341 -0.004340655 0.007992655 -0.004350443 -0.004057282 0.008038016 0.001856374 0.001837627 0.007983279 0.003375872 0.003280767 0.007969879 0.004091029 0.003959986 0.007963572 0.005800621 0.005453675 -0.006050901 0.005651864 0.005304199 -0.006932111 0.005251985 0.004918064 -0.007612485 0.005092265 0.004765087 -0.007749341 0.004980661 0.004658194 -0.007844962 0.005557329 0.005212501 -0.007137269 0.005486293 0.005143598 -0.007291415 0.005426308 0.005085859 -0.007373613 0.005273679 0.004938946 -0.007582758 0.005791478 0.005443941 -0.006163926 0.005765085 0.005415842 -0.006490229 0.005750105 0.005401071 -0.006548714 0.005668418 0.005320522 -0.00686751 -0.004350443 -0.004205843 -0.007961294 -0.004990367 -0.004811704 -0.0077505 -0.005486268 -0.005277564 -0.00719465 -0.005586524 -0.005370737 -0.006973495 -0.005656574 -0.005435837 -0.006818964 -0.005139732 -0.004952353 -0.007618808 -0.00525196 -0.005058031 -0.007519852 -0.005311945 -0.005114234 -0.007436597 -0.005464574 -0.005257238 -0.00722476 -0.004432457 -0.004283618 -0.007947961 -0.00466923 -0.004508155 -0.007909475 -0.004711734 -0.004548332 -0.007888441 -0.004943418 -0.004767326 -0.007773743 0.004887953 0.004569725 -0.007889403 0.004683743 0.004374851 -0.007987278 0.004648366 0.004341199 -0.007992665 0.004350469 0.004057826 -0.008038026 -0.001856349 -0.001837083 -0.007983289 -0.003375847 -0.003280223 -0.007969889 -0.004091004 -0.003959441 -0.007963582 -0.02315988 0.03453318 -0.001872186 -0.02315988 0.03458472 0.003679034 -0.02316943 0.03457826 0.003960407 -0.02318454 0.03456518 0.004097724 -0.03331094 0.02486949 -0.0042311 -0.03330139 0.02487595 -0.004512472 -0.03328627 0.02488903 -0.004649789 0.005689416 0.005466362 0.00669081 0.005761691 0.00553239 0.006408545 0.005765824 0.005535863 0.006359721 0.00578216 0.005549586 0.006166675 0.005800621 0.005565096 0.005948582 0.005800621 0.005485613 -0.002611279 0.005800621 0.005466155 -0.004706829 0.005800621 0.005456997 -0.005693107 -0.005689391 -0.005465818 -0.00669082 -0.005761666 -0.005531846 -0.006408555 -0.005765799 -0.005535319 -0.006359731 -0.005800596 -0.005564552 -0.005948592 -0.005800596 -0.005485069 0.002611269 -0.005800596 -0.005465611 0.004706819 -0.005800596 -0.005456453 0.005693096 -0.02488697 0.03284288 -0.007240903 -0.02503167 0.03270517 -0.007269966 -0.03296934 0.0252832 0.005379413 -0.03282492 0.02542292 0.005654358 -0.02368959 0.03398918 -0.006272215 -0.02381231 0.03387091 -0.006457025 -0.02399804 0.03369242 -0.006679497 -0.0232158 0.03445106 -0.004996028 -0.02328497 0.03438232 -0.005322204 -0.03143915 0.02674904 0.0067179 -0.02420128 0.0334976 -0.006871576 -0.02434707 0.03335813 -0.006977916 -0.02441891 0.03328942 -0.00703032 -0.03278123 0.02546503 0.005720149 -0.03265851 0.02558331 0.005904959 -0.03247278 0.02576179 0.006127432 -0.03177235 0.02643165 0.006620173 -0.03182233 0.02638401 0.006601965 -0.03205191 0.0261648 0.006478255 -0.02338063 0.03428856 -0.005635507 -0.02344897 0.03422209 -0.005802877 -0.02350148 0.03417102 -0.005931479 -0.03158385 0.02661134 0.006688838 -0.0236459 0.0340313 -0.006206423 -0.02464849 0.03307021 -0.00715403 -0.02469847 0.03302256 -0.007172239 -0.03226954 0.02595661 0.006319511 -0.03212375 0.02609608 0.006425851 -0.02508862 0.03278058 0.006676615 -0.02495068 0.03291128 0.00664266 -0.02319761 0.03446968 -0.004850445 -0.024845 0.03301142 0.006616649 -0.02460805 0.03323558 0.006519154 -0.02513114 0.0326105 -0.007289938 -0.02533511 0.03241667 -0.007301308 -0.03307013 0.02508555 -0.005595825 -0.02936034 0.02859372 -0.00726581 -0.03037804 0.02762716 -0.007256835 -0.03331094 0.02494105 0.003474758 -0.03331094 0.02493407 0.00272364 -0.03331094 0.02492104 0.001320121 -0.03133968 0.02684371 0.006737872 -0.03113571 0.02703755 0.006749243 -0.02711048 0.0308605 0.006713745 -0.02609278 0.03182706 0.00670477 -0.02554814 0.03234433 0.006699967 -0.02425846 0.0335655 0.006289911 -0.02315988 0.03453318 -0.001872186 -0.02315988 0.03452014 -0.003275706 -0.03092268 0.02710988 -0.007252032 -0.03113571 0.02690756 -0.007250154 -0.0312088 0.02683819 -0.007243789 -0.03319976 0.0249663 -0.005179 -0.03321328 0.02495409 -0.005109953 -0.03326428 0.02490808 -0.004849535 -0.03328627 0.02488903 -0.004649789 -0.03330139 0.02487595 -0.004512472 -0.03331094 0.02486949 -0.0042311 -0.02533511 0.03254666 0.006698088 -0.02526202 0.03261602 0.006691724 -0.02416488 0.03365371 0.006216658 -0.02396459 0.03384208 0.006015731 -0.0239166 0.0338871 0.00595505 -0.02315988 0.03451317 -0.004026823 -0.02315988 0.03451044 -0.004320621 -0.02316402 0.03450557 -0.00442138 -0.02438026 0.03345069 0.006385231 -0.02317387 0.03449399 -0.004660423 -0.03310859 0.02504995 -0.00549642 -0.02327106 0.03448792 0.004626934 -0.02325754 0.03450012 0.004557888 -0.02320654 0.03454614 0.004297469 -0.02318454 0.03456518 0.004097724 -0.02316943 0.03457826 0.003960407 -0.02315988 0.03458472 0.003679034 -0.03186277 0.02621864 -0.007071219 -0.03209056 0.02600352 -0.006937296 -0.03221236 0.02588872 -0.006841976 -0.03331094 0.02494377 0.003768555 -0.03330679 0.02494865 0.003869314 -0.03329695 0.02496022 0.004108357 -0.03162581 0.0264428 -0.007168715 -0.03250623 0.02561213 -0.006567796 -0.03255422 0.02556712 -0.006507116 -0.03152013 0.02654294 -0.007194726 -0.03268901 0.02544067 -0.006336684 -0.03285151 0.02528871 -0.006079102 -0.03327321 0.02498453 0.00429838 -0.03325502 0.02500316 0.004443963 -0.03318584 0.02507189 0.004770139 -0.03309019 0.02516566 0.005083442 -0.03302185 0.02523212 0.005250812 -0.02347873 0.03429641 0.005245519 -0.02340069 0.03436866 0.005043759 -0.02361931 0.0341655 0.005527037 -0.02378181 0.03401354 0.005784619 -0.02336223 0.03440427 0.004944355 -0.03230594 0.02580051 -0.006768724 -0.0313822 0.02667364 -0.007228681 -0.03299209 0.0251578 -0.005797584 -0.004091004 -0.003959441 -0.007963582 -0.003375847 -0.003280223 -0.007969889 -0.005750079 -0.005400527 0.006548704 -0.00525196 -0.00491752 0.007612475 -0.005273654 -0.004938402 0.007582748 -0.004711734 -0.004548332 -0.007888441 -0.00466923 -0.004508155 -0.007909475 -0.004432457 -0.004283618 -0.007947961 0.005139757 0.004952897 0.007618798 0.004990392 0.004812248 0.00775049 0.004943443 0.004767871 0.007773733 -0.00576506 -0.005415298 0.006490219 -0.005791452 -0.005443397 0.006163916 0.004980661 0.004658194 -0.007844962 0.005092265 0.004765087 -0.007749341 -0.004648341 -0.004340655 0.007992655 0.005251985 0.004918064 -0.007612485 0.005273679 0.004938946 -0.007582758 0.005426308 0.005085859 -0.007373613 0.005486293 0.005143598 -0.007291415 0.005557329 0.005212501 -0.007137269 0.005800621 0.005453675 -0.006050901 0.005800621 0.005456997 -0.005693107 -0.004683717 -0.004374307 0.007987268 -0.004887928 -0.004569181 0.007889393 -0.004350443 -0.004205843 -0.007961294 0.004350469 0.004057826 -0.008038026 0.004648366 0.004341199 -0.007992665 0.005761691 0.00553239 0.006408545 0.005765824 0.005535863 0.006359721 0.00471176 0.004548876 0.007888431 -0.004980636 -0.00465765 0.007844952 -0.00509224 -0.004764543 0.007749331 -0.005426282 -0.005085315 0.007373603 -0.005486268 -0.005143054 0.007291405 -0.005557304 -0.005211957 0.007137259 -0.001856349 -0.001837083 -0.007983289 0.004683743 0.004374851 -0.007987278 0.004887953 0.004569725 -0.007889403 0.004669256 0.0045087 0.007909465 0.004432482 0.004284162 0.007947951 0.004350469 0.004206387 0.007961284 -0.005651839 -0.005303655 0.006932101 -0.005668392 -0.005319978 0.0068675 -0.005800596 -0.005453131 0.006050891 -0.005800596 -0.005456453 0.005693096 -0.005800596 -0.005465611 0.004706819 0.005651864 0.005304199 -0.006932111 0.005668418 0.005320522 -0.00686751 0.005750105 0.005401071 -0.006548714 0.005689416 0.005466362 0.00669081 0.005656599 0.005436381 0.006818954 0.005586549 0.005371281 0.006973485 0.004091029 0.003959986 0.007963572 0.003375872 0.003280767 0.007969879 0.001856374 0.001837627 0.007983279 -0.005656574 -0.005435837 -0.006818964 -0.005586524 -0.005370737 -0.006973495 -0.005486268 -0.005277564 -0.00719465 -0.005464574 -0.005257238 -0.00722476 0.005765085 0.005415842 -0.006490229 0.005791478 0.005443941 -0.006163926 0.005800621 0.005466155 -0.004706829 0.005800621 0.005485613 -0.002611279 0.005800621 0.005565096 0.005948582 0.005251985 0.005058575 0.007519842 0.00531197 0.005114778 0.007436587 0.005464599 0.005257782 0.00722475 0.005486293 0.005278108 0.00719464 0.00578216 0.005549586 0.006166675 -0.004350443 -0.004057282 0.008038016 -0.005311945 -0.005114234 -0.007436597 -0.00525196 -0.005058031 -0.007519852 -0.005139732 -0.004952353 -0.007618808 -0.005800596 -0.005485069 0.002611269 -0.005800596 -0.005564552 -0.005948592 -0.005765799 -0.005535319 -0.006359731 -0.005761666 -0.005531846 -0.006408555 -0.005689391 -0.005465818 -0.00669082 -0.004943418 -0.004767326 -0.007773743 -0.004990367 -0.004811704 -0.0077505</float_array>
          <technique_common>
            <accessor count="417" source="#verts-array-array" stride="3">
              <param type="float" name="X"/>
              <param type="float" name="Y"/>
              <param type="float" name="Z"/>
            </accessor>
          </technique_common>
        </source>
        <source id="normals-array">
          <float_array count="1251" id="normals-array-array">0.5890657 0.6230781 0.5145632 0.541432 0.5799668 0.6086789 0.5358221 0.5752941 0.618006 -0.40663 -0.3194934 0.8559065 -0.4752064 -0.383967 0.7916743 -0.4822217 -0.3901289 0.7843862 -0.6477735 -0.5612694 -0.5151371 -0.6013967 -0.5168347 -0.6092651 -0.5963551 -0.5115636 -0.6185978 0.3479223 0.3813021 -0.8564805 0.4152416 0.4470991 -0.7922606 0.4216886 0.4538594 -0.784978 0.705264 0.7061515 -0.06287046 0.7071514 0.7062293 -0.03430843 0.7079275 0.7062238 -0.009303489 0.7080686 0.7061132 -0.006556594 0.7080686 0.7061132 -0.006556594 0.7080686 0.7061132 -0.006556594 0.7080686 0.7061132 -0.006556594 0.6033205 0.6257281 -0.4944378 0.6233457 0.6435377 -0.4441839 0.6479608 0.6655026 -0.3704769 0.6571865 0.6731036 -0.3391716 0.6857528 0.6953395 -0.215049 0.2103574 0.2431898 -0.9468941 0.09992318 0.1292937 -0.9865589 0.1254915 0.1560231 -0.9797493 0.1666183 0.1959633 -0.9663523 0.2031935 0.2326713 -0.9510923 0.3177814 0.3513821 -0.8806507 0.2768661 0.3097082 -0.9096296 0.3131394 0.3468238 -0.8841137 0.5147016 0.5440068 -0.6626755 0.4765037 0.5068658 -0.7183531 0.5060259 0.5343731 -0.67704 0.5911506 0.615559 -0.5211795 0.5327812 0.5593992 -0.6349934 0.5813127 0.6061899 -0.5427792 0.6828499 0.6932781 -0.2303942 0.6925023 0.6996782 -0.1757585 0.7041579 0.70617 -0.07406445 0.7000596 0.7041678 -0.1185933 -0.3828715 -0.3144606 -0.8686334 -0.3454777 -0.2808691 -0.8954093 -0.2908405 -0.2313789 -0.9283726 -0.2673664 -0.2106455 -0.9402892 -0.1742015 -0.1285388 -0.9762846 -0.710957 -0.6260829 -0.3202505 -0.7361713 -0.6571943 -0.1617019 -0.7322428 -0.6514253 -0.1986594 -0.7226361 -0.6420806 -0.2559874 -0.7122366 -0.6308578 -0.3077946 -0.6649667 -0.5782726 -0.4726734 -0.6849888 -0.5992905 -0.414296 -0.6674497 -0.5806877 -0.466168 -0.5074057 -0.4276141 -0.7481214 -0.5478535 -0.4658805 -0.6948467 -0.5172564 -0.4381104 -0.7351905 -0.4031471 -0.3319335 -0.8528145 -0.4862141 -0.409743 -0.7718203 -0.4189587 -0.3466499 -0.8392303 -0.1857599 -0.1386463 -0.9727643 -0.144468 -0.1028072 -0.9841543 -0.06793375 -0.03575567 -0.9970489 -0.1013831 -0.06518258 -0.9927098 -0.05923197 -0.02867086 -0.9978324 -0.03753399 -0.01005473 -0.9992448 -0.01891758 0.006647721 -0.9997989 -0.01679181 0.00839645 -0.9998238 -0.01679181 0.00839645 -0.9998238 -0.01679181 0.00839645 -0.9998238 -0.01679181 0.00839645 -0.9998238 -0.01679181 0.00839645 -0.9998238 0.01337238 0.03954468 -0.9991283 -0.001114235 0.02480405 -0.9996917 0.05049119 0.07862694 -0.9956247 0.08735164 0.1169606 -0.9892876 -0.6605098 -0.565518 0.4938787 -0.6788597 -0.5850914 0.4436412 -0.701378 -0.6092638 0.3699547 -0.7091532 -0.618392 0.3386636 -0.731678 -0.6469885 0.2146 -0.2624645 -0.1883303 0.9463847 -0.143408 -0.08351201 0.9861338 -0.1713537 -0.1077385 0.9793009 -0.2132318 -0.1468877 0.9658966 -0.2516306 -0.1816757 0.9506187 -0.3754237 -0.2906951 0.8800872 -0.3319695 -0.2516941 0.9090909 -0.3706648 -0.2862599 0.8835513 -0.5758991 -0.4795769 0.6620772 -0.5373592 -0.442796 0.7177582 -0.5659652 -0.4712677 0.676454 -0.6499762 -0.5536262 0.5206044 -0.5919443 -0.4971111 0.634415 -0.6403139 -0.5440723 0.5422024 -0.7296123 -0.6440457 0.2299371 -0.7359938 -0.6538894 0.1753333 -0.7421337 -0.6661883 0.0736932 -0.7403362 -0.6617637 0.1181996 -0.7420684 -0.6674032 0.06251066 -0.7419783 -0.6695628 0.03396796 -0.7417809 -0.6705822 0.00897254 -0.7416523 -0.6707556 0.006228283 -0.7416523 -0.6707556 0.006228283 -0.7416523 -0.6707556 0.006228283 -0.7416523 -0.6707556 0.006228283 -0.7416523 -0.6707556 0.006228283 -0.7421821 -0.6691703 -0.03710508 0.3256822 0.3746707 0.8680743 0.2899637 0.3393153 0.8948666 0.2374233 0.2876176 0.9278504 0.2153996 0.2653572 0.9397811 0.1282762 0.1768898 0.9758356 0.6587518 0.6810921 0.3196243 0.6889442 0.7012926 0.1831516 0.6941485 0.7038524 0.1508297 0.7026706 0.706935 0.08060376 0.7062262 0.7072475 0.0323351 0.7072699 0.7067745 0.01546269 0.6765102 0.6908066 0.2551866 0.6637995 0.6818534 0.3073211 0.6073244 0.6389596 0.4721099 0.6298854 0.6573046 0.4137573 0.6099243 0.6412517 0.4656056 0.4462082 0.4920441 0.7475231 0.4869981 0.5299503 0.6942518 0.457317 0.5012158 0.7346046 0.3443215 0.3938664 0.8522394 0.427051 0.4720311 0.7712419 0.3599576 0.4087675 0.8386535 0.1389975 0.1878787 0.9723072 0.1009765 0.148596 0.9837291 0.02995792 0.07573741 0.9966777 0.06110644 0.1075866 0.992316 0.02242766 0.06741921 0.9974726 0.002707097 0.04672119 0.9989043 -0.01493583 0.02899384 0.999468 -0.01679181 0.02696107 0.9994954 -0.01679181 0.02696107 0.9994954 -0.01679181 0.02696107 0.9994954 -0.01679181 0.02696107 0.9994954 -0.01679181 0.02696107 0.9994954 -0.04944353 -0.001568236 0.9987757 -0.03398266 0.01214669 0.9993486 -0.09035033 -0.03666241 0.995235 -0.13047 -0.07156471 0.9888661 -0.7421484 -0.6672512 0.06318006 -0.6789923 -0.5854356 0.4429837 -0.482122 -0.3901234 0.7844502 -0.4144054 -0.3270873 0.8492833 -0.3441382 -0.2630095 0.9013295 -0.6413176 -0.5456512 0.5394224 -0.5953514 -0.4995441 0.6292952 -0.5427172 -0.4476105 0.7107059 -0.5429627 -0.4475024 0.7105864 -0.7403911 -0.6619342 0.1168939 -0.7293824 -0.6436723 0.2317051 -0.7094261 -0.6186103 0.337692 -0.7090304 -0.6188686 0.3380497 0.02280329 0.06799732 0.9974249 0.2895906 0.338752 0.8952008 0.5359133 0.5752903 0.6179304 0.5842859 0.6184919 0.525431 0.6240246 0.652207 0.4303712 0.6866259 0.6993456 0.1986469 0.3582306 0.4065446 0.8404715 0.4228977 0.4689754 0.7753835 0.4816826 0.5253086 0.7014505 0.4814256 0.5254079 0.7015525 0.06021161 0.106632 0.9924738 0.1402128 0.1891676 0.9718827 0.2146688 0.2647162 0.9401291 0.2152447 0.2646246 0.9400231 -0.2675067 -0.1937708 0.9438713 -0.1889393 -0.124026 0.974125 -0.1043055 -0.04909233 0.9933329 -0.06214888 -0.01217206 0.9979927 -0.01679181 0.02696107 0.9994954 -0.01679181 0.02696107 0.9994954 -0.01679181 0.02696107 0.9994954 0.7051226 0.7062327 -0.06354202 0.6236901 0.6436589 -0.4435244 0.4216785 0.4537595 -0.7850411 0.3558445 0.3887414 -0.8498558 0.2887203 0.3213546 -0.9018713 0.5829153 0.6071384 -0.5399933 0.5353387 0.5627266 -0.6298819 0.481522 0.512038 -0.7113042 0.4814256 0.5122899 -0.711188 0.7002205 0.7042266 -0.1172866 0.6824816 0.6930504 -0.2321636 0.6574095 0.6733744 -0.3382005 0.6576505 0.6729624 -0.338552 -0.05982907 -0.02901582 -0.9977868 -0.3448927 -0.2805287 -0.8957414 -0.5963568 -0.5116542 -0.6185213 -0.6428468 -0.5568378 -0.5260035 -0.6794425 -0.5938619 -0.430913 -0.416633 -0.3450574 -0.8410424 -0.4829104 -0.4057928 -0.7759702 -0.5428777 -0.4608811 -0.7020487 -0.5429627 -0.4606204 -0.7021541 -0.1003822 -0.06433956 -0.9928665 -0.1871135 -0.1397896 -0.9723412 -0.2666854 -0.209952 -0.9406376 -0.2666246 -0.2105308 -0.9405254 0.2160267 0.2479701 -0.9443746 0.1426139 0.1727984 -0.9745779 0.06360474 0.09194293 -0.9937308 0.02460839 0.05169547 -0.9983597 -0.01679181 0.00839645 -0.9998238 -0.01679181 0.00839645 -0.9998238 -0.01679181 0.00839645 -0.9998238 0.7080686 0.7061132 -0.006556594 0.7071058 0.7069244 0.01610235 0.7013489 0.7070512 0.09048923 0.6947704 0.7047366 0.1436676 -0.7422027 -0.6699737 -0.01644546 -0.7412727 -0.6650133 -0.09095113 -0.7380495 -0.6591817 -0.1440917 0.6573044 0.6789153 0.3271466 0.6822865 0.6965077 0.2221759 0.699758 0.7059431 0.1094673 0.6995896 0.7061547 0.1091781 0.7047366 0.7074666 0.0532671 0.7080686 0.7061132 -0.006556594 0.7080686 0.7061132 -0.006556594 0.7080686 0.7061132 -0.006556594 -0.7087844 -0.6247161 -0.3276499 -0.728612 -0.6477353 -0.2226287 -0.7402307 -0.6633544 -0.1096335 -0.7422777 -0.6679432 -0.05362674 -0.7416523 -0.6707556 0.006228283 -0.7416523 -0.6707556 0.006228283 -0.7416523 -0.6707556 0.006228283 -0.6886688 0.7250448 -0.006732383 -0.6886688 0.7250448 -0.006732383 -0.6886688 0.7250448 -0.006732383 -0.6886688 0.7250448 -0.006732383 -0.6886688 0.7250448 -0.006732383 -0.6886688 0.7250448 -0.006732383 -0.6886688 0.7250448 -0.006732383 -0.6886688 0.7250448 -0.006732383 -0.6886688 0.7250448 -0.006732383 -0.6886688 0.7250448 -0.006732383 -0.6886688 0.7250448 -0.006732383 -0.6886688 0.7250448 -0.006732383 -0.6886688 0.7250448 -0.006732383 -0.6886688 0.7250448 -0.006732383 -0.6886688 0.7250448 -0.006732383 -0.6886688 0.7250448 -0.006732383 -0.6886688 0.7250448 -0.006732383 -0.6886688 0.7250448 -0.006732383 -0.6886688 0.7250448 -0.006732383 -0.6886688 0.7250448 -0.006732383 -0.6886688 0.7250448 -0.006732383 -0.6886688 0.7250448 -0.006732383 -0.6886688 0.7250448 -0.006732383 -0.6886688 0.7250448 -0.006732383 -0.6886688 0.7250448 -0.006732383 -0.6886688 0.7250448 -0.006732383 -0.6886688 0.7250448 -0.006732383 -0.6886688 0.7250448 -0.006732383 -0.6886688 0.7250448 -0.006732383 -0.6886688 0.7250448 -0.006732383 -0.6886688 0.7250448 -0.006732383 -0.6886688 0.7250448 -0.006732383 -0.6886688 0.7250448 -0.006732383 -0.6886688 0.7250448 -0.006732383 -0.6886688 0.7250448 -0.006732383 -0.6886688 0.7250448 -0.006732383 -0.6886688 0.7250448 -0.006732383 -0.6886688 0.7250448 -0.006732383 -0.6886688 0.7250448 -0.006732383 -0.6886688 0.7250448 -0.006732383 -0.6886688 0.7250448 -0.006732383 -0.6886688 0.7250448 -0.006732383 -0.6886688 0.7250448 -0.006732383 -0.6886688 0.7250448 -0.006732383 -0.6886688 0.7250448 -0.006732383 -0.6886688 0.7250448 -0.006732383 -0.6886688 0.7250448 -0.006732383 -0.6886688 0.7250448 -0.006732383 -0.6886688 0.7250448 -0.006732383 -0.6886688 0.7250448 -0.006732383 -0.6886688 0.7250448 -0.006732383 -0.6886688 0.7250448 -0.006732383 -0.6886688 0.7250448 -0.006732383 -0.6886688 0.7250448 -0.006732383 -0.6886688 0.7250448 -0.006732383 -0.6886688 0.7250448 -0.006732383 -0.6886688 0.7250448 -0.006732383 -0.6886688 0.7250448 -0.006732383 -0.6886688 0.7250448 -0.006732383 -0.6886688 0.7250448 -0.006732383 -0.6886688 0.7250448 -0.006732383 -0.6886688 0.7250448 -0.006732383 -0.6886688 0.7250448 -0.006732383 -0.6886688 0.7250448 -0.006732383 -0.6886688 0.7250448 -0.006732383 -0.6886688 0.7250448 -0.006732383 -0.6886688 0.7250448 -0.006732383 -0.6886688 0.7250448 -0.006732383 -0.6886688 0.7250448 -0.006732383 -0.6886688 0.7250448 -0.006732383 -0.6886688 0.7250448 -0.006732383 -0.6886688 0.7250448 -0.006732383 -0.6886688 0.7250448 -0.006732383 -0.6886688 0.7250448 -0.006732383 -0.6886688 0.7250448 -0.006732383 -0.6886688 0.7250448 -0.006732383 -0.6886688 0.7250448 -0.006732383 -0.6886688 0.7250448 -0.006732383 -0.6886688 0.7250448 -0.006732383 -0.6886688 0.7250448 -0.006732383 -0.6886688 0.7250448 -0.006732383 -0.6886688 0.7250448 -0.006732383 -0.6886688 0.7250448 -0.006732383 -0.6886688 0.7250448 -0.006732383 -0.6886688 0.7250448 -0.006732383 -0.6886688 0.7250448 -0.006732383 -0.6886688 0.7250448 -0.006732383 -0.6886688 0.7250448 -0.006732383 -0.6886688 0.7250448 -0.006732383 -0.6886688 0.7250448 -0.006732383 -0.6886688 0.7250448 -0.006732383 -0.6886688 0.7250448 -0.006732383 -0.6886688 0.7250448 -0.006732383 -0.6886688 0.7250448 -0.006732383 -0.6886688 0.7250448 -0.006732383 -0.6886688 0.7250448 -0.006732383 -0.6886688 0.7250448 -0.006732383 -0.6886688 0.7250448 -0.006732383 -0.6886688 0.7250448 -0.006732383 -0.6886688 0.7250448 -0.006732383 0.6886688 -0.7250448 0.006732383 0.6886688 -0.7250448 0.006732383 0.6886688 -0.7250448 0.006732383 0.6886688 -0.7250448 0.006732383 0.6886688 -0.7250448 0.006732383 0.6886688 -0.7250448 0.006732383 0.6886688 -0.7250448 0.006732383 0.6886688 -0.7250448 0.006732383 0.6886688 -0.7250448 0.006732383 0.6886688 -0.7250448 0.006732383 0.6886688 -0.7250448 0.006732383 0.6886688 -0.7250448 0.006732383 0.6886688 -0.7250448 0.006732383 0.6886688 -0.7250448 0.006732383 0.6886688 -0.7250448 0.006732383 0.6886688 -0.7250448 0.006732383 0.6886688 -0.7250448 0.006732383 0.6886688 -0.7250448 0.006732383 0.6886688 -0.7250448 0.006732383 0.6886688 -0.7250448 0.006732383 0.6886688 -0.7250448 0.006732383 0.6886688 -0.7250448 0.006732383 0.6886688 -0.7250448 0.006732383 0.6886688 -0.7250448 0.006732383 0.6886688 -0.7250448 0.006732383 0.6886688 -0.7250448 0.006732383 0.6886688 -0.7250448 0.006732383 0.6886688 -0.7250448 0.006732383 0.6886688 -0.7250448 0.006732383 0.6886688 -0.7250448 0.006732383 0.6886688 -0.7250448 0.006732383 0.6886688 -0.7250448 0.006732383 0.6886688 -0.7250448 0.006732383 0.6886688 -0.7250448 0.006732383 0.6886688 -0.7250448 0.006732383 0.6886688 -0.7250448 0.006732383 0.6886688 -0.7250448 0.006732383 0.6886688 -0.7250448 0.006732383 0.6886688 -0.7250448 0.006732383 0.6886688 -0.7250448 0.006732383 0.6886688 -0.7250448 0.006732383 0.6886688 -0.7250448 0.006732383 0.6886688 -0.7250448 0.006732383 0.6886688 -0.7250448 0.006732383 0.6886688 -0.7250448 0.006732383 0.6886688 -0.7250448 0.006732383 0.6886688 -0.7250448 0.006732383 0.6886688 -0.7250448 0.006732383 0.6886688 -0.7250448 0.006732383 0.6886688 -0.7250448 0.006732383 0.6886688 -0.7250448 0.006732383 0.6886688 -0.7250448 0.006732383 0.6886688 -0.7250448 0.006732383 0.6886688 -0.7250448 0.006732383 0.6886688 -0.7250448 0.006732383 0.6886688 -0.7250448 0.006732383 0.6886688 -0.7250448 0.006732383 0.6886688 -0.7250448 0.006732383 0.6886688 -0.7250448 0.006732383 0.6886688 -0.7250448 0.006732383 0.6886688 -0.7250448 0.006732383 0.6886688 -0.7250448 0.006732383 0.6886688 -0.7250448 0.006732383 0.6886688 -0.7250448 0.006732383 0.6886688 -0.7250448 0.006732383 0.6886688 -0.7250448 0.006732383 0.6886688 -0.7250448 0.006732383 0.6886688 -0.7250448 0.006732383 0.6886688 -0.7250448 0.006732383 0.6886688 -0.7250448 0.006732383 0.6886688 -0.7250448 0.006732383 0.6886688 -0.7250448 0.006732383 0.6886688 -0.7250448 0.006732383 0.6886688 -0.7250448 0.006732383 0.6886688 -0.7250448 0.006732383 0.6886688 -0.7250448 0.006732383 0.6886688 -0.7250448 0.006732383 0.6886688 -0.7250448 0.006732383 0.6886688 -0.7250448 0.006732383 0.6886688 -0.7250448 0.006732383 0.6886688 -0.7250448 0.006732383</float_array>
          <technique_common>
            <accessor count="417" source="#normals-array-array" stride="3">
              <param type="float" name="X"/>
              <param type="float" name="Y"/>
              <param type="float" name="Z"/>
            </accessor>
          </technique_common>
        </source>
        <vertices id="verts-array-vertices">
          <input semantic="POSITION" source="#verts-array"/>
        </vertices>
        <triangles count="468" material="material0">
          <input offset="0" semantic="VERTEX" source="#verts-array-vertices"/>
          <input offset="1" semantic="NORMAL" source="#normals-array"/>
          <p>0 0 1 1 2 2 3 3 4 4 5 5 6 6 7 7 8 8 9 9 10 10 11 11 12 12 13 13 14 14 15 15 14 14 13 13 14 14 15 15 16 16 17 17 16 16 15 15 16 16 17 17 18 18 19 19 20 20 21 21 22 22 21 21 20 20 21 21 22 22 23 23 24 24 25 25 26 26 27 27 28 28 29 29 28 28 30 30 29 29 31 31 29 29 30 30 29 29 31 31 9 9 11 11 10 10 32 32 10 10 33 33 32 32 34 34 32 32 33 33 32 32 34 34 35 35 36 36 35 35 34 34 35 35 36 36 37 37 22 22 38 38 23 23 39 39 23 23 38 38 23 23 39 39 40 40 41 41 40 40 39 39 42 42 43 43 44 44 45 45 44 44 43 43 44 44 45 45 46 46 47 47 48 48 49 49 50 50 51 51 52 52 51 51 53 53 52 52 54 54 52 52 53 53 52 52 54 54 6 6 8 8 7 7 55 55 7 7 56 56 55 55 57 57 55 55 56 56 55 55 57 57 58 58 59 59 58 58 57 57 58 58 59 59 60 60 45 45 61 61 46 46 62 62 46 46 61 61 46 46 62 62 63 63 64 64 63 63 62 62 65 65 66 66 67 67 68 68 67 67 66 66 67 67 68 68 69 69 70 70 69 69 68 68 69 69 70 70 71 71 72 72 71 71 70 70 71 71 72 72 73 73 72 72 74 74 73 73 75 75 73 73 74 74 73 73 75 75 25 25 76 76 25 25 75 75 25 25 76 76 26 26 77 77 78 78 79 79 80 80 79 79 78 78 79 79 80 80 81 81 82 82 83 83 84 84 85 85 86 86 87 87 86 86 88 88 87 87 89 89 87 87 88 88 87 87 89 89 3 3 5 5 4 4 90 90 4 4 91 91 90 90 92 92 90 90 91 91 90 90 92 92 93 93 94 94 93 93 92 92 93 93 94 94 95 95 80 80 96 96 81 81 97 97 81 81 96 96 81 81 97 97 98 98 99 99 98 98 97 97 100 100 101 101 102 102 103 103 102 102 101 101 102 102 103 103 104 104 105 105 104 104 103 103 104 104 105 105 106 106 107 107 106 106 105 105 106 106 107 107 108 108 109 109 110 110 111 111 112 112 111 111 110 110 111 111 112 112 113 113 114 114 115 115 116 116 117 117 116 116 115 115 116 116 117 117 118 118 119 119 118 118 117 117 118 118 119 119 18 18 120 120 121 121 122 122 121 121 123 123 122 122 124 124 122 122 123 123 122 122 124 124 0 0 2 2 1 1 125 125 1 1 126 126 125 125 127 127 125 125 126 126 125 125 127 127 128 128 129 129 128 128 127 127 128 128 129 129 130 130 112 112 131 131 113 113 132 132 113 113 131 131 113 113 132 132 133 133 134 134 133 133 132 132 135 135 136 136 137 137 138 138 137 137 136 136 137 137 138 138 139 139 140 140 139 139 138 138 139 139 140 140 141 141 142 142 141 141 140 140 141 141 142 142 143 143 142 142 144 144 143 143 145 145 143 143 144 144 143 143 145 145 83 83 146 146 83 83 145 145 83 83 146 146 84 84 99 99 100 100 98 98 102 102 98 98 100 100 98 98 102 102 147 147 95 95 77 77 93 93 79 79 93 93 77 77 93 93 79 79 148 148 3 3 5 5 87 87 149 149 87 87 5 5 87 87 149 149 150 150 150 150 151 151 87 87 82 82 87 87 151 151 87 87 82 82 85 85 84 84 85 85 82 82 148 148 152 152 93 93 153 153 93 93 152 152 93 93 153 153 90 90 154 154 90 90 153 153 90 90 154 154 5 5 155 155 5 5 154 154 5 5 155 155 149 149 147 147 156 156 98 98 157 157 98 98 156 156 98 98 157 157 81 81 158 158 81 81 157 157 81 81 158 158 79 79 159 159 79 79 158 158 79 79 159 159 148 148 134 134 135 135 133 133 137 137 133 133 135 135 133 133 137 137 160 160 130 130 109 109 128 128 111 111 128 128 109 109 128 128 111 111 161 161 0 0 2 2 122 122 162 162 122 122 2 2 122 122 162 162 163 163 163 163 164 164 122 122 114 114 122 122 164 164 122 122 114 114 120 120 116 116 120 120 114 114 120 120 116 116 165 165 161 161 166 166 128 128 167 167 128 128 166 166 128 128 167 167 125 125 168 168 125 125 167 167 125 125 168 168 2 2 169 169 2 2 168 168 2 2 169 169 162 162 160 160 170 170 133 133 171 171 133 133 170 170 133 133 171 171 113 113 172 172 113 113 171 171 113 113 172 172 111 111 173 173 111 111 172 172 111 111 173 173 161 161 151 151 174 174 82 82 175 175 82 82 174 174 82 82 175 175 83 83 176 176 83 83 175 175 83 83 176 176 143 143 177 177 143 143 176 176 143 143 177 177 141 141 178 178 141 141 177 177 141 141 178 178 139 139 179 179 139 139 178 178 139 139 179 179 137 137 180 180 137 137 179 179 137 137 180 180 160 160 41 41 12 12 40 40 14 14 40 40 12 12 40 40 14 14 181 181 37 37 19 19 35 35 21 21 35 35 19 19 35 35 21 21 182 182 9 9 11 11 29 29 183 183 29 29 11 11 29 29 183 183 184 184 184 184 185 185 29 29 24 24 29 29 185 185 29 29 24 24 27 27 26 26 27 27 24 24 182 182 186 186 35 35 187 187 35 35 186 186 35 35 187 187 32 32 188 188 32 32 187 187 32 32 188 188 11 11 189 189 11 11 188 188 11 11 189 189 183 183 181 181 190 190 40 40 191 191 40 40 190 190 40 40 191 191 23 23 192 192 23 23 191 191 23 23 192 192 21 21 193 193 21 21 192 192 21 21 193 193 182 182 64 64 65 65 63 63 67 67 63 63 65 65 63 63 67 67 194 194 60 60 42 42 58 58 44 44 58 58 42 42 58 58 44 44 195 195 6 6 8 8 52 52 196 196 52 52 8 8 52 52 196 196 197 197 197 197 198 198 52 52 47 47 52 52 198 198 52 52 47 47 50 50 49 49 50 50 47 47 195 195 199 199 58 58 200 200 58 58 199 199 58 58 200 200 55 55 201 201 55 55 200 200 55 55 201 201 8 8 202 202 8 8 201 201 8 8 202 202 196 196 194 194 203 203 63 63 204 204 63 63 203 203 63 63 204 204 46 46 205 205 46 46 204 204 46 46 205 205 44 44 206 206 44 44 205 205 44 44 206 206 195 195 185 185 207 207 24 24 208 208 24 24 207 207 24 24 208 208 25 25 209 209 25 25 208 208 25 25 209 209 73 73 210 210 73 73 209 209 73 73 210 210 71 71 211 211 71 71 210 210 71 71 211 211 69 69 212 212 69 69 211 211 69 69 212 212 67 67 213 213 67 67 212 212 67 67 213 213 194 194 17 17 214 214 18 18 215 215 18 18 214 214 18 18 215 215 118 118 216 216 118 118 215 215 118 118 216 216 116 116 217 217 116 116 216 216 116 116 217 217 165 165 107 107 218 218 108 108 219 219 108 108 218 218 108 108 219 219 48 48 220 220 48 48 219 219 48 48 220 220 49 49 164 164 221 221 114 114 222 222 114 114 221 221 114 114 222 222 115 115 223 223 115 115 222 222 115 115 223 223 117 117 224 224 117 117 223 223 117 117 224 224 119 119 225 225 119 119 224 224 119 119 225 225 18 18 226 226 18 18 225 225 18 18 226 226 16 16 227 227 16 16 226 226 16 16 227 227 14 14 228 228 14 14 227 227 14 14 228 228 181 181 198 198 229 229 47 47 230 230 47 47 229 229 47 47 230 230 48 48 231 231 48 48 230 230 48 48 231 231 108 108 232 232 108 108 231 231 108 108 232 232 106 106 233 233 106 106 232 232 106 106 233 233 104 104 234 234 104 104 233 233 104 104 234 234 102 102 235 235 102 102 234 234 102 102 235 235 147 147 236 236 237 237 238 238 239 239 240 240 238 238 241 241 238 238 240 240 238 238 241 241 242 242 243 243 244 244 245 245 242 242 246 246 238 238 247 247 238 238 246 246 238 238 247 247 248 248 239 239 249 249 240 240 250 250 240 240 249 249 240 240 250 250 251 251 252 252 240 240 253 253 254 254 253 253 240 240 244 244 255 255 245 245 256 256 245 245 255 255 245 245 256 256 257 257 252 252 258 258 240 240 245 245 240 240 258 258 240 240 245 245 259 259 257 257 259 259 245 245 248 248 260 260 238 238 261 261 238 238 260 260 238 238 261 261 236 236 251 251 262 262 240 240 263 263 240 240 262 262 240 240 263 263 254 254 264 264 265 265 266 266 267 267 266 266 265 265 266 266 267 267 268 268 269 269 270 270 271 271 272 272 271 271 270 270 271 271 272 272 273 273 274 274 237 237 275 275 276 276 275 275 237 237 243 243 245 245 266 266 277 277 266 266 245 245 266 266 277 277 278 278 278 278 279 279 266 266 280 280 266 266 279 279 266 266 280 280 281 281 282 282 283 283 284 284 273 273 285 285 271 271 286 286 271 271 285 285 271 271 286 286 287 287 288 288 289 289 237 237 290 290 237 237 289 289 237 237 290 290 291 291 291 291 292 292 237 237 293 293 237 237 292 292 237 237 293 293 276 276 281 281 294 294 266 266 295 295 266 266 294 294 266 266 295 295 264 264 282 282 296 296 283 283 297 297 283 283 296 296 283 283 297 297 298 298 284 284 299 299 282 282 300 300 282 282 299 299 282 282 300 300 301 301 268 268 302 302 266 266 282 282 266 266 302 302 266 266 282 282 303 303 301 301 303 303 282 282 269 269 271 271 237 237 304 304 237 237 271 271 237 237 304 304 288 288 305 305 306 306 298 298 307 307 298 298 306 306 298 298 307 307 308 308 308 308 309 309 298 298 310 310 298 298 309 309 298 298 310 310 283 283 311 311 312 312 313 313 274 274 314 314 237 237 315 315 237 237 314 314 237 237 315 315 316 316 311 311 313 313 317 317 318 318 319 319 320 320 321 321 320 320 319 319 320 320 321 321 322 322 316 316 323 323 237 237 324 324 237 237 323 323 237 237 324 324 325 325 325 325 326 326 237 237 327 327 237 237 326 326 237 237 327 327 238 238 328 328 329 329 330 330 331 331 330 330 329 329 331 331 329 329 298 298 332 332 298 298 329 329 298 298 332 332 305 305 317 317 313 313 320 320 333 333 320 320 313 313 320 320 333 333 318 318 287 287 334 334 271 271 320 320 271 271 334 334 271 271 320 320 335 335 322 322 335 335 320 320 336 336 337 337 338 338 339 339 340 340 337 337 341 341 342 342 343 343 344 344 345 345 346 346 347 347 348 348 343 343 349 349 350 350 351 351 352 352 351 351 350 350 351 351 352 352 353 353 353 353 354 354 351 351 355 355 351 351 354 354 351 351 355 355 356 356 357 357 358 358 351 351 359 359 360 360 337 337 347 347 343 343 338 338 361 361 338 338 343 343 338 338 361 361 336 336 362 362 363 363 351 351 364 364 346 346 365 365 366 366 365 365 346 346 360 360 367 367 337 337 368 368 337 337 367 367 337 337 368 368 339 339 340 340 369 369 337 337 370 370 337 337 369 369 337 337 370 370 371 371 359 359 337 337 351 351 372 372 351 351 337 337 351 351 372 372 362 362 363 363 373 373 351 351 374 374 351 351 373 373 351 351 374 374 349 349 366 366 375 375 365 365 376 376 365 365 375 375 365 365 376 376 377 377 371 371 378 378 337 337 379 379 337 337 378 378 337 337 379 379 338 338 348 348 380 380 343 343 381 381 343 343 380 380 343 343 381 381 382 382 356 356 383 383 351 351 384 384 351 351 383 383 351 351 384 384 385 385 364 364 386 386 346 346 387 387 346 346 386 386 346 346 387 387 388 388 377 377 389 389 365 365 390 390 365 365 389 389 365 365 390 390 391 391 392 392 393 393 343 343 394 394 343 343 393 393 343 343 394 394 395 395 385 385 396 396 351 351 397 397 351 351 396 396 351 351 397 397 357 357 358 358 398 398 351 351 399 399 351 351 398 398 351 351 399 399 400 400 401 401 344 344 402 402 346 346 402 402 344 344 402 402 346 346 403 403 388 388 403 403 346 346 403 403 388 388 404 404 400 400 405 405 351 351 365 365 351 351 405 405 351 351 365 365 406 406 391 391 406 406 365 365 395 395 407 407 343 343 408 408 343 343 407 407 343 343 408 408 409 409 382 382 410 410 343 343 411 411 343 343 410 410 343 343 411 411 412 412 412 412 413 413 343 343 414 414 343 343 413 413 343 343 414 414 392 392 341 341 343 343 415 415 409 409 415 415 343 343 415 415 409 409 416 416</p>
        </triangles>
      </mesh>
    </geometry>
  </library_geometries>
  <library_materials>
    <material id="17ccffa4c79141ee9d8cc52e095c28df" name="defaultmaterial">
      <instance_effect url="#432496fcfd1d4308bc59868328b9ed90"/>
    </material>
  </library_materials>
  <library_visual_scenes>
    <visual_scene id="scene">
      <node id="node0" name="node0">
        <instance_geometry url="#366a18fe02554fa8aeda952e11bd8acb">
          <bind_material>
            <technique_common>
              <instance_material symbol="material0" target="#17ccffa4c79141ee9d8cc52e095c28df"/>
            </technique_common>
          </bind_material>
        </instance_geometry>
      </node>
    </visual_scene>
  </library_visual_scenes>
  <scene>
    <instance_visual_scene url="#scene"/>
  </scene>
</COLLADA>
