<COLLADA xmlns="http://www.collada.org/2005/11/COLLADASchema" version="1.4.1">
  <asset>
    <created>2026-09-27T19:05:54.517334</created>
    <modified>2026-09-27T19:05:54.517334</modified>
    <up_axis>Y_UP</up_axis>
  </asset>
  <library_effects>
    <effect id="4a705566bdef496daee3b8850422e31b" name="4a705566bdef496daee3b8850422e31b">
      <profile_COMMON>
        <technique sid="common">
          <phong>
            <emission>
              <color>0.0 0.0 0.0 1.0</color>
            </emission>
            <ambient>
              <color>0.0 0.0 0.0 1.0</color>
            </ambient>
            <diffuse>
              <color>0.8941176470588236 0.8941176470588236 0.8941176470588236 1.0</color>
            </diffuse>
            <specular>
              <color>0.0 0.0 0.0 1.0</color>
            </specular>
            <shininess>
              <float>0.0</float>
            </shininess>
            <reflective>
              <color>0.0 0.0 0.0 1.0</color>
            </reflective>
            <reflectivity>
              <float>0.0</float>
            </reflectivity>
            <transparent>
              <color>0.0 0.0 0.0 1.0</color>
            </transparent>
            <transparency>
              <float>1.0</float>
            </transparency>
          </phong>
        </technique>
        <extra>
          <technique profile="GOOGLEEARTH">
            <double_sided>0</double_sided>
          </technique>
        </extra>
      </profile_COMMON>
    </effect>
  </library_effects>
  <library_geometries>
    <geometry id="9ad37fa1c69a46ef88fc52d3fb5d368f" name="4c19b11759a34382978711bd8ba9e4b9">
      <mesh>
        <source id="verts-array">
          <float_array count="1848" id="verts-array-array">-0.006304658 0.02702048 -0.007751221 0.007690702 0.02666008 -0.007747875 -0.00699768 0.0001105606 -0.00750135 0.00699768 -0.0002498366 -0.007498003 -0.007442573 0.0001224822 -0.007451358 -0.00674955 0.0270324 -0.00770123 -0.007865162 0.0001347386 -0.007303466 -0.00717214 0.02704466 -0.007553337 -0.008244247 0.0001467122 -0.007065367 -0.007551225 0.02705663 -0.007315238 -0.008560822 0.000157805 -0.006748756 -0.0078678 0.02706772 -0.006998627 -0.008799023 0.0001674598 -0.006369629 -0.008106001 0.02707738 -0.006619501 -0.008946894 0.0001751934 -0.005946883 -0.008253872 0.02708511 -0.006196754 -0.008997017 0.000180616 -0.005501914 -0.008303995 0.02709053 -0.005751785 0.008103467 0.0001893308 0.007498565 0.007933209 9.449852e-05 0.007499446 0.008997017 -0.0001620459 0.007501828 0.007453884 -6.964838e-05 0.00750097 0.00699768 -0.0001105606 0.00750135 0.008860682 0.001041311 0.007490654 0.008804502 0.0009301451 0.007491686 0.009048505 0.001837205 0.007483264 0.009017305 0.001533881 0.007486081 0.008996107 0.001431667 0.00748703 0.008960701 0.001300211 0.00748825 0.008615019 0.0006446548 0.007494337 0.00860707 0.0006347096 0.00749443 0.008495031 0.000506833 0.007495617 0.008374003 0.0003903871 0.007496698 0.008315362 0.0003406144 0.007497161 -0.006760861 0.02711889 0.007248512 -0.006304658 0.02715975 0.007248132 -0.008303995 0.02721124 0.007247654 -0.008355483 0.02521199 0.007266218 -0.008303084 0.02561756 0.007262452 -0.008267679 0.02574898 0.007261232 -0.007622341 0.02670855 0.007252322 -0.007410446 0.02685984 0.007250917 -0.007240188 0.02695468 0.007250036 -0.007095337 0.02701887 0.00724944 -0.00816766 0.02600788 0.007258828 -0.008111479 0.02611907 0.007257795 -0.007921996 0.02640457 0.007255144 -0.007914048 0.02641447 0.007255052 -0.00768098 0.02665884 0.007252783 0.0096215 0.02506455 0.007267587 0.009638552 0.02474862 0.007270521 0.009690039 0.02674787 0.007251957 0.007690702 0.02679936 0.007251479 0.00802723 0.02676268 0.007251819 0.008287632 0.02669146 0.007252481 0.008442906 0.02663134 0.007253039 0.009597686 0.0252053 0.00726628 0.008626605 0.02653959 0.007253891 0.008882207 0.02636666 0.007255496 0.008908863 0.02634517 0.007255696 0.009149432 0.02611131 0.007257868 0.009223318 0.02602088 0.007258707 0.009351557 0.02583352 0.007260447 0.009445377 0.02565906 0.007262067 0.009513412 0.02549796 0.007263563 -0.00699768 0.0002498366 0.007498003 -0.007334207 0.0002865444 0.007497663 -0.008997017 0.0003013219 0.007497525 -0.007594609 0.0003577628 0.007497001 -0.007749884 0.0004178386 0.007496443 -0.007933582 0.0005096302 0.007495591 -0.008189186 0.0006825142 0.007493986 -0.008456411 0.0009378562 0.007491615 -0.008530296 0.001028316 0.007490775 -0.008658535 0.00121568 0.007489035 -0.008752355 0.001390137 0.007487415 -0.00882039 0.001551235 0.007485919 -0.008883075 0.001750316 0.007484071 -0.008904663 0.001843909 0.007483202 -0.008928477 0.001984663 0.007481895 -0.00894553 0.002300573 0.007478961 0.009048505 0.001837205 0.007483264 0.008997017 -0.0001620459 0.007501828 0.008997017 -0.0002827518 -0.005497612 0.00912788 0.00491932 0.007454645 0.009690039 0.02674787 0.007251957 0.009638552 0.02474862 0.007270521 0.009690039 0.02662717 -0.005747483 0.009629418 0.02439395 0.007273814 0.009609994 0.02363974 0.007280817 0.009569903 0.02208302 0.007295272 0.009395312 0.01530366 0.007358222 0.009213472 0.008242865 0.007423784 -0.008355483 0.02521199 0.007266218 -0.008303995 0.02721124 0.007247654 -0.008997017 0.0003013219 0.007497525 -0.00894553 0.002300573 0.007478961 -0.008936397 0.00265521 0.007475668 -0.008916973 0.003409437 0.007468665 -0.008876882 0.004966134 0.00745421 -0.008434858 0.02212984 0.007294837 -0.008792053 0.00826005 0.007423625 -0.00870229 0.01174553 0.00739126 -0.008520451 0.01880629 0.007325698 -0.00699768 0.0002498366 0.007498003 -0.00699768 0.0001105606 -0.00750135 -0.006577599 0.0002390191 0.007498104 -0.004014479 0.0001730157 0.007498717 0.001609256 2.819777e-05 0.007500061 0.00699768 -0.0002498366 -0.007498003 0.006893205 -0.0001078702 0.007501325 0.008997017 -0.0002827518 -0.005497612 0.007442573 -0.000260828 -0.007447799 0.00699768 -0.0001105606 0.00750135 0.008997017 -0.0001620459 0.007501828 -0.008560822 0.000157805 -0.006748756 -0.008244247 0.0001467122 -0.007065367 -0.008799023 0.0001674598 -0.006369629 -0.008946894 0.0001751934 -0.005946883 -0.008997017 0.0003013219 0.007497525 -0.008997017 0.000180616 -0.005501914 -0.007442573 0.0001224822 -0.007451358 -0.007865162 0.0001347386 -0.007303466 0.007865162 -0.000270336 -0.007299705 0.008244247 -0.0002778861 -0.007061424 0.008946894 -0.0002855929 -0.005942604 0.008560822 -0.0002830977 -0.006744662 0.008799023 -0.0002857108 -0.006365422 0.008946894 -0.0002855929 -0.005942604 0.009639916 0.02662433 -0.006192476 0.008799023 -0.0002857108 -0.006365422 0.009492045 0.02662421 -0.006615293 0.008560822 -0.0002830977 -0.006744662 0.009253844 0.02662682 -0.006994533 0.008244247 -0.0002778861 -0.007061424 0.008937269 0.02663203 -0.007311295 0.007865162 -0.000270336 -0.007299705 0.008558185 0.02663958 -0.007549576 0.007442573 -0.000260828 -0.007447799 0.008135595 0.02664909 -0.007697671 0.007690702 0.02679936 0.007251479 0.007690702 0.02666008 -0.007747875 0.007270621 0.02681017 0.007251378 0.004707501 0.02687618 0.007250765 -0.0009162343 0.027021 0.007249421 -0.006304658 0.02702048 -0.007751221 -0.006200182 0.02715706 0.007248157 0.009690039 0.02674787 0.007251957 0.009690039 0.02662717 -0.005747483 0.008135595 0.02664909 -0.007697671 -0.008253872 0.02708511 -0.006196754 -0.008303995 0.02709053 -0.005751785 -0.00674955 0.0270324 -0.00770123 -0.006304658 0.02715975 0.007248132 -0.008303995 0.02721124 0.007247654 0.009492045 0.02662421 -0.006615293 0.009253844 0.02662682 -0.006994533 0.009639916 0.02662433 -0.006192476 0.008937269 0.02663203 -0.007311295 0.008558185 0.02663958 -0.007549576 -0.00717214 0.02704466 -0.007553337 -0.007551225 0.02705663 -0.007315238 -0.008106001 0.02707738 -0.006619501 -0.0078678 0.02706772 -0.006998627 -0.007214311 0.02559335 0.03179673 -0.006650313 0.03346115 0.03969102 -0.006650313 0.03345944 0.03950723 0.00835591 0.02504776 0.03231922 0.008206382 0.03308693 0.04059514 0.008077405 0.03309339 0.04093259 0.008269271 0.03308316 0.04036336 0.008561903 0.02684785 0.02957499 0.008344716 0.0330496 0.03695883 0.008344716 0.03306162 0.03825287 0.008607364 0.02859601 0.02771908 0.008344716 0.03302683 0.03450613 0.008629805 0.02945875 0.02678133 0.008344716 0.03301532 0.03326648 0.008415682 0.03119836 0.02395262 0.008103736 0.03298671 0.02951669 0.008202773 0.03298663 0.0297831 0.00721745 0.03299871 0.02835093 0.007284048 0.0329975 0.02840594 0.007690255 0.03133444 0.02311841 0.007731599 0.03299035 0.02887693 0.006588428 0.03301132 0.02796449 0.006661094 0.03300977 0.02799881 0.007643849 0.02977468 0.01762635 0.00912788 0.00491932 0.007454645 0.009213472 0.008242865 0.007423784 0.008996283 0.01444456 0.01480754 0.008987067 0.02869355 0.01907631 0.008977354 0.02831813 0.01926647 0.009293675 0.02597898 0.01327365 -0.007911537 0.0270249 0.01007444 -0.008111479 0.02611907 0.007257795 -0.00816766 0.02600788 0.007258828 -0.00781702 0.02716 0.01003997 -0.007711606 0.02793074 0.01289108 0.007267585 0.02835068 0.01236321 0.006707115 0.0283699 0.01236212 0.00614361 0.02992973 0.01747285 -0.008434858 0.02212984 0.007294837 -0.008520451 0.01880629 0.007325698 -0.007585381 0.02610469 0.02037646 -0.00825942 0.009529759 0.0157026 -0.00769845 0.01750826 0.02391929 -0.00775134 0.01760727 0.02380153 -0.005482859 0.01683807 0.0250929 -0.00597049 0.01689328 0.02505339 -0.007594609 0.0003577628 0.007497001 0.0084487 0.008750523 0.01590577 0.008290338 0.0168663 0.02431711 0.008144755 0.01680607 0.02446107 0.008996107 0.001431667 0.00748703 0.009017305 0.001533881 0.007486081 0.008799379 0.009245064 0.01564435 0.008872557 0.009646646 0.0155361 0.00869661 0.01745611 0.02358894 0.008677632 0.01730549 0.02369105 0.008615019 0.0006446548 0.007494337 0.008654974 0.008969332 0.01576754 0.008804502 0.0009301451 0.007491686 0.008734644 0.009098239 0.01570395 0.008860682 0.001041311 0.007490654 0.008960701 0.001300211 0.00748825 0.007548705 0.01666116 0.02484967 0.008315362 0.0003406144 0.007497161 0.007971093 0.01675203 0.02460271 0.008374003 0.0003903871 0.007496698 0.008495031 0.000506833 0.007495617 0.00860707 0.0006347096 0.00749443 0.006077896 0.01653718 0.02509753 0.00699768 -0.0001105606 0.00750135 0.00658845 0.016545 0.02508242 0.007453884 -6.964838e-05 0.00750097 0.007072962 0.01659136 0.0250091 0.007933209 9.449852e-05 0.007499446 0.008103467 0.0001893308 0.007498565 -0.007334207 0.0002865444 0.007497663 -0.00699768 0.0002498366 0.007498003 -0.004949898 0.01682116 0.0250949 -0.006577599 0.0002390191 0.007498104 -0.002778748 0.01676525 0.02509542 -0.004014479 0.0001730157 0.007498717 0.00169395 0.01665007 0.02509648 0.001609256 2.819777e-05 0.007500061 0.006893205 -0.0001078702 0.007501325 -0.007865093 0.009069118 0.01597767 -0.007273765 0.01720037 0.02446373 -0.007417201 0.01726785 0.02431966 -0.008096232 0.009278224 0.01583411 -0.007533929 0.01734078 0.02417918 -0.008185824 0.009397557 0.01576641 -0.007626669 0.01742035 0.02404526 -0.008658535 0.00121568 0.007489035 -0.008752355 0.001390137 0.007487415 -0.00882039 0.001551235 0.007485919 -0.008530296 0.001028316 0.007490775 -0.008456411 0.0009378562 0.007491615 -0.008189186 0.0006825142 0.007493986 -0.007785706 0.01772378 0.02369176 -0.008928477 0.001984663 0.007481895 -0.008883075 0.001750316 0.007484071 -0.008904663 0.001843909 0.007483202 -0.0076763 0.0225857 0.02163559 -0.00870229 0.01174553 0.00739126 -0.007721184 0.02084861 0.02227159 -0.008792053 0.00826005 0.007423625 -0.007763597 0.01920779 0.0229404 -0.008876882 0.004966134 0.00745421 -0.007783644 0.01843267 0.02330128 -0.008916973 0.003409437 0.007468665 -0.007793354 0.01805734 0.02349144 -0.008936397 0.00265521 0.007475668 -0.00894553 0.002300573 0.007478961 -0.006902749 0.01707951 0.02473691 -0.006450137 0.01697621 0.0249414 -0.007933582 0.0005096302 0.007495591 -0.007749884 0.0004178386 0.007496443 -0.007146587 0.02766733 0.009867712 -0.00688272 0.02847473 0.0124845 -0.006487294 0.02858915 0.01240404 -0.006618851 0.02928223 0.01510128 -0.005879249 0.03015953 0.01755865 -0.006354994 0.03008963 0.01771808 -0.007003281 0.02916381 0.01528697 -0.00722918 0.02832885 0.01260891 -0.007163782 0.0290942 0.01539347 -0.007376521 0.02824358 0.01268027 -0.00730098 0.02901701 0.01550174 -0.007505332 0.02814953 0.01275285 -0.007616646 0.02804581 0.01282358 0.00397246 0.02998564 0.01747233 0.004339979 0.02843086 0.01236155 -0.000500237 0.03010082 0.01747126 -0.0007082369 0.02856086 0.01236034 -0.004884184 0.03021371 0.01747022 -0.005542184 0.02868534 0.01235919 -0.005394738 0.03020589 0.01748533 -0.006054838 0.028667 0.01236688 -0.007455081 0.0274938 0.009930846 -0.00758927 0.02739295 0.009967064 -0.007709687 0.02728195 0.01000395 -0.007921996 0.02640457 0.007255144 -0.007914048 0.02641447 0.007255052 -0.007791276 0.02780183 0.01295467 -0.007856011 0.027655 0.01301426 -0.008267679 0.02574898 0.007261232 -0.007904106 0.02748039 0.01307006 -0.008303084 0.02561756 0.007262452 -0.007929191 0.02725334 0.01312252 -0.008355483 0.02521199 0.007266218 -0.007240188 0.02695468 0.007250036 -0.007410446 0.02685984 0.007250917 -0.006760861 0.02711889 0.007248512 -0.006791312 0.02780396 0.009826742 -0.007095337 0.02701887 0.00724944 -0.007622341 0.02670855 0.007252322 -0.00768098 0.02665884 0.007252783 0.006676569 0.02991272 0.01747485 0.00772592 0.02827444 0.01238342 0.008287632 0.02669146 0.007252481 0.008380911 0.02734829 0.009847004 0.008442906 0.02663134 0.007253039 0.00802723 0.02676268 0.007251819 0.007690702 0.02679936 0.007251479 0.007270621 0.02681017 0.007251378 0.004707501 0.02687618 0.007250765 -0.0009162343 0.027021 0.007249421 -0.006200182 0.02715706 0.007248157 -0.006304658 0.02715975 0.007248132 0.00899181 0.02887799 0.0189784 0.009308244 0.0265438 0.01317506 0.009300459 0.02704583 0.01307178 0.009094089 0.02685452 0.01000636 0.00897894 0.02697109 0.009969411 0.008808459 0.02783086 0.01268095 0.008705771 0.02717675 0.009899479 0.008502666 0.02800823 0.01254327 0.008135231 0.02815708 0.01244013 0.0071642 0.02985752 0.01751436 0.008299564 0.02883981 0.01518706 0.008637967 0.02869064 0.01539249 0.008933034 0.02773069 0.0127536 0.009195579 0.0267277 0.01004247 0.009638552 0.02474862 0.007270521 0.0096215 0.02506455 0.007267587 0.009260574 0.02722121 0.01301582 0.009597686 0.0252053 0.00726628 0.009202787 0.02737029 0.01295601 0.009513412 0.02549796 0.007263563 0.00912919 0.02750245 0.0128922 0.008716042 0.01820716 0.0232087 0.008901706 0.01077675 0.01533898 0.008736297 0.01899044 0.02285374 0.008932089 0.01195489 0.01515419 0.008779093 0.0206462 0.02219129 0.009445377 0.02565906 0.007262067 0.009351557 0.02583352 0.007260447 0.009223318 0.02602088 0.007258707 0.009149432 0.02611131 0.007257868 0.008908863 0.02634517 0.007255696 0.008882207 0.02636666 0.007255496 0.008626605 0.02653959 0.007253891 -0.007522329 0.02854373 0.01935905 -0.007076606 0.03133613 0.02483511 -0.007502898 0.02929479 0.01897881 -0.007072669 0.03137686 0.02476057 -0.00748392 0.02944541 0.0188767 -0.006950348 0.03153455 0.02425297 -0.006548866 0.03336779 0.02991777 -0.006911852 0.03155399 0.02415763 -0.006511979 0.03336566 0.02979088 -0.006815179 0.03158906 0.02395803 -0.007387146 0.02965779 0.01864993 -0.007444347 0.02956091 0.0187673 -0.007010335 0.03149127 0.0244343 -0.007063744 0.03141042 0.02468336 -0.007050425 0.03144015 0.02460332 -0.00703269 0.03146693 0.02452033 -0.006414441 0.03336068 0.02952522 -0.006383001 0.0333592 0.02945343 -0.006687912 0.03161955 0.02374843 -0.006279206 0.03335461 0.02924626 -0.006045093 0.03334521 0.02888413 -0.006525554 0.03164608 0.02353309 -0.00587379 0.03333888 0.02867728 -0.00632559 0.03166887 0.02332117 -0.005526285 0.0333269 0.02835048 -0.004663152 0.03330019 0.02786791 -0.005827256 0.03170463 0.02295166 -0.004935401 0.03330825 0.02798104 -0.005299531 0.03331952 0.02818524 -0.006983016 0.03151374 0.02434519 -0.007311725 0.02974231 0.01852436 -0.007215918 0.02981744 0.01839081 -0.007096628 0.02988449 0.01825064 -0.006951042 0.02994483 0.01810668 -0.00677738 0.02999886 0.01796504 0.00597957 0.03302512 0.02776236 0.00534571 0.03304082 0.02769441 0.005016589 0.03304929 0.02769433 0.003237419 0.03309511 0.0276939 -8.42356e-05 0.03318064 0.02769311 -0.003568175 0.03327036 0.02769228 -0.003651307 0.0332725 0.02769226 0.008096459 0.02967128 0.01783084 0.008126495 0.03127008 0.02352711 0.008288791 0.03123529 0.02374259 0.007966671 0.03298764 0.02923707 0.008072896 0.03298685 0.02944698 0.008327881 0.03298893 0.0303777 0.008646238 0.03103847 0.02459988 0.008314016 0.03298826 0.03026701 0.008629537 0.03106584 0.02451663 0.008295242 0.03298768 0.03015231 0.008608073 0.0310912 0.02443032 0.008274199 0.03298725 0.03004811 0.008945051 0.02914352 0.01876622 0.00889216 0.02924253 0.01864846 0.008581525 0.03111486 0.02434092 0.008240311 0.03298684 0.0299103 0.008549523 0.03113724 0.02424841 0.008511581 0.03115854 0.02415277 0.008820382 0.02933054 0.01852249 0.008727642 0.02941011 0.01838857 0.00888362 0.02851594 0.01560654 0.008610911 0.02948294 0.0182481 0.008771969 0.02860687 0.01550085 0.008467475 0.02955042 0.01810403 0.008337328 0.03298968 0.0304844 0.008665945 0.03097471 0.02475764 0.008658369 0.0310084 0.02468018 0.008979419 0.02902711 0.01887598 0.009039598 0.02762177 0.0128245 0.008342797 0.03299049 0.0305872 0.008668257 0.03093463 0.02483241 0.008651013 0.03027314 0.02579338 0.00895731 0.0275431 0.01962735 0.009263607 0.02481306 0.01346131 0.008344706 0.03299136 0.0306864 0.008344716 0.03299144 0.030695 0.008344716 0.03299315 0.03087879 0.008344716 0.03299662 0.03125217 0.008344716 0.03300318 0.03195944 0.008870013 0.02416519 0.02093216 0.008914894 0.02590219 0.02029616 0.009132661 0.01973438 0.01414518 0.009199986 0.02234572 0.01381101 0.009395312 0.01530366 0.007358222 0.009569903 0.02208302 0.007295272 0.009609994 0.02363974 0.007280817 0.009629418 0.02439395 0.007273814 0.00840963 0.01693346 0.02417694 0.008505435 0.01700848 0.02404339 0.008427074 0.025088 0.03213164 0.008580859 0.0170931 0.02391782 0.008476745 0.02513471 0.0319565 0.008638057 0.01718988 0.02380045 0.007220689 0.03312569 0.04203554 0.006993934 0.03313307 0.04220078 0.006629804 0.03314434 0.04240498 0.006357555 0.0331524 0.04251811 0.007568193 0.03311371 0.04170873 0.007739497 0.03310738 0.04150188 0.007973609 0.03309798 0.04113976 -0.004894025 0.03344127 0.04242152 0.006001463 0.03316253 0.04262132 0.00534571 0.03318009 0.04269376 0.005262578 0.03318223 0.04269374 0.001778639 0.03327195 0.04269291 -0.001543016 0.03335748 0.04269211 -0.003322186 0.0334033 0.04269169 -0.003651307 0.03341178 0.04269161 -0.004285167 0.03342747 0.04262366 -0.006409333 0.03346588 0.04086933 -0.00650837 0.03346596 0.04060292 -0.00713747 0.02548678 0.03213594 -0.006378493 0.03346574 0.04093903 -0.006576497 0.03346539 0.04035261 -0.006579796 0.03346534 0.04033791 -0.007185482 0.0255358 0.03196028 -0.006619613 0.03346433 0.04011901 -0.006642925 0.03346291 0.03990161 -0.007163306 0.02800573 0.0287578 -0.007140397 0.02888681 0.02783598 -0.007117848 0.02975379 0.02690189 -0.00709645 0.03057566 0.0259236 -0.006650313 0.03339097 0.03213315 -0.006650313 0.03338451 0.03143788 -0.006650313 0.03345597 0.03913385 -0.006650313 0.03344941 0.03842658 -0.006650313 0.03343727 0.03711953 -0.006650313 0.03342576 0.03587989 -0.006650313 0.03341445 0.03466184 -0.006650313 0.03340299 0.03342719 -0.004966691 0.03344282 0.04238721 -0.005523046 0.03345388 0.04203509 -0.005589644 0.03345509 0.04198008 -0.006037196 0.03346224 0.04150909 -0.006272268 0.03346495 0.04114895 0.009048505 0.001837205 0.007483264 -0.00430706 0.03329006 0.0277647 -0.007542587 0.02776036 0.01971401 0.00827329 0.03308289 0.04034556 0.008315426 0.03307964 0.04011268 0.008337968 0.03307705 0.039896 0.008344716 0.03307501 0.03969461 0.008344716 0.03306808 0.03894814 -0.006650313 0.03337758 0.03069141 -0.006648693 0.03337662 0.03059251 -0.006643565 0.03337554 0.03049002 -0.006634478 0.03337432 0.03038363 -0.006621022 0.03337295 0.03027333 -0.006602708 0.03337141 0.03015894 -0.006578886 0.0333697 0.03004045 -0.006574868 0.03336943 0.03002266 -0.006650313 0.03339097 0.03213315 -0.006650313 0.03340299 0.03342719 -8.42356e-05 0.03318064 0.02769311 0.008344716 0.03307501 0.03969461 0.008344716 0.03306808 0.03894814 0.005262578 0.03318223 0.04269374 0.008344716 0.03302683 0.03450613 0.008344716 0.03301532 0.03326648 -0.006650313 0.03341445 0.03466184 -0.006650313 0.03342576 0.03587989 0.008344716 0.0330496 0.03695883 -0.006650313 0.03343727 0.03711953 0.008344716 0.03306162 0.03825287 -0.006650313 0.03344941 0.03842658 -0.006650313 0.03345597 0.03913385 0.008344716 0.03299662 0.03125217 0.008344716 0.03299315 0.03087879 0.005016589 0.03304929 0.02769433 0.008344716 0.03299144 0.030695 0.003237419 0.03309511 0.0276939 0.008344716 0.03300318 0.03195944 -0.006650313 0.03338451 0.03143788 -0.003568175 0.03327036 0.02769228 -0.006650313 0.03337758 0.03069141 -0.006650313 0.03345944 0.03950723 -0.003322186 0.0334033 0.04269169 -0.001543016 0.03335748 0.04269211 0.001778639 0.03327195 0.04269291 0.008344706 0.03299136 0.0306864 0.008342797 0.03299049 0.0305872 0.008337328 0.03298968 0.0304844 -0.006574868 0.03336943 0.03002266 -0.006578886 0.0333697 0.03004045 -0.006650313 0.03346115 0.03969102 -0.006642925 0.03346291 0.03990161 -0.006619613 0.03346433 0.04011901 0.008327881 0.03298893 0.0303777 0.008314016 0.03298826 0.03026701 0.008295242 0.03298768 0.03015231 -0.006383001 0.0333592 0.02945343 -0.006414441 0.03336068 0.02952522 -0.006634478 0.03337432 0.03038363 -0.006643565 0.03337554 0.03049002 -0.006648693 0.03337662 0.03059251 -0.006579796 0.03346534 0.04033791 -0.006576497 0.03346539 0.04035261 -0.00650837 0.03346596 0.04060292 0.00827329 0.03308289 0.04034556 0.008315426 0.03307964 0.04011268 0.008337968 0.03307705 0.039896 -0.006511979 0.03336566 0.02979088 -0.006548866 0.03336779 0.02991777 0.008077405 0.03309339 0.04093259 0.008206382 0.03308693 0.04059514 0.008269271 0.03308316 0.04036336 -0.006409333 0.03346588 0.04086933 -0.006378493 0.03346574 0.04093903 -0.003651307 0.03341178 0.04269161 -0.006272268 0.03346495 0.04114895 -0.004285167 0.03342747 0.04262366 -0.004894025 0.03344127 0.04242152 -0.006279206 0.03335461 0.02924626 -0.003651307 0.0332725 0.02769226 -0.00430706 0.03329006 0.0277647 -0.006602708 0.03337141 0.03015894 -0.006621022 0.03337295 0.03027333 -0.006037196 0.03346224 0.04150909 -0.005589644 0.03345509 0.04198008 -0.004966691 0.03344282 0.04238721 -0.005523046 0.03345388 0.04203509 0.008274199 0.03298725 0.03004811 0.008240311 0.03298684 0.0299103 0.008202773 0.03298663 0.0297831 0.007973609 0.03309798 0.04113976 0.00534571 0.03318009 0.04269376 0.006001463 0.03316253 0.04262132 0.008103736 0.03298671 0.02951669 0.008072896 0.03298685 0.02944698 0.00534571 0.03304082 0.02769441 0.007966671 0.03298764 0.02923707 0.00597957 0.03302512 0.02776236 0.006588428 0.03301132 0.02796449 -0.004663152 0.03330019 0.02786791 -0.004935401 0.03330825 0.02798104 -0.006045093 0.03334521 0.02888413 -0.005299531 0.03331952 0.02818524 -0.00587379 0.03333888 0.02867728 -0.005526285 0.0333269 0.02835048 0.007731599 0.03299035 0.02887693 0.007284048 0.0329975 0.02840594 0.006661094 0.03300977 0.02799881 0.00721745 0.03299871 0.02835093 0.006357555 0.0331524 0.04251811 0.006629804 0.03314434 0.04240498 0.007739497 0.03310738 0.04150188 0.006993934 0.03313307 0.04220078 0.007568193 0.03311371 0.04170873 0.007220689 0.03312569 0.04203554</float_array>
          <technique_common>
            <accessor count="616" source="#verts-array-array" stride="3">
              <param type="float" name="X"/>
              <param type="float" name="Y"/>
              <param type="float" name="Z"/>
            </accessor>
          </technique_common>
        </source>
        <source id="normals-array">
          <float_array count="1848" id="normals-array-array">-0.05600318 -0.007828341 -0.9983999 0.05600318 -0.01071264 -0.9983731 -0.05600318 -0.007828341 -0.9983999 0.05600318 -0.01071264 -0.9983731 -0.2224822 -0.00332302 -0.9749311 -0.2224822 -0.00332302 -0.9749311 -0.4337537 0.002804175 -0.9010271 -0.4337537 0.002804175 -0.9010271 -0.6232412 0.008789532 -0.7819802 -0.6232412 0.008789532 -0.7819802 -0.7815746 0.01433736 -0.623647 -0.7815746 0.01433736 -0.623647 -0.900676 0.01916495 -0.4340684 -0.900676 0.01916495 -0.4340684 -0.9746103 0.02303148 -0.2227202 -0.9746103 0.02303148 -0.2227202 -0.9980959 0.02518153 -0.05630729 -0.9980959 0.02518153 -0.05630729 1.676201e-14 0.009285072 0.9999569 1.554142e-14 0.009285072 0.9999569 1.543206e-14 0.009285072 0.9999569 1.675595e-14 0.009285072 0.9999569 1.698483e-14 0.009285072 0.9999569 1.399928e-14 0.009285072 0.9999569 2.371271e-14 0.009285072 0.9999569 -3.504373e-14 0.009285072 0.9999569 -3.086813e-14 0.009285072 0.9999569 3.407897e-14 0.009285072 0.9999569 1.931955e-14 0.009285072 0.9999569 1.009834e-14 0.009285072 0.9999569 4.04656e-15 0.009285072 0.9999569 1.5698e-14 0.009285072 0.9999569 1.578463e-14 0.009285072 0.9999569 1.360641e-14 0.009285072 0.9999569 1.634772e-14 0.009285072 0.9999569 1.637213e-14 0.009285072 0.9999569 1.680576e-14 0.009285072 0.9999569 1.618268e-14 0.009285072 0.9999569 1.504497e-14 0.009285072 0.9999569 5.141459e-15 0.009285072 0.9999569 1.888983e-14 0.009285072 0.9999569 1.607467e-14 0.009285072 0.9999569 1.522359e-14 0.009285072 0.9999569 1.591658e-14 0.009285072 0.9999569 2.29617e-14 0.009285072 0.9999569 6.108332e-15 0.009285072 0.9999569 2.699244e-14 0.009285072 0.9999569 3.033941e-14 0.009285072 0.9999569 1.953461e-14 0.009285072 0.9999569 3.181331e-14 0.009285072 0.9999569 3.132314e-14 0.009285072 0.9999569 1.706532e-14 0.009285072 0.9999569 1.594179e-14 0.009285072 0.9999569 1.596049e-14 0.009285072 0.9999569 1.625778e-14 0.009285072 0.9999569 1.68273e-14 0.009285072 0.9999569 3.616027e-14 0.009285072 0.9999569 1.67151e-14 0.009285072 0.9999569 1.558255e-14 0.009285072 0.9999569 1.592751e-14 0.009285072 0.9999569 2.000855e-14 0.009285072 0.9999569 1.892117e-14 0.009285072 0.9999569 1.309366e-14 0.009285072 0.9999569 1.891963e-14 0.009285072 0.9999569 1.346409e-14 0.009285072 0.9999569 1.635191e-14 0.009285072 0.9999569 1.634528e-14 0.009285072 0.9999569 1.596564e-14 0.009285072 0.9999569 1.630836e-14 0.009285072 0.9999569 1.627941e-14 0.009285072 0.9999569 1.497692e-14 0.009285072 0.9999569 1.584922e-14 0.009285072 0.9999569 1.599118e-14 0.009285072 0.9999569 1.900482e-14 0.009285072 0.9999569 1.625539e-14 0.009285072 0.9999569 1.793739e-14 0.009285072 0.9999569 7.786519e-15 0.009285072 0.9999569 1.959515e-14 0.009285072 0.9999569 -1.62472e-14 0.009285072 0.9999569 2.50132e-14 0.009285072 0.9999569 2.808735e-14 0.009285072 0.9999569 0.9996686 -0.02574266 0.0002390327 0.9996686 -0.02574266 0.0002390327 0.9980959 -0.02622278 -0.05582997 0.9996686 -0.02574266 0.0002390327 0.9996686 -0.02574266 0.0002390327 0.9996686 -0.02574266 0.0002390327 0.9980959 -0.02622278 -0.05582997 0.9996686 -0.02574266 0.0002390327 0.9996686 -0.02574266 0.0002390327 0.9996686 -0.02574266 0.0002390327 0.9996686 -0.02574266 0.0002390327 0.9996686 -0.02574266 0.0002390327 -0.9996686 0.02574266 -0.0002390327 -0.9996686 0.02574266 -0.0002390327 -0.9996686 0.02574266 -0.0002390327 -0.9996686 0.02574266 -0.0002390327 -0.9996686 0.02574266 -0.0002390327 -0.9996686 0.02574266 -0.0002390327 -0.9996686 0.02574266 -0.0002390327 -0.9996686 0.02574266 -0.0002390327 -0.9996686 0.02574266 -0.0002390327 -0.9996686 0.02574266 -0.0002390327 -0.9996686 0.02574266 -0.0002390327 -0.02574377 -0.9996255 0.009281994 -0.02574377 -0.9996255 0.009281994 -0.02574377 -0.9996255 0.009281994 -0.02574377 -0.9996255 0.009281994 -0.02574377 -0.9996255 0.009281994 -0.02574377 -0.9996255 0.009281994 -0.02574377 -0.9996255 0.009281994 -0.02574377 -0.9996255 0.009281994 -0.02574377 -0.9996255 0.009281994 -0.02574377 -0.9996255 0.009281994 -0.02574377 -0.9996255 0.009281994 -0.02574377 -0.9996255 0.009281994 -0.02574377 -0.9996255 0.009281994 -0.02574377 -0.9996255 0.009281994 -0.02574377 -0.9996255 0.009281994 -0.02574377 -0.9996255 0.009281994 -0.02574377 -0.9996255 0.009281994 -0.02574377 -0.9996255 0.009281994 -0.02574377 -0.9996255 0.009281994 -0.02574377 -0.9996255 0.009281994 -0.02574377 -0.9996255 0.009281994 -0.02574377 -0.9996255 0.009281994 -0.02574377 -0.9996255 0.009281994 -0.02574377 -0.9996255 0.009281994 0.9746103 -0.02716327 -0.2222541 0.9746103 -0.02716327 -0.2222541 0.900676 -0.02722201 -0.4336377 0.900676 -0.02722201 -0.4336377 0.7815746 -0.0259156 -0.6232732 0.7815746 -0.0259156 -0.6232732 0.6232412 -0.02330888 -0.7816822 0.6232412 -0.02330888 -0.7816822 0.4337537 -0.01953517 -0.9008197 0.4337537 -0.01953517 -0.9008197 0.2224822 -0.01478138 -0.9748247 0.2224822 -0.01478138 -0.9748247 0.02574377 0.9996255 -0.009281994 0.02574377 0.9996255 -0.009281994 0.02574377 0.9996255 -0.009281994 0.02574377 0.9996255 -0.009281994 0.02574377 0.9996255 -0.009281994 0.02574377 0.9996255 -0.009281994 0.02574377 0.9996255 -0.009281994 0.02574377 0.9996255 -0.009281994 0.02574377 0.9996255 -0.009281994 0.02574377 0.9996255 -0.009281994 0.02574377 0.9996255 -0.009281994 0.02574377 0.9996255 -0.009281994 0.02574377 0.9996255 -0.009281994 0.02574377 0.9996255 -0.009281994 0.02574377 0.9996255 -0.009281994 0.02574377 0.9996255 -0.009281994 0.02574377 0.9996255 -0.009281994 0.02574377 0.9996255 -0.009281994 0.02574377 0.9996255 -0.009281994 0.02574377 0.9996255 -0.009281994 0.02574377 0.9996255 -0.009281994 0.02574377 0.9996255 -0.009281994 0.02574377 0.9996255 -0.009281994 0.02574377 0.9996255 -0.009281994 -0.9952523 -0.02438813 0.09422382 -0.9986259 0.04550297 0.02599535 -0.9973687 0.07249571 -9.25472e-05 0.891097 -0.3174087 0.3243424 0.8934766 -0.3139673 0.3211294 0.8287644 -0.3946263 0.3967614 0.9392082 -0.237805 0.2476626 0.9996277 0.002587969 0.02716136 0.9993408 0.0362578 0.001815634 0.9996641 0.0258953 0.001078475 0.9994454 0.00906746 0.0320404 0.9981643 0.06055635 0.0009501578 0.9992479 0.01496679 0.03577097 0.9966514 0.08176239 0.0009148021 0.635679 0.7448395 -0.2027962 0.5767496 0.7866037 -0.2204871 0.6558945 0.7275757 -0.2010872 0.2271071 0.933798 -0.2764844 0.2789991 0.9219761 -0.2685508 0.3105374 0.9139105 -0.2614079 0.3777018 0.8889765 -0.2589635 0.1376458 0.9491593 -0.2831083 0.1817776 0.9424521 -0.2806081 0.2741524 0.9246421 -0.2643434 0.9985537 -0.02476087 0.04772135 0.9984013 -0.02465837 0.05086021 0.9987517 -0.01944677 0.04601018 0.9985668 0.001858442 0.0534867 0.9986521 -0.0003089168 0.05190196 0.9981425 -0.01600891 0.05878172 -0.853246 0.5109709 -0.1043079 -0.8662577 0.4902531 -0.09617413 -0.9156233 0.3968463 -0.06439672 -0.7969656 0.5897057 -0.1307401 -0.8356437 0.5374384 -0.1133997 0.1023899 0.9544184 -0.28036 0.02894601 0.9569767 -0.2887175 0.02819428 0.9569181 -0.2889859 -0.9979036 0.02793571 0.05837761 -0.9982 0.02753446 0.05327791 -0.997866 0.04453018 0.04775418 -0.9023953 -0.2765999 0.3304167 -0.9268292 -0.2357811 0.2922242 -0.9625737 -0.1581341 0.2201032 -0.08136665 -0.7214656 0.6876531 -0.2063696 -0.7026162 0.6809861 -0.2277772 -0.6977614 0.6791514 0.7268999 -0.4872662 0.4839299 0.740653 -0.4764047 0.4737844 0.6635619 -0.5325145 0.5254655 0.939932 -0.2349129 0.2476767 0.9671227 -0.1717475 0.1875539 0.937118 -0.2405198 0.2529034 0.9960336 -0.05206896 0.0721518 0.9975271 -0.03811176 0.05905294 0.9844307 -0.1152996 0.1326731 0.6893001 -0.5144295 0.5101252 0.8207744 -0.4023816 0.4054855 0.7583551 -0.460408 0.4614347 0.8891326 -0.3196783 0.3274889 0.8334212 -0.387841 0.3936856 0.8936291 -0.3125274 0.3221081 0.4071066 -0.6557682 0.6357927 0.4824959 -0.6274891 0.6111097 0.5576488 -0.5932057 0.5806331 0.5393931 -0.6019855 0.5887857 0.5919607 -0.574873 0.5648925 0.645272 -0.543661 0.5367092 0.006232413 -0.7263047 0.6873447 0.02352885 -0.7258435 0.6874573 0.1015424 -0.7205025 0.6859776 0.1475114 -0.7156874 0.6826653 0.2464832 -0.6990608 0.6712376 0.2978144 -0.6878144 0.6619803 0.4074745 -0.6557642 0.6355611 -0.135176 -0.7145566 0.6863937 -0.0495609 -0.7246375 0.6873457 -0.02222947 -0.7265514 0.6867524 -0.01887952 -0.7267757 0.6866153 -0.01887952 -0.7267757 0.6866153 -0.01887952 -0.7267757 0.6866153 -0.01887952 -0.7267757 0.6866153 -0.01887952 -0.7267757 0.6866153 -0.01887952 -0.7267757 0.6866153 -0.6608101 -0.5184568 0.5427085 -0.6665782 -0.5145545 0.5393581 -0.761302 -0.4405259 0.4757691 -0.7795468 -0.423508 0.4614627 -0.8262729 -0.3761621 0.4192555 -0.8516598 -0.3464354 0.393266 -0.8816644 -0.3075196 0.3579099 -0.7349371 -0.4627101 0.4957487 -0.8040621 -0.3993899 0.4404223 -0.8622457 -0.3331558 0.3814966 -0.6703499 -0.5117262 0.5373707 -0.590651 -0.5616781 0.5793523 -0.4818003 -0.6164963 0.6227365 -0.9912977 -0.05237738 0.1207704 -0.9714676 -0.1325197 0.1966956 -0.9113706 -0.2622626 0.3172096 -0.9448307 -0.1996759 0.2596624 -0.9982207 0.04083281 0.04345223 -0.9983852 0.02665101 0.05016608 -0.9984416 0.04081928 0.03805411 -0.9984929 0.02658195 0.04801391 -0.9985641 0.04074068 0.03478366 -0.9985575 0.02634325 0.04678627 -0.9986158 0.04145339 0.03237423 -0.9985884 0.02623972 0.04618193 -0.9986129 0.02712749 0.04512625 -0.9985772 0.02607435 0.04651586 -0.9943266 -0.03189718 0.1014753 -0.5206967 -0.5988516 0.6084832 -0.3559137 -0.664314 0.6572765 -0.3773597 -0.6572248 0.6524226 -0.2984769 -0.681092 0.6685994 -0.4432656 0.8692438 -0.2189311 -0.3833122 0.8921219 -0.2391449 -0.2547851 0.9319609 -0.2579406 -0.3300795 0.911155 -0.246666 -0.1805625 0.9460317 -0.2691118 -0.2857046 0.9228371 -0.2583496 -0.4473208 0.8642637 -0.2301137 -0.5035758 0.8363031 -0.2168146 -0.5519819 0.8070713 -0.2096471 -0.6047768 0.7722614 -0.1945697 -0.6415916 0.7436654 -0.1879416 -0.6865559 0.7066605 -0.1710903 -0.7639272 0.6290038 -0.1441159 0.02471079 0.9569116 -0.2893261 0.02471083 0.9569129 -0.2893218 0.02471079 0.9569116 -0.2893261 0.02471083 0.9569129 -0.2893218 0.001033276 0.9579392 -0.2869692 -0.00667577 0.9581899 -0.2860551 -0.07729252 0.957259 -0.2787133 -0.116245 0.9545852 -0.2743251 -0.5673861 0.7994228 -0.1974748 -0.6600763 0.7298226 -0.1779277 -0.730072 0.6652035 -0.1565218 -0.8051776 0.5793149 -0.1268198 -0.7490509 0.645785 -0.1479342 -0.8965202 0.4360046 -0.07843135 -0.9459578 0.3219417 -0.03895251 -0.9533814 0.3001475 -0.03122991 -0.9819803 0.1888595 0.006845196 -0.9833323 0.1815635 0.009602539 -0.9961903 0.07469374 0.04500872 -0.9965556 0.06668418 0.04929687 -0.4398102 0.8704133 -0.2212411 -0.528617 0.8234991 -0.2059449 -0.1916158 0.9454616 -0.2634116 -0.3023288 0.9219301 -0.2421617 -0.3437925 0.9083665 -0.2380692 -0.6087098 0.7708063 -0.1879629 -0.6815366 0.7119961 -0.1690247 0.08173463 0.9556376 -0.2829773 0.2353009 0.9354749 -0.263667 0.3070323 0.9190554 -0.2471202 0.4151109 0.8787517 -0.2355384 0.3971759 0.886971 -0.2356561 0.1897943 0.9452554 -0.2654626 0.06727411 0.9561567 -0.2850239 0.02471089 0.9569155 -0.2893132 0.02471089 0.9569155 -0.2893132 0.02471089 0.9569155 -0.2893132 0.02281094 0.9579128 -0.2861515 -0.03257865 0.9591981 -0.2808516 0.9980272 0.05014333 0.03778141 0.9985746 0.004120182 0.05321488 0.9924687 0.1217706 0.01333549 0.7607269 0.6304465 -0.1543757 0.677268 0.7131199 -0.1810197 0.6231903 0.7561503 -0.1996761 0.5530912 0.8054744 -0.2128407 0.4923645 0.8404335 -0.2263818 0.3584825 0.9002036 -0.2472323 0.177802 0.9455783 -0.2725217 0.4363482 0.8679737 -0.2371116 0.5714094 0.7920582 -0.214791 0.718355 0.6739196 -0.1726226 0.8247154 0.5503147 -0.1303772 0.9985809 0.006574212 0.05284764 0.9947926 0.09958294 0.02170177 0.9595913 0.2784265 -0.04078317 0.9773807 0.2108944 -0.01582939 0.9156346 0.393983 -0.07994148 0.9452051 0.3220564 -0.05354523 0.8595676 0.498187 -0.1138125 0.9994037 -0.01001495 0.03304586 0.9989425 -0.01896496 0.04188367 0.9993184 -0.01059065 0.0353634 0.9988821 -0.01914078 0.04322316 0.9991883 -0.01157582 0.03858354 0.902391 0.4221512 -0.08647985 0.8539607 0.5074222 -0.1152124 0.7966056 0.5875142 -0.1422906 0.7331557 0.6597127 -0.1651119 0.6552261 0.7321532 -0.1860926 0.5858638 0.7859854 -0.1974602 0.5019138 0.8380741 -0.2138092 -0.9973671 0.05072665 0.0518243 -0.9932743 0.1115385 0.03106854 -0.9945414 0.09684503 0.03883801 -0.9822583 0.1874068 0.006884691 -0.9755144 0.2199041 -0.003718531 -0.759372 0.6327828 -0.1514595 -0.6765143 0.7134061 -0.1827023 -0.6947601 0.6976605 -0.1748662 -0.6200585 0.7587644 -0.1995096 -0.6023432 0.772223 -0.2021245 -0.8625487 0.4959883 -0.1000267 -0.9285443 0.3671344 -0.05493444 -0.8550188 0.5075997 -0.1062325 -0.9603597 0.2776794 -0.02456515 -0.9320129 0.3584987 -0.05320413 -0.8962218 0.4362406 -0.08050186 -0.5397923 0.8126126 -0.2197386 -0.4820456 0.8444784 -0.2334273 -0.49945 0.8366485 -0.2248756 -0.4239209 0.8722776 -0.243768 -0.3433042 0.9028948 -0.2586952 -0.4092546 0.87982 -0.2417175 -0.2707141 0.9245858 -0.2680579 -0.3145201 0.9136867 -0.2573982 -0.2084847 0.9390656 -0.2732946 -0.07878363 0.955424 -0.2845314 -0.2121081 0.9396111 -0.2685911 -0.1127162 0.9522808 -0.2836481 -0.154613 0.9483392 -0.2770335 -0.8083855 0.5741503 -0.1298625 -0.781721 0.6077632 -0.1397717 -0.6899251 0.7026867 -0.1738815 -0.5945099 0.7784559 -0.201406 -0.5019718 0.8357469 -0.2226018 -0.3971517 0.8855834 -0.2408579 0.08871856 0.9537276 -0.2872851 0.04000488 0.9564218 -0.289235 0.02481751 0.9568689 -0.2894583 0.02471083 0.9569129 -0.2893218 0.02471083 0.9569129 -0.2893218 0.02471083 0.9569129 -0.2893218 0.009907258 0.9576521 -0.2877575 0.3899392 0.8861923 -0.2502211 0.4356489 0.8655409 -0.247081 0.5396063 0.8109113 -0.2263801 0.4695321 0.8480123 -0.2457942 0.521276 0.8205175 -0.2345684 0.9110383 0.4030389 -0.0869989 0.9464618 0.3180296 -0.05538208 0.8676927 0.4835605 -0.1152327 0.9149221 0.3950876 -0.08260323 0.8196045 0.5554327 -0.1405098 0.8761348 0.4697991 -0.1080582 0.7702649 0.6167818 -0.1620871 0.9439628 0.3251413 -0.05672133 0.8840219 0.4562662 -0.1016188 0.833608 0.5364172 -0.1317356 0.7156839 0.6741808 -0.1824193 0.7862792 0.5986715 -0.1528314 0.7270309 0.6634924 -0.1766463 0.8090629 0.5705059 -0.1412098 0.7201644 0.6714437 -0.1747188 0.7583951 0.6316422 -0.1608258 0.6296854 0.7500823 -0.2021704 0.6744349 0.7139953 -0.1880113 0.5228601 0.8214947 -0.2275167 0.9473257 0.3152806 -0.05632263 0.9893858 0.1452473 0.00436347 0.97184 0.2340943 -0.02696257 0.9842094 0.1769216 -0.005526814 0.7922716 0.5926615 -0.1451142 0.9746677 0.2223611 -0.02405113 0.9979826 0.05134983 0.03733595 0.9988937 0.02636498 0.03893975 0.9987731 -0.004213992 0.04934153 0.9982095 -0.01674139 0.05742416 0.9857568 0.1681146 -0.004582389 0.9883876 0.1519485 -0.001245441 0.9905222 0.1373512 -0.0007038827 0.9934585 0.1141935 0.0001224741 0.993497 0.1138531 -0.00105718 0.9990413 -0.01019238 0.04257504 0.9988946 -0.007805704 0.04635423 0.9985007 -0.01937881 0.05119321 0.9982986 -0.01874262 0.05521499 0.9981592 -0.02470899 0.05538695 0.9979662 -0.02380576 0.05913387 0.9977221 -0.02484901 0.06271457 0.9976696 -0.02510429 0.06344362 0.8085954 -0.4156519 0.4164216 0.8665307 -0.350555 0.3552967 0.9369726 -0.2414484 0.2525569 0.915279 -0.2799709 0.2896216 0.9696491 -0.1652057 0.1802434 0.9545867 -0.2039222 0.2172096 0.4692813 -0.6331568 0.6155384 0.3775613 -0.6655055 0.6438554 0.2910604 -0.689221 0.6635196 0.2096812 -0.7061067 0.6763484 0.5656614 -0.5897362 0.5764013 0.662259 -0.5335814 0.5260266 0.751385 -0.4678898 0.4652954 -0.2754576 -0.6870897 0.6723324 0.1095713 -0.7197127 0.6855711 0.0165206 -0.7259014 0.6876004 -0.01887952 -0.7267757 0.6866153 -0.01887952 -0.7267757 0.6866153 -0.01887952 -0.7267757 0.6866153 -0.01892784 -0.7268216 0.6865655 -0.05322302 -0.7244804 0.6872376 -0.1561637 -0.7117979 0.6848041 -0.8722501 -0.3208993 0.3690575 -0.9121012 -0.2617513 0.3155276 -0.9466513 -0.1967032 0.2552628 -0.8370767 -0.3645198 0.4079559 -0.9503653 -0.1882763 0.2477053 -0.9673402 -0.1454754 0.2075808 -0.9759704 -0.1185151 0.182855 -0.9822899 -0.09550249 0.1612014 -0.9958 -0.01976702 0.08939598 -0.9980834 0.05537101 0.02763424 -0.9977917 0.05839543 0.03165096 -0.9970879 0.06798572 0.03455042 -0.9965615 0.07340096 0.03843748 -0.9915116 0.1300141 0.001078434 -0.9870712 0.1602809 0.0006725191 -0.9970945 0.07617388 -0.0003133705 -0.9968602 0.07918207 0.0001757213 -0.9962797 0.08617776 0.0002719133 -0.9953904 0.09590538 0.0003946491 -0.9939695 0.1096556 0.0004698873 -0.991619 0.1291913 -0.001199602 -0.3616627 -0.6624488 0.6560196 -0.452725 -0.6290841 0.6318965 -0.5459072 -0.5863484 0.5984821 -0.6521991 -0.5242247 0.5475626 -0.7716724 -0.4312179 0.4675177 0.9916442 -0.08096012 0.100435 -0.03180373 0.9583602 -0.2837854 -0.9976189 0.04722217 0.05026588 0.9577194 -0.1978799 0.2088473 0.9762891 -0.1455548 0.160229 0.9937841 -0.06911629 0.08727078 0.999663 -0.004497502 0.02556664 0.9997365 0.02295609 0.0001669376 -0.9766973 0.214592 -0.003565399 -0.9632105 0.2678708 -0.02169692 -0.9318573 0.3588055 -0.0538571 -0.8913193 0.4453864 -0.08474064 -0.8441024 0.5241223 -0.1130793 -0.7922085 0.5943039 -0.1385949 -0.7395938 0.6536655 -0.1603819 -0.7071307 0.6858224 -0.1720866 0.02574377 0.9996255 -0.009281994 0.02574377 0.9996255 -0.009281994 0.02574377 0.9996255 -0.009281994 0.02574377 0.9996255 -0.009281994 0.02574377 0.9996255 -0.009281994 0.02574377 0.9996255 -0.009281994 0.02574377 0.9996255 -0.009281994 0.02574377 0.9996255 -0.009281994 0.02574377 0.9996255 -0.009281994 0.02574377 0.9996255 -0.009281994 0.02574377 0.9996255 -0.009281994 0.02574377 0.9996255 -0.009281994 0.02574377 0.9996255 -0.009281994 0.02574377 0.9996255 -0.009281994 0.02574377 0.9996255 -0.009281994 0.02574377 0.9996255 -0.009281994 0.02574377 0.9996255 -0.009281994 0.02574377 0.9996255 -0.009281994 0.02574377 0.9996255 -0.009281994 0.02574377 0.9996255 -0.009281994 0.02574377 0.9996255 -0.009281994 0.02574377 0.9996255 -0.009281994 0.02574377 0.9996255 -0.009281994 0.02574377 0.9996255 -0.009281994 0.02574377 0.9996255 -0.009281994 0.02574377 0.9996255 -0.009281994 0.02574377 0.9996255 -0.009281994 0.02574377 0.9996255 -0.009281994 0.02574377 0.9996255 -0.009281994 0.02574377 0.9996255 -0.009281994 0.02574377 0.9996255 -0.009281994 0.02574377 0.9996255 -0.009281994 0.02574377 0.9996255 -0.009281994 0.02574377 0.9996255 -0.009281994 0.02574377 0.9996255 -0.009281994 0.02574377 0.9996255 -0.009281994 0.02574377 0.9996255 -0.009281994 0.02574377 0.9996255 -0.009281994 0.02574377 0.9996255 -0.009281994 0.02574377 0.9996255 -0.009281994 0.02574377 0.9996255 -0.009281994 0.02574377 0.9996255 -0.009281994 0.02574377 0.9996255 -0.009281994 0.02574377 0.9996255 -0.009281994 0.02574377 0.9996255 -0.009281994 0.02574377 0.9996255 -0.009281994 0.02574377 0.9996255 -0.009281994 0.02574377 0.9996255 -0.009281994 0.02574377 0.9996255 -0.009281994 0.02574377 0.9996255 -0.009281994 0.02574377 0.9996255 -0.009281994 0.02574377 0.9996255 -0.009281994 0.02574377 0.9996255 -0.009281994 0.02574377 0.9996255 -0.009281994 0.02574377 0.9996255 -0.009281994 0.02574377 0.9996255 -0.009281994 0.02574377 0.9996255 -0.009281994 0.02574377 0.9996255 -0.009281994 0.02574377 0.9996255 -0.009281994 0.02574377 0.9996255 -0.009281994 0.02574377 0.9996255 -0.009281994 0.02574377 0.9996255 -0.009281994 0.02574377 0.9996255 -0.009281994 0.02574377 0.9996255 -0.009281994 0.02574377 0.9996255 -0.009281994 0.02574377 0.9996255 -0.009281994 0.02574377 0.9996255 -0.009281994 0.02574377 0.9996255 -0.009281994 0.02574377 0.9996255 -0.009281994 0.02574377 0.9996255 -0.009281994 0.02574377 0.9996255 -0.009281994 0.02574377 0.9996255 -0.009281994 0.02574377 0.9996255 -0.009281994 0.02574377 0.9996255 -0.009281994 0.02574377 0.9996255 -0.009281994 0.02574377 0.9996255 -0.009281994 0.02574377 0.9996255 -0.009281994 0.02574377 0.9996255 -0.009281994 0.02574377 0.9996255 -0.009281994 0.02574377 0.9996255 -0.009281994 0.02574377 0.9996255 -0.009281994 0.02574377 0.9996255 -0.009281994 0.02574377 0.9996255 -0.009281994 0.02574377 0.9996255 -0.009281994 0.02574377 0.9996255 -0.009281994 0.02574377 0.9996255 -0.009281994 0.02574377 0.9996255 -0.009281994 0.02574377 0.9996255 -0.009281994 0.02574377 0.9996255 -0.009281994 0.02574377 0.9996255 -0.009281994 0.02574377 0.9996255 -0.009281994 0.02574377 0.9996255 -0.009281994 0.02574377 0.9996255 -0.009281994 0.02574377 0.9996255 -0.009281994 0.02574377 0.9996255 -0.009281994 0.02574377 0.9996255 -0.009281994 0.02574377 0.9996255 -0.009281994 0.02574377 0.9996255 -0.009281994</float_array>
          <technique_common>
            <accessor count="616" source="#normals-array-array" stride="3">
              <param type="float" name="X"/>
              <param type="float" name="Y"/>
              <param type="float" name="Z"/>
            </accessor>
          </technique_common>
        </source>
        <vertices id="verts-array-vertices">
          <input semantic="POSITION" source="#verts-array"/>
        </vertices>
        <triangles count="776" material="material0">
          <input offset="0" semantic="VERTEX" source="#verts-array-vertices"/>
          <input offset="1" semantic="NORMAL" source="#normals-array"/>
          <p>0 0 1 1 2 2 3 3 2 2 1 1 0 0 2 2 4 4 0 0 4 4 5 5 6 6 5 5 4 4 5 5 6 6 7 7 8 8 7 7 6 6 7 7 8 8 9 9 10 10 9 9 8 8 9 9 10 10 11 11 12 12 11 11 10 10 11 11 12 12 13 13 14 14 13 13 12 12 13 13 14 14 15 15 16 16 15 15 14 14 15 15 16 16 17 17 18 18 19 19 20 20 21 21 20 20 19 19 20 20 21 21 22 22 23 23 24 24 20 20 20 20 25 25 26 26 26 26 27 27 20 20 28 28 20 20 27 27 20 20 28 28 23 23 24 24 29 29 20 20 30 30 20 20 29 29 20 20 30 30 31 31 31 31 32 32 20 20 33 33 20 20 32 32 20 20 33 33 18 18 34 34 35 35 36 36 37 37 38 38 36 36 39 39 36 36 38 38 40 40 41 41 36 36 41 41 42 42 36 36 43 43 36 36 42 42 36 36 43 43 34 34 39 39 44 44 36 36 45 45 36 36 44 44 36 36 45 45 46 46 46 46 47 47 36 36 48 48 36 36 47 47 36 36 48 48 40 40 49 49 50 50 51 51 52 52 53 53 51 51 54 54 51 51 53 53 51 51 54 54 55 55 49 49 51 51 56 56 55 55 57 57 51 51 58 58 51 51 57 57 51 51 58 58 59 59 59 59 60 60 51 51 61 61 51 51 60 60 51 51 61 61 62 62 62 62 63 63 51 51 64 64 51 51 63 63 51 51 64 64 56 56 65 65 66 66 67 67 68 68 67 67 66 66 68 68 69 69 67 67 70 70 67 67 69 69 67 67 70 70 71 71 71 71 72 72 67 67 73 73 67 67 72 72 67 67 73 73 74 74 74 74 75 75 67 67 76 76 67 67 75 75 67 67 76 76 77 77 77 77 78 78 67 67 79 79 67 67 78 78 67 67 79 79 80 80 81 81 82 82 83 83 81 81 83 83 84 84 85 85 86 86 87 87 88 88 87 87 86 86 87 87 88 88 89 89 89 89 90 90 87 87 91 91 87 87 90 90 87 87 91 91 83 83 92 92 83 83 91 91 83 83 92 92 84 84 93 93 94 94 17 17 16 16 95 95 96 96 96 96 97 97 16 16 98 98 16 16 97 97 16 16 98 98 99 99 93 93 17 17 100 100 99 99 101 101 16 16 102 102 16 16 101 101 16 16 102 102 17 17 103 103 17 17 102 102 17 17 103 103 100 100 104 104 105 105 106 106 107 107 106 106 105 105 107 107 105 105 108 108 109 109 108 108 105 105 108 108 109 109 110 110 111 111 109 109 112 112 110 110 109 109 113 113 111 111 113 113 109 109 113 113 111 111 114 114 115 115 116 116 117 117 118 118 117 117 116 116 104 104 119 119 105 105 120 120 105 105 119 119 105 105 120 120 121 121 118 118 121 121 120 120 121 121 118 118 122 122 116 116 122 122 118 118 112 112 123 123 111 111 124 124 111 111 123 123 111 111 124 124 125 125 126 126 125 125 124 124 125 125 126 126 127 127 87 87 83 83 128 128 87 87 128 128 129 129 130 130 129 129 128 128 129 129 130 130 131 131 132 132 131 131 130 130 131 131 132 132 133 133 134 134 133 133 132 132 133 133 134 134 135 135 136 136 135 135 134 134 135 135 136 136 137 137 138 138 137 137 136 136 137 137 138 138 139 139 3 3 139 139 138 138 139 139 3 3 1 1 140 140 141 141 142 142 143 143 142 142 141 141 143 143 141 141 144 144 145 145 144 144 141 141 144 144 145 145 146 146 140 140 147 147 141 141 148 148 141 141 147 147 141 141 148 148 149 149 150 150 151 151 152 152 145 145 152 152 151 151 146 146 145 145 153 153 151 151 153 153 145 145 153 153 151 151 154 154 155 155 156 156 157 157 158 158 157 157 156 156 157 157 158 158 148 148 159 159 148 148 158 158 148 148 159 159 149 149 152 152 160 160 150 150 161 161 150 150 160 160 150 150 161 161 162 162 163 163 162 162 161 161 164 164 165 165 166 166 167 167 168 168 169 169 168 168 167 167 170 170 171 171 172 172 173 173 174 174 175 175 172 172 176 176 177 177 175 175 178 178 179 179 180 180 181 181 182 182 183 183 184 184 183 183 182 182 185 185 186 186 187 187 188 188 189 189 190 190 191 191 192 192 193 193 194 194 195 195 196 196 197 197 194 194 198 198 199 199 200 200 201 201 202 202 203 203 204 204 205 205 206 206 207 207 208 208 209 209 210 210 211 211 212 212 213 213 214 214 215 215 216 216 217 217 218 218 219 219 211 211 220 220 221 221 222 222 221 221 220 220 221 221 222 222 223 223 224 224 223 223 222 222 223 223 224 224 216 216 225 225 216 216 224 224 216 216 225 225 214 214 226 226 227 227 228 228 229 229 228 228 227 227 228 228 229 229 213 213 230 230 213 213 229 229 213 213 230 230 211 211 231 231 211 211 230 230 211 211 231 231 220 220 232 232 233 233 234 234 235 235 234 234 233 233 234 234 235 235 236 236 237 237 236 236 235 235 236 236 237 237 226 226 238 238 226 226 237 237 226 226 238 238 227 227 210 210 239 239 208 208 240 240 208 208 239 239 208 208 240 240 241 241 242 242 241 241 240 240 241 241 242 242 243 243 244 244 243 243 242 242 243 243 244 244 245 245 246 246 245 245 244 244 245 245 246 246 232 232 247 247 232 232 246 246 232 232 247 247 233 233 248 248 249 249 250 250 251 251 252 252 253 253 254 254 253 253 252 252 255 255 251 251 256 256 253 253 256 256 251 251 256 256 253 253 257 257 255 255 258 258 248 248 259 259 248 248 258 258 248 248 259 259 260 260 207 207 261 261 262 262 257 257 205 205 263 263 207 207 263 263 205 205 263 263 207 207 264 264 262 262 264 264 207 207 204 204 203 203 265 265 266 266 265 265 203 203 265 265 266 266 267 267 268 268 267 267 266 266 267 267 268 268 269 269 270 270 269 269 268 268 269 269 270 270 271 271 272 272 271 271 270 270 271 271 272 272 273 273 274 274 273 273 272 272 273 273 274 274 261 261 275 275 261 261 274 274 261 261 275 275 262 262 249 249 248 248 276 276 260 260 276 276 248 248 276 276 260 260 277 277 278 278 277 277 260 260 277 277 278 278 279 279 280 280 281 281 282 282 283 283 282 282 281 281 282 282 283 283 284 284 285 285 284 284 283 283 286 286 287 287 288 288 289 289 288 288 287 287 288 288 289 289 290 290 291 291 290 290 289 289 290 290 291 291 292 292 201 201 200 200 293 293 294 294 293 293 200 200 293 293 294 294 295 295 296 296 295 295 294 294 295 295 296 296 297 297 298 298 297 297 296 296 297 297 298 298 299 299 300 300 299 299 298 298 299 299 300 300 284 284 287 287 301 301 289 289 302 302 289 289 301 301 289 289 302 302 291 291 303 303 291 291 302 302 291 291 303 303 292 292 195 195 194 194 304 304 197 197 304 304 194 194 304 304 197 197 305 305 198 198 194 194 306 306 196 196 306 306 194 194 306 306 196 196 307 307 308 308 307 307 196 196 307 307 308 308 309 309 310 310 309 309 308 308 309 309 310 310 311 311 312 312 311 311 310 310 311 311 312 312 202 202 313 313 314 314 280 280 301 301 280 280 314 314 280 280 301 301 281 281 287 287 281 281 301 301 281 281 287 287 283 283 286 286 283 283 287 287 283 283 286 286 285 285 300 300 315 315 316 316 317 317 316 316 315 315 284 284 300 300 282 282 316 316 282 282 300 300 282 282 316 316 280 280 317 317 280 280 316 316 280 280 317 317 313 313 314 314 318 318 301 301 319 319 301 301 318 318 301 301 319 319 302 302 305 305 302 302 319 319 302 302 305 305 303 303 197 197 303 303 305 305 303 303 197 197 292 292 198 198 292 292 197 197 201 201 320 320 199 199 321 321 199 199 320 320 199 199 321 321 322 322 323 323 322 322 321 321 322 322 323 323 324 324 322 322 325 325 199 199 326 326 199 199 325 325 199 199 326 326 200 200 327 327 200 200 326 326 200 200 327 327 294 294 328 328 294 294 327 327 294 294 328 328 296 296 329 329 296 296 328 328 296 296 329 329 298 298 330 330 298 298 329 329 298 298 330 330 300 300 331 331 300 300 330 330 300 300 331 331 315 315 332 332 333 333 334 334 335 335 336 336 337 337 338 338 337 337 336 336 337 337 338 338 339 339 323 323 339 339 338 338 339 339 323 323 340 340 321 321 340 340 323 323 340 340 321 321 341 341 320 320 341 341 321 321 341 341 187 187 340 340 342 342 340 340 187 187 340 340 342 342 339 339 343 343 339 339 342 342 339 339 343 343 337 337 344 344 337 337 343 343 337 337 344 344 335 335 345 345 335 335 344 344 333 333 346 346 334 334 347 347 334 334 346 346 334 334 347 347 348 348 349 349 348 348 347 347 348 348 349 349 350 350 351 351 350 350 349 349 350 350 351 351 352 352 218 218 217 217 353 353 354 354 353 353 217 217 353 353 354 354 355 355 356 356 355 355 354 354 355 355 356 356 357 357 358 358 359 359 345 345 360 360 345 345 359 359 345 345 360 360 335 335 361 361 335 335 360 360 335 335 361 361 336 336 362 362 336 336 361 361 336 336 362 362 338 338 363 363 338 338 362 362 338 338 363 363 323 323 364 364 323 323 363 363 323 323 364 364 324 324 365 365 366 366 367 367 368 368 367 367 366 366 367 367 368 368 369 369 370 370 371 371 372 372 373 373 372 372 371 371 372 372 373 373 374 374 375 375 376 376 377 377 368 368 378 378 369 369 379 379 369 369 378 378 369 369 379 379 376 376 380 380 376 376 379 379 376 376 380 380 377 377 373 373 381 381 374 374 382 382 374 374 381 381 374 374 382 382 383 383 382 382 384 384 383 383 385 385 383 383 384 384 383 383 385 385 386 386 387 387 386 386 385 385 386 386 387 387 388 388 389 389 388 388 387 387 390 390 391 391 392 392 393 393 392 392 391 391 377 377 394 394 375 375 370 370 375 375 394 394 375 375 370 370 395 395 372 372 395 395 370 370 395 395 372 372 396 396 374 374 396 396 372 372 396 396 374 374 397 397 383 383 397 397 374 374 397 397 383 383 398 398 386 386 398 398 383 383 398 398 386 386 399 399 388 388 399 399 386 386 399 399 388 388 391 391 389 389 391 391 388 388 391 391 389 389 393 393 185 185 187 187 400 400 341 341 400 400 187 187 400 400 341 341 401 401 320 320 401 401 341 341 401 401 320 320 402 402 201 201 402 402 320 320 402 402 201 201 403 403 293 293 403 403 201 201 403 403 293 293 404 404 295 295 404 404 293 293 404 404 295 295 405 405 297 297 405 405 295 295 405 405 297 297 406 406 407 407 183 183 408 408 184 184 408 408 183 183 408 408 184 184 409 409 410 410 409 409 184 184 409 409 410 410 178 178 411 411 178 178 410 410 178 178 411 411 179 179 412 412 413 413 414 414 415 415 414 414 413 413 414 414 415 415 416 416 417 417 416 416 415 415 416 416 417 417 418 418 419 419 420 420 421 421 422 422 421 421 423 423 420 420 423 423 421 421 423 423 420 420 424 424 425 425 424 424 420 420 424 424 425 425 426 426 427 427 426 426 425 425 426 426 427 427 428 428 429 429 428 428 427 427 428 428 429 429 430 430 422 422 423 423 180 180 424 424 180 180 423 423 180 180 424 424 178 178 426 426 178 178 424 424 178 178 426 426 409 409 428 428 409 409 426 426 409 409 428 428 408 408 430 430 408 408 428 428 408 408 430 430 407 407 431 431 432 432 433 433 332 332 433 433 432 432 433 433 332 332 434 434 334 334 434 434 332 332 434 434 334 334 419 419 348 348 419 419 334 334 419 419 348 348 420 420 350 350 420 420 348 348 420 420 350 350 425 425 352 352 425 425 350 350 425 425 352 352 427 427 435 435 427 427 352 352 427 427 435 435 429 429 431 431 436 436 432 432 437 437 432 432 436 436 432 432 437 437 332 332 191 191 332 332 437 437 332 332 191 191 333 333 193 193 333 333 191 191 422 422 418 418 421 421 417 417 421 421 418 418 421 421 417 417 419 419 415 415 419 419 417 417 419 419 415 415 434 434 413 413 434 434 415 415 434 434 413 413 433 433 412 412 433 433 413 413 433 433 412 412 431 431 177 177 176 176 438 438 439 439 438 438 176 176 438 438 439 439 192 192 440 440 192 192 439 439 192 192 440 440 193 193 436 436 441 441 437 437 442 442 437 437 441 441 437 437 442 442 191 191 443 443 191 191 442 442 191 191 443 443 192 192 444 444 192 192 443 443 192 192 444 444 438 438 445 445 438 438 444 444 438 438 445 445 177 177 172 172 171 171 174 174 446 446 174 174 171 171 174 174 446 446 447 447 448 448 447 447 446 446 447 447 448 448 449 449 450 450 449 449 448 448 449 449 450 450 451 451 175 175 174 174 176 176 447 447 176 176 174 174 176 176 447 447 439 439 449 449 439 439 447 447 439 439 449 449 440 440 451 451 440 440 449 449 440 440 451 451 193 193 452 452 193 193 451 451 193 193 452 452 333 333 453 453 333 333 452 452 333 333 453 453 346 346 351 351 358 358 352 352 345 345 352 352 358 358 352 352 345 345 435 435 344 344 435 435 345 345 435 435 344 344 429 429 343 343 429 429 344 344 429 429 343 343 430 430 342 342 430 430 343 343 430 430 342 342 407 407 187 187 407 407 342 342 407 407 187 187 183 183 186 186 183 183 187 187 183 183 186 186 181 181 169 169 454 454 167 167 455 455 167 167 454 454 167 167 455 455 456 456 457 457 456 456 455 455 456 456 457 457 458 458 459 459 458 458 457 457 458 458 459 459 219 219 460 460 461 461 226 226 462 462 226 226 461 461 226 226 462 462 236 236 463 463 236 236 462 462 236 236 463 463 234 234 460 460 226 226 464 464 228 228 464 464 226 226 464 464 228 228 465 465 213 213 465 465 228 228 465 465 213 213 466 466 212 212 466 466 213 213 466 466 212 212 169 169 467 467 277 277 209 209 279 279 209 209 277 277 209 209 279 279 210 210 463 463 468 468 234 234 469 469 234 234 468 468 234 234 469 469 232 232 470 470 232 232 469 469 232 232 470 470 245 245 471 471 245 245 470 470 245 245 471 471 243 243 472 472 243 243 471 471 243 243 472 472 241 241 473 473 241 241 472 472 241 241 473 473 208 208 474 474 208 208 473 473 208 208 474 474 209 209 475 475 209 209 474 474 209 209 475 475 467 467 252 252 476 476 254 254 477 477 254 254 476 476 254 254 477 477 478 478 255 255 248 248 251 251 250 250 251 251 248 248 251 251 250 250 252 252 479 479 252 252 250 250 252 252 479 479 476 476 477 477 480 480 478 478 481 481 478 478 480 480 478 478 481 481 482 482 483 483 482 482 481 481 482 482 483 483 164 164 484 484 164 164 483 483 164 164 484 484 165 165 267 267 485 485 265 265 486 486 265 265 485 485 265 265 486 486 204 204 487 487 204 204 486 486 204 204 487 487 488 488 489 489 488 488 487 487 488 488 489 489 490 490 257 257 253 253 205 205 254 254 205 205 253 253 205 205 254 254 206 206 478 478 206 206 254 254 206 206 478 478 207 207 482 482 207 207 478 478 207 207 482 482 261 261 164 164 261 261 482 482 261 261 164 164 273 273 166 166 273 273 164 164 273 273 166 166 271 271 491 491 271 271 166 166 271 271 491 491 269 269 492 492 269 269 491 491 269 269 492 492 267 267 493 493 267 267 492 492 267 267 493 493 485 485 494 494 485 485 493 493 485 485 494 494 486 486 495 495 486 486 494 494 486 486 495 495 487 487 496 496 487 487 495 495 487 487 496 496 489 489 467 467 497 497 277 277 498 498 277 277 497 497 277 277 498 498 276 276 499 499 276 276 498 498 276 276 499 499 249 249 500 500 249 249 499 499 249 249 500 500 250 250 501 501 250 250 500 500 250 250 501 501 479 479 169 169 212 212 454 454 211 211 454 454 212 212 454 454 211 211 455 455 221 221 455 455 211 211 455 455 221 221 457 457 223 223 457 457 221 221 457 457 223 223 459 459 216 216 459 459 223 223 459 459 216 216 219 219 215 215 219 219 216 216 219 219 215 215 217 217 502 502 217 217 215 215 217 217 502 502 354 354 188 188 354 354 502 502 354 354 188 188 356 356 190 190 356 356 188 188 356 356 190 190 357 357 406 406 297 297 503 503 299 299 503 503 297 297 503 503 299 299 390 390 284 284 390 390 299 299 390 390 284 284 391 391 285 285 391 391 284 284 391 391 285 285 399 399 286 286 399 399 285 285 399 399 286 286 398 398 288 288 398 398 286 286 398 398 288 288 397 397 290 290 397 397 288 288 397 397 290 290 396 396 292 292 396 396 290 290 396 396 292 292 395 395 198 198 395 395 292 292 395 395 198 198 375 375 306 306 375 375 198 198 375 375 306 306 376 376 307 307 376 376 306 306 376 376 307 307 369 369 309 309 369 369 307 307 369 369 309 309 367 367 311 311 367 367 309 309 367 367 311 311 365 365 202 202 365 365 311 311 365 365 202 202 504 504 170 170 167 167 505 505 456 456 505 505 167 167 505 505 456 456 506 506 458 458 506 506 456 456 506 506 458 458 507 507 219 219 507 507 458 458 507 507 219 219 508 508 218 218 508 508 219 219 508 508 218 218 509 509 353 353 509 509 218 218 509 509 353 353 173 173 355 355 173 173 353 353 173 173 355 355 171 171 357 357 171 171 355 355 171 171 357 357 446 446 190 190 446 446 357 357 446 446 190 190 448 448 189 189 448 448 190 190 448 448 189 189 450 450 202 202 204 204 504 504 488 488 504 504 204 204 504 504 488 488 365 365 490 490 365 365 488 488 365 365 490 490 366 366 510 510 366 366 490 490 366 366 510 510 368 368 511 511 368 368 510 510 368 368 511 511 378 378 512 512 378 378 511 511 378 378 512 512 379 379 513 513 379 379 512 512 379 379 513 513 380 380 514 514 380 380 513 513 380 380 514 514 377 377 515 515 377 377 514 514 377 377 515 515 394 394 516 516 394 394 515 515 394 394 516 516 370 370 517 517 370 370 516 516 370 370 517 517 371 371 518 518 519 519 520 520 521 521 522 522 523 523 524 524 525 525 519 519 519 519 526 526 524 524 527 527 524 524 526 526 524 524 527 527 528 528 529 529 528 528 527 527 528 528 529 529 530 530 531 531 530 530 529 529 530 530 531 531 522 522 532 532 522 522 531 531 533 533 534 534 535 535 536 536 535 535 534 534 520 520 519 519 537 537 525 525 537 537 519 519 537 537 525 525 535 535 538 538 535 535 525 525 535 535 538 538 533 533 518 518 520 520 539 539 540 540 539 539 520 520 539 539 540 540 541 541 542 542 543 543 532 532 544 544 532 532 543 543 532 532 544 544 522 522 545 545 522 522 544 544 522 522 545 545 523 523 536 536 546 546 535 535 547 547 535 535 546 546 535 535 547 547 548 548 540 540 549 549 550 550 542 542 551 551 543 543 552 552 543 543 551 551 543 543 552 552 553 553 548 548 554 554 535 535 555 555 535 535 554 554 535 535 555 555 556 556 540 540 557 557 558 558 559 559 560 560 540 540 561 561 540 540 560 560 540 540 561 561 541 541 553 553 562 562 543 543 563 563 543 543 562 562 543 543 563 563 564 564 565 565 566 566 523 523 567 567 523 523 566 566 523 523 567 567 521 521 558 558 568 568 540 540 569 569 540 540 568 568 540 540 569 569 549 549 570 570 571 571 523 523 572 572 523 523 571 571 523 523 572 572 565 565 564 564 573 573 543 543 574 574 543 543 573 573 543 543 574 574 575 575 576 576 575 575 574 574 575 575 576 576 577 577 578 578 577 577 576 576 557 557 540 540 579 579 580 580 579 579 540 540 579 579 580 580 581 581 550 550 582 582 540 540 583 583 540 540 582 582 540 540 583 583 559 559 576 576 584 584 578 578 585 585 578 578 584 584 578 578 585 585 586 586 587 587 586 586 585 585 556 556 588 588 535 535 589 589 535 535 588 588 535 535 589 589 590 590 570 570 523 523 591 591 592 592 591 591 523 523 591 591 592 592 593 593 590 590 594 594 535 535 595 595 535 535 594 594 535 535 595 595 596 596 597 597 596 596 595 595 596 596 597 597 598 598 599 599 598 598 597 597 581 581 600 600 579 579 601 601 579 579 600 600 579 579 601 601 602 602 603 603 602 602 601 601 602 602 603 603 604 604 605 605 604 604 603 603 597 597 606 606 599 599 607 607 599 599 606 606 599 599 607 607 608 608 609 609 608 608 607 607 593 593 610 610 591 591 611 611 591 591 610 610 591 591 611 611 612 612 613 613 612 612 611 611 612 612 613 613 614 614 615 615 614 614 613 613</p>
        </triangles>
      </mesh>
    </geometry>
  </library_geometries>
  <library_materials>
    <material id="5be3c234d09a4b96b7a9e832e47f79bc" name="defaultmaterial">
      <instance_effect url="#4a705566bdef496daee3b8850422e31b"/>
    </material>
  </library_materials>
  <library_visual_scenes>
    <visual_scene id="scene">
      <node id="node0" name="node0">
        <instance_geometry url="#9ad37fa1c69a46ef88fc52d3fb5d368f">
          <bind_material>
            <technique_common>
              <instance_material symbol="material0" target="#5be3c234d09a4b96b7a9e832e47f79bc"/>
            </technique_common>
          </bind_material>
        </instance_geometry>
      </node>
    </visual_scene>
  </library_visual_scenes>
  <scene>
    <instance_visual_scene url="#scene"/>
  </scene>
</COLLADA>
