<COLLADA xmlns="http://www.collada.org/2005/11/COLLADASchema" version="1.4.1">
  <asset>
    <created>2026-09-27T18:30:25.054431</created>
    <modified>2026-09-27T18:30:25.054431</modified>
    <up_axis>Y_UP</up_axis>
  </asset>
  <library_effects>
    <effect id="e0b0c60f4b7e4bc29e8846c98ade41f0" name="e0b0c60f4b7e4bc29e8846c98ade41f0">
      <profile_COMMON>
        <technique sid="common">
          <phong>
            <emission>
              <color>0.0 0.0 0.0 1.0</color>
            </emission>
            <ambient>
              <color>0.0 0.0 0.0 1.0</color>
            </ambient>
            <diffuse>
              <color>0.8941176470588236 0.8941176470588236 0.8941176470588236 1.0</color>
            </diffuse>
            <specular>
              <color>0.0 0.0 0.0 1.0</color>
            </specular>
            <shininess>
              <float>0.0</float>
            </shininess>
            <reflective>
              <color>0.0 0.0 0.0 1.0</color>
            </reflective>
            <reflectivity>
              <float>0.0</float>
            </reflectivity>
            <transparent>
              <color>0.0 0.0 0.0 1.0</color>
            </transparent>
            <transparency>
              <float>1.0</float>
            </transparency>
          </phong>
        </technique>
        <extra>
          <technique profile="GOOGLEEARTH">
            <double_sided>0</double_sided>
          </technique>
        </extra>
      </profile_COMMON>
    </effect>
  </library_effects>
  <library_geometries>
    <geometry id="8900bb4d2b9f4614b757a264bfb7009c" name="09e49db8376b423785eb130c79aaefa5">
      <mesh>
        <source id="verts-array">
          <float_array count="1752" id="verts-array-array">-0.01810669 -0.003936062 -0.004259046 -0.01810534 -0.00388426 -0.004308929 -0.0001318072 -0.005150934 -0.005079511 -0.01788384 0.004716582 -0.004404403 -0.01788256 0.004766449 -0.004352584 0.0001316097 0.005077704 -0.005151848 -0.01788216 0.004861944 0.00425111 -0.01788351 0.004810142 0.004300994 0.0001310269 0.00515008 0.005080181 -0.01810501 -0.0037907 0.004396467 -0.01810628 -0.003840567 0.004344648 -0.00013239 -0.005078558 0.005152518 -0.0001347221 -0.005169901 0.005068572 -0.01811065 -0.0040118 0.00416672 -0.0001365301 -0.005240942 0.004979138 -0.018113 -0.004103948 0.004054261 -0.000140332 -0.005390325 0.004791087 -0.01811579 -0.004213569 0.003920483 -0.0181189 -0.004336135 0.003743863 -0.0001419688 -0.005454639 0.00471012 -0.01812041 -0.004395401 0.00365847 -0.0001437271 -0.005524042 0.00458916 -0.01812392 -0.004533981 0.003420446 -0.0001468534 -0.005647444 0.004374116 -0.01812447 -0.004555569 0.003383385 -0.01812795 -0.004693388 0.003096123 -0.01812801 -0.004695805 0.003089845 -0.000147592 -0.005676597 0.004323295 -0.01813083 -0.004808058 0.002798614 -0.0001493886 -0.005748062 0.00414078 -0.01813113 -0.004820164 0.002757765 -0.0001515835 -0.005835368 0.003917801 -0.01813309 -0.004898538 0.002493321 -0.0001517246 -0.00584107 0.003893733 -0.01813341 -0.004911828 0.002430442 -0.0001533058 -0.005904976 0.003624075 -9.323426e-05 -0.003550433 0.005969274 -0.01805513 -0.001844073 0.005424557 -9.412242e-05 -0.003584967 0.005964504 -0.01805691 -0.001913345 0.005407119 -0.0001000492 -0.003815737 0.005898134 -0.01806306 -0.002152796 0.00534682 -0.0001050903 -0.004012025 0.005841664 -0.01806537 -0.002242783 0.005316344 -0.0001064519 -0.004065124 0.005817436 -0.0180708 -0.002454418 0.005244656 -0.0001123704 -0.004295936 0.005712085 -0.01807394 -0.002576701 0.005192069 -0.01807832 -0.002747333 0.005118681 -0.0001154159 -0.004414706 0.005657875 -0.01808249 -0.002910065 0.005032738 -0.0001178996 -0.004511752 0.005593844 -0.01808553 -0.003028783 0.004970047 -0.0001230836 -0.004714305 0.005460219 -0.01809085 -0.003236779 0.004837973 -0.0001257551 -0.004818685 0.005391355 -0.01809242 -0.003297952 0.004799129 -0.000127906 -0.004902929 0.005313934 -0.01809888 -0.003550626 0.004608967 -0.01809892 -0.003552297 0.004607713 -0.01813471 -0.004964517 0.002181241 -0.01813493 -0.004973552 0.002111521 -0.0001539517 -0.005931082 0.003513923 -0.01813569 -0.005005448 0.001865447 -0.0001543083 -0.00594661 0.003332709 -0.01813575 -0.00500847 0.001803802 -0.0001548527 -0.005970325 0.003055897 -0.01813602 -0.005021072 0.001547018 -0.0001548527 -0.005970737 0.003011439 -0.01813602 -0.005021424 0.00150906 -0.0001548527 -0.005977472 0.00228618 -0.01813602 -0.005026015 0.001014649 -0.0001548527 -0.005993964 0.0005100621 -0.01813602 -0.005033361 0.0002234734 -0.0001548527 -0.006026035 -0.002943844 0.0001288441 0.005066163 0.005171554 -0.01788813 0.004632275 0.004472282 0.0001265248 0.004976759 0.005242617 -0.01789105 0.004519853 0.00456446 0.0001216482 0.004788771 0.005392049 -0.01789452 0.00438612 0.004674117 -0.01789909 0.00420956 0.004796721 0.0001195485 0.004707832 0.005456383 -0.0179013 0.004124195 0.004856007 0.0001164181 0.004586912 0.005525809 -0.01790747 0.003886251 0.004994632 0.0001108528 0.00437194 0.00564925 -0.01790842 0.003849203 0.005016227 -0.01791585 0.003562036 0.005154089 -0.01791601 0.00355576 0.005156507 0.0001095375 0.004321136 0.005678413 -0.01792354 0.003264627 0.005268796 0.0001048221 0.004138682 0.005749901 -0.01792459 0.003223791 0.005280905 9.906112e-05 0.003915778 0.005837234 -0.01793142 0.002959436 0.005359303 9.844018e-05 0.003891718 0.005842938 -0.01793304 0.002896577 0.005372597 9.148318e-05 0.003622149 0.005906863 0.0001524176 0.005966556 0.003551554 -0.01785523 0.005889681 0.002303844 0.0001522866 0.005961789 0.0035861 -0.0178557 0.00587225 0.002373139 0.0001505229 0.005895442 0.003816946 -0.01785731 0.005811972 0.002612669 0.0001490223 0.005838992 0.004013298 -0.01785811 0.005781507 0.002702685 0.0001483859 0.005814772 0.004066415 -0.01786001 0.005709844 0.00291439 0.0001456187 0.005709457 0.004297303 -0.01786139 0.005657275 0.003036713 -0.01786332 0.005583912 0.003207402 0.0001441948 0.005655266 0.004416112 -0.01786557 0.005497998 0.003370187 0.0001425233 0.005591256 0.00451319 -0.01786721 0.00543533 0.003488944 0.000139035 0.005457677 0.004715809 -0.01787066 0.0053033 0.003697009 0.0001372373 0.005388837 0.004820223 -0.01787168 0.00526447 0.003758202 0.0001352242 0.005311442 0.004904495 -0.01787663 0.005074372 0.004010958 -0.01787667 0.005073118 0.004012629 -0.01793947 0.002647459 0.005425303 -0.01794127 0.002577763 0.00543434 8.864133e-05 0.003512033 0.005932977 -0.01794761 0.00233177 0.005466246 8.39727e-05 0.00333088 0.00594851 -0.0179492 0.002270146 0.005469268 7.684116e-05 0.00305416 0.00597223 -0.01795581 0.002013447 0.005481872 7.569659e-05 0.003009717 0.005972643 -0.01795679 0.001975501 0.005482224 5.702489e-05 0.002284698 0.005979375 -0.01796951 0.001481254 0.005486814 1.129894e-05 0.0005091685 0.005995861 -0.01798988 0.0006903408 0.005494158 -7.762144e-05 -0.002943593 0.006027922 -0.01803304 -0.0009854294 0.005509718 -0.01803889 -0.001212624 0.005505407 -8.347248e-05 -0.003170866 0.006021632 -0.01804068 -0.00128224 0.005499313 -8.578608e-05 -0.003260825 0.006009227 -0.01804705 -0.00152962 0.005477649 -0.01804865 -0.00159213 0.005467099 0.0001339419 0.005169048 -0.005067903 -0.0178782 0.004937682 -0.004174656 0.0001357498 0.005240088 -0.004978469 -0.01787585 0.00502983 -0.004062197 0.0001395517 0.005389471 -0.004790417 -0.01787306 0.005139451 -0.003928419 -0.01786995 0.005262016 -0.003751799 0.0001411885 0.005453785 -0.004709451 -0.01786844 0.005321282 -0.003666406 0.0001429468 0.005523188 -0.00458849 -0.01786493 0.005459863 -0.003428382 0.0001460731 0.00564659 -0.004373447 -0.01786438 0.005481451 -0.003391321 -0.0178609 0.00561927 -0.003104058 -0.01786084 0.005621687 -0.003097781 0.0001468117 0.005675744 -0.004322625 -0.01785802 0.00573394 -0.00280655 0.0001486083 0.005747208 -0.004140111 -0.01785772 0.005746046 -0.002765701 0.0001508033 0.005834514 -0.003917132 -0.01785576 0.005824419 -0.002501257 0.0001509443 0.005840216 -0.003893064 -0.01785544 0.00583771 -0.002438378 0.0001525255 0.005904122 -0.003623406 9.245398e-05 0.003549579 -0.005968605 -0.01793372 0.002769955 -0.005432493 9.334214e-05 0.003584113 -0.005963835 -0.01793194 0.002839227 -0.005415055 9.926887e-05 0.003814883 -0.005897465 -0.01792579 0.003078678 -0.005354756 0.00010431 0.004011171 -0.005840995 -0.01792348 0.003168665 -0.00532428 0.0001056716 0.004064271 -0.005816767 -0.01791804 0.0033803 -0.005252592 0.0001115901 0.004295083 -0.005711416 -0.01791491 0.003502583 -0.005200005 -0.01791053 0.003673215 -0.005126616 0.0001146356 0.004413852 -0.005657206 -0.01790636 0.003835946 -0.005040674 0.0001171193 0.004510899 -0.005593174 -0.01790332 0.003954664 -0.004977983 0.0001223034 0.004713451 -0.005459549 -0.01789799 0.004162661 -0.004845909 0.0001249748 0.004817831 -0.005390686 -0.01789643 0.004223834 -0.004807065 0.0001271257 0.004902076 -0.005313264 -0.01788997 0.004476508 -0.004616903 -0.01788992 0.004478179 -0.004615648 -0.01785414 0.005890399 -0.002189176 -0.01785392 0.005899434 -0.002119457 0.0001531714 0.005930228 -0.003513253 -0.01785316 0.00593133 -0.001873383 0.000153528 0.005945757 -0.00333204 -0.0178531 0.005934352 -0.001811738 0.0001540725 0.005969471 -0.003055228 -0.01785283 0.005946954 -0.001554954 0.0001540725 0.005969884 -0.00301077 -0.01785283 0.005947306 -0.001516996 0.0001540725 0.005976618 -0.002285511 -0.01785283 0.005951897 -0.001022585 0.0001540725 0.00599311 -0.0005093927 -0.01785283 0.005959243 -0.0002314093 0.0001540725 0.006025181 0.002944513 -0.0001296244 -0.005067017 -0.005170885 -0.01810072 -0.003706393 -0.004480218 -0.0001273051 -0.004977612 -0.005241948 -0.0180978 -0.003593971 -0.004572396 -0.0001224285 -0.004789625 -0.00539138 -0.01809433 -0.003460238 -0.004682053 -0.01808976 -0.003283678 -0.004804657 -0.0001203288 -0.004708686 -0.005455714 -0.01808754 -0.003198313 -0.004863942 -0.0001171984 -0.004587765 -0.00552514 -0.01808138 -0.002960369 -0.005002568 -0.0001116331 -0.004372794 -0.005648581 -0.01808042 -0.002923321 -0.005024163 -0.018073 -0.002636154 -0.005162025 -0.01807283 -0.002629878 -0.005164443 -0.0001103178 -0.004321989 -0.005677744 -0.01806531 -0.002338745 -0.005276731 -0.0001056023 -0.004139536 -0.005749231 -0.01806426 -0.002297909 -0.005288841 -9.98414e-05 -0.003916631 -0.005836565 -0.01805743 -0.002033554 -0.005367239 -9.922046e-05 -0.003892571 -0.005842268 -0.01805581 -0.001970695 -0.005380533 -9.226347e-05 -0.003623003 -0.005906194 -0.0001531979 -0.00596741 -0.003550885 -0.01813362 -0.004963799 -0.00231178 -0.0001530669 -0.005962642 -0.00358543 -0.01813315 -0.004946368 -0.002381075 -0.0001513032 -0.005896296 -0.003816276 -0.01813154 -0.00488609 -0.002620605 -0.0001498026 -0.005839846 -0.004012629 -0.01813074 -0.004855625 -0.002710621 -0.0001491662 -0.005815626 -0.004065746 -0.01812884 -0.004783962 -0.002922326 -0.000146399 -0.005710311 -0.004296634 -0.01812746 -0.004731393 -0.003044649 -0.01812553 -0.00465803 -0.003215338 -0.0001449751 -0.00565612 -0.004415442 -0.01812328 -0.004572117 -0.003378123 -0.0001433036 -0.00559211 -0.004512521 -0.01812163 -0.004509448 -0.00349688 -0.0001398153 -0.005458531 -0.00471514 -0.01811818 -0.004377418 -0.003704944 -0.0001380176 -0.00538969 -0.004819553 -0.01811717 -0.004338588 -0.003766138 -0.0001360044 -0.005312295 -0.004903826 -0.01811221 -0.00414849 -0.004018894 -0.01811218 -0.004147236 -0.004020565 -0.01804938 -0.001721577 -0.005433239 -0.01804758 -0.001651881 -0.005442276 -8.942161e-05 -0.003512887 -0.005932308 -0.01804124 -0.001405888 -0.005474182 -8.475298e-05 -0.003331734 -0.00594784 -0.01803965 -0.001344264 -0.005477204 -7.762144e-05 -0.003055014 -0.005971561 -0.01803304 -0.001087565 -0.005489808 -7.647687e-05 -0.00301057 -0.005971973 -0.01803206 -0.001049619 -0.00549016 -5.780518e-05 -0.002285552 -0.005978706 -0.01801933 -0.0005553725 -0.00549475 -1.207923e-05 -0.0005100222 -0.005995192 -0.01799897 0.0002355411 -0.005502094 7.684116e-05 0.002942739 -0.006027253 -0.01795581 0.001911311 -0.005517654 -0.01794996 0.002138506 -0.005513343 8.26922e-05 0.003170012 -0.006020963 -0.01794817 0.002208122 -0.005507249 8.500579e-05 0.003259971 -0.006008557 -0.0179418 0.002455502 -0.005485585 -0.0179402 0.002518012 -0.005475035 -0.01785283 0.005974809 0.001444916 -0.017853 0.005970501 0.001672186 0.0001538562 0.006018895 0.003171862 -0.01785317 0.005964409 0.001741826 0.0001535154 0.006006494 0.003261851 -0.01785379 0.005942754 0.001989288 -0.01785408 0.005932208 0.002051818 -0.01813602 -0.005048927 -0.001452852 -0.01813585 -0.005044619 -0.001680122 -0.0001546365 -0.006019748 -0.003171192 -0.01813568 -0.005038528 -0.001749762 -0.0001542956 -0.006007348 -0.003261181 -0.01813506 -0.005016872 -0.001997223 -0.01813477 -0.005006326 -0.002059754 -0.01798988 0.0006903408 0.005494158 -0.01796951 0.001481254 0.005486814 -0.01807283 -0.002629878 -0.005164443 -0.01804705 -0.00152962 0.005477649 -0.01804068 -0.00128224 0.005499313 -0.01813506 -0.005016872 -0.001997223 -0.01813568 -0.005038528 -0.001749762 -0.01808976 -0.003283678 -0.004804657 -0.01811065 -0.0040118 0.00416672 -0.01810628 -0.003840567 0.004344648 -0.01810501 -0.0037907 0.004396467 -0.01795679 0.001975501 0.005482224 -0.01795581 0.002013447 0.005481872 -0.0179492 0.002270146 0.005469268 -0.0179013 0.004124195 0.004856007 -0.01789909 0.00420956 0.004796721 -0.01789452 0.00438612 0.004674117 -0.01805743 -0.002033554 -0.005367239 -0.01806426 -0.002297909 -0.005288841 -0.01788256 0.004766449 -0.004352584 -0.01808754 -0.003198313 -0.004863942 -0.018073 -0.002636154 -0.005162025 -0.01813493 -0.004973552 0.002111521 -0.01813471 -0.004964517 0.002181241 -0.01813341 -0.004911828 0.002430442 -0.01809892 -0.003552297 0.004607713 -0.01809888 -0.003550626 0.004608967 -0.01809242 -0.003297952 0.004799129 -0.0180708 -0.002454418 0.005244656 -0.01806537 -0.002242783 0.005316344 -0.01806306 -0.002152796 0.00534682 -0.01805691 -0.001913345 0.005407119 -0.01805513 -0.001844073 0.005424557 -0.01804865 -0.00159213 0.005467099 -0.01794761 0.00233177 0.005466246 -0.01794127 0.002577763 0.00543434 -0.01793947 0.002647459 0.005425303 -0.01793304 0.002896577 0.005372597 -0.01793142 0.002959436 0.005359303 -0.01792459 0.003223791 0.005280905 -0.01792354 0.003264627 0.005268796 -0.01791601 0.00355576 0.005156507 -0.01791585 0.003562036 0.005154089 -0.01790842 0.003849203 0.005016227 -0.01790747 0.003886251 0.004994632 -0.01789105 0.004519853 0.00456446 -0.01788813 0.004632275 0.004472282 -0.01788351 0.004810142 0.004300994 -0.01785802 0.00573394 -0.00280655 -0.01786084 0.005621687 -0.003097781 -0.0178609 0.00561927 -0.003104058 -0.01786844 0.005321282 -0.003666406 -0.01786995 0.005262016 -0.003751799 -0.01787306 0.005139451 -0.003928419 -0.01787585 0.00502983 -0.004062197 -0.01803206 -0.001049619 -0.00549016 -0.01803304 -0.001087565 -0.005489808 -0.01803965 -0.001344264 -0.005477204 -0.0178782 0.004937682 -0.004174656 -0.01806531 -0.002338745 -0.005276731 -0.01813602 -0.005048927 -0.001452852 -0.01813602 -0.005033361 0.0002234734 -0.01808138 -0.002960369 -0.005002568 -0.01813602 -0.005026015 0.001014649 -0.01803889 -0.001212624 0.005505407 -0.01803304 -0.0009854294 0.005509718 -0.01788216 0.004861944 0.00425111 -0.01787667 0.005073118 0.004012629 -0.01787663 0.005074372 0.004010958 -0.01785316 0.00593133 -0.001873383 -0.01785392 0.005899434 -0.002119457 -0.01785414 0.005890399 -0.002189176 -0.01785544 0.00583771 -0.002438378 -0.01785576 0.005824419 -0.002501257 -0.01785772 0.005746046 -0.002765701 -0.01786438 0.005481451 -0.003391321 -0.01786493 0.005459863 -0.003428382 -0.01804124 -0.001405888 -0.005474182 -0.01804758 -0.001651881 -0.005442276 -0.01790636 0.003835946 -0.005040674 -0.01813585 -0.005044619 -0.001680122 -0.01809085 -0.003236779 0.004837973 -0.01808553 -0.003028783 0.004970047 -0.01808249 -0.002910065 0.005032738 -0.01807832 -0.002747333 0.005118681 -0.01807394 -0.002576701 0.005192069 -0.01787168 0.00526447 0.003758202 -0.01787066 0.0053033 0.003697009 -0.01786721 0.00543533 0.003488944 -0.01785731 0.005811972 0.002612669 -0.0178557 0.00587225 0.002373139 -0.01785523 0.005889681 0.002303844 -0.01785408 0.005932208 0.002051818 -0.01785379 0.005942754 0.001989288 -0.01785317 0.005964409 0.001741826 -0.01785283 0.005959243 -0.0002314093 -0.01785283 0.005951897 -0.001022585 -0.01785283 0.005947306 -0.001516996 -0.01788992 0.004478179 -0.004615648 -0.01788997 0.004476508 -0.004616903 -0.01805581 -0.001970695 -0.005380533 -0.01789643 0.004223834 -0.004807065 -0.01789799 0.004162661 -0.004845909 -0.01790332 0.003954664 -0.004977983 -0.01804938 -0.001721577 -0.005433239 -0.01813154 -0.00488609 -0.002620605 -0.01813315 -0.004946368 -0.002381075 -0.01813309 -0.004898538 0.002493321 -0.01813113 -0.004820164 0.002757765 -0.01813083 -0.004808058 0.002798614 -0.01786557 0.005497998 0.003370187 -0.01786332 0.005583912 0.003207402 -0.01786139 0.005657275 0.003036713 -0.01786001 0.005709844 0.00291439 -0.01785811 0.005781507 0.002702685 -0.01785283 0.005946954 -0.001554954 -0.0178531 0.005934352 -0.001811738 -0.01788384 0.004716582 -0.004404403 -0.01812163 -0.004509448 -0.00349688 -0.01811818 -0.004377418 -0.003704944 -0.01809433 -0.003460238 -0.004682053 -0.0180978 -0.003593971 -0.004572396 -0.01813362 -0.004963799 -0.00231178 -0.01813477 -0.005006326 -0.002059754 -0.01813602 -0.005021424 0.00150906 -0.01813602 -0.005021072 0.001547018 -0.01813575 -0.00500847 0.001803802 -0.01808042 -0.002923321 -0.005024163 -0.01813569 -0.005005448 0.001865447 -0.01812801 -0.004695805 0.003089845 -0.01812795 -0.004693388 0.003096123 -0.01812447 -0.004555569 0.003383385 -0.01812392 -0.004533981 0.003420446 -0.01812041 -0.004395401 0.00365847 -0.0181189 -0.004336135 0.003743863 -0.01811579 -0.004213569 0.003920483 -0.018113 -0.004103948 0.004054261 -0.017853 0.005970501 0.001672186 -0.01785283 0.005974809 0.001444916 -0.01791053 0.003673215 -0.005126616 -0.01791491 0.003502583 -0.005200005 -0.01791804 0.0033803 -0.005252592 -0.01792348 0.003168665 -0.00532428 -0.01792579 0.003078678 -0.005354756 -0.01793194 0.002839227 -0.005415055 -0.01793372 0.002769955 -0.005432493 -0.0179402 0.002518012 -0.005475035 -0.01799897 0.0002355411 -0.005502094 -0.01794817 0.002208122 -0.005507249 -0.01795581 0.001911311 -0.005517654 -0.01794996 0.002138506 -0.005513343 -0.01801933 -0.0005553725 -0.00549475 -0.0179418 0.002455502 -0.005485585 -0.01811218 -0.004147236 -0.004020565 -0.01811221 -0.00414849 -0.004018894 -0.01810669 -0.003936062 -0.004259046 -0.01810534 -0.00388426 -0.004308929 -0.01810072 -0.003706393 -0.004480218 -0.01811717 -0.004338588 -0.003766138 -0.01812328 -0.004572117 -0.003378123 -0.01812553 -0.00465803 -0.003215338 -0.01812746 -0.004731393 -0.003044649 -0.01812884 -0.004783962 -0.002922326 -0.01813074 -0.004855625 -0.002710621 0.0001538562 0.006018895 0.003171862 0.0001535154 0.006006494 0.003261851 -0.000140332 -0.005390325 0.004791087 -0.0001419688 -0.005454639 0.00471012 -0.0001437271 -0.005524042 0.00458916 0.0001540725 0.00599311 -0.0005093927 0.0001540725 0.006025181 0.002944513 -0.0001498026 -0.005839846 -0.004012629 -0.0001491662 -0.005815626 -0.004065746 0.0001509443 0.005840216 -0.003893064 -0.000146399 -0.005710311 -0.004296634 -0.0001468534 -0.005647444 0.004374116 -0.000147592 -0.005676597 0.004323295 -0.0001493886 -0.005748062 0.00414078 0.0001525255 0.005904122 -0.003623406 -0.0001548527 -0.005993964 0.0005100621 -0.0001548527 -0.006026035 -0.002943844 -0.0001360044 -0.005312295 -0.004903826 -0.0001318072 -0.005150934 -0.005079511 0.0001056716 0.004064271 -0.005816767 0.0001531714 0.005930228 -0.003513253 0.000153528 0.005945757 -0.00333204 0.0001540725 0.005969471 -0.003055228 -0.0001064519 -0.004065124 0.005817436 -0.0001123704 -0.004295936 0.005712085 9.148318e-05 0.003622149 0.005906863 -0.0001230836 -0.004714305 0.005460219 -0.0001257551 -0.004818685 0.005391355 -0.000127906 -0.004902929 0.005313934 -0.00013239 -0.005078558 0.005152518 -0.0001546365 -0.006019748 -0.003171192 -0.0001542956 -0.006007348 -0.003261181 -0.0001531979 -0.00596741 -0.003550885 -0.0001380176 -0.00538969 -0.004819553 0.0001357498 0.005240088 -0.004978469 -0.0001433036 -0.00559211 -0.004512521 0.0001339419 0.005169048 -0.005067903 0.0001316097 0.005077704 -0.005151848 -0.0001515835 -0.005835368 0.003917801 -0.0001517246 -0.00584107 0.003893733 -0.0001533058 -0.005904976 0.003624075 0.0001522866 0.005961789 0.0035861 0.0001505229 0.005895442 0.003816946 -0.0001178996 -0.004511752 0.005593844 9.906112e-05 0.003915778 0.005837234 9.844018e-05 0.003891718 0.005842938 -0.0001154159 -0.004414706 0.005657875 -0.0001530669 -0.005962642 -0.00358543 -0.0001513032 -0.005896296 -0.003816276 9.334214e-05 0.003584113 -0.005963835 9.926887e-05 0.003814883 -0.005897465 -0.0001273051 -0.004977612 -0.005241948 0.0001115901 0.004295083 -0.005711416 0.0001146356 0.004413852 -0.005657206 0.0001171193 0.004510899 -0.005593174 0.0001223034 0.004713451 -0.005459549 -0.0001539517 -0.005931082 0.003513923 -0.0001543083 -0.00594661 0.003332709 -0.0001548527 -0.005970325 0.003055897 0.0001524176 0.005966556 0.003551554 0.0001310269 0.00515008 0.005080181 0.0001288441 0.005066163 0.005171554 0.0001265248 0.004976759 0.005242617 0.0001216482 0.004788771 0.005392049 8.39727e-05 0.00333088 0.00594851 7.684116e-05 0.00305416 0.00597223 7.569659e-05 0.003009717 0.005972643 -0.0001347221 -0.005169901 0.005068572 -0.0001365301 -0.005240942 0.004979138 -0.0001398153 -0.005458531 -0.00471514 -0.0001296244 -0.005067017 -0.005170885 0.00010431 0.004011171 -0.005840995 0.0001249748 0.004817831 -0.005390686 0.0001271257 0.004902076 -0.005313264 0.0001395517 0.005389471 -0.004790417 0.0001411885 0.005453785 -0.004709451 0.0001429468 0.005523188 -0.00458849 0.0001540725 0.005969884 -0.00301077 0.0001540725 0.005976618 -0.002285511 -0.0001548527 -0.005977472 0.00228618 -0.0001548527 -0.005970737 0.003011439 0.000139035 0.005457677 0.004715809 0.0001372373 0.005388837 0.004820223 0.0001352242 0.005311442 0.004904495 0.0001195485 0.004707832 0.005456383 0.0001164181 0.004586912 0.005525809 0.0001108528 0.00437194 0.00564925 8.864133e-05 0.003512033 0.005932977 0.0001460731 0.00564659 -0.004373447 0.0001468117 0.005675744 -0.004322625 0.0001486083 0.005747208 -0.004140111 -0.0001449751 -0.00565612 -0.004415442 0.0001508033 0.005834514 -0.003917132 0.0001490223 0.005838992 0.004013298 0.0001483859 0.005814772 0.004066415 0.0001456187 0.005709457 0.004297303 0.0001441948 0.005655266 0.004416112 0.0001425233 0.005591256 0.00451319 0.0001095375 0.004321136 0.005678413 0.0001048221 0.004138682 0.005749901 1.129894e-05 0.0005091685 0.005995861 -0.0001000492 -0.003815737 0.005898134 -0.0001050903 -0.004012025 0.005841664 -0.0001224285 -0.004789625 -0.00539138 -0.0001203288 -0.004708686 -0.005455714 -7.647687e-05 -0.00301057 -0.005971973 -0.0001171984 -0.004587765 -0.00552514 -0.0001116331 -0.004372794 -0.005648581 -5.780518e-05 -0.002285552 -0.005978706 -1.207923e-05 -0.0005100222 -0.005995192 7.684116e-05 0.002942739 -0.006027253 5.702489e-05 0.002284698 0.005979375 -0.0001103178 -0.004321989 -0.005677744 -0.0001056023 -0.004139536 -0.005749231 -7.762144e-05 -0.003055014 -0.005971561 -8.475298e-05 -0.003331734 -0.00594784 8.26922e-05 0.003170012 -0.006020963 8.500579e-05 0.003259971 -0.006008557 9.245398e-05 0.003549579 -0.005968605 -9.412242e-05 -0.003584967 0.005964504 -9.323426e-05 -0.003550433 0.005969274 -8.578608e-05 -0.003260825 0.006009227 -7.762144e-05 -0.002943593 0.006027922 -8.347248e-05 -0.003170866 0.006021632 -9.98414e-05 -0.003916631 -0.005836565 -9.922046e-05 -0.003892571 -0.005842268 -9.226347e-05 -0.003623003 -0.005906194 -8.942161e-05 -0.003512887 -0.005932308</float_array>
          <technique_common>
            <accessor count="584" source="#verts-array-array" stride="3">
              <param type="float" name="X"/>
              <param type="float" name="Y"/>
              <param type="float" name="Z"/>
            </accessor>
          </technique_common>
        </source>
        <source id="normals-array">
          <float_array count="1752" id="normals-array-array">-0.08009721 -0.7184815 -0.6909188 -0.07969491 -0.6904662 -0.7189612 -0.08066105 -0.7331639 -0.6752514 -0.0437619 0.69226 -0.72032 -0.04337233 0.7203016 -0.6923038 -0.0443436 0.6766024 -0.7350121 -0.04334225 0.7216602 0.6908893 -0.04439578 0.6936617 0.7189315 -0.04314218 0.736352 0.6752218 -0.07967755 -0.6890813 0.7202905 -0.08071836 -0.7171061 0.6922741 -0.07945963 -0.6734143 0.7349825 -0.0806436 -0.7285811 0.6801957 -0.08116189 -0.7444475 0.6627297 -0.0813193 -0.7796023 0.620973 -0.08116074 -0.7701508 0.6326774 -0.08156331 -0.7797328 0.6207771 -0.08116006 -0.7949983 0.6011578 -0.08131912 -0.8180834 0.5693214 -0.08117425 -0.8234342 0.5615754 -0.08082996 -0.8406104 0.5355751 -0.0799329 -0.8640608 0.4970007 -0.08001936 -0.8608742 0.5024864 -0.08052094 -0.8642647 0.4965511 -0.07922455 -0.8807242 0.4669564 -0.07662741 -0.9156698 0.3945593 -0.07514742 -0.9301985 0.3592821 -0.07876017 -0.897589 0.4337404 -0.07325859 -0.9444523 0.3203794 -0.07580221 -0.9282558 0.3641363 -0.07178108 -0.9560606 0.2842456 -0.07267776 -0.9510123 0.3004889 -0.06972605 -0.967323 0.2437715 -0.06886257 -0.9706633 0.2303707 -0.06746334 -0.9760528 0.2068083 -0.06925399 -0.9706748 0.230205 -0.04265604 -0.1357055 0.9898305 -0.04899374 -0.202433 0.9780698 -0.04949631 -0.2084164 0.9767869 -0.05243025 -0.2426871 0.9686868 -0.05510115 -0.2745721 0.9599865 -0.05554272 -0.2794536 0.9585513 -0.06146437 -0.3473108 0.9357336 -0.05893209 -0.3189825 0.9459266 -0.06655692 -0.4124734 0.908535 -0.0614334 -0.3551301 0.9327961 -0.06577644 -0.4128173 0.9084356 -0.06416399 -0.3928781 0.9173493 -0.06686414 -0.4279923 0.9013056 -0.07055715 -0.4834547 0.8725212 -0.0693203 -0.464641 0.8827816 -0.0744882 -0.5476476 0.8333869 -0.07103377 -0.4986383 0.8638947 -0.07402121 -0.5477878 0.8333363 -0.07298225 -0.5333155 0.8427623 -0.07786966 -0.6135659 0.7857946 -0.0746534 -0.5658 0.821156 -0.08032948 -0.672972 0.7352931 -0.07566523 -0.5982209 0.7977509 -0.07687396 -0.6287066 0.7738336 -0.06477589 -0.9840166 0.1658779 -0.06243114 -0.9897197 0.1286753 -0.06477603 -0.9846878 0.1618453 -0.05933021 -0.9944696 0.08666158 -0.05907776 -0.9946027 0.08529555 -0.05649833 -0.9971924 0.0491456 -0.05649626 -0.9971921 0.04915346 -0.05504821 -0.9980883 0.02809541 -0.0534917 -0.9985252 0.009271778 -0.0534917 -0.9985252 0.009271778 -0.0534917 -0.9985252 0.009271778 -0.0534917 -0.9985252 0.009271778 -0.0534917 -0.9985252 0.009271778 -0.0534917 -0.9985252 0.009271778 -0.05503785 -0.9984329 -0.01012718 -0.04434233 0.6815778 0.7304009 -0.04490956 0.6641207 0.7462753 -0.04525549 0.6223589 0.7814227 -0.04503391 0.6340615 0.7719702 -0.0455011 0.6221693 0.7815594 -0.04521867 0.602536 0.7968097 -0.04561623 0.5706991 0.8198912 -0.04553629 0.5629485 0.8252366 -0.04542985 0.5369367 0.8423984 -0.04493774 0.4983364 0.8658184 -0.04496286 0.5038246 0.862635 -0.04553187 0.4979021 0.8660372 -0.04458562 0.4682728 0.8824583 -0.04298025 0.3958096 0.9173263 -0.04204739 0.3604962 0.9318125 -0.04455458 0.4350448 0.8993058 -0.04080716 0.3215481 0.9460135 -0.04262516 0.365367 0.9298871 -0.0399735 0.2853805 0.9575803 -0.04057626 0.3016449 0.9525565 -0.03868428 0.2448592 0.9687866 -0.03808438 0.2314383 0.9721039 -0.03716086 0.2078439 0.9774559 -0.03847955 0.2312828 0.9721253 -0.01345055 0.9905144 0.1367493 -0.01838839 0.978878 0.2036167 -0.01877142 0.9776047 0.209611 -0.02104013 0.9695607 0.2439454 -0.02312239 0.9609116 0.2758881 -0.0234765 0.9594852 0.2807793 -0.02825705 0.936784 0.3487654 -0.02618385 0.9469266 0.3203817 -0.03239156 0.9096837 0.4140367 -0.02810307 0.9338415 0.3565815 -0.03160541 0.9095638 0.4143607 -0.03027079 0.9184458 0.3943868 -0.03249075 0.9024544 0.4295584 -0.03551516 0.8737389 0.485097 -0.0344922 0.8839762 0.4662579 -0.03882377 0.8346773 0.5493692 -0.03582849 0.8651176 0.5002877 -0.03835483 0.8346145 0.5494975 -0.03744063 0.8440199 0.5350033 -0.04175893 0.7871453 0.6153523 -0.03884384 0.8224429 0.5675199 -0.04401466 0.7366853 0.6748018 -0.03963653 0.7990504 0.5999561 -0.04068864 0.7751524 0.6304627 -0.03533559 0.1668522 0.9853485 -0.03381358 0.1295976 0.99099 -0.03542339 0.1628206 0.9860196 -0.03168518 0.0875143 0.9956592 -0.031465 0.08614209 0.9957859 -0.02976049 0.04993563 0.9983089 -0.02975822 0.04994343 0.9983086 -0.02883541 0.02885428 0.9991676 -0.02775786 0.009996289 0.9995647 -0.02775786 0.009996289 0.9995647 -0.02775786 0.009996289 0.9995647 -0.02775786 0.009996289 0.9995647 -0.02775786 0.009996289 0.9995647 -0.02775786 0.009996289 0.9995647 -0.02980936 -0.009355903 0.9995118 -0.02921289 -0.003344843 0.9995676 -0.03425925 -0.05047582 0.9981375 -0.0376828 -0.08395207 0.995757 -0.03791151 -0.08626779 0.9955504 -0.04265559 -0.1352185 0.9898972 -0.04152115 -0.1239517 0.9914192 -0.04556604 -0.1651466 0.9852159 -0.04271284 0.7317577 -0.6802252 -0.04242218 0.74763 -0.6627592 -0.04078998 0.7827467 -0.6210022 -0.04111249 0.7732995 -0.6327066 -0.04102704 0.7828896 -0.6208064 -0.03984801 0.7981144 -0.6011867 -0.03883393 0.8211775 -0.5693501 -0.03841756 0.8265138 -0.561604 -0.03720212 0.8436498 -0.5356034 -0.03511774 0.8670235 -0.4970282 -0.03536547 0.8638455 -0.502514 -0.03569472 0.8672574 -0.4965789 -0.03356705 0.8836288 -0.4669834 -0.02920935 0.9183952 -0.3945846 -0.02700042 0.9328289 -0.3593065 -0.03225115 0.9004477 -0.433767 -0.02439906 0.9469671 -0.3204028 -0.02775201 0.9309224 -0.364161 -0.02234333 0.9584844 -0.2842681 -0.02349088 0.9534887 -0.3005119 -0.01973071 0.9696266 -0.2437929 -0.01870286 0.9729182 -0.2303917 -0.01703935 0.9782288 -0.2068285 -0.01909324 0.9729498 -0.2302262 -0.03514193 0.1377089 -0.9898491 -0.0380425 0.2046742 -0.9780906 -0.03823707 0.2106756 -0.9768079 -0.03940714 0.245052 -0.9687087 -0.04043758 0.2770323 -0.9600093 -0.04062801 0.2819302 -0.9585743 -0.04306023 0.3500024 -0.9357586 -0.04198444 0.3215812 -0.9459508 -0.04480522 0.4153411 -0.9085616 -0.04262825 0.3578099 -0.932821 -0.04400812 0.4156444 -0.9084619 -0.04341978 0.3956485 -0.917375 -0.04431676 0.4308553 -0.9013322 -0.04516408 0.4864347 -0.8725489 -0.04489226 0.4675821 -0.8828089 -0.04580472 0.5507452 -0.8334156 -0.04486272 0.5016227 -0.8639224 -0.04533116 0.5508613 -0.8333648 -0.04503393 0.5363545 -0.8427905 -0.04581175 0.6167508 -0.7858242 -0.04504127 0.5688823 -0.8211847 -0.04523491 0.6762054 -0.7353231 -0.0443943 0.6013126 -0.7977796 -0.04404382 0.6318204 -0.7738625 -0.01396515 0.9860442 -0.1658967 -0.01134776 0.9916196 -0.128693 -0.01393267 0.9867147 -0.1618642 -0.008026541 0.9962041 -0.08667769 -0.007768227 0.996324 -0.08531154 -0.005076207 0.998778 -0.04916032 -0.005074148 0.9987776 -0.04916819 -0.003591961 0.9995984 -0.02810943 -0.002024024 0.9999548 -0.009285052 -0.002024024 0.9999548 -0.009285052 -0.002024024 0.9999548 -0.009285052 -0.002024024 0.9999548 -0.009285052 -0.002024024 0.9999548 -0.009285052 -0.002024024 0.9999548 -0.009285052 -0.003582144 0.9999424 0.01011317 -0.07901411 -0.6784012 -0.7304304 -0.07867451 -0.6609382 -0.7463049 -0.07685378 -0.6192144 -0.7814519 -0.07723932 -0.6309128 -0.7719995 -0.07708924 -0.6190124 -0.7815887 -0.0757894 -0.5994199 -0.7968386 -0.07453682 -0.5676051 -0.81992 -0.07405552 -0.5598688 -0.8252652 -0.07260223 -0.5338972 -0.8424267 -0.0701129 -0.4953737 -0.8658459 -0.07042197 -0.5008533 -0.8626626 -0.07068378 -0.4949094 -0.8660649 -0.06820598 -0.4653683 -0.8824853 -0.06285651 -0.3930841 -0.9173516 -0.06010044 -0.3578657 -0.9318369 -0.06645673 -0.4321862 -0.8993323 -0.05685049 -0.3190333 -0.9460369 -0.06092906 -0.3627004 -0.9299119 -0.05415092 -0.2829567 -0.9576028 -0.05559238 -0.2991685 -0.9525795 -0.05077249 -0.2425556 -0.968808 -0.04948105 -0.2291834 -0.9721248 -0.04734183 -0.2056679 -0.9774761 -0.04986768 -0.2290078 -0.9721464 -0.06434741 -0.988511 -0.1367679 -0.06864785 -0.9766367 -0.2036375 -0.06896196 -0.9753454 -0.209632 -0.07079725 -0.9671958 -0.2439673 -0.07241633 -0.9584514 -0.275911 -0.07269422 -0.9570087 -0.2808023 -0.07626755 -0.9340923 -0.3487904 -0.07473268 -0.9443279 -0.3204059 -0.07897058 -0.9068159 -0.4140634 -0.07595859 -0.9311617 -0.3566064 -0.07817915 -0.9067367 -0.4143869 -0.07731298 -0.9156754 -0.3944125 -0.07869015 -0.8995914 -0.429585 -0.08020607 -0.8707589 -0.4851247 -0.07972036 -0.8810351 -0.4662852 -0.08146914 -0.8315796 -0.549398 -0.080068 -0.8621331 -0.5003155 -0.08099754 -0.831541 -0.5495261 -0.08057555 -0.8409809 -0.5350316 -0.08192249 -0.7839603 -0.6153819 -0.08085083 -0.8193606 -0.5675486 -0.08154973 -0.7334518 -0.6748319 -0.080423 -0.7959587 -0.5999848 -0.08022914 -0.7720386 -0.6304916 -0.04340544 -0.1648246 -0.9853674 -0.03996532 -0.1276977 -0.9910076 -0.04328531 -0.1607938 -0.9860384 -0.03567156 -0.08577979 -0.9956753 -0.03538098 -0.08442072 -0.9958019 -0.03181404 -0.04835001 -0.9983237 -0.03181218 -0.04835792 -0.9983233 -0.02980476 -0.02734423 -0.9991816 -0.02775786 -0.008566693 -0.999578 -0.02775786 -0.008566693 -0.999578 -0.02775786 -0.008566693 -0.999578 -0.02775786 -0.008566693 -0.999578 -0.02775786 -0.008566693 -0.999578 -0.02775786 -0.008566693 -0.999578 -0.02881064 0.01086544 -0.9995258 -0.02852432 0.004831645 -0.9995814 -0.03113892 0.0521599 -0.9981532 -0.03283611 0.08576802 -0.9957739 -0.03294543 0.08809244 -0.9955673 -0.03516651 0.1372226 -0.9899158 -0.03461273 0.1259123 -0.9914374 -0.036535 0.1672608 -0.9852355 -0.003137879 0.9999867 0.004088849 -0.00701644 0.9986569 0.05133319 -0.009646091 0.996344 0.08488587 -0.009820978 0.9961418 0.08720667 -0.01346079 0.9905813 0.1362625 -0.01257481 0.9920808 0.1249704 -0.01572792 0.9859574 0.166255 -0.05459933 -0.9984999 -0.004102655 -0.05838173 -0.9969729 -0.05134883 -0.06087282 -0.994528 -0.08490273 -0.06103596 -0.9943172 -0.08722361 -0.06436131 -0.9885773 -0.1362811 -0.06355908 -0.9901202 -0.1249886 -0.06637312 -0.9838432 -0.1662747 -0.9996686 0.02574266 -0.0002390327 -0.9996686 0.02574266 -0.0002390327 -0.9996686 0.02574266 -0.0002390327 -0.9996686 0.02574266 -0.0002390327 -0.9996686 0.02574266 -0.0002390327 -0.9996686 0.02574266 -0.0002390327 -0.9996686 0.02574266 -0.0002390327 -0.9996686 0.02574266 -0.0002390327 -0.9996686 0.02574266 -0.0002390327 -0.9996686 0.02574266 -0.0002390327 -0.9996686 0.02574266 -0.0002390327 -0.9996686 0.02574266 -0.0002390327 -0.9996686 0.02574266 -0.0002390327 -0.9996686 0.02574266 -0.0002390327 -0.9996686 0.02574266 -0.0002390327 -0.9996686 0.02574266 -0.0002390327 -0.9996686 0.02574266 -0.0002390327 -0.9996686 0.02574266 -0.0002390327 -0.9996686 0.02574266 -0.0002390327 -0.9996686 0.02574266 -0.0002390327 -0.9996686 0.02574266 -0.0002390327 -0.9996686 0.02574266 -0.0002390327 -0.9996686 0.02574266 -0.0002390327 -0.9996686 0.02574266 -0.0002390327 -0.9996686 0.02574266 -0.0002390327 -0.9996686 0.02574266 -0.0002390327 -0.9996686 0.02574266 -0.0002390327 -0.9996686 0.02574266 -0.0002390327 -0.9996686 0.02574266 -0.0002390327 -0.9996686 0.02574266 -0.0002390327 -0.9996686 0.02574266 -0.0002390327 -0.9996686 0.02574266 -0.0002390327 -0.9996686 0.02574266 -0.0002390327 -0.9996686 0.02574266 -0.0002390327 -0.9996686 0.02574266 -0.0002390327 -0.9996686 0.02574266 -0.0002390327 -0.9996686 0.02574266 -0.0002390327 -0.9996686 0.02574266 -0.0002390327 -0.9996686 0.02574266 -0.0002390327 -0.9996686 0.02574266 -0.0002390327 -0.9996686 0.02574266 -0.0002390327 -0.9996686 0.02574266 -0.0002390327 -0.9996686 0.02574266 -0.0002390327 -0.9996686 0.02574266 -0.0002390327 -0.9996686 0.02574266 -0.0002390327 -0.9996686 0.02574266 -0.0002390327 -0.9996686 0.02574266 -0.0002390327 -0.9996686 0.02574266 -0.0002390327 -0.9996686 0.02574266 -0.0002390327 -0.9996686 0.02574266 -0.0002390327 -0.9996686 0.02574266 -0.0002390327 -0.9996686 0.02574266 -0.0002390327 -0.9996686 0.02574266 -0.0002390327 -0.9996686 0.02574266 -0.0002390327 -0.9996686 0.02574266 -0.0002390327 -0.9996686 0.02574266 -0.0002390327 -0.9996686 0.02574266 -0.0002390327 -0.9996686 0.02574266 -0.0002390327 -0.9996686 0.02574266 -0.0002390327 -0.9996686 0.02574266 -0.0002390327 -0.9996686 0.02574266 -0.0002390327 -0.9996686 0.02574266 -0.0002390327 -0.9996686 0.02574266 -0.0002390327 -0.9996686 0.02574266 -0.0002390327 -0.9996686 0.02574266 -0.0002390327 -0.9996686 0.02574266 -0.0002390327 -0.9996686 0.02574266 -0.0002390327 -0.9996686 0.02574266 -0.0002390327 -0.9996686 0.02574266 -0.0002390327 -0.9996686 0.02574266 -0.0002390327 -0.9996686 0.02574266 -0.0002390327 -0.9996686 0.02574266 -0.0002390327 -0.9996686 0.02574266 -0.0002390327 -0.9996686 0.02574266 -0.0002390327 -0.9996686 0.02574266 -0.0002390327 -0.9996686 0.02574266 -0.0002390327 -0.9996686 0.02574266 -0.0002390327 -0.9996686 0.02574266 -0.0002390327 -0.9996686 0.02574266 -0.0002390327 -0.9996686 0.02574266 -0.0002390327 -0.9996686 0.02574266 -0.0002390327 -0.9996686 0.02574266 -0.0002390327 -0.9996686 0.02574266 -0.0002390327 -0.9996686 0.02574266 -0.0002390327 -0.9996686 0.02574266 -0.0002390327 -0.9996686 0.02574266 -0.0002390327 -0.9996686 0.02574266 -0.0002390327 -0.9996686 0.02574266 -0.0002390327 -0.9996686 0.02574266 -0.0002390327 -0.9996686 0.02574266 -0.0002390327 -0.9996686 0.02574266 -0.0002390327 -0.9996686 0.02574266 -0.0002390327 -0.9996686 0.02574266 -0.0002390327 -0.9996686 0.02574266 -0.0002390327 -0.9996686 0.02574266 -0.0002390327 -0.9996686 0.02574266 -0.0002390327 -0.9996686 0.02574266 -0.0002390327 -0.9996686 0.02574266 -0.0002390327 -0.9996686 0.02574266 -0.0002390327 -0.9996686 0.02574266 -0.0002390327 -0.9996686 0.02574266 -0.0002390327 -0.9996686 0.02574266 -0.0002390327 -0.9996686 0.02574266 -0.0002390327 -0.9996686 0.02574266 -0.0002390327 -0.9996686 0.02574266 -0.0002390327 -0.9996686 0.02574266 -0.0002390327 -0.9996686 0.02574266 -0.0002390327 -0.9996686 0.02574266 -0.0002390327 -0.9996686 0.02574266 -0.0002390327 -0.9996686 0.02574266 -0.0002390327 -0.9996686 0.02574266 -0.0002390327 -0.9996686 0.02574266 -0.0002390327 -0.9996686 0.02574266 -0.0002390327 -0.9996686 0.02574266 -0.0002390327 -0.9996686 0.02574266 -0.0002390327 -0.9996686 0.02574266 -0.0002390327 -0.9996686 0.02574266 -0.0002390327 -0.9996686 0.02574266 -0.0002390327 -0.9996686 0.02574266 -0.0002390327 -0.9996686 0.02574266 -0.0002390327 -0.9996686 0.02574266 -0.0002390327 -0.9996686 0.02574266 -0.0002390327 -0.9996686 0.02574266 -0.0002390327 -0.9996686 0.02574266 -0.0002390327 -0.9996686 0.02574266 -0.0002390327 -0.9996686 0.02574266 -0.0002390327 -0.9996686 0.02574266 -0.0002390327 -0.9996686 0.02574266 -0.0002390327 -0.9996686 0.02574266 -0.0002390327 -0.9996686 0.02574266 -0.0002390327 -0.9996686 0.02574266 -0.0002390327 -0.9996686 0.02574266 -0.0002390327 -0.9996686 0.02574266 -0.0002390327 -0.9996686 0.02574266 -0.0002390327 -0.9996686 0.02574266 -0.0002390327 -0.9996686 0.02574266 -0.0002390327 -0.9996686 0.02574266 -0.0002390327 -0.9996686 0.02574266 -0.0002390327 -0.9996686 0.02574266 -0.0002390327 -0.9996686 0.02574266 -0.0002390327 -0.9996686 0.02574266 -0.0002390327 -0.9996686 0.02574266 -0.0002390327 -0.9996686 0.02574266 -0.0002390327 -0.9996686 0.02574266 -0.0002390327 -0.9996686 0.02574266 -0.0002390327 -0.9996686 0.02574266 -0.0002390327 -0.9996686 0.02574266 -0.0002390327 -0.9996686 0.02574266 -0.0002390327 -0.9996686 0.02574266 -0.0002390327 -0.9996686 0.02574266 -0.0002390327 -0.9996686 0.02574266 -0.0002390327 -0.9996686 0.02574266 -0.0002390327 -0.9996686 0.02574266 -0.0002390327 -0.9996686 0.02574266 -0.0002390327 -0.9996686 0.02574266 -0.0002390327 -0.9996686 0.02574266 -0.0002390327 -0.9996686 0.02574266 -0.0002390327 -0.9996686 0.02574266 -0.0002390327 -0.9996686 0.02574266 -0.0002390327 -0.9996686 0.02574266 -0.0002390327 -0.9996686 0.02574266 -0.0002390327 -0.9996686 0.02574266 -0.0002390327 -0.9996686 0.02574266 -0.0002390327 -0.9996686 0.02574266 -0.0002390327 0.9996686 -0.02574266 0.0002390327 0.9996686 -0.02574266 0.0002390327 0.9996686 -0.02574266 0.0002390327 0.9996686 -0.02574266 0.0002390327 0.9996686 -0.02574266 0.0002390327 0.9996686 -0.02574266 0.0002390327 0.9996686 -0.02574266 0.0002390327 0.9996686 -0.02574266 0.0002390327 0.9996686 -0.02574266 0.0002390327 0.9996686 -0.02574266 0.0002390327 0.9996686 -0.02574266 0.0002390327 0.9996686 -0.02574266 0.0002390327 0.9996686 -0.02574266 0.0002390327 0.9996686 -0.02574266 0.0002390327 0.9996686 -0.02574266 0.0002390327 0.9996686 -0.02574266 0.0002390327 0.9996686 -0.02574266 0.0002390327 0.9996686 -0.02574266 0.0002390327 0.9996686 -0.02574266 0.0002390327 0.9996686 -0.02574266 0.0002390327 0.9996686 -0.02574266 0.0002390327 0.9996686 -0.02574266 0.0002390327 0.9996686 -0.02574266 0.0002390327 0.9996686 -0.02574266 0.0002390327 0.9996686 -0.02574266 0.0002390327 0.9996686 -0.02574266 0.0002390327 0.9996686 -0.02574266 0.0002390327 0.9996686 -0.02574266 0.0002390327 0.9996686 -0.02574266 0.0002390327 0.9996686 -0.02574266 0.0002390327 0.9996686 -0.02574266 0.0002390327 0.9996686 -0.02574266 0.0002390327 0.9996686 -0.02574266 0.0002390327 0.9996686 -0.02574266 0.0002390327 0.9996686 -0.02574266 0.0002390327 0.9996686 -0.02574266 0.0002390327 0.9996686 -0.02574266 0.0002390327 0.9996686 -0.02574266 0.0002390327 0.9996686 -0.02574266 0.0002390327 0.9996686 -0.02574266 0.0002390327 0.9996686 -0.02574266 0.0002390327 0.9996686 -0.02574266 0.0002390327 0.9996686 -0.02574266 0.0002390327 0.9996686 -0.02574266 0.0002390327 0.9996686 -0.02574266 0.0002390327 0.9996686 -0.02574266 0.0002390327 0.9996686 -0.02574266 0.0002390327 0.9996686 -0.02574266 0.0002390327 0.9996686 -0.02574266 0.0002390327 0.9996686 -0.02574266 0.0002390327 0.9996686 -0.02574266 0.0002390327 0.9996686 -0.02574266 0.0002390327 0.9996686 -0.02574266 0.0002390327 0.9996686 -0.02574266 0.0002390327 0.9996686 -0.02574266 0.0002390327 0.9996686 -0.02574266 0.0002390327 0.9996686 -0.02574266 0.0002390327 0.9996686 -0.02574266 0.0002390327 0.9996686 -0.02574266 0.0002390327 0.9996686 -0.02574266 0.0002390327 0.9996686 -0.02574266 0.0002390327 0.9996686 -0.02574266 0.0002390327 0.9996686 -0.02574266 0.0002390327 0.9996686 -0.02574266 0.0002390327 0.9996686 -0.02574266 0.0002390327 0.9996686 -0.02574266 0.0002390327 0.9996686 -0.02574266 0.0002390327 0.9996686 -0.02574266 0.0002390327 0.9996686 -0.02574266 0.0002390327 0.9996686 -0.02574266 0.0002390327 0.9996686 -0.02574266 0.0002390327 0.9996686 -0.02574266 0.0002390327 0.9996686 -0.02574266 0.0002390327 0.9996686 -0.02574266 0.0002390327 0.9996686 -0.02574266 0.0002390327 0.9996686 -0.02574266 0.0002390327 0.9996686 -0.02574266 0.0002390327 0.9996686 -0.02574266 0.0002390327 0.9996686 -0.02574266 0.0002390327 0.9996686 -0.02574266 0.0002390327 0.9996686 -0.02574266 0.0002390327 0.9996686 -0.02574266 0.0002390327 0.9996686 -0.02574266 0.0002390327 0.9996686 -0.02574266 0.0002390327 0.9996686 -0.02574266 0.0002390327 0.9996686 -0.02574266 0.0002390327 0.9996686 -0.02574266 0.0002390327 0.9996686 -0.02574266 0.0002390327 0.9996686 -0.02574266 0.0002390327 0.9996686 -0.02574266 0.0002390327 0.9996686 -0.02574266 0.0002390327 0.9996686 -0.02574266 0.0002390327 0.9996686 -0.02574266 0.0002390327 0.9996686 -0.02574266 0.0002390327 0.9996686 -0.02574266 0.0002390327 0.9996686 -0.02574266 0.0002390327 0.9996686 -0.02574266 0.0002390327 0.9996686 -0.02574266 0.0002390327 0.9996686 -0.02574266 0.0002390327 0.9996686 -0.02574266 0.0002390327 0.9996686 -0.02574266 0.0002390327 0.9996686 -0.02574266 0.0002390327 0.9996686 -0.02574266 0.0002390327 0.9996686 -0.02574266 0.0002390327 0.9996686 -0.02574266 0.0002390327 0.9996686 -0.02574266 0.0002390327 0.9996686 -0.02574266 0.0002390327 0.9996686 -0.02574266 0.0002390327 0.9996686 -0.02574266 0.0002390327 0.9996686 -0.02574266 0.0002390327 0.9996686 -0.02574266 0.0002390327 0.9996686 -0.02574266 0.0002390327 0.9996686 -0.02574266 0.0002390327 0.9996686 -0.02574266 0.0002390327 0.9996686 -0.02574266 0.0002390327 0.9996686 -0.02574266 0.0002390327 0.9996686 -0.02574266 0.0002390327 0.9996686 -0.02574266 0.0002390327 0.9996686 -0.02574266 0.0002390327 0.9996686 -0.02574266 0.0002390327 0.9996686 -0.02574266 0.0002390327 0.9996686 -0.02574266 0.0002390327 0.9996686 -0.02574266 0.0002390327 0.9996686 -0.02574266 0.0002390327 0.9996686 -0.02574266 0.0002390327 0.9996686 -0.02574266 0.0002390327 0.9996686 -0.02574266 0.0002390327 0.9996686 -0.02574266 0.0002390327</float_array>
          <technique_common>
            <accessor count="584" source="#normals-array-array" stride="3">
              <param type="float" name="X"/>
              <param type="float" name="Y"/>
              <param type="float" name="Z"/>
            </accessor>
          </technique_common>
        </source>
        <vertices id="verts-array-vertices">
          <input semantic="POSITION" source="#verts-array"/>
        </vertices>
        <triangles count="580" material="material0">
          <input offset="0" semantic="VERTEX" source="#verts-array-vertices"/>
          <input offset="1" semantic="NORMAL" source="#normals-array"/>
          <p>0 0 1 1 2 2 3 3 4 4 5 5 6 6 7 7 8 8 9 9 10 10 11 11 11 11 10 10 12 12 13 13 12 12 10 10 12 12 13 13 14 14 15 15 14 14 13 13 14 14 15 15 16 16 15 15 17 17 16 16 18 18 16 16 17 17 16 16 18 18 19 19 20 20 19 19 18 18 19 19 20 20 21 21 22 22 21 21 20 20 21 21 22 22 23 23 24 24 23 23 22 22 24 24 25 25 23 23 26 26 23 23 25 25 23 23 26 26 27 27 28 28 27 27 26 26 27 27 28 28 29 29 30 30 29 29 28 28 29 29 30 30 31 31 32 32 31 31 30 30 31 31 32 32 33 33 34 34 33 33 32 32 33 33 34 34 35 35 36 36 37 37 38 38 39 39 38 38 37 37 38 38 39 39 40 40 41 41 40 40 39 39 40 40 41 41 42 42 43 43 42 42 41 41 42 42 43 43 44 44 45 45 44 44 43 43 44 44 45 45 46 46 45 45 47 47 46 46 48 48 46 46 47 47 46 46 48 48 49 49 50 50 49 49 48 48 49 49 50 50 51 51 52 52 51 51 50 50 51 51 52 52 53 53 54 54 53 53 52 52 53 53 54 54 55 55 56 56 55 55 54 54 55 55 56 56 57 57 58 58 57 57 56 56 57 57 58 58 11 11 59 59 11 11 58 58 11 11 59 59 9 9 34 34 60 60 35 35 61 61 35 35 60 60 35 35 61 61 62 62 63 63 62 62 61 61 62 62 63 63 64 64 65 65 64 64 63 63 64 64 65 65 66 66 67 67 66 66 65 65 66 66 67 67 68 68 69 69 68 68 67 67 68 68 69 69 70 70 71 71 70 70 69 69 70 70 71 71 72 72 73 73 72 72 71 71 72 72 73 73 74 74 8 8 7 7 75 75 76 76 75 75 7 7 75 75 76 76 77 77 78 78 77 77 76 76 77 77 78 78 79 79 78 78 80 80 79 79 81 81 79 79 80 80 79 79 81 81 82 82 83 83 82 82 81 81 82 82 83 83 84 84 85 85 84 84 83 83 84 84 85 85 86 86 87 87 86 86 85 85 87 87 88 88 86 86 89 89 86 86 88 88 86 86 89 89 90 90 91 91 90 90 89 89 90 90 91 91 92 92 93 93 92 92 91 91 92 92 93 93 94 94 95 95 94 94 93 93 94 94 95 95 96 96 97 97 96 96 95 95 96 96 97 97 98 98 99 99 100 100 101 101 102 102 101 101 100 100 101 101 102 102 103 103 104 104 103 103 102 102 103 103 104 104 105 105 106 106 105 105 104 104 105 105 106 106 107 107 108 108 107 107 106 106 107 107 108 108 109 109 108 108 110 110 109 109 111 111 109 109 110 110 109 109 111 111 112 112 113 113 112 112 111 111 112 112 113 113 114 114 115 115 114 114 113 113 114 114 115 115 116 116 117 117 116 116 115 115 116 116 117 117 118 118 119 119 118 118 117 117 118 118 119 119 120 120 121 121 120 120 119 119 120 120 121 121 8 8 122 122 8 8 121 121 8 8 122 122 6 6 97 97 123 123 98 98 124 124 98 98 123 123 98 98 124 124 125 125 126 126 125 125 124 124 125 125 126 126 127 127 128 128 127 127 126 126 127 127 128 128 129 129 130 130 129 129 128 128 129 129 130 130 131 131 132 132 131 131 130 130 131 131 132 132 133 133 134 134 133 133 132 132 133 133 134 134 135 135 136 136 135 135 134 134 135 135 136 136 137 137 136 136 138 138 137 137 139 139 137 137 138 138 137 137 139 139 140 140 141 141 140 140 139 139 140 140 141 141 142 142 143 143 142 142 141 141 142 142 143 143 36 36 144 144 36 36 143 143 36 36 144 144 37 37 5 5 4 4 145 145 146 146 145 145 4 4 145 145 146 146 147 147 148 148 147 147 146 146 147 147 148 148 149 149 148 148 150 150 149 149 151 151 149 149 150 150 149 149 151 151 152 152 153 153 152 152 151 151 152 152 153 153 154 154 155 155 154 154 153 153 154 154 155 155 156 156 157 157 156 156 155 155 157 157 158 158 156 156 159 159 156 156 158 158 156 156 159 159 160 160 161 161 160 160 159 159 160 160 161 161 162 162 163 163 162 162 161 161 162 162 163 163 164 164 165 165 164 164 163 163 164 164 165 165 166 166 167 167 166 166 165 165 166 166 167 167 168 168 169 169 170 170 171 171 172 172 171 171 170 170 171 171 172 172 173 173 174 174 173 173 172 172 173 173 174 174 175 175 176 176 175 175 174 174 175 175 176 176 177 177 178 178 177 177 176 176 177 177 178 178 179 179 178 178 180 180 179 179 181 181 179 179 180 180 179 179 181 181 182 182 183 183 182 182 181 181 182 182 183 183 184 184 185 185 184 184 183 183 184 184 185 185 186 186 187 187 186 186 185 185 186 186 187 187 188 188 189 189 188 188 187 187 188 188 189 189 190 190 191 191 190 190 189 189 190 190 191 191 5 5 192 192 5 5 191 191 5 5 192 192 3 3 167 167 193 193 168 168 194 194 168 168 193 193 168 168 194 194 195 195 196 196 195 195 194 194 195 195 196 196 197 197 198 198 197 197 196 196 197 197 198 198 199 199 200 200 199 199 198 198 199 199 200 200 201 201 202 202 201 201 200 200 201 201 202 202 203 203 204 204 203 203 202 202 203 203 204 204 205 205 206 206 205 205 204 204 205 205 206 206 207 207 2 2 1 1 208 208 209 209 208 208 1 1 208 208 209 209 210 210 211 211 210 210 209 209 210 210 211 211 212 212 211 211 213 213 212 212 214 214 212 212 213 213 212 212 214 214 215 215 216 216 215 215 214 214 215 215 216 216 217 217 218 218 217 217 216 216 217 217 218 218 219 219 220 220 219 219 218 218 220 220 221 221 219 219 222 222 219 219 221 221 219 219 222 222 223 223 224 224 223 223 222 222 223 223 224 224 225 225 226 226 225 225 224 224 225 225 226 226 227 227 228 228 227 227 226 226 227 227 228 228 229 229 230 230 229 229 228 228 229 229 230 230 231 231 232 232 233 233 234 234 235 235 234 234 233 233 234 234 235 235 236 236 237 237 236 236 235 235 236 236 237 237 238 238 239 239 238 238 237 237 238 238 239 239 240 240 241 241 240 240 239 239 240 240 241 241 242 242 241 241 243 243 242 242 244 244 242 242 243 243 242 242 244 244 245 245 246 246 245 245 244 244 245 245 246 246 247 247 248 248 247 247 246 246 247 247 248 248 249 249 250 250 249 249 248 248 249 249 250 250 251 251 252 252 251 251 250 250 251 251 252 252 253 253 254 254 253 253 252 252 253 253 254 254 2 2 255 255 2 2 254 254 2 2 255 255 0 0 230 230 256 256 231 231 257 257 231 231 256 256 231 231 257 257 258 258 259 259 258 258 257 257 258 258 259 259 260 260 261 261 260 260 259 259 260 260 261 261 262 262 263 263 262 262 261 261 262 262 263 263 264 264 265 265 264 264 263 263 264 264 265 265 266 266 267 267 266 266 265 265 266 266 267 267 268 268 269 269 268 268 267 267 268 268 269 269 270 270 269 269 271 271 270 270 272 272 270 270 271 271 270 270 272 272 273 273 274 274 273 273 272 272 273 273 274 274 275 275 276 276 275 275 274 274 275 275 276 276 169 169 277 277 169 169 276 276 169 169 277 277 170 170 206 206 278 278 207 207 279 279 207 207 278 278 207 207 279 279 280 280 281 281 280 280 279 279 280 280 281 281 282 282 283 283 282 282 281 281 282 282 283 283 99 99 284 284 99 99 283 283 99 99 284 284 100 100 73 73 285 285 74 74 286 286 74 74 285 285 74 74 286 286 287 287 288 288 287 287 286 286 287 287 288 288 289 289 290 290 289 289 288 288 289 289 290 290 232 232 291 291 232 232 290 290 232 232 291 291 233 233 292 292 293 293 294 294 295 295 296 296 294 294 297 297 298 298 299 299 300 300 301 301 294 294 302 302 294 294 301 301 293 293 303 303 294 294 304 304 294 294 303 303 294 294 304 304 305 305 306 306 307 307 294 294 308 308 294 294 307 307 309 309 310 310 311 311 299 299 298 298 312 312 313 313 314 314 294 294 315 315 294 294 314 314 294 294 315 315 316 316 302 302 317 317 294 294 318 318 294 294 317 317 294 294 318 318 319 319 320 320 321 321 294 294 322 322 294 294 321 321 294 294 322 322 323 323 323 323 324 324 294 294 325 325 294 294 324 324 294 294 325 325 295 295 305 305 326 326 294 294 327 327 294 294 326 326 294 294 327 327 328 328 328 328 329 329 294 294 330 330 294 294 329 329 294 294 330 330 331 331 331 331 332 332 294 294 333 333 294 294 332 332 294 294 333 333 334 334 334 334 335 335 294 294 336 336 294 294 335 335 294 294 336 336 306 306 308 308 337 337 294 294 338 338 294 294 337 337 294 294 338 338 339 339 340 340 341 341 294 294 342 342 294 294 341 341 343 343 344 344 294 294 345 345 294 294 344 344 294 294 345 345 346 346 347 347 348 348 349 349 346 346 350 350 294 294 311 311 294 294 350 350 294 294 311 311 351 351 310 310 351 351 311 311 352 352 353 353 354 354 355 355 354 354 353 353 296 296 356 356 294 294 357 357 294 294 356 356 294 294 357 357 292 292 339 339 358 358 294 294 359 359 294 294 358 358 294 294 359 359 360 360 361 361 362 362 294 294 363 363 294 294 362 362 294 294 363 363 364 364 364 364 365 365 294 294 366 366 294 294 365 365 294 294 366 366 340 340 342 342 367 367 294 294 368 368 294 294 367 367 294 294 368 368 343 343 369 369 370 370 371 371 312 312 298 298 354 354 372 372 354 354 298 298 354 354 372 372 352 352 319 319 373 373 294 294 374 374 294 294 373 373 294 294 374 374 375 375 375 375 376 376 294 294 377 377 294 294 376 376 294 294 377 377 320 320 360 360 378 378 294 294 379 379 294 294 378 378 294 294 379 379 380 380 381 381 382 382 294 294 383 383 294 294 382 382 383 383 384 384 294 294 385 385 294 294 384 384 294 294 385 385 386 386 387 387 388 388 294 294 389 389 294 294 388 388 390 390 391 391 392 392 393 393 392 392 391 391 392 392 393 393 394 394 394 394 395 395 392 392 371 371 392 392 395 395 392 392 371 371 396 396 370 370 396 396 371 371 397 397 398 398 299 299 316 316 399 399 294 294 400 400 294 294 399 399 294 294 400 400 401 401 380 380 402 402 294 294 403 403 294 294 402 402 294 294 403 403 404 404 404 404 405 405 294 294 406 406 294 294 405 405 294 294 406 406 381 381 389 389 407 407 294 294 408 408 294 294 407 407 294 294 408 408 361 361 309 309 311 311 392 392 409 409 392 392 311 311 392 392 409 409 390 390 410 410 299 299 411 411 412 412 411 411 299 299 411 411 412 412 413 413 398 398 414 414 299 299 415 415 299 299 414 414 299 299 415 415 297 297 355 355 416 416 354 354 417 417 354 354 416 416 354 354 417 417 418 418 313 313 419 419 314 314 354 354 314 314 419 419 314 314 354 354 420 420 418 418 420 420 354 354 401 401 421 421 294 294 422 422 294 294 421 421 294 294 422 422 423 423 423 423 424 424 294 294 425 425 294 294 424 424 294 294 425 425 426 426 426 426 427 427 294 294 428 428 294 294 427 427 294 294 428 428 300 300 386 386 429 429 294 294 430 430 294 294 429 429 294 294 430 430 387 387 369 369 371 371 349 349 431 431 349 349 371 371 349 349 431 431 432 432 432 432 433 433 349 349 434 434 349 349 433 433 349 349 434 434 435 435 435 435 436 436 349 349 437 437 349 349 436 436 349 349 437 437 438 438 439 439 440 440 441 441 442 442 441 441 440 440 347 347 349 349 443 443 438 438 443 443 349 349 443 443 438 438 439 439 444 444 439 439 438 438 439 439 444 444 440 440 445 445 446 446 447 447 448 448 447 447 446 446 413 413 449 449 411 411 448 448 411 411 449 449 411 411 448 448 450 450 446 446 450 450 448 448 410 410 451 451 299 299 452 452 299 299 451 451 299 299 452 452 453 453 453 453 454 454 299 299 455 455 299 299 454 454 299 299 455 455 397 397 456 456 457 457 458 458 459 459 460 460 461 461 459 459 461 461 458 458 462 462 458 458 461 461 458 458 462 462 456 456 463 463 464 464 465 465 466 466 465 465 464 464 460 460 467 467 461 461 468 468 461 461 467 467 461 461 468 468 469 469 470 470 471 471 465 465 472 472 465 465 471 471 473 473 474 474 475 475 470 470 476 476 471 471 477 477 471 471 476 476 471 471 477 477 478 478 479 479 480 480 481 481 482 482 483 483 457 457 484 484 457 457 483 483 457 457 484 484 485 485 472 472 486 486 465 465 487 487 465 465 486 486 465 465 487 487 488 488 473 473 475 475 489 489 490 490 491 491 492 492 493 493 492 492 491 491 469 469 494 494 461 461 495 495 461 461 494 494 461 461 495 495 496 496 497 497 498 498 499 499 500 500 501 501 499 499 481 481 499 499 501 501 499 499 481 481 502 502 480 480 502 502 481 481 488 488 503 503 465 465 504 504 465 465 503 503 465 465 504 504 463 463 505 505 506 506 507 507 508 508 509 509 491 491 510 510 491 491 509 509 491 491 510 510 511 511 496 496 512 512 461 461 513 513 461 461 512 512 461 461 513 513 514 514 482 482 457 457 499 499 515 515 499 499 457 457 499 499 515 515 497 497 516 516 517 517 499 499 518 518 499 499 517 517 499 499 518 518 519 519 520 520 521 521 522 522 485 485 523 523 457 457 524 524 457 457 523 523 457 457 524 524 458 458 508 508 491 491 475 475 525 525 475 475 491 491 475 475 525 525 489 489 474 474 526 526 475 475 507 507 475 475 526 526 475 475 507 507 527 527 506 506 527 527 507 507 511 511 528 528 491 491 529 529 491 491 528 528 491 491 529 529 493 493 490 490 530 530 491 491 531 531 491 491 530 530 491 491 531 531 532 532 478 478 533 533 471 471 534 534 471 471 533 533 471 471 534 534 535 535 461 461 535 535 534 534 535 535 461 461 536 536 514 514 536 536 461 461 537 537 538 538 499 499 539 539 499 499 538 538 499 499 539 539 516 516 519 519 540 540 499 499 541 541 499 499 540 540 499 499 541 541 542 542 481 481 543 543 520 520 532 532 544 544 491 491 545 545 491 491 544 544 491 491 545 545 546 546 466 466 547 547 465 465 491 491 465 465 547 547 465 465 491 491 548 548 546 546 548 548 491 491 498 498 549 549 499 499 550 550 499 499 549 549 499 499 550 550 551 551 551 551 552 552 499 499 553 553 499 499 552 552 499 499 553 553 537 537 542 542 554 554 499 499 555 555 499 499 554 554 499 499 555 555 500 500 556 556 557 557 481 481 558 558 481 481 557 557 481 481 558 558 479 479 559 559 560 560 561 561 562 562 561 561 560 560 561 561 562 562 563 563 561 561 564 564 559 559 565 565 559 559 564 564 559 559 565 565 566 566 520 520 522 522 481 481 567 567 481 481 522 522 481 481 567 567 556 556 563 563 568 568 561 561 569 569 561 561 568 568 561 561 569 569 570 570 571 571 570 570 569 569 566 566 572 572 559 559 573 573 559 559 572 572 559 559 573 573 507 507 574 574 507 507 573 573 507 507 574 574 505 505 575 575 557 557 576 576 556 556 576 576 557 557 576 576 556 556 577 577 578 578 577 577 556 556 577 577 578 578 579 579 580 580 581 581 569 569 582 582 569 569 581 581 569 569 582 582 571 571 583 583 571 571 582 582</p>
        </triangles>
      </mesh>
    </geometry>
  </library_geometries>
  <library_materials>
    <material id="6b6228164f8b4759aeacb91825a79525" name="defaultmaterial">
      <instance_effect url="#e0b0c60f4b7e4bc29e8846c98ade41f0"/>
    </material>
  </library_materials>
  <library_visual_scenes>
    <visual_scene id="scene">
      <node id="node0" name="node0">
        <instance_geometry url="#8900bb4d2b9f4614b757a264bfb7009c">
          <bind_material>
            <technique_common>
              <instance_material symbol="material0" target="#6b6228164f8b4759aeacb91825a79525"/>
            </technique_common>
          </bind_material>
        </instance_geometry>
      </node>
    </visual_scene>
  </library_visual_scenes>
  <scene>
    <instance_visual_scene url="#scene"/>
  </scene>
</COLLADA>
