<COLLADA xmlns="http://www.collada.org/2005/11/COLLADASchema" version="1.4.1">
  <asset>
    <created>2026-09-27T18:30:25.164437</created>
    <modified>2026-09-27T18:30:25.164437</modified>
    <up_axis>Y_UP</up_axis>
  </asset>
  <library_effects>
    <effect id="61c000ad798041a9bfc43f471c15fc02" name="61c000ad798041a9bfc43f471c15fc02">
      <profile_COMMON>
        <technique sid="common">
          <phong>
            <emission>
              <color>0.0 0.0 0.0 1.0</color>
            </emission>
            <ambient>
              <color>0.0 0.0 0.0 1.0</color>
            </ambient>
            <diffuse>
              <color>0.8941176470588236 0.8941176470588236 0.8941176470588236 1.0</color>
            </diffuse>
            <specular>
              <color>0.0 0.0 0.0 1.0</color>
            </specular>
            <shininess>
              <float>0.0</float>
            </shininess>
            <reflective>
              <color>0.0 0.0 0.0 1.0</color>
            </reflective>
            <reflectivity>
              <float>0.0</float>
            </reflectivity>
            <transparent>
              <color>0.0 0.0 0.0 1.0</color>
            </transparent>
            <transparency>
              <float>1.0</float>
            </transparency>
          </phong>
        </technique>
        <extra>
          <technique profile="GOOGLEEARTH">
            <double_sided>0</double_sided>
          </technique>
        </extra>
      </profile_COMMON>
    </effect>
  </library_effects>
  <library_geometries>
    <geometry id="a3988db2910e432d8ab762e4036f21ce" name="5a81b49bd4bf46b6b7d02e2dedbe5ec9">
      <mesh>
        <source id="verts-array">
          <float_array count="1098" id="verts-array-array">-0.00572346 -0.005374151 0.006694248 -0.005768386 -0.005418983 0.006461604 0.001856361 0.001688794 -0.008016026 0.005419385 0.005078787 -0.007399126 0.005464485 0.005122343 -0.007321667 0.004944743 0.004623618 -0.00786653 -0.005786897 -0.005554369 -0.006225246 -0.005752775 -0.005524036 -0.006448877 -0.001856361 -0.001688794 0.008016026 0.004350456 0.004206115 0.007961289 0.00337586 0.003131934 -0.008029426 0.004091017 0.003811152 -0.008035733 0.004350456 0.004057554 -0.008038021 0.004433006 0.004136028 -0.00803096 0.004712914 0.004402411 -0.00797525 0.004550976 0.004248173 -0.00802088 0.005544308 0.005199435 -0.007184587 0.005591032 0.005244822 -0.007076094 0.005645645 0.005297872 -0.006949301 0.005693377 0.005344662 -0.006792868 0.00572346 0.005374151 -0.006694248 0.005768386 0.005418983 -0.006461604 -0.005419385 -0.005078787 0.007399126 -0.005464485 -0.005122343 0.007321667 -0.005544308 -0.005199435 0.007184587 -0.005591032 -0.005244822 0.007076094 -0.005645645 -0.005297872 0.006949301 -0.005693377 -0.005344662 0.006792868 -0.005672458 -0.005450724 -0.006769301 -0.005584811 -0.005369624 -0.007000844 -0.005174142 -0.004985127 -0.00760056 -0.005095174 -0.004910726 -0.007665694 -0.005002887 -0.004823775 -0.007741825 -0.005142993 -0.004813312 0.007716835 -0.005112076 -0.004783664 0.007747131 -0.004944743 -0.004623618 0.00786653 -0.005273753 -0.004938702 0.007588653 -0.005315228 -0.004978597 0.007534681 -0.005745829 -0.00551786 -0.006494386 -0.005677802 -0.005455668 -0.006755185 -0.005562645 -0.005348968 -0.007043678 -0.005468864 -0.005261574 -0.007224837 -0.005429463 -0.005224684 -0.007282382 -0.005330505 -0.005132033 -0.007426899 -0.005274051 -0.005078993 -0.007489594 -0.004889151 -0.004716367 -0.007808655 -0.004817449 -0.004648652 -0.007850775 -0.00464847 -0.00448874 -0.007914223 -0.00337586 -0.003131934 0.008029426 -0.004091017 -0.003811152 0.008035733 -0.004350456 -0.004057554 0.008038021 -0.004433006 -0.004136028 0.00803096 -0.004550976 -0.004248173 0.00802088 -0.004712914 -0.004402411 0.00797525 -0.004745869 -0.004433798 0.007965962 -0.004934541 -0.00461386 0.007873809 0.004745869 0.004433798 -0.007965962 0.004934541 0.00461386 -0.007873809 0.005112076 0.004783664 -0.007747131 0.005142993 0.004813312 -0.007716835 0.005800608 0.005453403 -0.006050896 0.005800608 0.005532885 0.002508965 0.005800608 0.005552343 0.004604515 0.005669855 0.005448241 0.006768214 0.005657768 0.0054372 0.006815569 0.005557055 0.005343616 0.007039108 0.005489645 0.005280977 0.007188736 0.005425802 0.005221159 0.007277215 0.005273065 0.00507805 0.007488893 0.005246027 0.005052716 0.00752637 0.005092629 0.004908259 0.007660337 0.00498584 0.004807694 0.007753604 0.004887629 0.004714857 0.007801839 0.004648578 0.004488834 0.007913182 0.004666923 0.004506231 0.00791022 -0.005800608 -0.005453403 0.006050896 -0.005800608 -0.005532885 -0.002508965 -0.005800608 -0.005552343 -0.004604515 -0.005800608 -0.005561501 -0.005590792 -0.004624238 -0.004465809 -0.007923316 -0.004426618 -0.004278425 -0.007957938 -0.004350456 -0.004206115 -0.007961289 0.005315228 0.004978597 -0.007534681 0.005273753 0.004938702 -0.007588653 0.005774824 0.005425409 -0.006428242 0.005798665 0.005450582 -0.006155914 -0.005774824 -0.005425409 0.006428242 -0.005798665 -0.005450582 0.006155914 -0.005800608 -0.005564824 -0.005948587 -0.00579496 -0.005560516 -0.006062482 0.005800608 0.005561501 0.005590792 0.005800608 0.005564824 0.005948587 0.005791052 0.005556796 0.006061656 0.005761766 0.005532196 0.006408039 0.005751571 0.005522884 0.006447998 -0.02395778 0.0310963 0.006711558 -0.02365401 0.0313845 0.00667641 -0.02323479 0.03165462 -0.007116262 -0.0235731 0.03133214 -0.007239293 -0.02388511 0.03103542 -0.00727867 -0.02798301 0.02727335 0.006747056 -0.02395778 0.03096631 -0.007287839 -0.02417082 0.03076398 -0.00728596 -0.02362278 0.03141413 0.006672805 -0.0233216 0.03169923 0.006568373 -0.0232611 0.0317565 0.006547391 -0.02297042 0.03203093 0.006367855 -0.02290419 0.03209346 0.006326953 -0.02262325 0.03235782 0.006059487 -0.02182021 0.03310352 0.004223354 -0.02182385 0.03310054 0.004274563 -0.02191159 0.03302107 0.004690729 -0.02353599 0.03136743 -0.007234611 -0.03161203 0.02370998 -0.005790378 -0.03039457 0.02485426 -0.007093499 -0.03139994 0.02390786 -0.006174812 -0.03045507 0.02479699 -0.007072517 -0.03074575 0.02452256 -0.006892981 -0.03189596 0.02344997 -0.004748479 -0.0319265 0.02342496 -0.004317919 -0.03006216 0.02516899 -0.007201536 -0.03193362 0.02341913 -0.00421763 -0.03193362 0.02342186 -0.003923833 -0.02954535 0.02578951 0.006760834 -0.03191007 0.02351966 0.004200749 -0.03190766 0.02352236 0.004243796 -0.03117414 0.02423574 0.0060392 -0.03089674 0.02450192 0.006329251 -0.03083445 0.02456147 0.00637137 -0.02237326 0.03259242 0.005753065 -0.02231623 0.03264563 0.005649687 -0.02256699 0.03241076 0.006005923 -0.02210414 0.03284351 0.005265253 -0.0220732 0.0328721 0.005179073 -0.02471546 0.03024671 -0.007281157 -0.02573316 0.02928015 -0.007272182 -0.02900071 0.02630679 0.006756031 -0.02975839 0.02545719 -0.007236684 -0.03081198 0.02446003 -0.006852079 -0.03109292 0.02419567 -0.006584612 -0.03114918 0.02414273 -0.006531049 -0.03134291 0.02396107 -0.006278191 -0.03164297 0.02368139 -0.005704199 -0.03178505 0.02355012 -0.005308513 -0.03180458 0.02353242 -0.005215855 -0.03009339 0.02513936 -0.007197931 -0.03189232 0.02345295 -0.004799689 -0.03183386 0.0235963 0.004658507 -0.03181903 0.02361116 0.004741813 -0.03169071 0.02373676 0.005141564 -0.03166147 0.02376537 0.005232642 -0.03146933 0.02395146 0.005618391 -0.02975839 0.02558718 0.006762713 -0.02983106 0.02551807 0.006753544 -0.02193112 0.03300338 0.004783387 -0.02178967 0.03312854 0.003792793 -0.02178255 0.03313436 0.003692504 -0.02178255 0.03313163 0.003398707 -0.0218061 0.03303383 -0.004725875 -0.02316772 0.03171856 -0.007089915 -0.02288172 0.03199202 -0.006896495 -0.03124874 0.02416416 0.005961211 -0.03143085 0.02398872 0.005695638 -0.03054845 0.02483493 0.006564789 -0.03048138 0.02489887 0.006591136 -0.03018018 0.02518606 0.006709485 -0.03014307 0.02522135 0.006714167 -0.02180851 0.03303114 -0.004768922 -0.02254203 0.03231775 -0.006564326 -0.02281943 0.03205157 -0.006854377 -0.02188231 0.03295719 -0.005183633 -0.02189714 0.03294233 -0.005266939 -0.02202546 0.03281673 -0.00566669 -0.0220547 0.03278812 -0.005757768 -0.02224684 0.03260203 -0.006143517 -0.02228532 0.03256477 -0.006220764 -0.02246743 0.03238933 -0.006486337 -0.03193362 0.02342883 -0.003172715 -0.03193362 0.02344187 -0.001769196 -0.03193362 0.02349341 0.003782025 -0.02178255 0.03312466 0.002647589 -0.02178255 0.03311163 0.00124407 -0.02178255 0.03306008 -0.004307151 -0.02353599 0.03136743 -0.007234611 -0.02323479 0.03165462 -0.007116262 0.004944743 0.004623618 -0.00786653 -0.03018018 0.02518606 0.006709485 -0.03048138 0.02489887 0.006591136 -0.004944743 -0.004623618 0.00786653 -0.03189232 0.02345295 -0.004799689 -0.03180458 0.02353242 -0.005215855 -0.005672458 -0.005450724 -0.006769301 -0.005584811 -0.005369624 -0.007000844 -0.03178505 0.02355012 -0.005308513 -0.005562645 -0.005348968 -0.007043678 -0.03164297 0.02368139 -0.005704199 -0.005468864 -0.005261574 -0.007224837 -0.03161203 0.02370998 -0.005790378 -0.005429463 -0.005224684 -0.007282382 -0.03139994 0.02390786 -0.006174812 -0.005330505 -0.005132033 -0.007426899 -0.03134291 0.02396107 -0.006278191 -0.005274051 -0.005078993 -0.007489594 -0.03114918 0.02414273 -0.006531049 -0.03109292 0.02419567 -0.006584612 -0.005174142 -0.004985127 -0.00760056 -0.03081198 0.02446003 -0.006852079 -0.005095174 -0.004910726 -0.007665694 -0.03074575 0.02452256 -0.006892981 -0.005002887 -0.004823775 -0.007741825 -0.03045507 0.02479699 -0.007072517 -0.004889151 -0.004716367 -0.007808655 -0.03039457 0.02485426 -0.007093499 -0.004817449 -0.004648652 -0.007850775 -0.03009339 0.02513936 -0.007197931 -0.00464847 -0.00448874 -0.007914223 -0.03006216 0.02516899 -0.007201536 -0.004624238 -0.004465809 -0.007923316 -0.004426618 -0.004278425 -0.007957938 -0.0319265 0.02342496 -0.004317919 -0.03189596 0.02344997 -0.004748479 -0.005786897 -0.005554369 -0.006225246 -0.005800608 -0.005561501 -0.005590792 -0.03193362 0.02341913 -0.00421763 -0.005800608 -0.005564824 -0.005948587 -0.00579496 -0.005560516 -0.006062482 -0.005677802 -0.005455668 -0.006755185 -0.005745829 -0.00551786 -0.006494386 -0.005752775 -0.005524036 -0.006448877 -0.005112076 -0.004783664 0.007747131 -0.03054845 0.02483493 0.006564789 -0.005142993 -0.004813312 0.007716835 -0.03083445 0.02456147 0.00637137 -0.005273753 -0.004938702 0.007588653 -0.03089674 0.02450192 0.006329251 -0.005315228 -0.004978597 0.007534681 -0.03117414 0.02423574 0.0060392 -0.005419385 -0.005078787 0.007399126 -0.03124874 0.02416416 0.005961211 -0.005464485 -0.005122343 0.007321667 -0.03143085 0.02398872 0.005695638 -0.03146933 0.02395146 0.005618391 -0.005544308 -0.005199435 0.007184587 -0.03166147 0.02376537 0.005232642 -0.005591032 -0.005244822 0.007076094 -0.03169071 0.02373676 0.005141564 -0.005645645 -0.005297872 0.006949301 -0.03181903 0.02361116 0.004741813 -0.005693377 -0.005344662 0.006792868 -0.03183386 0.0235963 0.004658507 -0.00572346 -0.005374151 0.006694248 -0.03190766 0.02352236 0.004243796 -0.005768386 -0.005418983 0.006461604 -0.03191007 0.02351966 0.004200749 -0.005774824 -0.005425409 0.006428242 -0.005798665 -0.005450582 0.006155914 -0.02983106 0.02551807 0.006753544 -0.03014307 0.02522135 0.006714167 -0.004550976 -0.004248173 0.00802088 -0.004091017 -0.003811152 0.008035733 -0.02975839 0.02558718 0.006762713 -0.004350456 -0.004057554 0.008038021 -0.004433006 -0.004136028 0.00803096 -0.004934541 -0.00461386 0.007873809 -0.004745869 -0.004433798 0.007965962 -0.004712914 -0.004402411 0.00797525 -0.005800608 -0.005453403 0.006050896 -0.03193362 0.02349341 0.003782025 -0.005800608 -0.005532885 -0.002508965 -0.03193362 0.02344187 -0.001769196 -0.005800608 -0.005552343 -0.004604515 -0.03193362 0.02342883 -0.003172715 -0.03193362 0.02342186 -0.003923833 0.005800608 0.005561501 0.005590792 -0.02178255 0.03313436 0.003692504 0.005800608 0.005564824 0.005948587 -0.02178967 0.03312854 0.003792793 0.005669855 0.005448241 0.006768214 0.005751571 0.005522884 0.006447998 -0.02182021 0.03310352 0.004223354 0.005761766 0.005532196 0.006408039 0.005791052 0.005556796 0.006061656 -0.02237326 0.03259242 0.005753065 0.005273065 0.00507805 0.007488893 -0.02231623 0.03264563 0.005649687 0.005425802 0.005221159 0.007277215 -0.02210414 0.03284351 0.005265253 0.005489645 0.005280977 0.007188736 -0.0220732 0.0328721 0.005179073 0.005557055 0.005343616 0.007039108 -0.02193112 0.03300338 0.004783387 0.005657768 0.0054372 0.006815569 -0.02191159 0.03302107 0.004690729 -0.02182385 0.03310054 0.004274563 0.005112076 0.004783664 -0.007747131 -0.02316772 0.03171856 -0.007089915 0.005142993 0.004813312 -0.007716835 -0.02288172 0.03199202 -0.006896495 0.005273753 0.004938702 -0.007588653 -0.02281943 0.03205157 -0.006854377 0.005315228 0.004978597 -0.007534681 -0.02254203 0.03231775 -0.006564326 0.005419385 0.005078787 -0.007399126 -0.02246743 0.03238933 -0.006486337 0.005464485 0.005122343 -0.007321667 -0.02228532 0.03256477 -0.006220764 -0.02224684 0.03260203 -0.006143517 0.005544308 0.005199435 -0.007184587 -0.0220547 0.03278812 -0.005757768 0.005591032 0.005244822 -0.007076094 -0.02202546 0.03281673 -0.00566669 0.005645645 0.005297872 -0.006949301 -0.02189714 0.03294233 -0.005266939 0.005693377 0.005344662 -0.006792868 -0.02188231 0.03295719 -0.005183633 0.00572346 0.005374151 -0.006694248 -0.02180851 0.03303114 -0.004768922 0.005768386 0.005418983 -0.006461604 -0.0218061 0.03303383 -0.004725875 0.005774824 0.005425409 -0.006428242 0.005798665 0.005450582 -0.006155914 -0.02388511 0.03103542 -0.00727867 -0.0235731 0.03133214 -0.007239293 0.004550976 0.004248173 -0.00802088 0.004091017 0.003811152 -0.008035733 -0.02395778 0.03096631 -0.007287839 0.004350456 0.004057554 -0.008038021 0.004433006 0.004136028 -0.00803096 0.004934541 0.00461386 -0.007873809 0.004745869 0.004433798 -0.007965962 0.004712914 0.004402411 -0.00797525 0.005800608 0.005453403 -0.006050896 -0.02178255 0.03306008 -0.004307151 0.005800608 0.005532885 0.002508965 -0.02178255 0.03311163 0.00124407 0.005800608 0.005552343 0.004604515 -0.02178255 0.03312466 0.002647589 -0.02178255 0.03313163 0.003398707 -0.02256699 0.03241076 0.006005923 -0.02262325 0.03235782 0.006059487 0.005246027 0.005052716 0.00752637 -0.02290419 0.03209346 0.006326953 0.005092629 0.004908259 0.007660337 -0.02297042 0.03203093 0.006367855 0.00498584 0.004807694 0.007753604 -0.0232611 0.0317565 0.006547391 0.004887629 0.004714857 0.007801839 -0.0233216 0.03169923 0.006568373 0.004666923 0.004506231 0.00791022 -0.02362278 0.03141413 0.006672805 0.004648578 0.004488834 0.007913182 -0.02365401 0.0313845 0.00667641 0.004350456 0.004206115 0.007961289 -0.02395778 0.0310963 0.006711558 -0.001856361 -0.001688794 0.008016026 -0.02798301 0.02727335 0.006747056 -0.00337586 -0.003131934 0.008029426 -0.02900071 0.02630679 0.006756031 -0.02954535 0.02578951 0.006760834 -0.004350456 -0.004206115 -0.007961289 -0.02975839 0.02545719 -0.007236684 0.001856361 0.001688794 -0.008016026 -0.02573316 0.02928015 -0.007272182 0.00337586 0.003131934 -0.008029426 -0.02471546 0.03024671 -0.007281157 -0.02417082 0.03076398 -0.00728596</float_array>
          <technique_common>
            <accessor count="366" source="#verts-array-array" stride="3">
              <param type="float" name="X"/>
              <param type="float" name="Y"/>
              <param type="float" name="Z"/>
            </accessor>
          </technique_common>
        </source>
        <source id="normals-array">
          <float_array count="1098" id="normals-array-array">0.6886688 -0.7250448 0.006732383 0.6886688 -0.7250448 0.006732383 0.6886688 -0.7250448 0.006732383 0.6886688 -0.7250448 0.006732383 0.6886688 -0.7250448 0.006732383 0.6886688 -0.7250448 0.006732383 0.6886688 -0.7250448 0.006732383 0.6886688 -0.7250448 0.006732383 0.6886688 -0.7250448 0.006732383 0.6886688 -0.7250448 0.006732383 0.6886688 -0.7250448 0.006732383 0.6886688 -0.7250448 0.006732383 0.6886688 -0.7250448 0.006732383 0.6886688 -0.7250448 0.006732383 0.6886688 -0.7250448 0.006732383 0.6886688 -0.7250448 0.006732383 0.6886688 -0.7250448 0.006732383 0.6886688 -0.7250448 0.006732383 0.6886688 -0.7250448 0.006732383 0.6886688 -0.7250448 0.006732383 0.6886688 -0.7250448 0.006732383 0.6886688 -0.7250448 0.006732383 0.6886688 -0.7250448 0.006732383 0.6886688 -0.7250448 0.006732383 0.6886688 -0.7250448 0.006732383 0.6886688 -0.7250448 0.006732383 0.6886688 -0.7250448 0.006732383 0.6886688 -0.7250448 0.006732383 0.6886688 -0.7250448 0.006732383 0.6886688 -0.7250448 0.006732383 0.6886688 -0.7250448 0.006732383 0.6886688 -0.7250448 0.006732383 0.6886688 -0.7250448 0.006732383 0.6886688 -0.7250448 0.006732383 0.6886688 -0.7250448 0.006732383 0.6886688 -0.7250448 0.006732383 0.6886688 -0.7250448 0.006732383 0.6886688 -0.7250448 0.006732383 0.6886688 -0.7250448 0.006732383 0.6886688 -0.7250448 0.006732383 0.6886688 -0.7250448 0.006732383 0.6886688 -0.7250448 0.006732383 0.6886688 -0.7250448 0.006732383 0.6886688 -0.7250448 0.006732383 0.6886688 -0.7250448 0.006732383 0.6886688 -0.7250448 0.006732383 0.6886688 -0.7250448 0.006732383 0.6886688 -0.7250448 0.006732383 0.6886688 -0.7250448 0.006732383 0.6886688 -0.7250448 0.006732383 0.6886688 -0.7250448 0.006732383 0.6886688 -0.7250448 0.006732383 0.6886688 -0.7250448 0.006732383 0.6886688 -0.7250448 0.006732383 0.6886688 -0.7250448 0.006732383 0.6886688 -0.7250448 0.006732383 0.6886688 -0.7250448 0.006732383 0.6886688 -0.7250448 0.006732383 0.6886688 -0.7250448 0.006732383 0.6886688 -0.7250448 0.006732383 0.6886688 -0.7250448 0.006732383 0.6886688 -0.7250448 0.006732383 0.6886688 -0.7250448 0.006732383 0.6886688 -0.7250448 0.006732383 0.6886688 -0.7250448 0.006732383 0.6886688 -0.7250448 0.006732383 0.6886688 -0.7250448 0.006732383 0.6886688 -0.7250448 0.006732383 0.6886688 -0.7250448 0.006732383 0.6886688 -0.7250448 0.006732383 0.6886688 -0.7250448 0.006732383 0.6886688 -0.7250448 0.006732383 0.6886688 -0.7250448 0.006732383 0.6886688 -0.7250448 0.006732383 0.6886688 -0.7250448 0.006732383 0.6886688 -0.7250448 0.006732383 0.6886688 -0.7250448 0.006732383 0.6886688 -0.7250448 0.006732383 0.6886688 -0.7250448 0.006732383 0.6886688 -0.7250448 0.006732383 0.6886688 -0.7250448 0.006732383 0.6886688 -0.7250448 0.006732383 0.6886688 -0.7250448 0.006732383 0.6886688 -0.7250448 0.006732383 0.6886688 -0.7250448 0.006732383 0.6886688 -0.7250448 0.006732383 0.6886688 -0.7250448 0.006732383 0.6886688 -0.7250448 0.006732383 0.6886688 -0.7250448 0.006732383 0.6886688 -0.7250448 0.006732383 0.6886688 -0.7250448 0.006732383 0.6886688 -0.7250448 0.006732383 0.6886688 -0.7250448 0.006732383 0.6886688 -0.7250448 0.006732383 0.6886688 -0.7250448 0.006732383 -0.6886688 0.7250448 -0.006732383 -0.6886688 0.7250448 -0.006732383 -0.6886688 0.7250448 -0.006732383 -0.6886688 0.7250448 -0.006732383 -0.6886688 0.7250448 -0.006732383 -0.6886688 0.7250448 -0.006732383 -0.6886688 0.7250448 -0.006732383 -0.6886688 0.7250448 -0.006732383 -0.6886688 0.7250448 -0.006732383 -0.6886688 0.7250448 -0.006732383 -0.6886688 0.7250448 -0.006732383 -0.6886688 0.7250448 -0.006732383 -0.6886688 0.7250448 -0.006732383 -0.6886688 0.7250448 -0.006732383 -0.6886688 0.7250448 -0.006732383 -0.6886688 0.7250448 -0.006732383 -0.6886688 0.7250448 -0.006732383 -0.6886688 0.7250448 -0.006732383 -0.6886688 0.7250448 -0.006732383 -0.6886688 0.7250448 -0.006732383 -0.6886688 0.7250448 -0.006732383 -0.6886688 0.7250448 -0.006732383 -0.6886688 0.7250448 -0.006732383 -0.6886688 0.7250448 -0.006732383 -0.6886688 0.7250448 -0.006732383 -0.6886688 0.7250448 -0.006732383 -0.6886688 0.7250448 -0.006732383 -0.6886688 0.7250448 -0.006732383 -0.6886688 0.7250448 -0.006732383 -0.6886688 0.7250448 -0.006732383 -0.6886688 0.7250448 -0.006732383 -0.6886688 0.7250448 -0.006732383 -0.6886688 0.7250448 -0.006732383 -0.6886688 0.7250448 -0.006732383 -0.6886688 0.7250448 -0.006732383 -0.6886688 0.7250448 -0.006732383 -0.6886688 0.7250448 -0.006732383 -0.6886688 0.7250448 -0.006732383 -0.6886688 0.7250448 -0.006732383 -0.6886688 0.7250448 -0.006732383 -0.6886688 0.7250448 -0.006732383 -0.6886688 0.7250448 -0.006732383 -0.6886688 0.7250448 -0.006732383 -0.6886688 0.7250448 -0.006732383 -0.6886688 0.7250448 -0.006732383 -0.6886688 0.7250448 -0.006732383 -0.6886688 0.7250448 -0.006732383 -0.6886688 0.7250448 -0.006732383 -0.6886688 0.7250448 -0.006732383 -0.6886688 0.7250448 -0.006732383 -0.6886688 0.7250448 -0.006732383 -0.6886688 0.7250448 -0.006732383 -0.6886688 0.7250448 -0.006732383 -0.6886688 0.7250448 -0.006732383 -0.6886688 0.7250448 -0.006732383 -0.6886688 0.7250448 -0.006732383 -0.6886688 0.7250448 -0.006732383 -0.6886688 0.7250448 -0.006732383 -0.6886688 0.7250448 -0.006732383 -0.6886688 0.7250448 -0.006732383 -0.6886688 0.7250448 -0.006732383 -0.6886688 0.7250448 -0.006732383 -0.6886688 0.7250448 -0.006732383 -0.6886688 0.7250448 -0.006732383 -0.6886688 0.7250448 -0.006732383 -0.6886688 0.7250448 -0.006732383 -0.6886688 0.7250448 -0.006732383 -0.6886688 0.7250448 -0.006732383 -0.6886688 0.7250448 -0.006732383 -0.6886688 0.7250448 -0.006732383 -0.6886688 0.7250448 -0.006732383 -0.6886688 0.7250448 -0.006732383 -0.6886688 0.7250448 -0.006732383 -0.6886688 0.7250448 -0.006732383 -0.6886688 0.7250448 -0.006732383 -0.6886688 0.7250448 -0.006732383 -0.6886688 0.7250448 -0.006732383 -0.6886688 0.7250448 -0.006732383 -0.6886688 0.7250448 -0.006732383 -0.6886688 0.7250448 -0.006732383 -0.6886688 0.7250448 -0.006732383 -0.6886688 0.7250448 -0.006732383 -0.6886688 0.7250448 -0.006732383 -0.6886688 0.7250448 -0.006732383 -0.6886688 0.7250448 -0.006732383 -0.6886688 0.7250448 -0.006732383 -0.6886688 0.7250448 -0.006732383 -0.6886688 0.7250448 -0.006732383 0.1121472 0.1440902 -0.9831892 0.1774058 0.2107002 -0.9613182 0.3043574 0.3434899 -0.8884713 -0.1587822 -0.09499198 0.9827333 -0.2284571 -0.1569523 0.9608191 -0.3669238 -0.2776187 0.8878597 -0.7352036 -0.6532977 -0.1807702 -0.7211059 -0.6363503 -0.2739793 -0.6731522 -0.580976 -0.4575294 -0.64813 -0.5564351 -0.519911 -0.7028034 -0.6160383 -0.3557586 -0.6213453 -0.5304026 -0.5767176 -0.6779685 -0.5894069 -0.43927 -0.5905303 -0.501303 -0.6324313 -0.6459983 -0.557245 -0.5216937 -0.5581216 -0.4706907 -0.6833378 -0.6070652 -0.5186444 -0.602063 -0.5221828 -0.4377523 -0.731914 -0.569656 -0.4832219 -0.6648223 -0.4843823 -0.4028128 -0.7766052 -0.4855327 -0.4045053 -0.7750054 -0.4404948 -0.3628867 -0.821144 -0.443262 -0.3657397 -0.8183845 -0.3816703 -0.309926 -0.8707891 -0.3995492 -0.3259089 -0.856822 -0.3215608 -0.2559999 -0.9116264 -0.3558611 -0.2865697 -0.8895171 -0.2590577 -0.200792 -0.9447601 -0.3089507 -0.2444809 -0.9191184 -0.1975147 -0.1466299 -0.9692717 -0.2621413 -0.2029052 -0.9434571 -0.1354889 -0.09258809 -0.9864432 -0.2118815 -0.1585231 -0.964353 -0.07623086 -0.04116419 -0.9962401 -0.162034 -0.1152172 -0.9800357 -0.07392513 -0.03875889 -0.9965103 -0.7423657 -0.6637651 -0.09115381 -0.7421744 -0.6639354 -0.09147125 -0.7398627 -0.6594372 -0.1332133 -0.7424902 -0.6698281 0.00621967 -0.7432813 -0.6677216 -0.04099656 -0.743264 -0.6683672 -0.02905017 -0.7431493 -0.666246 -0.06201201 -0.6927382 -0.6012383 -0.3982791 -0.7228274 -0.6365309 -0.2689776 -0.733246 -0.649865 -0.2000642 -0.4126638 -0.3200361 0.8528103 -0.2894551 -0.2114561 0.9335428 -0.4542346 -0.358749 0.815457 -0.3517316 -0.2671279 0.8971776 -0.4946074 -0.3971418 0.773073 -0.4125547 -0.3227595 0.8518362 -0.5314617 -0.4322589 0.7284921 -0.4717481 -0.3771251 0.7970135 -0.5660873 -0.466346 0.6797548 -0.5172489 -0.4203488 0.7454934 -0.5979808 -0.4976669 0.6282887 -0.5965253 -0.4968805 0.6302914 -0.6293325 -0.5293424 0.5689791 -0.627226 -0.5275549 0.5729514 -0.6637468 -0.5652162 0.4898682 -0.6541617 -0.5550201 0.5138339 -0.6916003 -0.5952101 0.4091625 -0.6766768 -0.5788047 0.4550754 -0.7133288 -0.6204739 0.3258439 -0.6967606 -0.6006589 0.3920887 -0.7287061 -0.6399058 0.2439425 -0.7127996 -0.6191334 0.329531 -0.7384393 -0.6546263 0.1617771 -0.7260723 -0.6355243 0.2625413 -0.7428144 -0.6642797 0.08342163 -0.7352065 -0.6487077 0.1965951 -0.7431029 -0.6643668 0.08009235 -0.0916315 -0.03559166 0.9951567 -0.0916885 -0.03599507 0.995137 -0.1232663 -0.06334298 0.99035 -0.01765237 0.0278668 0.9994558 -0.053518 -0.002911349 0.9985626 -0.04447477 0.004909358 0.9989984 -0.06951684 -0.01657253 0.9974431 -0.3229981 -0.2378443 0.9160253 -0.225535 -0.1527559 0.9621848 -0.1736231 -0.1073711 0.9789415 -0.7430735 -0.6689242 0.01955129 -0.7432537 -0.6675864 0.0436152 -0.7424902 -0.6698281 0.00621967 -0.7424902 -0.6698281 0.00621967 -0.7424902 -0.6698281 0.00621967 -0.7424902 -0.6698281 0.00621967 -0.7424902 -0.6698281 0.00621967 0.7071854 0.7069977 -0.006564807 0.7046847 0.7083569 0.04061924 0.7037651 0.7084349 0.05324152 0.700354 0.7079868 0.090879 0.6557056 0.6810969 0.3258178 0.6553017 0.6813882 0.3260214 0.7011632 0.7070966 0.09156717 0.6804349 0.6984186 0.2218555 0.6982491 0.7074675 0.1092607 0.5060619 0.5503832 0.664063 0.4793057 0.526716 0.702023 0.543828 0.5851126 0.6015765 0.4791246 0.5274639 0.701585 0.5848142 0.6215543 0.5212127 0.5338914 0.5777486 0.6173869 0.6194708 0.6510913 0.4385612 0.5834108 0.6216399 0.5226812 0.6476011 0.673902 0.3556247 0.6224381 0.6546676 0.4289302 0.6697814 0.6905175 0.2730905 0.6894375 0.7016916 0.1797355 0.348746 0.3873301 -0.8534352 0.2347216 0.2690806 -0.9340778 0.3891992 0.4272196 -0.8160927 0.2931855 0.3287665 -0.8977499 0.4292245 0.4659782 -0.7737122 0.351451 0.3870907 -0.8524336 0.465777 0.5014131 -0.7291342 0.4082806 0.443945 -0.7976339 0.5011478 0.5347156 -0.6803896 0.4533093 0.4876657 -0.7461185 0.5335901 0.5654587 -0.6289182 0.5327485 0.5640261 -0.6309149 0.566286 0.5957191 -0.5695954 0.5644294 0.5936685 -0.5735653 0.6031484 0.6290154 -0.4904606 0.5926952 0.6197332 -0.5144348 0.6337866 0.6560776 -0.4097277 0.6170613 0.6415691 -0.4556582 0.6593616 0.6772917 -0.3263714 0.6393352 0.6611175 -0.3926501 0.678799 0.6924491 -0.2444304 0.6580298 0.676796 -0.3300664 0.6932384 0.7022147 -0.162219 0.6744603 0.6898624 -0.2630458 0.7023772 0.7068529 -0.08381694 0.6874844 0.6989506 -0.1970616 0.7024482 0.707169 -0.08048979 0.04948712 0.07996213 -0.9955687 0.04989273 0.07999852 -0.9955456 0.07878414 0.1101747 -0.9907848 -0.01765237 0.009302762 -0.9998009 0.0149214 0.04354664 -0.99894 0.006649975 0.03491337 -0.9993682 0.02937697 0.05883262 -0.9978355 0.2626378 0.3013929 -0.9166154 0.1730774 0.2079844 -0.9626976 0.1252381 0.1583118 -0.9794145 0.7064364 0.7074965 -0.01990946 0.7053328 0.7075103 -0.04398591 0.7071854 0.7069977 -0.006564807 0.7071854 0.7069977 -0.006564807 0.7071854 0.7069977 -0.006564807 0.7071854 0.7069977 -0.006564807 0.7071854 0.7069977 -0.006564807 0.4217818 0.471626 0.774383 0.3774872 0.4291924 0.8205469 0.4196291 0.4696863 0.7767279 0.3211646 0.3736157 0.8702095 0.3536657 0.4058198 0.842752 0.2638319 0.3168603 0.9110391 0.2858178 0.338521 0.8964997 0.2051012 0.2575073 0.9442582 0.2119689 0.2644397 0.9408192 0.1476844 0.1992547 0.9687553 0.1380238 0.1890387 0.9722211 0.09019166 0.1401831 0.9860092 0.05852445 0.1071983 0.9925137 0.03580892 0.08373343 0.9958446 0.02158278 0.06881231 0.9973961 0.008168058 0.05500226 0.9984528 -0.01765237 0.0278668 0.9994558 -0.01765237 0.0278668 0.9994558 -0.01765237 0.0278668 0.9994558 -0.01765237 0.0278668 0.9994558 -0.01765237 0.0278668 0.9994558 -0.02799066 0.0008191315 -0.9996078 -0.04608899 -0.01507833 -0.9988235 -0.01765237 0.009302762 -0.9998009 -0.01765237 0.009302762 -0.9998009 -0.01765237 0.009302762 -0.9998009 -0.01765237 0.009302762 -0.9998009 -0.01765237 0.009302762 -0.9998009</float_array>
          <technique_common>
            <accessor count="366" source="#normals-array-array" stride="3">
              <param type="float" name="X"/>
              <param type="float" name="Y"/>
              <param type="float" name="Z"/>
            </accessor>
          </technique_common>
        </source>
        <vertices id="verts-array-vertices">
          <input semantic="POSITION" source="#verts-array"/>
        </vertices>
        <triangles count="362" material="material0">
          <input offset="0" semantic="VERTEX" source="#verts-array-vertices"/>
          <input offset="1" semantic="NORMAL" source="#normals-array"/>
          <p>0 0 1 1 2 2 3 3 4 4 5 5 6 6 7 7 2 2 8 8 2 2 9 9 10 10 9 9 2 2 10 10 11 11 9 9 12 12 9 9 11 11 9 9 12 12 13 13 14 14 4 4 15 15 13 13 15 15 4 4 4 4 16 16 13 13 17 17 13 13 16 16 13 13 17 17 18 18 18 18 19 19 13 13 20 20 13 13 19 19 13 13 20 20 21 21 22 22 23 23 2 2 24 24 2 2 23 23 2 2 24 24 25 25 25 25 26 26 2 2 27 27 2 2 26 26 2 2 27 27 0 0 2 2 28 28 29 29 30 30 31 31 2 2 32 32 2 2 31 31 33 33 2 2 34 34 35 35 34 34 2 2 33 33 36 36 2 2 37 37 2 2 36 36 2 2 37 37 22 22 7 7 38 38 2 2 39 39 2 2 38 38 2 2 39 39 28 28 29 29 40 40 2 2 41 41 2 2 40 40 2 2 41 41 42 42 42 42 43 43 2 2 44 44 2 2 43 43 2 2 44 44 30 30 32 32 45 45 2 2 46 46 2 2 45 45 2 2 46 46 47 47 8 8 48 48 2 2 49 49 2 2 48 48 2 2 49 49 50 50 50 50 51 51 2 2 52 52 2 2 51 51 2 2 52 52 53 53 53 53 54 54 2 2 55 55 2 2 54 54 2 2 55 55 35 35 14 14 56 56 4 4 57 57 4 4 56 56 4 4 57 57 5 5 5 5 58 58 59 59 13 13 60 60 9 9 61 61 9 9 60 60 9 9 61 61 62 62 63 63 64 64 9 9 65 65 9 9 64 64 9 9 65 65 66 66 66 66 67 67 9 9 68 68 9 9 67 67 9 9 68 68 69 69 70 70 71 71 72 72 69 69 70 70 9 9 72 72 9 9 70 70 9 9 72 72 73 73 74 74 73 73 72 72 75 75 76 76 2 2 77 77 2 2 76 76 2 2 77 77 78 78 79 79 80 80 47 47 81 81 47 47 80 80 47 47 81 81 2 2 3 3 5 5 82 82 59 59 82 82 5 5 82 82 59 59 83 83 21 21 84 84 13 13 85 85 13 13 84 84 13 13 85 85 60 60 1 1 86 86 2 2 87 87 2 2 86 86 2 2 87 87 75 75 78 78 88 88 2 2 89 89 2 2 88 88 2 2 89 89 6 6 62 62 90 90 9 9 91 91 9 9 90 90 9 9 91 91 92 92 92 92 93 93 9 9 94 94 9 9 93 93 9 9 94 94 63 63 95 95 96 96 97 97 98 98 99 99 100 100 101 101 100 100 99 99 100 100 101 101 102 102 96 96 103 103 97 97 104 104 97 97 103 103 97 97 104 104 105 105 105 105 106 106 97 97 107 107 97 97 106 106 97 97 107 107 108 108 109 109 108 108 110 110 111 111 110 110 108 108 95 95 97 97 100 100 112 112 100 100 97 97 100 100 112 112 98 98 113 113 114 114 115 115 116 116 115 115 114 114 115 115 116 116 117 117 118 118 119 119 120 120 121 121 120 120 119 119 120 120 121 121 122 122 123 123 124 124 125 125 126 126 127 127 128 128 129 129 130 130 131 131 108 108 131 131 130 130 130 130 132 132 133 133 102 102 134 134 100 100 135 135 100 100 134 134 100 100 135 135 136 136 137 137 136 136 135 135 136 136 137 137 123 123 120 120 123 123 137 137 117 117 138 138 139 139 117 117 139 139 115 115 140 140 115 115 139 139 115 115 140 140 141 141 113 113 142 142 114 114 143 143 114 114 142 142 114 114 143 143 144 144 120 120 145 145 118 118 114 114 118 118 145 145 118 118 114 114 146 146 144 144 146 146 114 114 125 125 147 147 123 123 148 148 123 123 147 147 123 123 148 148 149 149 149 149 150 150 123 123 151 151 123 123 150 150 123 123 151 151 152 152 153 153 152 152 151 151 130 130 133 133 108 108 154 154 108 108 133 133 108 108 154 154 111 111 109 109 155 155 108 108 156 156 108 108 155 155 108 108 156 156 157 157 97 97 158 158 159 159 160 160 159 159 158 158 161 161 126 126 162 162 151 151 162 162 126 126 126 126 128 128 151 151 163 163 151 151 128 128 151 151 163 163 164 164 164 164 165 165 151 151 166 166 151 151 165 165 151 151 166 166 153 153 167 167 168 168 158 158 169 169 158 158 168 168 158 158 169 169 160 160 167 167 170 170 168 168 171 171 168 168 170 170 168 168 171 171 172 172 172 172 173 173 174 174 172 172 174 174 168 168 175 175 168 168 174 174 168 168 175 175 176 176 122 122 177 177 120 120 178 178 120 120 177 177 120 120 178 178 123 123 179 179 123 123 178 178 123 123 179 179 124 124 157 157 180 180 108 108 181 181 108 108 180 180 108 108 181 181 97 97 182 182 97 97 181 181 97 97 182 182 158 158 183 183 184 184 185 185 186 186 187 187 188 188 189 189 190 190 191 191 191 191 190 190 192 192 193 193 192 192 190 190 192 192 193 193 194 194 195 195 194 194 193 193 194 194 195 195 196 196 197 197 196 196 195 195 196 196 197 197 198 198 199 199 198 198 197 197 198 198 199 199 200 200 201 201 200 200 199 199 200 200 201 201 202 202 201 201 203 203 202 202 204 204 202 202 203 203 202 202 204 204 205 205 206 206 205 205 204 204 205 205 206 206 207 207 208 208 207 207 206 206 207 207 208 208 209 209 210 210 209 209 208 208 209 209 210 210 211 211 212 212 211 211 210 210 211 211 212 212 213 213 214 214 213 213 212 212 213 213 214 214 215 215 216 216 215 215 214 214 215 215 216 216 217 217 218 218 217 217 216 216 219 219 220 220 221 221 222 222 223 223 224 224 219 219 224 224 223 223 224 224 219 219 225 225 221 221 225 225 219 219 191 191 226 226 189 189 227 227 189 189 226 226 189 189 227 227 220 220 228 228 220 220 227 227 220 220 228 228 221 221 188 188 187 187 229 229 230 230 229 229 187 187 229 229 230 230 231 231 232 232 231 231 230 230 231 231 232 232 233 233 234 234 233 233 232 232 233 233 234 234 235 235 236 236 235 235 234 234 235 235 236 236 237 237 238 238 237 237 236 236 237 237 238 238 239 239 238 238 240 240 239 239 241 241 239 239 240 240 239 239 241 241 242 242 243 243 242 242 241 241 242 242 243 243 244 244 245 245 244 244 243 243 244 244 245 245 246 246 247 247 246 246 245 245 246 246 247 247 248 248 249 249 248 248 247 247 248 248 249 249 250 250 251 251 250 250 249 249 250 250 251 251 252 252 253 253 252 252 251 251 252 252 253 253 254 254 255 255 254 254 253 253 256 256 257 257 258 258 259 259 260 260 261 261 256 256 261 261 260 260 261 261 256 256 262 262 258 258 262 262 256 256 188 188 263 263 186 186 264 264 186 186 263 263 186 186 264 264 257 257 265 265 257 257 264 264 257 257 265 265 258 258 255 255 253 253 266 266 267 267 266 266 253 253 266 266 267 267 268 268 269 269 268 268 267 267 268 268 269 269 270 270 271 271 270 270 269 269 270 270 271 271 222 222 272 272 222 222 271 271 222 222 272 272 223 223 273 273 274 274 275 275 276 276 275 275 274 274 277 277 278 278 279 279 280 280 279 279 278 278 279 279 280 280 276 276 281 281 276 276 280 280 276 276 281 281 275 275 282 282 283 283 284 284 285 285 284 284 283 283 284 284 285 285 286 286 287 287 286 286 285 285 286 286 287 287 288 288 289 289 288 288 287 287 288 288 289 289 290 290 291 291 290 290 289 289 290 290 291 291 292 292 277 277 292 292 291 291 292 292 277 277 293 293 279 279 293 293 277 277 185 185 184 184 294 294 295 295 294 294 184 184 294 294 295 295 296 296 297 297 296 296 295 295 296 296 297 297 298 298 299 299 298 298 297 297 298 298 299 299 300 300 301 301 300 300 299 299 300 300 301 301 302 302 303 303 302 302 301 301 302 302 303 303 304 304 303 303 305 305 304 304 306 306 304 304 305 305 304 304 306 306 307 307 308 308 307 307 306 306 307 307 308 308 309 309 310 310 309 309 308 308 309 309 310 310 311 311 312 312 311 311 310 310 311 311 312 312 313 313 314 314 313 313 312 312 313 313 314 314 315 315 316 316 315 315 314 314 315 315 316 316 317 317 318 318 317 317 316 316 317 317 318 318 319 319 320 320 319 319 318 318 321 321 322 322 323 323 324 324 325 325 326 326 321 321 326 326 325 325 326 326 321 321 327 327 323 323 327 327 321 321 185 185 328 328 183 183 329 329 183 183 328 328 183 183 329 329 322 322 330 330 322 322 329 329 322 322 330 330 323 323 320 320 318 318 331 331 332 332 331 331 318 318 331 331 332 332 333 333 334 334 333 333 332 332 333 333 334 334 335 335 336 336 335 335 334 334 335 335 336 336 273 273 337 337 273 273 336 336 273 273 337 337 274 274 282 282 338 338 283 283 339 339 283 283 338 338 283 283 339 339 340 340 341 341 340 340 339 339 340 340 341 341 342 342 343 343 342 342 341 341 342 342 343 343 344 344 345 345 344 344 343 343 344 344 345 345 346 346 347 347 346 346 345 345 346 346 347 347 348 348 349 349 348 348 347 347 348 348 349 349 350 350 351 351 350 350 349 349 350 350 351 351 352 352 353 353 352 352 351 351 352 352 353 353 354 354 355 355 354 354 353 353 354 354 355 355 356 356 357 357 356 356 355 355 356 356 357 357 259 259 358 358 259 259 357 357 259 259 358 358 260 260 218 218 216 216 359 359 360 360 359 359 216 216 359 359 360 360 361 361 362 362 361 361 360 360 361 361 362 362 363 363 364 364 363 363 362 362 363 363 364 364 324 324 365 365 324 324 364 364 324 324 365 365 325 325</p>
        </triangles>
      </mesh>
    </geometry>
  </library_geometries>
  <library_materials>
    <material id="05f793d55c194d42bfa2fa746982bdcf" name="defaultmaterial">
      <instance_effect url="#61c000ad798041a9bfc43f471c15fc02"/>
    </material>
  </library_materials>
  <library_visual_scenes>
    <visual_scene id="scene">
      <node id="node0" name="node0">
        <instance_geometry url="#a3988db2910e432d8ab762e4036f21ce">
          <bind_material>
            <technique_common>
              <instance_material symbol="material0" target="#05f793d55c194d42bfa2fa746982bdcf"/>
            </technique_common>
          </bind_material>
        </instance_geometry>
      </node>
    </visual_scene>
  </library_visual_scenes>
  <scene>
    <instance_visual_scene url="#scene"/>
  </scene>
</COLLADA>
