<COLLADA xmlns="http://www.collada.org/2005/11/COLLADASchema" version="1.4.1">
  <asset>
    <created>2026-09-27T18:30:25.064582</created>
    <modified>2026-09-27T18:30:25.064582</modified>
    <up_axis>Y_UP</up_axis>
  </asset>
  <library_effects>
    <effect id="6e6d6480c7f5405a95bb74de03c7ffcc" name="6e6d6480c7f5405a95bb74de03c7ffcc">
      <profile_COMMON>
        <technique sid="common">
          <phong>
            <emission>
              <color>0.0 0.0 0.0 1.0</color>
            </emission>
            <ambient>
              <color>0.0 0.0 0.0 1.0</color>
            </ambient>
            <diffuse>
              <color>0.8941176470588236 0.8941176470588236 0.8941176470588236 1.0</color>
            </diffuse>
            <specular>
              <color>0.0 0.0 0.0 1.0</color>
            </specular>
            <shininess>
              <float>0.0</float>
            </shininess>
            <reflective>
              <color>0.0 0.0 0.0 1.0</color>
            </reflective>
            <reflectivity>
              <float>0.0</float>
            </reflectivity>
            <transparent>
              <color>0.0 0.0 0.0 1.0</color>
            </transparent>
            <transparency>
              <float>1.0</float>
            </transparency>
          </phong>
        </technique>
        <extra>
          <technique profile="GOOGLEEARTH">
            <double_sided>0</double_sided>
          </technique>
        </extra>
      </profile_COMMON>
    </effect>
  </library_effects>
  <library_geometries>
    <geometry id="620389f827254b9e8ad0015df8d3920c" name="268e189d75804e8d9297d74d983bc73d">
      <mesh>
        <source id="verts-array">
          <float_array count="1224" id="verts-array-array">-0.01787422 0.02711637 -0.004470048 -0.01785255 0.02713768 -0.004392202 0.004911852 0.0046103 -0.005950311 -0.01857987 0.02643499 -0.005669243 -0.01848065 0.02653025 -0.005558883 0.004573183 0.004283063 -0.006549129 -0.01897913 0.02615946 0.005498817 -0.01903571 0.026106 0.005529205 0.004283051 0.004130845 0.006735947 -0.01810507 0.02698056 0.004517951 -0.01818573 0.02690523 0.004655486 0.004719424 0.004540952 0.006265039 -0.02620056 0.01928678 0.004038717 -0.02622223 0.01926547 0.003960872 -0.004911826 -0.004610019 0.005949853 -0.02549492 0.01996815 0.005237912 -0.02559413 0.01987289 0.005127552 -0.004573158 -0.004282781 0.00654867 -0.02509565 0.02024368 -0.005930147 -0.02503907 0.02029715 -0.005960535 -0.004283026 -0.004130564 -0.006736406 -0.02596971 0.01942259 -0.004949281 -0.02588905 0.01949792 -0.005086817 -0.004719398 -0.004540671 -0.006265497 -0.004219052 -0.004070274 -0.006787498 -0.02488337 0.02044426 -0.006044155 -0.004097972 -0.003955781 -0.006842673 -0.02474374 0.0205764 -0.006096854 -0.003920365 -0.003787836 -0.006923616 -0.02466401 0.02065184 -0.006126946 -0.003886467 -0.003755686 -0.006928715 -0.02446696 0.02083859 -0.006171652 -0.003625367 -0.003508051 -0.006967956 -0.004704186 -0.004526496 -0.00629503 -0.02582648 0.01955636 -0.005193524 -0.004587587 -0.004417087 -0.006439382 -0.02566547 0.01970723 -0.005416194 -0.02563318 0.01973756 -0.005452427 -0.004465194 -0.004302241 -0.006590905 -0.02548882 0.01987317 -0.005614434 -0.004447778 -0.004285828 -0.006604818 -0.02534152 0.02001185 -0.005747297 -0.02529803 0.0200528 -0.005786519 -0.02633893 0.01908246 -0.003810174 -0.005003411 -0.004804001 -0.005572713 -0.02637522 0.01905087 -0.003500487 -0.005008029 -0.00480825 -0.005557822 -0.02637609 0.01905026 -0.003478371 -0.00505434 -0.004849571 -0.005270696 -0.02638785 0.01904188 -0.00317717 -0.02632983 0.01909068 -0.003856622 -0.02627952 0.01913608 -0.004113125 -0.004923145 -0.004730162 -0.005831199 -0.02623807 0.01917408 -0.004261144 -0.004892786 -0.004702234 -0.005928943 -0.0261975 0.01921127 -0.004406066 -0.004826717 -0.004640671 -0.00605719 -0.02609557 0.01930553 -0.004681283 -0.02609391 0.01930706 -0.004685727 -0.004948464 -0.004645635 0.00586195 -0.02628187 0.01920683 0.003746677 -0.004987698 -0.004684448 0.005695313 -0.02631919 0.0191696 0.003554434 -0.005045255 -0.004741387 0.005450881 -0.0263405 0.01914834 0.003444677 -0.005048735 -0.004745126 0.005404164 -0.02637166 0.01911623 0.003173193 -0.00507552 -0.004773908 0.005044316 -0.004594475 -0.004303222 0.006527879 -0.0256711 0.01979899 0.005041935 -0.0046984 -0.004403418 0.006367993 -0.02583153 0.01964456 0.004821299 -0.0258576 0.01961939 0.004777001 -0.004807488 -0.004508591 0.006200162 -0.02597415 0.01950685 0.004578947 -0.004817465 -0.00451829 0.006176231 -0.02606955 0.01941436 0.004376637 -0.02609771 0.01938705 0.004316908 -0.0246713 0.02075511 0.005739847 -0.004072631 -0.00380377 0.006935939 -0.02444698 0.02096862 0.005787917 -0.004061863 -0.003793485 0.006942214 -0.02443095 0.02098386 0.005788965 -0.003853962 -0.003595438 0.007004248 -0.02421262 0.02119137 0.005803259 -0.02470492 0.02072306 0.005727584 -0.02489059 0.02054607 0.005659844 -0.004259548 -0.003982322 0.006826893 -0.02499766 0.02044386 0.005603631 -0.004330228 -0.004049839 0.006785648 -0.02510248 0.02034378 0.005548598 -0.004422799 -0.004138604 0.006695348 -0.02530139 0.02015356 0.005409778 -0.0253046 0.02015049 0.005407527 -0.02637601 0.01911174 0.003135273 -0.02638785 0.01909759 0.002822571 -0.00507552 -0.004845552 -0.002671412 -0.02638785 0.01905621 -0.001634696 -0.00507552 -0.004862343 -0.004479684 -0.02638785 0.01904532 -0.002807486 -0.00507552 -0.004866236 -0.004898996 -0.02638785 0.01904231 -0.003131582 -0.00507552 -0.004866759 -0.004955253 -0.005064034 -0.00485822 -0.005210573 0.004219078 0.004070556 0.006787039 -0.01919141 0.02595889 0.005612824 0.004097997 0.003956062 0.006842215 -0.01933104 0.02582675 0.005665523 0.00392039 0.003788117 0.006923158 -0.01941077 0.02575131 0.005695615 0.003886493 0.003755968 0.006928256 -0.01960782 0.02556455 0.005740321 0.003625393 0.003508332 0.006967497 0.004704212 0.004526777 0.006294572 -0.0182483 0.02684678 0.004762193 0.004587612 0.004417368 0.006438924 -0.01840931 0.02669592 0.004984864 -0.0184416 0.02666559 0.005021097 0.004465219 0.004302523 0.006590447 -0.01858596 0.02652998 0.005183103 0.004447803 0.004286109 0.00660436 -0.01873326 0.02639129 0.005315966 -0.01877675 0.02635035 0.005355188 -0.01773585 0.02732068 0.003378843 0.005003436 0.004804282 0.005572254 -0.01769956 0.02735228 0.003069157 0.005008055 0.004808531 0.005557364 -0.01769869 0.02735289 0.00304704 0.005054365 0.004849852 0.005270238 -0.01768693 0.02736126 0.002745839 -0.01774495 0.02731246 0.003425292 -0.01779526 0.02726706 0.003681794 0.00492317 0.004730444 0.005830741 -0.01783671 0.02722907 0.003829813 0.004892811 0.004702515 0.005928485 -0.01787728 0.02719188 0.003974735 0.004826742 0.004640952 0.006056732 -0.01797921 0.02709762 0.004249952 -0.01798087 0.02709609 0.004254397 0.00494849 0.004645917 -0.005862408 -0.01779291 0.02719631 -0.004178008 0.004987724 0.004684729 -0.005695771 -0.01775559 0.02723354 -0.003985765 0.00504528 0.004741668 -0.005451339 -0.01773428 0.0272548 -0.003876008 0.00504876 0.004745408 -0.005404622 -0.01770312 0.02728692 -0.003604524 0.005075545 0.004774189 -0.005044774 0.0045945 0.004303504 -0.006528338 -0.01840368 0.02660416 -0.005473265 0.004698425 0.004403699 -0.006368451 -0.01824325 0.02675859 -0.00525263 -0.01821718 0.02678376 -0.005208331 0.004807513 0.004508873 -0.00620062 -0.01810063 0.0268963 -0.005010278 0.00481749 0.004518571 -0.006176689 -0.01800524 0.02698879 -0.004807968 -0.01797707 0.02701609 -0.004748239 -0.01940348 0.02564804 -0.006171178 0.004072656 0.003804051 -0.006936398 -0.0196278 0.02543452 -0.006219247 0.004061888 0.003793766 -0.006942672 -0.01964383 0.02541929 -0.006220296 0.003853987 0.003595719 -0.007004706 -0.01986216 0.02521178 -0.00623459 -0.01936986 0.02568009 -0.006158915 -0.01918419 0.02585707 -0.006091175 0.004259573 0.003982604 -0.006827351 -0.01907712 0.02595929 -0.006034962 0.004330254 0.004050121 -0.006786106 -0.0189723 0.02605936 -0.005979929 0.004422824 0.004138885 -0.006695806 -0.01877339 0.02624958 -0.005841109 -0.01877018 0.02625266 -0.005838857 -0.01769877 0.0272914 -0.003566604 -0.01768693 0.02730555 -0.003253902 0.005075545 0.004845834 0.002670953 -0.01768693 0.02734694 0.001203366 0.005075545 0.004862624 0.004479226 -0.01768693 0.02735783 0.002376155 0.005075545 0.004866518 0.004898537 -0.01768693 0.02736084 0.002700251 0.005075545 0.00486704 0.004954795 0.00506406 0.004858502 0.005210115 -0.01963534 0.02553847 0.005746563 -0.01986216 0.0253232 0.005764893 -0.001969337 -0.001805249 0.007016837 -0.02309416 0.02225362 0.005793396 -0.003280529 -0.00305055 0.0070284 -0.02394456 0.02144596 0.005800895 -0.003584575 -0.003339317 0.007031081 -0.02417956 0.02122276 0.005802968 -0.003625367 -0.00337806 0.007031441 -0.003810429 -0.003553968 0.007017234 -0.02443944 0.02086468 -0.006177894 -0.02421262 0.02107995 -0.006196224 0.001969363 0.00180553 -0.007017295 -0.02098062 0.02414953 -0.006224726 0.003280554 0.003050831 -0.007028858 -0.02013022 0.02495719 -0.006232226 0.0035846 0.003339598 -0.007031539 -0.01989522 0.02518039 -0.006234298 0.003625393 0.003378341 -0.007031899 0.003810454 0.003554249 -0.007017692 -0.02510248 0.02034378 0.005548598 -0.02499766 0.02044386 0.005603631 -0.02637166 0.01911623 0.003173193 -0.02489059 0.02054607 0.005659844 -0.02470492 0.02072306 0.005727584 -0.02637601 0.01911174 0.003135273 -0.01769869 0.02735289 0.00304704 -0.01940348 0.02564804 -0.006171178 -0.0196278 0.02543452 -0.006219247 -0.01964383 0.02541929 -0.006220296 -0.01986216 0.02521178 -0.00623459 -0.01989522 0.02518039 -0.006234298 -0.02637522 0.01905087 -0.003500487 -0.02637609 0.01905026 -0.003478371 -0.02446696 0.02083859 -0.006171652 -0.01787728 0.02719188 0.003974735 -0.01783671 0.02722907 0.003829813 -0.02638785 0.01909759 0.002822571 -0.01779526 0.02726706 0.003681794 -0.01774495 0.02731246 0.003425292 -0.0189723 0.02605936 -0.005979929 -0.01907712 0.02595929 -0.006034962 -0.01775559 0.02723354 -0.003985765 -0.02466401 0.02065184 -0.006126946 -0.02474374 0.0205764 -0.006096854 -0.02632983 0.01909068 -0.003856622 -0.0246713 0.02075511 0.005739847 -0.02444698 0.02096862 0.005787917 -0.02443095 0.02098386 0.005788965 -0.02421262 0.02119137 0.005803259 -0.02417956 0.02122276 0.005802968 -0.01810507 0.02698056 0.004517951 -0.01798087 0.02709609 0.004254397 -0.01797921 0.02709762 0.004249952 -0.01773585 0.02732068 0.003378843 -0.01769956 0.02735228 0.003069157 -0.01936986 0.02568009 -0.006158915 -0.01768693 0.02736126 0.002745839 -0.01768693 0.02736084 0.002700251 -0.01918419 0.02585707 -0.006091175 -0.01773428 0.0272548 -0.003876008 -0.0261975 0.01921127 -0.004406066 -0.02623807 0.01917408 -0.004261144 -0.02503907 0.02029715 -0.005960535 -0.02633893 0.01908246 -0.003810174 -0.02638785 0.01904188 -0.00317717 -0.02638785 0.01904231 -0.003131582 -0.02638785 0.01904532 -0.002807486 -0.02631919 0.0191696 0.003554434 -0.02606955 0.01941436 0.004376637 -0.0263405 0.01914834 0.003444677 -0.02597415 0.01950685 0.004578947 -0.0258576 0.01961939 0.004777001 -0.02583153 0.01964456 0.004821299 -0.02549492 0.01996815 0.005237912 -0.0253046 0.02015049 0.005407527 -0.02530139 0.02015356 0.005409778 -0.02394456 0.02144596 0.005800895 -0.02309416 0.02225362 0.005793396 -0.01986216 0.0253232 0.005764893 -0.01941077 0.02575131 0.005695615 -0.01933104 0.02582675 0.005665523 -0.01919141 0.02595889 0.005612824 -0.01903571 0.026106 0.005529205 -0.01768693 0.02735783 0.002376155 -0.01768693 0.02734694 0.001203366 -0.01768693 0.02730555 -0.003253902 -0.01800524 0.02698879 -0.004807968 -0.01810063 0.0268963 -0.005010278 -0.01821718 0.02678376 -0.005208331 -0.01824325 0.02675859 -0.00525263 -0.01840368 0.02660416 -0.005473265 -0.01848065 0.02653025 -0.005558883 -0.01857987 0.02643499 -0.005669243 -0.02013022 0.02495719 -0.006232226 -0.02098062 0.02414953 -0.006224726 -0.02421262 0.02107995 -0.006196224 -0.02509565 0.02024368 -0.005930147 -0.02529803 0.0200528 -0.005786519 -0.02534152 0.02001185 -0.005747297 -0.02563318 0.01973756 -0.005452427 -0.02566547 0.01970723 -0.005416194 -0.02488337 0.02044426 -0.006044155 -0.02627952 0.01913608 -0.004113125 -0.02443944 0.02086468 -0.006177894 -0.02638785 0.01905621 -0.001634696 -0.02628187 0.01920683 0.003746677 -0.02622223 0.01926547 0.003960872 -0.02620056 0.01928678 0.004038717 -0.02609771 0.01938705 0.004316908 -0.0256711 0.01979899 0.005041935 -0.02559413 0.01987289 0.005127552 -0.01963534 0.02553847 0.005746563 -0.01960782 0.02556455 0.005740321 -0.01769877 0.0272914 -0.003566604 -0.01770312 0.02728692 -0.003604524 -0.01779291 0.02719631 -0.004178008 -0.01785255 0.02713768 -0.004392202 -0.01787422 0.02711637 -0.004470048 -0.01797707 0.02701609 -0.004748239 -0.01877018 0.02625266 -0.005838857 -0.01877339 0.02624958 -0.005841109 -0.02548882 0.01987317 -0.005614434 -0.02582648 0.01955636 -0.005193524 -0.02588905 0.01949792 -0.005086817 -0.02596971 0.01942259 -0.004949281 -0.01897913 0.02615946 0.005498817 -0.01877675 0.02635035 0.005355188 -0.01873326 0.02639129 0.005315966 -0.01858596 0.02652998 0.005183103 -0.0184416 0.02666559 0.005021097 -0.01840931 0.02669592 0.004984864 -0.02609391 0.01930706 -0.004685727 -0.02609557 0.01930553 -0.004681283 -0.0182483 0.02684678 0.004762193 -0.01818573 0.02690523 0.004655486 0.004072656 0.003804051 -0.006936398 0.004259573 0.003982604 -0.006827351 0.005075545 0.004845834 0.002670953 -0.005045255 -0.004741387 0.005450881 -0.005048735 -0.004745126 0.005404164 -0.004072631 -0.00380377 0.006935939 -0.005008029 -0.00480825 -0.005557822 -0.005003411 -0.004804001 -0.005572713 -0.004923145 -0.004730162 -0.005831199 0.004061888 0.003793766 -0.006942672 -0.00507552 -0.004773908 0.005044316 -0.00507552 -0.004845552 -0.002671412 -0.004061863 -0.003793485 0.006942214 -0.004465194 -0.004302241 -0.006590905 -0.004447778 -0.004285828 -0.006604818 -0.003625367 -0.003508051 -0.006967956 0.001969363 0.00180553 -0.007017295 0.004826742 0.004640952 0.006056732 0.004892811 0.004702515 0.005928485 0.00492317 0.004730444 0.005830741 0.004719424 0.004540952 0.006265039 0.004704212 0.004526777 0.006294572 0.004587612 0.004417368 0.006438924 -0.004259548 -0.003982322 0.006826893 -0.004330228 -0.004049839 0.006785648 -0.004422799 -0.004138604 0.006695348 0.004987724 0.004684729 -0.005695771 0.00504528 0.004741668 -0.005451339 0.00504876 0.004745408 -0.005404622 0.005075545 0.004862624 0.004479226 0.005075545 0.004866518 0.004898537 -0.00507552 -0.004862343 -0.004479684 -0.00507552 -0.004866236 -0.004898996 -0.00507552 -0.004866759 -0.004955253 0.004465219 0.004302523 0.006590447 0.004447803 0.004286109 0.00660436 0.004283051 0.004130845 0.006735947 -0.004573158 -0.004282781 0.00654867 -0.004594475 -0.004303222 0.006527879 -0.0046984 -0.004403418 0.006367993 -0.004892786 -0.004702234 -0.005928943 -0.004826717 -0.004640671 -0.00605719 -0.004719398 -0.004540671 -0.006265497 0.004698425 0.004403699 -0.006368451 0.0045945 0.004303504 -0.006528338 0.004573183 0.004283063 -0.006549129 0.004807513 0.004508873 -0.00620062 0.00481749 0.004518571 -0.006176689 0.004911852 0.0046103 -0.005950311 0.00494849 0.004645917 -0.005862408 0.005075545 0.004774189 -0.005044774 -0.005064034 -0.00485822 -0.005210573 -0.00505434 -0.004849571 -0.005270696 0.004219078 0.004070556 0.006787039 0.004097997 0.003956062 0.006842215 0.00392039 0.003788117 0.006923158 0.003886493 0.003755968 0.006928256 0.003625393 0.003508332 0.006967497 -0.001969337 -0.001805249 0.007016837 -0.004807488 -0.004508591 0.006200162 -0.004817465 -0.00451829 0.006176231 -0.004911826 -0.004610019 0.005949853 -0.004948464 -0.004645635 0.00586195 -0.004987698 -0.004684448 0.005695313 -0.004704186 -0.004526496 -0.00629503 -0.004587587 -0.004417087 -0.006439382 -0.004283026 -0.004130564 -0.006736406 -0.004219052 -0.004070274 -0.006787498 -0.004097972 -0.003955781 -0.006842673 -0.003920365 -0.003787836 -0.006923616 -0.003886467 -0.003755686 -0.006928715 0.003280554 0.003050831 -0.007028858 0.0035846 0.003339598 -0.007031539 0.003625393 0.003378341 -0.007031899 0.004330254 0.004050121 -0.006786106 0.004422824 0.004138885 -0.006695806 -0.003280529 -0.00305055 0.0070284 -0.003584575 -0.003339317 0.007031081 -0.003625367 -0.00337806 0.007031441 0.003810454 0.003554249 -0.007017692 0.003853987 0.003595719 -0.007004706 0.005075545 0.00486704 0.004954795 0.00506406 0.004858502 0.005210115 0.005054365 0.004849852 0.005270238 0.005008055 0.004808531 0.005557364 0.005003436 0.004804282 0.005572254 -0.003810429 -0.003553968 0.007017234 -0.003853962 -0.003595438 0.007004248</float_array>
          <technique_common>
            <accessor count="408" source="#verts-array-array" stride="3">
              <param type="float" name="X"/>
              <param type="float" name="Y"/>
              <param type="float" name="Z"/>
            </accessor>
          </technique_common>
        </source>
        <source id="normals-array">
          <float_array count="1224" id="normals-array-array">0.6271485 0.66195 -0.4104959 0.6423572 0.674624 -0.3636753 0.5910572 0.6314385 -0.501933 0.3880684 0.4378197 -0.8109974 0.4176582 0.4675302 -0.7790874 0.382074 0.4323396 -0.8167631 0.2581806 0.323757 0.910233 0.2252499 0.2904556 0.9299989 0.3223761 0.3889116 0.8630304 0.5467387 0.6014687 0.5825051 0.5227488 0.5803806 0.6244133 0.5508226 0.6055394 0.5743836 -0.6971302 -0.5882719 0.4098118 -0.7101355 -0.6032656 0.3630127 -0.6656507 -0.552905 0.5012038 -0.4647148 -0.3571248 0.8102481 -0.4956117 -0.3854591 0.7783253 -0.4589871 -0.3513639 0.8160112 -0.3281623 -0.2500789 -0.9109172 -0.2930282 -0.2190972 -0.9306615 -0.3969695 -0.3103781 -0.8637596 -0.623385 -0.5207738 -0.5832544 -0.6007024 -0.4983095 -0.6251754 -0.6277356 -0.5245637 -0.5751355 -0.3299187 -0.2512494 -0.9099601 -0.2547916 -0.1858073 -0.9489767 -0.255707 -0.1865765 -0.9485795 -0.2181612 -0.1540216 -0.963682 -0.1812002 -0.1221129 -0.9758355 -0.1785676 -0.1197817 -0.9766094 -0.09974644 -0.05256774 -0.9936233 -0.1404385 -0.0875739 -0.9862088 -0.06195559 -0.02084094 -0.9978613 -0.5777196 -0.476568 -0.6626635 -0.5761634 -0.475164 -0.6650225 -0.5208798 -0.4232443 -0.7413154 -0.5223568 -0.4250394 -0.7392461 -0.4936423 -0.3982864 -0.7731011 -0.4618701 -0.3693445 -0.8063874 -0.462958 -0.3701013 -0.805416 -0.3971359 -0.3107493 -0.8635496 -0.4312448 -0.3416556 -0.8350446 -0.3978474 -0.3118331 -0.8628312 -0.7376814 -0.6439264 -0.2029408 -0.7019207 -0.597795 -0.3872318 -0.7454842 -0.6592132 -0.09844384 -0.7225419 -0.6207664 -0.3042734 -0.746654 -0.6634744 -0.04805693 -0.7377324 -0.6413531 -0.2107536 -0.7469392 -0.6645978 -0.01978713 -0.7303711 -0.6335308 -0.2553366 -0.7210365 -0.6224486 -0.3044079 -0.7003259 -0.5988319 -0.3885152 -0.7091957 -0.6091405 -0.3549497 -0.6675577 -0.5636347 -0.4865003 -0.6959728 -0.5949038 -0.4021335 -0.6283691 -0.5241674 -0.574805 -0.6795933 -0.5784332 -0.4511851 -0.662729 -0.5611488 -0.4958854 -0.6966883 -0.5873439 0.411889 -0.7217635 -0.6176387 0.3123777 -0.7215289 -0.6173082 0.3135706 -0.7307783 -0.6295213 0.2639432 -0.7378348 -0.6397617 0.2151853 -0.7382993 -0.6403976 0.2116719 -0.7464404 -0.6565851 0.1082715 -0.7430856 -0.6493254 0.1618652 -0.747238 -0.6619285 0.05904234 -0.5227757 -0.4112942 0.7466878 -0.5244505 -0.4129566 0.7445928 -0.5794757 -0.4658072 0.6687537 -0.577782 -0.4645886 0.6710629 -0.6020451 -0.4882053 0.6318206 -0.6255215 -0.5118298 0.5888575 -0.6249558 -0.511013 0.5901661 -0.6653935 -0.5528723 0.5015811 -0.6455466 -0.5323673 0.5475898 -0.6646728 -0.5525908 0.5028453 -0.1807509 -0.1039717 0.9780179 -0.3209881 -0.2238334 0.9202528 -0.100672 -0.03660554 0.994246 -0.2589195 -0.168748 0.951044 -0.06236145 -0.003799707 0.9980464 -0.1877435 -0.1079354 0.9762696 -0.04131542 0.01508461 0.9990323 -0.2206369 -0.1380338 0.9655392 -0.2574751 -0.1704861 0.9511262 -0.3206575 -0.2260632 0.9198229 -0.2952942 -0.204042 0.9333639 -0.3939521 -0.2911436 0.8718011 -0.3304649 -0.2355131 0.913962 -0.4592415 -0.350609 0.8161927 -0.3666019 -0.2686843 0.8907367 -0.3997346 -0.2986978 0.8665979 -0.7462194 -0.6567696 0.1086757 -0.747039 -0.6640474 0.03120601 -0.7462326 -0.6656566 0.006180935 -0.7462326 -0.6656566 0.006180935 -0.7462326 -0.6656566 0.006180935 -0.7462326 -0.6656566 0.006180935 -0.7462326 -0.6656566 0.006180935 -0.7462326 -0.6656566 0.006180935 -0.7471828 -0.6641093 -0.02601242 -0.7448971 -0.6529345 -0.137131 0.2594488 0.3254416 0.9092712 0.1898677 0.2541606 0.9483421 0.1906866 0.2550313 0.9479439 0.1561037 0.2193571 0.9630753 0.1222236 0.1842047 0.9752589 0.1197529 0.181703 0.9760345 0.04841616 0.1066093 0.9931215 0.0855376 0.1453746 0.9856721 0.01474837 0.07054168 0.9973998 0.4995066 0.5589123 0.6618989 0.4980025 0.5574534 0.6642584 0.442601 0.5056579 0.7405501 0.4444889 0.5070204 0.7384849 0.4159806 0.4800503 0.7723418 0.3851342 0.4501336 0.8056372 0.385955 0.4511716 0.8046632 0.3227573 0.3890567 0.8628225 0.3556412 0.4212526 0.8343055 0.3238829 0.3897044 0.8621081 0.6791322 0.7055682 0.2023684 0.6295144 0.6740259 0.3865239 0.6957687 0.7115548 0.09795782 0.654285 0.6926287 0.3036061 0.7005515 0.7120121 0.04760623 0.6764926 0.7058277 0.2101549 0.7019501 0.7119633 0.01934732 0.6678886 0.6993137 0.2547258 0.6558861 0.6910402 0.303771 0.6304558 0.6723925 0.3878322 0.6415181 0.6803929 0.3542881 0.5927117 0.6424342 0.4857686 0.6261828 0.6683802 0.4014512 0.5504625 0.6061891 0.5740433 0.6084368 0.6533482 0.4504895 0.5898936 0.6378314 0.4951734 0.6262184 0.6615361 -0.4125779 0.6568396 0.685992 -0.3130124 0.6565085 0.6857631 -0.3142063 0.6687207 0.6948568 -0.2645499 0.6788582 0.7018535 -0.2157619 0.6794846 0.702319 -0.2122469 0.6951101 0.7106267 -0.1087733 0.6881847 0.7071262 -0.1624019 0.7000308 0.7116292 -0.05950383 0.4445627 0.4936384 -0.7474524 0.4462896 0.495246 -0.7453569 0.5011969 0.5482208 -0.669519 0.4999141 0.5465696 -0.6718241 0.5243834 0.5699691 -0.6325798 0.5487856 0.592619 -0.5896076 0.5479529 0.5920832 -0.5909189 0.5910149 0.6311797 -0.5023082 0.569943 0.6119644 -0.5483289 0.5907084 0.6304621 -0.5035684 0.1222017 0.1656135 -0.9785903 0.2485818 0.3000643 -0.9209606 0.05095649 0.0889471 -0.994732 0.1906626 0.2406103 -0.9517113 0.01625893 0.05233739 -0.9984971 0.1265037 0.17241 -0.9768683 -0.003673655 0.03228081 -0.9994721 0.1581544 0.2038167 -0.9661501 0.1923247 0.2390777 -0.9517631 0.2507875 0.2996238 -0.920506 0.2276166 0.2752944 -0.9340255 0.3191061 0.3699431 -0.8725328 0.2606749 0.3089894 -0.9146443 0.3813349 0.4326307 -0.8169543 0.2954453 0.3435994 -0.8914323 0.3268993 0.3753803 -0.8673099 0.6952867 0.7103925 -0.1091736 0.7018784 0.7115934 -0.0316475 0.7032118 0.7109497 -0.006601504 0.7032118 0.7109497 -0.006601504 0.7032118 0.7109497 -0.006601504 0.7032118 0.7109497 -0.006601504 0.7032118 0.7109497 -0.006601504 0.7032118 0.7109497 -0.006601504 0.7014171 0.7122924 0.02556501 0.6891096 0.7116687 0.1365856 0.0489068 0.1066769 0.9930902 -0.004425166 0.05029297 0.9987247 -0.0215104 0.03192713 0.9992587 -0.0215104 0.03192713 0.9992587 -0.0215104 0.03192713 0.9992587 -0.0215104 0.03192713 0.9992587 -0.0215104 0.03192713 0.9992587 -0.0215104 0.03192713 0.9992587 -0.04621405 0.01120792 0.9988687 -0.1317157 -0.06005579 0.9894667 -0.09983943 -0.05305393 -0.9935881 -0.04073543 -0.002746954 -0.9991662 -0.0215104 0.01336605 -0.9996793 -0.0215104 0.01336605 -0.9996793 -0.0215104 0.01336605 -0.9996793 -0.0215104 0.01336605 -0.9996793 -0.0215104 0.01336605 -0.9996793 -0.0215104 0.01336605 -0.9996793 0.0004483552 0.03697516 -0.9993161 0.07592816 0.11879 -0.990012 -0.6886688 0.7250448 -0.006732383 -0.6886688 0.7250448 -0.006732383 -0.6886688 0.7250448 -0.006732383 -0.6886688 0.7250448 -0.006732383 -0.6886688 0.7250448 -0.006732383 -0.6886688 0.7250448 -0.006732383 -0.6886688 0.7250448 -0.006732383 -0.6886688 0.7250448 -0.006732383 -0.6886688 0.7250448 -0.006732383 -0.6886688 0.7250448 -0.006732383 -0.6886688 0.7250448 -0.006732383 -0.6886688 0.7250448 -0.006732383 -0.6886688 0.7250448 -0.006732383 -0.6886688 0.7250448 -0.006732383 -0.6886688 0.7250448 -0.006732383 -0.6886688 0.7250448 -0.006732383 -0.6886688 0.7250448 -0.006732383 -0.6886688 0.7250448 -0.006732383 -0.6886688 0.7250448 -0.006732383 -0.6886688 0.7250448 -0.006732383 -0.6886688 0.7250448 -0.006732383 -0.6886688 0.7250448 -0.006732383 -0.6886688 0.7250448 -0.006732383 -0.6886688 0.7250448 -0.006732383 -0.6886688 0.7250448 -0.006732383 -0.6886688 0.7250448 -0.006732383 -0.6886688 0.7250448 -0.006732383 -0.6886688 0.7250448 -0.006732383 -0.6886688 0.7250448 -0.006732383 -0.6886688 0.7250448 -0.006732383 -0.6886688 0.7250448 -0.006732383 -0.6886688 0.7250448 -0.006732383 -0.6886688 0.7250448 -0.006732383 -0.6886688 0.7250448 -0.006732383 -0.6886688 0.7250448 -0.006732383 -0.6886688 0.7250448 -0.006732383 -0.6886688 0.7250448 -0.006732383 -0.6886688 0.7250448 -0.006732383 -0.6886688 0.7250448 -0.006732383 -0.6886688 0.7250448 -0.006732383 -0.6886688 0.7250448 -0.006732383 -0.6886688 0.7250448 -0.006732383 -0.6886688 0.7250448 -0.006732383 -0.6886688 0.7250448 -0.006732383 -0.6886688 0.7250448 -0.006732383 -0.6886688 0.7250448 -0.006732383 -0.6886688 0.7250448 -0.006732383 -0.6886688 0.7250448 -0.006732383 -0.6886688 0.7250448 -0.006732383 -0.6886688 0.7250448 -0.006732383 -0.6886688 0.7250448 -0.006732383 -0.6886688 0.7250448 -0.006732383 -0.6886688 0.7250448 -0.006732383 -0.6886688 0.7250448 -0.006732383 -0.6886688 0.7250448 -0.006732383 -0.6886688 0.7250448 -0.006732383 -0.6886688 0.7250448 -0.006732383 -0.6886688 0.7250448 -0.006732383 -0.6886688 0.7250448 -0.006732383 -0.6886688 0.7250448 -0.006732383 -0.6886688 0.7250448 -0.006732383 -0.6886688 0.7250448 -0.006732383 -0.6886688 0.7250448 -0.006732383 -0.6886688 0.7250448 -0.006732383 -0.6886688 0.7250448 -0.006732383 -0.6886688 0.7250448 -0.006732383 -0.6886688 0.7250448 -0.006732383 -0.6886688 0.7250448 -0.006732383 -0.6886688 0.7250448 -0.006732383 -0.6886688 0.7250448 -0.006732383 -0.6886688 0.7250448 -0.006732383 -0.6886688 0.7250448 -0.006732383 -0.6886688 0.7250448 -0.006732383 -0.6886688 0.7250448 -0.006732383 -0.6886688 0.7250448 -0.006732383 -0.6886688 0.7250448 -0.006732383 -0.6886688 0.7250448 -0.006732383 -0.6886688 0.7250448 -0.006732383 -0.6886688 0.7250448 -0.006732383 -0.6886688 0.7250448 -0.006732383 -0.6886688 0.7250448 -0.006732383 -0.6886688 0.7250448 -0.006732383 -0.6886688 0.7250448 -0.006732383 -0.6886688 0.7250448 -0.006732383 -0.6886688 0.7250448 -0.006732383 -0.6886688 0.7250448 -0.006732383 -0.6886688 0.7250448 -0.006732383 -0.6886688 0.7250448 -0.006732383 -0.6886688 0.7250448 -0.006732383 -0.6886688 0.7250448 -0.006732383 -0.6886688 0.7250448 -0.006732383 -0.6886688 0.7250448 -0.006732383 -0.6886688 0.7250448 -0.006732383 -0.6886688 0.7250448 -0.006732383 -0.6886688 0.7250448 -0.006732383 -0.6886688 0.7250448 -0.006732383 -0.6886688 0.7250448 -0.006732383 -0.6886688 0.7250448 -0.006732383 -0.6886688 0.7250448 -0.006732383 -0.6886688 0.7250448 -0.006732383 -0.6886688 0.7250448 -0.006732383 -0.6886688 0.7250448 -0.006732383 -0.6886688 0.7250448 -0.006732383 -0.6886688 0.7250448 -0.006732383 -0.6886688 0.7250448 -0.006732383 -0.6886688 0.7250448 -0.006732383 -0.6886688 0.7250448 -0.006732383 -0.6886688 0.7250448 -0.006732383 -0.6886688 0.7250448 -0.006732383 -0.6886688 0.7250448 -0.006732383 -0.6886688 0.7250448 -0.006732383 -0.6886688 0.7250448 -0.006732383 -0.6886688 0.7250448 -0.006732383 -0.6886688 0.7250448 -0.006732383 -0.6886688 0.7250448 -0.006732383 -0.6886688 0.7250448 -0.006732383 0.6886688 -0.7250448 0.006732383 0.6886688 -0.7250448 0.006732383 0.6886688 -0.7250448 0.006732383 0.6886688 -0.7250448 0.006732383 0.6886688 -0.7250448 0.006732383 0.6886688 -0.7250448 0.006732383 0.6886688 -0.7250448 0.006732383 0.6886688 -0.7250448 0.006732383 0.6886688 -0.7250448 0.006732383 0.6886688 -0.7250448 0.006732383 0.6886688 -0.7250448 0.006732383 0.6886688 -0.7250448 0.006732383 0.6886688 -0.7250448 0.006732383 0.6886688 -0.7250448 0.006732383 0.6886688 -0.7250448 0.006732383 0.6886688 -0.7250448 0.006732383 0.6886688 -0.7250448 0.006732383 0.6886688 -0.7250448 0.006732383 0.6886688 -0.7250448 0.006732383 0.6886688 -0.7250448 0.006732383 0.6886688 -0.7250448 0.006732383 0.6886688 -0.7250448 0.006732383 0.6886688 -0.7250448 0.006732383 0.6886688 -0.7250448 0.006732383 0.6886688 -0.7250448 0.006732383 0.6886688 -0.7250448 0.006732383 0.6886688 -0.7250448 0.006732383 0.6886688 -0.7250448 0.006732383 0.6886688 -0.7250448 0.006732383 0.6886688 -0.7250448 0.006732383 0.6886688 -0.7250448 0.006732383 0.6886688 -0.7250448 0.006732383 0.6886688 -0.7250448 0.006732383 0.6886688 -0.7250448 0.006732383 0.6886688 -0.7250448 0.006732383 0.6886688 -0.7250448 0.006732383 0.6886688 -0.7250448 0.006732383 0.6886688 -0.7250448 0.006732383 0.6886688 -0.7250448 0.006732383 0.6886688 -0.7250448 0.006732383 0.6886688 -0.7250448 0.006732383 0.6886688 -0.7250448 0.006732383 0.6886688 -0.7250448 0.006732383 0.6886688 -0.7250448 0.006732383 0.6886688 -0.7250448 0.006732383 0.6886688 -0.7250448 0.006732383 0.6886688 -0.7250448 0.006732383 0.6886688 -0.7250448 0.006732383 0.6886688 -0.7250448 0.006732383 0.6886688 -0.7250448 0.006732383 0.6886688 -0.7250448 0.006732383 0.6886688 -0.7250448 0.006732383 0.6886688 -0.7250448 0.006732383 0.6886688 -0.7250448 0.006732383 0.6886688 -0.7250448 0.006732383 0.6886688 -0.7250448 0.006732383 0.6886688 -0.7250448 0.006732383 0.6886688 -0.7250448 0.006732383 0.6886688 -0.7250448 0.006732383 0.6886688 -0.7250448 0.006732383 0.6886688 -0.7250448 0.006732383 0.6886688 -0.7250448 0.006732383 0.6886688 -0.7250448 0.006732383 0.6886688 -0.7250448 0.006732383 0.6886688 -0.7250448 0.006732383 0.6886688 -0.7250448 0.006732383 0.6886688 -0.7250448 0.006732383 0.6886688 -0.7250448 0.006732383 0.6886688 -0.7250448 0.006732383 0.6886688 -0.7250448 0.006732383 0.6886688 -0.7250448 0.006732383 0.6886688 -0.7250448 0.006732383 0.6886688 -0.7250448 0.006732383 0.6886688 -0.7250448 0.006732383 0.6886688 -0.7250448 0.006732383 0.6886688 -0.7250448 0.006732383 0.6886688 -0.7250448 0.006732383 0.6886688 -0.7250448 0.006732383 0.6886688 -0.7250448 0.006732383 0.6886688 -0.7250448 0.006732383 0.6886688 -0.7250448 0.006732383 0.6886688 -0.7250448 0.006732383 0.6886688 -0.7250448 0.006732383 0.6886688 -0.7250448 0.006732383 0.6886688 -0.7250448 0.006732383 0.6886688 -0.7250448 0.006732383 0.6886688 -0.7250448 0.006732383 0.6886688 -0.7250448 0.006732383</float_array>
          <technique_common>
            <accessor count="408" source="#normals-array-array" stride="3">
              <param type="float" name="X"/>
              <param type="float" name="Y"/>
              <param type="float" name="Z"/>
            </accessor>
          </technique_common>
        </source>
        <vertices id="verts-array-vertices">
          <input semantic="POSITION" source="#verts-array"/>
        </vertices>
        <triangles count="404" material="material0">
          <input offset="0" semantic="VERTEX" source="#verts-array-vertices"/>
          <input offset="1" semantic="NORMAL" source="#normals-array"/>
          <p>0 0 1 1 2 2 3 3 4 4 5 5 6 6 7 7 8 8 9 9 10 10 11 11 12 12 13 13 14 14 15 15 16 16 17 17 18 18 19 19 20 20 21 21 22 22 23 23 20 20 19 19 24 24 25 25 24 24 19 19 24 24 25 25 26 26 27 27 26 26 25 25 26 26 27 27 28 28 29 29 28 28 27 27 28 28 29 29 30 30 31 31 30 30 29 29 30 30 31 31 32 32 23 23 22 22 33 33 34 34 33 33 22 22 33 33 34 34 35 35 34 34 36 36 35 35 37 37 35 35 36 36 35 35 37 37 38 38 39 39 38 38 37 37 38 38 39 39 40 40 41 41 40 40 39 39 40 40 41 41 20 20 42 42 20 20 41 41 20 20 42 42 18 18 43 43 44 44 45 45 46 46 45 45 44 44 45 45 46 46 47 47 48 48 47 47 46 46 47 47 48 48 49 49 43 43 50 50 44 44 51 51 44 44 50 50 44 44 51 51 52 52 53 53 52 52 51 51 52 52 53 53 54 54 55 55 54 54 53 53 54 54 55 55 56 56 57 57 56 56 55 55 56 56 57 57 23 23 58 58 23 23 57 57 23 23 58 58 21 21 14 14 13 13 59 59 60 60 59 59 13 13 59 59 60 60 61 61 62 62 61 61 60 60 61 61 62 62 63 63 64 64 63 63 62 62 63 63 64 64 65 65 66 66 65 65 64 64 65 65 66 66 67 67 17 17 16 16 68 68 69 69 68 68 16 16 68 68 69 69 70 70 69 69 71 71 70 70 72 72 70 70 71 71 70 70 72 72 73 73 74 74 73 73 72 72 73 73 74 74 75 75 76 76 75 75 74 74 75 75 76 76 14 14 77 77 14 14 76 76 14 14 77 77 12 12 78 78 79 79 80 80 81 81 80 80 79 79 80 80 81 81 82 82 83 83 82 82 81 81 82 82 83 83 84 84 78 78 85 85 79 79 86 86 79 79 85 85 79 79 86 86 87 87 88 88 87 87 86 86 87 87 88 88 89 89 90 90 89 89 88 88 89 89 90 90 91 91 92 92 91 91 90 90 91 91 92 92 17 17 93 93 17 17 92 92 17 17 93 93 15 15 66 66 94 94 67 67 95 95 67 67 94 94 67 67 95 95 96 96 97 97 96 96 95 95 96 96 97 97 98 98 99 99 98 98 97 97 98 98 99 99 100 100 101 101 100 100 99 99 100 100 101 101 102 102 49 49 102 102 101 101 102 102 49 49 103 103 48 48 103 103 49 49 8 8 7 7 104 104 105 105 104 104 7 7 104 104 105 105 106 106 107 107 106 106 105 105 106 106 107 107 108 108 109 109 108 108 107 107 108 108 109 109 110 110 111 111 110 110 109 109 110 110 111 111 112 112 11 11 10 10 113 113 114 114 113 113 10 10 113 113 114 114 115 115 114 114 116 116 115 115 117 117 115 115 116 116 115 115 117 117 118 118 119 119 118 118 117 117 118 118 119 119 120 120 121 121 120 120 119 119 120 120 121 121 8 8 122 122 8 8 121 121 8 8 122 122 6 6 123 123 124 124 125 125 126 126 125 125 124 124 125 125 126 126 127 127 128 128 127 127 126 126 127 127 128 128 129 129 123 123 130 130 124 124 131 131 124 124 130 130 124 124 131 131 132 132 133 133 132 132 131 131 132 132 133 133 134 134 135 135 134 134 133 133 134 134 135 135 136 136 137 137 136 136 135 135 136 136 137 137 11 11 138 138 11 11 137 137 11 11 138 138 9 9 2 2 1 1 139 139 140 140 139 139 1 1 139 139 140 140 141 141 142 142 141 141 140 140 141 141 142 142 143 143 144 144 143 143 142 142 143 143 144 144 145 145 146 146 145 145 144 144 145 145 146 146 147 147 5 5 4 4 148 148 149 149 148 148 4 4 148 148 149 149 150 150 149 149 151 151 150 150 152 152 150 150 151 151 150 150 152 152 153 153 154 154 153 153 152 152 153 153 154 154 155 155 156 156 155 155 154 154 155 155 156 156 2 2 157 157 2 2 156 156 2 2 157 157 0 0 158 158 159 159 160 160 161 161 160 160 159 159 160 160 161 161 162 162 163 163 162 162 161 161 162 162 163 163 164 164 158 158 165 165 159 159 166 166 159 159 165 165 159 159 166 166 167 167 168 168 167 167 166 166 167 167 168 168 169 169 170 170 169 169 168 168 169 169 170 170 171 171 172 172 171 171 170 170 171 171 172 172 5 5 173 173 5 5 172 172 5 5 173 173 3 3 146 146 174 174 147 147 175 175 147 147 174 174 147 147 175 175 176 176 177 177 176 176 175 175 176 176 177 177 178 178 179 179 178 178 177 177 178 178 179 179 180 180 181 181 180 180 179 179 180 180 181 181 182 182 129 129 182 182 181 181 182 182 129 129 183 183 128 128 183 183 129 129 111 111 184 184 112 112 185 185 112 112 184 184 112 112 185 185 186 186 187 187 186 186 185 185 186 186 187 187 188 188 189 189 188 188 187 187 188 188 189 189 190 190 191 191 190 190 189 189 190 190 191 191 192 192 84 84 192 192 191 191 192 192 84 84 193 193 83 83 193 193 84 84 31 31 194 194 32 32 195 195 32 32 194 194 32 32 195 195 196 196 197 197 196 196 195 195 196 196 197 197 198 198 199 199 198 198 197 197 198 198 199 199 200 200 201 201 200 200 199 199 200 200 201 201 202 202 164 164 202 202 201 201 202 202 164 164 203 203 163 163 203 203 164 164 204 204 205 205 206 206 205 205 207 207 206 206 208 208 206 206 207 207 206 206 208 208 209 209 210 210 211 211 212 212 212 212 213 213 210 210 214 214 210 210 213 213 210 210 214 214 215 215 216 216 217 217 218 218 219 219 220 220 221 221 222 222 221 221 220 220 221 221 222 222 223 223 224 224 225 225 226 226 227 227 228 228 229 229 209 209 208 208 221 221 230 230 221 221 208 208 221 221 230 230 231 231 231 231 232 232 221 221 233 233 221 221 232 232 221 221 233 233 234 234 235 235 236 236 221 221 237 237 221 221 236 236 221 221 237 237 219 219 223 223 238 238 221 221 239 239 221 221 238 238 221 221 239 239 210 210 211 211 210 210 240 240 241 241 240 240 210 210 240 240 241 241 242 242 225 225 243 243 226 226 240 240 226 226 243 243 226 226 240 240 244 244 245 245 246 246 247 247 227 227 229 229 218 218 248 248 218 218 229 229 218 218 248 248 216 216 217 217 249 249 218 218 250 250 218 218 249 249 218 218 250 250 251 251 252 252 253 253 254 254 206 206 254 254 253 253 253 253 255 255 206 206 256 256 206 206 255 255 206 206 256 256 257 257 258 258 259 259 206 206 260 260 206 206 259 259 206 206 260 260 204 204 234 234 261 261 221 221 262 262 221 221 261 261 221 221 262 262 263 263 264 264 265 265 221 221 266 266 221 221 265 265 221 221 266 266 267 267 242 242 268 268 240 240 269 269 240 240 268 268 240 240 269 269 270 270 271 271 272 272 226 226 273 273 226 226 272 272 226 226 273 273 274 274 274 274 275 275 226 226 276 276 226 226 275 275 226 226 276 276 277 277 215 215 278 278 210 210 279 279 210 210 278 278 210 210 279 279 221 221 280 280 221 221 279 279 281 281 282 282 283 283 247 247 284 284 285 285 228 228 286 286 229 229 247 247 229 229 286 286 229 229 247 247 287 287 246 246 287 287 247 247 280 280 288 288 221 221 218 218 221 221 288 288 221 221 218 218 289 289 251 251 289 289 218 218 252 252 290 290 291 291 252 252 291 291 253 253 292 292 253 253 291 291 253 253 292 292 293 293 257 257 294 294 206 206 295 295 206 206 294 294 206 206 295 295 258 258 263 263 296 296 221 221 297 297 221 221 296 296 221 221 297 297 264 264 270 270 298 298 240 240 299 299 240 240 298 298 240 240 299 299 244 244 226 226 300 300 301 301 226 226 301 301 271 271 302 302 271 271 301 301 271 271 302 302 303 303 277 277 304 304 226 226 305 305 226 226 304 304 226 226 305 305 224 224 281 281 283 283 247 247 306 306 247 247 283 283 247 247 306 306 284 284 285 285 307 307 247 247 308 308 247 247 307 307 247 247 308 308 309 309 267 267 310 310 221 221 311 311 221 221 310 310 221 221 311 311 312 312 312 312 313 313 221 221 314 314 221 221 313 313 221 221 314 314 315 315 309 309 316 316 247 247 317 317 247 247 316 316 247 247 317 317 245 245 315 315 318 318 221 221 319 319 221 221 318 318 221 221 319 319 235 235 320 320 321 321 322 322 323 323 324 324 325 325 326 326 327 327 322 322 328 328 322 322 327 327 320 320 322 322 329 329 324 324 330 330 325 325 331 331 325 325 330 330 325 325 331 331 332 332 333 333 334 334 322 322 335 335 336 336 322 322 337 337 331 331 338 338 339 339 338 338 331 331 337 337 340 340 331 331 341 341 331 331 340 340 331 331 341 341 342 342 343 343 344 344 345 345 346 346 347 347 348 348 322 322 349 349 331 331 350 350 331 331 349 349 331 331 351 351 322 322 352 352 322 322 351 351 322 322 352 352 353 353 342 342 354 354 331 331 355 355 331 331 354 354 331 331 355 355 356 356 357 357 358 358 359 359 328 328 360 360 322 322 361 361 322 322 360 360 322 322 361 361 362 362 363 363 322 322 364 364 365 365 364 364 322 322 363 363 366 366 322 322 367 367 322 322 366 366 322 322 367 367 368 368 368 368 369 369 322 322 346 346 322 322 369 369 322 322 346 346 370 370 348 348 370 370 346 346 353 353 371 371 322 322 372 372 322 322 371 371 322 322 372 372 326 326 356 356 373 373 331 331 374 374 331 331 373 373 331 331 374 374 375 375 375 375 376 376 331 331 377 377 331 331 376 376 331 331 377 377 378 378 359 359 379 379 325 325 380 380 325 325 379 379 325 325 380 380 381 381 381 381 382 382 325 325 383 383 325 325 382 382 325 325 383 383 323 323 362 362 384 384 322 322 385 385 322 322 384 384 322 322 385 385 333 333 334 334 386 386 322 322 387 387 322 322 386 386 322 322 387 387 388 388 388 388 389 389 322 322 390 390 322 322 389 389 322 322 390 390 335 335 336 336 391 391 322 322 392 392 322 322 391 391 322 322 392 392 393 393 321 321 394 394 322 322 395 395 322 322 394 394 322 322 395 395 365 365 378 378 396 396 331 331 397 397 331 331 396 396 331 331 397 397 398 398 357 357 359 359 345 345 325 325 345 345 359 359 345 345 325 325 343 343 393 393 399 399 322 322 400 400 322 322 399 399 322 322 400 400 329 329 350 350 401 401 331 331 402 402 331 331 401 401 331 331 402 402 403 403 403 403 404 404 331 331 405 405 331 331 404 404 331 331 405 405 339 339 398 398 406 406 331 331 407 407 331 331 406 406 331 331 407 407 332 332</p>
        </triangles>
      </mesh>
    </geometry>
  </library_geometries>
  <library_materials>
    <material id="14b7c237c1da4a658b04700fcad6a244" name="defaultmaterial">
      <instance_effect url="#6e6d6480c7f5405a95bb74de03c7ffcc"/>
    </material>
  </library_materials>
  <library_visual_scenes>
    <visual_scene id="scene">
      <node id="node0" name="node0">
        <instance_geometry url="#620389f827254b9e8ad0015df8d3920c">
          <bind_material>
            <technique_common>
              <instance_material symbol="material0" target="#14b7c237c1da4a658b04700fcad6a244"/>
            </technique_common>
          </bind_material>
        </instance_geometry>
      </node>
    </visual_scene>
  </library_visual_scenes>
  <scene>
    <instance_visual_scene url="#scene"/>
  </scene>
</COLLADA>
