<COLLADA xmlns="http://www.collada.org/2005/11/COLLADASchema" version="1.4.1">
  <asset>
    <created>2026-09-27T18:30:25.153594</created>
    <modified>2026-09-27T18:30:25.153594</modified>
    <up_axis>Y_UP</up_axis>
  </asset>
  <library_effects>
    <effect id="2bb2948b7c504d6f8e1b5ef3e329db95" name="2bb2948b7c504d6f8e1b5ef3e329db95">
      <profile_COMMON>
        <technique sid="common">
          <phong>
            <emission>
              <color>0.0 0.0 0.0 1.0</color>
            </emission>
            <ambient>
              <color>0.0 0.0 0.0 1.0</color>
            </ambient>
            <diffuse>
              <color>0.8941176470588236 0.8941176470588236 0.8941176470588236 1.0</color>
            </diffuse>
            <specular>
              <color>0.0 0.0 0.0 1.0</color>
            </specular>
            <shininess>
              <float>0.0</float>
            </shininess>
            <reflective>
              <color>0.0 0.0 0.0 1.0</color>
            </reflective>
            <reflectivity>
              <float>0.0</float>
            </reflectivity>
            <transparent>
              <color>0.0 0.0 0.0 1.0</color>
            </transparent>
            <transparency>
              <float>1.0</float>
            </transparency>
          </phong>
        </technique>
        <extra>
          <technique profile="GOOGLEEARTH">
            <double_sided>0</double_sided>
          </technique>
        </extra>
      </profile_COMMON>
    </effect>
  </library_effects>
  <library_geometries>
    <geometry id="0e783461129249628d991e12833749b8" name="25a06944b14040c2a99be76d1788638b">
      <mesh>
        <source id="verts-array">
          <float_array count="1512" id="verts-array-array">0.0001495741 0.005867259 0.006335135 -0.02186862 0.005437998 0.005705734 0.0001488958 0.00584113 0.006358069 -0.02186978 0.005393579 0.005740038 0.0001432535 0.005623307 0.006496277 -0.02187731 0.00510272 0.005927006 -0.02187858 0.005053465 0.005952955 0.0001382744 0.005431085 0.006618237 -0.02188522 0.004797233 0.00608792 0.0001365807 0.005365574 0.006646287 -0.02188887 0.004655846 0.006147415 0.0001292383 0.005081575 0.006767869 -0.02189346 0.00447849 0.006222045 -0.02189916 0.004257586 0.006293299 0.0001269842 0.004994387 0.0068052 -0.02190194 0.004149919 0.00632802 0.0001212809 0.004773437 0.006861814 -0.02190926 0.003866155 0.006393058 0.0001157329 0.0045585 0.006916892 -0.02191064 0.003812924 0.006405263 0.0001126158 0.004437559 0.006928056 -0.02191903 0.003487591 0.006450806 0.0001029751 0.004063497 0.00696257 -0.021832 0.006842873 0.003848539 -0.02183264 0.006818503 0.003907048 0.0001730184 0.006767144 0.005200781 -0.0218355 0.006709897 0.004167848 0.0001729906 0.006766091 0.005203691 -0.02183742 0.006636848 0.004307842 0.0001691582 0.006619666 0.005462361 -0.02183969 0.006550146 0.004473984 0.0001661477 0.006504646 0.005665538 -0.02184346 0.006405969 0.004700163 0.000165155 0.006466527 0.005711774 -0.02182537 0.007087117 0.002434301 -0.02182539 0.007087086 0.002512764 0.0001802064 0.00703393 0.003871416 0.0001802064 0.007034519 0.003934854 -0.02182574 0.007075587 0.002737601 0.0001797206 0.007018609 0.004253085 0.0001796585 0.007016578 0.004293806 -0.0218259 0.007070376 0.002839613 0.0001780987 0.006958805 0.004595335 -0.02182693 0.007032853 0.003114834 0.0001772844 0.006928646 0.004752742 -0.02182719 0.00702369 0.003182072 0.0001758026 0.006872548 0.004908369 -0.02182915 0.00695043 0.003507096 -0.02182923 0.006947646 0.003519432 -0.02184455 0.006364249 0.004765603 -0.02185002 0.006154255 0.005039725 0.0001603528 0.006282117 0.005935416 -0.02185078 0.0061251 0.005071617 0.0001575863 0.006175885 0.006064258 -0.02185608 0.005921112 0.00529486 0.0001552225 0.006084833 0.006144177 -0.02185929 0.005797842 0.00540838 -0.02186269 0.00566694 0.00552892 0.0001644857 0.006333 -0.005869165 -0.02184453 0.006275408 -0.004878498 0.0001650698 0.006355926 -0.005843027 -0.02184366 0.006309701 -0.004834064 0.0001685756 0.00649409 -0.005625131 -0.02183891 0.00649661 -0.004543107 -0.02183826 0.00652255 -0.004493836 0.0001716692 0.006616011 -0.005432844 -0.02183484 0.006657472 -0.004237518 0.0001723756 0.006644051 -0.005367312 -0.02183334 0.006716948 -0.004096084 0.0001754376 0.006765595 -0.005083218 -0.02183147 0.006791555 -0.003918669 -0.02182968 0.006862787 -0.003697691 0.0001763777 0.006802914 -0.004996001 -0.02182882 0.006897497 -0.003589989 0.0001777823 0.006859511 -0.004774977 -0.02182721 0.006962515 -0.00330613 0.0001791488 0.006914572 -0.004559969 -0.02182691 0.006974716 -0.003252881 0.0001794073 0.006925733 -0.004438987 -0.02182581 0.007020245 -0.00292744 0.0001802064 0.006960238 -0.004064802 -0.021892 0.004418821 -0.00628385 -0.0218905 0.00447731 -0.006259472 0.0001354995 0.005199016 -0.006769355 -0.02188381 0.004738024 -0.006150828 0.0001355741 0.005201925 -0.006768302 -0.02188023 0.004877973 -0.006077754 0.000142198 0.005460511 -0.006621827 -0.02187597 0.00504406 -0.005991023 0.0001474008 0.005663621 -0.006506768 -0.02187018 0.005270165 -0.005846796 0.0001485819 0.005709842 -0.006468635 -0.02192835 0.003005049 -0.006528184 -0.02192633 0.003083487 -0.006528152 0.0001013419 0.00387009 -0.007036237 0.0001029751 0.003933506 -0.007036826 -0.02192054 0.003308249 -0.006516648 0.0001111634 0.004251633 -0.007020909 0.0001122112 0.00429234 -0.007018877 -0.02191792 0.003410228 -0.006511435 0.0001199595 0.00459377 -0.006961084 -0.02191084 0.003685357 -0.006473898 0.0001240044 0.004751124 -0.006930913 -0.02190911 0.003752573 -0.006464732 0.0001279972 0.004906701 -0.006874795 -0.02190077 0.00407749 -0.006391445 -0.02190045 0.004089822 -0.00638866 -0.02186851 0.005335583 -0.005805062 -0.0218615 0.005609616 -0.005594997 0.000154295 0.00593341 -0.006284163 -0.02186069 0.005641497 -0.005565832 0.0001575863 0.00606221 -0.006177894 -0.02185499 0.005864668 -0.005361775 0.0001596219 0.006142103 -0.006086812 -0.0218521 0.005978151 -0.005238463 -0.02184902 0.006098652 -0.005107517 -0.02182576 0.00702258 -0.002910731 -0.02182537 0.007040691 -0.002565484 0.0001802064 0.007030132 0.003462434 -0.02182537 0.007083478 0.002042407 -0.02182537 0.007086599 0.002378533 -0.0001495741 -0.005867259 -0.006335135 -0.02211679 -0.004305321 -0.005716251 -0.0001488958 -0.00584113 -0.006358069 -0.02211564 -0.004260902 -0.005750555 -0.0001432535 -0.005623307 -0.006496277 -0.02210811 -0.003970043 -0.005937524 -0.02210683 -0.003920788 -0.005963472 -0.0001382744 -0.005431085 -0.006618237 -0.0221002 -0.003664556 -0.006098437 -0.0001365807 -0.005365574 -0.006646287 -0.02209655 -0.003523169 -0.006157933 -0.0001292383 -0.005081575 -0.006767869 -0.02209196 -0.003345813 -0.006232563 -0.02208626 -0.003124909 -0.006303817 -0.0001269842 -0.004994387 -0.0068052 -0.02208348 -0.003017242 -0.006338538 -0.0001212809 -0.004773437 -0.006861814 -0.02207615 -0.002733478 -0.006403575 -0.0001157329 -0.0045585 -0.006916892 -0.02207478 -0.002680247 -0.00641578 -0.0001126158 -0.004437559 -0.006928056 -0.02206639 -0.002354914 -0.006461323 -0.0001029751 -0.004063497 -0.00696257 -0.02215342 -0.005710196 -0.003859057 -0.02215277 -0.005685826 -0.003917566 -0.0001730184 -0.006767144 -0.005200781 -0.02214991 -0.00557722 -0.004178365 -0.0001729906 -0.006766091 -0.005203691 -0.022148 -0.005504171 -0.00431836 -0.0001691582 -0.006619666 -0.005462361 -0.02214573 -0.00541747 -0.004484502 -0.0001661477 -0.006504646 -0.005665538 -0.02214196 -0.005273292 -0.00471068 -0.000165155 -0.006466527 -0.005711774 -0.02216004 -0.00595444 -0.002444818 -0.02216002 -0.005954409 -0.002523282 -0.0001802064 -0.00703393 -0.003871416 -0.0001802064 -0.007034519 -0.003934854 -0.02215967 -0.00594291 -0.002748118 -0.0001797206 -0.007018609 -0.004253085 -0.0001796585 -0.007016578 -0.004293806 -0.02215952 -0.005937699 -0.002850131 -0.0001780987 -0.006958805 -0.004595335 -0.02215848 -0.005900176 -0.003125351 -0.0001772844 -0.006928646 -0.004752742 -0.02215823 -0.005891014 -0.003192589 -0.0001758026 -0.006872548 -0.004908369 -0.02215627 -0.005817754 -0.003517613 -0.02215619 -0.005814969 -0.00352995 -0.02214087 -0.005231572 -0.00477612 -0.0221354 -0.005021578 -0.005050242 -0.0001603528 -0.006282117 -0.005935416 -0.02213464 -0.004992423 -0.005082134 -0.0001575863 -0.006175885 -0.006064258 -0.02212933 -0.004788435 -0.005305378 -0.0001552225 -0.006084833 -0.006144177 -0.02212613 -0.004665165 -0.005418897 -0.02212273 -0.004534263 -0.005539438 -0.0001644857 -0.006333 0.005869165 -0.02214089 -0.005142732 0.00486798 -0.0001650698 -0.006355926 0.005843027 -0.02214176 -0.005177024 0.004823547 -0.0001685756 -0.00649409 0.005625131 -0.02214651 -0.005363933 0.00453259 -0.02214716 -0.005389873 0.004483319 -0.0001716692 -0.006616011 0.005432844 -0.02215057 -0.005524795 0.004227 -0.0001723756 -0.006644051 0.005367312 -0.02215207 -0.005584271 0.004085566 -0.0001754376 -0.006765595 0.005083218 -0.02215395 -0.005658878 0.003908152 -0.02215573 -0.00573011 0.003687173 -0.0001763777 -0.006802914 0.004996001 -0.0221566 -0.00576482 0.003579471 -0.0001777823 -0.006859511 0.004774977 -0.02215821 -0.005829838 0.003295613 -0.0001791488 -0.006914572 0.004559969 -0.02215851 -0.005842039 0.003242364 -0.0001794073 -0.006925733 0.004438987 -0.0221596 -0.005887569 0.002916922 -0.0001802064 -0.006960238 0.004064802 -0.02209342 -0.003286144 0.006273333 -0.02209492 -0.003344634 0.006248955 -0.0001354995 -0.005199016 0.006769355 -0.0221016 -0.003605347 0.006140311 -0.0001355741 -0.005201925 0.006768302 -0.02210519 -0.003745296 0.006067237 -0.000142198 -0.005460511 0.006621827 -0.02210945 -0.003911383 0.005980505 -0.0001474008 -0.005663621 0.006506768 -0.02211523 -0.004137488 0.005836278 -0.0001485819 -0.005709842 0.006468635 -0.02205707 -0.001872372 0.006517666 -0.02205909 -0.00195081 0.006517634 -0.0001013419 -0.00387009 0.007036237 -0.0001029751 -0.003933506 0.007036826 -0.02206487 -0.002175572 0.006506131 -0.0001111634 -0.004251633 0.007020909 -0.0001122112 -0.00429234 0.007018877 -0.0220675 -0.002277551 0.006500917 -0.0001199595 -0.00459377 0.006961084 -0.02207457 -0.00255268 0.00646338 -0.0001240044 -0.004751124 0.006930913 -0.0220763 -0.002619896 0.006454214 -0.0001279972 -0.004906701 0.006874795 -0.02208465 -0.002944813 0.006380928 -0.02208497 -0.002957145 0.006378142 -0.02211691 -0.004202907 0.005794544 -0.02212392 -0.004476939 0.005584479 -0.000154295 -0.00593341 0.006284163 -0.02212473 -0.00450882 0.005555314 -0.0001575863 -0.00606221 0.006177894 -0.02213043 -0.004731991 0.005351258 -0.0001596219 -0.006142103 0.006086812 -0.02213332 -0.004845474 0.005227946 -0.02213639 -0.004965975 0.005096999 -0.02215966 -0.005889903 0.002900213 -0.02216004 -0.005908015 0.002554966 -0.0001802064 -0.007030132 -0.003462434 -0.02216004 -0.005950801 -0.002052925 -0.02216004 -0.005953922 -0.00238905 -0.02206596 -0.00233821 -0.006463658 -0.02205707 -0.001993078 -0.006481774 9.081268e-05 0.003461243 -0.007032441 -0.02193844 0.002613286 -0.006524546 -0.02192978 0.0029493 -0.006527666 -0.02191946 0.003470887 0.006453141 -0.02192835 0.003125755 0.006471256 -9.081268e-05 -0.003461243 0.007032441 -0.02204698 -0.001480609 0.006514028 -0.02205563 -0.001816623 0.006517148 -0.02182576 0.00702258 -0.002910731 -0.02182581 0.007020245 -0.00292744 -0.02190077 0.00407749 -0.006391445 -0.02212392 -0.004476939 0.005584479 -0.02211691 -0.004202907 0.005794544 -0.02205707 -0.001993078 -0.006481774 -0.02206596 -0.00233821 -0.006463658 -0.02206639 -0.002354914 -0.006461323 -0.02214716 -0.005389873 0.004483319 -0.02211523 -0.004137488 0.005836278 -0.02210945 -0.003911383 0.005980505 -0.02210519 -0.003745296 0.006067237 -0.02191903 0.003487591 0.006450806 -0.02191946 0.003470887 0.006453141 -0.02192835 0.003125755 0.006471256 -0.02190911 0.003752573 -0.006464732 -0.02191084 0.003685357 -0.006473898 -0.02191792 0.003410228 -0.006511435 -0.02214651 -0.005363933 0.00453259 -0.02214176 -0.005177024 0.004823547 -0.02214089 -0.005142732 0.00486798 -0.02213639 -0.004965975 0.005096999 -0.02213332 -0.004845474 0.005227946 -0.02213043 -0.004731991 0.005351258 -0.02212473 -0.00450882 0.005555314 -0.0221016 -0.003605347 0.006140311 -0.02209492 -0.003344634 0.006248955 -0.02209342 -0.003286144 0.006273333 -0.02182721 0.006962515 -0.00330613 -0.0218905 0.00447731 -0.006259472 -0.021892 0.004418821 -0.00628385 -0.02208348 -0.003017242 -0.006338538 -0.02208626 -0.003124909 -0.006303817 -0.02214196 -0.005273292 -0.00471068 -0.02215395 -0.005658878 0.003908152 -0.02215207 -0.005584271 0.004085566 -0.02207615 -0.002733478 -0.006403575 -0.02182691 0.006974716 -0.003252881 -0.02190045 0.004089822 -0.00638866 -0.02192054 0.003308249 -0.006516648 -0.02192633 0.003083487 -0.006528152 -0.02192835 0.003005049 -0.006528184 -0.02214573 -0.00541747 -0.004484502 -0.022148 -0.005504171 -0.00431836 -0.02215823 -0.005891014 -0.003192589 -0.02215848 -0.005900176 -0.003125351 -0.02215952 -0.005937699 -0.002850131 -0.02207478 -0.002680247 -0.00641578 -0.02215057 -0.005524795 0.004227 -0.02182719 0.00702369 0.003182072 -0.02182693 0.007032853 0.003114834 -0.0218259 0.007070376 0.002839613 -0.02182882 0.006897497 -0.003589989 -0.02182968 0.006862787 -0.003697691 -0.02183147 0.006791555 -0.003918669 -0.02186862 0.005437998 0.005705734 -0.02186269 0.00566694 0.00552892 -0.02183742 0.006636848 0.004307842 -0.02183969 0.006550146 0.004473984 -0.02184346 0.006405969 0.004700163 -0.0218355 0.006709897 0.004167848 -0.02183264 0.006818503 0.003907048 -0.021832 0.006842873 0.003848539 -0.02182923 0.006947646 0.003519432 -0.02182915 0.00695043 0.003507096 -0.02182574 0.007075587 0.002737601 -0.02182539 0.007087086 0.002512764 -0.02182537 0.007087117 0.002434301 -0.02183334 0.006716948 -0.004096084 -0.02183484 0.006657472 -0.004237518 -0.02183826 0.00652255 -0.004493836 -0.02208497 -0.002957145 0.006378142 -0.02208465 -0.002944813 0.006380928 -0.0220763 -0.002619896 0.006454214 -0.02192978 0.0029493 -0.006527666 -0.02193844 0.002613286 -0.006524546 -0.02204698 -0.001480609 0.006514028 -0.02205563 -0.001816623 0.006517148 -0.02209196 -0.003345813 -0.006232563 -0.02212613 -0.004665165 -0.005418897 -0.02212933 -0.004788435 -0.005305378 -0.02213464 -0.004992423 -0.005082134 -0.02214991 -0.00557722 -0.004178365 -0.02215277 -0.005685826 -0.003917566 -0.02215342 -0.005710196 -0.003859057 -0.02215967 -0.00594291 -0.002748118 -0.02216002 -0.005954409 -0.002523282 -0.02216004 -0.00595444 -0.002444818 -0.02215851 -0.005842039 0.003242364 -0.02215821 -0.005829838 0.003295613 -0.02185929 0.005797842 0.00540838 -0.02185608 0.005921112 0.00529486 -0.02185078 0.0061251 0.005071617 -0.02182537 0.007086599 0.002378533 -0.02182537 0.007083478 0.002042407 -0.02182537 0.007040691 -0.002565484 -0.02183891 0.00649661 -0.004543107 -0.02184366 0.006309701 -0.004834064 -0.02184453 0.006275408 -0.004878498 -0.02207457 -0.00255268 0.00646338 -0.0220675 -0.002277551 0.006500917 -0.02206487 -0.002175572 0.006506131 -0.02209655 -0.003523169 -0.006157933 -0.0221002 -0.003664556 -0.006098437 -0.02210683 -0.003920788 -0.005963472 -0.0221354 -0.005021578 -0.005050242 -0.02214087 -0.005231572 -0.00477612 -0.02215619 -0.005814969 -0.00352995 -0.02215627 -0.005817754 -0.003517613 -0.0221566 -0.00576482 0.003579471 -0.02215573 -0.00573011 0.003687173 -0.02191064 0.003812924 0.006405263 -0.02190926 0.003866155 0.006393058 -0.02190194 0.004149919 0.00632802 -0.02189916 0.004257586 0.006293299 -0.02189346 0.00447849 0.006222045 -0.02188887 0.004655846 0.006147415 -0.02188522 0.004797233 0.00608792 -0.02187858 0.005053465 0.005952955 -0.02186978 0.005393579 0.005740038 -0.02187731 0.00510272 0.005927006 -0.02185002 0.006154255 0.005039725 -0.02184455 0.006364249 0.004765603 -0.0218615 0.005609616 -0.005594997 -0.02186851 0.005335583 -0.005805062 -0.02186069 0.005641497 -0.005565832 -0.02187018 0.005270165 -0.005846796 -0.02185499 0.005864668 -0.005361775 -0.0218521 0.005978151 -0.005238463 -0.02187597 0.00504406 -0.005991023 -0.02188023 0.004877973 -0.006077754 -0.02184902 0.006098652 -0.005107517 -0.02188381 0.004738024 -0.006150828 -0.02205909 -0.00195081 0.006517634 -0.02205707 -0.001872372 0.006517666 -0.02212273 -0.004534263 -0.005539438 -0.02211679 -0.004305321 -0.005716251 -0.02211564 -0.004260902 -0.005750555 -0.02210811 -0.003970043 -0.005937524 -0.02216004 -0.005953922 -0.00238905 -0.02216004 -0.005950801 -0.002052925 -0.02216004 -0.005908015 0.002554966 -0.02215966 -0.005889903 0.002900213 -0.0221596 -0.005887569 0.002916922 0.0001122112 0.00429234 -0.007018877 0.0001199595 0.00459377 -0.006961084 -0.0001716692 -0.006616011 0.005432844 0.0001485819 0.005709842 -0.006468635 0.000154295 0.00593341 -0.006284163 -0.0001240044 -0.004751124 0.006930913 -0.0001279972 -0.004906701 0.006874795 0.0001644857 0.006333 -0.005869165 0.0001777823 0.006859511 -0.004774977 0.0001495741 0.005867259 0.006335135 0.0001763777 0.006802914 -0.004996001 0.0001754376 0.006765595 -0.005083218 0.0001780987 0.006958805 0.004595335 0.0001772844 0.006928646 0.004752742 0.0001758026 0.006872548 0.004908369 0.0001661477 0.006504646 0.005665538 0.000165155 0.006466527 0.005711774 0.0001603528 0.006282117 0.005935416 -0.0001644857 -0.006333 0.005869165 -0.0001650698 -0.006355926 0.005843027 -0.0001685756 -0.00649409 0.005625131 -0.0001603528 -0.006282117 -0.005935416 -0.0001575863 -0.006175885 -0.006064258 -0.0001029751 -0.004063497 -0.00696257 9.081268e-05 0.003461243 -0.007032441 0.0001013419 0.00387009 -0.007036237 0.0001474008 0.005663621 -0.006506768 0.0001575863 0.00606221 -0.006177894 0.0001596219 0.006142103 -0.006086812 0.0001791488 0.006914572 -0.004559969 0.0001794073 0.006925733 -0.004438987 -0.0001723756 -0.006644051 0.005367312 -0.0001777823 -0.006859511 0.004774977 -0.0001754376 -0.006765595 0.005083218 -0.0001763777 -0.006802914 0.004996001 -0.000165155 -0.006466527 -0.005711774 -0.0001802064 -0.00703393 -0.003871416 -0.0001802064 -0.007030132 -0.003462434 -0.0001552225 -0.006084833 -0.006144177 -0.0001495741 -0.005867259 -0.006335135 -0.0001488958 -0.00584113 -0.006358069 -0.0001432535 -0.005623307 -0.006496277 -0.0001382744 -0.005431085 -0.006618237 -0.0001365807 -0.005365574 -0.006646287 0.0001029751 0.003933506 -0.007036826 0.0001111634 0.004251633 -0.007020909 0.0001240044 0.004751124 -0.006930913 0.0001279972 0.004906701 -0.006874795 0.0001354995 0.005199016 -0.006769355 0.0001685756 0.00649409 -0.005625131 0.0001716692 0.006616011 -0.005432844 0.0001723756 0.006644051 -0.005367312 0.0001730184 0.006767144 0.005200781 0.0001575863 0.006175885 0.006064258 0.0001552225 0.006084833 0.006144177 0.0001029751 0.004063497 0.00696257 -9.081268e-05 -0.003461243 0.007032441 -0.0001354995 -0.005199016 0.006769355 -0.0001355741 -0.005201925 0.006768302 -0.000142198 -0.005460511 0.006621827 -0.0001802064 -0.006960238 0.004064802 -0.0001794073 -0.006925733 0.004438987 -0.0001791488 -0.006914572 0.004559969 -0.0001780987 -0.006958805 -0.004595335 -0.0001772844 -0.006928646 -0.004752742 -0.0001758026 -0.006872548 -0.004908369 -0.0001292383 -0.005081575 -0.006767869 -0.0001269842 -0.004994387 -0.0068052 -0.0001212809 -0.004773437 -0.006861814 -0.0001157329 -0.0045585 -0.006916892 -0.0001126158 -0.004437559 -0.006928056 0.0001355741 0.005201925 -0.006768302 0.000142198 0.005460511 -0.006621827 0.0001729906 0.006766091 0.005203691 0.0001691582 0.006619666 0.005462361 0.0001488958 0.00584113 0.006358069 0.0001650698 0.006355926 -0.005843027 -0.0001474008 -0.005663621 0.006506768 -0.0001485819 -0.005709842 0.006468635 -0.000154295 -0.00593341 0.006284163 -0.0001575863 -0.00606221 0.006177894 -0.0001596219 -0.006142103 0.006086812 -0.0001797206 -0.007018609 -0.004253085 -0.0001796585 -0.007016578 -0.004293806 -0.0001730184 -0.006767144 -0.005200781 -0.0001729906 -0.006766091 -0.005203691 -0.0001691582 -0.006619666 -0.005462361 0.0001797206 0.007018609 0.004253085 0.0001796585 0.007016578 0.004293806 0.0001432535 0.005623307 0.006496277 0.0001382744 0.005431085 0.006618237 0.0001365807 0.005365574 0.006646287 -0.0001802064 -0.007034519 -0.003934854 0.0001292383 0.005081575 0.006767869 0.0001269842 0.004994387 0.0068052 0.0001212809 0.004773437 0.006861814 0.0001157329 0.0045585 0.006916892 0.0001126158 0.004437559 0.006928056 -0.0001013419 -0.00387009 0.007036237 -0.0001029751 -0.003933506 0.007036826 -0.0001111634 -0.004251633 0.007020909 -0.0001122112 -0.00429234 0.007018877 -0.0001199595 -0.00459377 0.006961084 -0.0001661477 -0.006504646 -0.005665538 0.0001802064 0.006960238 -0.004064802 0.0001802064 0.007030132 0.003462434 0.0001802064 0.00703393 0.003871416 0.0001802064 0.007034519 0.003934854</float_array>
          <technique_common>
            <accessor count="504" source="#verts-array-array" stride="3">
              <param type="float" name="X"/>
              <param type="float" name="Y"/>
              <param type="float" name="Z"/>
            </accessor>
          </technique_common>
        </source>
        <source id="normals-array">
          <float_array count="1512" id="normals-array-array">-0.03400605 0.659612 0.7508366 -0.03456828 0.6114554 0.7905234 -0.03454813 0.6004682 0.798902 -0.03459711 0.5762687 0.8165276 -0.03462425 0.5360355 0.8434851 -0.03422188 0.5035441 0.8632915 -0.0343025 0.4667179 0.8837408 -0.03419443 0.4679743 0.8830803 -0.03405569 0.4268498 0.9036811 -0.03347932 0.394081 0.9184657 -0.03341754 0.3883985 0.9208854 -0.0339939 0.3937972 0.9185685 -0.03273725 0.347236 0.9372062 -0.03220043 0.307666 0.9509494 -0.03267998 0.3247783 0.9452254 -0.03115856 0.2646209 0.963849 -0.03066891 0.2487435 0.9680837 -0.03009001 0.2241588 0.974088 -0.02871975 0.1739564 0.9843345 -0.0288074 0.1803184 0.9831864 -0.02592256 0.09275068 0.9953519 -0.02702245 0.1389239 0.9899343 -0.02420856 0.05280849 0.9983112 -0.01783021 0.9392568 0.3427516 -0.02043278 0.9230267 0.3841929 -0.0183231 0.9404373 0.3394731 -0.02221034 0.9059381 0.4228272 -0.02191179 0.9077388 0.4189631 -0.02379853 0.8863684 0.4623686 -0.02499071 0.8701706 0.4921165 -0.02543301 0.866013 0.4993742 -0.02824626 0.8232413 0.5669884 -0.02717575 0.843068 0.5371199 -0.03082491 0.7717145 0.6352217 0.002720232 0.9999855 -0.004643972 0.000805812 0.9996944 0.02470841 0.003004589 0.9999525 -0.009274084 0.000990282 0.9997675 0.02153849 -0.0009215566 0.9986963 0.05103861 -0.0008485431 0.9987553 0.04987171 -0.005633951 0.9925123 0.1220144 -0.003266142 0.9957844 0.0916666 -0.009660886 0.9821389 0.1879089 -0.00557216 0.9908082 0.1351591 -0.01499618 0.9635031 0.2672768 -0.007872377 0.9843443 0.1760803 -0.01911224 0.9408356 0.3383238 -0.00975577 0.975338 0.2205008 -0.01195445 0.9655105 0.2600897 -0.02841521 0.8194765 0.5724079 -0.03078366 0.7667372 0.6412227 -0.03039383 0.7714883 0.6355171 -0.03189922 0.7382303 0.673794 -0.0322675 0.7178513 0.6954483 -0.03277378 0.70846 0.7049896 -0.03378212 0.6598165 0.750667 -0.03323599 0.6774229 0.7348426 -0.0338311 0.6449972 0.7634357 -0.03129244 0.7519035 -0.6585302 -0.02959541 0.7915596 -0.6103749 -0.02907746 0.7999275 -0.5993917 -0.0280515 0.8175325 -0.5751989 -0.02635248 0.8444549 -0.534978 -0.0246074 0.8642226 -0.5025075 -0.02321778 0.8846427 -0.4656912 -0.02315896 0.8839805 -0.4669499 -0.02143661 0.9045434 -0.4258424 -0.01964105 0.9192864 -0.393099 -0.01937156 0.9216998 -0.3874199 -0.02014538 0.9194023 -0.3928021 -0.01721824 0.9379702 -0.3462881 -0.01531586 0.9516686 -0.3067446 -0.0163801 0.9459703 -0.3238392 -0.01284209 0.9645083 -0.2637401 -0.01183794 0.9687183 -0.2478803 -0.01047664 0.9746893 -0.2233184 -0.007561153 0.9848634 -0.1731673 -0.007840776 0.9837222 -0.179525 -0.002409224 0.9957506 -0.09205933 -0.004826329 0.9903941 -0.1381894 0.0003988624 0.9986379 -0.05217385 -0.03285959 0.3437215 -0.9384966 -0.03396994 0.3852056 -0.9222054 -0.03346743 0.3404576 -0.9396641 -0.03430687 0.4238617 -0.905077 -0.03415481 0.4199924 -0.9068847 -0.03436772 0.463418 -0.8854731 -0.03437325 0.4931761 -0.8692501 -0.03452069 0.5004401 -0.8650827 -0.03448489 0.5680762 -0.8222531 -0.0346966 0.5382031 -0.8421007 -0.03397533 0.6363193 -0.7706773 -0.02289695 -0.004050383 -0.9997296 -0.02404006 0.02534162 -0.9993898 -0.02273224 -0.008686339 -0.9997039 -0.02393993 0.02216803 -0.9994676 -0.02505673 0.05170713 -0.9983479 -0.02501559 0.05053877 -0.9984088 -0.02776428 0.1227773 -0.9920458 -0.02626995 0.09238038 -0.9953772 -0.02981203 0.1887472 -0.9815731 -0.02731756 0.1359148 -0.9903438 -0.03260656 0.2682145 -0.9628072 -0.02838826 0.1768776 -0.9838234 -0.03429607 0.3393295 -0.9400422 -0.02888667 0.2213261 -0.9747719 -0.02980476 0.2609522 -0.9648915 -0.03441693 0.5734957 -0.8184853 -0.0336513 0.6423139 -0.7657026 -0.0335311 0.6366033 -0.7704622 -0.03319308 0.6748843 -0.7371766 -0.03247894 0.6965273 -0.7167948 -0.03249755 0.7060723 -0.7073937 -0.03107827 0.7517282 -0.6587403 -0.03139252 0.7359067 -0.6763548 -0.03041765 0.7644841 -0.6439245 -0.002113942 0.9955616 -0.09408821 0.00161605 0.9995511 -0.02991698 0.003023245 0.9999523 -0.009285029 0.003023245 0.9999523 -0.009285029 0.003023245 0.9999523 -0.009285029 -0.06755122 -0.6569968 -0.7508609 -0.06561521 -0.6088756 -0.7905474 -0.06502558 -0.5979041 -0.7989258 -0.06382057 -0.5737344 -0.8165512 -0.06176406 -0.5335534 -0.8435082 -0.05968048 -0.501126 -0.863314 -0.05785584 -0.4643447 -0.8837628 -0.05781289 -0.465605 -0.8831023 -0.05554789 -0.4245424 -0.9037025 -0.05327866 -0.3918469 -0.9184865 -0.05292334 -0.3861752 -0.920906 -0.05377791 -0.391537 -0.9185895 -0.05011758 -0.3451024 -0.937226 -0.04753831 -0.3056126 -0.9509685 -0.0489007 -0.3226775 -0.9452449 -0.0442762 -0.2626784 -0.963867 -0.04296799 -0.2468472 -0.9681013 -0.04112166 -0.222325 -0.974105 -0.03716449 -0.1722598 -0.9843502 -0.03758001 -0.1786089 -0.9832022 -0.03018623 -0.09130581 -0.9953653 -0.0336637 -0.1373611 -0.9899488 -0.02641733 -0.05150481 -0.9983233 -0.06598467 -0.9370985 -0.3427717 -0.06772865 -0.9207565 -0.384214 -0.06653924 -0.938252 -0.3394934 -0.06860588 -0.9035995 -0.4228489 -0.06840224 -0.9054131 -0.4189847 -0.06916585 -0.8839744 -0.4623909 -0.06950856 -0.8677371 -0.4921391 -0.06973282 -0.8635624 -0.4993969 -0.07030865 -0.8207034 -0.567012 -0.07027427 -0.8405586 -0.5371432 -0.07019927 -0.769113 -0.6352458 -0.0487531 -0.9988001 0.004632965 -0.05063597 -0.9984112 -0.02472033 -0.04846963 -0.9987817 0.009263212 -0.05045702 -0.9984937 -0.02155032 -0.05229709 -0.9973258 -0.05105133 -0.05222777 -0.9973885 -0.0498844 -0.05665104 -0.9909084 -0.1220293 -0.05446928 -0.9942976 -0.09168041 -0.06010725 -0.9803423 -0.1879256 -0.05649535 -0.9892099 -0.1351739 -0.06443839 -0.9614576 -0.2672958 -0.05844027 -0.9826367 -0.1760962 -0.06734838 -0.9386092 -0.3383445 -0.0598364 -0.9735459 -0.2205174 -0.06150744 -0.9636187 -0.2601072 -0.07028101 -0.816935 -0.5724315 -0.06989903 -0.7641445 -0.6412467 -0.06975698 -0.7689093 -0.6355411 -0.06953035 -0.7356184 -0.6738183 -0.06883892 -0.7152477 -0.6954725 -0.06885662 -0.7058429 -0.7050139 -0.06733819 -0.6572126 -0.7506912 -0.06770651 -0.6748235 -0.7348667 -0.06661828 -0.6424105 -0.7634597 -0.07026483 -0.7492882 0.6585059 -0.07058807 -0.7889798 0.6103509 -0.07049624 -0.7973634 0.5993679 -0.07036617 -0.8149981 0.5751754 -0.07003583 -0.8419728 0.534955 -0.06929496 -0.8618045 0.502485 -0.06894057 -0.8822695 0.4656692 -0.06884835 -0.8816112 0.4669279 -0.06816697 -0.902236 0.4258209 -0.06711694 -0.9170523 0.3930782 -0.06696931 -0.9194764 0.3873992 -0.06762643 -0.9171421 0.3927811 -0.06563659 -0.9358366 0.3462682 -0.06442288 -0.9496153 0.3067255 -0.06520059 -0.9438695 0.3238197 -0.06259267 -0.9625657 0.2637221 -0.06179895 -0.9668221 0.2478627 -0.06073503 -0.9728555 0.2233014 -0.05832308 -0.9831668 0.1731515 -0.05854664 -0.9820126 0.1795091 -0.05369957 -0.9943057 0.09204591 -0.05585982 -0.9888313 0.1381749 -0.05102475 -0.9973343 0.05216174 -0.05095529 -0.3415631 0.9384765 -0.05419149 -0.3829353 0.9221843 -0.0513949 -0.3382723 0.9396438 -0.05650935 -0.4215231 0.9050552 -0.05615922 -0.4176667 0.9068631 -0.05859666 -0.4610241 0.8854509 -0.06012602 -0.4907426 0.8692276 -0.06064514 -0.4979894 0.8650599 -0.06407002 -0.5655383 0.8222296 -0.06275342 -0.5356936 0.8420774 -0.06704885 -0.6337178 0.7706531 -0.02313591 0.005235784 0.9997186 -0.0257901 -0.02405844 0.9993778 -0.0227328 0.009857118 0.999693 -0.0255268 -0.0208942 0.9994558 -0.02816191 -0.05033669 0.9983352 -0.02806072 -0.04917199 0.9983961 -0.03452072 -0.1211734 0.9920309 -0.03146548 -0.09089362 0.9953634 -0.03995611 -0.1869506 0.9815564 -0.03474994 -0.1343164 0.990329 -0.04682801 -0.266169 0.9627882 -0.03792439 -0.17517 0.9838075 -0.05216456 -0.3371031 0.9400215 -0.0407055 -0.219534 0.9747553 -0.04365714 -0.2590604 0.964874 -0.06427929 -0.5709542 0.8184617 -0.0670314 -0.6397212 0.7656785 -0.06661972 -0.6340243 0.7704382 -0.0682365 -0.6722724 0.7371524 -0.06862749 -0.6939237 0.7167706 -0.06913285 -0.7034552 0.7073694 -0.07004203 -0.7491243 0.6587161 -0.06954998 -0.7333073 0.6763307 -0.07003173 -0.7618974 0.6439005 -0.05339592 -0.9941322 0.09407493 -0.04984553 -0.9983091 0.02990545 -0.04845099 -0.9987825 0.009274167 -0.04845099 -0.9987825 0.009274167 -0.04845099 -0.9987825 0.009274167 -0.02993904 -0.0933418 -0.9951839 -0.02464596 -0.02928647 -0.9992672 -0.02271387 -0.008697765 -0.9997042 -0.02271387 -0.008697765 -0.9997042 -0.02271387 -0.008697765 -0.9997042 -0.02557082 0.09477124 0.9951706 -0.02358352 0.03052843 0.9992556 -0.02271387 0.009867584 0.9996933 -0.02271387 0.009867584 0.9996933 -0.02271387 0.009867584 0.9996933 -0.9996686 0.02574266 -0.0002390327 -0.9996686 0.02574266 -0.0002390327 -0.9996686 0.02574266 -0.0002390327 -0.9996686 0.02574266 -0.0002390327 -0.9996686 0.02574266 -0.0002390327 -0.9996686 0.02574266 -0.0002390327 -0.9996686 0.02574266 -0.0002390327 -0.9996686 0.02574266 -0.0002390327 -0.9996686 0.02574266 -0.0002390327 -0.9996686 0.02574266 -0.0002390327 -0.9996686 0.02574266 -0.0002390327 -0.9996686 0.02574266 -0.0002390327 -0.9996686 0.02574266 -0.0002390327 -0.9996686 0.02574266 -0.0002390327 -0.9996686 0.02574266 -0.0002390327 -0.9996686 0.02574266 -0.0002390327 -0.9996686 0.02574266 -0.0002390327 -0.9996686 0.02574266 -0.0002390327 -0.9996686 0.02574266 -0.0002390327 -0.9996686 0.02574266 -0.0002390327 -0.9996686 0.02574266 -0.0002390327 -0.9996686 0.02574266 -0.0002390327 -0.9996686 0.02574266 -0.0002390327 -0.9996686 0.02574266 -0.0002390327 -0.9996686 0.02574266 -0.0002390327 -0.9996686 0.02574266 -0.0002390327 -0.9996686 0.02574266 -0.0002390327 -0.9996686 0.02574266 -0.0002390327 -0.9996686 0.02574266 -0.0002390327 -0.9996686 0.02574266 -0.0002390327 -0.9996686 0.02574266 -0.0002390327 -0.9996686 0.02574266 -0.0002390327 -0.9996686 0.02574266 -0.0002390327 -0.9996686 0.02574266 -0.0002390327 -0.9996686 0.02574266 -0.0002390327 -0.9996686 0.02574266 -0.0002390327 -0.9996686 0.02574266 -0.0002390327 -0.9996686 0.02574266 -0.0002390327 -0.9996686 0.02574266 -0.0002390327 -0.9996686 0.02574266 -0.0002390327 -0.9996686 0.02574266 -0.0002390327 -0.9996686 0.02574266 -0.0002390327 -0.9996686 0.02574266 -0.0002390327 -0.9996686 0.02574266 -0.0002390327 -0.9996686 0.02574266 -0.0002390327 -0.9996686 0.02574266 -0.0002390327 -0.9996686 0.02574266 -0.0002390327 -0.9996686 0.02574266 -0.0002390327 -0.9996686 0.02574266 -0.0002390327 -0.9996686 0.02574266 -0.0002390327 -0.9996686 0.02574266 -0.0002390327 -0.9996686 0.02574266 -0.0002390327 -0.9996686 0.02574266 -0.0002390327 -0.9996686 0.02574266 -0.0002390327 -0.9996686 0.02574266 -0.0002390327 -0.9996686 0.02574266 -0.0002390327 -0.9996686 0.02574266 -0.0002390327 -0.9996686 0.02574266 -0.0002390327 -0.9996686 0.02574266 -0.0002390327 -0.9996686 0.02574266 -0.0002390327 -0.9996686 0.02574266 -0.0002390327 -0.9996686 0.02574266 -0.0002390327 -0.9996686 0.02574266 -0.0002390327 -0.9996686 0.02574266 -0.0002390327 -0.9996686 0.02574266 -0.0002390327 -0.9996686 0.02574266 -0.0002390327 -0.9996686 0.02574266 -0.0002390327 -0.9996686 0.02574266 -0.0002390327 -0.9996686 0.02574266 -0.0002390327 -0.9996686 0.02574266 -0.0002390327 -0.9996686 0.02574266 -0.0002390327 -0.9996686 0.02574266 -0.0002390327 -0.9996686 0.02574266 -0.0002390327 -0.9996686 0.02574266 -0.0002390327 -0.9996686 0.02574266 -0.0002390327 -0.9996686 0.02574266 -0.0002390327 -0.9996686 0.02574266 -0.0002390327 -0.9996686 0.02574266 -0.0002390327 -0.9996686 0.02574266 -0.0002390327 -0.9996686 0.02574266 -0.0002390327 -0.9996686 0.02574266 -0.0002390327 -0.9996686 0.02574266 -0.0002390327 -0.9996686 0.02574266 -0.0002390327 -0.9996686 0.02574266 -0.0002390327 -0.9996686 0.02574266 -0.0002390327 -0.9996686 0.02574266 -0.0002390327 -0.9996686 0.02574266 -0.0002390327 -0.9996686 0.02574266 -0.0002390327 -0.9996686 0.02574266 -0.0002390327 -0.9996686 0.02574266 -0.0002390327 -0.9996686 0.02574266 -0.0002390327 -0.9996686 0.02574266 -0.0002390327 -0.9996686 0.02574266 -0.0002390327 -0.9996686 0.02574266 -0.0002390327 -0.9996686 0.02574266 -0.0002390327 -0.9996686 0.02574266 -0.0002390327 -0.9996686 0.02574266 -0.0002390327 -0.9996686 0.02574266 -0.0002390327 -0.9996686 0.02574266 -0.0002390327 -0.9996686 0.02574266 -0.0002390327 -0.9996686 0.02574266 -0.0002390327 -0.9996686 0.02574266 -0.0002390327 -0.9996686 0.02574266 -0.0002390327 -0.9996686 0.02574266 -0.0002390327 -0.9996686 0.02574266 -0.0002390327 -0.9996686 0.02574266 -0.0002390327 -0.9996686 0.02574266 -0.0002390327 -0.9996686 0.02574266 -0.0002390327 -0.9996686 0.02574266 -0.0002390327 -0.9996686 0.02574266 -0.0002390327 -0.9996686 0.02574266 -0.0002390327 -0.9996686 0.02574266 -0.0002390327 -0.9996686 0.02574266 -0.0002390327 -0.9996686 0.02574266 -0.0002390327 -0.9996686 0.02574266 -0.0002390327 -0.9996686 0.02574266 -0.0002390327 -0.9996686 0.02574266 -0.0002390327 -0.9996686 0.02574266 -0.0002390327 -0.9996686 0.02574266 -0.0002390327 -0.9996686 0.02574266 -0.0002390327 -0.9996686 0.02574266 -0.0002390327 -0.9996686 0.02574266 -0.0002390327 -0.9996686 0.02574266 -0.0002390327 -0.9996686 0.02574266 -0.0002390327 -0.9996686 0.02574266 -0.0002390327 -0.9996686 0.02574266 -0.0002390327 -0.9996686 0.02574266 -0.0002390327 -0.9996686 0.02574266 -0.0002390327 -0.9996686 0.02574266 -0.0002390327 -0.9996686 0.02574266 -0.0002390327 -0.9996686 0.02574266 -0.0002390327 -0.9996686 0.02574266 -0.0002390327 -0.9996686 0.02574266 -0.0002390327 -0.9996686 0.02574266 -0.0002390327 -0.9996686 0.02574266 -0.0002390327 -0.9996686 0.02574266 -0.0002390327 -0.9996686 0.02574266 -0.0002390327 -0.9996686 0.02574266 -0.0002390327 -0.9996686 0.02574266 -0.0002390327 -0.9996686 0.02574266 -0.0002390327 -0.9996686 0.02574266 -0.0002390327 -0.9996686 0.02574266 -0.0002390327 -0.9996686 0.02574266 -0.0002390327 -0.9996686 0.02574266 -0.0002390327 0.9996686 -0.02574266 0.0002390327 0.9996686 -0.02574266 0.0002390327 0.9996686 -0.02574266 0.0002390327 0.9996686 -0.02574266 0.0002390327 0.9996686 -0.02574266 0.0002390327 0.9996686 -0.02574266 0.0002390327 0.9996686 -0.02574266 0.0002390327 0.9996686 -0.02574266 0.0002390327 0.9996686 -0.02574266 0.0002390327 0.9996686 -0.02574266 0.0002390327 0.9996686 -0.02574266 0.0002390327 0.9996686 -0.02574266 0.0002390327 0.9996686 -0.02574266 0.0002390327 0.9996686 -0.02574266 0.0002390327 0.9996686 -0.02574266 0.0002390327 0.9996686 -0.02574266 0.0002390327 0.9996686 -0.02574266 0.0002390327 0.9996686 -0.02574266 0.0002390327 0.9996686 -0.02574266 0.0002390327 0.9996686 -0.02574266 0.0002390327 0.9996686 -0.02574266 0.0002390327 0.9996686 -0.02574266 0.0002390327 0.9996686 -0.02574266 0.0002390327 0.9996686 -0.02574266 0.0002390327 0.9996686 -0.02574266 0.0002390327 0.9996686 -0.02574266 0.0002390327 0.9996686 -0.02574266 0.0002390327 0.9996686 -0.02574266 0.0002390327 0.9996686 -0.02574266 0.0002390327 0.9996686 -0.02574266 0.0002390327 0.9996686 -0.02574266 0.0002390327 0.9996686 -0.02574266 0.0002390327 0.9996686 -0.02574266 0.0002390327 0.9996686 -0.02574266 0.0002390327 0.9996686 -0.02574266 0.0002390327 0.9996686 -0.02574266 0.0002390327 0.9996686 -0.02574266 0.0002390327 0.9996686 -0.02574266 0.0002390327 0.9996686 -0.02574266 0.0002390327 0.9996686 -0.02574266 0.0002390327 0.9996686 -0.02574266 0.0002390327 0.9996686 -0.02574266 0.0002390327 0.9996686 -0.02574266 0.0002390327 0.9996686 -0.02574266 0.0002390327 0.9996686 -0.02574266 0.0002390327 0.9996686 -0.02574266 0.0002390327 0.9996686 -0.02574266 0.0002390327 0.9996686 -0.02574266 0.0002390327 0.9996686 -0.02574266 0.0002390327 0.9996686 -0.02574266 0.0002390327 0.9996686 -0.02574266 0.0002390327 0.9996686 -0.02574266 0.0002390327 0.9996686 -0.02574266 0.0002390327 0.9996686 -0.02574266 0.0002390327 0.9996686 -0.02574266 0.0002390327 0.9996686 -0.02574266 0.0002390327 0.9996686 -0.02574266 0.0002390327 0.9996686 -0.02574266 0.0002390327 0.9996686 -0.02574266 0.0002390327 0.9996686 -0.02574266 0.0002390327 0.9996686 -0.02574266 0.0002390327 0.9996686 -0.02574266 0.0002390327 0.9996686 -0.02574266 0.0002390327 0.9996686 -0.02574266 0.0002390327 0.9996686 -0.02574266 0.0002390327 0.9996686 -0.02574266 0.0002390327 0.9996686 -0.02574266 0.0002390327 0.9996686 -0.02574266 0.0002390327 0.9996686 -0.02574266 0.0002390327 0.9996686 -0.02574266 0.0002390327 0.9996686 -0.02574266 0.0002390327 0.9996686 -0.02574266 0.0002390327 0.9996686 -0.02574266 0.0002390327 0.9996686 -0.02574266 0.0002390327 0.9996686 -0.02574266 0.0002390327 0.9996686 -0.02574266 0.0002390327 0.9996686 -0.02574266 0.0002390327 0.9996686 -0.02574266 0.0002390327 0.9996686 -0.02574266 0.0002390327 0.9996686 -0.02574266 0.0002390327 0.9996686 -0.02574266 0.0002390327 0.9996686 -0.02574266 0.0002390327 0.9996686 -0.02574266 0.0002390327 0.9996686 -0.02574266 0.0002390327 0.9996686 -0.02574266 0.0002390327 0.9996686 -0.02574266 0.0002390327 0.9996686 -0.02574266 0.0002390327 0.9996686 -0.02574266 0.0002390327 0.9996686 -0.02574266 0.0002390327 0.9996686 -0.02574266 0.0002390327 0.9996686 -0.02574266 0.0002390327 0.9996686 -0.02574266 0.0002390327 0.9996686 -0.02574266 0.0002390327 0.9996686 -0.02574266 0.0002390327 0.9996686 -0.02574266 0.0002390327 0.9996686 -0.02574266 0.0002390327 0.9996686 -0.02574266 0.0002390327 0.9996686 -0.02574266 0.0002390327 0.9996686 -0.02574266 0.0002390327 0.9996686 -0.02574266 0.0002390327 0.9996686 -0.02574266 0.0002390327 0.9996686 -0.02574266 0.0002390327 0.9996686 -0.02574266 0.0002390327 0.9996686 -0.02574266 0.0002390327 0.9996686 -0.02574266 0.0002390327 0.9996686 -0.02574266 0.0002390327 0.9996686 -0.02574266 0.0002390327 0.9996686 -0.02574266 0.0002390327</float_array>
          <technique_common>
            <accessor count="504" source="#normals-array-array" stride="3">
              <param type="float" name="X"/>
              <param type="float" name="Y"/>
              <param type="float" name="Z"/>
            </accessor>
          </technique_common>
        </source>
        <vertices id="verts-array-vertices">
          <input semantic="POSITION" source="#verts-array"/>
        </vertices>
        <triangles count="500" material="material0">
          <input offset="0" semantic="VERTEX" source="#verts-array-vertices"/>
          <input offset="1" semantic="NORMAL" source="#normals-array"/>
          <p>0 0 1 1 2 2 3 3 2 2 1 1 2 2 3 3 4 4 3 3 5 5 4 4 6 6 4 4 5 5 4 4 6 6 7 7 8 8 7 7 6 6 7 7 8 8 9 9 10 10 9 9 8 8 9 9 10 10 11 11 10 10 12 12 11 11 13 13 11 11 12 12 11 11 13 13 14 14 15 15 14 14 13 13 14 14 15 15 16 16 17 17 16 16 15 15 16 16 17 17 18 18 19 19 18 18 17 17 18 18 19 19 20 20 21 21 20 20 19 19 20 20 21 21 22 22 23 23 24 24 25 25 26 26 25 25 24 24 25 25 26 26 27 27 28 28 27 27 26 26 27 27 28 28 29 29 30 30 29 29 28 28 29 29 30 30 31 31 32 32 31 31 30 30 31 31 32 32 33 33 34 34 35 35 36 36 36 36 35 35 37 37 38 38 37 37 35 35 37 37 38 38 39 39 39 39 38 38 40 40 41 41 40 40 38 38 40 40 41 41 42 42 43 43 42 42 41 41 42 42 43 43 44 44 45 45 44 44 43 43 44 44 45 45 46 46 47 47 46 46 45 45 46 46 47 47 25 25 48 48 25 25 47 47 25 25 48 48 23 23 32 32 49 49 33 33 50 50 33 33 49 49 33 33 50 50 51 51 52 52 51 51 50 50 51 51 52 52 53 53 54 54 53 53 52 52 53 53 54 54 55 55 56 56 55 55 54 54 55 55 56 56 0 0 57 57 0 0 56 56 0 0 57 57 1 1 58 58 59 59 60 60 61 61 60 60 59 59 60 60 61 61 62 62 61 61 63 63 62 62 64 64 62 62 63 63 62 62 64 64 65 65 66 66 65 65 64 64 65 65 66 66 67 67 68 68 67 67 66 66 67 67 68 68 69 69 68 68 70 70 69 69 71 71 69 69 70 70 69 69 71 71 72 72 73 73 72 72 71 71 72 72 73 73 74 74 75 75 74 74 73 73 74 74 75 75 76 76 77 77 76 76 75 75 76 76 77 77 78 78 79 79 78 78 77 77 78 78 79 79 80 80 81 81 82 82 83 83 84 84 83 83 82 82 83 83 84 84 85 85 86 86 85 85 84 84 85 85 86 86 87 87 88 88 87 87 86 86 87 87 88 88 89 89 90 90 89 89 88 88 89 89 90 90 91 91 92 92 93 93 94 94 94 94 93 93 95 95 96 96 95 95 93 93 95 95 96 96 97 97 97 97 96 96 98 98 99 99 98 98 96 96 98 98 99 99 100 100 101 101 100 100 99 99 100 100 101 101 102 102 103 103 102 102 101 101 102 102 103 103 104 104 105 105 104 104 103 103 104 104 105 105 83 83 106 106 83 83 105 105 83 83 106 106 81 81 90 90 107 107 91 91 108 108 91 91 107 107 91 91 108 108 109 109 110 110 109 109 108 108 109 109 110 110 111 111 112 112 111 111 110 110 111 111 112 112 113 113 114 114 113 113 112 112 113 113 114 114 58 58 115 115 58 58 114 114 58 58 115 115 59 59 79 79 116 116 80 80 117 117 80 80 116 116 80 80 117 117 118 118 119 119 118 118 117 117 118 118 119 119 36 36 120 120 36 36 119 119 36 36 120 120 34 34 121 121 122 122 123 123 124 124 123 123 122 122 123 123 124 124 125 125 124 124 126 126 125 125 127 127 125 125 126 126 125 125 127 127 128 128 129 129 128 128 127 127 128 128 129 129 130 130 131 131 130 130 129 129 130 130 131 131 132 132 131 131 133 133 132 132 134 134 132 132 133 133 132 132 134 134 135 135 136 136 135 135 134 134 135 135 136 136 137 137 138 138 137 137 136 136 137 137 138 138 139 139 140 140 139 139 138 138 139 139 140 140 141 141 142 142 141 141 140 140 141 141 142 142 143 143 144 144 145 145 146 146 147 147 146 146 145 145 146 146 147 147 148 148 149 149 148 148 147 147 148 148 149 149 150 150 151 151 150 150 149 149 150 150 151 151 152 152 153 153 152 152 151 151 152 152 153 153 154 154 155 155 156 156 157 157 157 157 156 156 158 158 159 159 158 158 156 156 158 158 159 159 160 160 160 160 159 159 161 161 162 162 161 161 159 159 161 161 162 162 163 163 164 164 163 163 162 162 163 163 164 164 165 165 166 166 165 165 164 164 165 165 166 166 167 167 168 168 167 167 166 166 167 167 168 168 146 146 169 169 146 146 168 168 146 146 169 169 144 144 153 153 170 170 154 154 171 171 154 154 170 170 154 154 171 171 172 172 173 173 172 172 171 171 172 172 173 173 174 174 175 175 174 174 173 173 174 174 175 175 176 176 177 177 176 176 175 175 176 176 177 177 121 121 178 178 121 121 177 177 121 121 178 178 122 122 179 179 180 180 181 181 182 182 181 181 180 180 181 181 182 182 183 183 182 182 184 184 183 183 185 185 183 183 184 184 183 183 185 185 186 186 187 187 186 186 185 185 186 186 187 187 188 188 189 189 188 188 187 187 188 188 189 189 190 190 189 189 191 191 190 190 192 192 190 190 191 191 190 190 192 192 193 193 194 194 193 193 192 192 193 193 194 194 195 195 196 196 195 195 194 194 195 195 196 196 197 197 198 198 197 197 196 196 197 197 198 198 199 199 200 200 199 199 198 198 199 199 200 200 201 201 202 202 203 203 204 204 205 205 204 204 203 203 204 204 205 205 206 206 207 207 206 206 205 205 206 206 207 207 208 208 209 209 208 208 207 207 208 208 209 209 210 210 211 211 210 210 209 209 210 210 211 211 212 212 213 213 214 214 215 215 215 215 214 214 216 216 217 217 216 216 214 214 216 216 217 217 218 218 218 218 217 217 219 219 220 220 219 219 217 217 219 219 220 220 221 221 222 222 221 221 220 220 221 221 222 222 223 223 224 224 223 223 222 222 223 223 224 224 225 225 226 226 225 225 224 224 225 225 226 226 204 204 227 227 204 204 226 226 204 204 227 227 202 202 211 211 228 228 212 212 229 229 212 212 228 228 212 212 229 229 230 230 231 231 230 230 229 229 230 230 231 231 232 232 233 233 232 232 231 231 232 232 233 233 234 234 235 235 234 234 233 233 234 234 235 235 179 179 236 236 179 179 235 235 179 179 236 236 180 180 200 200 237 237 201 201 238 238 201 201 237 237 201 201 238 238 239 239 240 240 239 239 238 238 239 239 240 240 157 157 241 241 157 157 240 240 157 157 241 241 155 155 142 142 242 242 143 143 243 243 143 143 242 242 143 143 243 243 244 244 245 245 244 244 243 243 244 244 245 245 94 94 246 246 94 94 245 245 94 94 246 246 92 92 21 21 247 247 22 22 248 248 22 22 247 247 22 22 248 248 249 249 250 250 249 249 248 248 249 249 250 250 215 215 251 251 215 215 250 250 215 215 251 251 213 213 252 252 253 253 254 254 255 255 256 256 257 257 258 258 259 259 260 260 256 256 261 261 257 257 262 262 257 257 261 261 257 257 262 262 263 263 264 264 254 254 265 265 266 266 265 265 254 254 254 254 267 267 266 266 268 268 266 266 267 267 266 266 268 268 269 269 258 258 260 260 257 257 270 270 257 257 260 260 257 257 270 270 271 271 271 271 272 272 257 257 273 273 257 257 272 272 257 257 273 273 274 274 274 274 275 275 257 257 276 276 257 257 275 275 257 257 276 276 255 255 263 263 277 277 257 257 278 278 257 257 277 277 257 257 278 278 279 279 280 280 281 281 282 282 283 283 284 284 285 285 286 286 287 287 288 288 253 253 289 289 254 254 280 280 254 254 289 289 254 254 280 280 290 290 282 282 290 290 280 280 269 269 291 291 266 266 292 292 266 266 291 291 266 266 292 292 293 293 283 283 285 285 288 288 294 294 288 288 285 285 288 288 294 294 295 295 296 296 297 297 288 288 298 298 288 288 297 297 259 259 299 299 260 260 288 288 260 260 299 299 260 260 288 288 300 300 287 287 300 300 288 288 301 301 302 302 264 264 303 303 264 264 302 302 280 280 304 304 281 281 305 305 281 281 304 304 281 281 305 305 306 306 264 264 307 307 308 308 309 309 264 264 310 310 311 311 310 310 264 264 309 309 312 312 264 264 313 313 264 264 312 312 264 264 313 313 314 314 314 314 315 315 264 264 316 316 264 264 315 315 264 264 316 316 301 301 303 303 317 317 264 264 318 318 264 264 317 317 264 264 318 318 319 319 306 306 320 320 281 281 321 321 281 281 320 320 281 281 321 321 322 322 279 279 323 323 257 257 324 324 257 257 323 323 257 257 324 324 325 325 293 293 326 326 266 266 327 327 266 266 326 326 266 266 327 327 328 328 257 257 328 328 327 327 328 328 257 257 329 329 330 330 331 331 284 284 332 332 284 284 331 331 284 284 332 332 333 333 295 295 334 334 288 288 335 335 288 288 334 334 288 288 335 335 336 336 298 298 337 337 288 288 338 338 288 288 337 337 288 288 338 338 339 339 340 340 341 341 288 288 308 308 342 342 264 264 343 343 264 264 342 342 264 264 343 343 344 344 319 319 345 345 264 264 346 346 264 264 345 345 264 264 346 346 254 254 347 347 254 254 346 346 254 254 347 347 252 252 322 322 348 348 281 281 349 349 281 281 348 348 281 281 349 349 350 350 325 325 351 351 257 257 352 352 257 257 351 351 257 257 352 352 353 353 330 330 354 354 331 331 355 355 331 331 354 354 331 331 355 355 356 356 333 333 357 357 284 284 358 358 284 284 357 357 284 284 358 358 285 285 336 336 359 359 288 288 360 360 288 288 359 359 288 288 360 360 296 296 341 341 361 361 288 288 362 362 288 288 361 361 288 288 362 362 286 286 264 264 363 363 307 307 364 364 307 307 363 363 307 307 364 364 365 365 365 365 366 366 307 307 367 367 307 307 366 366 307 307 367 367 368 368 368 368 369 369 307 307 370 370 307 307 369 369 307 307 370 370 371 371 372 372 371 371 370 370 344 344 373 373 264 264 374 374 264 264 373 373 264 264 374 374 311 311 375 375 376 376 377 377 378 378 377 377 376 376 377 377 378 378 379 379 379 379 378 378 380 380 381 381 380 380 378 378 380 380 381 381 382 382 350 350 383 383 281 281 380 380 281 281 383 383 281 281 380 380 384 384 382 382 384 384 380 380 353 353 385 385 257 257 386 386 257 257 385 385 257 257 386 386 329 329 387 387 331 331 388 388 356 356 388 388 331 331 388 388 356 356 389 389 390 390 389 389 356 356 339 339 391 391 288 288 392 392 288 288 391 391 288 288 392 392 393 393 393 393 394 394 288 288 395 395 288 288 394 394 288 288 395 395 340 340 396 396 397 397 398 398 399 399 400 400 398 398 401 401 402 402 403 403 404 404 405 405 406 406 407 407 406 406 405 405 408 408 409 409 410 410 411 411 412 412 404 404 413 413 404 404 412 412 414 414 415 415 403 403 416 416 403 403 415 415 403 403 416 416 398 398 398 398 417 417 418 418 419 419 420 420 398 398 421 421 398 398 420 420 399 399 398 398 422 422 400 400 423 423 398 398 424 424 398 398 423 423 398 398 424 424 403 403 404 404 425 425 426 426 398 398 427 427 428 428 429 429 428 428 427 427 428 428 429 429 430 430 431 431 417 417 432 432 433 433 432 432 417 417 418 418 434 434 398 398 435 435 398 398 434 434 398 398 435 435 436 436 436 436 437 437 398 398 438 438 398 398 437 437 398 398 438 438 439 439 421 421 440 440 398 398 441 441 398 398 440 440 398 398 441 441 396 396 397 397 442 442 398 398 443 443 398 398 442 442 398 398 443 443 444 444 445 445 446 446 405 405 447 447 405 405 446 446 405 405 447 447 407 407 404 404 410 410 448 448 413 413 449 449 404 404 450 450 404 404 449 449 404 404 450 450 405 405 451 451 452 452 403 403 402 402 453 453 403 403 454 454 403 403 453 453 403 403 454 454 455 455 433 433 417 417 456 456 398 398 456 456 417 417 456 456 398 398 457 457 428 428 457 457 398 398 457 457 428 428 458 458 459 459 460 460 461 461 439 439 462 462 398 398 463 463 398 398 462 462 398 398 463 463 464 464 464 464 465 465 398 398 466 466 398 398 465 465 398 398 466 466 419 419 444 444 467 467 398 398 468 468 398 398 467 467 398 398 468 468 422 422 448 448 469 469 404 404 470 470 404 404 469 469 404 404 470 470 411 411 471 471 403 403 405 405 472 472 405 405 403 403 405 405 472 472 445 445 455 455 473 473 403 403 474 474 403 403 473 473 403 403 474 474 475 475 475 475 476 476 403 403 477 477 403 403 476 476 403 403 477 477 414 414 478 478 479 479 459 459 480 480 481 481 482 482 483 483 484 484 408 408 471 471 485 485 403 403 486 486 403 403 485 485 403 403 486 486 487 487 478 478 459 459 488 488 487 487 489 489 403 403 490 490 403 403 489 489 403 403 490 490 491 491 491 491 492 492 403 403 493 493 403 403 492 492 403 403 493 493 451 451 452 452 494 494 403 403 495 495 403 403 494 494 403 403 495 495 496 496 496 496 497 497 403 403 498 498 403 403 497 497 403 403 498 498 401 401 488 488 459 459 432 432 461 461 432 432 459 459 432 432 461 461 480 480 480 480 482 482 432 432 499 499 432 432 482 482 432 432 499 499 431 431 426 426 500 500 404 404 501 501 404 404 500 500 404 404 501 501 410 410 502 502 410 410 501 501 410 410 502 502 408 408 503 503 408 408 502 502 408 408 503 503 483 483</p>
        </triangles>
      </mesh>
    </geometry>
  </library_geometries>
  <library_materials>
    <material id="3d0d4c38f3d24966b8d3a4fa4338eb59" name="defaultmaterial">
      <instance_effect url="#2bb2948b7c504d6f8e1b5ef3e329db95"/>
    </material>
  </library_materials>
  <library_visual_scenes>
    <visual_scene id="scene">
      <node id="node0" name="node0">
        <instance_geometry url="#0e783461129249628d991e12833749b8">
          <bind_material>
            <technique_common>
              <instance_material symbol="material0" target="#3d0d4c38f3d24966b8d3a4fa4338eb59"/>
            </technique_common>
          </bind_material>
        </instance_geometry>
      </node>
    </visual_scene>
  </library_visual_scenes>
  <scene>
    <instance_visual_scene url="#scene"/>
  </scene>
</COLLADA>
