<COLLADA xmlns="http://www.collada.org/2005/11/COLLADASchema" version="1.4.1">
  <asset>
    <created>2026-09-27T19:05:54.452723</created>
    <modified>2026-09-27T19:05:54.452723</modified>
    <up_axis>Y_UP</up_axis>
  </asset>
  <library_effects>
    <effect id="afd98a6ad84c4d2d89d80bb81c7a110a" name="afd98a6ad84c4d2d89d80bb81c7a110a">
      <profile_COMMON>
        <technique sid="common">
          <phong>
            <emission>
              <color>0.0 0.0 0.0 1.0</color>
            </emission>
            <ambient>
              <color>0.0 0.0 0.0 1.0</color>
            </ambient>
            <diffuse>
              <color>0.8941176470588236 0.8941176470588236 0.8941176470588236 1.0</color>
            </diffuse>
            <specular>
              <color>0.0 0.0 0.0 1.0</color>
            </specular>
            <shininess>
              <float>0.0</float>
            </shininess>
            <reflective>
              <color>0.0 0.0 0.0 1.0</color>
            </reflective>
            <reflectivity>
              <float>0.0</float>
            </reflectivity>
            <transparent>
              <color>0.0 0.0 0.0 1.0</color>
            </transparent>
            <transparency>
              <float>1.0</float>
            </transparency>
          </phong>
        </technique>
        <extra>
          <technique profile="GOOGLEEARTH">
            <double_sided>0</double_sided>
          </technique>
        </extra>
      </profile_COMMON>
    </effect>
  </library_effects>
  <library_geometries>
    <geometry id="78b592620be541809f860a4f529b176f" name="52fab6e5a24b4542b67a204da0237780">
      <mesh>
        <source id="verts-array">
          <float_array count="1056" id="verts-array-array">7.569659e-05 0.003009717 0.005972643 7.684116e-05 0.00305416 0.00597223 -0.01795581 0.002013447 0.005481872 -0.01794919 0.002270244 0.005471237 -0.01795679 0.001975501 0.005482224 -0.01796951 0.001481254 0.005486814 5.702489e-05 0.002284698 0.005979375 -0.01798988 0.0006903408 0.005494158 1.129894e-05 0.0005091685 0.005995861 -0.01803304 -0.0009854294 0.005509718 -7.762144e-05 -0.002943593 0.006027922 -0.01804069 -0.00128243 0.005501455 -8.580513e-05 -0.003261518 0.006014273 -0.01804866 -0.001592452 0.005469052 -9.324276e-05 -0.003550742 0.005971517 -0.01805692 -0.001913875 0.005409234 -0.0001001086 -0.003817974 0.005905915 -0.01806539 -0.002243629 0.005318842 -0.0001064928 -0.004066682 0.005820861 -0.01807397 -0.002577904 0.005194871 -0.0001124448 -0.004298768 0.005718312 -0.01808253 -0.002911499 0.005035451 -0.0001180018 -0.004515666 0.00559979 -0.01809089 -0.003237981 0.004839864 -0.0001231905 -0.004718396 0.005466427 -0.01809888 -0.003550616 0.004608947 -0.0001280285 -0.004907641 0.005319048 -0.01810633 -0.003842232 0.004346243 -0.000132519 -0.005083516 0.005157924 -0.01811306 -0.0041063 0.004056193 -0.000136663 -0.005246062 0.004983206 -0.01811896 -0.004338449 0.003745475 -0.0001404553 -0.005395079 0.004794871 -0.01812395 -0.004535224 0.003421168 -0.0001438882 -0.005530267 0.004592728 -0.01812801 -0.004696024 0.003089937 -0.0001469388 -0.005650745 0.004376017 -0.01813117 -0.00482156 0.002758178 -0.0001495778 -0.005755383 0.004143648 -0.01813346 -0.004913793 0.00243086 -0.0001517643 -0.005842606 0.003894098 -0.01813498 -0.004975719 0.002111802 -0.0001534469 -0.005910442 0.003625376 -0.0181358 -0.005010439 0.001803901 -0.0001545281 -0.005955141 0.003333438 -0.0001548527 -0.005970325 0.003055897 -0.01813602 -0.005021072 0.001547018 -0.0001548527 -0.005970737 0.003011439 -0.01813602 -0.005021424 0.00150906 -0.01813602 -0.005026015 0.001014649 -0.0001548527 -0.005977472 0.00228618 -0.01813602 -0.005033361 0.0002234734 -0.0001548527 -0.005993964 0.0005100621 -0.01813602 -0.005048927 -0.001452852 -0.0001548527 -0.006026035 -0.002943844 -0.01813573 -0.005040669 -0.001749952 -0.0001544254 -0.006012393 -0.003261874 -0.01813482 -0.005008279 -0.002060076 -0.0001532556 -0.005969652 -0.003551194 -0.01813321 -0.004948482 -0.002381605 -0.000151503 -0.005904074 -0.003818514 -0.0181308 -0.004858122 -0.002711468 -0.000149254 -0.00581905 -0.004067304 -0.01812753 -0.004734194 -0.003045853 -0.0001465586 -0.005716535 -0.004299466 -0.01812335 -0.004574829 -0.003379557 -0.0001434557 -0.005598055 -0.004516436 -0.01811823 -0.004379309 -0.003706147 -0.0001399741 -0.005464737 -0.004719232 -0.01811221 -0.00414847 -0.004018884 -0.000136135 -0.005317408 -0.004908538 -0.01810538 -0.003885855 -0.004310595 -0.0001319452 -0.005156338 -0.005084472 -0.01809785 -0.003595903 -0.004574748 -0.0001274086 -0.004981679 -0.00524707 -0.0180898 -0.003285289 -0.004806972 -0.0001225247 -0.004793408 -0.005396135 -0.0180814 -0.002961091 -0.005003811 -0.0001172887 -0.004591332 -0.005531367 -0.01807284 -0.00262997 -0.005164662 -0.0001116812 -0.004374694 -0.005651884 -0.01806427 -0.002298322 -0.005290237 -0.0001056744 -0.004142403 -0.005756555 -0.01805582 -0.001971114 -0.005382499 -9.922947e-05 -0.003892935 -0.005843805 -0.01804759 -0.001652161 -0.005444444 -9.229564e-05 -0.003624303 -0.005911662 -0.01803966 -0.001344362 -0.005479173 -8.476971e-05 -0.003332463 -0.005956374 -7.762144e-05 -0.003055014 -0.005971561 -0.01803304 -0.001087565 -0.005489808 -7.647687e-05 -0.00301057 -0.005971973 -0.01803206 -0.001049619 -0.00549016 -0.01801933 -0.0005553725 -0.00549475 -5.780518e-05 -0.002285552 -0.005978706 -0.01799897 0.0002355411 -0.005502094 -1.207923e-05 -0.0005100222 -0.005995192 -0.01795581 0.001911311 -0.005517654 7.684116e-05 0.002942739 -0.006027253 -0.01794816 0.002208312 -0.005509391 8.502484e-05 0.003260664 -0.006013604 -0.01794019 0.002518334 -0.005476988 9.246248e-05 0.003549888 -0.005970848 -0.01793192 0.002839757 -0.00541717 9.932834e-05 0.00381712 -0.005905246 -0.01792345 0.003169511 -0.005326778 0.0001057125 0.004065828 -0.005820192 -0.01791488 0.003503786 -0.005202806 0.0001116645 0.004297914 -0.005717642 -0.01790632 0.003837381 -0.005043387 0.0001172215 0.004514812 -0.005599121 -0.01789796 0.004163863 -0.0048478 0.0001224102 0.004717543 -0.005465758 -0.01788997 0.004476498 -0.004616883 0.0001272482 0.004906787 -0.005318378 -0.01788252 0.004768114 -0.004354179 0.0001317387 0.005082663 -0.005157255 -0.01787579 0.005032182 -0.004064129 0.0001358827 0.005245209 -0.004982536 -0.01786989 0.005264331 -0.003753411 0.000139675 0.005394225 -0.004794202 -0.0178649 0.005461106 -0.003429104 0.0001431079 0.005529413 -0.004592058 -0.01786084 0.005621906 -0.003097873 0.0001461586 0.005649892 -0.004375348 -0.01785768 0.005747442 -0.002766114 0.0001487976 0.00575453 -0.004142979 -0.01785538 0.005839675 -0.002438796 0.000150984 0.005841752 -0.003893428 -0.01785387 0.005901601 -0.002119737 0.0001526666 0.005909589 -0.003624707 -0.01785305 0.005936321 -0.001811837 0.0001537478 0.005954287 -0.003332769 0.0001540725 0.005969471 -0.003055228 -0.01785283 0.005946954 -0.001554954 0.0001540725 0.005969884 -0.00301077 -0.01785283 0.005947306 -0.001516996 -0.01785283 0.005951897 -0.001022585 0.0001540725 0.005976618 -0.002285511 -0.01785283 0.005959243 -0.0002314093 0.0001540725 0.00599311 -0.0005093927 -0.01785283 0.005974809 0.001444916 0.0001540725 0.006025181 0.002944513 -0.01785312 0.005966551 0.001742016 0.0001536451 0.006011539 0.003262544 -0.01785403 0.00593416 0.00205214 0.0001524753 0.005968799 0.003551863 -0.01785564 0.005874364 0.002373669 0.0001507227 0.00590322 0.003819183 -0.01785805 0.005784004 0.002703532 0.0001484737 0.005818196 0.004067974 -0.01786132 0.005660076 0.003037917 0.0001457783 0.005715682 0.004300136 -0.0178655 0.005500711 0.003371622 0.0001426754 0.005597201 0.004517105 -0.01787062 0.005305191 0.003698211 0.0001391938 0.005463883 0.004719902 -0.01787664 0.005074352 0.004010948 0.0001353547 0.005316554 0.004909208 -0.01788347 0.004811737 0.004302659 0.0001311649 0.005155485 0.005085141 -0.017891 0.004521784 0.004566812 0.0001266283 0.004980825 0.00524774 -0.01789905 0.004211171 0.004799037 0.0001217445 0.004792554 0.005396804 -0.01790745 0.003886973 0.004995875 0.0001165084 0.004590478 0.005532036 -0.01791601 0.003555852 0.005156727 0.0001109009 0.00437384 0.005652553 -0.01792458 0.003224204 0.005282301 0.0001048941 0.004141549 0.005757224 -0.01793303 0.002896996 0.005374564 9.844919e-05 0.003892082 0.005844474 -0.01794126 0.002578043 0.005436508 9.151536e-05 0.003623449 0.005912332 8.398943e-05 0.003331609 0.005957043 -0.01813602 -0.005048927 -0.001452852 -0.01813602 -0.005033361 0.0002234734 -0.01803304 -0.0009854294 0.005509718 -0.01813602 -0.005026015 0.001014649 -0.01813602 -0.005021424 0.00150906 -0.01785283 0.005974809 0.001444916 -0.01785283 0.005959243 -0.0002314093 -0.01799897 0.0002355411 -0.005502094 -0.01785283 0.005951897 -0.001022585 -0.01796951 0.001481254 0.005486814 -0.01798988 0.0006903408 0.005494158 -0.01801933 -0.0005553725 -0.00549475 -0.01813602 -0.005021072 0.001547018 -0.0181358 -0.005010439 0.001803901 -0.01804069 -0.00128243 0.005501455 -0.01813498 -0.004975719 0.002111802 -0.01804866 -0.001592452 0.005469052 -0.01813346 -0.004913793 0.00243086 -0.01805692 -0.001913875 0.005409234 -0.01813117 -0.00482156 0.002758178 -0.01806539 -0.002243629 0.005318842 -0.01812801 -0.004696024 0.003089937 -0.01807397 -0.002577904 0.005194871 -0.01812395 -0.004535224 0.003421168 -0.01808253 -0.002911499 0.005035451 -0.01811896 -0.004338449 0.003745475 -0.01809089 -0.003237981 0.004839864 -0.01811306 -0.0041063 0.004056193 -0.01809888 -0.003550616 0.004608947 -0.01810633 -0.003842232 0.004346243 -0.01803206 -0.001049619 -0.00549016 -0.01803304 -0.001087565 -0.005489808 -0.01803966 -0.001344362 -0.005479173 -0.01813573 -0.005040669 -0.001749952 -0.01804759 -0.001652161 -0.005444444 -0.01813482 -0.005008279 -0.002060076 -0.01805582 -0.001971114 -0.005382499 -0.01813321 -0.004948482 -0.002381605 -0.01806427 -0.002298322 -0.005290237 -0.0181308 -0.004858122 -0.002711468 -0.01807284 -0.00262997 -0.005164662 -0.01812753 -0.004734194 -0.003045853 -0.0180814 -0.002961091 -0.005003811 -0.01812335 -0.004574829 -0.003379557 -0.0180898 -0.003285289 -0.004806972 -0.01811823 -0.004379309 -0.003706147 -0.01809785 -0.003595903 -0.004574748 -0.01811221 -0.00414847 -0.004018884 -0.01810538 -0.003885855 -0.004310595 -0.01795679 0.001975501 0.005482224 -0.01795581 0.002013447 0.005481872 -0.01794919 0.002270244 0.005471237 -0.01785312 0.005966551 0.001742016 -0.01794126 0.002578043 0.005436508 -0.01785403 0.00593416 0.00205214 -0.01793303 0.002896996 0.005374564 -0.01785564 0.005874364 0.002373669 -0.01792458 0.003224204 0.005282301 -0.01785805 0.005784004 0.002703532 -0.01791601 0.003555852 0.005156727 -0.01786132 0.005660076 0.003037917 -0.01790745 0.003886973 0.004995875 -0.0178655 0.005500711 0.003371622 -0.01789905 0.004211171 0.004799037 -0.01787062 0.005305191 0.003698211 -0.017891 0.004521784 0.004566812 -0.01787664 0.005074352 0.004010948 -0.01788347 0.004811737 0.004302659 -0.01785283 0.005947306 -0.001516996 -0.01785283 0.005946954 -0.001554954 -0.01795581 0.001911311 -0.005517654 -0.01785305 0.005936321 -0.001811837 -0.01794816 0.002208312 -0.005509391 -0.01785387 0.005901601 -0.002119737 -0.01794019 0.002518334 -0.005476988 -0.01785538 0.005839675 -0.002438796 -0.01793192 0.002839757 -0.00541717 -0.01785768 0.005747442 -0.002766114 -0.01792345 0.003169511 -0.005326778 -0.01786084 0.005621906 -0.003097873 -0.01791488 0.003503786 -0.005202806 -0.0178649 0.005461106 -0.003429104 -0.01790632 0.003837381 -0.005043387 -0.01786989 0.005264331 -0.003753411 -0.01789796 0.004163863 -0.0048478 -0.01787579 0.005032182 -0.004064129 -0.01788997 0.004476498 -0.004616883 -0.01788252 0.004768114 -0.004354179 7.569659e-05 0.003009717 0.005972643 5.702489e-05 0.002284698 0.005979375 0.0001540725 0.00599311 -0.0005093927 -0.0001548527 -0.005970737 0.003011439 -0.0001548527 -0.005977472 0.00228618 1.129894e-05 0.0005091685 0.005995861 -7.647687e-05 -0.00301057 -0.005971973 -5.780518e-05 -0.002285552 -0.005978706 0.0001540725 0.005976618 -0.002285511 0.0001540725 0.005969884 -0.00301077 7.684116e-05 0.002942739 -0.006027253 -1.207923e-05 -0.0005100222 -0.005995192 -0.0001548527 -0.005993964 0.0005100621 -0.0001548527 -0.006026035 -0.002943844 0.0001116645 0.004297914 -0.005717642 0.0001172215 0.004514812 -0.005599121 0.0001540725 0.005969471 -0.003055228 0.0001224102 0.004717543 -0.005465758 0.0001272482 0.004906787 -0.005318378 -0.0001434557 -0.005598055 -0.004516436 -0.0001399741 -0.005464737 -0.004719232 0.0001317387 0.005082663 -0.005157255 0.0001358827 0.005245209 -0.004982536 0.000139675 0.005394225 -0.004794202 9.246248e-05 0.003549888 -0.005970848 9.932834e-05 0.00381712 -0.005905246 0.0001057125 0.004065828 -0.005820192 0.0001484737 0.005818196 0.004067974 0.0001457783 0.005715682 0.004300136 7.684116e-05 0.00305416 0.00597223 0.0001426754 0.005597201 0.004517105 0.0001391938 0.005463883 0.004719902 0.0001353547 0.005316554 0.004909208 0.0001431079 0.005529413 -0.004592058 0.0001461586 0.005649892 -0.004375348 0.0001487976 0.00575453 -0.004142979 0.0001311649 0.005155485 0.005085141 0.0001266283 0.004980825 0.00524774 0.0001217445 0.004792554 0.005396804 -0.0001064928 -0.004066682 0.005820861 -0.0001124448 -0.004298768 0.005718312 -0.0001548527 -0.005970325 0.003055897 -0.0001180018 -0.004515666 0.00559979 -0.0001231905 -0.004718396 0.005466427 -0.0001280285 -0.004907641 0.005319048 -0.000151503 -0.005904074 -0.003818514 -0.000149254 -0.00581905 -0.004067304 -0.0001465586 -0.005716535 -0.004299466 -0.000136135 -0.005317408 -0.004908538 -0.0001319452 -0.005156338 -0.005084472 -0.0001274086 -0.004981679 -0.00524707 8.502484e-05 0.003260664 -0.006013604 -0.000132519 -0.005083516 0.005157924 -0.000136663 -0.005246062 0.004983206 -0.0001404553 -0.005395079 0.004794871 -0.0001225247 -0.004793408 -0.005396135 -0.0001172887 -0.004591332 -0.005531367 -0.0001116812 -0.004374694 -0.005651884 0.000150984 0.005841752 -0.003893428 0.0001526666 0.005909589 -0.003624707 0.0001537478 0.005954287 -0.003332769 0.0001536451 0.006011539 0.003262544 0.0001524753 0.005968799 0.003551863 0.0001507227 0.00590322 0.003819183 0.0001165084 0.004590478 0.005532036 0.0001109009 0.00437384 0.005652553 0.0001048941 0.004141549 0.005757224 0.0001540725 0.006025181 0.002944513 -8.580513e-05 -0.003261518 0.006014273 -9.324276e-05 -0.003550742 0.005971517 -0.0001001086 -0.003817974 0.005905915 -0.0001438882 -0.005530267 0.004592728 -0.0001469388 -0.005650745 0.004376017 -0.0001495778 -0.005755383 0.004143648 -0.0001544254 -0.006012393 -0.003261874 -0.0001532556 -0.005969652 -0.003551194 9.844919e-05 0.003892082 0.005844474 9.151536e-05 0.003623449 0.005912332 8.398943e-05 0.003331609 0.005957043 -7.762144e-05 -0.002943593 0.006027922 -0.0001056744 -0.004142403 -0.005756555 -9.922947e-05 -0.003892935 -0.005843805 -9.229564e-05 -0.003624303 -0.005911662 -0.0001517643 -0.005842606 0.003894098 -0.0001534469 -0.005910442 0.003625376 -0.0001545281 -0.005955141 0.003333438 -8.476971e-05 -0.003332463 -0.005956374 -7.762144e-05 -0.003055014 -0.005971561</float_array>
          <technique_common>
            <accessor count="352" source="#verts-array-array" stride="3">
              <param type="float" name="X"/>
              <param type="float" name="Y"/>
              <param type="float" name="Z"/>
            </accessor>
          </technique_common>
        </source>
        <source id="normals-array">
          <float_array count="1056" id="normals-array-array">-0.02775786 0.009996289 0.9995647 -0.02902001 0.03384133 0.9990058 -0.02862833 0.02521694 0.999272 -0.03112268 0.0759751 0.9966239 -0.02775786 0.009996289 0.9995647 -0.02775786 0.009996289 0.9995647 -0.02775786 0.009996289 0.9995647 -0.02775786 0.009996289 0.9995647 -0.02775786 0.009996289 0.9995647 -0.02966727 -0.007520788 0.9995315 -0.03059943 -0.01730057 0.999382 -0.03557785 -0.06307175 0.9973746 -0.03861156 -0.09606398 0.994626 -0.04337414 -0.140597 0.9891164 -0.04794258 -0.1930328 0.9800203 -0.05079743 -0.2207385 0.9740093 -0.05569155 -0.2810271 0.9580826 -0.05782275 -0.3030725 0.9512116 -0.06224609 -0.3633071 0.9295877 -0.06428176 -0.3864881 0.9200515 -0.06773858 -0.4406924 0.8950987 -0.06996394 -0.4696414 0.8800807 -0.07222021 -0.5128845 0.8554144 -0.07468279 -0.5512286 0.8310051 -0.07579009 -0.5799029 0.8111526 -0.07823348 -0.6290831 0.7733912 -0.07854649 -0.6425205 0.7622321 -0.08049012 -0.7019726 0.707641 -0.08052962 -0.7011031 0.708498 -0.08138278 -0.7680586 0.6351873 -0.08171318 -0.755252 0.650321 -0.08092432 -0.8260583 0.5577444 -0.0820645 -0.8046842 0.588004 -0.07922255 -0.8755225 0.4766384 -0.08151755 -0.8495893 0.5211074 -0.07644891 -0.9159078 0.3940413 -0.0799401 -0.8899967 0.4489047 -0.07276941 -0.9475764 0.3111326 -0.07721975 -0.9252505 0.3714143 -0.06838611 -0.9709445 0.2293255 -0.07329217 -0.9545323 0.2889574 -0.06348391 -0.9867011 0.1496356 -0.06798099 -0.9773914 0.2002112 -0.05849297 -0.9954559 0.0751409 -0.061125 -0.9925326 0.1055597 -0.05535809 -0.9979186 0.03307598 -0.05474946 -0.9982004 0.02446467 -0.0534917 -0.9985252 0.009271778 -0.0534917 -0.9985252 0.009271778 -0.0534917 -0.9985252 0.009271778 -0.0534917 -0.9985252 0.009271778 -0.0534917 -0.9985252 0.009271778 -0.0534917 -0.9985252 0.009271778 -0.05494402 -0.998455 -0.008288995 -0.05561774 -0.9982882 -0.01808969 -0.05935285 -0.996185 -0.06397477 -0.06145753 -0.9933817 -0.09703468 -0.06491978 -0.987782 -0.1416764 -0.06789128 -0.9786072 -0.1942133 -0.06987134 -0.9725437 -0.2219837 -0.07279014 -0.9565373 -0.2823791 -0.0741721 -0.9496289 -0.3044725 -0.07647653 -0.9279391 -0.3648017 -0.07766556 -0.9183695 -0.3880277 -0.07907584 -0.8933726 -0.4423036 -0.08016482 -0.8783219 -0.4713006 -0.08066735 -0.8536347 -0.5145877 -0.08150985 -0.829196 -0.5529829 -0.08136535 -0.8093408 -0.5816762 -0.0815667 -0.771562 -0.6309033 -0.08124589 -0.7604074 -0.6443443 -0.08025179 -0.7058239 -0.7038268 -0.08033571 -0.706679 -0.7029587 -0.07757956 -0.6334148 -0.7699137 -0.07862834 -0.6485267 -0.75712 -0.07363989 -0.5560473 -0.827882 -0.07610621 -0.5862538 -0.8065447 -0.06858601 -0.4750437 -0.8772852 -0.07268718 -0.5194226 -0.8514204 -0.06265874 -0.392571 -0.9175848 -0.06821983 -0.4473104 -0.8917732 -0.05604467 -0.3098041 -0.9491472 -0.06260934 -0.3699379 -0.9269444 -0.04897095 -0.2281508 -0.9723935 -0.05582086 -0.2876274 -0.9561143 -0.04163035 -0.1486223 -0.9880174 -0.04765612 -0.1990606 -0.9788277 -0.03451544 -0.07428484 -0.9966396 -0.03799745 -0.1046247 -0.9937856 -0.03024586 -0.03231516 -0.99902 -0.0294107 -0.02372236 -0.9992859 -0.02775786 -0.008566693 -0.999578 -0.02775786 -0.008566693 -0.999578 -0.02775786 -0.008566693 -0.999578 -0.02775786 -0.008566693 -0.999578 -0.02775786 -0.008566693 -0.999578 -0.02775786 -0.008566693 -0.999578 -0.02876318 0.009025441 -0.9995455 -0.02919083 0.01884024 -0.9993963 -0.03180785 0.06480701 -0.9973908 -0.0331408 0.09791169 -0.9946431 -0.03560766 0.1426308 -0.9891352 -0.03747561 0.1952325 -0.9800407 -0.03890359 0.2230484 -0.9740308 -0.04069589 0.2835092 -0.9581056 -0.04169291 0.3056352 -0.9512354 -0.04302054 0.3660179 -0.9296129 -0.04386499 0.389273 -0.9200774 -0.04453935 0.4435837 -0.8951255 -0.04527899 0.4726091 -0.8801082 -0.04531841 0.5159113 -0.8554425 -0.04581588 0.5543316 -0.8310339 -0.0454554 0.5830251 -0.8111816 -0.04538237 0.6322664 -0.7734208 -0.04500869 0.6457022 -0.7622617 -0.04391594 0.7051762 -0.7076708 -0.04399973 0.7043099 -0.7085278 -0.04144072 0.7712214 -0.6352166 -0.04242258 0.7584486 -0.6503507 -0.03803473 0.8291217 -0.5577729 -0.04025903 0.8078342 -0.5880333 -0.03382815 0.8784337 -0.4766654 -0.03743359 0.8526524 -0.5211359 -0.02901909 0.9186237 -0.3940665 -0.03381304 0.892926 -0.4489319 -0.02375417 0.950062 -0.3111557 -0.02931887 0.927994 -0.3714398 -0.01821306 0.9731745 -0.2293462 -0.02392882 0.9570358 -0.2889806 -0.01254447 0.9886589 -0.1496538 -0.01749057 0.9795924 -0.2002317 -0.007145152 0.9971461 -0.07515659 -0.009909617 0.9943618 -0.1055767 -0.003907782 0.9994447 -0.03309015 -0.00328957 0.9996949 -0.02447855 -0.002024024 0.9999548 -0.009285052 -0.002024024 0.9999548 -0.009285052 -0.002024024 0.9999548 -0.009285052 -0.002024024 0.9999548 -0.009285052 -0.002024024 0.9999548 -0.009285052 -0.002024024 0.9999548 -0.009285052 -0.003486423 0.9999597 0.008275024 -0.004172519 0.9998279 0.0180754 -0.008032854 0.9979202 0.06395866 -0.01029483 0.9952294 0.09701753 -0.01406203 0.9898158 0.1416575 -0.01752691 0.9808068 0.1941928 -0.01982969 0.9748536 0.2219623 -0.0235973 0.9590194 0.2823561 -0.02534356 0.9521915 0.3044487 -0.0287901 0.9306499 0.3647765 -0.03048119 0.9211544 0.3880019 -0.03320209 0.8962639 0.4422767 -0.03507811 0.8812895 0.4712731 -0.03687127 0.8566615 0.5145596 -0.03898882 0.832299 0.5529541 -0.03988014 0.812463 0.5816472 -0.04204915 0.7747452 0.6308738 -0.04230929 0.7635891 0.6443148 -0.04415426 0.7090275 0.7037971 -0.04419364 0.7098858 0.7029289 -0.04524393 0.6365776 0.7698844 -0.04550742 0.6517233 0.7570903 -0.04531915 0.5591106 0.8278536 -0.04621733 0.5894038 0.8065154 -0.04446469 0.4779549 0.8772582 -0.04626396 0.5224858 0.851392 -0.04280926 0.3952869 0.9175596 -0.04553331 0.4502397 0.891746 -0.04047891 0.3122897 0.9491241 -0.04392929 0.3726814 0.926919 -0.03762823 0.2303809 0.9723728 -0.04140013 0.2901309 0.956091 -0.03439802 0.1505801 0.9879992 -0.03781544 0.2012616 0.9788073 -0.03303717 0.1064539 0.9937686 -0.9996686 0.02574266 -0.0002390327 -0.9996686 0.02574266 -0.0002390327 -0.9996686 0.02574266 -0.0002390327 -0.9996686 0.02574266 -0.0002390327 -0.9996686 0.02574266 -0.0002390327 -0.9996686 0.02574266 -0.0002390327 -0.9996686 0.02574266 -0.0002390327 -0.9996686 0.02574266 -0.0002390327 -0.9996686 0.02574266 -0.0002390327 -0.9996686 0.02574266 -0.0002390327 -0.9996686 0.02574266 -0.0002390327 -0.9996686 0.02574266 -0.0002390327 -0.9996686 0.02574266 -0.0002390327 -0.9996686 0.02574266 -0.0002390327 -0.9996686 0.02574266 -0.0002390327 -0.9996686 0.02574266 -0.0002390327 -0.9996686 0.02574266 -0.0002390327 -0.9996686 0.02574266 -0.0002390327 -0.9996686 0.02574266 -0.0002390327 -0.9996686 0.02574266 -0.0002390327 -0.9996686 0.02574266 -0.0002390327 -0.9996686 0.02574266 -0.0002390327 -0.9996686 0.02574266 -0.0002390327 -0.9996686 0.02574266 -0.0002390327 -0.9996686 0.02574266 -0.0002390327 -0.9996686 0.02574266 -0.0002390327 -0.9996686 0.02574266 -0.0002390327 -0.9996686 0.02574266 -0.0002390327 -0.9996686 0.02574266 -0.0002390327 -0.9996686 0.02574266 -0.0002390327 -0.9996686 0.02574266 -0.0002390327 -0.9996686 0.02574266 -0.0002390327 -0.9996686 0.02574266 -0.0002390327 -0.9996686 0.02574266 -0.0002390327 -0.9996686 0.02574266 -0.0002390327 -0.9996686 0.02574266 -0.0002390327 -0.9996686 0.02574266 -0.0002390327 -0.9996686 0.02574266 -0.0002390327 -0.9996686 0.02574266 -0.0002390327 -0.9996686 0.02574266 -0.0002390327 -0.9996686 0.02574266 -0.0002390327 -0.9996686 0.02574266 -0.0002390327 -0.9996686 0.02574266 -0.0002390327 -0.9996686 0.02574266 -0.0002390327 -0.9996686 0.02574266 -0.0002390327 -0.9996686 0.02574266 -0.0002390327 -0.9996686 0.02574266 -0.0002390327 -0.9996686 0.02574266 -0.0002390327 -0.9996686 0.02574266 -0.0002390327 -0.9996686 0.02574266 -0.0002390327 -0.9996686 0.02574266 -0.0002390327 -0.9996686 0.02574266 -0.0002390327 -0.9996686 0.02574266 -0.0002390327 -0.9996686 0.02574266 -0.0002390327 -0.9996686 0.02574266 -0.0002390327 -0.9996686 0.02574266 -0.0002390327 -0.9996686 0.02574266 -0.0002390327 -0.9996686 0.02574266 -0.0002390327 -0.9996686 0.02574266 -0.0002390327 -0.9996686 0.02574266 -0.0002390327 -0.9996686 0.02574266 -0.0002390327 -0.9996686 0.02574266 -0.0002390327 -0.9996686 0.02574266 -0.0002390327 -0.9996686 0.02574266 -0.0002390327 -0.9996686 0.02574266 -0.0002390327 -0.9996686 0.02574266 -0.0002390327 -0.9996686 0.02574266 -0.0002390327 -0.9996686 0.02574266 -0.0002390327 -0.9996686 0.02574266 -0.0002390327 -0.9996686 0.02574266 -0.0002390327 -0.9996686 0.02574266 -0.0002390327 -0.9996686 0.02574266 -0.0002390327 -0.9996686 0.02574266 -0.0002390327 -0.9996686 0.02574266 -0.0002390327 -0.9996686 0.02574266 -0.0002390327 -0.9996686 0.02574266 -0.0002390327 -0.9996686 0.02574266 -0.0002390327 -0.9996686 0.02574266 -0.0002390327 -0.9996686 0.02574266 -0.0002390327 -0.9996686 0.02574266 -0.0002390327 -0.9996686 0.02574266 -0.0002390327 -0.9996686 0.02574266 -0.0002390327 -0.9996686 0.02574266 -0.0002390327 -0.9996686 0.02574266 -0.0002390327 -0.9996686 0.02574266 -0.0002390327 -0.9996686 0.02574266 -0.0002390327 -0.9996686 0.02574266 -0.0002390327 -0.9996686 0.02574266 -0.0002390327 0.9996686 -0.02574266 0.0002390327 0.9996686 -0.02574266 0.0002390327 0.9996686 -0.02574266 0.0002390327 0.9996686 -0.02574266 0.0002390327 0.9996686 -0.02574266 0.0002390327 0.9996686 -0.02574266 0.0002390327 0.9996686 -0.02574266 0.0002390327 0.9996686 -0.02574266 0.0002390327 0.9996686 -0.02574266 0.0002390327 0.9996686 -0.02574266 0.0002390327 0.9996686 -0.02574266 0.0002390327 0.9996686 -0.02574266 0.0002390327 0.9996686 -0.02574266 0.0002390327 0.9996686 -0.02574266 0.0002390327 0.9996686 -0.02574266 0.0002390327 0.9996686 -0.02574266 0.0002390327 0.9996686 -0.02574266 0.0002390327 0.9996686 -0.02574266 0.0002390327 0.9996686 -0.02574266 0.0002390327 0.9996686 -0.02574266 0.0002390327 0.9996686 -0.02574266 0.0002390327 0.9996686 -0.02574266 0.0002390327 0.9996686 -0.02574266 0.0002390327 0.9996686 -0.02574266 0.0002390327 0.9996686 -0.02574266 0.0002390327 0.9996686 -0.02574266 0.0002390327 0.9996686 -0.02574266 0.0002390327 0.9996686 -0.02574266 0.0002390327 0.9996686 -0.02574266 0.0002390327 0.9996686 -0.02574266 0.0002390327 0.9996686 -0.02574266 0.0002390327 0.9996686 -0.02574266 0.0002390327 0.9996686 -0.02574266 0.0002390327 0.9996686 -0.02574266 0.0002390327 0.9996686 -0.02574266 0.0002390327 0.9996686 -0.02574266 0.0002390327 0.9996686 -0.02574266 0.0002390327 0.9996686 -0.02574266 0.0002390327 0.9996686 -0.02574266 0.0002390327 0.9996686 -0.02574266 0.0002390327 0.9996686 -0.02574266 0.0002390327 0.9996686 -0.02574266 0.0002390327 0.9996686 -0.02574266 0.0002390327 0.9996686 -0.02574266 0.0002390327 0.9996686 -0.02574266 0.0002390327 0.9996686 -0.02574266 0.0002390327 0.9996686 -0.02574266 0.0002390327 0.9996686 -0.02574266 0.0002390327 0.9996686 -0.02574266 0.0002390327 0.9996686 -0.02574266 0.0002390327 0.9996686 -0.02574266 0.0002390327 0.9996686 -0.02574266 0.0002390327 0.9996686 -0.02574266 0.0002390327 0.9996686 -0.02574266 0.0002390327 0.9996686 -0.02574266 0.0002390327 0.9996686 -0.02574266 0.0002390327 0.9996686 -0.02574266 0.0002390327 0.9996686 -0.02574266 0.0002390327 0.9996686 -0.02574266 0.0002390327 0.9996686 -0.02574266 0.0002390327 0.9996686 -0.02574266 0.0002390327 0.9996686 -0.02574266 0.0002390327 0.9996686 -0.02574266 0.0002390327 0.9996686 -0.02574266 0.0002390327 0.9996686 -0.02574266 0.0002390327 0.9996686 -0.02574266 0.0002390327 0.9996686 -0.02574266 0.0002390327 0.9996686 -0.02574266 0.0002390327 0.9996686 -0.02574266 0.0002390327 0.9996686 -0.02574266 0.0002390327 0.9996686 -0.02574266 0.0002390327 0.9996686 -0.02574266 0.0002390327 0.9996686 -0.02574266 0.0002390327 0.9996686 -0.02574266 0.0002390327 0.9996686 -0.02574266 0.0002390327 0.9996686 -0.02574266 0.0002390327 0.9996686 -0.02574266 0.0002390327 0.9996686 -0.02574266 0.0002390327 0.9996686 -0.02574266 0.0002390327 0.9996686 -0.02574266 0.0002390327 0.9996686 -0.02574266 0.0002390327 0.9996686 -0.02574266 0.0002390327 0.9996686 -0.02574266 0.0002390327 0.9996686 -0.02574266 0.0002390327 0.9996686 -0.02574266 0.0002390327 0.9996686 -0.02574266 0.0002390327 0.9996686 -0.02574266 0.0002390327 0.9996686 -0.02574266 0.0002390327</float_array>
          <technique_common>
            <accessor count="352" source="#normals-array-array" stride="3">
              <param type="float" name="X"/>
              <param type="float" name="Y"/>
              <param type="float" name="Z"/>
            </accessor>
          </technique_common>
        </source>
        <vertices id="verts-array-vertices">
          <input semantic="POSITION" source="#verts-array"/>
        </vertices>
        <triangles count="348" material="material0">
          <input offset="0" semantic="VERTEX" source="#verts-array-vertices"/>
          <input offset="1" semantic="NORMAL" source="#normals-array"/>
          <p>0 0 1 1 2 2 3 3 2 2 1 1 2 2 4 4 0 0 5 5 0 0 4 4 0 0 5 5 6 6 7 7 6 6 5 5 6 6 7 7 8 8 9 9 8 8 7 7 8 8 9 9 10 10 11 11 10 10 9 9 10 10 11 11 12 12 13 13 12 12 11 11 12 12 13 13 14 14 15 15 14 14 13 13 14 14 15 15 16 16 17 17 16 16 15 15 16 16 17 17 18 18 19 19 18 18 17 17 18 18 19 19 20 20 21 21 20 20 19 19 20 20 21 21 22 22 23 23 22 22 21 21 22 22 23 23 24 24 25 25 24 24 23 23 24 24 25 25 26 26 27 27 26 26 25 25 26 26 27 27 28 28 29 29 28 28 27 27 28 28 29 29 30 30 31 31 30 30 29 29 30 30 31 31 32 32 33 33 32 32 31 31 32 32 33 33 34 34 35 35 34 34 33 33 34 34 35 35 36 36 37 37 36 36 35 35 36 36 37 37 38 38 39 39 38 38 37 37 38 38 39 39 40 40 41 41 40 40 39 39 40 40 41 41 42 42 43 43 42 42 41 41 42 42 43 43 44 44 44 44 43 43 45 45 46 46 45 45 43 43 45 45 46 46 47 47 46 46 48 48 47 47 49 49 47 47 48 48 47 47 49 49 50 50 51 51 50 50 49 49 50 50 51 51 52 52 53 53 52 52 51 51 52 52 53 53 54 54 55 55 54 54 53 53 54 54 55 55 56 56 57 57 56 56 55 55 56 56 57 57 58 58 59 59 58 58 57 57 58 58 59 59 60 60 61 61 60 60 59 59 60 60 61 61 62 62 63 63 62 62 61 61 62 62 63 63 64 64 65 65 64 64 63 63 64 64 65 65 66 66 67 67 66 66 65 65 66 66 67 67 68 68 69 69 68 68 67 67 68 68 69 69 70 70 71 71 70 70 69 69 70 70 71 71 72 72 73 73 72 72 71 71 72 72 73 73 74 74 75 75 74 74 73 73 74 74 75 75 76 76 77 77 76 76 75 75 76 76 77 77 78 78 79 79 78 78 77 77 78 78 79 79 80 80 81 81 80 80 79 79 80 80 81 81 82 82 83 83 82 82 81 81 82 82 83 83 84 84 85 85 84 84 83 83 84 84 85 85 86 86 87 87 86 86 85 85 86 86 87 87 88 88 88 88 87 87 89 89 90 90 89 89 87 87 89 89 90 90 91 91 90 90 92 92 91 91 93 93 91 91 92 92 91 91 93 93 94 94 95 95 94 94 93 93 94 94 95 95 96 96 97 97 96 96 95 95 96 96 97 97 98 98 99 99 98 98 97 97 98 98 99 99 100 100 101 101 100 100 99 99 100 100 101 101 102 102 103 103 102 102 101 101 102 102 103 103 104 104 105 105 104 104 103 103 104 104 105 105 106 106 107 107 106 106 105 105 106 106 107 107 108 108 109 109 108 108 107 107 108 108 109 109 110 110 111 111 110 110 109 109 110 110 111 111 112 112 113 113 112 112 111 111 112 112 113 113 114 114 115 115 114 114 113 113 114 114 115 115 116 116 117 117 116 116 115 115 116 116 117 117 118 118 119 119 118 118 117 117 118 118 119 119 120 120 121 121 120 120 119 119 120 120 121 121 122 122 123 123 122 122 121 121 122 122 123 123 124 124 125 125 124 124 123 123 124 124 125 125 126 126 127 127 126 126 125 125 126 126 127 127 128 128 129 129 128 128 127 127 128 128 129 129 130 130 131 131 130 130 129 129 130 130 131 131 132 132 132 132 131 131 133 133 134 134 133 133 131 131 133 133 134 134 135 135 134 134 136 136 135 135 137 137 135 135 136 136 135 135 137 137 138 138 139 139 138 138 137 137 138 138 139 139 140 140 141 141 140 140 139 139 140 140 141 141 142 142 143 143 142 142 141 141 142 142 143 143 144 144 145 145 144 144 143 143 144 144 145 145 146 146 147 147 146 146 145 145 146 146 147 147 148 148 149 149 148 148 147 147 148 148 149 149 150 150 151 151 150 150 149 149 150 150 151 151 152 152 153 153 152 152 151 151 152 152 153 153 154 154 155 155 154 154 153 153 154 154 155 155 156 156 157 157 156 156 155 155 156 156 157 157 158 158 159 159 158 158 157 157 158 158 159 159 160 160 161 161 160 160 159 159 160 160 161 161 162 162 163 163 162 162 161 161 162 162 163 163 164 164 165 165 164 164 163 163 164 164 165 165 166 166 167 167 166 166 165 165 166 166 167 167 168 168 169 169 168 168 167 167 168 168 169 169 170 170 171 171 170 170 169 169 170 170 171 171 172 172 173 173 172 172 171 171 172 172 173 173 174 174 3 3 174 174 173 173 174 174 3 3 175 175 1 1 175 175 3 3 176 176 177 177 178 178 179 179 178 178 177 177 178 178 179 179 180 180 181 181 182 182 183 183 184 184 183 183 182 182 185 185 183 183 186 186 187 187 186 186 183 183 186 186 187 187 178 178 180 180 188 188 178 178 189 189 178 178 188 188 178 178 189 189 190 190 191 191 190 190 189 189 190 190 191 191 192 192 193 193 192 192 191 191 192 192 193 193 194 194 195 195 194 194 193 193 194 194 195 195 196 196 197 197 196 196 195 195 196 196 197 197 198 198 199 199 198 198 197 197 198 198 199 199 200 200 201 201 200 200 199 199 200 200 201 201 202 202 203 203 202 202 201 201 202 202 203 203 204 204 205 205 204 204 203 203 187 187 206 206 178 178 207 207 178 178 206 206 178 178 207 207 176 176 208 208 176 176 207 207 176 176 208 208 209 209 210 210 209 209 208 208 209 209 210 210 211 211 212 212 211 211 210 210 211 211 212 212 213 213 214 214 213 213 212 212 213 213 214 214 215 215 216 216 215 215 214 214 215 215 216 216 217 217 218 218 217 217 216 216 217 217 218 218 219 219 220 220 219 219 218 218 219 219 220 220 221 221 222 222 221 221 220 220 221 221 222 222 223 223 224 224 223 223 222 222 185 185 225 225 183 183 226 226 183 183 225 225 183 183 226 226 181 181 227 227 181 181 226 226 181 181 227 227 228 228 229 229 228 228 227 227 228 228 229 229 230 230 231 231 230 230 229 229 230 230 231 231 232 232 233 233 232 232 231 231 232 232 233 233 234 234 235 235 234 234 233 233 234 234 235 235 236 236 237 237 236 236 235 235 236 236 237 237 238 238 239 239 238 238 237 237 238 238 239 239 240 240 241 241 240 240 239 239 240 240 241 241 242 242 243 243 242 242 241 241 184 184 244 244 183 183 245 245 183 183 244 244 183 183 245 245 246 246 247 247 246 246 245 245 246 246 247 247 248 248 249 249 248 248 247 247 248 248 249 249 250 250 251 251 250 250 249 249 250 250 251 251 252 252 253 253 252 252 251 251 252 252 253 253 254 254 255 255 254 254 253 253 254 254 255 255 256 256 257 257 256 256 255 255 256 256 257 257 258 258 259 259 258 258 257 257 258 258 259 259 260 260 261 261 260 260 259 259 260 260 261 261 262 262 263 263 262 262 261 261 264 264 265 265 266 266 267 267 268 268 269 269 270 270 271 271 265 265 266 266 265 265 272 272 273 273 272 272 274 274 265 265 274 274 272 272 274 274 265 265 275 275 271 271 275 275 265 265 269 269 268 268 265 265 276 276 265 265 268 268 265 265 276 276 277 277 278 278 279 279 280 280 281 281 280 280 279 279 280 280 281 281 282 282 283 283 284 284 265 265 282 282 285 285 280 280 286 286 280 280 285 285 280 280 286 286 287 287 288 288 289 289 280 280 290 290 280 280 289 289 280 280 290 290 278 278 291 291 292 292 293 293 292 292 294 294 293 293 295 295 293 293 294 294 293 293 295 295 296 296 287 287 297 297 280 280 298 298 280 280 297 297 280 280 298 298 299 299 296 296 300 300 293 293 301 301 293 293 300 300 293 293 301 301 302 302 303 303 304 304 305 305 304 304 306 306 305 305 307 307 305 305 306 306 305 305 307 307 308 308 309 309 310 310 265 265 311 311 265 265 310 310 265 265 311 311 283 283 284 284 312 312 265 265 313 313 265 265 312 312 265 265 313 313 314 314 273 273 274 274 280 280 315 315 280 280 274 274 280 280 315 315 288 288 308 308 316 316 305 305 317 317 305 305 316 316 305 305 317 317 318 318 314 314 319 319 265 265 320 320 265 265 319 319 265 265 320 320 321 321 299 299 322 322 280 280 323 323 280 280 322 322 280 280 323 323 324 324 325 325 326 326 293 293 327 327 293 293 326 326 293 293 327 327 291 291 302 302 328 328 293 293 329 329 293 293 328 328 293 293 329 329 330 330 264 264 266 266 293 293 331 331 293 293 266 266 293 293 331 331 325 325 332 332 333 333 305 305 334 334 305 305 333 333 305 305 334 334 303 303 318 318 335 335 305 305 336 336 305 305 335 335 305 305 336 336 337 337 277 277 338 338 265 265 339 339 265 265 338 338 265 265 339 339 309 309 330 330 340 340 293 293 341 341 293 293 340 340 293 293 341 341 342 342 267 267 269 269 305 305 343 343 305 305 269 269 305 305 343 343 332 332 321 321 344 344 265 265 345 345 265 265 344 344 265 265 345 345 346 346 337 337 347 347 305 305 348 348 305 305 347 347 305 305 348 348 349 349 346 346 350 350 265 265 351 351 265 265 350 350 265 265 351 351 270 270</p>
        </triangles>
      </mesh>
    </geometry>
  </library_geometries>
  <library_materials>
    <material id="2c4af995d2fe4e738219705c40669202" name="defaultmaterial">
      <instance_effect url="#afd98a6ad84c4d2d89d80bb81c7a110a"/>
    </material>
  </library_materials>
  <library_visual_scenes>
    <visual_scene id="scene">
      <node id="node0" name="node0">
        <instance_geometry url="#78b592620be541809f860a4f529b176f">
          <bind_material>
            <technique_common>
              <instance_material symbol="material0" target="#2c4af995d2fe4e738219705c40669202"/>
            </technique_common>
          </bind_material>
        </instance_geometry>
      </node>
    </visual_scene>
  </library_visual_scenes>
  <scene>
    <instance_visual_scene url="#scene"/>
  </scene>
</COLLADA>
