<COLLADA xmlns="http://www.collada.org/2005/11/COLLADASchema" version="1.4.1">
  <asset>
    <created>2026-09-27T22:07:53.397394</created>
    <modified>2026-09-27T22:07:53.397394</modified>
    <up_axis>Y_UP</up_axis>
  </asset>
  <library_effects>
    <effect id="71214644afb64b89877eab615280cc92" name="71214644afb64b89877eab615280cc92">
      <profile_COMMON>
        <technique sid="common">
          <phong>
            <emission>
              <color>0.0 0.0 0.0 1.0</color>
            </emission>
            <ambient>
              <color>0.0 0.0 0.0 1.0</color>
            </ambient>
            <diffuse>
              <color>0.4823529411764706 0.23137254901960785 0.01568627450980392 1.0</color>
            </diffuse>
            <specular>
              <color>0.0 0.0 0.0 1.0</color>
            </specular>
            <shininess>
              <float>0.0</float>
            </shininess>
            <reflective>
              <color>0.0 0.0 0.0 1.0</color>
            </reflective>
            <reflectivity>
              <float>0.0</float>
            </reflectivity>
            <transparent>
              <color>0.0 0.0 0.0 1.0</color>
            </transparent>
            <transparency>
              <float>1.0</float>
            </transparency>
          </phong>
        </technique>
        <extra>
          <technique profile="GOOGLEEARTH">
            <double_sided>0</double_sided>
          </technique>
        </extra>
      </profile_COMMON>
    </effect>
  </library_effects>
  <library_geometries>
    <geometry id="8bfab57885b149a2be8bf7ccbcc1f04e" name="4fdcd450167e42ceab863475b961c48e">
      <mesh>
        <source id="verts-array">
          <float_array count="360" id="verts-array-array">-0.6245767 -0.9631944 0.02 -0.6142207 -0.9711394 0.02 2.829e-07 5.96e-07 0.02 -0.6062747 -1.031495 0.02 -0.6142207 -1.04185 0.02 2.829e-07 -2 0.02 -0.6012797 -1.019436 0.02 -0.6245767 -1.049796 0.02 -0.6366357 -1.054791 0.02 -0.8 -2 0.02 -0.6495767 -1.056495 0.02 -0.6625177 -1.054791 0.02 -0.6062747 -0.9814954 0.02 -0.6012797 -0.9935544 0.02 -0.5995767 -1.006495 0.02 -0.6745763 -1.049796 0.02 -0.6849316 -1.04185 0.02 -0.6928776 -1.031495 0.02 -0.6928776 -0.9814954 0.02 -0.6849316 -0.9711394 0.02 -0.8 5.96e-07 0.02 -0.6745763 -0.9631944 0.02 -0.6625177 -0.9581994 0.02 -0.6495767 -0.9564954 0.02 -0.6366357 -0.9581994 0.02 -0.6978726 -1.019436 0.02 -0.6995763 -1.006495 0.02 -0.6978726 -0.9935544 0.02 -0.6062747 -0.9814954 -0.02 -0.6142207 -0.9711394 -0.02 2.829e-07 5.96e-07 -0.02 -0.6928776 -1.031495 -0.02 -0.6849316 -1.04185 -0.02 -0.8 -2 -0.02 -0.6745763 -1.049796 -0.02 -0.6366357 -1.054791 -0.02 2.829e-07 -2 -0.02 -0.6495767 -1.056495 -0.02 -0.6625177 -1.054791 -0.02 -0.6245767 -0.9631944 -0.02 -0.6366357 -0.9581994 -0.02 -0.8 5.96e-07 -0.02 -0.6495767 -0.9564954 -0.02 -0.6625177 -0.9581994 -0.02 -0.6245767 -1.049796 -0.02 -0.6142207 -1.04185 -0.02 -0.6062747 -1.031495 -0.02 -0.6745763 -0.9631944 -0.02 -0.6849316 -0.9711394 -0.02 -0.6928776 -0.9814954 -0.02 -0.6978726 -0.9935544 -0.02 -0.6995763 -1.006495 -0.02 -0.6978726 -1.019436 -0.02 -0.6012797 -1.019436 -0.02 -0.5995767 -1.006495 -0.02 -0.6012797 -0.9935544 -0.02 2.829e-07 5.96e-07 0.02 2.829e-07 -2 0.02 2.829e-07 5.96e-07 -0.02 2.829e-07 -2 -0.02 2.829e-07 -2 0.02 -0.8 -2 0.02 2.829e-07 -2 -0.02 -0.8 -2 -0.02 -0.8 -2 0.02 -0.8 5.96e-07 0.02 -0.8 -2 -0.02 -0.8 5.96e-07 -0.02 -0.8 5.96e-07 0.02 2.829e-07 5.96e-07 0.02 -0.8 5.96e-07 -0.02 2.829e-07 5.96e-07 -0.02 -0.6995763 -1.006495 0.02 -0.6995763 -1.006495 -0.02 -0.6978726 -0.9935544 0.02 -0.6978726 -0.9935544 -0.02 -0.6928776 -0.9814954 0.02 -0.6928776 -0.9814954 -0.02 -0.6849316 -0.9711394 0.02 -0.6849316 -0.9711394 -0.02 -0.6745763 -0.9631944 0.02 -0.6745763 -0.9631944 -0.02 -0.6625177 -0.9581994 0.02 -0.6625177 -0.9581994 -0.02 -0.6495767 -0.9564954 0.02 -0.6495767 -0.9564954 -0.02 -0.6366357 -0.9581994 0.02 -0.6366357 -0.9581994 -0.02 -0.6245767 -0.9631944 0.02 -0.6245767 -0.9631944 -0.02 -0.6142207 -0.9711394 0.02 -0.6142207 -0.9711394 -0.02 -0.6062747 -0.9814954 0.02 -0.6062747 -0.9814954 -0.02 -0.6012797 -0.9935544 0.02 -0.6012797 -0.9935544 -0.02 -0.5995767 -1.006495 0.02 -0.5995767 -1.006495 -0.02 -0.6012797 -1.019436 0.02 -0.6012797 -1.019436 -0.02 -0.6062747 -1.031495 0.02 -0.6062747 -1.031495 -0.02 -0.6142207 -1.04185 0.02 -0.6142207 -1.04185 -0.02 -0.6245767 -1.049796 0.02 -0.6245767 -1.049796 -0.02 -0.6366357 -1.054791 0.02 -0.6366357 -1.054791 -0.02 -0.6495767 -1.056495 0.02 -0.6495767 -1.056495 -0.02 -0.6625177 -1.054791 0.02 -0.6625177 -1.054791 -0.02 -0.6745763 -1.049796 0.02 -0.6745763 -1.049796 -0.02 -0.6849316 -1.04185 0.02 -0.6849316 -1.04185 -0.02 -0.6928776 -1.031495 0.02 -0.6928776 -1.031495 -0.02 -0.6978726 -1.019436 0.02 -0.6978726 -1.019436 -0.02</float_array>
          <technique_common>
            <accessor count="120" source="#verts-array-array" stride="3">
              <param type="float" name="X"/>
              <param type="float" name="Y"/>
              <param type="float" name="Z"/>
            </accessor>
          </technique_common>
        </source>
        <source id="normals-array">
          <float_array count="360" id="normals-array-array">0 0 1 0 0 1 0 0 1 0 0 1 0 0 1 0 0 1 0 0 1 0 0 1 0 0 1 0 0 1 0 0 1 0 0 1 0 0 1 0 0 1 0 0 1 0 0 1 0 0 1 0 0 1 0 0 1 0 0 1 0 0 1 0 0 1 0 0 1 0 0 1 0 0 1 0 0 1 0 0 1 0 0 1 0 0 -1 0 0 -1 0 0 -1 0 0 -1 0 0 -1 0 0 -1 0 0 -1 0 0 -1 0 0 -1 0 0 -1 0 0 -1 0 0 -1 0 0 -1 0 0 -1 0 0 -1 0 0 -1 0 0 -1 0 0 -1 0 0 -1 0 0 -1 0 0 -1 0 0 -1 0 0 -1 0 0 -1 0 0 -1 0 0 -1 0 0 -1 0 0 -1 1 0 0 1 0 0 1 0 0 1 0 0 0 -1 0 0 -1 0 0 -1 0 0 -1 0 -1 0 0 -1 0 0 -1 0 0 -1 0 0 0 1 0 0 1 0 0 1 0 0 1 0 1 -5.591721e-16 0 1 -5.524887e-16 0 0.965926 -0.2588184 0 0.965926 -0.2588184 0 0.8660321 -0.4999884 0 0.8660321 -0.4999884 0 0.7070968 -0.7071167 0 0.7070968 -0.7071167 0 0.4999813 -0.8660362 0 0.4999813 -0.8660362 0 0.2588351 -0.9659215 0 0.2588351 -0.9659215 0 -5.524904e-16 -1 0 -5.614015e-16 -1 0 -0.2588295 -0.965923 0 -0.2588295 -0.965923 0 -0.4999621 -0.8660473 0 -0.4999621 -0.8660473 0 -0.7070853 -0.7071283 0 -0.7070853 -0.7071283 0 -0.8660321 -0.4999884 0 -0.8660321 -0.4999884 0 -0.9659329 -0.2587928 0 -0.9659329 -0.2587928 0 -1 -5.524849e-16 0 -1 -5.524849e-16 0 -0.9659329 0.2587928 0 -0.9659329 0.2587928 0 -0.8660204 0.5000086 0 -0.8660204 0.5000086 0 -0.7070903 0.7071233 0 -0.7070903 0.7071233 0 -0.4999884 0.8660321 0 -0.4999884 0.8660321 0 -0.2588295 0.965923 0 -0.2588295 0.965923 0 -5.614015e-16 1 0 -5.614015e-16 1 0 0.2588351 0.9659215 0 0.2588351 0.9659215 0 0.5000076 0.866021 0 0.5000076 0.866021 0 0.7071018 0.7071117 0 0.7071018 0.7071117 0 0.8660204 0.5000086 0 0.8660204 0.5000086 0 0.965926 0.2588184 0 0.965926 0.2588184 0</float_array>
          <technique_common>
            <accessor count="120" source="#normals-array-array" stride="3">
              <param type="float" name="X"/>
              <param type="float" name="Y"/>
              <param type="float" name="Z"/>
            </accessor>
          </technique_common>
        </source>
        <vertices id="verts-array-vertices">
          <input semantic="POSITION" source="#verts-array"/>
        </vertices>
        <triangles count="112" material="material0">
          <input offset="0" semantic="VERTEX" source="#verts-array-vertices"/>
          <input offset="1" semantic="NORMAL" source="#normals-array"/>
          <p>0 0 1 1 2 2 3 3 4 4 5 5 3 3 5 5 6 6 4 4 7 7 5 5 8 8 5 5 7 7 5 5 8 8 9 9 10 10 9 9 8 8 9 9 10 10 11 11 1 1 12 12 2 2 13 13 2 2 12 12 2 2 13 13 5 5 14 14 5 5 13 13 5 5 14 14 6 6 11 11 15 15 9 9 16 16 9 9 15 15 9 9 16 16 17 17 18 18 19 19 20 20 21 21 20 20 19 19 21 21 22 22 20 20 23 23 20 20 22 22 20 20 23 23 2 2 24 24 2 2 23 23 2 2 24 24 0 0 17 17 25 25 9 9 26 26 9 9 25 25 9 9 26 26 20 20 27 27 20 20 26 26 20 20 27 27 18 18 28 28 29 29 30 30 31 31 32 32 33 33 34 34 33 33 32 32 35 35 36 36 37 37 33 33 37 37 36 36 37 37 33 33 38 38 34 34 38 38 33 33 29 29 39 39 30 30 40 40 30 30 39 39 30 30 40 40 41 41 42 42 41 41 40 40 41 41 42 42 43 43 35 35 44 44 36 36 45 45 36 36 44 44 36 36 45 45 46 46 43 43 47 47 41 41 48 48 41 41 47 47 41 41 48 48 49 49 49 49 50 50 41 41 51 51 41 41 50 50 41 41 51 51 33 33 52 52 33 33 51 51 33 33 52 52 31 31 46 46 53 53 36 36 54 54 36 36 53 53 36 36 54 54 30 30 55 55 30 30 54 54 30 30 55 55 28 28 56 56 57 57 58 58 59 59 58 58 57 57 60 60 61 61 62 62 63 63 62 62 61 61 64 64 65 65 66 66 67 67 66 66 65 65 68 68 69 69 70 70 71 71 70 70 69 69 72 72 73 73 74 74 75 75 74 74 73 73 74 74 75 75 76 76 77 77 76 76 75 75 76 76 77 77 78 78 79 79 78 78 77 77 78 78 79 79 80 80 81 81 80 80 79 79 80 80 81 81 82 82 83 83 82 82 81 81 82 82 83 83 84 84 85 85 84 84 83 83 84 84 85 85 86 86 87 87 86 86 85 85 86 86 87 87 88 88 89 89 88 88 87 87 88 88 89 89 90 90 91 91 90 90 89 89 90 90 91 91 92 92 93 93 92 92 91 91 92 92 93 93 94 94 95 95 94 94 93 93 94 94 95 95 96 96 97 97 96 96 95 95 96 96 97 97 98 98 99 99 98 98 97 97 98 98 99 99 100 100 101 101 100 100 99 99 100 100 101 101 102 102 103 103 102 102 101 101 102 102 103 103 104 104 105 105 104 104 103 103 104 104 105 105 106 106 107 107 106 106 105 105 106 106 107 107 108 108 109 109 108 108 107 107 108 108 109 109 110 110 111 111 110 110 109 109 110 110 111 111 112 112 113 113 112 112 111 111 112 112 113 113 114 114 115 115 114 114 113 113 114 114 115 115 116 116 117 117 116 116 115 115 116 116 117 117 118 118 119 119 118 118 117 117 118 118 119 119 72 72 73 73 72 72 119 119</p>
        </triangles>
      </mesh>
    </geometry>
  </library_geometries>
  <library_materials>
    <material id="d69eedb4bd1c4a1b9ba4b2478172c4cc" name="defaultmaterial">
      <instance_effect url="#71214644afb64b89877eab615280cc92"/>
    </material>
  </library_materials>
  <library_visual_scenes>
    <visual_scene id="scene">
      <node id="node0" name="node0">
        <instance_geometry url="#8bfab57885b149a2be8bf7ccbcc1f04e">
          <bind_material>
            <technique_common>
              <instance_material symbol="material0" target="#d69eedb4bd1c4a1b9ba4b2478172c4cc"/>
            </technique_common>
          </bind_material>
        </instance_geometry>
      </node>
    </visual_scene>
  </library_visual_scenes>
  <scene>
    <instance_visual_scene url="#scene"/>
  </scene>
</COLLADA>
