<COLLADA xmlns="http://www.collada.org/2005/11/COLLADASchema" version="1.4.1">
  <asset>
    <created>2026-09-27T22:31:56.428047</created>
    <modified>2026-09-27T22:31:56.428047</modified>
    <up_axis>Y_UP</up_axis>
  </asset>
  <library_effects>
    <effect id="6530bd13928c490f8e0cd285d8b341ce" name="6530bd13928c490f8e0cd285d8b341ce">
      <profile_COMMON>
        <technique sid="common">
          <phong>
            <emission>
              <color>0.0 0.0 0.0 1.0</color>
            </emission>
            <ambient>
              <color>0.0 0.0 0.0 1.0</color>
            </ambient>
            <diffuse>
              <color>0.5019607843137255 0.5019607843137255 0.5019607843137255 1.0</color>
            </diffuse>
            <specular>
              <color>0.0 0.0 0.0 1.0</color>
            </specular>
            <shininess>
              <float>0.0</float>
            </shininess>
            <reflective>
              <color>0.0 0.0 0.0 1.0</color>
            </reflective>
            <reflectivity>
              <float>0.0</float>
            </reflectivity>
            <transparent>
              <color>0.0 0.0 0.0 1.0</color>
            </transparent>
            <transparency>
              <float>1.0</float>
            </transparency>
          </phong>
        </technique>
        <extra>
          <technique profile="GOOGLEEARTH">
            <double_sided>0</double_sided>
          </technique>
        </extra>
      </profile_COMMON>
    </effect>
  </library_effects>
  <library_geometries>
    <geometry id="02fafb9ca2db46d291f3d3c1dddddbcb" name="fec7733bc7fe4915af0e9af80e86b3c0">
      <mesh>
        <source id="verts-array">
          <float_array count="1548" id="verts-array-array">-2.232948e-06 0.0500807 0.1191463 -0.005806833 0.0497426 0.1191463 -2.232937e-06 8.070232e-05 0.1191463 0.02747327 0.0418551 0.1191463 0.01709881 0.0470653 0.1191463 0.005802447 0.0497426 0.1191463 0.04789727 0.01442082 0.1191463 0.04329907 0.0250807 0.1191463 0.03636647 0.0343927 0.1191463 0.04590857 -0.0197233 0.1191463 0.04923817 -0.008601698 0.1191463 0.04991317 0.002987902 0.1191463 0.02243777 -0.044601 0.1191463 0.03213717 -0.0382216 0.1191463 0.04010397 -0.0297773 0.1191463 -0.01153303 -0.0485716 0.1191463 -2.232927e-06 -0.0499193 0.1191463 0.01152859 -0.0485716 0.1191463 -0.04010833 -0.0297773 0.1191463 -0.03214163 -0.0382216 0.1191463 -0.02244213 -0.044601 0.1191463 -0.04991763 0.002987902 0.1191463 -0.04924263 -0.008601698 0.1191463 -0.04591303 -0.0197233 0.1191463 -0.03637093 0.0343927 0.1191463 -0.04330343 0.0250807 0.1191463 -0.04790163 0.01442082 0.1191463 -0.01710323 0.0470653 0.1191463 -0.02747763 0.0418551 0.1191463 -2.232948e-06 0.0500807 -0.1208537 0.005802447 0.0497426 -0.1208537 -2.232937e-06 8.070232e-05 -0.1208537 -0.02747763 0.0418551 -0.1208537 -0.01710323 0.0470653 -0.1208537 -0.005806833 0.0497426 -0.1208537 -0.04790163 0.01442082 -0.1208537 -0.04330343 0.0250807 -0.1208537 -0.03637093 0.0343927 -0.1208537 -0.04591303 -0.0197233 -0.1208537 -0.04924263 -0.008601698 -0.1208537 -0.04991763 0.002987902 -0.1208537 -0.02244213 -0.044601 -0.1208537 -0.03214163 -0.0382216 -0.1208537 -0.04010833 -0.0297773 -0.1208537 0.01152859 -0.0485716 -0.1208537 -2.232927e-06 -0.0499193 -0.1208537 -0.01153303 -0.0485716 -0.1208537 0.04010397 -0.0297773 -0.1208537 0.03213717 -0.0382216 -0.1208537 0.02243777 -0.044601 -0.1208537 0.04991317 0.002987902 -0.1208537 0.04923817 -0.008601698 -0.1208537 0.04590857 -0.0197233 -0.1208537 0.03636647 0.0343927 -0.1208537 0.04329907 0.0250807 -0.1208537 0.04789727 0.01442082 -0.1208537 0.01709881 0.0470653 -0.1208537 0.02747327 0.0418551 -0.1208537 -0.04924263 -0.008601698 -0.0995698 -0.04936113 -0.007670798 -0.0997708 -0.04924263 -0.008601698 -0.1208537 -0.04984713 -0.003853998 -0.1005946 -0.04991763 0.002987902 -0.1208537 -0.04855403 -0.0118658 -0.0983724 -0.04591303 -0.0197233 -0.1208537 -0.04769913 -0.0149193 -0.0968345 -0.04074883 -0.0288971 -0.0786183 -0.04162923 -0.0276175 -0.0823781 -0.04010833 -0.0297773 -0.1208537 -0.04272223 -0.0259001 -0.0858537 -0.04397573 -0.023717 -0.0891203 -0.04527913 -0.0211325 -0.0920669 -0.04591303 -0.0197233 -0.0933882 -0.04527403 -0.0210408 -0.0497266 -0.04010833 -0.0297773 0.1191463 -0.04591303 -0.0197233 -0.0483192 -0.04591303 -0.0197233 0.1191463 -0.04769913 -0.0149193 -0.0448729 -0.04397903 -0.023711 -0.0525792 -0.04272223 -0.0259001 -0.0558537 -0.04162443 -0.0276247 -0.0593467 -0.04984613 -0.003867398 -0.0411146 -0.04939563 -0.007683898 -0.0418759 -0.04924263 -0.008601698 0.1191463 -0.04921213 -0.008595598 -0.0421941 -0.04855353 -0.0118679 -0.0433359 -0.05000223 8.070231e-05 -0.0408537 -0.04991763 0.002987902 0.1191463 -0.04991763 0.002987902 -0.0409949 -0.04939563 0.007845232 -0.0418759 -0.04790163 0.01442082 0.1191463 -0.04874173 0.01123687 -0.0430052 -0.04527913 0.02129386 -0.0496405 -0.04653883 0.01836556 -0.04707 -0.04330343 0.0250807 0.1191463 -0.04769913 0.01508066 -0.0448729 -0.04787973 0.01441484 -0.0445494 -0.04162203 0.0277898 -0.0823518 -0.04074883 0.0290584 -0.0786183 -0.03637093 0.0343927 -0.1208537 -0.04019353 0.0298239 -0.0747703 -0.04000223 0.0300807 -0.0708537 -0.03637093 0.0343927 0.1191463 -0.04019643 0.0298199 -0.0669066 -0.04074883 0.0290584 -0.0630891 -0.04162793 0.0277808 -0.059334 -0.04272223 0.0260614 -0.0558537 -0.04330343 0.0250807 -0.0542706 -0.04654583 0.01834776 -0.094651 -0.04527913 0.02129386 -0.0920669 -0.04330343 0.0250807 -0.1208537 -0.04330343 0.0250807 -0.0874368 -0.04276113 0.0259545 -0.0857966 -0.05000223 8.070231e-05 -0.1008537 -0.04991763 0.002987902 -0.1007125 -0.04790163 0.01442082 -0.1208537 -0.04939563 0.007845232 -0.0998315 -0.04874733 0.01121239 -0.098712 -0.04790163 0.01442082 -0.0972044 -0.04768313 0.01505371 -0.0967929 0.04923817 -0.008601698 -0.1208537 0.04983307 -0.003975098 0.0197043 0.04956267 -0.006197098 0.0202995 0.04787277 0.01441417 0.0219854 0.04845287 0.01226756 0.0211067 0.04789727 0.01442082 -0.1208537 0.04876847 0.01109982 0.0206287 0.04951997 0.006976542 0.0195988 0.04959577 0.006227682 0.0195154 0.04989737 0.003248362 0.0191836 0.04991317 0.002987902 -0.1208537 0.04990557 0.002987662 0.0191846 0.04999777 8.070233e-05 0.0191948 0.04329907 0.0250807 -0.1208537 0.04329487 0.0250781 0.0302682 0.04339007 0.0249223 0.0300498 0.04383797 0.0240739 0.0291624 0.04498607 0.02189944 0.026888 0.04651227 0.01842193 0.0241816 0.04653527 0.01835711 0.0241442 0.04768007 0.0151272 0.0222773 0.03636647 0.0343927 0.1191463 0.04157377 0.0278554 0.0639918 0.04126627 0.0282934 0.0630702 0.04024037 0.0297545 0.0599955 0.03955027 0.0306623 0.0571173 0.03935497 0.0309192 0.0563026 0.03879797 0.0316171 0.0523073 0.03877277 0.031648 0.0515224 0.03866987 0.0317741 0.048318 0.03895817 0.0314189 0.0444703 0.03885857 0.0315416 0.0457994 0.03636647 0.0343927 -0.1208537 0.03962887 0.0305664 0.04068 0.03975787 0.0303929 0.0402045 0.04060147 0.0292584 0.0370949 0.04145237 0.0280155 0.0347149 0.04189067 0.0273752 0.0334888 0.04609107 0.0194562 0.0733892 0.04471337 0.02245289 0.0708916 0.04329907 0.0250807 0.1191463 0.04653067 0.01828882 0.0741215 0.04388917 0.023971 0.0692215 0.04328957 0.0250754 0.0680065 0.04311547 0.0253959 0.0676539 0.04987917 0.002986512 0.079065 0.04983127 0.004157652 0.0790518 0.04991317 0.002987902 0.1191463 0.04955537 0.006407312 0.0787192 0.04789727 0.01442082 0.1191463 0.04933947 0.008167882 0.0784589 0.04853647 0.01208054 0.0773245 0.04840997 0.01251674 0.0771294 0.04786057 0.01441016 0.0762825 0.04742197 0.01592197 0.0756062 0.04956707 -0.006468098 0.0779883 0.04975297 -0.004506198 0.0784192 0.04923817 -0.008601698 0.1191463 0.04991497 -0.002795398 0.0787948 0.04999777 8.070233e-05 0.0790978 0.04785287 -0.0144071 0.0744013 0.04590857 -0.0197233 0.1191463 0.04718507 -0.016348 0.072944 0.04663707 -0.0179408 0.0717481 0.04885197 -0.0105619 0.0764874 0.04885207 -0.0105616 0.0764875 0.04919567 -0.008594298 0.0772088 0.04010397 -0.0297773 -0.1208537 0.04590857 -0.0197233 -0.1208537 0.04588677 -0.0197137 0.0283265 0.04503507 -0.0216368 0.0304014 0.04444387 -0.0227793 0.0320668 0.04374047 -0.0241387 0.0340483 0.04261607 -0.0260666 0.037999 0.04244737 -0.0263322 0.0388361 0.04177087 -0.0273968 0.0421914 0.04147547 -0.0278381 0.0448333 0.04131797 -0.0280732 0.0462414 0.04123747 -0.028191 0.0503358 0.04010397 -0.0297773 0.1191463 0.04128327 -0.0281235 0.0509694 0.04152397 -0.0277686 0.0542999 0.04194257 -0.0271313 0.0570102 0.04204737 -0.0269717 0.0576892 0.04292437 -0.0255574 0.0614899 0.04332527 -0.0248501 0.0628047 0.04404347 -0.0235832 0.0651598 0.04528987 -0.0210969 0.0685396 0.04531177 -0.0210533 0.068599 0.04588277 -0.0197123 0.0699557 0.04846357 -0.0121591 0.022614 0.04754947 -0.0153739 0.0245382 0.04935177 -0.007930998 0.020764 0.04921637 -0.008597398 0.0210455 0.04856667 -0.0117965 0.0223969 0.04670377 -0.0176951 0.026414 0.04634677 -0.0186749 0.0272057 0.02747327 0.0418551 -0.1208537 0.02747327 0.0418551 0.1191463 0.01709881 0.0470653 -0.1208537 0.01709881 0.0470653 0.1191463 0.005802447 0.0497426 -0.1208537 0.005802447 0.0497426 0.1191463 -2.232948e-06 0.0500807 0.1191463 -2.232948e-06 0.0500807 -0.1208537 -0.005806833 0.0497426 0.1191463 -0.005806833 0.0497426 -0.1208537 -0.01710323 0.0470653 -0.1208537 -0.01710323 0.0470653 0.1191463 -0.02747763 0.0418551 -0.1208537 -0.02747763 0.0418551 0.1191463 -0.04074883 -0.0288971 -0.0630891 -0.04010833 -0.0297773 -0.0679375 -0.03214163 -0.0382216 0.1191463 -0.04010833 -0.0297773 -0.0737699 -0.03214163 -0.0382216 -0.1208537 -0.04010833 -0.0297773 -0.0708537 0.03213717 -0.0382216 0.1191463 0.03213717 -0.0382216 -0.1208537 0.02243777 -0.044601 0.1191463 0.02243777 -0.044601 -0.1208537 0.01152859 -0.0485716 0.1191463 0.01152859 -0.0485716 -0.1208537 -2.232927e-06 -0.0499193 0.1191463 -2.232927e-06 -0.0499193 -0.1208537 -0.01153303 -0.0485716 0.1191463 -0.01153303 -0.0485716 -0.1208537 -0.02244213 -0.044601 0.1191463 -0.02244213 -0.044601 -0.1208537 0.6487712 -0.0109286 0.0496871 0.6484722 -0.0121746 0.0225923 0.6489482 -0.009658598 0.021596 0.6499982 8.070245e-05 0.0191948 0.6498662 0.002207602 0.0192927 0.6497852 -0.004521798 0.0784759 0.6499982 8.070245e-05 0.0790978 0.6472032 -0.0164005 0.0730056 0.6453282 -0.0210068 0.0686323 0.6467152 -0.0177372 0.0263672 0.6488522 -0.0105619 0.0764874 0.6489902 -0.009667998 0.0767817 0.6495992 -0.006219098 0.020234 0.6414352 -0.0279006 0.0448183 0.6424222 -0.0263796 0.0388161 0.6453112 -0.0210549 0.0492485 0.6444322 -0.0228441 0.0320183 0.6452662 -0.0209789 0.0299543 0.6452892 -0.021101 0.0685428 0.6433062 -0.0249064 0.0628408 0.6419242 -0.0271621 0.0570202 0.6412592 -0.028159 0.0509749 0.6479502 0.01395533 0.0218937 0.6494572 0.007412482 0.0482241 0.6484822 0.01229906 0.0210489 0.6496182 0.006234072 0.019478 0.6498622 0.002207202 0.0789932 0.6465372 0.01835983 0.0241404 0.6473382 0.01617082 0.0480333 0.6438392 0.0241207 0.0291182 0.6433402 0.0249381 0.0302704 0.6438892 0.0240296 0.0692751 0.6465472 0.01832702 0.0741725 0.6479612 0.01395854 0.0764211 0.6484222 0.01253207 0.0771554 0.6495942 0.006421912 0.0787859 0.6412442 0.0283428 0.0631011 0.6433342 0.0249343 0.0679802 0.6424292 0.0265295 0.0513302 0.6395242 0.0307014 0.0571358 0.6414312 0.0280671 0.0346805 0.6397422 0.0304182 0.0401912 0.6388142 0.0315977 0.0457909 0.6387392 0.03169 0.0515251 0.04955537 0.006407312 0.0787192 0.04983127 0.004157652 0.0790518 0.6499982 8.070245e-05 0.0790978 0.04987917 0.002986512 0.079065 0.04999777 8.070233e-05 0.0790978 0.6498622 0.002207202 0.0789932 0.6495942 0.006421912 0.0787859 0.04933947 0.008167882 0.0784589 0.6484222 0.01253207 0.0771554 0.04853647 0.01208054 0.0773245 0.04653067 0.01828882 0.0741215 0.04742197 0.01592197 0.0756062 0.04786057 0.01441016 0.0762825 0.04840997 0.01251674 0.0771294 0.6479612 0.01395854 0.0764211 0.6465472 0.01832702 0.0741725 0.04609107 0.0194562 0.0733892 0.6438892 0.0240296 0.0692751 0.04471337 0.02245289 0.0708916 0.04388917 0.023971 0.0692215 0.04126627 0.0282934 0.0630702 0.04157377 0.0278554 0.0639918 0.6412442 0.0283428 0.0631011 0.04311547 0.0253959 0.0676539 0.04328957 0.0250754 0.0680065 0.6433342 0.0249343 0.0679802 0.04024037 0.0297545 0.0599955 0.6395242 0.0307014 0.0571358 0.03955027 0.0306623 0.0571173 0.03935497 0.0309192 0.0563026 0.6387392 0.03169 0.0515251 0.03879797 0.0316171 0.0523073 0.03895817 0.0314189 0.0444703 0.03885857 0.0315416 0.0457994 0.6388142 0.0315977 0.0457909 0.03866987 0.0317741 0.048318 0.03877277 0.031648 0.0515224 0.04189067 0.0273752 0.0334888 0.04145237 0.0280155 0.0347149 0.6414312 0.0280671 0.0346805 0.04060147 0.0292584 0.0370949 0.6397422 0.0304182 0.0401912 0.03975787 0.0303929 0.0402045 0.03962887 0.0305664 0.04068 0.6465372 0.01835983 0.0241404 0.04653527 0.01835711 0.0241442 0.6438392 0.0241207 0.0291182 0.04651227 0.01842193 0.0241816 0.04498607 0.02189944 0.026888 0.04383797 0.0240739 0.0291624 0.6433402 0.0249381 0.0302704 0.04339007 0.0249223 0.0300498 0.04329487 0.0250781 0.0302682 0.6496182 0.006234072 0.019478 0.04959577 0.006227682 0.0195154 0.6484822 0.01229906 0.0210489 0.04951997 0.006976542 0.0195988 0.04876847 0.01109982 0.0206287 0.04845287 0.01226756 0.0211067 0.6479502 0.01395533 0.0218937 0.04787277 0.01441417 0.0219854 0.04768007 0.0151272 0.0222773 0.6499982 8.070245e-05 0.0191948 0.04999777 8.070233e-05 0.0191948 0.6498662 0.002207602 0.0192927 0.04990557 0.002987662 0.0191846 0.04989737 0.003248362 0.0191836 0.04885207 -0.0105616 0.0764875 0.04885197 -0.0105619 0.0764874 0.6488522 -0.0105619 0.0764874 0.04983307 -0.003975098 0.0197043 0.04956267 -0.006197098 0.0202995 0.04856667 -0.0117965 0.0223969 0.04921637 -0.008597398 0.0210455 0.6484722 -0.0121746 0.0225923 0.04935177 -0.007930998 0.020764 0.6489482 -0.009658598 0.021596 0.6495992 -0.006219098 0.020234 0.04670377 -0.0176951 0.026414 0.04754947 -0.0153739 0.0245382 0.04846357 -0.0121591 0.022614 0.04503507 -0.0216368 0.0304014 0.04588677 -0.0197137 0.0283265 0.6444322 -0.0228441 0.0320183 0.04634677 -0.0186749 0.0272057 0.6452662 -0.0209789 0.0299543 0.6467152 -0.0177372 0.0263672 0.04244737 -0.0263322 0.0388361 0.04261607 -0.0260666 0.037999 0.6424222 -0.0263796 0.0388161 0.04374047 -0.0241387 0.0340483 0.04444387 -0.0227793 0.0320668 0.04177087 -0.0273968 0.0421914 0.6414352 -0.0279006 0.0448183 0.04147547 -0.0278381 0.0448333 0.04131797 -0.0280732 0.0462414 0.6412592 -0.028159 0.0509749 0.04123747 -0.028191 0.0503358 0.04204737 -0.0269717 0.0576892 0.04194257 -0.0271313 0.0570102 0.6419242 -0.0271621 0.0570202 0.04152397 -0.0277686 0.0542999 0.04128327 -0.0281235 0.0509694 0.04531177 -0.0210533 0.068599 0.04528987 -0.0210969 0.0685396 0.6452892 -0.021101 0.0685428 0.04404347 -0.0235832 0.0651598 0.6433062 -0.0249064 0.0628408 0.04332527 -0.0248501 0.0628047 0.04292437 -0.0255574 0.0614899 0.6472032 -0.0164005 0.0730056 0.04785287 -0.0144071 0.0744013 0.04718507 -0.016348 0.072944 0.6453282 -0.0210068 0.0686323 0.04663707 -0.0179408 0.0717481 0.04588277 -0.0197123 0.0699557 0.6497852 -0.004521798 0.0784759 0.04991497 -0.002795398 0.0787948 0.04975297 -0.004506198 0.0784192 0.6489902 -0.009667998 0.0767817 0.04956707 -0.006468098 0.0779883 0.04919567 -0.008594298 0.0772088 -0.04591303 -0.0197233 -0.0483192 -0.04769913 -0.0149193 -0.0448729 -0.4500018 -0.0149193 -0.0448729 -0.04768313 0.01505371 -0.0967929 -0.04790163 0.01442082 -0.0972044 -0.4500018 0.01508066 -0.0968345 -0.04874733 0.01121239 -0.098712 -0.4500018 0.007845232 -0.0998315 -0.04654583 0.01834776 -0.094651 -0.4500018 0.02129386 -0.0920669 -0.04527913 0.02129386 -0.0920669 -0.04330343 0.0250807 -0.0874368 -0.4500018 0.0260614 -0.0858537 -0.04276113 0.0259545 -0.0857966 -0.04162203 0.0277898 -0.0823518 -0.4500018 0.0290584 -0.0786183 -0.04074883 0.0290584 -0.0786183 -0.04019353 0.0298239 -0.0747703 -0.4500018 0.0300807 -0.0708537 -0.04000223 0.0300807 -0.0708537 -0.04019643 0.0298199 -0.0669066 -0.4500018 0.0290584 -0.0630891 -0.04074883 0.0290584 -0.0630891 -0.04162793 0.0277808 -0.059334 -0.4500018 0.0260614 -0.0558537 -0.04272223 0.0260614 -0.0558537 -0.04330343 0.0250807 -0.0542706 -0.4500018 0.02129386 -0.0496405 -0.04527913 0.02129386 -0.0496405 -0.4500018 0.007845232 -0.0418759 -0.04939563 0.007845232 -0.0418759 -0.4500018 0.01508066 -0.0448729 -0.04874173 0.01123687 -0.0430052 -0.04787973 0.01441484 -0.0445494 -0.04769913 0.01508066 -0.0448729 -0.04653883 0.01836556 -0.04707 -0.4500018 -0.007683898 -0.0418759 -0.04984613 -0.003867398 -0.0411146 -0.4500018 8.070223e-05 -0.0408537 -0.05000223 8.070231e-05 -0.0408537 -0.04991763 0.002987902 -0.0409949 -0.04855353 -0.0118679 -0.0433359 -0.04921213 -0.008595598 -0.0421941 -0.04939563 -0.007683898 -0.0418759 -0.04527403 -0.0210408 -0.0497266 -0.4500018 -0.0211325 -0.0496405 -0.04397903 -0.023711 -0.0525792 -0.4500018 -0.0259001 -0.0558537 -0.04272223 -0.0259001 -0.0558537 -0.04162443 -0.0276247 -0.0593467 -0.4500018 -0.0288971 -0.0630891 -0.04074883 -0.0288971 -0.0630891 -0.04010833 -0.0297773 -0.0679375 -0.4500018 -0.0299193 -0.0708537 -0.04010833 -0.0297773 -0.0708537 -0.04010833 -0.0297773 -0.0737699 -0.4500018 -0.0288971 -0.0786183 -0.04074883 -0.0288971 -0.0786183 -0.04162923 -0.0276175 -0.0823781 -0.4500018 -0.0259001 -0.0858537 -0.04272223 -0.0259001 -0.0858537 -0.04397573 -0.023717 -0.0891203 -0.4500018 -0.0211325 -0.0920669 -0.04527913 -0.0211325 -0.0920669 -0.4500018 -0.007683898 -0.0998315 -0.04936113 -0.007670798 -0.0997708 -0.4500018 -0.0149193 -0.0968345 -0.04924263 -0.008601698 -0.0995698 -0.04855403 -0.0118658 -0.0983724 -0.04769913 -0.0149193 -0.0968345 -0.04591303 -0.0197233 -0.0933882 -0.04939563 0.007845232 -0.0998315 -0.04991763 0.002987902 -0.1007125 -0.4500018 8.070223e-05 -0.1008537 -0.05000223 8.070231e-05 -0.1008537 -0.04984713 -0.003853998 -0.1005946 -0.4500018 -0.0149193 -0.0448729 -0.4500018 -0.007683898 -0.0418759 -0.4500018 8.070223e-05 -0.0708537 -0.4500018 8.070223e-05 -0.0408537 -0.4500018 0.007845232 -0.0418759 -0.4500018 -0.0288971 -0.0630891 -0.4500018 -0.0259001 -0.0558537 -0.4500018 -0.0211325 -0.0496405 -0.4500018 -0.0259001 -0.0858537 -0.4500018 -0.0288971 -0.0786183 -0.4500018 -0.0299193 -0.0708537 -0.4500018 -0.007683898 -0.0998315 -0.4500018 -0.0149193 -0.0968345 -0.4500018 -0.0211325 -0.0920669 -0.4500018 0.01508066 -0.0968345 -0.4500018 0.007845232 -0.0998315 -0.4500018 8.070223e-05 -0.1008537 -0.4500018 0.0290584 -0.0786183 -0.4500018 0.0260614 -0.0858537 -0.4500018 0.02129386 -0.0920669 -0.4500018 0.0260614 -0.0558537 -0.4500018 0.0290584 -0.0630891 -0.4500018 0.0300807 -0.0708537 -0.4500018 0.01508066 -0.0448729 -0.4500018 0.02129386 -0.0496405</float_array>
          <technique_common>
            <accessor count="516" source="#verts-array-array" stride="3">
              <param type="float" name="X"/>
              <param type="float" name="Y"/>
              <param type="float" name="Z"/>
            </accessor>
          </technique_common>
        </source>
        <source id="normals-array">
          <float_array count="1548" id="normals-array-array">0 0 1 0 0 1 0 0 1 0 0 1 0 0 1 0 0 1 0 0 1 0 0 1 0 0 1 0 0 1 0 0 1 0 0 1 0 0 1 0 0 1 0 0 1 0 0 1 0 0 1 0 0 1 0 0 1 0 0 1 0 0 1 0 0 1 0 0 1 0 0 1 0 0 1 0 0 1 0 0 1 0 0 1 0 0 1 0 0 -1 0 0 -1 0 0 -1 0 0 -1 0 0 -1 0 0 -1 0 0 -1 0 0 -1 0 0 -1 0 0 -1 0 0 -1 0 0 -1 0 0 -1 0 0 -1 0 0 -1 0 0 -1 0 0 -1 0 0 -1 0 0 -1 0 0 -1 0 0 -1 0 0 -1 0 0 -1 0 0 -1 0 0 -1 0 0 -1 0 0 -1 0 0 -1 0 0 -1 -0.9848718 -0.1732845 0 -0.991993 -0.1262926 6.91048e-07 -0.9845272 -0.174783 -0.01253541 -0.9964568 -0.08386668 -0.006349317 -0.9979765 0.06319388 -0.007030583 -0.9668203 -0.2552564 -0.0101375 -0.9173227 -0.3980608 -0.008158988 -0.9474674 -0.3197864 -0.006495536 -0.8104209 -0.585848 -8.07661e-05 -0.8263138 -0.563209 -0.001047987 -0.8010351 -0.5986093 -0.003120556 -0.8461506 -0.5329277 -0.00415674 -0.8688497 -0.4949454 -0.01136567 -0.8893791 -0.4570043 -0.01232154 -0.9200239 -0.3918623 0 -0.897783 -0.4404132 0.004678118 -0.8021233 -0.5971584 5.319566e-05 -0.9098173 -0.4149966 0.003202321 -0.9182389 -0.3960269 -3.383238e-05 -0.9469058 -0.3215099 0.0008946192 -0.8745873 -0.4848611 0.002585244 -0.8479311 -0.5301057 0.0009204644 -0.826868 -0.562396 0.0002409105 -0.9967183 -0.08093726 0.001362392 -0.9865157 -0.1636669 4.492739e-06 -0.9847092 -0.1742048 0.0006955383 -0.9796717 -0.2005756 0.00357745 -0.9700901 -0.2427115 0.004030761 -0.9999795 -0.006277583 0.001295074 -0.9983149 0.05800181 0.001798155 -0.9974962 0.07072005 0 -0.9878997 0.1550918 0.0008114104 -0.9578433 0.2872884 0.001241503 -0.9722949 0.2337573 0.0004474413 -0.8958385 0.4443795 0.0005161191 -0.9261639 0.3771108 0.002792499 -0.866061 0.499938 0.0006085951 -0.9501401 0.3118091 0.002979792 -0.9651434 0.2617217 -0.0001386825 -0.8154791 0.5786625 -0.01198152 -0.7977186 0.6029946 -0.006529551 -0.727264 0.6863572 -0.0009674042 -0.7824409 0.6227168 -0.003165777 -0.7668011 0.6418848 -0.0001215719 -0.7272254 0.6863986 0.0003624743 -0.793526 0.6085349 0.001359427 -0.8067493 0.5908902 0.002084566 -0.8232945 0.5676053 0.003222258 -0.8427599 0.5382773 0.003633773 -0.8665076 0.4991639 0 -0.9253179 0.3788036 -0.01716573 -0.8961549 0.4437304 -0.003133282 -0.8657942 0.5003961 -0.002032598 -0.8431221 0.5375705 -0.01277154 -0.8332429 0.5525848 -0.01887685 -0.9999468 -0.008730266 -0.005498806 -0.9963921 0.08383346 -0.0132221 -0.957767 0.2875307 -0.002905872 -0.9882299 0.1512487 -0.02292178 -0.9736705 0.2279222 -0.004162319 -0.9473751 0.3198014 -0.01440113 -0.9390785 0.342545 -0.0281864 0.9848016 -0.173683 2.674467e-05 0.9963927 -0.08485075 -0.001424206 0.9926736 -0.1208268 -0.0002237457 0.9653868 0.2608223 0.0001777276 0.9653867 0.2608229 0.0001778766 0.9579679 0.2868754 -0.0002241918 0.9737728 0.2275217 -0.000655567 0.98963 0.1435895 -0.003823018 0.9948286 0.1013838 -0.006120043 0.9975783 0.06948809 -0.002989578 0.9983131 0.0580597 -7.92668e-05 0.9995677 0.02919517 -0.003478794 0.9999758 -0.004685006 -0.005133254 0.8663124 0.4995018 -0.0008704795 0.8535783 0.5209595 -0.002316143 0.8543286 0.5196243 -0.01064385 0.8814659 0.4722024 -0.006533119 0.8911835 0.4536109 -0.005401115 0.9243173 0.3816212 -0.001701164 0.9424282 0.3344084 -0.0002258043 0.9514937 0.3076681 -7.452044e-05 0.7273797 0.686235 0.0004369885 0.8178982 0.5752921 0.009032528 0.8111377 0.5848101 0.007266552 0.7943971 0.6073828 0.004399801 0.7903518 0.612642 0.003722811 0.7778904 0.6283959 0.002259449 0.7642867 0.6448758 0.001024043 0.7631336 0.6462401 0.0009256087 0.7521611 0.6589792 -1.308354e-06 0.7451626 0.6668558 -0.006000273 0.772747 0.6347136 -0.0008456255 0.7269857 0.686652 -0.0008828074 0.7805278 0.6251113 -0.003494504 0.7995496 0.6005959 -0.002229756 0.8036568 0.5950897 -0.002014336 0.8243616 0.5660629 -0.0008930656 0.8305631 0.5569242 -0.0007003739 0.917143 0.3984972 0.006978496 0.8878991 0.4600373 0.000971204 0.8660738 0.499916 0.0003363933 0.9331022 0.3593848 0.01275997 0.8789293 0.476952 -0.0002126681 0.8653327 0.5008875 0.01763804 0.8466206 0.5318914 0.01803221 0.9991664 0.04081422 -0.0008489842 0.9964539 0.08413936 0.0004193204 0.9982409 0.05889992 0.006770554 0.9917777 0.1276578 0.008971556 0.9573562 0.2888994 0.002501586 0.9863293 0.1645019 0.009680229 0.9690436 0.2468878 0.0009952988 0.9605092 0.2782468 -0.0008889543 0.9553298 0.2951272 0.01565083 0.943651 0.3303454 0.01986753 0.9903189 -0.1388089 0.0007180453 0.9954761 -0.0949637 0.003033539 0.9845767 -0.1748474 0.006086196 0.9978785 -0.06498183 0.003994993 0.9999931 0.003214166 0.001879101 0.9535217 -0.3012717 0.005638881 0.9180035 -0.3965542 0.003796126 0.9450785 -0.3268359 0.002234162 0.9282744 -0.3718959 0.0002815164 0.9589586 -0.2834967 0.005283113 0.965856 -0.2590767 -0.001226835 0.9851499 -0.1716934 -0.001028659 0.8021531 -0.5971184 3.480902e-06 0.9182154 -0.3960813 7.710979e-05 0.9110737 -0.4122079 -0.005416033 0.8927366 -0.4505528 -0.004855695 0.8858049 -0.4640413 -0.00390362 0.867414 -0.4975821 -0.002251001 0.846258 -0.5327724 -0.0009375104 0.8429337 -0.5380168 -0.0007627856 0.8315469 -0.5554545 -0.0003915854 0.8298715 -0.5579544 -0.0003390953 0.8231703 -0.5677945 -0.0001900129 0.8143045 -0.580438 2.414672e-05 0.8015527 -0.5979218 0.001649915 0.8250353 -0.5650808 0.0005637317 0.8259364 -0.563763 0.000622993 0.8335928 -0.5523782 0.001143473 0.8355613 -0.5493956 0.001341517 0.8505561 -0.5258751 0.00311792 0.8653994 -0.5010507 0.005660717 0.8710698 -0.4911062 0.00721697 0.887258 -0.4611219 0.01182666 0.8942392 -0.4475151 0.008152033 0.9202732 -0.391276 -0.0005701716 0.9614546 -0.2749511 -0.0026259 0.9472794 -0.3204068 -0.00110607 0.9858324 -0.1677336 3.589857e-06 0.9791627 -0.2030351 -0.004132481 0.9688798 -0.2474947 -0.004282975 0.9394846 -0.3425909 -0.0003546956 0.9219648 -0.3872738 1.359519e-05 0.5495107 0.8354867 0 0.5495107 0.8354867 0 0.3420189 0.9396931 0 0.3420189 0.9396931 0 0.1449338 0.9894414 0 0.1449338 0.9894414 0 -4.002269e-07 1 0 -4.002269e-07 1 0 -0.1449338 0.9894414 0 -0.1449338 0.9894414 0 -0.3420196 0.9396928 0 -0.3420196 0.9396928 0 -0.5495093 0.8354876 0 -0.5495093 0.8354876 0 -0.8104095 -0.5858639 1.860161e-05 -0.7330749 -0.6801479 0 -0.642788 -0.7660441 0 -0.7330749 -0.6801479 0 -0.642788 -0.7660441 0 -0.7273773 -0.6862377 0 0.6427874 -0.7660446 0 0.6427874 -0.7660446 0 0.4487987 -0.8936329 0 0.4487987 -0.8936329 0 0.2306128 -0.9730456 0 0.2306128 -0.9730456 0 -1.147899e-07 -1 0 -1.147899e-07 -1 0 -0.230614 -0.9730453 0 -0.230614 -0.9730453 0 -0.4487976 -0.8936334 0 -0.4487976 -0.8936334 0 0.97052 -0.2410193 -0.0008530027 0.9738852 -0.2270407 -0.0003062943 0.9828646 -0.1843283 0.0004673587 0.9999803 0.004869443 0.003971036 0.9981982 0.05977477 0.005232231 0.9959309 -0.09009179 -0.002268541 0.9999547 0.009332356 -0.001875175 0.9523972 -0.3047682 -0.007474842 0.9329677 -0.3597439 -0.01247423 0.9441137 -0.3293665 0.01292575 0.9808124 -0.1949538 -0.0002968719 0.9883178 -0.1524051 -0.0008263781 0.9934103 -0.1146121 0.0001675234 0.8670216 -0.498145 0.01119034 0.8717683 -0.4898429 0.008600896 0.9895335 -0.1443004 -0.0008781275 0.90349 -0.4286063 -0.00158474 0.9251427 -0.3792659 0.01638315 0.916335 -0.4004126 8.812703e-05 0.8820978 -0.4710544 -0.003359243 0.8672517 -0.4976964 -0.01314382 0.8680568 -0.4964352 -0.005421239 0.9558271 0.2937804 0.00936289 0.9892705 0.1460918 -0.00099178 0.9720483 0.234667 0.007321834 0.9933337 0.1152713 0.0008380209 0.9979253 0.06437438 -0.001004773 0.9382698 0.3459042 0.000235792 0.9394837 0.3425936 6.320209e-05 0.8966852 0.4422172 0.01998785 0.8776268 0.4787423 0.02401899 0.8967989 0.4420744 -0.01794132 0.9379787 0.3466929 -0.000214165 0.9516772 0.3070988 0.0009288355 0.9720413 0.2348088 0.0006873317 0.9929672 0.1183884 -0.0006139871 0.8426429 0.5384695 0.001879649 0.8755316 0.4826239 -0.02277135 0.8434197 0.5372546 -0.0007817473 0.8151825 0.5791451 -0.008273041 0.8451434 0.534538 -0.001294165 0.8150709 0.5793338 0.005634235 0.8101938 0.5861138 0.007526493 0.8133478 0.5817588 -0.004683958 0.0003593507 0.1459761 0.989288 0.00048526 0.08267934 0.9965761 -5.445666e-05 -0.04307792 0.9990717 -4.151807e-08 0.01127844 0.9999364 0.0001127848 -0.0466748 0.9989101 -0.0001122062 0.0491204 0.9987929 4.194285e-05 0.1456736 0.9893327 -1.697675e-05 0.2193952 0.9756361 8.612627e-05 0.3446087 0.9387464 -2.262711e-06 0.3533515 0.9354906 0.0002610122 0.5312205 0.8472336 0.0004624203 0.4823171 0.8759966 -4.988657e-05 0.4083173 0.9128401 -4.998506e-05 0.4082854 0.9128543 -0.000104584 0.4576493 0.8891328 3.122103e-05 0.5385468 0.8425956 0.0001912098 0.5984172 0.8011846 0.0002300342 0.722994 0.6908542 7.135398e-05 0.702514 0.7116699 -0.0001323597 0.7399485 0.6726636 -9.647239e-05 0.9031862 0.4292489 3.205263e-06 0.876337 0.4816985 0.0002460418 0.8703273 0.4924737 0.000672306 0.7968872 0.6041277 0.0008433736 0.7405367 0.6720153 0.0002178746 0.8198008 0.5726488 -8.074243e-05 0.9348563 0.3550263 0.0002113674 0.9588859 0.2837919 -7.142635e-05 0.9536945 0.3007769 2.719598e-05 0.9733717 0.2292324 0.0001694467 0.9965758 0.08268358 1.250613e-05 0.9947534 0.1023019 3.763413e-05 0.9885435 -0.1509365 -9.441361e-05 0.9957653 -0.09193168 8.371896e-05 0.9931622 -0.1167428 -8.130892e-05 0.9996765 -0.02543296 -7.012696e-05 0.9992262 0.03933174 2.306576e-05 0.8597238 -0.5107593 -0.0001027751 0.8863927 -0.4629341 0.000214369 0.8624668 -0.5061137 -6.90913e-05 0.9196215 -0.3928056 0.0001202984 0.9497268 -0.3130798 0.0007316727 0.9396344 -0.3421792 0.0006763031 0.9619045 -0.2733849 0.0001245048 0.5378884 -0.843016 0.00140385 0.5010636 -0.8654093 -4.515576e-05 0.7222066 -0.6916774 0.001359228 0.569553 -0.8219535 0.0001949887 0.6818588 -0.7314838 0.0001017409 0.7229116 -0.6909405 1.061993e-05 0.815539 -0.5787021 0.0002233986 0.7804632 -0.6252017 0.0002147634 0.8141576 -0.5806439 0.0001005169 0.1410547 -0.9900018 0.000721551 0.1112264 -0.9937948 -8.21197e-05 0.3391905 -0.9407177 0.0007609022 0.1822558 -0.9832509 2.340724e-05 0.3202309 -0.9473395 3.943526e-05 0.378916 -0.9254311 2.262904e-05 0.4542934 -0.8908521 0.000542471 0.3791768 -0.9253241 0.0003434939 0.4508182 -0.8926157 -5.555246e-05 -0.05872734 -0.9982741 8.754523e-05 -0.06429859 -0.9979307 0.0001153546 0.0459073 -0.9989457 0.0003456872 -0.003558262 -0.9999936 0.0002128758 0.05569097 -0.998448 -6.636512e-09 -0.3282691 0.9445842 0.000269448 -0.4122068 0.9110903 0.0001366705 -0.4023824 0.9154717 0.0004904396 -0.1957656 -0.9806506 0.0007445334 -0.2587397 -0.9659468 -1.317315e-06 -0.4607586 -0.8875255 5.480917e-05 -0.3891407 -0.9211783 8.770854e-05 -0.4540493 -0.8909765 0.0003007886 -0.3307357 -0.9437234 3.905129e-05 -0.3680762 -0.9297956 -0.0001149305 -0.258898 -0.9659047 0.001011244 -0.628814 -0.7775551 0.0004660852 -0.5821028 -0.813115 -4.429941e-05 -0.5136178 -0.8580191 6.614144e-05 -0.7893677 -0.6139208 0.0003560837 -0.7334995 -0.6796899 0.0002779772 -0.8084332 -0.5885879 0.0006845353 -0.6920957 -0.7218054 3.019961e-05 -0.741864 -0.6705503 -0.0001048392 -0.6402757 -0.7681452 -8.538507e-05 -0.9531668 -0.3024453 6.358543e-06 -0.9322627 -0.3617819 0.0003138632 -0.9291605 -0.3696766 2.079617e-05 -0.8703663 -0.4924049 -0.0001347882 -0.8245828 -0.5657412 -9.621705e-05 -0.973792 -0.2274405 0.0002272893 -0.9886329 -0.1503493 -0.0001068688 -0.9863389 -0.1647286 -6.931478e-06 -0.9955724 -0.09399766 0.0002249914 -0.9980028 0.0631689 1.337478e-05 -0.9992974 0.03747846 1.036045e-05 -0.9593214 0.2823164 -5.378673e-05 -0.9734574 0.2288681 5.798598e-05 -0.9618618 0.2735358 -5.606685e-05 -0.9865731 0.1633201 -5.980705e-05 -0.9943713 0.1059513 -1.34158e-06 -0.7694291 0.6387323 -8.664491e-06 -0.805774 0.5922232 0.0002724119 -0.7518127 0.6593767 -6.781236e-05 -0.8517526 0.5239442 0.0001338983 -0.8794716 0.4759513 0.0006341698 -0.8809348 0.4732372 0.0005532875 -0.915306 0.4027587 -5.533128e-05 -0.588919 0.808192 0.000117912 -0.5495188 0.8354813 0.0005752323 -0.6008598 0.7993542 2.231499e-05 -0.6885513 0.7251877 0.0004556009 -0.6672158 0.7448643 9.244591e-06 -0.7112247 0.7029648 -4.578732e-05 -0.2186184 0.9758104 5.889558e-05 -0.1618207 0.9868202 0.0003856336 -0.214803 0.9766573 5.80729e-05 -0.3126158 0.9498797 0.0003801522 -0.2849481 0.9585429 2.336833e-08 -0.344226 0.9388868 -0.001730543 -0.6749154 0.7378931 1.085336e-10 -0.5291651 0.8485189 7.698923e-05 -0.5001242 0.8659537 0.0001232024 0.5450858 -0.8383802 1.501523e-05 0.4959421 -0.8683556 -0.0006360682 0.5000005 -0.8660249 -7.962494e-05 0.3782203 -0.9257156 -0.0006172329 0.2588062 -0.9659291 4.590379e-05 0.6145179 -0.7889029 -0.0005468602 0.7071492 -0.7070641 -1.498561e-10 0.7306367 -0.6827664 0.0001752191 0.8426645 -0.5384389 -0.0005433068 0.8659983 -0.5000466 0.000297598 0.8825221 -0.4702709 0.0001200553 0.9229076 -0.3850215 -0.0006289597 0.9659247 -0.2588226 -1.985085e-10 0.967846 -0.2515436 -3.932901e-06 0.9919648 -0.1265138 -0.0006278059 0.9999998 -1.338978e-08 -2.051034e-10 1 0.0002446274 -3.933209e-06 0.9919019 0.1270066 -0.0006289289 0.9659247 0.2588226 -1.98485e-10 0.9677315 0.2519838 -3.915335e-06 0.9275728 0.3736424 -0.0005446125 0.8659983 0.5000466 -1.802051e-10 0.8786061 0.4775472 -2.819128e-06 0.821337 0.5704433 -0.00023207 0.7070062 0.7072073 -1.49878e-10 0.7307436 0.682652 -3.761452e-06 0.2588171 0.9659263 -0.0007488657 0.2544896 0.9670752 -3.981115e-06 0.5000013 0.8660247 -0.0006083996 0.3849449 0.9229394 2.557306e-08 0.4370277 0.8994481 -0.0007260797 0.5079634 0.8613783 -0.0005147573 0.618706 0.7856224 -0.0003904339 -0.2589723 0.9658847 -3.909631e-06 -0.1341842 0.9909564 -0.0003214118 0.0002047391 0.9999999 -0.0007938881 -0.008388169 0.9999645 -0.0007791377 0.1159761 0.9932517 -0.0004834127 -0.398403 0.9172103 -0.0006155972 -0.329927 0.9440062 5.528146e-11 -0.2695297 0.9629921 -0.0009339516 -0.7295776 0.6838974 -0.0001612319 -0.7068954 0.7073181 0.0001197073 -0.7934365 0.608653 -0.0006317893 -0.8660247 0.5000007 1.788356e-10 -0.8719287 0.4896329 -3.914064e-06 -0.9276557 0.3734366 -0.000607752 -0.9659297 0.2588039 1.989675e-10 -0.9700837 0.2427705 0.0001768283 -0.9963003 0.08593981 -0.000585909 -0.9999998 -3.475161e-16 0.0003464316 -0.9999999 0 0.0001768283 -0.9963003 -0.08593981 -0.0006077547 -0.9659297 -0.2588039 1.98961e-10 -0.9700518 -0.242898 -3.914217e-06 -0.927541 -0.3737214 -0.0006317523 -0.8660247 -0.5000008 1.788227e-10 -0.8718659 -0.4897448 -3.903445e-06 -0.8012638 -0.5983113 -0.0003197315 -0.7069645 -0.707249 1.488218e-10 -0.7255937 -0.6881234 7.335502e-05 -0.2588641 -0.9659137 -0.001707477 -0.2123161 -0.9771996 7.067441e-05 -0.4999599 -0.8660486 -0.002056405 -0.2846094 -0.9586414 -0.0004236172 -0.4048393 -0.9143878 -0.0003614583 -0.5294094 -0.8483664 -0.0002529588 -0.6444304 -0.7646629 -5.203522e-11 0.2537023 -0.9672823 -3.648657e-06 0.1164506 -0.9931965 -0.0003004515 -0.0001899415 -0.9999999 -0.000632088 -0.009216502 -0.9999573 -0.0005288619 -0.1419733 -0.9898703 -1 -2.05103e-10 -2.014595e-16 -1 -2.051028e-10 6.361465e-16 -1 -2.051034e-10 3.809692e-27 -1 -2.051061e-10 0 -1 -2.051034e-10 -9.616724e-16 -1 -2.051039e-10 8.788123e-16 -1 -2.051035e-10 -9.721757e-16 -1 -2.051036e-10 2.588987e-16 -1 -2.051035e-10 9.721757e-16 -1 -2.051039e-10 -8.788123e-16 -1 -2.051026e-10 4.402094e-26 -1 -2.051028e-10 -6.361465e-16 -1 -2.05103e-10 2.014595e-16 -1 -2.051036e-10 -2.588987e-16 -1 -2.051027e-10 2.334846e-16 -1 -2.051034e-10 9.616724e-16 -1 -2.051061e-10 0 -1 -2.051025e-10 1.852634e-15 -1 -2.051027e-10 1.779127e-15 -1 -2.051043e-10 -1.080805e-16 -1 -2.051027e-10 -1.779127e-15 -1 -2.051025e-10 -1.852634e-15 -1 -2.051026e-10 5.08088e-27 -1 -2.051027e-10 -2.334846e-16 -1 -2.051043e-10 1.080805e-16</float_array>
          <technique_common>
            <accessor count="516" source="#normals-array-array" stride="3">
              <param type="float" name="X"/>
              <param type="float" name="Y"/>
              <param type="float" name="Z"/>
            </accessor>
          </technique_common>
        </source>
        <vertices id="verts-array-vertices">
          <input semantic="POSITION" source="#verts-array"/>
        </vertices>
        <triangles count="520" material="material0">
          <input offset="0" semantic="VERTEX" source="#verts-array-vertices"/>
          <input offset="1" semantic="NORMAL" source="#normals-array"/>
          <p>0 0 1 1 2 2 3 3 4 4 2 2 5 5 2 2 4 4 2 2 5 5 0 0 6 6 7 7 2 2 8 8 2 2 7 7 2 2 8 8 3 3 9 9 10 10 2 2 11 11 2 2 10 10 2 2 11 11 6 6 12 12 13 13 2 2 14 14 2 2 13 13 2 2 14 14 9 9 15 15 16 16 2 2 17 17 2 2 16 16 2 2 17 17 12 12 18 18 19 19 2 2 20 20 2 2 19 19 2 2 20 20 15 15 21 21 22 22 2 2 23 23 2 2 22 22 2 2 23 23 18 18 24 24 25 25 2 2 26 26 2 2 25 25 2 2 26 26 21 21 1 1 27 27 2 2 28 28 2 2 27 27 2 2 28 28 24 24 29 29 30 30 31 31 32 32 33 33 31 31 34 34 31 31 33 33 31 31 34 34 29 29 35 35 36 36 31 31 37 37 31 31 36 36 31 31 37 37 32 32 38 38 39 39 31 31 40 40 31 31 39 39 31 31 40 40 35 35 41 41 42 42 31 31 43 43 31 31 42 42 31 31 43 43 38 38 44 44 45 45 31 31 46 46 31 31 45 45 31 31 46 46 41 41 47 47 48 48 31 31 49 49 31 31 48 48 31 31 49 49 44 44 50 50 51 51 31 31 52 52 31 31 51 51 31 31 52 52 47 47 53 53 54 54 31 31 55 55 31 31 54 54 31 31 55 55 50 50 30 30 56 56 31 31 57 57 31 31 56 56 31 31 57 57 53 53 58 58 59 59 60 60 61 61 60 60 59 59 60 60 61 61 62 62 58 58 60 60 63 63 64 64 63 63 60 60 63 63 64 64 65 65 66 66 67 67 68 68 69 69 68 68 67 67 69 69 70 70 68 68 71 71 68 68 70 70 68 68 71 71 64 64 72 72 64 64 71 71 64 64 72 72 65 65 73 73 74 74 75 75 76 76 75 75 74 74 75 75 76 76 77 77 73 73 78 78 74 74 79 79 74 74 78 78 74 74 79 79 80 80 81 81 82 82 83 83 84 84 83 83 82 82 83 83 84 84 76 76 85 85 76 76 84 84 76 76 85 85 77 77 81 81 83 83 86 86 87 87 86 86 83 83 86 86 87 87 88 88 88 88 87 87 89 89 90 90 89 89 87 87 89 89 90 90 91 91 92 92 93 93 94 94 95 95 94 94 93 93 94 94 95 95 90 90 96 96 90 90 95 95 90 90 96 96 91 91 97 97 98 98 99 99 100 100 99 99 98 98 99 99 100 100 101 101 102 102 103 103 104 104 104 104 105 105 102 102 106 106 102 102 105 105 102 102 106 106 94 94 107 107 94 94 106 106 94 94 107 107 92 92 108 108 109 109 110 110 111 111 110 110 109 109 110 110 111 111 99 99 112 112 99 99 111 111 99 99 112 112 97 97 61 61 113 113 62 62 114 114 62 62 113 113 62 62 114 114 115 115 116 116 115 115 114 114 116 116 117 117 115 115 118 118 115 115 117 117 115 115 118 118 110 110 119 119 110 110 118 118 110 110 119 119 108 108 120 120 121 121 122 122 123 123 124 124 125 125 126 126 125 125 124 124 125 125 126 126 127 127 127 127 128 128 125 125 129 129 125 125 128 128 125 125 129 129 130 130 131 131 130 130 129 129 130 130 131 131 120 120 132 132 120 120 131 131 120 120 132 132 121 121 133 133 134 134 125 125 135 135 125 125 134 134 135 135 136 136 125 125 137 137 125 125 136 136 125 125 137 137 138 138 138 138 139 139 125 125 140 140 125 125 139 139 125 125 140 140 123 123 141 141 142 142 143 143 143 143 144 144 141 141 145 145 141 141 144 144 141 141 145 145 146 146 146 146 147 147 141 141 148 148 141 141 147 147 141 141 148 148 149 149 150 150 133 133 151 151 152 152 151 151 133 133 151 151 152 152 149 149 150 150 153 153 133 133 154 154 133 133 153 153 133 133 154 154 155 155 155 155 156 156 133 133 157 157 133 133 156 156 133 133 157 157 134 134 158 158 159 159 160 160 158 158 160 160 161 161 159 159 162 162 160 160 163 163 160 160 162 162 160 160 163 163 141 141 164 164 141 141 163 163 141 141 164 164 142 142 165 165 166 166 167 167 168 168 167 167 166 166 167 167 168 168 169 169 170 170 169 169 168 168 169 169 170 170 171 171 171 171 172 172 169 169 173 173 169 169 172 172 169 169 173 173 160 160 174 174 160 160 173 173 160 160 174 174 161 161 175 175 176 176 177 177 178 178 177 177 176 176 177 177 178 178 167 167 179 179 167 167 178 178 167 167 179 179 165 165 180 180 181 181 182 182 183 183 182 182 181 181 180 180 184 184 181 181 185 185 181 181 184 184 181 181 185 185 177 177 186 186 177 177 185 185 177 177 186 186 175 175 187 187 188 188 189 189 189 189 190 190 187 187 191 191 187 187 190 190 187 187 191 191 192 192 192 192 193 193 187 187 194 194 187 187 193 193 187 187 194 194 195 195 195 195 196 196 187 187 197 197 187 187 196 196 187 187 197 197 198 198 199 199 198 198 200 200 200 200 201 201 199 199 202 202 199 199 201 201 199 199 202 202 203 203 203 203 204 204 199 199 205 205 199 199 204 204 199 199 205 205 206 206 206 206 207 207 199 199 208 208 199 199 207 207 199 199 208 208 181 181 209 209 181 181 208 208 181 181 209 209 183 183 210 210 211 211 188 188 122 122 212 212 120 120 213 213 120 120 212 212 120 120 213 213 188 188 214 214 188 188 213 213 188 188 214 214 210 210 211 211 215 215 188 188 216 216 188 188 215 215 188 188 216 216 189 189 149 149 152 152 141 141 217 217 141 141 152 152 141 141 217 217 218 218 219 219 218 218 217 217 218 218 219 219 220 220 221 221 220 220 219 219 220 220 221 221 222 222 222 222 221 221 223 223 224 224 223 223 221 221 223 223 224 224 225 225 224 224 226 226 225 225 227 227 225 225 226 226 225 225 227 227 228 228 229 229 228 228 227 227 228 228 229 229 230 230 99 99 230 230 229 229 230 230 99 99 102 102 101 101 102 102 99 99 102 102 101 101 103 103 80 80 231 231 74 74 232 232 74 74 231 231 74 74 232 232 233 233 66 66 68 68 234 234 235 235 234 234 68 68 234 234 235 235 236 236 198 198 199 199 187 187 237 237 187 187 199 199 187 187 237 237 238 238 239 239 238 238 237 237 238 238 239 239 240 240 241 241 240 240 239 239 240 240 241 241 242 242 243 243 242 242 241 241 242 242 243 243 244 244 245 245 244 244 243 243 244 244 245 245 246 246 247 247 246 246 245 245 246 246 247 247 248 248 233 233 248 248 247 247 248 248 233 233 235 235 232 232 235 235 233 233 235 235 232 232 236 236 249 249 250 250 251 251 252 252 253 253 254 254 254 254 253 253 255 255 256 256 257 257 249 249 250 250 249 249 258 258 256 256 249 249 259 259 259 259 249 249 260 260 251 251 260 260 249 249 260 260 251 251 254 254 261 261 254 254 251 251 254 254 261 261 252 252 262 262 263 263 264 264 265 265 264 264 263 263 264 264 265 265 266 266 258 258 249 249 266 266 257 257 266 266 249 249 266 266 257 257 264 264 267 267 264 264 257 257 264 264 267 267 268 268 268 268 269 269 264 264 270 270 264 264 269 269 264 264 270 270 262 262 271 271 272 272 273 273 274 274 273 273 272 272 274 274 272 272 253 253 275 275 253 253 272 272 253 253 275 275 255 255 271 271 276 276 277 277 278 278 277 277 276 276 277 277 278 278 279 279 280 280 281 281 277 277 282 282 277 277 281 281 277 277 282 282 271 271 283 283 271 271 282 282 271 271 283 283 272 272 284 284 272 272 283 283 272 272 284 284 275 275 285 285 286 286 287 287 285 285 287 287 288 288 280 280 277 277 286 286 279 279 286 286 277 277 286 286 279 279 287 287 289 289 287 287 279 279 287 287 289 289 290 290 290 290 291 291 287 287 292 292 287 287 291 291 287 287 292 292 288 288 293 293 294 294 295 295 296 296 295 295 294 294 295 295 296 296 297 297 295 295 298 298 293 293 299 299 293 293 298 298 293 293 299 299 300 300 301 301 300 300 299 299 300 300 301 301 302 302 303 303 304 304 301 301 304 304 305 305 301 301 306 306 301 301 305 305 301 301 306 306 302 302 301 301 307 307 303 303 308 308 303 303 307 307 303 303 308 308 309 309 310 310 309 309 308 308 309 309 310 310 311 311 312 312 311 311 310 310 313 313 314 314 315 315 316 316 315 315 314 314 315 315 316 316 317 317 312 312 310 310 317 317 318 318 317 317 310 310 317 317 318 318 315 315 313 313 315 315 319 319 320 320 319 319 315 315 319 319 320 320 321 321 321 321 320 320 322 322 323 323 322 322 320 320 322 322 323 323 324 324 325 325 326 326 327 327 328 328 327 327 326 326 327 327 328 328 323 323 329 329 323 323 328 328 323 323 329 329 324 324 330 330 331 331 332 332 333 333 332 332 331 331 332 332 333 333 334 334 335 335 334 334 333 333 334 334 335 335 327 327 336 336 327 327 335 335 327 327 336 336 325 325 337 337 338 338 339 339 340 340 339 339 338 338 340 340 341 341 339 339 342 342 339 339 341 341 339 339 342 342 343 343 344 344 343 343 342 342 343 343 344 344 332 332 345 345 332 332 344 344 332 332 345 345 330 330 346 346 347 347 348 348 349 349 348 348 347 347 349 349 350 350 348 348 351 351 348 348 350 350 348 348 351 351 352 352 353 353 352 352 351 351 352 352 353 353 337 337 354 354 337 337 353 353 337 337 354 354 338 338 355 355 356 356 357 357 358 358 357 357 356 356 357 357 358 358 346 346 359 359 346 346 358 358 346 346 359 359 347 347 360 360 361 361 362 362 363 363 356 356 355 355 363 363 355 355 364 364 365 365 366 366 367 367 368 368 367 367 366 366 367 367 368 368 369 369 364 364 369 369 368 368 369 369 364 364 370 370 355 355 370 370 364 364 371 371 372 372 367 367 373 373 367 367 372 372 367 367 373 373 365 365 374 374 375 375 376 376 377 377 376 376 375 375 376 376 377 377 378 378 371 371 378 378 377 377 378 378 371 371 379 379 367 367 379 379 371 371 380 380 381 381 382 382 383 383 382 382 381 381 382 382 383 383 376 376 384 384 376 376 383 383 376 376 384 384 374 374 380 380 382 382 385 385 386 386 385 385 382 382 385 385 386 386 387 387 387 387 386 386 388 388 389 389 388 388 386 386 388 388 389 389 390 390 391 391 392 392 393 393 394 394 393 393 392 392 393 393 394 394 389 389 395 395 389 389 394 394 389 389 395 395 390 390 396 396 397 397 398 398 399 399 398 398 397 397 398 398 399 399 400 400 401 401 400 400 399 399 400 400 401 401 393 393 402 402 393 393 401 401 393 393 402 402 391 391 362 362 361 361 403 403 361 361 404 404 403 403 405 405 403 403 404 404 403 403 405 405 406 406 407 407 406 406 405 405 406 406 407 407 398 398 408 408 398 398 407 407 398 398 408 408 396 396 409 409 295 295 297 297 297 297 410 410 409 409 411 411 409 409 410 410 409 409 411 411 412 412 413 413 412 412 411 411 412 412 413 413 362 362 414 414 362 362 413 413 362 362 414 414 360 360 415 415 416 416 417 417 418 418 419 419 420 420 421 421 420 420 419 419 420 420 421 421 422 422 418 418 420 420 423 423 424 424 423 423 420 420 423 423 424 424 425 425 425 425 424 424 426 426 427 427 426 426 424 424 426 426 427 427 428 428 428 428 427 427 429 429 430 430 429 429 427 427 429 429 430 430 431 431 431 431 430 430 432 432 433 433 432 432 430 430 432 432 433 433 434 434 434 434 433 433 435 435 436 436 435 435 433 433 435 435 436 436 437 437 437 437 436 436 438 438 439 439 438 438 436 436 438 438 439 439 440 440 440 440 439 439 441 441 442 442 441 441 439 439 441 441 442 442 443 443 444 444 445 445 446 446 447 447 446 446 445 445 447 447 448 448 446 446 449 449 446 446 448 448 446 446 449 449 442 442 450 450 442 442 449 449 442 442 450 450 443 443 451 451 452 452 453 453 454 454 453 453 452 452 453 453 454 454 444 444 455 455 444 444 454 454 444 444 455 455 445 445 416 416 456 456 417 417 457 457 417 417 456 456 417 417 457 457 451 451 458 458 451 451 457 457 451 451 458 458 452 452 415 415 417 417 459 459 460 460 459 459 417 417 459 459 460 460 461 461 462 462 461 461 460 460 461 461 462 462 463 463 463 463 462 462 464 464 465 465 464 464 462 462 464 464 465 465 466 466 466 466 465 465 467 467 468 468 467 467 465 465 467 467 468 468 469 469 469 469 468 468 470 470 471 471 470 470 468 468 470 470 471 471 472 472 472 472 471 471 473 473 474 474 473 473 471 471 473 473 474 474 475 475 475 475 474 474 476 476 477 477 476 476 474 474 476 476 477 477 478 478 479 479 480 480 481 481 482 482 481 481 480 480 482 482 483 483 481 481 484 484 481 481 483 483 481 481 484 484 477 477 485 485 477 477 484 484 477 477 485 485 478 478 421 421 486 486 422 422 487 487 422 422 486 486 422 422 487 487 488 488 489 489 488 488 487 487 488 488 489 489 479 479 490 490 479 479 489 489 479 479 490 490 480 480 491 491 492 492 493 493 494 494 493 493 492 492 493 493 494 494 495 495 496 496 497 497 493 493 498 498 493 493 497 497 493 493 498 498 491 491 499 499 500 500 493 493 501 501 493 493 500 500 493 493 501 501 496 496 502 502 503 503 493 493 504 504 493 493 503 503 493 493 504 504 499 499 505 505 506 506 493 493 507 507 493 493 506 506 493 493 507 507 502 502 508 508 509 509 493 493 510 510 493 493 509 509 493 493 510 510 505 505 511 511 512 512 493 493 513 513 493 493 512 512 493 493 513 513 508 508 495 495 514 514 493 493 515 515 493 493 514 514 493 493 515 515 511 511</p>
        </triangles>
      </mesh>
    </geometry>
  </library_geometries>
  <library_materials>
    <material id="1ec349e125344aaebdd7badc9396e4e8" name="defaultmaterial">
      <instance_effect url="#6530bd13928c490f8e0cd285d8b341ce"/>
    </material>
  </library_materials>
  <library_visual_scenes>
    <visual_scene id="scene">
      <node id="node0" name="node0">
        <instance_geometry url="#02fafb9ca2db46d291f3d3c1dddddbcb">
          <bind_material>
            <technique_common>
              <instance_material symbol="material0" target="#1ec349e125344aaebdd7badc9396e4e8"/>
            </technique_common>
          </bind_material>
        </instance_geometry>
      </node>
    </visual_scene>
  </library_visual_scenes>
  <scene>
    <instance_visual_scene url="#scene"/>
  </scene>
</COLLADA>
