<COLLADA xmlns="http://www.collada.org/2005/11/COLLADASchema" version="1.4.1">
  <asset>
    <created>2026-09-28T09:20:15.608657</created>
    <modified>2026-09-28T09:20:15.608657</modified>
    <up_axis>Y_UP</up_axis>
  </asset>
  <library_effects>
    <effect id="865f17ccbfaf475a8c5e104a8ed463f7" name="865f17ccbfaf475a8c5e104a8ed463f7">
      <profile_COMMON>
        <technique sid="common">
          <phong>
            <emission>
              <color>0.0 0.0 0.0 1.0</color>
            </emission>
            <ambient>
              <color>0.0 0.0 0.0 1.0</color>
            </ambient>
            <diffuse>
              <color>0.5019607843137255 0.5019607843137255 0.5019607843137255 1.0</color>
            </diffuse>
            <specular>
              <color>0.0 0.0 0.0 1.0</color>
            </specular>
            <shininess>
              <float>0.0</float>
            </shininess>
            <reflective>
              <color>0.0 0.0 0.0 1.0</color>
            </reflective>
            <reflectivity>
              <float>0.0</float>
            </reflectivity>
            <transparent>
              <color>0.0 0.0 0.0 1.0</color>
            </transparent>
            <transparency>
              <float>1.0</float>
            </transparency>
          </phong>
        </technique>
        <extra>
          <technique profile="GOOGLEEARTH">
            <double_sided>0</double_sided>
          </technique>
        </extra>
      </profile_COMMON>
    </effect>
  </library_effects>
  <library_geometries>
    <geometry id="0ffae2cf31b04be1a898152a8aa94ee6" name="4a6abdf382694ed8adf813c95c4cadd8">
      <mesh>
        <source id="verts-array">
          <float_array count="1272" id="verts-array-array">-2.232948e-06 0.0500807 0.1191463 -0.005806833 0.0497426 0.1191463 -2.232937e-06 8.070232e-05 0.1191463 0.02747327 0.0418551 0.1191463 0.01709881 0.0470653 0.1191463 0.005802447 0.0497426 0.1191463 0.04789727 0.01442082 0.1191463 0.04329907 0.0250807 0.1191463 0.03636647 0.0343927 0.1191463 0.04590857 -0.0197233 0.1191463 0.04923817 -0.008601698 0.1191463 0.04991317 0.002987902 0.1191463 0.02243777 -0.044601 0.1191463 0.03213717 -0.0382216 0.1191463 0.04010397 -0.0297773 0.1191463 -0.01153303 -0.0485716 0.1191463 -2.232927e-06 -0.0499193 0.1191463 0.01152859 -0.0485716 0.1191463 -0.04010833 -0.0297773 0.1191463 -0.03214163 -0.0382216 0.1191463 -0.02244213 -0.044601 0.1191463 -0.04991763 0.002987902 0.1191463 -0.04924263 -0.008601698 0.1191463 -0.04591303 -0.0197233 0.1191463 -0.03637093 0.0343927 0.1191463 -0.04330343 0.0250807 0.1191463 -0.04790163 0.01442082 0.1191463 -0.01710323 0.0470653 0.1191463 -0.02747763 0.0418551 0.1191463 -2.232948e-06 0.0500807 -0.1208537 0.005802447 0.0497426 -0.1208537 -2.232937e-06 8.070232e-05 -0.1208537 -0.02747763 0.0418551 -0.1208537 -0.01710323 0.0470653 -0.1208537 -0.005806833 0.0497426 -0.1208537 -0.04790163 0.01442082 -0.1208537 -0.04330343 0.0250807 -0.1208537 -0.03637093 0.0343927 -0.1208537 -0.04591303 -0.0197233 -0.1208537 -0.04924263 -0.008601698 -0.1208537 -0.04991763 0.002987902 -0.1208537 -0.02244213 -0.044601 -0.1208537 -0.03214163 -0.0382216 -0.1208537 -0.04010833 -0.0297773 -0.1208537 0.01152859 -0.0485716 -0.1208537 -2.232927e-06 -0.0499193 -0.1208537 -0.01153303 -0.0485716 -0.1208537 0.04010397 -0.0297773 -0.1208537 0.03213717 -0.0382216 -0.1208537 0.02243777 -0.044601 -0.1208537 0.04991317 0.002987902 -0.1208537 0.04923817 -0.008601698 -0.1208537 0.04590857 -0.0197233 -0.1208537 0.03636647 0.0343927 -0.1208537 0.04329907 0.0250807 -0.1208537 0.04789727 0.01442082 -0.1208537 0.01709881 0.0470653 -0.1208537 0.02747327 0.0418551 -0.1208537 -0.04769913 -0.0149193 -0.0448729 -0.04591303 -0.0197233 -0.0483192 -0.04591303 -0.0197233 0.1191463 -0.04074883 -0.0288971 -0.0630891 -0.04010833 -0.0297773 -0.0679375 -0.04010833 -0.0297773 0.1191463 -0.04924263 -0.008601698 -0.0995698 -0.04939503 -0.007687998 -0.0998304 -0.04924263 -0.008601698 -0.1208537 -0.04984713 -0.003853998 -0.1005946 -0.04991763 0.002987902 -0.1208537 -0.04855403 -0.0118658 -0.0983724 -0.04591303 -0.0197233 -0.1208537 -0.04769913 -0.0149193 -0.0968345 -0.04074883 -0.0288971 -0.0786183 -0.04162923 -0.0276175 -0.0823781 -0.04010833 -0.0297773 -0.1208537 -0.04272223 -0.0259001 -0.0858537 -0.04397573 -0.023717 -0.0891203 -0.04527913 -0.0211325 -0.0920669 -0.04591303 -0.0197233 -0.0933882 -0.03214163 -0.0382216 0.1191463 -0.04010833 -0.0297773 -0.0737699 -0.03214163 -0.0382216 -0.1208537 -0.04000223 -0.0299193 -0.0708537 -0.04397903 -0.023711 -0.0525792 -0.04272223 -0.0259001 -0.0558537 -0.04162443 -0.0276247 -0.0593467 -0.04527863 -0.0211337 -0.0496417 -0.04984613 -0.003867398 -0.0411146 -0.04924263 -0.008601698 0.1191463 -0.05000223 8.070231e-05 -0.0408537 -0.04991763 0.002987902 0.1191463 -0.04991763 0.002987902 -0.0409949 -0.04939563 -0.007683898 -0.0418759 -0.04923953 -0.008618998 -0.0421428 -0.04855353 -0.0118679 -0.0433359 -0.04939563 0.007845232 -0.0418759 -0.04790163 0.01442082 0.1191463 -0.04874173 0.01123687 -0.0430052 -0.04527913 0.02129386 -0.0496405 -0.04653883 0.01836556 -0.04707 -0.04330343 0.0250807 0.1191463 -0.04769913 0.01508066 -0.0448729 -0.04789663 0.01443755 -0.0445121 -0.04162203 0.0277898 -0.0823518 -0.04074883 0.0290584 -0.0786183 -0.03637093 0.0343927 -0.1208537 -0.04019353 0.0298239 -0.0747703 -0.04000223 0.0300807 -0.0708537 -0.03637093 0.0343927 0.1191463 -0.04019643 0.0298199 -0.0669066 -0.04074883 0.0290584 -0.0630891 -0.04162793 0.0277808 -0.059334 -0.04272223 0.0260614 -0.0558537 -0.04330343 0.0250807 -0.0542706 -0.04654583 0.01834776 -0.094651 -0.04527913 0.02129386 -0.0920669 -0.04330343 0.0250807 -0.1208537 -0.04330343 0.0250807 -0.0874368 -0.04272533 0.0260563 -0.0858626 -0.05000223 8.070231e-05 -0.1008537 -0.04991763 0.002987902 -0.1007125 -0.04790163 0.01442082 -0.1208537 -0.04939563 0.007845232 -0.0998315 -0.04874733 0.01121239 -0.098712 -0.04790163 0.01442082 -0.0972044 -0.04769793 0.01508443 -0.0968323 0.04999777 8.070233e-05 0.0191948 0.04923817 -0.008601698 -0.1208537 0.04998337 0.001264602 0.0191514 0.04991317 0.002987902 -0.1208537 0.04788137 0.01447176 0.0219617 0.04818037 0.01343785 0.0215022 0.04789727 0.01442082 -0.1208537 0.04946607 0.007353572 0.0196674 0.04991147 0.002998302 0.0191725 0.04588637 0.01993643 0.0252597 0.04329907 0.0250807 -0.1208537 0.04351697 0.0246991 0.0297826 0.03960017 0.0306037 0.0574809 0.03876187 0.031662 0.0518527 0.03636647 0.0343927 0.1191463 0.03875777 0.0316672 0.0464796 0.03958957 0.0306176 0.0408559 0.03636647 0.0343927 -0.1208537 0.04118737 0.0284251 0.0353507 0.04327307 0.0251253 0.0302985 0.04654847 0.01832355 0.0741748 0.04329907 0.0250807 0.1191463 0.04787797 0.01448198 0.0763267 0.04789727 0.01442082 0.1191463 0.04842357 0.01252845 0.0771568 0.04396847 0.0238832 0.0694358 0.04323257 0.025195 0.0679071 0.04138397 0.0281375 0.0634851 0.04922857 -0.008652398 0.0772709 0.04973767 -0.005012898 0.0783659 0.04923817 -0.008601698 0.1191463 0.04999777 8.070233e-05 0.0790978 0.04991317 0.002987902 0.1191463 0.04991217 0.002995982 0.0791212 0.04959457 0.006418102 0.0787865 0.04874527 -0.0110408 0.0762662 0.04590857 -0.0197233 0.1191463 0.04687017 -0.017325 0.0722712 0.04275977 -0.0258311 0.0374276 0.04158727 -0.0276739 0.0434764 0.04010397 -0.0297773 -0.1208537 0.04122137 -0.0282145 0.0491486 0.04010397 -0.0297773 0.1191463 0.04165317 -0.0275749 0.0553081 0.04284047 -0.0256973 0.0611753 0.04467017 -0.0223778 0.066927 0.04584977 -0.0198591 0.0699191 0.04959977 -0.006215298 0.020233 0.04922777 -0.008658298 0.0210235 0.04590857 -0.0197233 -0.1208537 0.04847347 -0.0121711 0.0225905 0.04671667 -0.0177339 0.0263644 0.04586457 -0.019825 0.0283379 0.04480317 -0.0221107 0.0310096 0.02747327 0.0418551 -0.1208537 0.02747327 0.0418551 0.1191463 0.01709881 0.0470653 -0.1208537 0.01709881 0.0470653 0.1191463 0.005802447 0.0497426 -0.1208537 0.005802447 0.0497426 0.1191463 -2.232948e-06 0.0500807 0.1191463 -2.232948e-06 0.0500807 -0.1208537 -0.005806833 0.0497426 0.1191463 -0.005806833 0.0497426 -0.1208537 -0.01710323 0.0470653 -0.1208537 -0.01710323 0.0470653 0.1191463 -0.02747763 0.0418551 -0.1208537 -0.02747763 0.0418551 0.1191463 0.03213717 -0.0382216 0.1191463 0.03213717 -0.0382216 -0.1208537 0.02243777 -0.044601 0.1191463 0.02243777 -0.044601 -0.1208537 0.01152859 -0.0485716 0.1191463 0.01152859 -0.0485716 -0.1208537 -2.232927e-06 -0.0499193 0.1191463 -2.232927e-06 -0.0499193 -0.1208537 -0.01153303 -0.0485716 0.1191463 -0.01153303 -0.0485716 -0.1208537 -0.02244213 -0.044601 0.1191463 -0.02244213 -0.044601 -0.1208537 0.4977412 -0.0147697 0.0474309 0.4968702 -0.017325 0.0722712 0.4946702 -0.0223778 0.066927 0.4999072 -0.002934298 0.0195196 0.4999982 8.070242e-05 0.0191948 0.4998972 0.003255792 0.0489906 0.4995942 0.006418102 0.0787865 0.4999982 8.070242e-05 0.0790978 0.4999072 -0.002922098 0.078775 0.4998332 -0.003974498 0.0489427 0.4996002 -0.006215298 0.020233 0.4984732 -0.0121711 0.0225905 0.4997382 -0.005012898 0.0783659 0.4987452 -0.0110408 0.0762662 0.4982312 -0.0130931 0.0751972 0.4967162 -0.0177339 0.0263644 0.4927602 -0.0258311 0.0374276 0.4948032 -0.0221107 0.0310096 0.4938582 -0.0239241 0.0460924 0.4928402 -0.0256973 0.0611753 0.4916532 -0.0275749 0.0553081 0.4912212 -0.0282145 0.0491486 0.4915872 -0.0276739 0.0434764 0.4999832 0.001264602 0.0191514 0.4994662 0.007353572 0.0196674 0.4990132 0.009953352 0.0501443 0.4984232 0.01252845 0.0771568 0.4969492 0.0172667 0.074842 0.4935172 0.0246991 0.0297826 0.4967442 0.01782368 0.0488285 0.4958862 0.01993643 0.0252597 0.4969312 0.01732088 0.0234822 0.4981802 0.01343785 0.0215022 0.4965482 0.01832355 0.0741748 0.4939682 0.0238832 0.0694358 0.4913842 0.0281375 0.0634851 0.4926382 0.0261913 0.0523933 0.4896002 0.0306037 0.0574809 0.4911872 0.0284251 0.0353507 0.4895892 0.0306176 0.0408559 0.4887582 0.0316672 0.0464796 0.4887622 0.031662 0.0518527 0.4999982 8.070242e-05 0.0191948 0.04999777 8.070233e-05 0.0191948 0.04998337 0.001264602 0.0191514 0.04991147 0.002998302 0.0191725 0.04946607 0.007353572 0.0196674 0.4994662 0.007353572 0.0196674 0.04818037 0.01343785 0.0215022 0.04999777 8.070233e-05 0.0790978 0.4999982 8.070242e-05 0.0790978 0.04991217 0.002995982 0.0791212 0.4995942 0.006418102 0.0787865 0.04959457 0.006418102 0.0787865 0.4984232 0.01252845 0.0771568 0.04842357 0.01252845 0.0771568 0.4969492 0.0172667 0.074842 0.04787797 0.01448198 0.0763267 0.4965482 0.01832355 0.0741748 0.04654847 0.01832355 0.0741748 0.4939682 0.0238832 0.0694358 0.04396847 0.0238832 0.0694358 0.04323257 0.025195 0.0679071 0.4913842 0.0281375 0.0634851 0.04138397 0.0281375 0.0634851 0.4896002 0.0306037 0.0574809 0.03960017 0.0306037 0.0574809 0.4887622 0.031662 0.0518527 0.03876187 0.031662 0.0518527 0.4887582 0.0316672 0.0464796 0.03875777 0.0316672 0.0464796 0.4895892 0.0306176 0.0408559 0.03958957 0.0306176 0.0408559 0.4911872 0.0284251 0.0353507 0.04118737 0.0284251 0.0353507 0.04327307 0.0251253 0.0302985 0.4935172 0.0246991 0.0297826 0.04351697 0.0246991 0.0297826 0.4958862 0.01993643 0.0252597 0.04588637 0.01993643 0.0252597 0.04788137 0.01447176 0.0219617 0.4969312 0.01732088 0.0234822 0.4981802 0.01343785 0.0215022 0.4999832 0.001264602 0.0191514 0.4967162 -0.0177339 0.0263644 0.04847347 -0.0121711 0.0225905 0.4984732 -0.0121711 0.0225905 0.04922777 -0.008658298 0.0210235 0.4996002 -0.006215298 0.020233 0.04959977 -0.006215298 0.020233 0.4999072 -0.002934298 0.0195196 0.4946702 -0.0223778 0.066927 0.04284047 -0.0256973 0.0611753 0.4928402 -0.0256973 0.0611753 0.04165317 -0.0275749 0.0553081 0.4916532 -0.0275749 0.0553081 0.04122137 -0.0282145 0.0491486 0.4912212 -0.0282145 0.0491486 0.04158727 -0.0276739 0.0434764 0.4915872 -0.0276739 0.0434764 0.04275977 -0.0258311 0.0374276 0.4927602 -0.0258311 0.0374276 0.04480317 -0.0221107 0.0310096 0.4948032 -0.0221107 0.0310096 0.04586457 -0.019825 0.0283379 0.04671667 -0.0177339 0.0263644 0.04687017 -0.017325 0.0722712 0.04584977 -0.0198591 0.0699191 0.04467017 -0.0223778 0.066927 0.4968702 -0.017325 0.0722712 0.4982312 -0.0130931 0.0751972 0.04874527 -0.0110408 0.0762662 0.4987452 -0.0110408 0.0762662 0.04922857 -0.008652398 0.0772709 0.04973767 -0.005012898 0.0783659 0.4999072 -0.002922098 0.078775 0.4997382 -0.005012898 0.0783659 -0.04855403 -0.0118658 -0.0983724 -0.04769913 -0.0149193 -0.0968345 -0.4500018 -0.0149193 -0.0968345 -0.04591303 -0.0197233 -0.0483192 -0.04769913 -0.0149193 -0.0448729 -0.4500018 -0.0149193 -0.0448729 -0.04769793 0.01508443 -0.0968323 -0.04790163 0.01442082 -0.0972044 -0.4500018 0.01508066 -0.0968345 -0.04874733 0.01121239 -0.098712 -0.4500018 0.007845232 -0.0998315 -0.04654583 0.01834776 -0.094651 -0.4500018 0.02129386 -0.0920669 -0.04527913 0.02129386 -0.0920669 -0.04330343 0.0250807 -0.0874368 -0.4500018 0.0260614 -0.0858537 -0.04272533 0.0260563 -0.0858626 -0.04162203 0.0277898 -0.0823518 -0.4500018 0.0290584 -0.0786183 -0.04074883 0.0290584 -0.0786183 -0.04019353 0.0298239 -0.0747703 -0.4500018 0.0300807 -0.0708537 -0.04000223 0.0300807 -0.0708537 -0.04019643 0.0298199 -0.0669066 -0.4500018 0.0290584 -0.0630891 -0.04074883 0.0290584 -0.0630891 -0.04162793 0.0277808 -0.059334 -0.4500018 0.0260614 -0.0558537 -0.04272223 0.0260614 -0.0558537 -0.04330343 0.0250807 -0.0542706 -0.4500018 0.02129386 -0.0496405 -0.04527913 0.02129386 -0.0496405 -0.4500018 0.007845232 -0.0418759 -0.04939563 0.007845232 -0.0418759 -0.4500018 0.01508066 -0.0448729 -0.04874173 0.01123687 -0.0430052 -0.04789663 0.01443755 -0.0445121 -0.04769913 0.01508066 -0.0448729 -0.04653883 0.01836556 -0.04707 -0.4500018 -0.007683898 -0.0418759 -0.04984613 -0.003867398 -0.0411146 -0.4500018 8.070223e-05 -0.0408537 -0.05000223 8.070231e-05 -0.0408537 -0.04991763 0.002987902 -0.0409949 -0.04855353 -0.0118679 -0.0433359 -0.04923953 -0.008618998 -0.0421428 -0.04939563 -0.007683898 -0.0418759 -0.04527863 -0.0211337 -0.0496417 -0.4500018 -0.0211325 -0.0496405 -0.04397903 -0.023711 -0.0525792 -0.4500018 -0.0259001 -0.0558537 -0.04272223 -0.0259001 -0.0558537 -0.04162443 -0.0276247 -0.0593467 -0.4500018 -0.0288971 -0.0630891 -0.04074883 -0.0288971 -0.0630891 -0.04010833 -0.0297773 -0.0679375 -0.4500018 -0.0299193 -0.0708537 -0.04000223 -0.0299193 -0.0708537 -0.04010833 -0.0297773 -0.0737699 -0.4500018 -0.0288971 -0.0786183 -0.04074883 -0.0288971 -0.0786183 -0.04162923 -0.0276175 -0.0823781 -0.4500018 -0.0259001 -0.0858537 -0.04272223 -0.0259001 -0.0858537 -0.04397573 -0.023717 -0.0891203 -0.4500018 -0.0211325 -0.0920669 -0.04527913 -0.0211325 -0.0920669 -0.04591303 -0.0197233 -0.0933882 -0.4500018 -0.007683898 -0.0998315 -0.04939503 -0.007687998 -0.0998304 -0.04924263 -0.008601698 -0.0995698 -0.04939563 0.007845232 -0.0998315 -0.04991763 0.002987902 -0.1007125 -0.4500018 8.070223e-05 -0.1008537 -0.05000223 8.070231e-05 -0.1008537 -0.04984713 -0.003853998 -0.1005946 -0.4500018 -0.0149193 -0.0448729 -0.4500018 -0.007683898 -0.0418759 -0.4500018 8.070223e-05 -0.0708537 -0.4500018 8.070223e-05 -0.0408537 -0.4500018 0.007845232 -0.0418759 -0.4500018 -0.0288971 -0.0630891 -0.4500018 -0.0259001 -0.0558537 -0.4500018 -0.0211325 -0.0496405 -0.4500018 -0.0259001 -0.0858537 -0.4500018 -0.0288971 -0.0786183 -0.4500018 -0.0299193 -0.0708537 -0.4500018 -0.007683898 -0.0998315 -0.4500018 -0.0149193 -0.0968345 -0.4500018 -0.0211325 -0.0920669 -0.4500018 0.01508066 -0.0968345 -0.4500018 0.007845232 -0.0998315 -0.4500018 8.070223e-05 -0.1008537 -0.4500018 0.0290584 -0.0786183 -0.4500018 0.0260614 -0.0858537 -0.4500018 0.02129386 -0.0920669 -0.4500018 0.0260614 -0.0558537 -0.4500018 0.0290584 -0.0630891 -0.4500018 0.0300807 -0.0708537 -0.4500018 0.01508066 -0.0448729 -0.4500018 0.02129386 -0.0496405</float_array>
          <technique_common>
            <accessor count="424" source="#verts-array-array" stride="3">
              <param type="float" name="X"/>
              <param type="float" name="Y"/>
              <param type="float" name="Z"/>
            </accessor>
          </technique_common>
        </source>
        <source id="normals-array">
          <float_array count="1272" id="normals-array-array">0 0 1 0 0 1 0 0 1 0 0 1 0 0 1 0 0 1 0 0 1 0 0 1 0 0 1 0 0 1 0 0 1 0 0 1 0 0 1 0 0 1 0 0 1 0 0 1 0 0 1 0 0 1 0 0 1 0 0 1 0 0 1 0 0 1 0 0 1 0 0 1 0 0 1 0 0 1 0 0 1 0 0 1 0 0 1 0 0 -1 0 0 -1 0 0 -1 0 0 -1 0 0 -1 0 0 -1 0 0 -1 0 0 -1 0 0 -1 0 0 -1 0 0 -1 0 0 -1 0 0 -1 0 0 -1 0 0 -1 0 0 -1 0 0 -1 0 0 -1 0 0 -1 0 0 -1 0 0 -1 0 0 -1 0 0 -1 0 0 -1 0 0 -1 0 0 -1 0 0 -1 0 0 -1 0 0 -1 -0.9469058 -0.3215099 0.0008946192 -0.9176662 -0.397327 0.004475903 -0.9182133 -0.3960864 6.094712e-05 -0.8104095 -0.5858639 1.860161e-05 -0.7317749 -0.6815462 0.0004523287 -0.8021232 -0.5971586 5.555494e-05 -0.9818715 -0.1895476 0 -0.9895998 -0.1438451 -0.0009220133 -0.9845236 -0.1747942 -0.01266134 -0.9968059 -0.07952263 -0.007360752 -0.9979765 0.06319388 -0.007030583 -0.9668203 -0.2552564 -0.0101375 -0.9173227 -0.3980608 -0.008158988 -0.9474674 -0.3197864 -0.006495536 -0.8104209 -0.585848 -8.07661e-05 -0.8263138 -0.563209 -0.001047987 -0.8010351 -0.5986093 -0.003120556 -0.8461506 -0.5329277 -0.00415674 -0.8688497 -0.4949454 -0.01136567 -0.8893791 -0.4570043 -0.01232154 -0.9200239 -0.3918623 0 -0.642788 -0.7660441 0 -0.7462759 -0.6656194 -0.004801919 -0.6427874 -0.7660446 -3.180645e-06 -0.7008335 -0.7132771 0.008257366 -0.8725316 -0.4885517 0.002408533 -0.8479311 -0.5301057 0.0009204644 -0.826868 -0.562396 0.0002409105 -0.8965205 -0.4429764 0.004777407 -0.9967183 -0.08093726 0.001362392 -0.9847204 -0.1741407 0.0007987217 -0.9999795 -0.006277583 0.001295074 -0.9983149 0.05800181 0.001798155 -0.9974962 0.07072005 0 -0.9895223 -0.1443803 0.00011728 -0.9812518 -0.1927014 0.003334537 -0.9691348 -0.2465018 0.00383199 -0.9878997 0.1550918 0.0008114104 -0.9578433 0.2872884 0.001242571 -0.9732567 0.2297197 0.000531705 -0.8958385 0.4443795 0.0005161191 -0.9261639 0.3771108 0.002792499 -0.866061 0.499938 0.0006085951 -0.9463428 0.3231499 0.003077234 -0.960009 0.2799693 -7.097633e-07 -0.814025 0.5807174 -0.01143081 -0.7977186 0.6029946 -0.006529551 -0.7272585 0.6863629 -0.0009951541 -0.7824409 0.6227168 -0.003165777 -0.7668011 0.6418848 -0.0001215719 -0.7272254 0.6863986 0.0003624743 -0.793526 0.6085349 0.001359427 -0.8067493 0.5908902 0.002084566 -0.8232945 0.5676053 0.003222258 -0.8427599 0.5382773 0.003633773 -0.8665076 0.4991639 0 -0.9243411 0.3812136 -0.01642561 -0.8961549 0.4437304 -0.003133282 -0.8657837 0.5004141 -0.002084066 -0.8491467 0.5279 -0.01647673 -0.8319217 0.5545692 -0.01895488 -0.9999468 -0.008730266 -0.005498806 -0.9963921 0.08383346 -0.0132221 -0.957767 0.2875307 -0.002905872 -0.9882299 0.1512487 -0.02292178 -0.9736705 0.2279222 -0.004162319 -0.9519697 0.3054501 -0.02130455 -0.9423946 0.3327789 -0.03391999 0.9996393 -0.02658988 -0.003773421 0.9847426 -0.1740159 -0.0006450556 0.9996918 0.0246445 -0.002997062 0.998326 0.05781216 -0.001722993 0.9474999 0.319756 -8.564357e-06 0.9682798 0.2498684 -0.0002002451 0.9579926 0.286784 -0.002243638 0.9869491 0.161032 -0.0003364492 0.997348 0.07278053 6.702846e-06 0.9104401 0.413641 -0.0001725056 0.8659635 0.5001028 -0.002099422 0.8755342 0.4831561 -4.252992e-05 0.7823837 0.6227905 0.002760721 0.7547635 0.6559969 0.0002471217 0.7272767 0.6863441 0.0006047598 0.7539846 0.656892 -7.419296e-05 0.7847476 0.6198143 -0.0011716 0.72695 0.6866897 -0.0009628917 0.813271 0.5818823 -0.0017972 0.8507461 0.5255769 -8.741736e-06 0.9207179 0.3901489 0.007904702 0.8660044 0.5000356 0.0008546423 0.9484907 0.3166548 0.00974816 0.9579701 0.2868666 0.0008764912 0.9717534 0.2359935 0.00154437 0.8825002 0.4703117 0.0005541548 0.8435563 0.5369528 0.009719431 0.8120716 0.583508 0.007628475 0.9846031 -0.1748051 -1.40792e-05 0.995106 -0.09875086 0.003498209 0.984735 -0.1739693 0.00562734 0.9998704 -0.01558419 0.004047897 0.9981848 0.06014896 0.003043898 0.9975094 0.06984036 0.009862067 0.9898557 0.1414251 0.01358521 0.9661146 -0.258093 0.003254317 0.9181533 -0.3961947 0.004920877 0.9381854 -0.3461299 0.00153676 0.8486951 -0.5288814 -0.001054406 0.8285782 -0.5598733 -0.00031274 0.802107 -0.5971803 -0.0001053876 0.8145417 -0.5801049 1.738741e-05 0.8011933 -0.5984008 0.002394314 0.8280997 -0.5605804 0.0007561255 0.8483864 -0.5293701 0.002790699 0.8782854 -0.4781099 0.005072572 0.9116515 -0.4109643 4.476873e-05 0.9936113 -0.1128549 -0.0006377138 0.9816872 -0.1904645 -0.003677908 0.9182212 -0.3960679 -0.0001310884 0.9630457 -0.2693209 -0.003040561 0.9351084 -0.3543615 -0.0003443481 0.9093178 -0.4160773 -0.004565187 0.8821978 -0.4708658 -0.003527412 0.5495107 0.8354867 0 0.5495107 0.8354867 0 0.3420189 0.9396931 0 0.3420189 0.9396931 0 0.1449338 0.9894414 0 0.1449338 0.9894414 0 -4.002269e-07 1 0 -4.002269e-07 1 0 -0.1449338 0.9894414 0 -0.1449338 0.9894414 0 -0.3420196 0.9396928 0 -0.3420196 0.9396928 0 -0.5495093 0.8354876 0 -0.5495093 0.8354876 0 0.6427874 -0.7660446 0 0.6427874 -0.7660446 0 0.4487987 -0.8936329 0 0.4487987 -0.8936329 0 0.2306128 -0.9730456 0 0.2306128 -0.9730456 0 -1.147899e-07 -1 0 -1.147899e-07 -1 0 -0.230614 -0.9730453 0 -0.230614 -0.9730453 0 -0.4487976 -0.8936334 0 -0.4487976 -0.8936334 0 0.9460571 -0.324 7.718622e-05 0.942703 -0.3336307 -0.001265374 0.912971 -0.4079944 -0.004949784 0.9984447 -0.05567998 0.002818833 0.9999516 -0.008832409 0.004330772 0.998688 0.05120785 -0.0002222367 0.992751 0.1201482 0.003131022 0.9998898 0.01473464 -0.001800402 0.9987235 -0.05042433 -0.002958825 0.9934136 -0.1145822 -0.0005469175 0.9912355 -0.1320875 0.002264873 0.9751954 -0.2213343 0.002258843 0.9933482 -0.1151463 -0.0008564616 0.9816236 -0.1908221 -0.001462623 0.9646173 -0.2636532 0.0006632915 0.9432734 -0.332016 0.0008215176 0.8697317 -0.4935223 -0.001594772 0.9136431 -0.4064702 0.006185551 0.8707625 -0.4917031 0.0008587641 0.8705079 -0.4921535 0.0008944178 0.8510312 -0.5250967 -0.004394604 0.8513974 -0.5245184 -0.001720669 0.853434 -0.5211646 0.006159982 0.9989107 0.04666221 -0.0002348257 0.9903379 0.1386478 -0.002745231 0.9756853 0.2191759 0.000218096 0.9724763 0.2329996 -0.0009712797 0.9498871 0.3125684 -0.003935066 0.8884163 0.4590233 0.003755283 0.923048 0.3846847 -0.0002559987 0.919255 0.3936583 0.001823627 0.9466025 0.3223639 0.005019179 0.9689142 0.2473895 0.001917537 0.9269072 0.3752903 -0.0003404625 0.8964247 0.4431958 -0.0004556734 0.8446489 0.5353184 0.001564497 0.842627 0.5384965 -0.001143819 0.8183051 0.5747008 -0.009788256 0.8401566 0.5423437 -0.0004447648 0.8144944 0.5801253 0.007316676 0.8121252 0.5834363 0.007405367 0.8162102 0.5777274 -0.005655296 1.470975e-11 -0.07171871 -0.9974249 -0.000191465 -0.1007239 -0.9949144 0.0004954998 -0.01149266 -0.9999338 0.0004729328 0.06457871 -0.9979125 -4.303417e-11 0.2098169 -0.9777407 1.259355e-06 0.1779498 -0.9840396 0.0002941896 0.3567334 -0.9342062 -0.0001200617 -0.07566002 0.9971337 0.0001826707 -0.02996766 0.9995509 1.630213e-06 0.04671885 0.9989081 0.0002002003 0.1458098 0.9893126 -3.79356e-11 0.1849584 0.9827464 -6.898473e-11 0.3363412 0.9417402 0.0003486591 0.3345055 0.9423937 -0.0002090383 0.4782482 0.8782247 0.0002568143 0.4487812 0.8936416 -0.0003095082 0.5804721 0.8142801 -1.204515e-10 0.5872719 0.8093897 0.0001556198 0.7183368 0.6956955 -1.472487e-10 0.7179241 0.6961214 2.066107e-06 0.805206 0.5929951 0.0002353148 0.8643529 0.5028857 -1.829549e-10 0.8920127 0.4520102 -1.958969e-10 0.9551126 0.296243 -1.97464e-10 0.9627535 0.2703807 -2.041286e-10 0.9952471 0.0973821 -2.042935e-10 0.9960513 0.08877938 -2.041623e-10 0.9954113 -0.09568847 -2.043221e-10 0.9961904 -0.08720507 -1.963056e-10 0.9571052 -0.2897407 -1.977491e-10 0.9641431 -0.265383 8.85392e-05 0.8756694 -0.4829111 -1.83841e-10 0.8963334 -0.4433808 7.163262e-07 0.8125409 -0.5829042 5.890085e-05 0.7488264 -0.6627662 -1.518116e-10 0.740171 -0.6724187 -0.0004615255 0.6134545 -0.7897299 -1.279196e-10 0.6236834 -0.7816771 0.000212608 0.4719529 -0.8816237 -0.0003102141 0.4988404 -0.8666938 -7.382736e-11 0.3599518 -0.9329709 -4.518368e-12 0.02202971 -0.9997573 0.0001544665 -0.6335893 -0.7736695 1.019564e-10 -0.4970977 -0.8676946 0.000208218 -0.4539587 -0.8910227 1.630507e-06 -0.3633984 -0.9316338 0.0001664408 -0.2843588 -0.9587179 -0.0001764592 -0.2406963 -0.9706005 -1.741335e-06 -0.1579411 -0.9874485 2.625015e-06 -0.7892623 0.6140561 1.888731e-10 -0.9208677 0.3898752 1.862714e-10 -0.9081829 0.4185735 2.011088e-10 -0.9805238 0.1964005 2.003882e-10 -0.9770103 0.2131923 2.051017e-10 -0.9999918 0.004042772 2.051014e-10 -0.9999904 0.004391656 2.015229e-10 -0.9825428 -0.1860367 2.008912e-10 -0.9794631 -0.2016237 1.894299e-10 -0.9235822 -0.3834006 1.867139e-10 -0.9103401 -0.413861 1.692748e-10 -0.8253141 -0.5646739 0.0002209573 -0.7895114 -0.6137358 1.691819e-06 -0.7309051 -0.6824792 1.305637e-10 -0.6365751 -0.7712147 0.0004362035 -0.6234331 0.7818766 0.0004384356 -0.7316622 0.6816672 1.697815e-10 -0.8277847 0.5610458 1.30667e-10 -0.6370786 0.7707989 -2.358111e-06 -0.5080926 0.8613024 -0.0002508582 -0.4735901 0.8807453 1.680753e-06 -0.3884019 0.9214901 0.0002757083 -0.3432154 0.9392567 0.0002074142 -0.2202291 0.9754482 -8.845229e-07 -0.1480874 0.9889743 5.248867e-11 -0.2559132 0.9666998 -0.0004236172 -0.4048393 -0.9143878 -0.0003614583 -0.5294094 -0.8483664 -5.112753e-06 -0.5000023 -0.8660241 -0.001156147 -0.6452859 0.7639403 1.085336e-10 -0.5291651 0.8485189 -0.0001438405 -0.5000785 0.86598 -3.10911e-07 0.5285477 -0.8489036 -5.680053e-05 0.4624355 -0.8866529 -0.0006365296 0.5000005 -0.8660249 -7.962494e-05 0.3782203 -0.9257156 -0.0006172329 0.2588062 -0.9659291 -4.171094e-06 0.6186236 -0.7856875 -0.0005468602 0.7071492 -0.7070641 -1.498561e-10 0.7306367 -0.6827664 -3.338948e-06 0.8212728 -0.5705357 -0.000544653 0.8659983 -0.5000466 5.67645e-07 0.8786313 -0.4775009 -3.266918e-06 0.9276914 -0.3733478 -0.0006289597 0.9659247 -0.2588226 -1.985085e-10 0.967846 -0.2515436 -3.932901e-06 0.9919648 -0.1265138 -0.0006278059 0.9999998 -1.338978e-08 -2.051034e-10 1 0.0002446274 -3.933209e-06 0.9919019 0.1270066 -0.0006289289 0.9659247 0.2588226 -1.98485e-10 0.9677315 0.2519838 -3.915335e-06 0.9275728 0.3736424 -0.0005446125 0.8659983 0.5000466 -1.802051e-10 0.8786061 0.4775472 -2.819128e-06 0.821337 0.5704433 -0.00023207 0.7070062 0.7072073 -1.49878e-10 0.7307436 0.682652 -3.761452e-06 0.2588171 0.9659263 -0.0007488657 0.2544896 0.9670752 -4.350786e-06 0.5000013 0.8660247 -0.0006825395 0.3784989 0.9256015 -5.513766e-05 0.4628401 0.8864418 -0.0007300727 0.5292954 0.8484373 -0.0005147573 0.618706 0.7856224 -0.0004612345 -0.258929 0.9658962 -3.909631e-06 -0.1341842 0.9909564 -0.0003214118 0.0002047391 0.9999999 -0.0007938881 -0.008388169 0.9999645 -0.0007791377 0.1159761 0.9932517 -0.0004221834 -0.4050007 0.9143163 -0.0005371639 -0.3141186 0.9493836 4.89445e-11 -0.2386332 0.9711098 -0.0007543844 -0.7252918 0.6884412 -0.0003165805 -0.7069643 0.7072491 -4.012754e-06 -0.8011737 0.5984319 -0.0006317893 -0.8660247 0.5000007 1.788356e-10 -0.8719287 0.4896329 -3.914064e-06 -0.9276557 0.3734366 -0.000607752 -0.9659297 0.2588039 1.989675e-10 -0.9700837 0.2427705 -3.674665e-06 -0.9938943 0.110336 -0.0005874915 -0.9999998 -3.475161e-16 2.051034e-10 -1 -3.304976e-16 -3.674665e-06 -0.9938943 -0.110336 -0.0006077547 -0.9659297 -0.2588039 1.98961e-10 -0.9700518 -0.242898 -3.914217e-06 -0.927541 -0.3737214 -0.0006317523 -0.8660247 -0.5000008 1.788227e-10 -0.8718659 -0.4897448 -3.903445e-06 -0.8012638 -0.5983113 -0.0003197315 -0.7069645 -0.707249 1.488218e-10 -0.7255937 -0.6881234 -0.0002529588 -0.6444304 -0.7646629 -4.724901e-06 -0.2588168 -0.9659264 -0.001200096 -0.239332 -0.9709371 -0.001542129 -0.3133359 -0.9496411 -5.203522e-11 0.2537023 -0.9672823 -3.648657e-06 0.1164506 -0.9931965 -0.0003004515 -0.0001899415 -0.9999999 -0.000632088 -0.009216502 -0.9999573 -0.0006109824 -0.1336246 -0.9910318 -1 -2.05103e-10 -2.014595e-16 -1 -2.051028e-10 6.361465e-16 -1 -2.051034e-10 3.809692e-27 -1 -2.051061e-10 0 -1 -2.051034e-10 -9.616724e-16 -1 -2.051039e-10 8.788123e-16 -1 -2.051035e-10 -9.721757e-16 -1 -2.051036e-10 2.588987e-16 -1 -2.051035e-10 9.721757e-16 -1 -2.051039e-10 -8.788123e-16 -1 -2.051026e-10 4.402094e-26 -1 -2.051028e-10 -6.361465e-16 -1 -2.05103e-10 2.014595e-16 -1 -2.051036e-10 -2.588987e-16 -1 -2.051027e-10 2.334846e-16 -1 -2.051034e-10 9.616724e-16 -1 -2.051061e-10 0 -1 -2.051025e-10 1.852634e-15 -1 -2.051027e-10 1.779127e-15 -1 -2.051043e-10 -1.080805e-16 -1 -2.051027e-10 -1.779127e-15 -1 -2.051025e-10 -1.852634e-15 -1 -2.051026e-10 5.08088e-27 -1 -2.051027e-10 -2.334846e-16 -1 -2.051043e-10 1.080805e-16</float_array>
          <technique_common>
            <accessor count="424" source="#normals-array-array" stride="3">
              <param type="float" name="X"/>
              <param type="float" name="Y"/>
              <param type="float" name="Z"/>
            </accessor>
          </technique_common>
        </source>
        <vertices id="verts-array-vertices">
          <input semantic="POSITION" source="#verts-array"/>
        </vertices>
        <triangles count="430" material="material0">
          <input offset="0" semantic="VERTEX" source="#verts-array-vertices"/>
          <input offset="1" semantic="NORMAL" source="#normals-array"/>
          <p>0 0 1 1 2 2 3 3 4 4 2 2 5 5 2 2 4 4 2 2 5 5 0 0 6 6 7 7 2 2 8 8 2 2 7 7 2 2 8 8 3 3 9 9 10 10 2 2 11 11 2 2 10 10 2 2 11 11 6 6 12 12 13 13 2 2 14 14 2 2 13 13 2 2 14 14 9 9 15 15 16 16 2 2 17 17 2 2 16 16 2 2 17 17 12 12 18 18 19 19 2 2 20 20 2 2 19 19 2 2 20 20 15 15 21 21 22 22 2 2 23 23 2 2 22 22 2 2 23 23 18 18 24 24 25 25 2 2 26 26 2 2 25 25 2 2 26 26 21 21 1 1 27 27 2 2 28 28 2 2 27 27 2 2 28 28 24 24 29 29 30 30 31 31 32 32 33 33 31 31 34 34 31 31 33 33 31 31 34 34 29 29 35 35 36 36 31 31 37 37 31 31 36 36 31 31 37 37 32 32 38 38 39 39 31 31 40 40 31 31 39 39 31 31 40 40 35 35 41 41 42 42 31 31 43 43 31 31 42 42 31 31 43 43 38 38 44 44 45 45 31 31 46 46 31 31 45 45 31 31 46 46 41 41 47 47 48 48 31 31 49 49 31 31 48 48 31 31 49 49 44 44 50 50 51 51 31 31 52 52 31 31 51 51 31 31 52 52 47 47 53 53 54 54 31 31 55 55 31 31 54 54 31 31 55 55 50 50 30 30 56 56 31 31 57 57 31 31 56 56 31 31 57 57 53 53 58 58 59 59 60 60 61 61 62 62 63 63 64 64 65 65 66 66 67 67 66 66 65 65 66 66 67 67 68 68 64 64 66 66 69 69 70 70 69 69 66 66 69 69 70 70 71 71 72 72 73 73 74 74 75 75 74 74 73 73 75 75 76 76 74 74 77 77 74 74 76 76 74 74 77 77 70 70 78 78 70 70 77 77 70 70 78 78 71 71 63 63 62 62 79 79 72 72 74 74 80 80 81 81 80 80 74 74 80 80 81 81 82 82 83 83 84 84 63 63 85 85 63 63 84 84 63 63 85 85 61 61 60 60 59 59 63 63 86 86 63 63 59 59 63 63 86 86 83 83 87 87 88 88 89 89 90 90 89 89 88 88 89 89 90 90 91 91 87 87 92 92 88 88 93 93 88 88 92 92 88 88 93 93 60 60 94 94 60 60 93 93 60 60 94 94 58 58 91 91 90 90 95 95 96 96 95 95 90 90 95 95 96 96 97 97 98 98 99 99 100 100 101 101 100 100 99 99 100 100 101 101 96 96 102 102 96 96 101 101 96 96 102 102 97 97 103 103 104 104 105 105 106 106 105 105 104 104 105 105 106 106 107 107 108 108 109 109 110 110 110 110 111 111 108 108 112 112 108 108 111 111 108 108 112 112 100 100 113 113 100 100 112 112 100 100 113 113 98 98 114 114 115 115 116 116 117 117 116 116 115 115 116 116 117 117 105 105 118 118 105 105 117 117 105 105 118 118 103 103 67 67 119 119 68 68 120 120 68 68 119 119 68 68 120 120 121 121 122 122 121 121 120 120 122 122 123 123 121 121 124 124 121 121 123 123 121 121 124 124 116 116 125 125 116 116 124 124 116 116 125 125 114 114 126 126 127 127 128 128 129 129 128 128 127 127 130 130 131 131 132 132 133 133 132 132 131 131 132 132 133 133 129 129 134 134 129 129 133 133 129 129 134 134 128 128 130 130 132 132 135 135 136 136 135 135 132 132 135 135 136 136 137 137 138 138 139 139 140 140 141 141 140 140 139 139 141 141 142 142 143 143 144 144 143 143 142 142 143 143 144 144 136 136 145 145 136 136 144 144 136 136 145 145 137 137 146 146 147 147 148 148 149 149 148 148 147 147 148 148 149 149 150 150 146 146 151 151 147 147 152 152 147 147 151 151 147 147 152 152 140 140 153 153 140 140 152 152 140 140 153 153 138 138 154 154 155 155 156 156 157 157 156 156 155 155 156 156 157 157 158 158 159 159 158 158 157 157 158 158 159 159 149 149 160 160 149 149 159 159 149 149 160 160 150 150 154 154 156 156 161 161 162 162 161 161 156 156 161 161 162 162 163 163 164 164 165 165 166 166 167 167 166 166 165 165 168 168 167 167 169 169 169 169 170 170 168 168 171 171 168 168 170 170 168 168 171 171 162 162 172 172 162 162 171 171 162 162 172 172 163 163 126 126 173 173 127 127 174 174 127 127 173 173 127 127 174 174 175 175 176 176 175 175 174 174 176 176 177 177 175 175 178 178 175 175 177 177 175 175 178 178 166 166 179 179 166 166 178 178 166 166 179 179 164 164 141 141 143 143 140 140 180 180 140 140 143 143 140 140 180 180 181 181 182 182 181 181 180 180 181 181 182 182 183 183 184 184 183 183 182 182 183 183 184 184 185 185 185 185 184 184 186 186 187 187 186 186 184 184 186 186 187 187 188 188 187 187 189 189 188 188 190 190 188 188 189 189 188 188 190 190 191 191 192 192 191 191 190 190 191 191 192 192 193 193 105 105 193 193 192 192 193 193 105 105 108 108 107 107 108 108 105 105 108 108 107 107 109 109 167 167 168 168 166 166 194 194 166 166 168 168 166 166 194 194 195 195 196 196 195 195 194 194 195 195 196 196 197 197 198 198 197 197 196 196 197 197 198 198 199 199 200 200 199 199 198 198 199 199 200 200 201 201 202 202 201 201 200 200 201 201 202 202 203 203 204 204 203 203 202 202 203 203 204 204 205 205 79 79 205 205 204 204 205 205 79 79 81 81 62 62 81 81 79 79 81 81 62 62 82 82 206 206 207 207 208 208 209 209 210 210 211 211 212 212 213 213 211 211 214 214 211 211 213 213 211 211 214 214 209 209 215 215 209 209 214 214 209 209 215 215 216 216 217 217 216 216 215 215 214 214 218 218 215 215 219 219 215 215 218 218 215 215 219 219 217 217 207 207 206 206 220 220 219 219 220 220 217 217 206 206 217 217 220 220 217 217 206 206 221 221 222 222 223 223 224 224 221 221 206 206 223 223 208 208 223 223 206 206 223 223 208 208 224 224 225 225 224 224 208 208 224 224 225 225 226 226 226 226 227 227 224 224 228 228 224 224 227 227 224 224 228 228 222 222 210 210 229 229 211 211 230 230 211 211 229 229 211 211 230 230 212 212 231 231 212 212 230 230 212 212 231 231 232 232 233 233 232 232 231 231 234 234 235 235 236 236 237 237 236 236 235 235 230 230 238 238 231 231 237 237 231 231 238 238 231 231 237 237 233 233 235 235 233 233 237 237 233 233 235 235 239 239 234 234 239 239 235 235 239 239 234 234 240 240 241 241 240 240 242 242 241 241 242 242 243 243 240 240 234 234 242 242 244 244 242 242 234 234 242 242 244 244 245 245 245 245 246 246 242 242 247 247 242 242 246 246 242 242 247 247 243 243 248 248 249 249 250 250 251 251 252 252 253 253 254 254 253 253 252 252 255 255 256 256 257 257 258 258 257 257 256 256 257 257 258 258 259 259 260 260 259 259 258 258 259 259 260 260 261 261 262 262 261 261 260 260 261 261 262 262 263 263 264 264 263 263 262 262 263 263 264 264 265 265 266 266 265 265 264 264 265 265 266 266 267 267 267 267 266 266 268 268 269 269 268 268 266 266 268 268 269 269 270 270 271 271 270 270 269 269 270 270 271 271 272 272 273 273 272 272 271 271 272 272 273 273 274 274 275 275 274 274 273 273 274 274 275 275 276 276 277 277 276 276 275 275 276 276 277 277 278 278 279 279 278 278 277 277 278 278 279 279 280 280 280 280 279 279 281 281 282 282 281 281 279 279 281 281 282 282 283 283 284 284 283 283 282 282 283 283 284 284 285 285 285 285 284 284 286 286 287 287 286 286 284 284 286 286 287 287 254 254 288 288 254 254 287 287 254 254 288 288 253 253 251 251 253 253 250 250 289 289 250 250 253 253 250 250 289 289 248 248 290 290 291 291 292 292 293 293 292 292 291 291 292 292 293 293 294 294 295 295 294 294 293 293 294 294 295 295 296 296 249 249 296 296 295 295 296 296 249 249 248 248 297 297 298 298 299 299 300 300 299 299 298 298 299 299 300 300 301 301 302 302 301 301 300 300 301 301 302 302 303 303 304 304 303 303 302 302 303 303 304 304 305 305 306 306 305 305 304 304 305 305 306 306 307 307 308 308 307 307 306 306 307 307 308 308 309 309 310 310 309 309 308 308 309 309 310 310 290 290 311 311 290 290 310 310 290 290 311 311 291 291 312 312 313 313 297 297 314 314 297 297 313 313 297 297 314 314 298 298 297 297 315 315 312 312 316 316 312 312 315 315 312 312 316 316 317 317 318 318 317 317 316 316 317 317 318 318 319 319 320 320 319 319 318 318 256 256 255 255 321 321 320 320 321 321 255 255 321 321 320 320 322 322 318 318 322 322 320 320 323 323 324 324 325 325 326 326 327 327 328 328 329 329 330 330 331 331 332 332 331 331 330 330 331 331 332 332 333 333 329 329 331 331 334 334 335 335 334 334 331 331 334 334 335 335 336 336 336 336 335 335 337 337 338 338 337 337 335 335 337 337 338 338 339 339 339 339 338 338 340 340 341 341 340 340 338 338 340 340 341 341 342 342 342 342 341 341 343 343 344 344 343 343 341 341 343 343 344 344 345 345 345 345 344 344 346 346 347 347 346 346 344 344 346 346 347 347 348 348 348 348 347 347 349 349 350 350 349 349 347 347 349 349 350 350 351 351 351 351 350 350 352 352 353 353 352 352 350 350 352 352 353 353 354 354 355 355 356 356 357 357 358 358 357 357 356 356 358 358 359 359 357 357 360 360 357 357 359 359 357 357 360 360 353 353 361 361 353 353 360 360 353 353 361 361 354 354 362 362 363 363 364 364 365 365 364 364 363 363 364 364 365 365 355 355 366 366 355 355 365 365 355 355 366 366 356 356 327 327 367 367 328 328 368 368 328 328 367 367 328 328 368 368 362 362 369 369 362 362 368 368 362 362 369 369 363 363 326 326 328 328 370 370 371 371 370 370 328 328 370 370 371 371 372 372 373 373 372 372 371 371 372 372 373 373 374 374 374 374 373 373 375 375 376 376 375 375 373 373 375 375 376 376 377 377 377 377 376 376 378 378 379 379 378 378 376 376 378 378 379 379 380 380 380 380 379 379 381 381 382 382 381 381 379 379 381 381 382 382 383 383 383 383 382 382 384 384 385 385 384 384 382 382 384 384 385 385 386 386 386 386 385 385 387 387 388 388 387 387 385 385 387 387 388 388 389 389 325 325 324 324 388 388 390 390 388 388 324 324 388 388 390 390 389 389 391 391 392 392 325 325 393 393 325 325 392 392 325 325 393 393 323 323 332 332 394 394 333 333 395 395 333 333 394 394 333 333 395 395 396 396 397 397 396 396 395 395 396 396 397 397 391 391 398 398 391 391 397 397 391 391 398 398 392 392 399 399 400 400 401 401 402 402 401 401 400 400 401 401 402 402 403 403 404 404 405 405 401 401 406 406 401 401 405 405 401 401 406 406 399 399 407 407 408 408 401 401 409 409 401 401 408 408 401 401 409 409 404 404 410 410 411 411 401 401 412 412 401 401 411 411 401 401 412 412 407 407 413 413 414 414 401 401 415 415 401 401 414 414 401 401 415 415 410 410 416 416 417 417 401 401 418 418 401 401 417 417 401 401 418 418 413 413 419 419 420 420 401 401 421 421 401 401 420 420 401 401 421 421 416 416 403 403 422 422 401 401 423 423 401 401 422 422 401 401 423 423 419 419</p>
        </triangles>
      </mesh>
    </geometry>
  </library_geometries>
  <library_materials>
    <material id="385ae67dd6a64218a4872a5018c38e55" name="defaultmaterial">
      <instance_effect url="#865f17ccbfaf475a8c5e104a8ed463f7"/>
    </material>
  </library_materials>
  <library_visual_scenes>
    <visual_scene id="scene">
      <node id="node0" name="node0">
        <instance_geometry url="#0ffae2cf31b04be1a898152a8aa94ee6">
          <bind_material>
            <technique_common>
              <instance_material symbol="material0" target="#385ae67dd6a64218a4872a5018c38e55"/>
            </technique_common>
          </bind_material>
        </instance_geometry>
      </node>
    </visual_scene>
  </library_visual_scenes>
  <scene>
    <instance_visual_scene url="#scene"/>
  </scene>
</COLLADA>
